<?xml version="1.0" encoding="UTF-8" standalone="no"?>
<!DOCTYPE svg PUBLIC "-//W3C//DTD SVG 1.1//EN"
 "http://www.w3.org/Graphics/SVG/1.1/DTD/svg11.dtd">
<!-- Generated by graphviz version 2.43.0 (0)
 -->
<!-- Title: pism::CHLiquidWaterFraction Pages: 1 -->
<svg width="251pt" height="209pt"
 viewBox="0.00 0.00 250.50 209.00" xmlns="http://www.w3.org/2000/svg" xmlns:xlink="http://www.w3.org/1999/xlink">
<g id="graph0" class="graph" transform="scale(1 1) rotate(0) translate(4 205)">
<title>pism::CHLiquidWaterFraction</title>
<!-- Node1 -->
<g id="node1" class="node">
<title>Node1</title>
<g id="a_node1"><a xlink:title="Report liquid water fraction in the cryo&#45;hydrologic system.">
<polygon fill="#bfbfbf" stroke="black" points="10.5,-0.5 10.5,-19.5 168.5,-19.5 168.5,-0.5 10.5,-0.5"/>
<text text-anchor="middle" x="89.5" y="-7.5" font-family="Helvetica,sans-Serif" font-size="10.00">pism::CHLiquidWaterFraction</text>
</a>
</g>
</g>
<!-- Node2 -->
<g id="node2" class="node">
<title>Node2</title>
<g id="a_node2"><a xlink:href="classpism_1_1Diag.html" target="_top" xlink:title=" ">
<polygon fill="none" stroke="black" points="0,-57.5 0,-76.5 179,-76.5 179,-57.5 0,-57.5"/>
<text text-anchor="middle" x="89.5" y="-64.5" font-family="Helvetica,sans-Serif" font-size="10.00">pism::Diag&lt; IceRegionalModel &gt;</text>
</a>
</g>
</g>
<!-- Node2&#45;&gt;Node1 -->
<g id="edge1" class="edge">
<title>Node2&#45;&gt;Node1</title>
<path fill="none" stroke="midnightblue" d="M89.5,-47.12C89.5,-37.82 89.5,-27.06 89.5,-19.71"/>
<polygon fill="midnightblue" stroke="midnightblue" points="86,-47.41 89.5,-57.41 93,-47.41 86,-47.41"/>
</g>
<!-- Node3 -->
<g id="node3" class="node">
<title>Node3</title>
<g id="a_node3"><a xlink:href="classpism_1_1Diagnostic.html" target="_top" xlink:title="Class representing diagnostic computations in PISM.">
<polygon fill="none" stroke="black" points="36.5,-181.5 36.5,-200.5 134.5,-200.5 134.5,-181.5 36.5,-181.5"/>
<text text-anchor="middle" x="85.5" y="-188.5" font-family="Helvetica,sans-Serif" font-size="10.00">pism::Diagnostic</text>
</a>
</g>
</g>
<!-- Node3&#45;&gt;Node2 -->
<g id="edge2" class="edge">
<title>Node3&#45;&gt;Node2</title>
<path fill="none" stroke="midnightblue" d="M86.12,-171.19C87,-144.4 88.57,-96.31 89.21,-76.69"/>
<polygon fill="midnightblue" stroke="midnightblue" points="82.62,-171.12 85.79,-181.23 89.61,-171.35 82.62,-171.12"/>
</g>
<!-- Node4 -->
<g id="node4" class="node">
<title>Node4</title>
<g id="a_node4"><a xlink:href="classpism_1_1Diag.html" target="_top" xlink:title="A template derived from Diagnostic, adding a &quot;Model&quot;.">
<polygon fill="none" stroke="black" points="101.5,-124.5 101.5,-143.5 223.5,-143.5 223.5,-124.5 101.5,-124.5"/>
<text text-anchor="middle" x="162.5" y="-131.5" font-family="Helvetica,sans-Serif" font-size="10.00">pism::Diag&lt; Model &gt;</text>
</a>
</g>
</g>
<!-- Node3&#45;&gt;Node4 -->
<g id="edge4" class="edge">
<title>Node3&#45;&gt;Node4</title>
<path fill="none" stroke="midnightblue" d="M105.75,-175.54C120,-165.35 138.61,-152.07 150.55,-143.53"/>
<polygon fill="midnightblue" stroke="midnightblue" points="103.63,-172.75 97.53,-181.41 107.7,-178.44 103.63,-172.75"/>
</g>
<!-- Node4&#45;&gt;Node2 -->
<g id="edge3" class="edge">
<title>Node4&#45;&gt;Node2</title>
<path fill="none" stroke="orange" stroke-dasharray="5,2" d="M144.93,-117.36C130.58,-104.58 110.83,-86.99 99.19,-76.63"/>
<polygon fill="orange" stroke="orange" points="142.86,-120.2 152.65,-124.23 147.51,-114.97 142.86,-120.2"/>
<text text-anchor="middle" x="186" y="-98" font-family="Helvetica,sans-Serif" font-size="10.00"> &lt; IceRegionalModel &gt;</text>
</g>
</g>
</svg>
