<?xml version="1.0" encoding="UTF-8" standalone="no"?>
<!DOCTYPE svg PUBLIC "-//W3C//DTD SVG 1.1//EN"
 "http://www.w3.org/Graphics/SVG/1.1/DTD/svg11.dtd">
<!-- Generated by graphviz version 2.43.0 (0)
 -->
<!-- Title: pism::TSDiagnostic Pages: 1 -->
<svg width="973pt" height="1697pt"
 viewBox="0.00 0.00 973.00 1697.00" xmlns="http://www.w3.org/2000/svg" xmlns:xlink="http://www.w3.org/1999/xlink">
<g id="graph0" class="graph" transform="scale(1 1) rotate(0) translate(4 1693)">
<title>pism::TSDiagnostic</title>
<!-- Node1 -->
<g id="node1" class="node">
<title>Node1</title>
<g id="a_node1"><a xlink:title="PISM&#39;s scalar time&#45;series diagnostics.">
<polygon fill="#bfbfbf" stroke="black" points="0,-902 0,-921 110,-921 110,-902 0,-902"/>
<text text-anchor="middle" x="55" y="-909" font-family="Helvetica,sans-Serif" font-size="10.00">pism::TSDiagnostic</text>
</a>
</g>
</g>
<!-- Node2 -->
<g id="node2" class="node">
<title>Node2</title>
<g id="a_node2"><a xlink:href="classpism_1_1TSRateDiagnostic.html" target="_top" xlink:title="Scalar diagnostic reporting the rate of change of a quantity modeled by PISM.">
<polygon fill="none" stroke="black" points="157,-1224 157,-1243 290,-1243 290,-1224 157,-1224"/>
<text text-anchor="middle" x="223.5" y="-1231" font-family="Helvetica,sans-Serif" font-size="10.00">pism::TSRateDiagnostic</text>
</a>
</g>
</g>
<!-- Node1&#45;&gt;Node2 -->
<g id="edge1" class="edge">
<title>Node1&#45;&gt;Node2</title>
<path fill="none" stroke="midnightblue" d="M65.72,-930.3C97.01,-990.81 194.41,-1179.17 217.54,-1223.9"/>
<polygon fill="midnightblue" stroke="midnightblue" points="68.69,-928.41 60.98,-921.14 62.47,-931.63 68.69,-928.41"/>
</g>
<!-- Node25 -->
<g id="node25" class="node">
<title>Node25</title>
<g id="a_node25"><a xlink:href="classpism_1_1TSSnapshotDiagnostic.html" target="_top" xlink:title="Scalar diagnostic reporting a snapshot of a quantity modeled by PISM.">
<polygon fill="none" stroke="black" points="146,-883 146,-902 301,-902 301,-883 146,-883"/>
<text text-anchor="middle" x="223.5" y="-890" font-family="Helvetica,sans-Serif" font-size="10.00">pism::TSSnapshotDiagnostic</text>
</a>
</g>
</g>
<!-- Node1&#45;&gt;Node25 -->
<g id="edge24" class="edge">
<title>Node1&#45;&gt;Node25</title>
<path fill="none" stroke="midnightblue" d="M120.12,-904.18C128.51,-903.23 137.16,-902.24 145.73,-901.26"/>
<polygon fill="midnightblue" stroke="midnightblue" points="119.6,-900.72 110.06,-905.33 120.39,-907.67 119.6,-900.72"/>
</g>
<!-- Node3 -->
<g id="node3" class="node">
<title>Node3</title>
<g id="a_node3"><a xlink:href="classpism_1_1TSDiag.html" target="_top" xlink:title=" ">
<polygon fill="none" stroke="black" points="337,-1548.5 337,-1578.5 519,-1578.5 519,-1548.5 337,-1548.5"/>
<text text-anchor="start" x="345" y="-1566.5" font-family="Helvetica,sans-Serif" font-size="10.00">pism::TSDiag&lt; TSRateDiagnostic,</text>
<text text-anchor="middle" x="428" y="-1555.5" font-family="Helvetica,sans-Serif" font-size="10.00"> IceModel &gt;</text>
</a>
</g>
</g>
<!-- Node2&#45;&gt;Node3 -->
<g id="edge2" class="edge">
<title>Node2&#45;&gt;Node3</title>
<path fill="none" stroke="midnightblue" d="M235.6,-1251.6C271.55,-1310.17 384.33,-1493.96 417.64,-1548.25"/>
<polygon fill="midnightblue" stroke="midnightblue" points="238.56,-1249.71 230.34,-1243.02 232.59,-1253.37 238.56,-1249.71"/>
</g>
<!-- Node8 -->
<g id="node8" class="node">
<title>Node8</title>
<g id="a_node8"><a xlink:href="classpism_1_1TSFluxDiagnostic.html" target="_top" xlink:title="Scalar diagnostic reporting a &quot;flux&quot;.">
<polygon fill="none" stroke="black" points="362.5,-1224 362.5,-1243 493.5,-1243 493.5,-1224 362.5,-1224"/>
<text text-anchor="middle" x="428" y="-1231" font-family="Helvetica,sans-Serif" font-size="10.00">pism::TSFluxDiagnostic</text>
</a>
</g>
</g>
<!-- Node2&#45;&gt;Node8 -->
<g id="edge7" class="edge">
<title>Node2&#45;&gt;Node8</title>
<path fill="none" stroke="midnightblue" d="M300.42,-1233.5C320.77,-1233.5 342.59,-1233.5 362.28,-1233.5"/>
<polygon fill="midnightblue" stroke="midnightblue" points="300.25,-1230 290.25,-1233.5 300.25,-1237 300.25,-1230"/>
</g>
<!-- Node4 -->
<g id="node4" class="node">
<title>Node4</title>
<g id="a_node4"><a xlink:href="classpism_1_1diagnostics_1_1scalar_1_1IceMassRateOfChange.html" target="_top" xlink:title="Computes the rate of change of the total ice mass.">
<polygon fill="none" stroke="black" points="564,-1658.5 564,-1688.5 726,-1688.5 726,-1658.5 564,-1658.5"/>
<text text-anchor="start" x="572" y="-1676.5" font-family="Helvetica,sans-Serif" font-size="10.00">pism::diagnostics::</text>
<text text-anchor="middle" x="645" y="-1665.5" font-family="Helvetica,sans-Serif" font-size="10.00">scalar::IceMassRateOfChange</text>
</a>
</g>
</g>
<!-- Node3&#45;&gt;Node4 -->
<g id="edge3" class="edge">
<title>Node3&#45;&gt;Node4</title>
<path fill="none" stroke="midnightblue" d="M455.57,-1585.15C480.09,-1604.18 518.16,-1631.44 555,-1648.5 563.16,-1652.28 572,-1655.6 580.85,-1658.48"/>
<polygon fill="midnightblue" stroke="midnightblue" points="457.52,-1582.22 447.49,-1578.79 453.19,-1587.72 457.52,-1582.22"/>
</g>
<!-- Node5 -->
<g id="node5" class="node">
<title>Node5</title>
<g id="a_node5"><a xlink:href="classpism_1_1diagnostics_1_1scalar_1_1IceMassRateOfChangeGlacierized.html" target="_top" xlink:title="Computes the rate of change of the total ice mass in glacierized areas.">
<polygon fill="none" stroke="black" points="564,-1598 564,-1639 726,-1639 726,-1598 564,-1598"/>
<text text-anchor="start" x="572" y="-1627" font-family="Helvetica,sans-Serif" font-size="10.00">pism::diagnostics::</text>
<text text-anchor="start" x="572" y="-1616" font-family="Helvetica,sans-Serif" font-size="10.00">scalar::IceMassRateOfChange</text>
<text text-anchor="middle" x="645" y="-1605" font-family="Helvetica,sans-Serif" font-size="10.00">Glacierized</text>
</a>
</g>
</g>
<!-- Node3&#45;&gt;Node5 -->
<g id="edge4" class="edge">
<title>Node3&#45;&gt;Node5</title>
<path fill="none" stroke="midnightblue" d="M497.59,-1581.05C518.71,-1586.45 542.14,-1592.44 563.96,-1598.02"/>
<polygon fill="midnightblue" stroke="midnightblue" points="498.31,-1577.62 487.75,-1578.53 496.57,-1584.4 498.31,-1577.62"/>
</g>
<!-- Node6 -->
<g id="node6" class="node">
<title>Node6</title>
<g id="a_node6"><a xlink:href="classpism_1_1diagnostics_1_1scalar_1_1IceVolumeRateOfChange.html" target="_top" xlink:title="Computes the rate of change of the total ice volume.">
<polygon fill="none" stroke="black" points="558.5,-1548.5 558.5,-1578.5 731.5,-1578.5 731.5,-1548.5 558.5,-1548.5"/>
<text text-anchor="start" x="566.5" y="-1566.5" font-family="Helvetica,sans-Serif" font-size="10.00">pism::diagnostics::</text>
<text text-anchor="middle" x="645" y="-1555.5" font-family="Helvetica,sans-Serif" font-size="10.00">scalar::IceVolumeRateOfChange</text>
</a>
</g>
</g>
<!-- Node3&#45;&gt;Node6 -->
<g id="edge5" class="edge">
<title>Node3&#45;&gt;Node6</title>
<path fill="none" stroke="midnightblue" d="M529.34,-1563.5C539.07,-1563.5 548.88,-1563.5 558.45,-1563.5"/>
<polygon fill="midnightblue" stroke="midnightblue" points="529.24,-1560 519.24,-1563.5 529.24,-1567 529.24,-1560"/>
</g>
<!-- Node7 -->
<g id="node7" class="node">
<title>Node7</title>
<g id="a_node7"><a xlink:href="classpism_1_1diagnostics_1_1scalar_1_1IceVolumeRateOfChangeGlacierized.html" target="_top" xlink:title="Computes the rate of change of the total ice volume in glacierized areas.">
<polygon fill="none" stroke="black" points="558.5,-1488 558.5,-1529 731.5,-1529 731.5,-1488 558.5,-1488"/>
<text text-anchor="start" x="566.5" y="-1517" font-family="Helvetica,sans-Serif" font-size="10.00">pism::diagnostics::</text>
<text text-anchor="start" x="566.5" y="-1506" font-family="Helvetica,sans-Serif" font-size="10.00">scalar::IceVolumeRateOfChange</text>
<text text-anchor="middle" x="645" y="-1495" font-family="Helvetica,sans-Serif" font-size="10.00">Glacierized</text>
</a>
</g>
</g>
<!-- Node3&#45;&gt;Node7 -->
<g id="edge6" class="edge">
<title>Node3&#45;&gt;Node7</title>
<path fill="none" stroke="midnightblue" d="M497.54,-1545.97C518.54,-1540.59 541.84,-1534.63 563.56,-1529.08"/>
<polygon fill="midnightblue" stroke="midnightblue" points="496.57,-1542.6 487.75,-1548.47 498.31,-1549.38 496.57,-1542.6"/>
</g>
<!-- Node9 -->
<g id="node9" class="node">
<title>Node9</title>
<g id="a_node9"><a xlink:href="classpism_1_1TSDiag.html" target="_top" xlink:title=" ">
<polygon fill="none" stroke="black" points="555,-1438.5 555,-1468.5 735,-1468.5 735,-1438.5 555,-1438.5"/>
<text text-anchor="start" x="563" y="-1456.5" font-family="Helvetica,sans-Serif" font-size="10.00">pism::TSDiag&lt; TSFluxDiagnostic,</text>
<text text-anchor="middle" x="645" y="-1445.5" font-family="Helvetica,sans-Serif" font-size="10.00"> TemperatureIndex &gt;</text>
</a>
</g>
</g>
<!-- Node8&#45;&gt;Node9 -->
<g id="edge8" class="edge">
<title>Node8&#45;&gt;Node9</title>
<path fill="none" stroke="midnightblue" d="M445.55,-1250.43C486.2,-1292.03 590.45,-1398.7 629.2,-1438.36"/>
<polygon fill="midnightblue" stroke="midnightblue" points="448.01,-1247.94 438.52,-1243.24 443,-1252.84 448.01,-1247.94"/>
</g>
<!-- Node13 -->
<g id="node13" class="node">
<title>Node13</title>
<g id="a_node13"><a xlink:href="classpism_1_1TSDiag.html" target="_top" xlink:title=" ">
<polygon fill="none" stroke="black" points="555,-1218.5 555,-1248.5 735,-1248.5 735,-1218.5 555,-1218.5"/>
<text text-anchor="start" x="563" y="-1236.5" font-family="Helvetica,sans-Serif" font-size="10.00">pism::TSDiag&lt; TSFluxDiagnostic,</text>
<text text-anchor="middle" x="645" y="-1225.5" font-family="Helvetica,sans-Serif" font-size="10.00"> IceModel &gt;</text>
</a>
</g>
</g>
<!-- Node8&#45;&gt;Node13 -->
<g id="edge12" class="edge">
<title>Node8&#45;&gt;Node13</title>
<path fill="none" stroke="midnightblue" d="M503.64,-1233.5C520.17,-1233.5 537.85,-1233.5 554.89,-1233.5"/>
<polygon fill="midnightblue" stroke="midnightblue" points="503.51,-1230 493.51,-1233.5 503.51,-1237 503.51,-1230"/>
</g>
<!-- Node23 -->
<g id="node23" class="node">
<title>Node23</title>
<g id="a_node23"><a xlink:href="classpism_1_1TSDiag.html" target="_top" xlink:title=" ">
<polygon fill="none" stroke="black" points="555,-1169.5 555,-1199.5 735,-1199.5 735,-1169.5 555,-1169.5"/>
<text text-anchor="start" x="563" y="-1187.5" font-family="Helvetica,sans-Serif" font-size="10.00">pism::TSDiag&lt; TSFluxDiagnostic,</text>
<text text-anchor="middle" x="645" y="-1176.5" font-family="Helvetica,sans-Serif" font-size="10.00"> EnergyModel &gt;</text>
</a>
</g>
</g>
<!-- Node8&#45;&gt;Node23 -->
<g id="edge22" class="edge">
<title>Node8&#45;&gt;Node23</title>
<path fill="none" stroke="midnightblue" d="M480.69,-1221.72C509.86,-1215.07 546.62,-1206.69 577.87,-1199.57"/>
<polygon fill="midnightblue" stroke="midnightblue" points="479.68,-1218.36 470.71,-1223.99 481.24,-1225.18 479.68,-1218.36"/>
</g>
<!-- Node10 -->
<g id="node10" class="node">
<title>Node10</title>
<g id="a_node10"><a xlink:href="classpism_1_1surface_1_1diagnostics_1_1TotalSurfaceAccumulation.html" target="_top" xlink:title="Reports the total accumulation rate.">
<polygon fill="none" stroke="black" points="793.5,-1536.5 793.5,-1566.5 942.5,-1566.5 942.5,-1536.5 793.5,-1536.5"/>
<text text-anchor="start" x="801.5" y="-1554.5" font-family="Helvetica,sans-Serif" font-size="10.00">pism::surface::diagnostics</text>
<text text-anchor="middle" x="868" y="-1543.5" font-family="Helvetica,sans-Serif" font-size="10.00">::TotalSurfaceAccumulation</text>
</a>
</g>
</g>
<!-- Node9&#45;&gt;Node10 -->
<g id="edge9" class="edge">
<title>Node9&#45;&gt;Node10</title>
<path fill="none" stroke="midnightblue" d="M726.01,-1473.02C729.13,-1474.7 732.14,-1476.52 735,-1478.5 757.22,-1493.88 748.56,-1512.44 771,-1527.5 777.85,-1532.1 785.5,-1535.81 793.42,-1538.82"/>
<polygon fill="midnightblue" stroke="midnightblue" points="727.51,-1469.86 716.98,-1468.66 724.46,-1476.16 727.51,-1469.86"/>
</g>
<!-- Node11 -->
<g id="node11" class="node">
<title>Node11</title>
<g id="a_node11"><a xlink:href="classpism_1_1surface_1_1diagnostics_1_1TotalSurfaceMelt.html" target="_top" xlink:title="Reports the total melt rate.">
<polygon fill="none" stroke="black" points="796,-1487.5 796,-1517.5 940,-1517.5 940,-1487.5 796,-1487.5"/>
<text text-anchor="start" x="804" y="-1505.5" font-family="Helvetica,sans-Serif" font-size="10.00">pism::surface::diagnostics</text>
<text text-anchor="middle" x="868" y="-1494.5" font-family="Helvetica,sans-Serif" font-size="10.00">::TotalSurfaceMelt</text>
</a>
</g>
</g>
<!-- Node9&#45;&gt;Node11 -->
<g id="edge10" class="edge">
<title>Node9&#45;&gt;Node11</title>
<path fill="none" stroke="midnightblue" d="M723.84,-1470.76C748.46,-1476.22 775.47,-1482.21 799.32,-1487.49"/>
<polygon fill="midnightblue" stroke="midnightblue" points="724.33,-1467.28 713.81,-1468.53 722.81,-1474.12 724.33,-1467.28"/>
</g>
<!-- Node12 -->
<g id="node12" class="node">
<title>Node12</title>
<g id="a_node12"><a xlink:href="classpism_1_1surface_1_1diagnostics_1_1TotalSurfaceRunoff.html" target="_top" xlink:title="Reports the total top surface ice flux.">
<polygon fill="none" stroke="black" points="796,-1438.5 796,-1468.5 940,-1468.5 940,-1438.5 796,-1438.5"/>
<text text-anchor="start" x="804" y="-1456.5" font-family="Helvetica,sans-Serif" font-size="10.00">pism::surface::diagnostics</text>
<text text-anchor="middle" x="868" y="-1445.5" font-family="Helvetica,sans-Serif" font-size="10.00">::TotalSurfaceRunoff</text>
</a>
</g>
</g>
<!-- Node9&#45;&gt;Node12 -->
<g id="edge11" class="edge">
<title>Node9&#45;&gt;Node12</title>
<path fill="none" stroke="midnightblue" d="M745.7,-1453.5C762.58,-1453.5 779.79,-1453.5 795.75,-1453.5"/>
<polygon fill="midnightblue" stroke="midnightblue" points="745.25,-1450 735.25,-1453.5 745.25,-1457 745.25,-1450"/>
</g>
<!-- Node14 -->
<g id="node14" class="node">
<title>Node14</title>
<g id="a_node14"><a xlink:href="classpism_1_1diagnostics_1_1scalar_1_1IceMassFluxAtGroundingLine.html" target="_top" xlink:title="Reports the total flux across the grounding line.">
<polygon fill="none" stroke="black" points="771,-1389.5 771,-1419.5 965,-1419.5 965,-1389.5 771,-1389.5"/>
<text text-anchor="start" x="779" y="-1407.5" font-family="Helvetica,sans-Serif" font-size="10.00">pism::diagnostics::</text>
<text text-anchor="middle" x="868" y="-1396.5" font-family="Helvetica,sans-Serif" font-size="10.00">scalar::IceMassFluxAtGroundingLine</text>
</a>
</g>
</g>
<!-- Node13&#45;&gt;Node14 -->
<g id="edge13" class="edge">
<title>Node13&#45;&gt;Node14</title>
<path fill="none" stroke="midnightblue" d="M659.81,-1257.65C679.93,-1290.61 720.49,-1349.14 771,-1380.5 776.55,-1383.94 782.56,-1386.89 788.78,-1389.42"/>
<polygon fill="midnightblue" stroke="midnightblue" points="662.59,-1255.48 654.46,-1248.69 656.58,-1259.07 662.59,-1255.48"/>
</g>
<!-- Node15 -->
<g id="node15" class="node">
<title>Node15</title>
<g id="a_node15"><a xlink:href="classpism_1_1diagnostics_1_1scalar_1_1IceMassFluxBasal.html" target="_top" xlink:title="Reports the total bottom surface ice flux.">
<polygon fill="none" stroke="black" points="798,-1340.5 798,-1370.5 938,-1370.5 938,-1340.5 798,-1340.5"/>
<text text-anchor="start" x="806" y="-1358.5" font-family="Helvetica,sans-Serif" font-size="10.00">pism::diagnostics::</text>
<text text-anchor="middle" x="868" y="-1347.5" font-family="Helvetica,sans-Serif" font-size="10.00">scalar::IceMassFluxBasal</text>
</a>
</g>
</g>
<!-- Node13&#45;&gt;Node15 -->
<g id="edge14" class="edge">
<title>Node13&#45;&gt;Node15</title>
<path fill="none" stroke="midnightblue" d="M668.07,-1255.61C691.61,-1277.96 730.94,-1311.9 771,-1331.5 779.41,-1335.61 788.59,-1339.06 797.83,-1341.95"/>
<polygon fill="midnightblue" stroke="midnightblue" points="670.35,-1252.94 660.72,-1248.52 665.49,-1257.98 670.35,-1252.94"/>
</g>
<!-- Node16 -->
<g id="node16" class="node">
<title>Node16</title>
<g id="a_node16"><a xlink:href="classpism_1_1diagnostics_1_1scalar_1_1IceMassFluxBasalFloating.html" target="_top" xlink:title="Reports the total sub&#45;shelf ice flux.">
<polygon fill="none" stroke="black" points="778.5,-1291.5 778.5,-1321.5 957.5,-1321.5 957.5,-1291.5 778.5,-1291.5"/>
<text text-anchor="start" x="786.5" y="-1309.5" font-family="Helvetica,sans-Serif" font-size="10.00">pism::diagnostics::</text>
<text text-anchor="middle" x="868" y="-1298.5" font-family="Helvetica,sans-Serif" font-size="10.00">scalar::IceMassFluxBasalFloating</text>
</a>
</g>
</g>
<!-- Node13&#45;&gt;Node16 -->
<g id="edge15" class="edge">
<title>Node13&#45;&gt;Node16</title>
<path fill="none" stroke="midnightblue" d="M690.27,-1252.46C713.96,-1262.2 743.78,-1273.8 771,-1282.5 780.98,-1285.69 791.66,-1288.72 802.13,-1291.49"/>
<polygon fill="midnightblue" stroke="midnightblue" points="691.43,-1249.15 680.86,-1248.56 688.75,-1255.62 691.43,-1249.15"/>
</g>
<!-- Node17 -->
<g id="node17" class="node">
<title>Node17</title>
<g id="a_node17"><a xlink:href="classpism_1_1diagnostics_1_1scalar_1_1IceMassFluxBasalGrounded.html" target="_top" xlink:title="Reports the total basal ice flux over the grounded region.">
<polygon fill="none" stroke="black" points="774.5,-1242.5 774.5,-1272.5 961.5,-1272.5 961.5,-1242.5 774.5,-1242.5"/>
<text text-anchor="start" x="782.5" y="-1260.5" font-family="Helvetica,sans-Serif" font-size="10.00">pism::diagnostics::</text>
<text text-anchor="middle" x="868" y="-1249.5" font-family="Helvetica,sans-Serif" font-size="10.00">scalar::IceMassFluxBasalGrounded</text>
</a>
</g>
</g>
<!-- Node13&#45;&gt;Node17 -->
<g id="edge16" class="edge">
<title>Node13&#45;&gt;Node17</title>
<path fill="none" stroke="midnightblue" d="M745.23,-1244.28C754.86,-1245.32 764.61,-1246.38 774.17,-1247.42"/>
<polygon fill="midnightblue" stroke="midnightblue" points="745.57,-1240.79 735.25,-1243.19 744.82,-1247.75 745.57,-1240.79"/>
</g>
<!-- Node18 -->
<g id="node18" class="node">
<title>Node18</title>
<g id="a_node18"><a xlink:href="classpism_1_1diagnostics_1_1scalar_1_1IceMassFluxCalving.html" target="_top" xlink:title="Reports the total calving flux.">
<polygon fill="none" stroke="black" points="793.5,-1193.5 793.5,-1223.5 942.5,-1223.5 942.5,-1193.5 793.5,-1193.5"/>
<text text-anchor="start" x="801.5" y="-1211.5" font-family="Helvetica,sans-Serif" font-size="10.00">pism::diagnostics::</text>
<text text-anchor="middle" x="868" y="-1200.5" font-family="Helvetica,sans-Serif" font-size="10.00">scalar::IceMassFluxCalving</text>
</a>
</g>
</g>
<!-- Node13&#45;&gt;Node18 -->
<g id="edge17" class="edge">
<title>Node13&#45;&gt;Node18</title>
<path fill="none" stroke="midnightblue" d="M745.26,-1222.27C761.43,-1220.44 777.92,-1218.58 793.33,-1216.83"/>
<polygon fill="midnightblue" stroke="midnightblue" points="744.8,-1218.8 735.25,-1223.4 745.58,-1225.76 744.8,-1218.8"/>
</g>
<!-- Node19 -->
<g id="node19" class="node">
<title>Node19</title>
<g id="a_node19"><a xlink:href="classpism_1_1diagnostics_1_1scalar_1_1IceMassFluxConservationError.html" target="_top" xlink:title="Reports the total numerical mass flux needed to preserve non&#45;negativity of ice thickness.">
<polygon fill="none" stroke="black" points="779.5,-1133 779.5,-1174 956.5,-1174 956.5,-1133 779.5,-1133"/>
<text text-anchor="start" x="787.5" y="-1162" font-family="Helvetica,sans-Serif" font-size="10.00">pism::diagnostics::</text>
<text text-anchor="start" x="787.5" y="-1151" font-family="Helvetica,sans-Serif" font-size="10.00">scalar::IceMassFluxConservation</text>
<text text-anchor="middle" x="868" y="-1140" font-family="Helvetica,sans-Serif" font-size="10.00">Error</text>
</a>
</g>
</g>
<!-- Node13&#45;&gt;Node19 -->
<g id="edge18" class="edge">
<title>Node13&#45;&gt;Node19</title>
<path fill="none" stroke="midnightblue" d="M721.59,-1215.09C726.19,-1213.36 730.69,-1211.5 735,-1209.5 752.66,-1201.29 753.54,-1193.14 771,-1184.5 778.69,-1180.69 786.96,-1177.21 795.29,-1174.06"/>
<polygon fill="midnightblue" stroke="midnightblue" points="720.32,-1211.82 712.05,-1218.44 722.64,-1218.43 720.32,-1211.82"/>
</g>
<!-- Node20 -->
<g id="node20" class="node">
<title>Node20</title>
<g id="a_node20"><a xlink:href="classpism_1_1diagnostics_1_1scalar_1_1IceMassFluxDischarge.html" target="_top" xlink:title="Reports the total discharge flux.">
<polygon fill="none" stroke="black" points="787.5,-1083.5 787.5,-1113.5 948.5,-1113.5 948.5,-1083.5 787.5,-1083.5"/>
<text text-anchor="start" x="795.5" y="-1101.5" font-family="Helvetica,sans-Serif" font-size="10.00">pism::diagnostics::</text>
<text text-anchor="middle" x="868" y="-1090.5" font-family="Helvetica,sans-Serif" font-size="10.00">scalar::IceMassFluxDischarge</text>
</a>
</g>
</g>
<!-- Node13&#45;&gt;Node20 -->
<g id="edge19" class="edge">
<title>Node13&#45;&gt;Node20</title>
<path fill="none" stroke="midnightblue" d="M730.88,-1212.81C732.3,-1211.76 733.68,-1210.66 735,-1209.5 766.18,-1182.21 739.7,-1150.65 771,-1123.5 775.94,-1119.21 781.53,-1115.65 787.47,-1112.68"/>
<polygon fill="midnightblue" stroke="midnightblue" points="728.87,-1209.95 722.32,-1218.28 732.64,-1215.85 728.87,-1209.95"/>
</g>
<!-- Node21 -->
<g id="node21" class="node">
<title>Node21</title>
<g id="a_node21"><a xlink:href="classpism_1_1diagnostics_1_1scalar_1_1IceMassFluxSurface.html" target="_top" xlink:title="Reports the total top surface ice flux.">
<polygon fill="none" stroke="black" points="793.5,-1034.5 793.5,-1064.5 942.5,-1064.5 942.5,-1034.5 793.5,-1034.5"/>
<text text-anchor="start" x="801.5" y="-1052.5" font-family="Helvetica,sans-Serif" font-size="10.00">pism::diagnostics::</text>
<text text-anchor="middle" x="868" y="-1041.5" font-family="Helvetica,sans-Serif" font-size="10.00">scalar::IceMassFluxSurface</text>
</a>
</g>
</g>
<!-- Node13&#45;&gt;Node21 -->
<g id="edge20" class="edge">
<title>Node13&#45;&gt;Node21</title>
<path fill="none" stroke="midnightblue" d="M732.04,-1212.26C733.06,-1211.38 734.05,-1210.46 735,-1209.5 778.85,-1165.53 726.96,-1118.28 771,-1074.5 777.35,-1068.19 785.08,-1063.41 793.37,-1059.8"/>
<polygon fill="midnightblue" stroke="midnightblue" points="729.7,-1209.63 723.69,-1218.36 733.83,-1215.29 729.7,-1209.63"/>
</g>
<!-- Node22 -->
<g id="node22" class="node">
<title>Node22</title>
<g id="a_node22"><a xlink:href="classpism_1_1diagnostics_1_1scalar_1_1IceMassRateOfChangeDueToFlow.html" target="_top" xlink:title="Computes the rate of change of the total ice mass due to flow (influx due to prescribed constant&#45;in&#45;t...">
<polygon fill="none" stroke="black" points="787,-974 787,-1015 949,-1015 949,-974 787,-974"/>
<text text-anchor="start" x="795" y="-1003" font-family="Helvetica,sans-Serif" font-size="10.00">pism::diagnostics::</text>
<text text-anchor="start" x="795" y="-992" font-family="Helvetica,sans-Serif" font-size="10.00">scalar::IceMassRateOfChange</text>
<text text-anchor="middle" x="868" y="-981" font-family="Helvetica,sans-Serif" font-size="10.00">DueToFlow</text>
</a>
</g>
</g>
<!-- Node13&#45;&gt;Node22 -->
<g id="edge21" class="edge">
<title>Node13&#45;&gt;Node22</title>
<path fill="none" stroke="midnightblue" d="M732.55,-1211.96C733.39,-1211.17 734.21,-1210.35 735,-1209.5 791.82,-1148.55 715.69,-1087.83 771,-1025.5 775.53,-1020.39 780.91,-1016.12 786.78,-1012.55"/>
<polygon fill="midnightblue" stroke="midnightblue" points="730.09,-1209.44 724.37,-1218.36 734.4,-1214.96 730.09,-1209.44"/>
</g>
<!-- Node24 -->
<g id="node24" class="node">
<title>Node24</title>
<g id="a_node24"><a xlink:href="classpism_1_1energy_1_1LiquifiedIceFlux.html" target="_top" xlink:title="Ice loss &quot;flux&quot; due to ice liquefaction.">
<polygon fill="none" stroke="black" points="787,-936 787,-955 949,-955 949,-936 787,-936"/>
<text text-anchor="middle" x="868" y="-943" font-family="Helvetica,sans-Serif" font-size="10.00">pism::energy::LiquifiedIceFlux</text>
</a>
</g>
</g>
<!-- Node23&#45;&gt;Node24 -->
<g id="edge23" class="edge">
<title>Node23&#45;&gt;Node24</title>
<path fill="none" stroke="midnightblue" d="M732.56,-1162.97C733.4,-1162.18 734.21,-1161.35 735,-1160.5 795.02,-1095.37 708.8,-1027.56 771,-964.5 775.53,-959.9 780.84,-956.25 786.58,-953.37"/>
<polygon fill="midnightblue" stroke="midnightblue" points="730.1,-1160.46 724.41,-1169.4 734.43,-1165.96 730.1,-1160.46"/>
</g>
<!-- Node26 -->
<g id="node26" class="node">
<title>Node26</title>
<g id="a_node26"><a xlink:href="classpism_1_1TSDiag.html" target="_top" xlink:title=" ">
<polygon fill="none" stroke="black" points="353.5,-573.5 353.5,-603.5 502.5,-603.5 502.5,-573.5 353.5,-573.5"/>
<text text-anchor="start" x="361.5" y="-591.5" font-family="Helvetica,sans-Serif" font-size="10.00">pism::TSDiag&lt; TSSnapshot</text>
<text text-anchor="middle" x="428" y="-580.5" font-family="Helvetica,sans-Serif" font-size="10.00">Diagnostic, IceModel &gt;</text>
</a>
</g>
</g>
<!-- Node25&#45;&gt;Node26 -->
<g id="edge25" class="edge">
<title>Node25&#45;&gt;Node26</title>
<path fill="none" stroke="midnightblue" d="M236.62,-874.31C273.3,-819.23 382.75,-654.92 416.79,-603.83"/>
<polygon fill="midnightblue" stroke="midnightblue" points="233.64,-872.47 231.01,-882.73 239.46,-876.35 233.64,-872.47"/>
</g>
<!-- Node27 -->
<g id="node27" class="node">
<title>Node27</title>
<g id="a_node27"><a xlink:href="classpism_1_1diagnostics_1_1scalar_1_1IceAreaGlacierized.html" target="_top" xlink:title="Computes the total ice area.">
<polygon fill="none" stroke="black" points="573.5,-1120.5 573.5,-1150.5 716.5,-1150.5 716.5,-1120.5 573.5,-1120.5"/>
<text text-anchor="start" x="581.5" y="-1138.5" font-family="Helvetica,sans-Serif" font-size="10.00">pism::diagnostics::</text>
<text text-anchor="middle" x="645" y="-1127.5" font-family="Helvetica,sans-Serif" font-size="10.00">scalar::IceAreaGlacierized</text>
</a>
</g>
</g>
<!-- Node26&#45;&gt;Node27 -->
<g id="edge26" class="edge">
<title>Node26&#45;&gt;Node27</title>
<path fill="none" stroke="midnightblue" d="M431.72,-613.67C442.38,-707.73 484.22,-1037.05 555,-1110.5 560.23,-1115.93 566.55,-1120.21 573.36,-1123.58"/>
<polygon fill="midnightblue" stroke="midnightblue" points="435.19,-613.18 430.6,-603.63 428.23,-613.96 435.19,-613.18"/>
</g>
<!-- Node28 -->
<g id="node28" class="node">
<title>Node28</title>
<g id="a_node28"><a xlink:href="classpism_1_1diagnostics_1_1scalar_1_1IceAreaGlacierizedColdBase.html" target="_top" xlink:title="Computes the total area of the cold ice.">
<polygon fill="none" stroke="black" points="573.5,-1060 573.5,-1101 716.5,-1101 716.5,-1060 573.5,-1060"/>
<text text-anchor="start" x="581.5" y="-1089" font-family="Helvetica,sans-Serif" font-size="10.00">pism::diagnostics::</text>
<text text-anchor="start" x="581.5" y="-1078" font-family="Helvetica,sans-Serif" font-size="10.00">scalar::IceAreaGlacierized</text>
<text text-anchor="middle" x="645" y="-1067" font-family="Helvetica,sans-Serif" font-size="10.00">ColdBase</text>
</a>
</g>
</g>
<!-- Node26&#45;&gt;Node28 -->
<g id="edge27" class="edge">
<title>Node26&#45;&gt;Node28</title>
<path fill="none" stroke="midnightblue" d="M428.17,-613.83C427.06,-690.47 434.32,-922.5 555,-1050.5 560.26,-1056.08 566.58,-1060.62 573.41,-1064.31"/>
<polygon fill="midnightblue" stroke="midnightblue" points="431.67,-613.75 428.38,-603.68 424.67,-613.6 431.67,-613.75"/>
</g>
<!-- Node29 -->
<g id="node29" class="node">
<title>Node29</title>
<g id="a_node29"><a xlink:href="classpism_1_1diagnostics_1_1scalar_1_1IceAreaGlacierizedGrounded.html" target="_top" xlink:title="Computes the total grounded ice area.">
<polygon fill="none" stroke="black" points="573.5,-1000 573.5,-1041 716.5,-1041 716.5,-1000 573.5,-1000"/>
<text text-anchor="start" x="581.5" y="-1029" font-family="Helvetica,sans-Serif" font-size="10.00">pism::diagnostics::</text>
<text text-anchor="start" x="581.5" y="-1018" font-family="Helvetica,sans-Serif" font-size="10.00">scalar::IceAreaGlacierized</text>
<text text-anchor="middle" x="645" y="-1007" font-family="Helvetica,sans-Serif" font-size="10.00">Grounded</text>
</a>
</g>
</g>
<!-- Node26&#45;&gt;Node29 -->
<g id="edge28" class="edge">
<title>Node26&#45;&gt;Node29</title>
<path fill="none" stroke="midnightblue" d="M429.39,-613.78C431.86,-683.68 448.4,-881.6 555,-990.5 560.25,-995.86 566.48,-1000.26 573.18,-1003.88"/>
<polygon fill="midnightblue" stroke="midnightblue" points="432.89,-613.59 429.11,-603.69 425.89,-613.78 432.89,-613.59"/>
</g>
<!-- Node30 -->
<g id="node30" class="node">
<title>Node30</title>
<g id="a_node30"><a xlink:href="classpism_1_1diagnostics_1_1scalar_1_1IceAreaGlacierizedShelf.html" target="_top" xlink:title="Computes the total floating ice area.">
<polygon fill="none" stroke="black" points="573.5,-940 573.5,-981 716.5,-981 716.5,-940 573.5,-940"/>
<text text-anchor="start" x="581.5" y="-969" font-family="Helvetica,sans-Serif" font-size="10.00">pism::diagnostics::</text>
<text text-anchor="start" x="581.5" y="-958" font-family="Helvetica,sans-Serif" font-size="10.00">scalar::IceAreaGlacierized</text>
<text text-anchor="middle" x="645" y="-947" font-family="Helvetica,sans-Serif" font-size="10.00">Shelf</text>
</a>
</g>
</g>
<!-- Node26&#45;&gt;Node30 -->
<g id="edge29" class="edge">
<title>Node26&#45;&gt;Node30</title>
<path fill="none" stroke="midnightblue" d="M431.01,-613.74C437.34,-676.39 462.35,-840.4 555,-930.5 560.38,-935.73 566.7,-940.05 573.44,-943.61"/>
<polygon fill="midnightblue" stroke="midnightblue" points="434.47,-613.22 430.06,-603.59 427.5,-613.87 434.47,-613.22"/>
</g>
<!-- Node31 -->
<g id="node31" class="node">
<title>Node31</title>
<g id="a_node31"><a xlink:href="classpism_1_1diagnostics_1_1scalar_1_1IceAreaGlacierizedTemperateBase.html" target="_top" xlink:title="Computes the total area of the temperate ice.">
<polygon fill="none" stroke="black" points="573.5,-880 573.5,-921 716.5,-921 716.5,-880 573.5,-880"/>
<text text-anchor="start" x="581.5" y="-909" font-family="Helvetica,sans-Serif" font-size="10.00">pism::diagnostics::</text>
<text text-anchor="start" x="581.5" y="-898" font-family="Helvetica,sans-Serif" font-size="10.00">scalar::IceAreaGlacierized</text>
<text text-anchor="middle" x="645" y="-887" font-family="Helvetica,sans-Serif" font-size="10.00">TemperateBase</text>
</a>
</g>
</g>
<!-- Node26&#45;&gt;Node31 -->
<g id="edge30" class="edge">
<title>Node26&#45;&gt;Node31</title>
<path fill="none" stroke="midnightblue" d="M433.18,-613.36C443.63,-667.84 475.96,-798.64 555,-870.5 560.43,-875.44 566.7,-879.56 573.35,-883.01"/>
<polygon fill="midnightblue" stroke="midnightblue" points="436.62,-612.72 431.37,-603.52 429.74,-613.99 436.62,-612.72"/>
</g>
<!-- Node32 -->
<g id="node32" class="node">
<title>Node32</title>
<g id="a_node32"><a xlink:href="classpism_1_1diagnostics_1_1scalar_1_1IceEnthalpy.html" target="_top" xlink:title="Computes the total ice enthalpy.">
<polygon fill="none" stroke="black" points="590.5,-830.5 590.5,-860.5 699.5,-860.5 699.5,-830.5 590.5,-830.5"/>
<text text-anchor="start" x="598.5" y="-848.5" font-family="Helvetica,sans-Serif" font-size="10.00">pism::diagnostics::</text>
<text text-anchor="middle" x="645" y="-837.5" font-family="Helvetica,sans-Serif" font-size="10.00">scalar::IceEnthalpy</text>
</a>
</g>
</g>
<!-- Node26&#45;&gt;Node32 -->
<g id="edge31" class="edge">
<title>Node26&#45;&gt;Node32</title>
<path fill="none" stroke="midnightblue" d="M435.41,-613.6C448.98,-661.56 485.25,-766.33 555,-821.5 565.17,-829.54 577.81,-834.9 590.34,-838.46"/>
<polygon fill="midnightblue" stroke="midnightblue" points="438.73,-612.47 432.72,-603.74 431.98,-614.31 438.73,-612.47"/>
</g>
<!-- Node33 -->
<g id="node33" class="node">
<title>Node33</title>
<g id="a_node33"><a xlink:href="classpism_1_1diagnostics_1_1scalar_1_1IceEnthalpyGlacierized.html" target="_top" xlink:title="Computes the total ice enthalpy in glacierized areas.">
<polygon fill="none" stroke="black" points="563,-781.5 563,-811.5 727,-811.5 727,-781.5 563,-781.5"/>
<text text-anchor="start" x="571" y="-799.5" font-family="Helvetica,sans-Serif" font-size="10.00">pism::diagnostics::</text>
<text text-anchor="middle" x="645" y="-788.5" font-family="Helvetica,sans-Serif" font-size="10.00">scalar::IceEnthalpyGlacierized</text>
</a>
</g>
</g>
<!-- Node26&#45;&gt;Node33 -->
<g id="edge32" class="edge">
<title>Node26&#45;&gt;Node33</title>
<path fill="none" stroke="midnightblue" d="M438.87,-612.76C456.27,-652.4 496.19,-730.79 555,-772.5 559.83,-775.93 565.12,-778.86 570.64,-781.38"/>
<polygon fill="midnightblue" stroke="midnightblue" points="442.09,-611.38 434.94,-603.57 435.65,-614.14 442.09,-611.38"/>
</g>
<!-- Node34 -->
<g id="node34" class="node">
<title>Node34</title>
<g id="a_node34"><a xlink:href="classpism_1_1diagnostics_1_1scalar_1_1IceMass.html" target="_top" xlink:title="Computes the total ice mass.">
<polygon fill="none" stroke="black" points="591,-732.5 591,-762.5 699,-762.5 699,-732.5 591,-732.5"/>
<text text-anchor="start" x="599" y="-750.5" font-family="Helvetica,sans-Serif" font-size="10.00">pism::diagnostics::</text>
<text text-anchor="middle" x="645" y="-739.5" font-family="Helvetica,sans-Serif" font-size="10.00">scalar::IceMass</text>
</a>
</g>
</g>
<!-- Node26&#45;&gt;Node34 -->
<g id="edge33" class="edge">
<title>Node26&#45;&gt;Node34</title>
<path fill="none" stroke="midnightblue" d="M444.51,-611.94C465.82,-642.26 506.99,-694.62 555,-723.5 565.83,-730.02 578.46,-734.8 590.73,-738.29"/>
<polygon fill="midnightblue" stroke="midnightblue" points="447.35,-609.89 438.8,-603.64 441.59,-613.86 447.35,-609.89"/>
</g>
<!-- Node35 -->
<g id="node35" class="node">
<title>Node35</title>
<g id="a_node35"><a xlink:href="classpism_1_1diagnostics_1_1scalar_1_1IceMassGlacierized.html" target="_top" xlink:title="Computes the total ice mass in glacierized areas.">
<polygon fill="none" stroke="black" points="572,-683.5 572,-713.5 718,-713.5 718,-683.5 572,-683.5"/>
<text text-anchor="start" x="580" y="-701.5" font-family="Helvetica,sans-Serif" font-size="10.00">pism::diagnostics::</text>
<text text-anchor="middle" x="645" y="-690.5" font-family="Helvetica,sans-Serif" font-size="10.00">scalar::IceMassGlacierized</text>
</a>
</g>
</g>
<!-- Node26&#45;&gt;Node35 -->
<g id="edge34" class="edge">
<title>Node26&#45;&gt;Node35</title>
<path fill="none" stroke="midnightblue" d="M455.57,-610.15C480.09,-629.18 518.16,-656.44 555,-673.5 563.16,-677.28 572,-680.6 580.85,-683.48"/>
<polygon fill="midnightblue" stroke="midnightblue" points="457.52,-607.22 447.49,-603.79 453.19,-612.72 457.52,-607.22"/>
</g>
<!-- Node36 -->
<g id="node36" class="node">
<title>Node36</title>
<g id="a_node36"><a xlink:href="classpism_1_1diagnostics_1_1scalar_1_1IceMassNotDisplacingSeaWater.html" target="_top" xlink:title="Computes the total mass of the ice not displacing sea water.">
<polygon fill="none" stroke="black" points="565,-623 565,-664 725,-664 725,-623 565,-623"/>
<text text-anchor="start" x="573" y="-652" font-family="Helvetica,sans-Serif" font-size="10.00">pism::diagnostics::</text>
<text text-anchor="start" x="573" y="-641" font-family="Helvetica,sans-Serif" font-size="10.00">scalar::IceMassNotDisplacing</text>
<text text-anchor="middle" x="645" y="-630" font-family="Helvetica,sans-Serif" font-size="10.00">SeaWater</text>
</a>
</g>
</g>
<!-- Node26&#45;&gt;Node36 -->
<g id="edge35" class="edge">
<title>Node26&#45;&gt;Node36</title>
<path fill="none" stroke="midnightblue" d="M497.7,-606.07C519.05,-611.54 542.76,-617.6 564.76,-623.23"/>
<polygon fill="midnightblue" stroke="midnightblue" points="498.31,-602.62 487.75,-603.53 496.57,-609.4 498.31,-602.62"/>
</g>
<!-- Node37 -->
<g id="node37" class="node">
<title>Node37</title>
<g id="a_node37"><a xlink:href="classpism_1_1diagnostics_1_1scalar_1_1IceVolume.html" target="_top" xlink:title="Computes the total ice volume.">
<polygon fill="none" stroke="black" points="591,-573.5 591,-603.5 699,-603.5 699,-573.5 591,-573.5"/>
<text text-anchor="start" x="599" y="-591.5" font-family="Helvetica,sans-Serif" font-size="10.00">pism::diagnostics::</text>
<text text-anchor="middle" x="645" y="-580.5" font-family="Helvetica,sans-Serif" font-size="10.00">scalar::IceVolume</text>
</a>
</g>
</g>
<!-- Node26&#45;&gt;Node37 -->
<g id="edge36" class="edge">
<title>Node26&#45;&gt;Node37</title>
<path fill="none" stroke="midnightblue" d="M513,-588.5C539.17,-588.5 567.3,-588.5 590.76,-588.5"/>
<polygon fill="midnightblue" stroke="midnightblue" points="512.69,-585 502.69,-588.5 512.69,-592 512.69,-585"/>
</g>
<!-- Node38 -->
<g id="node38" class="node">
<title>Node38</title>
<g id="a_node38"><a xlink:href="classpism_1_1diagnostics_1_1scalar_1_1IceVolumeCold.html" target="_top" xlink:title="Computes the total volume of the cold ice.">
<polygon fill="none" stroke="black" points="582.5,-524.5 582.5,-554.5 707.5,-554.5 707.5,-524.5 582.5,-524.5"/>
<text text-anchor="start" x="590.5" y="-542.5" font-family="Helvetica,sans-Serif" font-size="10.00">pism::diagnostics::</text>
<text text-anchor="middle" x="645" y="-531.5" font-family="Helvetica,sans-Serif" font-size="10.00">scalar::IceVolumeCold</text>
</a>
</g>
</g>
<!-- Node26&#45;&gt;Node38 -->
<g id="edge37" class="edge">
<title>Node26&#45;&gt;Node38</title>
<path fill="none" stroke="midnightblue" d="M504.9,-571.2C530.21,-565.43 558.09,-559.08 582.2,-553.59"/>
<polygon fill="midnightblue" stroke="midnightblue" points="503.94,-567.83 494.97,-573.47 505.5,-574.66 503.94,-567.83"/>
</g>
<!-- Node39 -->
<g id="node39" class="node">
<title>Node39</title>
<g id="a_node39"><a xlink:href="classpism_1_1diagnostics_1_1scalar_1_1IceVolumeGlacierized.html" target="_top" xlink:title="Computes the total ice volume in glacierized areas.">
<polygon fill="none" stroke="black" points="566,-475.5 566,-505.5 724,-505.5 724,-475.5 566,-475.5"/>
<text text-anchor="start" x="574" y="-493.5" font-family="Helvetica,sans-Serif" font-size="10.00">pism::diagnostics::</text>
<text text-anchor="middle" x="645" y="-482.5" font-family="Helvetica,sans-Serif" font-size="10.00">scalar::IceVolumeGlacierized</text>
</a>
</g>
</g>
<!-- Node26&#45;&gt;Node39 -->
<g id="edge38" class="edge">
<title>Node26&#45;&gt;Node39</title>
<path fill="none" stroke="midnightblue" d="M459.4,-567.51C484.19,-551.17 520.62,-528.92 555,-514.5 562.97,-511.16 571.54,-508.16 580.09,-505.5"/>
<polygon fill="midnightblue" stroke="midnightblue" points="457.19,-564.77 450.81,-573.23 461.07,-570.6 457.19,-564.77"/>
</g>
<!-- Node40 -->
<g id="node40" class="node">
<title>Node40</title>
<g id="a_node40"><a xlink:href="classpism_1_1diagnostics_1_1scalar_1_1IceVolumeGlacierizedCold.html" target="_top" xlink:title="Computes the total volume of the cold ice in glacierized areas.">
<polygon fill="none" stroke="black" points="555.5,-426.5 555.5,-456.5 734.5,-456.5 734.5,-426.5 555.5,-426.5"/>
<text text-anchor="start" x="563.5" y="-444.5" font-family="Helvetica,sans-Serif" font-size="10.00">pism::diagnostics::</text>
<text text-anchor="middle" x="645" y="-433.5" font-family="Helvetica,sans-Serif" font-size="10.00">scalar::IceVolumeGlacierizedCold</text>
</a>
</g>
</g>
<!-- Node26&#45;&gt;Node40 -->
<g id="edge39" class="edge">
<title>Node26&#45;&gt;Node40</title>
<path fill="none" stroke="midnightblue" d="M446.67,-565.08C468.93,-537.24 509.76,-491.31 555,-465.5 560.98,-462.09 567.46,-459.15 574.1,-456.62"/>
<polygon fill="midnightblue" stroke="midnightblue" points="443.8,-563.08 440.38,-573.1 449.31,-567.4 443.8,-563.08"/>
</g>
<!-- Node41 -->
<g id="node41" class="node">
<title>Node41</title>
<g id="a_node41"><a xlink:href="classpism_1_1diagnostics_1_1scalar_1_1IceVolumeGlacierizedGrounded.html" target="_top" xlink:title="Computes the total grounded ice volume.">
<polygon fill="none" stroke="black" points="566,-366 566,-407 724,-407 724,-366 566,-366"/>
<text text-anchor="start" x="574" y="-395" font-family="Helvetica,sans-Serif" font-size="10.00">pism::diagnostics::</text>
<text text-anchor="start" x="574" y="-384" font-family="Helvetica,sans-Serif" font-size="10.00">scalar::IceVolumeGlacierized</text>
<text text-anchor="middle" x="645" y="-373" font-family="Helvetica,sans-Serif" font-size="10.00">Grounded</text>
</a>
</g>
</g>
<!-- Node26&#45;&gt;Node41 -->
<g id="edge40" class="edge">
<title>Node26&#45;&gt;Node41</title>
<path fill="none" stroke="midnightblue" d="M440.52,-564.36C459.38,-527.31 500.3,-456.54 555,-416.5 559.74,-413.03 564.9,-409.95 570.28,-407.21"/>
<polygon fill="midnightblue" stroke="midnightblue" points="437.32,-562.93 436,-573.44 443.59,-566.05 437.32,-562.93"/>
</g>
<!-- Node42 -->
<g id="node42" class="node">
<title>Node42</title>
<g id="a_node42"><a xlink:href="classpism_1_1diagnostics_1_1scalar_1_1IceVolumeGlacierizedShelf.html" target="_top" xlink:title="Computes the total floating ice volume.">
<polygon fill="none" stroke="black" points="566,-306 566,-347 724,-347 724,-306 566,-306"/>
<text text-anchor="start" x="574" y="-335" font-family="Helvetica,sans-Serif" font-size="10.00">pism::diagnostics::</text>
<text text-anchor="start" x="574" y="-324" font-family="Helvetica,sans-Serif" font-size="10.00">scalar::IceVolumeGlacierized</text>
<text text-anchor="middle" x="645" y="-313" font-family="Helvetica,sans-Serif" font-size="10.00">Shelf</text>
</a>
</g>
</g>
<!-- Node26&#45;&gt;Node42 -->
<g id="edge41" class="edge">
<title>Node26&#45;&gt;Node42</title>
<path fill="none" stroke="midnightblue" d="M435.86,-563.54C450.1,-516.29 487.33,-413.41 555,-356.5 559.24,-352.93 563.93,-349.78 568.87,-347"/>
<polygon fill="midnightblue" stroke="midnightblue" points="432.46,-562.68 433.02,-573.27 439.18,-564.65 432.46,-562.68"/>
</g>
<!-- Node43 -->
<g id="node43" class="node">
<title>Node43</title>
<g id="a_node43"><a xlink:href="classpism_1_1diagnostics_1_1scalar_1_1IceVolumeGlacierizedTemperate.html" target="_top" xlink:title="Computes the total volume of the temperate ice in glacierized areas.">
<polygon fill="none" stroke="black" points="566,-246 566,-287 724,-287 724,-246 566,-246"/>
<text text-anchor="start" x="574" y="-275" font-family="Helvetica,sans-Serif" font-size="10.00">pism::diagnostics::</text>
<text text-anchor="start" x="574" y="-264" font-family="Helvetica,sans-Serif" font-size="10.00">scalar::IceVolumeGlacierized</text>
<text text-anchor="middle" x="645" y="-253" font-family="Helvetica,sans-Serif" font-size="10.00">Temperate</text>
</a>
</g>
</g>
<!-- Node26&#45;&gt;Node43 -->
<g id="edge42" class="edge">
<title>Node26&#45;&gt;Node43</title>
<path fill="none" stroke="midnightblue" d="M432.84,-563.17C442.66,-507.03 473.9,-371.19 555,-296.5 558.84,-292.97 563.11,-289.85 567.64,-287.09"/>
<polygon fill="midnightblue" stroke="midnightblue" points="429.34,-562.86 431.15,-573.3 436.24,-564.01 429.34,-562.86"/>
</g>
<!-- Node44 -->
<g id="node44" class="node">
<title>Node44</title>
<g id="a_node44"><a xlink:href="classpism_1_1diagnostics_1_1scalar_1_1IceVolumeTemperate.html" target="_top" xlink:title="Computes the total volume of the temperate ice.">
<polygon fill="none" stroke="black" points="567.5,-196.5 567.5,-226.5 722.5,-226.5 722.5,-196.5 567.5,-196.5"/>
<text text-anchor="start" x="575.5" y="-214.5" font-family="Helvetica,sans-Serif" font-size="10.00">pism::diagnostics::</text>
<text text-anchor="middle" x="645" y="-203.5" font-family="Helvetica,sans-Serif" font-size="10.00">scalar::IceVolumeTemperate</text>
</a>
</g>
</g>
<!-- Node26&#45;&gt;Node44 -->
<g id="edge43" class="edge">
<title>Node26&#45;&gt;Node44</title>
<path fill="none" stroke="midnightblue" d="M430.41,-563.09C435.4,-498.6 457.62,-327.3 555,-236.5 559.11,-232.67 563.76,-229.42 568.72,-226.66"/>
<polygon fill="midnightblue" stroke="midnightblue" points="426.91,-562.95 429.71,-573.17 433.9,-563.44 426.91,-562.95"/>
</g>
<!-- Node45 -->
<g id="node45" class="node">
<title>Node45</title>
<g id="a_node45"><a xlink:href="classpism_1_1diagnostics_1_1scalar_1_1MaxDiffusivity.html" target="_top" xlink:title="Reports maximum diffusivity.">
<polygon fill="none" stroke="black" points="583.5,-147.5 583.5,-177.5 706.5,-177.5 706.5,-147.5 583.5,-147.5"/>
<text text-anchor="start" x="591.5" y="-165.5" font-family="Helvetica,sans-Serif" font-size="10.00">pism::diagnostics::</text>
<text text-anchor="middle" x="645" y="-154.5" font-family="Helvetica,sans-Serif" font-size="10.00">scalar::MaxDiffusivity</text>
</a>
</g>
</g>
<!-- Node26&#45;&gt;Node45 -->
<g id="edge44" class="edge">
<title>Node26&#45;&gt;Node45</title>
<path fill="none" stroke="midnightblue" d="M429.04,-563.36C430.56,-492.99 444.84,-292.3 555,-186.5 562.85,-178.96 572.81,-173.73 583.2,-170.12"/>
<polygon fill="midnightblue" stroke="midnightblue" points="425.54,-563.45 428.89,-573.5 432.53,-563.55 425.54,-563.45"/>
</g>
<!-- Node46 -->
<g id="node46" class="node">
<title>Node46</title>
<g id="a_node46"><a xlink:href="classpism_1_1diagnostics_1_1scalar_1_1MaxHorizontalVelocity.html" target="_top" xlink:title="Reports the maximum horizontal absolute velocity component over the grid.">
<polygon fill="none" stroke="black" points="564,-98.5 564,-128.5 726,-128.5 726,-98.5 564,-98.5"/>
<text text-anchor="start" x="572" y="-116.5" font-family="Helvetica,sans-Serif" font-size="10.00">pism::diagnostics::</text>
<text text-anchor="middle" x="645" y="-105.5" font-family="Helvetica,sans-Serif" font-size="10.00">scalar::MaxHorizontalVelocity</text>
</a>
</g>
</g>
<!-- Node26&#45;&gt;Node46 -->
<g id="edge45" class="edge">
<title>Node26&#45;&gt;Node46</title>
<path fill="none" stroke="midnightblue" d="M432.74,-563.16C445.91,-477.3 492.7,-199.24 555,-137.5 558.41,-134.12 562.24,-131.2 566.35,-128.69"/>
<polygon fill="midnightblue" stroke="midnightblue" points="429.27,-562.68 431.24,-573.09 436.2,-563.73 429.27,-562.68"/>
</g>
<!-- Node47 -->
<g id="node47" class="node">
<title>Node47</title>
<g id="a_node47"><a xlink:href="classpism_1_1diagnostics_1_1scalar_1_1SeaLevelRisePotential.html" target="_top" xlink:title="Computes the total ice volume which is relevant for sea&#45;level.">
<polygon fill="none" stroke="black" points="564.5,-49.5 564.5,-79.5 725.5,-79.5 725.5,-49.5 564.5,-49.5"/>
<text text-anchor="start" x="572.5" y="-67.5" font-family="Helvetica,sans-Serif" font-size="10.00">pism::diagnostics::</text>
<text text-anchor="middle" x="645" y="-56.5" font-family="Helvetica,sans-Serif" font-size="10.00">scalar::SeaLevelRisePotential</text>
</a>
</g>
</g>
<!-- Node26&#45;&gt;Node47 -->
<g id="edge46" class="edge">
<title>Node26&#45;&gt;Node47</title>
<path fill="none" stroke="midnightblue" d="M431.96,-563.49C443.26,-472.11 486.53,-158.11 555,-88.5 558.37,-85.08 562.17,-82.13 566.25,-79.59"/>
<polygon fill="midnightblue" stroke="midnightblue" points="428.48,-563.14 430.74,-573.49 435.43,-563.99 428.48,-563.14"/>
</g>
<!-- Node48 -->
<g id="node48" class="node">
<title>Node48</title>
<g id="a_node48"><a xlink:href="classpism_1_1diagnostics_1_1scalar_1_1TimeStepLength.html" target="_top" xlink:title="Reports the mass continuity time step.">
<polygon fill="none" stroke="black" points="579.5,-0.5 579.5,-30.5 710.5,-30.5 710.5,-0.5 579.5,-0.5"/>
<text text-anchor="start" x="587.5" y="-18.5" font-family="Helvetica,sans-Serif" font-size="10.00">pism::diagnostics::</text>
<text text-anchor="middle" x="645" y="-7.5" font-family="Helvetica,sans-Serif" font-size="10.00">scalar::TimeStepLength</text>
</a>
</g>
</g>
<!-- Node26&#45;&gt;Node48 -->
<g id="edge47" class="edge">
<title>Node26&#45;&gt;Node48</title>
<path fill="none" stroke="midnightblue" d="M431.38,-563.29C441.04,-466.04 480.46,-116.91 555,-39.5 561.66,-32.58 570.09,-27.59 579.09,-24"/>
<polygon fill="midnightblue" stroke="midnightblue" points="427.88,-563.09 430.39,-573.38 434.85,-563.77 427.88,-563.09"/>
</g>
</g>
</svg>
