<?xml version="1.0" encoding="UTF-8" standalone="no"?>
<!DOCTYPE svg PUBLIC "-//W3C//DTD SVG 1.1//EN"
 "http://www.w3.org/Graphics/SVG/1.1/DTD/svg11.dtd">
<!-- Generated by graphviz version 2.43.0 (0)
 -->
<!-- Title: pism::surface::diagnostics::SurfaceRunoff Pages: 1 -->
<svg width="256pt" height="355pt"
 viewBox="0.00 0.00 255.50 355.00" xmlns="http://www.w3.org/2000/svg" xmlns:xlink="http://www.w3.org/1999/xlink">
<g id="graph0" class="graph" transform="scale(1 1) rotate(0) translate(4 351)">
<title>pism::surface::diagnostics::SurfaceRunoff</title>
<!-- Node1 -->
<g id="node1" class="node">
<title>Node1</title>
<g id="a_node1"><a xlink:title="Report surface runoff, averaged over the reporting interval.">
<polygon fill="#bfbfbf" stroke="black" points="0,-0.5 0,-30.5 144,-30.5 144,-0.5 0,-0.5"/>
<text text-anchor="start" x="8" y="-18.5" font-family="Helvetica,sans-Serif" font-size="10.00">pism::surface::diagnostics</text>
<text text-anchor="middle" x="72" y="-7.5" font-family="Helvetica,sans-Serif" font-size="10.00">::SurfaceRunoff</text>
</a>
</g>
</g>
<!-- Node2 -->
<g id="node2" class="node">
<title>Node2</title>
<g id="a_node2"><a xlink:href="classpism_1_1DiagAverageRate.html" target="_top" xlink:title=" ">
<polygon fill="none" stroke="black" points="6.5,-68.5 6.5,-98.5 137.5,-98.5 137.5,-68.5 6.5,-68.5"/>
<text text-anchor="start" x="14.5" y="-86.5" font-family="Helvetica,sans-Serif" font-size="10.00">pism::DiagAverageRate</text>
<text text-anchor="middle" x="72" y="-75.5" font-family="Helvetica,sans-Serif" font-size="10.00">&lt; TemperatureIndex &gt;</text>
</a>
</g>
</g>
<!-- Node2&#45;&gt;Node1 -->
<g id="edge1" class="edge">
<title>Node2&#45;&gt;Node1</title>
<path fill="none" stroke="midnightblue" d="M72,-58.03C72,-48.86 72,-38.74 72,-30.79"/>
<polygon fill="midnightblue" stroke="midnightblue" points="68.5,-58.18 72,-68.18 75.5,-58.18 68.5,-58.18"/>
</g>
<!-- Node3 -->
<g id="node3" class="node">
<title>Node3</title>
<g id="a_node3"><a xlink:href="classpism_1_1Diag.html" target="_top" xlink:title="A template derived from Diagnostic, adding a &quot;Model&quot;.">
<polygon fill="none" stroke="black" points="5,-270.5 5,-289.5 127,-289.5 127,-270.5 5,-270.5"/>
<text text-anchor="middle" x="66" y="-277.5" font-family="Helvetica,sans-Serif" font-size="10.00">pism::Diag&lt; Model &gt;</text>
</a>
</g>
</g>
<!-- Node3&#45;&gt;Node2 -->
<g id="edge2" class="edge">
<title>Node3&#45;&gt;Node2</title>
<path fill="none" stroke="midnightblue" d="M66.59,-260.01C67.79,-221.11 70.5,-133.14 71.56,-98.7"/>
<polygon fill="midnightblue" stroke="midnightblue" points="63.08,-260.29 66.27,-270.39 70.07,-260.5 63.08,-260.29"/>
</g>
<!-- Node6 -->
<g id="node6" class="node">
<title>Node6</title>
<g id="a_node6"><a xlink:href="classpism_1_1Diag.html" target="_top" xlink:title=" ">
<polygon fill="none" stroke="black" points="104.5,-203.5 104.5,-222.5 205.5,-222.5 205.5,-203.5 104.5,-203.5"/>
<text text-anchor="middle" x="155" y="-210.5" font-family="Helvetica,sans-Serif" font-size="10.00">pism::Diag&lt; M &gt;</text>
</a>
</g>
</g>
<!-- Node3&#45;&gt;Node6 -->
<g id="edge7" class="edge">
<title>Node3&#45;&gt;Node6</title>
<path fill="none" stroke="orange" stroke-dasharray="5,2" d="M80.75,-263.23C87.97,-255.98 97.03,-247.56 106,-241 115.56,-234 127.14,-227.54 136.64,-222.7"/>
<polygon fill="orange" stroke="orange" points="78.17,-260.87 73.73,-270.49 83.2,-265.74 78.17,-260.87"/>
<text text-anchor="middle" x="123.5" y="-244" font-family="Helvetica,sans-Serif" font-size="10.00"> &lt; M &gt;</text>
</g>
<!-- Node4 -->
<g id="node4" class="node">
<title>Node4</title>
<g id="a_node4"><a xlink:href="classpism_1_1Diagnostic.html" target="_top" xlink:title="Class representing diagnostic computations in PISM.">
<polygon fill="none" stroke="black" points="61,-327.5 61,-346.5 159,-346.5 159,-327.5 61,-327.5"/>
<text text-anchor="middle" x="110" y="-334.5" font-family="Helvetica,sans-Serif" font-size="10.00">pism::Diagnostic</text>
</a>
</g>
</g>
<!-- Node4&#45;&gt;Node3 -->
<g id="edge3" class="edge">
<title>Node4&#45;&gt;Node3</title>
<path fill="none" stroke="midnightblue" d="M96.83,-319.53C88.99,-309.74 79.36,-297.7 72.97,-289.71"/>
<polygon fill="midnightblue" stroke="midnightblue" points="94.14,-321.78 103.12,-327.41 99.61,-317.41 94.14,-321.78"/>
</g>
<!-- Node4&#45;&gt;Node6 -->
<g id="edge6" class="edge">
<title>Node4&#45;&gt;Node6</title>
<path fill="none" stroke="midnightblue" d="M121.25,-318.7C126.32,-310.3 132.05,-299.9 136,-290 145.38,-266.5 151.16,-237.03 153.62,-222.67"/>
<polygon fill="midnightblue" stroke="midnightblue" points="118.27,-316.86 115.93,-327.2 124.2,-320.58 118.27,-316.86"/>
</g>
<!-- Node5 -->
<g id="node5" class="node">
<title>Node5</title>
<g id="a_node5"><a xlink:href="classpism_1_1DiagAverageRate.html" target="_top" xlink:title=" ">
<polygon fill="none" stroke="black" points="84.5,-146.5 84.5,-165.5 247.5,-165.5 247.5,-146.5 84.5,-146.5"/>
<text text-anchor="middle" x="166" y="-153.5" font-family="Helvetica,sans-Serif" font-size="10.00">pism::DiagAverageRate&lt; M &gt;</text>
</a>
</g>
</g>
<!-- Node5&#45;&gt;Node2 -->
<g id="edge4" class="edge">
<title>Node5&#45;&gt;Node2</title>
<path fill="none" stroke="orange" stroke-dasharray="5,2" d="M146.17,-140.13C129.83,-127.87 106.81,-110.61 90.77,-98.58"/>
<polygon fill="orange" stroke="orange" points="144.37,-143.16 154.47,-146.36 148.57,-137.56 144.37,-143.16"/>
<text text-anchor="middle" x="184.5" y="-120" font-family="Helvetica,sans-Serif" font-size="10.00"> &lt; TemperatureIndex &gt;</text>
</g>
<!-- Node6&#45;&gt;Node5 -->
<g id="edge5" class="edge">
<title>Node6&#45;&gt;Node5</title>
<path fill="none" stroke="midnightblue" d="M158.72,-193.42C160.59,-184.05 162.77,-173.14 164.26,-165.71"/>
<polygon fill="midnightblue" stroke="midnightblue" points="155.25,-192.91 156.72,-203.41 162.11,-194.29 155.25,-192.91"/>
</g>
</g>
</svg>
