<?xml version="1.0" encoding="UTF-8" standalone="no"?>
<!DOCTYPE svg PUBLIC "-//W3C//DTD SVG 1.1//EN"
 "http://www.w3.org/Graphics/SVG/1.1/DTD/svg11.dtd">
<!-- Generated by graphviz version 2.43.0 (0)
 -->
<!-- Title: pism::atmosphere::YearlyCycle Pages: 1 -->
<svg width="730pt" height="116pt"
 viewBox="0.00 0.00 730.00 115.50" xmlns="http://www.w3.org/2000/svg" xmlns:xlink="http://www.w3.org/1999/xlink">
<g id="graph0" class="graph" transform="scale(1 1) rotate(0) translate(4 111.5)">
<title>pism::atmosphere::YearlyCycle</title>
<!-- Node1 -->
<g id="node1" class="node">
<title>Node1</title>
<g id="a_node1"><a xlink:title=" ">
<polygon fill="#bfbfbf" stroke="black" points="345,-33 345,-63 485,-63 485,-33 345,-33"/>
<text text-anchor="start" x="353" y="-51" font-family="Helvetica,sans-Serif" font-size="10.00">pism::atmosphere::Yearly</text>
<text text-anchor="middle" x="415" y="-40" font-family="Helvetica,sans-Serif" font-size="10.00">Cycle</text>
</a>
</g>
</g>
<!-- Node4 -->
<g id="node4" class="node">
<title>Node4</title>
<g id="a_node4"><a xlink:href="classpism_1_1atmosphere_1_1CosineYearlyCycle.html" target="_top" xlink:title=" ">
<polygon fill="none" stroke="black" points="549.5,-77 549.5,-107 693.5,-107 693.5,-77 549.5,-77"/>
<text text-anchor="start" x="557.5" y="-95" font-family="Helvetica,sans-Serif" font-size="10.00">pism::atmosphere::Cosine</text>
<text text-anchor="middle" x="621.5" y="-84" font-family="Helvetica,sans-Serif" font-size="10.00">YearlyCycle</text>
</a>
</g>
</g>
<!-- Node1&#45;&gt;Node4 -->
<g id="edge3" class="edge">
<title>Node1&#45;&gt;Node4</title>
<path fill="none" stroke="midnightblue" d="M495.26,-65.05C513.52,-68.98 532.81,-73.13 550.64,-76.97"/>
<polygon fill="midnightblue" stroke="midnightblue" points="495.75,-61.58 485.23,-62.9 494.27,-68.42 495.75,-61.58"/>
</g>
<!-- Node5 -->
<g id="node5" class="node">
<title>Node5</title>
<g id="a_node5"><a xlink:href="classpism_1_1atmosphere_1_1PIK.html" target="_top" xlink:title=" ">
<polygon fill="none" stroke="black" points="558,-38.5 558,-57.5 685,-57.5 685,-38.5 558,-38.5"/>
<text text-anchor="middle" x="621.5" y="-45.5" font-family="Helvetica,sans-Serif" font-size="10.00">pism::atmosphere::PIK</text>
</a>
</g>
</g>
<!-- Node1&#45;&gt;Node5 -->
<g id="edge4" class="edge">
<title>Node1&#45;&gt;Node5</title>
<path fill="none" stroke="midnightblue" d="M495.3,-48C516.04,-48 538.12,-48 557.87,-48"/>
<polygon fill="midnightblue" stroke="midnightblue" points="495.23,-44.5 485.23,-48 495.23,-51.5 495.23,-44.5"/>
</g>
<!-- Node6 -->
<g id="node6" class="node">
<title>Node6</title>
<g id="a_node6"><a xlink:href="classpism_1_1atmosphere_1_1SeaRISEGreenland.html" target="_top" xlink:title="A modification of YearlyCycle tailored for the SeaRISE&#45;Greenland assessment. Uses the Fausto [Faustoe...">
<polygon fill="none" stroke="black" points="521,-0.5 521,-19.5 722,-19.5 722,-0.5 521,-0.5"/>
<text text-anchor="middle" x="621.5" y="-7.5" font-family="Helvetica,sans-Serif" font-size="10.00">pism::atmosphere::SeaRISEGreenland</text>
</a>
</g>
</g>
<!-- Node1&#45;&gt;Node6 -->
<g id="edge5" class="edge">
<title>Node1&#45;&gt;Node6</title>
<path fill="none" stroke="midnightblue" d="M495.35,-33.26C520.13,-28.65 546.79,-23.7 569.12,-19.55"/>
<polygon fill="midnightblue" stroke="midnightblue" points="494.43,-29.87 485.23,-35.13 495.71,-36.75 494.43,-29.87"/>
</g>
<!-- Node2 -->
<g id="node2" class="node">
<title>Node2</title>
<g id="a_node2"><a xlink:href="classpism_1_1atmosphere_1_1AtmosphereModel.html" target="_top" xlink:title="A purely virtual class defining the interface of a PISM Atmosphere Model.">
<polygon fill="none" stroke="black" points="139,-33 139,-63 309,-63 309,-33 139,-33"/>
<text text-anchor="start" x="147" y="-51" font-family="Helvetica,sans-Serif" font-size="10.00">pism::atmosphere::Atmosphere</text>
<text text-anchor="middle" x="224" y="-40" font-family="Helvetica,sans-Serif" font-size="10.00">Model</text>
</a>
</g>
</g>
<!-- Node2&#45;&gt;Node1 -->
<g id="edge1" class="edge">
<title>Node2&#45;&gt;Node1</title>
<path fill="none" stroke="midnightblue" d="M319.36,-48C327.96,-48 336.57,-48 344.9,-48"/>
<polygon fill="midnightblue" stroke="midnightblue" points="319.27,-44.5 309.27,-48 319.27,-51.5 319.27,-44.5"/>
</g>
<!-- Node3 -->
<g id="node3" class="node">
<title>Node3</title>
<g id="a_node3"><a xlink:href="classpism_1_1Component.html" target="_top" xlink:title="A class defining a common interface for most PISM sub&#45;models.">
<polygon fill="none" stroke="black" points="0,-38.5 0,-57.5 103,-57.5 103,-38.5 0,-38.5"/>
<text text-anchor="middle" x="51.5" y="-45.5" font-family="Helvetica,sans-Serif" font-size="10.00">pism::Component</text>
</a>
</g>
</g>
<!-- Node3&#45;&gt;Node2 -->
<g id="edge2" class="edge">
<title>Node3&#45;&gt;Node2</title>
<path fill="none" stroke="midnightblue" d="M113.2,-48C121.57,-48 130.28,-48 138.97,-48"/>
<polygon fill="midnightblue" stroke="midnightblue" points="113.19,-44.5 103.19,-48 113.19,-51.5 113.19,-44.5"/>
</g>
</g>
</svg>
