<?xml version="1.0" encoding="UTF-8" standalone="no"?>
<!DOCTYPE svg PUBLIC "-//W3C//DTD SVG 1.1//EN"
 "http://www.w3.org/Graphics/SVG/1.1/DTD/svg11.dtd">
<!-- Generated by graphviz version 2.43.0 (0)
 -->
<!-- Title: pism::diagnostics::IceBottomSurfaceElevation Pages: 1 -->
<svg width="217pt" height="216pt"
 viewBox="0.00 0.00 216.50 216.00" xmlns="http://www.w3.org/2000/svg" xmlns:xlink="http://www.w3.org/1999/xlink">
<g id="graph0" class="graph" transform="scale(1 1) rotate(0) translate(4 212)">
<title>pism::diagnostics::IceBottomSurfaceElevation</title>
<!-- Node1 -->
<g id="Node000001" class="node">
<title>Node1</title>
<g id="a_Node000001"><a xlink:title="Report ice top surface elevation.">
<polygon fill="#999999" stroke="#666666" points="149,-30 0,-30 0,0 149,0 149,-30"/>
<text text-anchor="start" x="8" y="-18" font-family="Helvetica,sans-Serif" font-size="10.00">pism::diagnostics::</text>
<text text-anchor="middle" x="74.5" y="-7" font-family="Helvetica,sans-Serif" font-size="10.00">IceBottomSurfaceElevation</text>
</a>
</g>
</g>
<!-- Node2 -->
<g id="Node000002" class="node">
<title>Node2</title>
<g id="a_Node000002"><a xlink:href="classpism_1_1Diag.html" target="_top" xlink:title=" ">
<polygon fill="white" stroke="#666666" points="142.5,-86 6.5,-86 6.5,-67 142.5,-67 142.5,-86"/>
<text text-anchor="middle" x="74.5" y="-74" font-family="Helvetica,sans-Serif" font-size="10.00">pism::Diag&lt; IceModel &gt;</text>
</a>
</g>
</g>
<!-- Node2&#45;&gt;Node1 -->
<g id="edge1_Node000001_Node000002" class="edge">
<title>Node2&#45;&gt;Node1</title>
<g id="a_edge1_Node000001_Node000002"><a xlink:title=" ">
<path fill="none" stroke="#63b8ff" d="M74.5,-56.73C74.5,-48.09 74.5,-38 74.5,-30.02"/>
<polygon fill="#63b8ff" stroke="#63b8ff" points="71,-56.98 74.5,-66.98 78,-56.98 71,-56.98"/>
</a>
</g>
</g>
<!-- Node3 -->
<g id="Node000003" class="node">
<title>Node3</title>
<g id="a_Node000003"><a xlink:href="classpism_1_1Diagnostic.html" target="_top" xlink:title="Class representing diagnostic computations in PISM.">
<polygon fill="white" stroke="#666666" points="119.5,-208 21.5,-208 21.5,-189 119.5,-189 119.5,-208"/>
<text text-anchor="middle" x="70.5" y="-196" font-family="Helvetica,sans-Serif" font-size="10.00">pism::Diagnostic</text>
</a>
</g>
</g>
<!-- Node3&#45;&gt;Node2 -->
<g id="edge2_Node000002_Node000003" class="edge">
<title>Node3&#45;&gt;Node2</title>
<g id="a_edge2_Node000002_Node000003"><a xlink:title=" ">
<path fill="none" stroke="#63b8ff" d="M71.13,-178.65C72.01,-152.22 73.57,-105.26 74.21,-86.05"/>
<polygon fill="#63b8ff" stroke="#63b8ff" points="67.62,-178.76 70.79,-188.87 74.62,-178.99 67.62,-178.76"/>
</a>
</g>
</g>
<!-- Node4 -->
<g id="Node000004" class="node">
<title>Node4</title>
<g id="a_Node000004"><a xlink:href="classpism_1_1Diag.html" target="_top" xlink:title="A template derived from Diagnostic, adding a &quot;Model&quot;.">
<polygon fill="white" stroke="#666666" points="208.5,-152 86.5,-152 86.5,-133 208.5,-133 208.5,-152"/>
<text text-anchor="middle" x="147.5" y="-140" font-family="Helvetica,sans-Serif" font-size="10.00">pism::Diag&lt; Model &gt;</text>
</a>
</g>
</g>
<!-- Node3&#45;&gt;Node4 -->
<g id="edge4_Node000004_Node000003" class="edge">
<title>Node3&#45;&gt;Node4</title>
<g id="a_edge4_Node000004_Node000003"><a xlink:title=" ">
<path fill="none" stroke="#63b8ff" d="M91.4,-182.84C105.41,-173.02 123.38,-160.41 135.16,-152.15"/>
<polygon fill="#63b8ff" stroke="#63b8ff" points="89.05,-180.22 82.87,-188.82 93.07,-185.95 89.05,-180.22"/>
</a>
</g>
</g>
<!-- Node4&#45;&gt;Node2 -->
<g id="edge3_Node000002_Node000004" class="edge">
<title>Node4&#45;&gt;Node2</title>
<g id="a_edge3_Node000002_Node000004"><a xlink:title=" ">
<path fill="none" stroke="orange" stroke-dasharray="5,2" d="M130.02,-126.18C115.86,-113.76 96.38,-96.68 84.66,-86.41"/>
<polygon fill="orange" stroke="orange" points="127.83,-128.91 137.65,-132.87 132.44,-123.64 127.83,-128.91"/>
</a>
</g>
<text text-anchor="middle" x="149.5" y="-107" font-family="Helvetica,sans-Serif" font-size="10.00" fill="grey"> &lt; IceModel &gt;</text>
</g>
</g>
</svg>
