<?xml version="1.0" encoding="UTF-8" standalone="no"?>
<!DOCTYPE svg PUBLIC "-//W3C//DTD SVG 1.1//EN"
 "http://www.w3.org/Graphics/SVG/1.1/DTD/svg11.dtd">
<!-- Generated by graphviz version 2.43.0 (0)
 -->
<!-- Title: pism::IceModelVec2&lt; T &gt; Pages: 1 -->
<svg width="912pt" height="220pt"
 viewBox="0.00 0.00 912.00 220.00" xmlns="http://www.w3.org/2000/svg" xmlns:xlink="http://www.w3.org/1999/xlink">
<g id="graph0" class="graph" transform="scale(1 1) rotate(0) translate(4 216)">
<title>pism::IceModelVec2&lt; T &gt;</title>
<!-- Node1 -->
<g id="node1" class="node">
<title>Node1</title>
<g id="a_node1"><a xlink:title="A storage vector combining related fields in a struct.">
<polygon fill="#bfbfbf" stroke="black" points="307,-98.5 307,-117.5 450,-117.5 450,-98.5 307,-98.5"/>
<text text-anchor="middle" x="378.5" y="-105.5" font-family="Helvetica,sans-Serif" font-size="10.00">pism::IceModelVec2&lt; T &gt;</text>
</a>
</g>
</g>
<!-- Node4 -->
<g id="node4" class="node">
<title>Node4</title>
<g id="a_node4"><a xlink:href="classpism_1_1IceModelVec2.html" target="_top" xlink:title=" ">
<polygon fill="none" stroke="black" points="608,-170.5 608,-211.5 746,-211.5 746,-170.5 608,-170.5"/>
<text text-anchor="start" x="616" y="-199.5" font-family="Helvetica,sans-Serif" font-size="10.00">pism::IceModelVec2</text>
<text text-anchor="start" x="616" y="-188.5" font-family="Helvetica,sans-Serif" font-size="10.00">&lt; pism::stressbalance</text>
<text text-anchor="middle" x="677" y="-177.5" font-family="Helvetica,sans-Serif" font-size="10.00">::SSAFEM::Coefficients &gt;</text>
</a>
</g>
</g>
<!-- Node1&#45;&gt;Node4 -->
<g id="edge3" class="edge">
<title>Node1&#45;&gt;Node4</title>
<path fill="none" stroke="orange" stroke-dasharray="5,2" d="M410.34,-121.51C427.16,-128.55 448.48,-136.93 468,-143 514,-157.32 566.92,-169.47 607.87,-177.97"/>
<polygon fill="orange" stroke="orange" points="411.57,-118.23 401,-117.55 408.84,-124.68 411.57,-118.23"/>
<text text-anchor="start" x="468" y="-187" font-family="Helvetica,sans-Serif" font-size="10.00"> &lt; pism::stressbalance</text>
<text text-anchor="middle" x="529" y="-176" font-family="Helvetica,sans-Serif" font-size="10.00">::SSAFEM::Coefficients &gt;</text>
</g>
<!-- Node5 -->
<g id="node5" class="node">
<title>Node5</title>
<g id="a_node5"><a xlink:href="classpism_1_1IceModelVec2.html" target="_top" xlink:title=" ">
<polygon fill="none" stroke="black" points="620,-121 620,-151 734,-151 734,-121 620,-121"/>
<text text-anchor="start" x="628" y="-139" font-family="Helvetica,sans-Serif" font-size="10.00">pism::IceModelVec2</text>
<text text-anchor="middle" x="677" y="-128" font-family="Helvetica,sans-Serif" font-size="10.00">&lt; Vector2 &gt;</text>
</a>
</g>
</g>
<!-- Node1&#45;&gt;Node5 -->
<g id="edge4" class="edge">
<title>Node1&#45;&gt;Node5</title>
<path fill="none" stroke="orange" stroke-dasharray="5,2" d="M460.39,-115.64C510.92,-120.41 574.72,-126.44 619.77,-130.69"/>
<polygon fill="orange" stroke="orange" points="460.43,-112.13 450.14,-114.67 459.77,-119.1 460.43,-112.13"/>
<text text-anchor="middle" x="529" y="-131" font-family="Helvetica,sans-Serif" font-size="10.00"> &lt; Vector2 &gt;</text>
</g>
<!-- Node7 -->
<g id="node7" class="node">
<title>Node7</title>
<g id="a_node7"><a xlink:href="classpism_1_1IceModelVec2.html" target="_top" xlink:title=" ">
<polygon fill="none" stroke="black" points="614.5,-60.5 614.5,-101.5 739.5,-101.5 739.5,-60.5 614.5,-60.5"/>
<text text-anchor="start" x="622.5" y="-89.5" font-family="Helvetica,sans-Serif" font-size="10.00">pism::IceModelVec2</text>
<text text-anchor="start" x="622.5" y="-78.5" font-family="Helvetica,sans-Serif" font-size="10.00">&lt; pism::stressbalance</text>
<text text-anchor="middle" x="677" y="-67.5" font-family="Helvetica,sans-Serif" font-size="10.00">::SSAFD::Work &gt;</text>
</a>
</g>
</g>
<!-- Node1&#45;&gt;Node7 -->
<g id="edge6" class="edge">
<title>Node1&#45;&gt;Node7</title>
<path fill="none" stroke="orange" stroke-dasharray="5,2" d="M422.86,-95.85C437.12,-92.35 453.13,-88.96 468,-87 516.89,-80.56 572.78,-79.28 614.3,-79.49"/>
<polygon fill="orange" stroke="orange" points="421.65,-92.54 412.82,-98.39 423.37,-99.33 421.65,-92.54"/>
<text text-anchor="start" x="473" y="-101" font-family="Helvetica,sans-Serif" font-size="10.00"> &lt; pism::stressbalance</text>
<text text-anchor="middle" x="529" y="-90" font-family="Helvetica,sans-Serif" font-size="10.00">::SSAFD::Work &gt;</text>
</g>
<!-- Node8 -->
<g id="node8" class="node">
<title>Node8</title>
<g id="a_node8"><a xlink:href="classpism_1_1IceModelVec2.html" target="_top" xlink:title=" ">
<polygon fill="none" stroke="black" points="613,-0.5 613,-41.5 741,-41.5 741,-0.5 613,-0.5"/>
<text text-anchor="start" x="621" y="-29.5" font-family="Helvetica,sans-Serif" font-size="10.00">pism::IceModelVec2</text>
<text text-anchor="start" x="621" y="-18.5" font-family="Helvetica,sans-Serif" font-size="10.00">&lt; pism::stressbalance</text>
<text text-anchor="middle" x="677" y="-7.5" font-family="Helvetica,sans-Serif" font-size="10.00">::Blatter::Parameters &gt;</text>
</a>
</g>
</g>
<!-- Node1&#45;&gt;Node8 -->
<g id="edge7" class="edge">
<title>Node1&#45;&gt;Node8</title>
<path fill="none" stroke="orange" stroke-dasharray="5,2" d="M399.76,-92.44C416.97,-80.04 442.83,-63.26 468,-54 514.84,-36.76 570.86,-28.53 612.96,-24.59"/>
<polygon fill="orange" stroke="orange" points="397.56,-89.72 391.6,-98.47 401.72,-95.35 397.56,-89.72"/>
<text text-anchor="start" x="473" y="-68" font-family="Helvetica,sans-Serif" font-size="10.00"> &lt; pism::stressbalance</text>
<text text-anchor="middle" x="529" y="-57" font-family="Helvetica,sans-Serif" font-size="10.00">::Blatter::Parameters &gt;</text>
</g>
<!-- Node2 -->
<g id="node2" class="node">
<title>Node2</title>
<g id="a_node2"><a xlink:href="classpism_1_1IceModelVec.html" target="_top" xlink:title="Abstract class for reading, writing, allocating, and accessing a DA&#45;based PETSc Vec (2D and 3D fields...">
<polygon fill="none" stroke="black" points="162,-98.5 162,-117.5 270,-117.5 270,-98.5 162,-98.5"/>
<text text-anchor="middle" x="216" y="-105.5" font-family="Helvetica,sans-Serif" font-size="10.00">pism::IceModelVec</text>
</a>
</g>
</g>
<!-- Node2&#45;&gt;Node1 -->
<g id="edge1" class="edge">
<title>Node2&#45;&gt;Node1</title>
<path fill="none" stroke="midnightblue" d="M280.47,-108C289.14,-108 298.08,-108 306.87,-108"/>
<polygon fill="midnightblue" stroke="midnightblue" points="280.44,-104.5 270.44,-108 280.44,-111.5 280.44,-104.5"/>
</g>
<!-- Node3 -->
<g id="node3" class="node">
<title>Node3</title>
<g id="a_node3"><a xlink:href="classpism_1_1PetscAccessible.html" target="_top" xlink:title=" ">
<polygon fill="none" stroke="black" points="0,-98.5 0,-117.5 125,-117.5 125,-98.5 0,-98.5"/>
<text text-anchor="middle" x="62.5" y="-105.5" font-family="Helvetica,sans-Serif" font-size="10.00">pism::PetscAccessible</text>
</a>
</g>
</g>
<!-- Node3&#45;&gt;Node2 -->
<g id="edge2" class="edge">
<title>Node3&#45;&gt;Node2</title>
<path fill="none" stroke="midnightblue" d="M135.15,-108C144.09,-108 153.1,-108 161.69,-108"/>
<polygon fill="midnightblue" stroke="midnightblue" points="135.12,-104.5 125.12,-108 135.12,-111.5 135.12,-104.5"/>
</g>
<!-- Node6 -->
<g id="node6" class="node">
<title>Node6</title>
<g id="a_node6"><a xlink:href="classpism_1_1IceModelVec2V.html" target="_top" xlink:title=" ">
<polygon fill="none" stroke="black" points="783,-126.5 783,-145.5 904,-145.5 904,-126.5 783,-126.5"/>
<text text-anchor="middle" x="843.5" y="-133.5" font-family="Helvetica,sans-Serif" font-size="10.00">pism::IceModelVec2V</text>
</a>
</g>
</g>
<!-- Node5&#45;&gt;Node6 -->
<g id="edge5" class="edge">
<title>Node5&#45;&gt;Node6</title>
<path fill="none" stroke="midnightblue" d="M744.27,-136C757.06,-136 770.39,-136 782.95,-136"/>
<polygon fill="midnightblue" stroke="midnightblue" points="744.15,-132.5 734.15,-136 744.15,-139.5 744.15,-132.5"/>
</g>
</g>
</svg>
