<?xml version="1.0" encoding="UTF-8" standalone="no"?>
<!DOCTYPE svg PUBLIC "-//W3C//DTD SVG 1.1//EN"
 "http://www.w3.org/Graphics/SVG/1.1/DTD/svg11.dtd">
<!-- Generated by graphviz version 2.43.0 (0)
 -->
<!-- Title: pism::array::Array2D&lt; T &gt; Pages: 1 -->
<svg width="1378pt" height="390pt"
 viewBox="0.00 0.00 1378.00 390.00" xmlns="http://www.w3.org/2000/svg" xmlns:xlink="http://www.w3.org/1999/xlink">
<g id="graph0" class="graph" transform="scale(1 1) rotate(0) translate(4 386)">
<title>pism::array::Array2D&lt; T &gt;</title>
<!-- Node1 -->
<g id="node1" class="node">
<title>Node1</title>
<g id="a_node1"><a xlink:title="A storage vector combining related fields in a struct.">
<polygon fill="#bfbfbf" stroke="black" points="303,-186.5 303,-205.5 449,-205.5 449,-186.5 303,-186.5"/>
<text text-anchor="middle" x="376" y="-193.5" font-family="Helvetica,sans-Serif" font-size="10.00">pism::array::Array2D&lt; T &gt;</text>
</a>
</g>
</g>
<!-- Node4 -->
<g id="node4" class="node">
<title>Node4</title>
<g id="a_node4"><a xlink:href="classpism_1_1array_1_1Array2D.html" target="_top" xlink:title=" ">
<polygon fill="none" stroke="black" points="607,-340.5 607,-381.5 745,-381.5 745,-340.5 607,-340.5"/>
<text text-anchor="start" x="615" y="-369.5" font-family="Helvetica,sans-Serif" font-size="10.00">pism::array::Array2D</text>
<text text-anchor="start" x="615" y="-358.5" font-family="Helvetica,sans-Serif" font-size="10.00">&lt; pism::stressbalance</text>
<text text-anchor="middle" x="676" y="-347.5" font-family="Helvetica,sans-Serif" font-size="10.00">::SSAFEM::Coefficients &gt;</text>
</a>
</g>
</g>
<!-- Node1&#45;&gt;Node4 -->
<g id="edge3" class="edge">
<title>Node1&#45;&gt;Node4</title>
<path fill="none" stroke="orange" stroke-dasharray="5,2" d="M386.53,-214.97C400.54,-240.82 429.16,-286.67 467,-311 508.86,-337.91 563.89,-350.35 606.83,-356.09"/>
<polygon fill="orange" stroke="orange" points="389.48,-213.06 381.74,-205.83 383.28,-216.31 389.48,-213.06"/>
<text text-anchor="start" x="467" y="-366" font-family="Helvetica,sans-Serif" font-size="10.00"> &lt; pism::stressbalance</text>
<text text-anchor="middle" x="528" y="-355" font-family="Helvetica,sans-Serif" font-size="10.00">::SSAFEM::Coefficients &gt;</text>
</g>
<!-- Node5 -->
<g id="node5" class="node">
<title>Node5</title>
<g id="a_node5"><a xlink:href="classpism_1_1array_1_1Array2D.html" target="_top" xlink:title=" ">
<polygon fill="none" stroke="black" points="617.5,-291 617.5,-321 734.5,-321 734.5,-291 617.5,-291"/>
<text text-anchor="start" x="625.5" y="-309" font-family="Helvetica,sans-Serif" font-size="10.00">pism::array::Array2D</text>
<text text-anchor="middle" x="676" y="-298" font-family="Helvetica,sans-Serif" font-size="10.00">&lt; double &gt;</text>
</a>
</g>
</g>
<!-- Node1&#45;&gt;Node5 -->
<g id="edge4" class="edge">
<title>Node1&#45;&gt;Node5</title>
<path fill="none" stroke="orange" stroke-dasharray="5,2" d="M394.76,-212.29C411.98,-227.19 439.47,-248.73 467,-261 515.26,-282.51 574.5,-294.03 617.4,-300.01"/>
<polygon fill="orange" stroke="orange" points="396.99,-209.58 387.18,-205.57 392.35,-214.82 396.99,-209.58"/>
<text text-anchor="middle" x="528" y="-299" font-family="Helvetica,sans-Serif" font-size="10.00"> &lt; double &gt;</text>
</g>
<!-- Node13 -->
<g id="node13" class="node">
<title>Node13</title>
<g id="a_node13"><a xlink:href="classpism_1_1array_1_1Array2D.html" target="_top" xlink:title=" ">
<polygon fill="none" stroke="black" points="613.5,-230.5 613.5,-271.5 738.5,-271.5 738.5,-230.5 613.5,-230.5"/>
<text text-anchor="start" x="621.5" y="-259.5" font-family="Helvetica,sans-Serif" font-size="10.00">pism::array::Array2D</text>
<text text-anchor="start" x="621.5" y="-248.5" font-family="Helvetica,sans-Serif" font-size="10.00">&lt; pism::stressbalance</text>
<text text-anchor="middle" x="676" y="-237.5" font-family="Helvetica,sans-Serif" font-size="10.00">::DeviatoricStresses &gt;</text>
</a>
</g>
</g>
<!-- Node1&#45;&gt;Node13 -->
<g id="edge12" class="edge">
<title>Node1&#45;&gt;Node13</title>
<path fill="none" stroke="orange" stroke-dasharray="5,2" d="M438.5,-207.35C489.63,-216.79 562.05,-230.15 613.25,-239.6"/>
<polygon fill="orange" stroke="orange" points="439.04,-203.89 428.57,-205.52 437.77,-210.77 439.04,-203.89"/>
<text text-anchor="start" x="472" y="-249" font-family="Helvetica,sans-Serif" font-size="10.00"> &lt; pism::stressbalance</text>
<text text-anchor="middle" x="528" y="-238" font-family="Helvetica,sans-Serif" font-size="10.00">::DeviatoricStresses &gt;</text>
</g>
<!-- Node14 -->
<g id="node14" class="node">
<title>Node14</title>
<g id="a_node14"><a xlink:href="classpism_1_1array_1_1Array2D.html" target="_top" xlink:title=" ">
<polygon fill="none" stroke="black" points="617.5,-181 617.5,-211 734.5,-211 734.5,-181 617.5,-181"/>
<text text-anchor="start" x="625.5" y="-199" font-family="Helvetica,sans-Serif" font-size="10.00">pism::array::Array2D</text>
<text text-anchor="middle" x="676" y="-188" font-family="Helvetica,sans-Serif" font-size="10.00">&lt; pism::Vector2d &gt;</text>
</a>
</g>
</g>
<!-- Node1&#45;&gt;Node14 -->
<g id="edge13" class="edge">
<title>Node1&#45;&gt;Node14</title>
<path fill="none" stroke="orange" stroke-dasharray="5,2" d="M459.33,-196C509.58,-196 572.57,-196 617.48,-196"/>
<polygon fill="orange" stroke="orange" points="459.14,-192.5 449.14,-196 459.14,-199.5 459.14,-192.5"/>
<text text-anchor="middle" x="528" y="-199" font-family="Helvetica,sans-Serif" font-size="10.00"> &lt; pism::Vector2d &gt;</text>
</g>
<!-- Node18 -->
<g id="node18" class="node">
<title>Node18</title>
<g id="a_node18"><a xlink:href="classpism_1_1array_1_1Array2D.html" target="_top" xlink:title=" ">
<polygon fill="none" stroke="black" points="613.5,-120.5 613.5,-161.5 738.5,-161.5 738.5,-120.5 613.5,-120.5"/>
<text text-anchor="start" x="621.5" y="-149.5" font-family="Helvetica,sans-Serif" font-size="10.00">pism::array::Array2D</text>
<text text-anchor="start" x="621.5" y="-138.5" font-family="Helvetica,sans-Serif" font-size="10.00">&lt; pism::stressbalance</text>
<text text-anchor="middle" x="676" y="-127.5" font-family="Helvetica,sans-Serif" font-size="10.00">::SSAFD::Work &gt;</text>
</a>
</g>
</g>
<!-- Node1&#45;&gt;Node18 -->
<g id="edge17" class="edge">
<title>Node1&#45;&gt;Node18</title>
<path fill="none" stroke="orange" stroke-dasharray="5,2" d="M416.2,-183.36C431.87,-178.65 450.17,-173.59 467,-170 515.68,-159.63 571.58,-152.07 613.16,-147.28"/>
<polygon fill="orange" stroke="orange" points="414.86,-180.11 406.32,-186.38 416.91,-186.8 414.86,-180.11"/>
<text text-anchor="start" x="472" y="-184" font-family="Helvetica,sans-Serif" font-size="10.00"> &lt; pism::stressbalance</text>
<text text-anchor="middle" x="528" y="-173" font-family="Helvetica,sans-Serif" font-size="10.00">::SSAFD::Work &gt;</text>
</g>
<!-- Node19 -->
<g id="node19" class="node">
<title>Node19</title>
<g id="a_node19"><a xlink:href="classpism_1_1array_1_1Array2D.html" target="_top" xlink:title=" ">
<polygon fill="none" stroke="black" points="612,-60.5 612,-101.5 740,-101.5 740,-60.5 612,-60.5"/>
<text text-anchor="start" x="620" y="-89.5" font-family="Helvetica,sans-Serif" font-size="10.00">pism::array::Array2D</text>
<text text-anchor="start" x="620" y="-78.5" font-family="Helvetica,sans-Serif" font-size="10.00">&lt; pism::stressbalance</text>
<text text-anchor="middle" x="676" y="-67.5" font-family="Helvetica,sans-Serif" font-size="10.00">::Blatter::Parameters &gt;</text>
</a>
</g>
</g>
<!-- Node1&#45;&gt;Node19 -->
<g id="edge18" class="edge">
<title>Node1&#45;&gt;Node19</title>
<path fill="none" stroke="orange" stroke-dasharray="5,2" d="M393.91,-178.66C410.87,-162.3 438.5,-138.35 467,-125 512.79,-103.54 569.14,-92.45 611.63,-86.77"/>
<polygon fill="orange" stroke="orange" points="391.14,-176.48 386.48,-186 396.06,-181.46 391.14,-176.48"/>
<text text-anchor="start" x="472" y="-139" font-family="Helvetica,sans-Serif" font-size="10.00"> &lt; pism::stressbalance</text>
<text text-anchor="middle" x="528" y="-128" font-family="Helvetica,sans-Serif" font-size="10.00">::Blatter::Parameters &gt;</text>
</g>
<!-- Node20 -->
<g id="node20" class="node">
<title>Node20</title>
<g id="a_node20"><a xlink:href="classpism_1_1array_1_1Array2D.html" target="_top" xlink:title=" ">
<polygon fill="none" stroke="black" points="610,-0.5 610,-41.5 742,-41.5 742,-0.5 610,-0.5"/>
<text text-anchor="start" x="618" y="-29.5" font-family="Helvetica,sans-Serif" font-size="10.00">pism::array::Array2D</text>
<text text-anchor="start" x="618" y="-18.5" font-family="Helvetica,sans-Serif" font-size="10.00">&lt; pism::stressbalance</text>
<text text-anchor="middle" x="676" y="-7.5" font-family="Helvetica,sans-Serif" font-size="10.00">::PrincipalStrainRates &gt;</text>
</a>
</g>
</g>
<!-- Node1&#45;&gt;Node20 -->
<g id="edge19" class="edge">
<title>Node1&#45;&gt;Node20</title>
<path fill="none" stroke="orange" stroke-dasharray="5,2" d="M384.62,-176.76C397.19,-147.68 425.1,-92.97 467,-65 509.21,-36.82 566.08,-26.22 609.69,-22.44"/>
<polygon fill="orange" stroke="orange" points="381.3,-175.64 380.69,-186.21 387.76,-178.32 381.3,-175.64"/>
<text text-anchor="start" x="470" y="-79" font-family="Helvetica,sans-Serif" font-size="10.00"> &lt; pism::stressbalance</text>
<text text-anchor="middle" x="528" y="-68" font-family="Helvetica,sans-Serif" font-size="10.00">::PrincipalStrainRates &gt;</text>
</g>
<!-- Node2 -->
<g id="node2" class="node">
<title>Node2</title>
<g id="a_node2"><a xlink:href="classpism_1_1array_1_1Array.html" target="_top" xlink:title="Abstract class for reading, writing, allocating, and accessing a DA&#45;based PETSc Vec (2D and 3D fields...">
<polygon fill="none" stroke="black" points="162,-186.5 162,-205.5 266,-205.5 266,-186.5 162,-186.5"/>
<text text-anchor="middle" x="214" y="-193.5" font-family="Helvetica,sans-Serif" font-size="10.00">pism::array::Array</text>
</a>
</g>
</g>
<!-- Node2&#45;&gt;Node1 -->
<g id="edge1" class="edge">
<title>Node2&#45;&gt;Node1</title>
<path fill="none" stroke="midnightblue" d="M276.14,-196C284.87,-196 293.92,-196 302.84,-196"/>
<polygon fill="midnightblue" stroke="midnightblue" points="276.06,-192.5 266.06,-196 276.06,-199.5 276.06,-192.5"/>
</g>
<!-- Node3 -->
<g id="node3" class="node">
<title>Node3</title>
<g id="a_node3"><a xlink:href="classpism_1_1PetscAccessible.html" target="_top" xlink:title=" ">
<polygon fill="none" stroke="black" points="0,-186.5 0,-205.5 125,-205.5 125,-186.5 0,-186.5"/>
<text text-anchor="middle" x="62.5" y="-193.5" font-family="Helvetica,sans-Serif" font-size="10.00">pism::PetscAccessible</text>
</a>
</g>
</g>
<!-- Node3&#45;&gt;Node2 -->
<g id="edge2" class="edge">
<title>Node3&#45;&gt;Node2</title>
<path fill="none" stroke="midnightblue" d="M135.28,-196C144.28,-196 153.34,-196 161.93,-196"/>
<polygon fill="midnightblue" stroke="midnightblue" points="135.17,-192.5 125.17,-196 135.17,-199.5 135.17,-192.5"/>
</g>
<!-- Node6 -->
<g id="node6" class="node">
<title>Node6</title>
<g id="a_node6"><a xlink:href="classpism_1_1array_1_1Scalar.html" target="_top" xlink:title=" ">
<polygon fill="none" stroke="black" points="782.5,-296.5 782.5,-315.5 889.5,-315.5 889.5,-296.5 782.5,-296.5"/>
<text text-anchor="middle" x="836" y="-303.5" font-family="Helvetica,sans-Serif" font-size="10.00">pism::array::Scalar</text>
</a>
</g>
</g>
<!-- Node5&#45;&gt;Node6 -->
<g id="edge5" class="edge">
<title>Node5&#45;&gt;Node6</title>
<path fill="none" stroke="midnightblue" d="M745.25,-306C757.66,-306 770.43,-306 782.31,-306"/>
<polygon fill="midnightblue" stroke="midnightblue" points="744.94,-302.5 734.94,-306 744.94,-309.5 744.94,-302.5"/>
</g>
<!-- Node7 -->
<g id="node7" class="node">
<title>Node7</title>
<g id="a_node7"><a xlink:href="classpism_1_1array_1_1CellType.html" target="_top" xlink:title="&quot;Cell type&quot; mask. Adds convenience methods to array::Scalar.">
<polygon fill="none" stroke="black" points="927,-334.5 927,-353.5 1046,-353.5 1046,-334.5 927,-334.5"/>
<text text-anchor="middle" x="986.5" y="-341.5" font-family="Helvetica,sans-Serif" font-size="10.00">pism::array::CellType</text>
</a>
</g>
</g>
<!-- Node6&#45;&gt;Node7 -->
<g id="edge6" class="edge">
<title>Node6&#45;&gt;Node7</title>
<path fill="none" stroke="midnightblue" d="M884.33,-318.11C905.01,-323.4 928.92,-329.52 948.3,-334.48"/>
<polygon fill="midnightblue" stroke="midnightblue" points="885.03,-314.68 874.47,-315.59 883.29,-321.46 885.03,-314.68"/>
</g>
<!-- Node10 -->
<g id="node10" class="node">
<title>Node10</title>
<g id="a_node10"><a xlink:href="classpism_1_1array_1_1Forcing.html" target="_top" xlink:title="2D time&#45;dependent inputs (for climate forcing, etc)">
<polygon fill="none" stroke="black" points="930,-296.5 930,-315.5 1043,-315.5 1043,-296.5 930,-296.5"/>
<text text-anchor="middle" x="986.5" y="-303.5" font-family="Helvetica,sans-Serif" font-size="10.00">pism::array::Forcing</text>
</a>
</g>
</g>
<!-- Node6&#45;&gt;Node10 -->
<g id="edge9" class="edge">
<title>Node6&#45;&gt;Node10</title>
<path fill="none" stroke="midnightblue" d="M899.99,-306C909.93,-306 920.13,-306 929.88,-306"/>
<polygon fill="midnightblue" stroke="midnightblue" points="899.77,-302.5 889.77,-306 899.77,-309.5 899.77,-302.5"/>
</g>
<!-- Node11 -->
<g id="node11" class="node">
<title>Node11</title>
<g id="a_node11"><a xlink:href="classpism_1_1array_1_1Scalar1.html" target="_top" xlink:title=" ">
<polygon fill="none" stroke="black" points="930,-258.5 930,-277.5 1043,-277.5 1043,-258.5 930,-258.5"/>
<text text-anchor="middle" x="986.5" y="-265.5" font-family="Helvetica,sans-Serif" font-size="10.00">pism::array::Scalar1</text>
</a>
</g>
</g>
<!-- Node6&#45;&gt;Node11 -->
<g id="edge10" class="edge">
<title>Node6&#45;&gt;Node11</title>
<path fill="none" stroke="midnightblue" d="M884.33,-293.89C905.01,-288.6 928.92,-282.48 948.3,-277.52"/>
<polygon fill="midnightblue" stroke="midnightblue" points="883.29,-290.54 874.47,-296.41 885.03,-297.32 883.29,-290.54"/>
</g>
<!-- Node8 -->
<g id="node8" class="node">
<title>Node8</title>
<g id="a_node8"><a xlink:href="classpism_1_1array_1_1CellType1.html" target="_top" xlink:title=" ">
<polygon fill="none" stroke="black" points="1083,-334.5 1083,-353.5 1208,-353.5 1208,-334.5 1083,-334.5"/>
<text text-anchor="middle" x="1145.5" y="-341.5" font-family="Helvetica,sans-Serif" font-size="10.00">pism::array::CellType1</text>
</a>
</g>
</g>
<!-- Node7&#45;&gt;Node8 -->
<g id="edge7" class="edge">
<title>Node7&#45;&gt;Node8</title>
<path fill="none" stroke="midnightblue" d="M1056.59,-344C1065.35,-344 1074.27,-344 1082.9,-344"/>
<polygon fill="midnightblue" stroke="midnightblue" points="1056.41,-340.5 1046.41,-344 1056.41,-347.5 1056.41,-340.5"/>
</g>
<!-- Node9 -->
<g id="node9" class="node">
<title>Node9</title>
<g id="a_node9"><a xlink:href="classpism_1_1array_1_1CellType2.html" target="_top" xlink:title=" ">
<polygon fill="none" stroke="black" points="1245,-334.5 1245,-353.5 1370,-353.5 1370,-334.5 1245,-334.5"/>
<text text-anchor="middle" x="1307.5" y="-341.5" font-family="Helvetica,sans-Serif" font-size="10.00">pism::array::CellType2</text>
</a>
</g>
</g>
<!-- Node8&#45;&gt;Node9 -->
<g id="edge8" class="edge">
<title>Node8&#45;&gt;Node9</title>
<path fill="none" stroke="midnightblue" d="M1218.56,-344C1227.32,-344 1236.21,-344 1244.8,-344"/>
<polygon fill="midnightblue" stroke="midnightblue" points="1218.36,-340.5 1208.36,-344 1218.36,-347.5 1218.36,-340.5"/>
</g>
<!-- Node12 -->
<g id="node12" class="node">
<title>Node12</title>
<g id="a_node12"><a xlink:href="classpism_1_1array_1_1Scalar2.html" target="_top" xlink:title=" ">
<polygon fill="none" stroke="black" points="1089,-258.5 1089,-277.5 1202,-277.5 1202,-258.5 1089,-258.5"/>
<text text-anchor="middle" x="1145.5" y="-265.5" font-family="Helvetica,sans-Serif" font-size="10.00">pism::array::Scalar2</text>
</a>
</g>
</g>
<!-- Node11&#45;&gt;Node12 -->
<g id="edge11" class="edge">
<title>Node11&#45;&gt;Node12</title>
<path fill="none" stroke="midnightblue" d="M1053.51,-268C1065.28,-268 1077.44,-268 1088.89,-268"/>
<polygon fill="midnightblue" stroke="midnightblue" points="1053.29,-264.5 1043.29,-268 1053.29,-271.5 1053.29,-264.5"/>
</g>
<!-- Node15 -->
<g id="node15" class="node">
<title>Node15</title>
<g id="a_node15"><a xlink:href="classpism_1_1array_1_1Vector.html" target="_top" xlink:title=" ">
<polygon fill="none" stroke="black" points="782,-186.5 782,-205.5 890,-205.5 890,-186.5 782,-186.5"/>
<text text-anchor="middle" x="836" y="-193.5" font-family="Helvetica,sans-Serif" font-size="10.00">pism::array::Vector</text>
</a>
</g>
</g>
<!-- Node14&#45;&gt;Node15 -->
<g id="edge14" class="edge">
<title>Node14&#45;&gt;Node15</title>
<path fill="none" stroke="midnightblue" d="M745.13,-196C757.4,-196 770.02,-196 781.79,-196"/>
<polygon fill="midnightblue" stroke="midnightblue" points="744.94,-192.5 734.94,-196 744.94,-199.5 744.94,-192.5"/>
</g>
<!-- Node16 -->
<g id="node16" class="node">
<title>Node16</title>
<g id="a_node16"><a xlink:href="classpism_1_1array_1_1Vector1.html" target="_top" xlink:title=" ">
<polygon fill="none" stroke="black" points="929.5,-186.5 929.5,-205.5 1043.5,-205.5 1043.5,-186.5 929.5,-186.5"/>
<text text-anchor="middle" x="986.5" y="-193.5" font-family="Helvetica,sans-Serif" font-size="10.00">pism::array::Vector1</text>
</a>
</g>
</g>
<!-- Node15&#45;&gt;Node16 -->
<g id="edge15" class="edge">
<title>Node15&#45;&gt;Node16</title>
<path fill="none" stroke="midnightblue" d="M900.5,-196C910.11,-196 919.98,-196 929.42,-196"/>
<polygon fill="midnightblue" stroke="midnightblue" points="900.19,-192.5 890.19,-196 900.19,-199.5 900.19,-192.5"/>
</g>
<!-- Node17 -->
<g id="node17" class="node">
<title>Node17</title>
<g id="a_node17"><a xlink:href="classpism_1_1array_1_1Vector2.html" target="_top" xlink:title=" ">
<polygon fill="none" stroke="black" points="1088.5,-186.5 1088.5,-205.5 1202.5,-205.5 1202.5,-186.5 1088.5,-186.5"/>
<text text-anchor="middle" x="1145.5" y="-193.5" font-family="Helvetica,sans-Serif" font-size="10.00">pism::array::Vector2</text>
</a>
</g>
</g>
<!-- Node16&#45;&gt;Node17 -->
<g id="edge16" class="edge">
<title>Node16&#45;&gt;Node17</title>
<path fill="none" stroke="midnightblue" d="M1053.75,-196C1065.28,-196 1077.17,-196 1088.39,-196"/>
<polygon fill="midnightblue" stroke="midnightblue" points="1053.74,-192.5 1043.74,-196 1053.74,-199.5 1053.74,-192.5"/>
</g>
</g>
</svg>
