<?xml version="1.0" encoding="UTF-8" standalone="no"?>
<!DOCTYPE svg PUBLIC "-//W3C//DTD SVG 1.1//EN"
 "http://www.w3.org/Graphics/SVG/1.1/DTD/svg11.dtd">
<!-- Generated by graphviz version 2.43.0 (0)
 -->
<!-- Title: pism::diagnostics::IceMarginPressureDifference Pages: 1 -->
<svg width="221pt" height="220pt"
 viewBox="0.00 0.00 220.50 220.00" xmlns="http://www.w3.org/2000/svg" xmlns:xlink="http://www.w3.org/1999/xlink">
<g id="graph0" class="graph" transform="scale(1 1) rotate(0) translate(4 216)">
<title>pism::diagnostics::IceMarginPressureDifference</title>
<!-- Node1 -->
<g id="node1" class="node">
<title>Node1</title>
<g id="a_node1"><a xlink:title="Ocean pressure difference at calving fronts. Used to debug CF boundary conditins.">
<polygon fill="#bfbfbf" stroke="black" points="0,-0.5 0,-30.5 157,-30.5 157,-0.5 0,-0.5"/>
<text text-anchor="start" x="8" y="-18.5" font-family="Helvetica,sans-Serif" font-size="10.00">pism::diagnostics::</text>
<text text-anchor="middle" x="78.5" y="-7.5" font-family="Helvetica,sans-Serif" font-size="10.00">IceMarginPressureDifference</text>
</a>
</g>
</g>
<!-- Node2 -->
<g id="node2" class="node">
<title>Node2</title>
<g id="a_node2"><a xlink:href="classpism_1_1Diag.html" target="_top" xlink:title=" ">
<polygon fill="none" stroke="black" points="10.5,-68.5 10.5,-87.5 146.5,-87.5 146.5,-68.5 10.5,-68.5"/>
<text text-anchor="middle" x="78.5" y="-75.5" font-family="Helvetica,sans-Serif" font-size="10.00">pism::Diag&lt; IceModel &gt;</text>
</a>
</g>
</g>
<!-- Node2&#45;&gt;Node1 -->
<g id="edge1" class="edge">
<title>Node2&#45;&gt;Node1</title>
<path fill="none" stroke="midnightblue" d="M78.5,-58.22C78.5,-49.36 78.5,-38.96 78.5,-30.76"/>
<polygon fill="midnightblue" stroke="midnightblue" points="75,-58.33 78.5,-68.33 82,-58.33 75,-58.33"/>
</g>
<!-- Node3 -->
<g id="node3" class="node">
<title>Node3</title>
<g id="a_node3"><a xlink:href="classpism_1_1Diagnostic.html" target="_top" xlink:title="Class representing diagnostic computations in PISM.">
<polygon fill="none" stroke="black" points="25.5,-192.5 25.5,-211.5 123.5,-211.5 123.5,-192.5 25.5,-192.5"/>
<text text-anchor="middle" x="74.5" y="-199.5" font-family="Helvetica,sans-Serif" font-size="10.00">pism::Diagnostic</text>
</a>
</g>
</g>
<!-- Node3&#45;&gt;Node2 -->
<g id="edge2" class="edge">
<title>Node3&#45;&gt;Node2</title>
<path fill="none" stroke="midnightblue" d="M75.12,-182.19C76,-155.4 77.57,-107.31 78.21,-87.69"/>
<polygon fill="midnightblue" stroke="midnightblue" points="71.62,-182.12 74.79,-192.23 78.61,-182.35 71.62,-182.12"/>
</g>
<!-- Node4 -->
<g id="node4" class="node">
<title>Node4</title>
<g id="a_node4"><a xlink:href="classpism_1_1Diag.html" target="_top" xlink:title="A template derived from Diagnostic, adding a &quot;Model&quot;.">
<polygon fill="none" stroke="black" points="90.5,-135.5 90.5,-154.5 212.5,-154.5 212.5,-135.5 90.5,-135.5"/>
<text text-anchor="middle" x="151.5" y="-142.5" font-family="Helvetica,sans-Serif" font-size="10.00">pism::Diag&lt; Model &gt;</text>
</a>
</g>
</g>
<!-- Node3&#45;&gt;Node4 -->
<g id="edge4" class="edge">
<title>Node3&#45;&gt;Node4</title>
<path fill="none" stroke="midnightblue" d="M94.75,-186.54C109,-176.35 127.61,-163.07 139.55,-154.53"/>
<polygon fill="midnightblue" stroke="midnightblue" points="92.63,-183.75 86.53,-192.41 96.7,-189.44 92.63,-183.75"/>
</g>
<!-- Node4&#45;&gt;Node2 -->
<g id="edge3" class="edge">
<title>Node4&#45;&gt;Node2</title>
<path fill="none" stroke="orange" stroke-dasharray="5,2" d="M133.93,-128.36C119.58,-115.58 99.83,-97.99 88.19,-87.63"/>
<polygon fill="orange" stroke="orange" points="131.86,-131.2 141.65,-135.23 136.51,-125.97 131.86,-131.2"/>
<text text-anchor="middle" x="153.5" y="-109" font-family="Helvetica,sans-Serif" font-size="10.00"> &lt; IceModel &gt;</text>
</g>
</g>
</svg>
