<?xml version="1.0" encoding="UTF-8" standalone="no"?>
<!DOCTYPE svg PUBLIC "-//W3C//DTD SVG 1.1//EN"
 "http://www.w3.org/Graphics/SVG/1.1/DTD/svg11.dtd">
<!-- Generated by graphviz version 2.43.0 (0)
 -->
<!-- Title: pism::inverse::IPTaoTikhonovProblem&lt; ForwardProblem &gt; Pages: 1 -->
<svg width="801pt" height="88pt"
 viewBox="0.00 0.00 801.00 88.00" xmlns="http://www.w3.org/2000/svg" xmlns:xlink="http://www.w3.org/1999/xlink">
<g id="graph0" class="graph" transform="scale(1 1) rotate(0) translate(4 84)">
<title>pism::inverse::IPTaoTikhonovProblem&lt; ForwardProblem &gt;</title>
<!-- Node1 -->
<g id="node1" class="node">
<title>Node1</title>
<g id="a_node1"><a xlink:title="Defines a Tikhonov minimization problem to be solved with a TaoBasicSolver.">
<polygon fill="#bfbfbf" stroke="black" points="0,-24.5 0,-54.5 159,-54.5 159,-24.5 0,-24.5"/>
<text text-anchor="start" x="8" y="-42.5" font-family="Helvetica,sans-Serif" font-size="10.00">pism::inverse::IPTaoTikhonov</text>
<text text-anchor="middle" x="79.5" y="-31.5" font-family="Helvetica,sans-Serif" font-size="10.00">Problem&lt; ForwardProblem &gt;</text>
</a>
</g>
</g>
<!-- Node2 -->
<g id="node2" class="node">
<title>Node2</title>
<g id="a_node2"><a xlink:href="classpism_1_1inverse_1_1IPTaoTikhonovProblem.html" target="_top" xlink:title=" ">
<polygon fill="none" stroke="black" points="370,-49.5 370,-79.5 598,-79.5 598,-49.5 370,-49.5"/>
<text text-anchor="start" x="378" y="-67.5" font-family="Helvetica,sans-Serif" font-size="10.00">pism::inverse::IPTaoTikhonov</text>
<text text-anchor="middle" x="484" y="-56.5" font-family="Helvetica,sans-Serif" font-size="10.00">Problem&lt; IP_SSAHardavForwardProblem &gt;</text>
</a>
</g>
</g>
<!-- Node1&#45;&gt;Node2 -->
<g id="edge1" class="edge">
<title>Node1&#45;&gt;Node2</title>
<path fill="none" stroke="orange" stroke-dasharray="5,2" d="M169.12,-45C228.21,-48.67 306.42,-53.53 369.98,-57.48"/>
<polygon fill="orange" stroke="orange" points="169.26,-41.51 159.06,-44.38 168.83,-48.49 169.26,-41.51"/>
<text text-anchor="middle" x="264.5" y="-58.5" font-family="Helvetica,sans-Serif" font-size="10.00"> &lt; IP_SSAHardavForwardProblem &gt;</text>
</g>
<!-- Node4 -->
<g id="node4" class="node">
<title>Node4</title>
<g id="a_node4"><a xlink:href="classpism_1_1inverse_1_1IPTaoTikhonovProblem.html" target="_top" xlink:title=" ">
<polygon fill="none" stroke="black" points="377,-0.5 377,-30.5 591,-30.5 591,-0.5 377,-0.5"/>
<text text-anchor="start" x="385" y="-18.5" font-family="Helvetica,sans-Serif" font-size="10.00">pism::inverse::IPTaoTikhonov</text>
<text text-anchor="middle" x="484" y="-7.5" font-family="Helvetica,sans-Serif" font-size="10.00">Problem&lt; IP_SSATaucForwardProblem &gt;</text>
</a>
</g>
</g>
<!-- Node1&#45;&gt;Node4 -->
<g id="edge3" class="edge">
<title>Node1&#45;&gt;Node4</title>
<path fill="none" stroke="orange" stroke-dasharray="5,2" d="M169.29,-28.17C171.88,-27.93 174.46,-27.71 177,-27.5 243.24,-22.09 317.75,-19.1 376.66,-17.46"/>
<polygon fill="orange" stroke="orange" points="168.79,-24.7 159.18,-29.16 169.47,-31.67 168.79,-24.7"/>
<text text-anchor="middle" x="264.5" y="-30.5" font-family="Helvetica,sans-Serif" font-size="10.00"> &lt; IP_SSATaucForwardProblem &gt;</text>
</g>
<!-- Node3 -->
<g id="node3" class="node">
<title>Node3</title>
<g id="a_node3"><a xlink:href="classpism_1_1inverse_1_1IP__SSAHardavTaoTikhonovProblem.html" target="_top" xlink:title="Defines an IPTaoTikhonovProblem for inversion of basal yeild stresses &#160;from SSA velocities.">
<polygon fill="none" stroke="black" points="635,-49.5 635,-79.5 793,-79.5 793,-49.5 635,-49.5"/>
<text text-anchor="start" x="643" y="-67.5" font-family="Helvetica,sans-Serif" font-size="10.00">pism::inverse::IP_SSAHardav</text>
<text text-anchor="middle" x="714" y="-56.5" font-family="Helvetica,sans-Serif" font-size="10.00">TaoTikhonovProblem</text>
</a>
</g>
</g>
<!-- Node2&#45;&gt;Node3 -->
<g id="edge2" class="edge">
<title>Node2&#45;&gt;Node3</title>
<path fill="none" stroke="midnightblue" d="M608.5,-64.5C617.48,-64.5 626.39,-64.5 634.99,-64.5"/>
<polygon fill="midnightblue" stroke="midnightblue" points="608.33,-61 598.33,-64.5 608.33,-68 608.33,-61"/>
</g>
<!-- Node5 -->
<g id="node5" class="node">
<title>Node5</title>
<g id="a_node5"><a xlink:href="classpism_1_1inverse_1_1IP__SSATaucTaoTikhonovProblem.html" target="_top" xlink:title="Defines an IPTaoTikhonovProblem for inversion of basal yeild stresses &#160;from SSA velocities.">
<polygon fill="none" stroke="black" points="642.5,-0.5 642.5,-30.5 785.5,-30.5 785.5,-0.5 642.5,-0.5"/>
<text text-anchor="start" x="650.5" y="-18.5" font-family="Helvetica,sans-Serif" font-size="10.00">pism::inverse::IP_SSATauc</text>
<text text-anchor="middle" x="714" y="-7.5" font-family="Helvetica,sans-Serif" font-size="10.00">TaoTikhonovProblem</text>
</a>
</g>
</g>
<!-- Node4&#45;&gt;Node5 -->
<g id="edge4" class="edge">
<title>Node4&#45;&gt;Node5</title>
<path fill="none" stroke="midnightblue" d="M601.47,-15.5C615.42,-15.5 629.31,-15.5 642.33,-15.5"/>
<polygon fill="midnightblue" stroke="midnightblue" points="601.32,-12 591.32,-15.5 601.32,-19 601.32,-12"/>
</g>
</g>
</svg>
