<?xml version="1.0" encoding="UTF-8" standalone="no"?>
<!DOCTYPE svg PUBLIC "-//W3C//DTD SVG 1.1//EN"
 "http://www.w3.org/Graphics/SVG/1.1/DTD/svg11.dtd">
<!-- Generated by graphviz version 2.43.0 (0)
 -->
<!-- Title: pism::PetscAccessible Pages: 1 -->
<svg width="1432pt" height="541pt"
 viewBox="0.00 0.00 1432.00 541.00" xmlns="http://www.w3.org/2000/svg" xmlns:xlink="http://www.w3.org/1999/xlink">
<g id="graph0" class="graph" transform="scale(1 1) rotate(0) translate(4 537)">
<title>pism::PetscAccessible</title>
<!-- Node1 -->
<g id="node1" class="node">
<title>Node1</title>
<g id="a_node1"><a xlink:title=" ">
<polygon fill="#bfbfbf" stroke="black" points="0,-171.5 0,-190.5 125,-190.5 125,-171.5 0,-171.5"/>
<text text-anchor="middle" x="62.5" y="-178.5" font-family="Helvetica,sans-Serif" font-size="10.00">pism::PetscAccessible</text>
</a>
</g>
</g>
<!-- Node2 -->
<g id="node2" class="node">
<title>Node2</title>
<g id="a_node2"><a xlink:href="classpism_1_1array_1_1Array.html" target="_top" xlink:title="Abstract class for reading, writing, allocating, and accessing a DA&#45;based PETSc Vec (2D and 3D fields...">
<polygon fill="none" stroke="black" points="189,-197.5 189,-216.5 293,-216.5 293,-197.5 189,-197.5"/>
<text text-anchor="middle" x="241" y="-204.5" font-family="Helvetica,sans-Serif" font-size="10.00">pism::array::Array</text>
</a>
</g>
</g>
<!-- Node1&#45;&gt;Node2 -->
<g id="edge1" class="edge">
<title>Node1&#45;&gt;Node2</title>
<path fill="none" stroke="midnightblue" d="M135.36,-191.59C153.28,-194.22 172.13,-197 188.82,-199.46"/>
<polygon fill="midnightblue" stroke="midnightblue" points="135.63,-188.09 125.23,-190.09 134.61,-195.01 135.63,-188.09"/>
</g>
<!-- Node24 -->
<g id="node24" class="node">
<title>Node24</title>
<g id="a_node24"><a xlink:href="structpism_1_1icebin_1_1MassEnthVec2S.html" target="_top" xlink:title=" ">
<polygon fill="none" stroke="black" points="162,-159.5 162,-178.5 320,-178.5 320,-159.5 162,-159.5"/>
<text text-anchor="middle" x="241" y="-166.5" font-family="Helvetica,sans-Serif" font-size="10.00">pism::icebin::MassEnthVec2S</text>
</a>
</g>
</g>
<!-- Node1&#45;&gt;Node24 -->
<g id="edge30" class="edge">
<title>Node1&#45;&gt;Node24</title>
<path fill="none" stroke="midnightblue" d="M135.36,-176.11C144.09,-175.52 153.04,-174.91 161.86,-174.31"/>
<polygon fill="midnightblue" stroke="midnightblue" points="134.97,-172.63 125.23,-176.8 135.45,-179.62 134.97,-172.63"/>
</g>
<!-- Node3 -->
<g id="node3" class="node">
<title>Node3</title>
<g id="a_node3"><a xlink:href="classpism_1_1array_1_1Array2D.html" target="_top" xlink:title=" ">
<polygon fill="none" stroke="black" points="661,-348.5 661,-389.5 799,-389.5 799,-348.5 661,-348.5"/>
<text text-anchor="start" x="669" y="-377.5" font-family="Helvetica,sans-Serif" font-size="10.00">pism::array::Array2D</text>
<text text-anchor="start" x="669" y="-366.5" font-family="Helvetica,sans-Serif" font-size="10.00">&lt; pism::stressbalance</text>
<text text-anchor="middle" x="730" y="-355.5" font-family="Helvetica,sans-Serif" font-size="10.00">::SSAFEM::Coefficients &gt;</text>
</a>
</g>
</g>
<!-- Node2&#45;&gt;Node3 -->
<g id="edge2" class="edge">
<title>Node2&#45;&gt;Node3</title>
<path fill="none" stroke="midnightblue" d="M253.96,-224.89C273.15,-252.61 313.17,-306.46 357,-342 421.42,-394.22 440.62,-410.59 521,-431 573.56,-444.34 596.01,-458.05 643,-431 656.81,-423.05 649.19,-410.7 661,-400 665.23,-396.17 670.02,-392.74 675.04,-389.68"/>
<polygon fill="midnightblue" stroke="midnightblue" points="256.79,-222.84 248.27,-216.55 251.01,-226.78 256.79,-222.84"/>
</g>
<!-- Node4 -->
<g id="node4" class="node">
<title>Node4</title>
<g id="a_node4"><a xlink:href="classpism_1_1array_1_1Array2D.html" target="_top" xlink:title=" ">
<polygon fill="none" stroke="black" points="671.5,-470 671.5,-500 788.5,-500 788.5,-470 671.5,-470"/>
<text text-anchor="start" x="679.5" y="-488" font-family="Helvetica,sans-Serif" font-size="10.00">pism::array::Array2D</text>
<text text-anchor="middle" x="730" y="-477" font-family="Helvetica,sans-Serif" font-size="10.00">&lt; double &gt;</text>
</a>
</g>
</g>
<!-- Node2&#45;&gt;Node4 -->
<g id="edge3" class="edge">
<title>Node2&#45;&gt;Node4</title>
<path fill="none" stroke="midnightblue" d="M245.68,-226.56C255.39,-272.82 285.99,-389.84 357,-454 453.17,-540.89 514.78,-529.96 643,-511 657.97,-508.79 673.94,-504.52 688.01,-500.07"/>
<polygon fill="midnightblue" stroke="midnightblue" points="249.09,-225.75 243.7,-216.64 242.23,-227.13 249.09,-225.75"/>
</g>
<!-- Node12 -->
<g id="node12" class="node">
<title>Node12</title>
<g id="a_node12"><a xlink:href="classpism_1_1array_1_1Array2D.html" target="_top" xlink:title=" ">
<polygon fill="none" stroke="black" points="667.5,-409.5 667.5,-450.5 792.5,-450.5 792.5,-409.5 667.5,-409.5"/>
<text text-anchor="start" x="675.5" y="-438.5" font-family="Helvetica,sans-Serif" font-size="10.00">pism::array::Array2D</text>
<text text-anchor="start" x="675.5" y="-427.5" font-family="Helvetica,sans-Serif" font-size="10.00">&lt; pism::stressbalance</text>
<text text-anchor="middle" x="730" y="-416.5" font-family="Helvetica,sans-Serif" font-size="10.00">::DeviatoricStresses &gt;</text>
</a>
</g>
</g>
<!-- Node2&#45;&gt;Node12 -->
<g id="edge11" class="edge">
<title>Node2&#45;&gt;Node12</title>
<path fill="none" stroke="midnightblue" d="M249.78,-226.46C265.39,-263.52 303.65,-345.15 357,-397 417.09,-455.4 439.98,-468.63 521,-490 573.43,-503.83 595.62,-516.36 643,-490 656.26,-482.63 649.61,-471.02 661,-461 665.38,-457.14 670.33,-453.68 675.5,-450.6"/>
<polygon fill="midnightblue" stroke="midnightblue" points="252.87,-224.77 245.83,-216.86 246.4,-227.44 252.87,-224.77"/>
</g>
<!-- Node13 -->
<g id="node13" class="node">
<title>Node13</title>
<g id="a_node13"><a xlink:href="classpism_1_1array_1_1Array2D.html" target="_top" xlink:title=" ">
<polygon fill="none" stroke="black" points="671.5,-297 671.5,-327 788.5,-327 788.5,-297 671.5,-297"/>
<text text-anchor="start" x="679.5" y="-315" font-family="Helvetica,sans-Serif" font-size="10.00">pism::array::Array2D</text>
<text text-anchor="middle" x="730" y="-304" font-family="Helvetica,sans-Serif" font-size="10.00">&lt; pism::Vector2d &gt;</text>
</a>
</g>
</g>
<!-- Node2&#45;&gt;Node13 -->
<g id="edge12" class="edge">
<title>Node2&#45;&gt;Node13</title>
<path fill="none" stroke="midnightblue" d="M258.95,-223.71C280.3,-244.01 318.82,-278.24 357,-300 424.56,-338.51 444.46,-347.23 521,-361 574.37,-370.6 594,-384.22 643,-361 654.42,-355.59 650.8,-346.46 661,-339 667.36,-334.35 674.62,-330.37 681.98,-327.01"/>
<polygon fill="midnightblue" stroke="midnightblue" points="261.27,-221.09 251.64,-216.67 256.41,-226.13 261.27,-221.09"/>
</g>
<!-- Node17 -->
<g id="node17" class="node">
<title>Node17</title>
<g id="a_node17"><a xlink:href="classpism_1_1array_1_1Array2D.html" target="_top" xlink:title=" ">
<polygon fill="none" stroke="black" points="667.5,-158.5 667.5,-199.5 792.5,-199.5 792.5,-158.5 667.5,-158.5"/>
<text text-anchor="start" x="675.5" y="-187.5" font-family="Helvetica,sans-Serif" font-size="10.00">pism::array::Array2D</text>
<text text-anchor="start" x="675.5" y="-176.5" font-family="Helvetica,sans-Serif" font-size="10.00">&lt; pism::stressbalance</text>
<text text-anchor="middle" x="730" y="-165.5" font-family="Helvetica,sans-Serif" font-size="10.00">::SSAFD::Work &gt;</text>
</a>
</g>
</g>
<!-- Node2&#45;&gt;Node17 -->
<g id="edge16" class="edge">
<title>Node2&#45;&gt;Node17</title>
<path fill="none" stroke="midnightblue" d="M302.87,-196.19C308.88,-193.95 314.7,-191.25 320,-188 330.48,-181.57 327.48,-173.36 338,-167 409.41,-123.82 438.08,-134.39 521,-125 574.88,-118.9 590.89,-110 643,-125 665.7,-131.54 688.2,-146.03 704.49,-158.35"/>
<polygon fill="midnightblue" stroke="midnightblue" points="301.74,-192.87 293.35,-199.33 303.94,-199.52 301.74,-192.87"/>
</g>
<!-- Node18 -->
<g id="node18" class="node">
<title>Node18</title>
<g id="a_node18"><a xlink:href="classpism_1_1array_1_1Array2D.html" target="_top" xlink:title=" ">
<polygon fill="none" stroke="black" points="666,-75.5 666,-116.5 794,-116.5 794,-75.5 666,-75.5"/>
<text text-anchor="start" x="674" y="-104.5" font-family="Helvetica,sans-Serif" font-size="10.00">pism::array::Array2D</text>
<text text-anchor="start" x="674" y="-93.5" font-family="Helvetica,sans-Serif" font-size="10.00">&lt; pism::stressbalance</text>
<text text-anchor="middle" x="730" y="-82.5" font-family="Helvetica,sans-Serif" font-size="10.00">::Blatter::Parameters &gt;</text>
</a>
</g>
</g>
<!-- Node2&#45;&gt;Node18 -->
<g id="edge17" class="edge">
<title>Node2&#45;&gt;Node18</title>
<path fill="none" stroke="midnightblue" d="M303.04,-197.4C309.1,-194.94 314.89,-191.85 320,-188 346.54,-167.99 328.89,-140.74 357,-123 451.33,-63.48 587.13,-71.83 665.9,-83.67"/>
<polygon fill="midnightblue" stroke="midnightblue" points="301.64,-194.18 293.36,-200.79 303.95,-200.79 301.64,-194.18"/>
</g>
<!-- Node19 -->
<g id="node19" class="node">
<title>Node19</title>
<g id="a_node19"><a xlink:href="classpism_1_1array_1_1Array2D.html" target="_top" xlink:title=" ">
<polygon fill="none" stroke="black" points="664,-230.5 664,-271.5 796,-271.5 796,-230.5 664,-230.5"/>
<text text-anchor="start" x="672" y="-259.5" font-family="Helvetica,sans-Serif" font-size="10.00">pism::array::Array2D</text>
<text text-anchor="start" x="672" y="-248.5" font-family="Helvetica,sans-Serif" font-size="10.00">&lt; pism::stressbalance</text>
<text text-anchor="middle" x="730" y="-237.5" font-family="Helvetica,sans-Serif" font-size="10.00">::PrincipalStrainRates &gt;</text>
</a>
</g>
</g>
<!-- Node2&#45;&gt;Node19 -->
<g id="edge18" class="edge">
<title>Node2&#45;&gt;Node19</title>
<path fill="none" stroke="midnightblue" d="M288.77,-195.21C365.27,-178.19 520.84,-153.09 643,-195 652.59,-198.29 652.68,-203.22 661,-209 671.48,-216.28 683.22,-223.76 693.94,-230.34"/>
<polygon fill="midnightblue" stroke="midnightblue" points="287.93,-191.81 278.96,-197.45 289.49,-198.64 287.93,-191.81"/>
</g>
<!-- Node20 -->
<g id="node20" class="node">
<title>Node20</title>
<g id="a_node20"><a xlink:href="classpism_1_1array_1_1Array2D.html" target="_top" xlink:title="A storage vector combining related fields in a struct.">
<polygon fill="none" stroke="black" points="357,-271.5 357,-290.5 503,-290.5 503,-271.5 357,-271.5"/>
<text text-anchor="middle" x="430" y="-278.5" font-family="Helvetica,sans-Serif" font-size="10.00">pism::array::Array2D&lt; T &gt;</text>
</a>
</g>
</g>
<!-- Node2&#45;&gt;Node20 -->
<g id="edge19" class="edge">
<title>Node2&#45;&gt;Node20</title>
<path fill="none" stroke="midnightblue" d="M275.47,-220.24C312.64,-234.96 371.75,-258.35 404.73,-271.4"/>
<polygon fill="midnightblue" stroke="midnightblue" points="276.65,-216.95 266.06,-216.52 274.07,-223.46 276.65,-216.95"/>
</g>
<!-- Node21 -->
<g id="node21" class="node">
<title>Node21</title>
<g id="a_node21"><a xlink:href="classpism_1_1array_1_1Array3D.html" target="_top" xlink:title="A virtual class collecting methods common to ice and bedrock 3D fields.">
<polygon fill="none" stroke="black" points="371.5,-38.5 371.5,-57.5 488.5,-57.5 488.5,-38.5 371.5,-38.5"/>
<text text-anchor="middle" x="430" y="-45.5" font-family="Helvetica,sans-Serif" font-size="10.00">pism::array::Array3D</text>
</a>
</g>
</g>
<!-- Node2&#45;&gt;Node21 -->
<g id="edge27" class="edge">
<title>Node2&#45;&gt;Node21</title>
<path fill="none" stroke="midnightblue" d="M302.93,-199.93C309.35,-197.05 315.25,-193.17 320,-188 355.29,-149.57 303.07,-110.76 338,-72 346.64,-62.41 358.61,-56.45 371.04,-52.8"/>
<polygon fill="midnightblue" stroke="midnightblue" points="301.42,-196.75 293.23,-203.48 303.83,-203.33 301.42,-196.75"/>
</g>
<!-- Node22 -->
<g id="node22" class="node">
<title>Node22</title>
<g id="a_node22"><a xlink:href="classpism_1_1array_1_1Staggered.html" target="_top" xlink:title="A class for storing and accessing internal staggered&#45;grid 2D fields. Uses dof=2 storage....">
<polygon fill="none" stroke="black" points="366.5,-0.5 366.5,-19.5 493.5,-19.5 493.5,-0.5 366.5,-0.5"/>
<text text-anchor="middle" x="430" y="-7.5" font-family="Helvetica,sans-Serif" font-size="10.00">pism::array::Staggered</text>
</a>
</g>
</g>
<!-- Node2&#45;&gt;Node22 -->
<g id="edge28" class="edge">
<title>Node2&#45;&gt;Node22</title>
<path fill="none" stroke="midnightblue" d="M302.96,-199.95C309.37,-197.06 315.26,-193.18 320,-188 356.38,-148.19 322.01,-119.5 338,-68 343.72,-49.59 342.1,-41.24 357,-29 361.69,-25.14 367.09,-22.06 372.78,-19.6"/>
<polygon fill="midnightblue" stroke="midnightblue" points="301.45,-196.78 293.26,-203.51 303.86,-203.35 301.45,-196.78"/>
</g>
<!-- Node5 -->
<g id="node5" class="node">
<title>Node5</title>
<g id="a_node5"><a xlink:href="classpism_1_1array_1_1Scalar.html" target="_top" xlink:title=" ">
<polygon fill="none" stroke="black" points="836.5,-475.5 836.5,-494.5 943.5,-494.5 943.5,-475.5 836.5,-475.5"/>
<text text-anchor="middle" x="890" y="-482.5" font-family="Helvetica,sans-Serif" font-size="10.00">pism::array::Scalar</text>
</a>
</g>
</g>
<!-- Node4&#45;&gt;Node5 -->
<g id="edge4" class="edge">
<title>Node4&#45;&gt;Node5</title>
<path fill="none" stroke="midnightblue" d="M799.25,-485C811.66,-485 824.43,-485 836.31,-485"/>
<polygon fill="midnightblue" stroke="midnightblue" points="798.94,-481.5 788.94,-485 798.94,-488.5 798.94,-481.5"/>
</g>
<!-- Node6 -->
<g id="node6" class="node">
<title>Node6</title>
<g id="a_node6"><a xlink:href="classpism_1_1array_1_1CellType.html" target="_top" xlink:title="&quot;Cell type&quot; mask. Adds convenience methods to array::Scalar.">
<polygon fill="none" stroke="black" points="981,-513.5 981,-532.5 1100,-532.5 1100,-513.5 981,-513.5"/>
<text text-anchor="middle" x="1040.5" y="-520.5" font-family="Helvetica,sans-Serif" font-size="10.00">pism::array::CellType</text>
</a>
</g>
</g>
<!-- Node5&#45;&gt;Node6 -->
<g id="edge5" class="edge">
<title>Node5&#45;&gt;Node6</title>
<path fill="none" stroke="midnightblue" d="M938.33,-497.11C959.01,-502.4 982.92,-508.52 1002.3,-513.48"/>
<polygon fill="midnightblue" stroke="midnightblue" points="939.03,-493.68 928.47,-494.59 937.29,-500.46 939.03,-493.68"/>
</g>
<!-- Node9 -->
<g id="node9" class="node">
<title>Node9</title>
<g id="a_node9"><a xlink:href="classpism_1_1array_1_1Forcing.html" target="_top" xlink:title="2D time&#45;dependent inputs (for climate forcing, etc)">
<polygon fill="none" stroke="black" points="984,-475.5 984,-494.5 1097,-494.5 1097,-475.5 984,-475.5"/>
<text text-anchor="middle" x="1040.5" y="-482.5" font-family="Helvetica,sans-Serif" font-size="10.00">pism::array::Forcing</text>
</a>
</g>
</g>
<!-- Node5&#45;&gt;Node9 -->
<g id="edge8" class="edge">
<title>Node5&#45;&gt;Node9</title>
<path fill="none" stroke="midnightblue" d="M953.99,-485C963.93,-485 974.13,-485 983.88,-485"/>
<polygon fill="midnightblue" stroke="midnightblue" points="953.77,-481.5 943.77,-485 953.77,-488.5 953.77,-481.5"/>
</g>
<!-- Node10 -->
<g id="node10" class="node">
<title>Node10</title>
<g id="a_node10"><a xlink:href="classpism_1_1array_1_1Scalar1.html" target="_top" xlink:title=" ">
<polygon fill="none" stroke="black" points="984,-437.5 984,-456.5 1097,-456.5 1097,-437.5 984,-437.5"/>
<text text-anchor="middle" x="1040.5" y="-444.5" font-family="Helvetica,sans-Serif" font-size="10.00">pism::array::Scalar1</text>
</a>
</g>
</g>
<!-- Node5&#45;&gt;Node10 -->
<g id="edge9" class="edge">
<title>Node5&#45;&gt;Node10</title>
<path fill="none" stroke="midnightblue" d="M938.33,-472.89C959.01,-467.6 982.92,-461.48 1002.3,-456.52"/>
<polygon fill="midnightblue" stroke="midnightblue" points="937.29,-469.54 928.47,-475.41 939.03,-476.32 937.29,-469.54"/>
</g>
<!-- Node7 -->
<g id="node7" class="node">
<title>Node7</title>
<g id="a_node7"><a xlink:href="classpism_1_1array_1_1CellType1.html" target="_top" xlink:title=" ">
<polygon fill="none" stroke="black" points="1137,-513.5 1137,-532.5 1262,-532.5 1262,-513.5 1137,-513.5"/>
<text text-anchor="middle" x="1199.5" y="-520.5" font-family="Helvetica,sans-Serif" font-size="10.00">pism::array::CellType1</text>
</a>
</g>
</g>
<!-- Node6&#45;&gt;Node7 -->
<g id="edge6" class="edge">
<title>Node6&#45;&gt;Node7</title>
<path fill="none" stroke="midnightblue" d="M1110.59,-523C1119.35,-523 1128.27,-523 1136.9,-523"/>
<polygon fill="midnightblue" stroke="midnightblue" points="1110.41,-519.5 1100.41,-523 1110.41,-526.5 1110.41,-519.5"/>
</g>
<!-- Node8 -->
<g id="node8" class="node">
<title>Node8</title>
<g id="a_node8"><a xlink:href="classpism_1_1array_1_1CellType2.html" target="_top" xlink:title=" ">
<polygon fill="none" stroke="black" points="1299,-513.5 1299,-532.5 1424,-532.5 1424,-513.5 1299,-513.5"/>
<text text-anchor="middle" x="1361.5" y="-520.5" font-family="Helvetica,sans-Serif" font-size="10.00">pism::array::CellType2</text>
</a>
</g>
</g>
<!-- Node7&#45;&gt;Node8 -->
<g id="edge7" class="edge">
<title>Node7&#45;&gt;Node8</title>
<path fill="none" stroke="midnightblue" d="M1272.56,-523C1281.32,-523 1290.21,-523 1298.8,-523"/>
<polygon fill="midnightblue" stroke="midnightblue" points="1272.36,-519.5 1262.36,-523 1272.36,-526.5 1272.36,-519.5"/>
</g>
<!-- Node11 -->
<g id="node11" class="node">
<title>Node11</title>
<g id="a_node11"><a xlink:href="classpism_1_1array_1_1Scalar2.html" target="_top" xlink:title=" ">
<polygon fill="none" stroke="black" points="1143,-437.5 1143,-456.5 1256,-456.5 1256,-437.5 1143,-437.5"/>
<text text-anchor="middle" x="1199.5" y="-444.5" font-family="Helvetica,sans-Serif" font-size="10.00">pism::array::Scalar2</text>
</a>
</g>
</g>
<!-- Node10&#45;&gt;Node11 -->
<g id="edge10" class="edge">
<title>Node10&#45;&gt;Node11</title>
<path fill="none" stroke="midnightblue" d="M1107.51,-447C1119.28,-447 1131.44,-447 1142.89,-447"/>
<polygon fill="midnightblue" stroke="midnightblue" points="1107.29,-443.5 1097.29,-447 1107.29,-450.5 1107.29,-443.5"/>
</g>
<!-- Node14 -->
<g id="node14" class="node">
<title>Node14</title>
<g id="a_node14"><a xlink:href="classpism_1_1array_1_1Vector.html" target="_top" xlink:title=" ">
<polygon fill="none" stroke="black" points="836,-302.5 836,-321.5 944,-321.5 944,-302.5 836,-302.5"/>
<text text-anchor="middle" x="890" y="-309.5" font-family="Helvetica,sans-Serif" font-size="10.00">pism::array::Vector</text>
</a>
</g>
</g>
<!-- Node13&#45;&gt;Node14 -->
<g id="edge13" class="edge">
<title>Node13&#45;&gt;Node14</title>
<path fill="none" stroke="midnightblue" d="M799.13,-312C811.4,-312 824.02,-312 835.79,-312"/>
<polygon fill="midnightblue" stroke="midnightblue" points="798.94,-308.5 788.94,-312 798.94,-315.5 798.94,-308.5"/>
</g>
<!-- Node15 -->
<g id="node15" class="node">
<title>Node15</title>
<g id="a_node15"><a xlink:href="classpism_1_1array_1_1Vector1.html" target="_top" xlink:title=" ">
<polygon fill="none" stroke="black" points="983.5,-302.5 983.5,-321.5 1097.5,-321.5 1097.5,-302.5 983.5,-302.5"/>
<text text-anchor="middle" x="1040.5" y="-309.5" font-family="Helvetica,sans-Serif" font-size="10.00">pism::array::Vector1</text>
</a>
</g>
</g>
<!-- Node14&#45;&gt;Node15 -->
<g id="edge14" class="edge">
<title>Node14&#45;&gt;Node15</title>
<path fill="none" stroke="midnightblue" d="M954.5,-312C964.11,-312 973.98,-312 983.42,-312"/>
<polygon fill="midnightblue" stroke="midnightblue" points="954.19,-308.5 944.19,-312 954.19,-315.5 954.19,-308.5"/>
</g>
<!-- Node16 -->
<g id="node16" class="node">
<title>Node16</title>
<g id="a_node16"><a xlink:href="classpism_1_1array_1_1Vector2.html" target="_top" xlink:title=" ">
<polygon fill="none" stroke="black" points="1142.5,-302.5 1142.5,-321.5 1256.5,-321.5 1256.5,-302.5 1142.5,-302.5"/>
<text text-anchor="middle" x="1199.5" y="-309.5" font-family="Helvetica,sans-Serif" font-size="10.00">pism::array::Vector2</text>
</a>
</g>
</g>
<!-- Node15&#45;&gt;Node16 -->
<g id="edge15" class="edge">
<title>Node15&#45;&gt;Node16</title>
<path fill="none" stroke="midnightblue" d="M1107.75,-312C1119.28,-312 1131.17,-312 1142.39,-312"/>
<polygon fill="midnightblue" stroke="midnightblue" points="1107.74,-308.5 1097.74,-312 1107.74,-315.5 1107.74,-308.5"/>
</g>
<!-- Node20&#45;&gt;Node3 -->
<g id="edge20" class="edge">
<title>Node20&#45;&gt;Node3</title>
<path fill="none" stroke="orange" stroke-dasharray="5,2" d="M462.78,-294.45C479.86,-301.4 501.38,-309.71 521,-316 567.13,-330.79 620.05,-344.22 660.96,-353.87"/>
<polygon fill="orange" stroke="orange" points="463.87,-291.11 453.29,-290.54 461.21,-297.58 463.87,-291.11"/>
<text text-anchor="start" x="521" y="-362" font-family="Helvetica,sans-Serif" font-size="10.00"> &lt; pism::stressbalance</text>
<text text-anchor="middle" x="582" y="-351" font-family="Helvetica,sans-Serif" font-size="10.00">::SSAFEM::Coefficients &gt;</text>
</g>
<!-- Node20&#45;&gt;Node4 -->
<g id="edge21" class="edge">
<title>Node20&#45;&gt;Node4</title>
<path fill="none" stroke="orange" stroke-dasharray="5,2" d="M435.96,-300.34C445.88,-334.86 471.56,-406.84 521,-443 564.56,-474.86 626.38,-484.01 671.3,-486.01"/>
<polygon fill="orange" stroke="orange" points="439.3,-299.27 433.29,-290.54 432.54,-301.11 439.3,-299.27"/>
<text text-anchor="middle" x="582" y="-486" font-family="Helvetica,sans-Serif" font-size="10.00"> &lt; double &gt;</text>
</g>
<!-- Node20&#45;&gt;Node12 -->
<g id="edge22" class="edge">
<title>Node20&#45;&gt;Node12</title>
<path fill="none" stroke="orange" stroke-dasharray="5,2" d="M443.33,-298.64C458.99,-319.71 487.97,-354.54 521,-374 566.11,-400.58 624.09,-414.83 667.37,-422.3"/>
<polygon fill="orange" stroke="orange" points="446.16,-296.58 437.46,-290.54 440.5,-300.69 446.16,-296.58"/>
<text text-anchor="start" x="526" y="-431" font-family="Helvetica,sans-Serif" font-size="10.00"> &lt; pism::stressbalance</text>
<text text-anchor="middle" x="582" y="-420" font-family="Helvetica,sans-Serif" font-size="10.00">::DeviatoricStresses &gt;</text>
</g>
<!-- Node20&#45;&gt;Node13 -->
<g id="edge23" class="edge">
<title>Node20&#45;&gt;Node13</title>
<path fill="none" stroke="orange" stroke-dasharray="5,2" d="M513.33,-289.56C563.58,-294.79 626.57,-301.34 671.48,-306.02"/>
<polygon fill="orange" stroke="orange" points="513.45,-286.06 503.14,-288.5 512.72,-293.02 513.45,-286.06"/>
<text text-anchor="middle" x="582" y="-305" font-family="Helvetica,sans-Serif" font-size="10.00"> &lt; pism::Vector2d &gt;</text>
</g>
<!-- Node20&#45;&gt;Node17 -->
<g id="edge24" class="edge">
<title>Node20&#45;&gt;Node17</title>
<path fill="none" stroke="orange" stroke-dasharray="5,2" d="M451.71,-265.26C469.28,-252.63 495.61,-235.35 521,-225 568.26,-205.73 625.01,-193.87 667.29,-187.03"/>
<polygon fill="orange" stroke="orange" points="449.36,-262.64 443.37,-271.38 453.5,-268.28 449.36,-262.64"/>
<text text-anchor="start" x="526" y="-239" font-family="Helvetica,sans-Serif" font-size="10.00"> &lt; pism::stressbalance</text>
<text text-anchor="middle" x="582" y="-228" font-family="Helvetica,sans-Serif" font-size="10.00">::SSAFD::Work &gt;</text>
</g>
<!-- Node20&#45;&gt;Node18 -->
<g id="edge25" class="edge">
<title>Node20&#45;&gt;Node18</title>
<path fill="none" stroke="orange" stroke-dasharray="5,2" d="M440.79,-262.31C455.1,-236.76 484.07,-191.12 521,-165 564.33,-134.35 622.2,-116.62 665.9,-106.82"/>
<polygon fill="orange" stroke="orange" points="437.59,-260.88 435.89,-271.33 443.74,-264.22 437.59,-260.88"/>
<text text-anchor="start" x="526" y="-179" font-family="Helvetica,sans-Serif" font-size="10.00"> &lt; pism::stressbalance</text>
<text text-anchor="middle" x="582" y="-168" font-family="Helvetica,sans-Serif" font-size="10.00">::Blatter::Parameters &gt;</text>
</g>
<!-- Node20&#45;&gt;Node19 -->
<g id="edge26" class="edge">
<title>Node20&#45;&gt;Node19</title>
<path fill="none" stroke="orange" stroke-dasharray="5,2" d="M475.07,-268.99C489.59,-265.5 505.89,-262.07 521,-260 568.45,-253.5 622.5,-251.31 663.61,-250.72"/>
<polygon fill="orange" stroke="orange" points="474.2,-265.6 465.34,-271.4 475.89,-272.4 474.2,-265.6"/>
<text text-anchor="start" x="524" y="-274" font-family="Helvetica,sans-Serif" font-size="10.00"> &lt; pism::stressbalance</text>
<text text-anchor="middle" x="582" y="-263" font-family="Helvetica,sans-Serif" font-size="10.00">::PrincipalStrainRates &gt;</text>
</g>
<!-- Node23 -->
<g id="node23" class="node">
<title>Node23</title>
<g id="a_node23"><a xlink:href="classpism_1_1array_1_1Staggered1.html" target="_top" xlink:title=" ">
<polygon fill="none" stroke="black" points="663.5,-0.5 663.5,-19.5 796.5,-19.5 796.5,-0.5 663.5,-0.5"/>
<text text-anchor="middle" x="730" y="-7.5" font-family="Helvetica,sans-Serif" font-size="10.00">pism::array::Staggered1</text>
</a>
</g>
</g>
<!-- Node22&#45;&gt;Node23 -->
<g id="edge29" class="edge">
<title>Node22&#45;&gt;Node23</title>
<path fill="none" stroke="midnightblue" d="M504,-10C552.74,-10 616.29,-10 663.42,-10"/>
<polygon fill="midnightblue" stroke="midnightblue" points="503.83,-6.5 493.83,-10 503.83,-13.5 503.83,-6.5"/>
</g>
</g>
</svg>
