<?xml version="1.0" encoding="UTF-8" standalone="no"?>
<!DOCTYPE svg PUBLIC "-//W3C//DTD SVG 1.1//EN"
 "http://www.w3.org/Graphics/SVG/1.1/DTD/svg11.dtd">
<!-- Generated by graphviz version 2.43.0 (0)
 -->
<!-- Title: pism::array::Array Pages: 1 -->
<svg width="1378pt" height="541pt"
 viewBox="0.00 0.00 1378.00 541.00" xmlns="http://www.w3.org/2000/svg" xmlns:xlink="http://www.w3.org/1999/xlink">
<g id="graph0" class="graph" transform="scale(1 1) rotate(0) translate(4 537)">
<title>pism::array::Array</title>
<!-- Node1 -->
<g id="node1" class="node">
<title>Node1</title>
<g id="a_node1"><a xlink:title="Abstract class for reading, writing, allocating, and accessing a DA&#45;based PETSc Vec (2D and 3D fields...">
<polygon fill="#bfbfbf" stroke="black" points="162,-210.5 162,-229.5 266,-229.5 266,-210.5 162,-210.5"/>
<text text-anchor="middle" x="214" y="-217.5" font-family="Helvetica,sans-Serif" font-size="10.00">pism::array::Array</text>
</a>
</g>
</g>
<!-- Node3 -->
<g id="node3" class="node">
<title>Node3</title>
<g id="a_node3"><a xlink:href="classpism_1_1array_1_1Array2D.html" target="_top" xlink:title=" ">
<polygon fill="none" stroke="black" points="607,-348.5 607,-389.5 745,-389.5 745,-348.5 607,-348.5"/>
<text text-anchor="start" x="615" y="-377.5" font-family="Helvetica,sans-Serif" font-size="10.00">pism::array::Array2D</text>
<text text-anchor="start" x="615" y="-366.5" font-family="Helvetica,sans-Serif" font-size="10.00">&lt; pism::stressbalance</text>
<text text-anchor="middle" x="676" y="-355.5" font-family="Helvetica,sans-Serif" font-size="10.00">::SSAFEM::Coefficients &gt;</text>
</a>
</g>
</g>
<!-- Node1&#45;&gt;Node3 -->
<g id="edge2" class="edge">
<title>Node1&#45;&gt;Node3</title>
<path fill="none" stroke="midnightblue" d="M224.94,-238.77C239.37,-264.6 268.21,-311.39 303,-342 365.26,-396.78 386.62,-410.59 467,-431 519.56,-444.34 542.01,-458.05 589,-431 602.81,-423.05 595.19,-410.7 607,-400 611.23,-396.17 616.02,-392.74 621.04,-389.68"/>
<polygon fill="midnightblue" stroke="midnightblue" points="227.85,-236.77 219.98,-229.67 221.7,-240.13 227.85,-236.77"/>
</g>
<!-- Node4 -->
<g id="node4" class="node">
<title>Node4</title>
<g id="a_node4"><a xlink:href="classpism_1_1array_1_1Array2D.html" target="_top" xlink:title=" ">
<polygon fill="none" stroke="black" points="617.5,-470 617.5,-500 734.5,-500 734.5,-470 617.5,-470"/>
<text text-anchor="start" x="625.5" y="-488" font-family="Helvetica,sans-Serif" font-size="10.00">pism::array::Array2D</text>
<text text-anchor="middle" x="676" y="-477" font-family="Helvetica,sans-Serif" font-size="10.00">&lt; double &gt;</text>
</a>
</g>
</g>
<!-- Node1&#45;&gt;Node4 -->
<g id="edge3" class="edge">
<title>Node1&#45;&gt;Node4</title>
<path fill="none" stroke="midnightblue" d="M216.78,-239.74C221.84,-284.42 240.33,-394.13 303,-455 395.92,-545.24 460.87,-529.95 589,-511 603.97,-508.79 619.94,-504.52 634.01,-500.07"/>
<polygon fill="midnightblue" stroke="midnightblue" points="220.24,-239.21 215.74,-229.62 213.28,-239.93 220.24,-239.21"/>
</g>
<!-- Node12 -->
<g id="node12" class="node">
<title>Node12</title>
<g id="a_node12"><a xlink:href="classpism_1_1array_1_1Array2D.html" target="_top" xlink:title=" ">
<polygon fill="none" stroke="black" points="613.5,-409.5 613.5,-450.5 738.5,-450.5 738.5,-409.5 613.5,-409.5"/>
<text text-anchor="start" x="621.5" y="-438.5" font-family="Helvetica,sans-Serif" font-size="10.00">pism::array::Array2D</text>
<text text-anchor="start" x="621.5" y="-427.5" font-family="Helvetica,sans-Serif" font-size="10.00">&lt; pism::stressbalance</text>
<text text-anchor="middle" x="676" y="-416.5" font-family="Helvetica,sans-Serif" font-size="10.00">::DeviatoricStresses &gt;</text>
</a>
</g>
</g>
<!-- Node1&#45;&gt;Node12 -->
<g id="edge11" class="edge">
<title>Node1&#45;&gt;Node12</title>
<path fill="none" stroke="midnightblue" d="M220.47,-239.7C231.16,-275.14 257.81,-350.4 303,-398 360.54,-458.61 386.14,-468.87 467,-490 519.46,-503.71 541.62,-516.36 589,-490 602.26,-482.63 595.61,-471.02 607,-461 611.38,-457.14 616.33,-453.68 621.5,-450.6"/>
<polygon fill="midnightblue" stroke="midnightblue" points="223.71,-238.3 217.56,-229.68 216.99,-240.26 223.71,-238.3"/>
</g>
<!-- Node13 -->
<g id="node13" class="node">
<title>Node13</title>
<g id="a_node13"><a xlink:href="classpism_1_1array_1_1Array2D.html" target="_top" xlink:title=" ">
<polygon fill="none" stroke="black" points="617.5,-297 617.5,-327 734.5,-327 734.5,-297 617.5,-297"/>
<text text-anchor="start" x="625.5" y="-315" font-family="Helvetica,sans-Serif" font-size="10.00">pism::array::Array2D</text>
<text text-anchor="middle" x="676" y="-304" font-family="Helvetica,sans-Serif" font-size="10.00">&lt; pism::Vector2d &gt;</text>
</a>
</g>
</g>
<!-- Node1&#45;&gt;Node13 -->
<g id="edge12" class="edge">
<title>Node1&#45;&gt;Node13</title>
<path fill="none" stroke="midnightblue" d="M230.46,-237.55C246.93,-255.34 274.51,-282.65 303,-300 369.42,-340.45 390.46,-347.23 467,-361 520.37,-370.6 540,-384.22 589,-361 600.42,-355.59 596.8,-346.46 607,-339 613.36,-334.35 620.62,-330.37 627.98,-327.01"/>
<polygon fill="midnightblue" stroke="midnightblue" points="232.62,-234.72 223.31,-229.66 227.44,-239.42 232.62,-234.72"/>
</g>
<!-- Node17 -->
<g id="node17" class="node">
<title>Node17</title>
<g id="a_node17"><a xlink:href="classpism_1_1array_1_1Array2D.html" target="_top" xlink:title=" ">
<polygon fill="none" stroke="black" points="613.5,-158.5 613.5,-199.5 738.5,-199.5 738.5,-158.5 613.5,-158.5"/>
<text text-anchor="start" x="621.5" y="-187.5" font-family="Helvetica,sans-Serif" font-size="10.00">pism::array::Array2D</text>
<text text-anchor="start" x="621.5" y="-176.5" font-family="Helvetica,sans-Serif" font-size="10.00">&lt; pism::stressbalance</text>
<text text-anchor="middle" x="676" y="-165.5" font-family="Helvetica,sans-Serif" font-size="10.00">::SSAFD::Work &gt;</text>
</a>
</g>
</g>
<!-- Node1&#45;&gt;Node17 -->
<g id="edge16" class="edge">
<title>Node1&#45;&gt;Node17</title>
<path fill="none" stroke="midnightblue" d="M239.61,-205.09C256.9,-195.06 280.81,-182.06 303,-173 373.31,-144.29 391.82,-135.78 467,-125 520.67,-117.31 536.89,-110 589,-125 611.7,-131.54 634.2,-146.03 650.49,-158.35"/>
<polygon fill="midnightblue" stroke="midnightblue" points="237.58,-202.22 230.74,-210.31 241.13,-208.25 237.58,-202.22"/>
</g>
<!-- Node18 -->
<g id="node18" class="node">
<title>Node18</title>
<g id="a_node18"><a xlink:href="classpism_1_1array_1_1Array2D.html" target="_top" xlink:title=" ">
<polygon fill="none" stroke="black" points="612,-75.5 612,-116.5 740,-116.5 740,-75.5 612,-75.5"/>
<text text-anchor="start" x="620" y="-104.5" font-family="Helvetica,sans-Serif" font-size="10.00">pism::array::Array2D</text>
<text text-anchor="start" x="620" y="-93.5" font-family="Helvetica,sans-Serif" font-size="10.00">&lt; pism::stressbalance</text>
<text text-anchor="middle" x="676" y="-82.5" font-family="Helvetica,sans-Serif" font-size="10.00">::Blatter::Parameters &gt;</text>
</a>
</g>
</g>
<!-- Node1&#45;&gt;Node18 -->
<g id="edge17" class="edge">
<title>Node1&#45;&gt;Node18</title>
<path fill="none" stroke="midnightblue" d="M225.59,-201.76C239.92,-179.03 267.76,-141.11 303,-124 402.48,-75.7 534.75,-79.37 611.81,-87.18"/>
<polygon fill="midnightblue" stroke="midnightblue" points="222.51,-200.1 220.3,-210.46 228.49,-203.73 222.51,-200.1"/>
</g>
<!-- Node19 -->
<g id="node19" class="node">
<title>Node19</title>
<g id="a_node19"><a xlink:href="classpism_1_1array_1_1Array2D.html" target="_top" xlink:title=" ">
<polygon fill="none" stroke="black" points="610,-230.5 610,-271.5 742,-271.5 742,-230.5 610,-230.5"/>
<text text-anchor="start" x="618" y="-259.5" font-family="Helvetica,sans-Serif" font-size="10.00">pism::array::Array2D</text>
<text text-anchor="start" x="618" y="-248.5" font-family="Helvetica,sans-Serif" font-size="10.00">&lt; pism::stressbalance</text>
<text text-anchor="middle" x="676" y="-237.5" font-family="Helvetica,sans-Serif" font-size="10.00">::PrincipalStrainRates &gt;</text>
</a>
</g>
</g>
<!-- Node1&#45;&gt;Node19 -->
<g id="edge18" class="edge">
<title>Node1&#45;&gt;Node19</title>
<path fill="none" stroke="midnightblue" d="M254.32,-207.62C323.95,-187.8 472.54,-155.04 589,-195 598.59,-198.29 598.68,-203.22 607,-209 617.48,-216.28 629.22,-223.76 639.94,-230.34"/>
<polygon fill="midnightblue" stroke="midnightblue" points="253.26,-204.28 244.64,-210.44 255.22,-211 253.26,-204.28"/>
</g>
<!-- Node20 -->
<g id="node20" class="node">
<title>Node20</title>
<g id="a_node20"><a xlink:href="classpism_1_1array_1_1Array2D.html" target="_top" xlink:title="A storage vector combining related fields in a struct.">
<polygon fill="none" stroke="black" points="303,-271.5 303,-290.5 449,-290.5 449,-271.5 303,-271.5"/>
<text text-anchor="middle" x="376" y="-278.5" font-family="Helvetica,sans-Serif" font-size="10.00">pism::array::Array2D&lt; T &gt;</text>
</a>
</g>
</g>
<!-- Node1&#45;&gt;Node20 -->
<g id="edge19" class="edge">
<title>Node1&#45;&gt;Node20</title>
<path fill="none" stroke="midnightblue" d="M249.71,-233.23C279.91,-244.75 322.95,-261.16 349.91,-271.44"/>
<polygon fill="midnightblue" stroke="midnightblue" points="250.59,-229.82 240,-229.53 248.1,-236.36 250.59,-229.82"/>
</g>
<!-- Node21 -->
<g id="node21" class="node">
<title>Node21</title>
<g id="a_node21"><a xlink:href="classpism_1_1array_1_1Array3D.html" target="_top" xlink:title="A virtual class collecting methods common to ice and bedrock 3D fields.">
<polygon fill="none" stroke="black" points="317.5,-38.5 317.5,-57.5 434.5,-57.5 434.5,-38.5 317.5,-38.5"/>
<text text-anchor="middle" x="376" y="-45.5" font-family="Helvetica,sans-Serif" font-size="10.00">pism::array::Array3D</text>
</a>
</g>
</g>
<!-- Node1&#45;&gt;Node21 -->
<g id="edge27" class="edge">
<title>Node1&#45;&gt;Node21</title>
<path fill="none" stroke="midnightblue" d="M218.57,-200.47C225.44,-168.66 243.53,-105.83 284,-72 293.53,-64.04 305.42,-58.69 317.43,-55.1"/>
<polygon fill="midnightblue" stroke="midnightblue" points="215.13,-199.84 216.6,-210.33 221.99,-201.21 215.13,-199.84"/>
</g>
<!-- Node22 -->
<g id="node22" class="node">
<title>Node22</title>
<g id="a_node22"><a xlink:href="classpism_1_1array_1_1Staggered.html" target="_top" xlink:title="A class for storing and accessing internal staggered&#45;grid 2D fields. Uses dof=2 storage....">
<polygon fill="none" stroke="black" points="312.5,-0.5 312.5,-19.5 439.5,-19.5 439.5,-0.5 312.5,-0.5"/>
<text text-anchor="middle" x="376" y="-7.5" font-family="Helvetica,sans-Serif" font-size="10.00">pism::array::Staggered</text>
</a>
</g>
</g>
<!-- Node1&#45;&gt;Node22 -->
<g id="edge28" class="edge">
<title>Node1&#45;&gt;Node22</title>
<path fill="none" stroke="midnightblue" d="M218.26,-200.2C225.78,-161.16 248.05,-74.14 303,-29 307.69,-25.14 313.09,-22.06 318.78,-19.6"/>
<polygon fill="midnightblue" stroke="midnightblue" points="214.78,-199.81 216.45,-210.27 221.67,-201.05 214.78,-199.81"/>
</g>
<!-- Node2 -->
<g id="node2" class="node">
<title>Node2</title>
<g id="a_node2"><a xlink:href="classpism_1_1PetscAccessible.html" target="_top" xlink:title=" ">
<polygon fill="none" stroke="black" points="0,-210.5 0,-229.5 125,-229.5 125,-210.5 0,-210.5"/>
<text text-anchor="middle" x="62.5" y="-217.5" font-family="Helvetica,sans-Serif" font-size="10.00">pism::PetscAccessible</text>
</a>
</g>
</g>
<!-- Node2&#45;&gt;Node1 -->
<g id="edge1" class="edge">
<title>Node2&#45;&gt;Node1</title>
<path fill="none" stroke="midnightblue" d="M135.28,-220C144.28,-220 153.34,-220 161.93,-220"/>
<polygon fill="midnightblue" stroke="midnightblue" points="135.17,-216.5 125.17,-220 135.17,-223.5 135.17,-216.5"/>
</g>
<!-- Node5 -->
<g id="node5" class="node">
<title>Node5</title>
<g id="a_node5"><a xlink:href="classpism_1_1array_1_1Scalar.html" target="_top" xlink:title=" ">
<polygon fill="none" stroke="black" points="782.5,-475.5 782.5,-494.5 889.5,-494.5 889.5,-475.5 782.5,-475.5"/>
<text text-anchor="middle" x="836" y="-482.5" font-family="Helvetica,sans-Serif" font-size="10.00">pism::array::Scalar</text>
</a>
</g>
</g>
<!-- Node4&#45;&gt;Node5 -->
<g id="edge4" class="edge">
<title>Node4&#45;&gt;Node5</title>
<path fill="none" stroke="midnightblue" d="M745.25,-485C757.66,-485 770.43,-485 782.31,-485"/>
<polygon fill="midnightblue" stroke="midnightblue" points="744.94,-481.5 734.94,-485 744.94,-488.5 744.94,-481.5"/>
</g>
<!-- Node6 -->
<g id="node6" class="node">
<title>Node6</title>
<g id="a_node6"><a xlink:href="classpism_1_1array_1_1CellType.html" target="_top" xlink:title="&quot;Cell type&quot; mask. Adds convenience methods to array::Scalar.">
<polygon fill="none" stroke="black" points="927,-513.5 927,-532.5 1046,-532.5 1046,-513.5 927,-513.5"/>
<text text-anchor="middle" x="986.5" y="-520.5" font-family="Helvetica,sans-Serif" font-size="10.00">pism::array::CellType</text>
</a>
</g>
</g>
<!-- Node5&#45;&gt;Node6 -->
<g id="edge5" class="edge">
<title>Node5&#45;&gt;Node6</title>
<path fill="none" stroke="midnightblue" d="M884.33,-497.11C905.01,-502.4 928.92,-508.52 948.3,-513.48"/>
<polygon fill="midnightblue" stroke="midnightblue" points="885.03,-493.68 874.47,-494.59 883.29,-500.46 885.03,-493.68"/>
</g>
<!-- Node9 -->
<g id="node9" class="node">
<title>Node9</title>
<g id="a_node9"><a xlink:href="classpism_1_1array_1_1Forcing.html" target="_top" xlink:title="2D time&#45;dependent inputs (for climate forcing, etc)">
<polygon fill="none" stroke="black" points="930,-475.5 930,-494.5 1043,-494.5 1043,-475.5 930,-475.5"/>
<text text-anchor="middle" x="986.5" y="-482.5" font-family="Helvetica,sans-Serif" font-size="10.00">pism::array::Forcing</text>
</a>
</g>
</g>
<!-- Node5&#45;&gt;Node9 -->
<g id="edge8" class="edge">
<title>Node5&#45;&gt;Node9</title>
<path fill="none" stroke="midnightblue" d="M899.99,-485C909.93,-485 920.13,-485 929.88,-485"/>
<polygon fill="midnightblue" stroke="midnightblue" points="899.77,-481.5 889.77,-485 899.77,-488.5 899.77,-481.5"/>
</g>
<!-- Node10 -->
<g id="node10" class="node">
<title>Node10</title>
<g id="a_node10"><a xlink:href="classpism_1_1array_1_1Scalar1.html" target="_top" xlink:title=" ">
<polygon fill="none" stroke="black" points="930,-437.5 930,-456.5 1043,-456.5 1043,-437.5 930,-437.5"/>
<text text-anchor="middle" x="986.5" y="-444.5" font-family="Helvetica,sans-Serif" font-size="10.00">pism::array::Scalar1</text>
</a>
</g>
</g>
<!-- Node5&#45;&gt;Node10 -->
<g id="edge9" class="edge">
<title>Node5&#45;&gt;Node10</title>
<path fill="none" stroke="midnightblue" d="M884.33,-472.89C905.01,-467.6 928.92,-461.48 948.3,-456.52"/>
<polygon fill="midnightblue" stroke="midnightblue" points="883.29,-469.54 874.47,-475.41 885.03,-476.32 883.29,-469.54"/>
</g>
<!-- Node7 -->
<g id="node7" class="node">
<title>Node7</title>
<g id="a_node7"><a xlink:href="classpism_1_1array_1_1CellType1.html" target="_top" xlink:title=" ">
<polygon fill="none" stroke="black" points="1083,-513.5 1083,-532.5 1208,-532.5 1208,-513.5 1083,-513.5"/>
<text text-anchor="middle" x="1145.5" y="-520.5" font-family="Helvetica,sans-Serif" font-size="10.00">pism::array::CellType1</text>
</a>
</g>
</g>
<!-- Node6&#45;&gt;Node7 -->
<g id="edge6" class="edge">
<title>Node6&#45;&gt;Node7</title>
<path fill="none" stroke="midnightblue" d="M1056.59,-523C1065.35,-523 1074.27,-523 1082.9,-523"/>
<polygon fill="midnightblue" stroke="midnightblue" points="1056.41,-519.5 1046.41,-523 1056.41,-526.5 1056.41,-519.5"/>
</g>
<!-- Node8 -->
<g id="node8" class="node">
<title>Node8</title>
<g id="a_node8"><a xlink:href="classpism_1_1array_1_1CellType2.html" target="_top" xlink:title=" ">
<polygon fill="none" stroke="black" points="1245,-513.5 1245,-532.5 1370,-532.5 1370,-513.5 1245,-513.5"/>
<text text-anchor="middle" x="1307.5" y="-520.5" font-family="Helvetica,sans-Serif" font-size="10.00">pism::array::CellType2</text>
</a>
</g>
</g>
<!-- Node7&#45;&gt;Node8 -->
<g id="edge7" class="edge">
<title>Node7&#45;&gt;Node8</title>
<path fill="none" stroke="midnightblue" d="M1218.56,-523C1227.32,-523 1236.21,-523 1244.8,-523"/>
<polygon fill="midnightblue" stroke="midnightblue" points="1218.36,-519.5 1208.36,-523 1218.36,-526.5 1218.36,-519.5"/>
</g>
<!-- Node11 -->
<g id="node11" class="node">
<title>Node11</title>
<g id="a_node11"><a xlink:href="classpism_1_1array_1_1Scalar2.html" target="_top" xlink:title=" ">
<polygon fill="none" stroke="black" points="1089,-437.5 1089,-456.5 1202,-456.5 1202,-437.5 1089,-437.5"/>
<text text-anchor="middle" x="1145.5" y="-444.5" font-family="Helvetica,sans-Serif" font-size="10.00">pism::array::Scalar2</text>
</a>
</g>
</g>
<!-- Node10&#45;&gt;Node11 -->
<g id="edge10" class="edge">
<title>Node10&#45;&gt;Node11</title>
<path fill="none" stroke="midnightblue" d="M1053.51,-447C1065.28,-447 1077.44,-447 1088.89,-447"/>
<polygon fill="midnightblue" stroke="midnightblue" points="1053.29,-443.5 1043.29,-447 1053.29,-450.5 1053.29,-443.5"/>
</g>
<!-- Node14 -->
<g id="node14" class="node">
<title>Node14</title>
<g id="a_node14"><a xlink:href="classpism_1_1array_1_1Vector.html" target="_top" xlink:title=" ">
<polygon fill="none" stroke="black" points="782,-302.5 782,-321.5 890,-321.5 890,-302.5 782,-302.5"/>
<text text-anchor="middle" x="836" y="-309.5" font-family="Helvetica,sans-Serif" font-size="10.00">pism::array::Vector</text>
</a>
</g>
</g>
<!-- Node13&#45;&gt;Node14 -->
<g id="edge13" class="edge">
<title>Node13&#45;&gt;Node14</title>
<path fill="none" stroke="midnightblue" d="M745.13,-312C757.4,-312 770.02,-312 781.79,-312"/>
<polygon fill="midnightblue" stroke="midnightblue" points="744.94,-308.5 734.94,-312 744.94,-315.5 744.94,-308.5"/>
</g>
<!-- Node15 -->
<g id="node15" class="node">
<title>Node15</title>
<g id="a_node15"><a xlink:href="classpism_1_1array_1_1Vector1.html" target="_top" xlink:title=" ">
<polygon fill="none" stroke="black" points="929.5,-302.5 929.5,-321.5 1043.5,-321.5 1043.5,-302.5 929.5,-302.5"/>
<text text-anchor="middle" x="986.5" y="-309.5" font-family="Helvetica,sans-Serif" font-size="10.00">pism::array::Vector1</text>
</a>
</g>
</g>
<!-- Node14&#45;&gt;Node15 -->
<g id="edge14" class="edge">
<title>Node14&#45;&gt;Node15</title>
<path fill="none" stroke="midnightblue" d="M900.5,-312C910.11,-312 919.98,-312 929.42,-312"/>
<polygon fill="midnightblue" stroke="midnightblue" points="900.19,-308.5 890.19,-312 900.19,-315.5 900.19,-308.5"/>
</g>
<!-- Node16 -->
<g id="node16" class="node">
<title>Node16</title>
<g id="a_node16"><a xlink:href="classpism_1_1array_1_1Vector2.html" target="_top" xlink:title=" ">
<polygon fill="none" stroke="black" points="1088.5,-302.5 1088.5,-321.5 1202.5,-321.5 1202.5,-302.5 1088.5,-302.5"/>
<text text-anchor="middle" x="1145.5" y="-309.5" font-family="Helvetica,sans-Serif" font-size="10.00">pism::array::Vector2</text>
</a>
</g>
</g>
<!-- Node15&#45;&gt;Node16 -->
<g id="edge15" class="edge">
<title>Node15&#45;&gt;Node16</title>
<path fill="none" stroke="midnightblue" d="M1053.75,-312C1065.28,-312 1077.17,-312 1088.39,-312"/>
<polygon fill="midnightblue" stroke="midnightblue" points="1053.74,-308.5 1043.74,-312 1053.74,-315.5 1053.74,-308.5"/>
</g>
<!-- Node20&#45;&gt;Node3 -->
<g id="edge20" class="edge">
<title>Node20&#45;&gt;Node3</title>
<path fill="none" stroke="orange" stroke-dasharray="5,2" d="M408.78,-294.45C425.86,-301.4 447.38,-309.71 467,-316 513.13,-330.79 566.05,-344.22 606.96,-353.87"/>
<polygon fill="orange" stroke="orange" points="409.87,-291.11 399.29,-290.54 407.21,-297.58 409.87,-291.11"/>
<text text-anchor="start" x="467" y="-362" font-family="Helvetica,sans-Serif" font-size="10.00"> &lt; pism::stressbalance</text>
<text text-anchor="middle" x="528" y="-351" font-family="Helvetica,sans-Serif" font-size="10.00">::SSAFEM::Coefficients &gt;</text>
</g>
<!-- Node20&#45;&gt;Node4 -->
<g id="edge21" class="edge">
<title>Node20&#45;&gt;Node4</title>
<path fill="none" stroke="orange" stroke-dasharray="5,2" d="M381.96,-300.34C391.88,-334.86 417.56,-406.84 467,-443 510.56,-474.86 572.38,-484.01 617.3,-486.01"/>
<polygon fill="orange" stroke="orange" points="385.3,-299.27 379.29,-290.54 378.54,-301.11 385.3,-299.27"/>
<text text-anchor="middle" x="528" y="-486" font-family="Helvetica,sans-Serif" font-size="10.00"> &lt; double &gt;</text>
</g>
<!-- Node20&#45;&gt;Node12 -->
<g id="edge22" class="edge">
<title>Node20&#45;&gt;Node12</title>
<path fill="none" stroke="orange" stroke-dasharray="5,2" d="M389.33,-298.64C404.99,-319.71 433.97,-354.54 467,-374 512.11,-400.58 570.09,-414.83 613.37,-422.3"/>
<polygon fill="orange" stroke="orange" points="392.16,-296.58 383.46,-290.54 386.5,-300.69 392.16,-296.58"/>
<text text-anchor="start" x="472" y="-431" font-family="Helvetica,sans-Serif" font-size="10.00"> &lt; pism::stressbalance</text>
<text text-anchor="middle" x="528" y="-420" font-family="Helvetica,sans-Serif" font-size="10.00">::DeviatoricStresses &gt;</text>
</g>
<!-- Node20&#45;&gt;Node13 -->
<g id="edge23" class="edge">
<title>Node20&#45;&gt;Node13</title>
<path fill="none" stroke="orange" stroke-dasharray="5,2" d="M459.33,-289.56C509.58,-294.79 572.57,-301.34 617.48,-306.02"/>
<polygon fill="orange" stroke="orange" points="459.45,-286.06 449.14,-288.5 458.72,-293.02 459.45,-286.06"/>
<text text-anchor="middle" x="528" y="-305" font-family="Helvetica,sans-Serif" font-size="10.00"> &lt; pism::Vector2d &gt;</text>
</g>
<!-- Node20&#45;&gt;Node17 -->
<g id="edge24" class="edge">
<title>Node20&#45;&gt;Node17</title>
<path fill="none" stroke="orange" stroke-dasharray="5,2" d="M397.71,-265.26C415.28,-252.63 441.61,-235.35 467,-225 514.26,-205.73 571.01,-193.87 613.29,-187.03"/>
<polygon fill="orange" stroke="orange" points="395.36,-262.64 389.37,-271.38 399.5,-268.28 395.36,-262.64"/>
<text text-anchor="start" x="472" y="-239" font-family="Helvetica,sans-Serif" font-size="10.00"> &lt; pism::stressbalance</text>
<text text-anchor="middle" x="528" y="-228" font-family="Helvetica,sans-Serif" font-size="10.00">::SSAFD::Work &gt;</text>
</g>
<!-- Node20&#45;&gt;Node18 -->
<g id="edge25" class="edge">
<title>Node20&#45;&gt;Node18</title>
<path fill="none" stroke="orange" stroke-dasharray="5,2" d="M386.85,-262.5C401.22,-237.2 430.27,-191.98 467,-166 510.39,-135.3 568.26,-117.28 611.94,-107.22"/>
<polygon fill="orange" stroke="orange" points="383.69,-260.99 381.92,-271.43 389.81,-264.37 383.69,-260.99"/>
<text text-anchor="start" x="472" y="-180" font-family="Helvetica,sans-Serif" font-size="10.00"> &lt; pism::stressbalance</text>
<text text-anchor="middle" x="528" y="-169" font-family="Helvetica,sans-Serif" font-size="10.00">::Blatter::Parameters &gt;</text>
</g>
<!-- Node20&#45;&gt;Node19 -->
<g id="edge26" class="edge">
<title>Node20&#45;&gt;Node19</title>
<path fill="none" stroke="orange" stroke-dasharray="5,2" d="M421.07,-268.99C435.59,-265.5 451.89,-262.07 467,-260 514.45,-253.5 568.5,-251.31 609.61,-250.72"/>
<polygon fill="orange" stroke="orange" points="420.2,-265.6 411.34,-271.4 421.89,-272.4 420.2,-265.6"/>
<text text-anchor="start" x="470" y="-274" font-family="Helvetica,sans-Serif" font-size="10.00"> &lt; pism::stressbalance</text>
<text text-anchor="middle" x="528" y="-263" font-family="Helvetica,sans-Serif" font-size="10.00">::PrincipalStrainRates &gt;</text>
</g>
<!-- Node23 -->
<g id="node23" class="node">
<title>Node23</title>
<g id="a_node23"><a xlink:href="classpism_1_1array_1_1Staggered1.html" target="_top" xlink:title=" ">
<polygon fill="none" stroke="black" points="609.5,-0.5 609.5,-19.5 742.5,-19.5 742.5,-0.5 609.5,-0.5"/>
<text text-anchor="middle" x="676" y="-7.5" font-family="Helvetica,sans-Serif" font-size="10.00">pism::array::Staggered1</text>
</a>
</g>
</g>
<!-- Node22&#45;&gt;Node23 -->
<g id="edge29" class="edge">
<title>Node22&#45;&gt;Node23</title>
<path fill="none" stroke="midnightblue" d="M450,-10C498.74,-10 562.29,-10 609.42,-10"/>
<polygon fill="midnightblue" stroke="midnightblue" points="449.83,-6.5 439.83,-10 449.83,-13.5 449.83,-6.5"/>
</g>
</g>
</svg>
