<?xml version="1.0" encoding="UTF-8" standalone="no"?>
<!DOCTYPE svg PUBLIC "-//W3C//DTD SVG 1.1//EN"
 "http://www.w3.org/Graphics/SVG/1.1/DTD/svg11.dtd">
<!-- Generated by graphviz version 2.43.0 (0)
 -->
<!-- Title: pism::inverse::IP_SSATaucForwardProblem Pages: 1 -->
<svg width="151pt" height="285pt"
 viewBox="0.00 0.00 151.00 285.00" xmlns="http://www.w3.org/2000/svg" xmlns:xlink="http://www.w3.org/1999/xlink">
<g id="graph0" class="graph" transform="scale(1 1) rotate(0) translate(4 281)">
<title>pism::inverse::IP_SSATaucForwardProblem</title>
<!-- Node1 -->
<g id="node1" class="node">
<title>Node1</title>
<g id="a_node1"><a xlink:title="Implements the forward problem of the map taking &#160;to the corresponding solution of the SSA.">
<polygon fill="#bfbfbf" stroke="black" points="0,-0.5 0,-30.5 143,-30.5 143,-0.5 0,-0.5"/>
<text text-anchor="start" x="8" y="-18.5" font-family="Helvetica,sans-Serif" font-size="10.00">pism::inverse::IP_SSATauc</text>
<text text-anchor="middle" x="71.5" y="-7.5" font-family="Helvetica,sans-Serif" font-size="10.00">ForwardProblem</text>
</a>
</g>
</g>
<!-- Node2 -->
<g id="node2" class="node">
<title>Node2</title>
<g id="a_node2"><a xlink:href="classpism_1_1stressbalance_1_1SSAFEM.html" target="_top" xlink:title="PISM&#39;s SSA solver: the finite element method implementation written by Jed and David.">
<polygon fill="none" stroke="black" points="14.5,-67.5 14.5,-97.5 128.5,-97.5 128.5,-67.5 14.5,-67.5"/>
<text text-anchor="start" x="22.5" y="-85.5" font-family="Helvetica,sans-Serif" font-size="10.00">pism::stressbalance</text>
<text text-anchor="middle" x="71.5" y="-74.5" font-family="Helvetica,sans-Serif" font-size="10.00">::SSAFEM</text>
</a>
</g>
</g>
<!-- Node2&#45;&gt;Node1 -->
<g id="edge1" class="edge">
<title>Node2&#45;&gt;Node1</title>
<path fill="none" stroke="midnightblue" d="M71.5,-57.11C71.5,-48.15 71.5,-38.32 71.5,-30.58"/>
<polygon fill="midnightblue" stroke="midnightblue" points="68,-57.4 71.5,-67.4 75,-57.4 68,-57.4"/>
</g>
<!-- Node3 -->
<g id="node3" class="node">
<title>Node3</title>
<g id="a_node3"><a xlink:href="classpism_1_1stressbalance_1_1SSA.html" target="_top" xlink:title="PISM&#39;s SSA solver.">
<polygon fill="none" stroke="black" points="1.5,-134.5 1.5,-153.5 141.5,-153.5 141.5,-134.5 1.5,-134.5"/>
<text text-anchor="middle" x="71.5" y="-141.5" font-family="Helvetica,sans-Serif" font-size="10.00">pism::stressbalance::SSA</text>
</a>
</g>
</g>
<!-- Node3&#45;&gt;Node2 -->
<g id="edge2" class="edge">
<title>Node3&#45;&gt;Node2</title>
<path fill="none" stroke="midnightblue" d="M71.5,-124.23C71.5,-115.59 71.5,-105.5 71.5,-97.52"/>
<polygon fill="midnightblue" stroke="midnightblue" points="68,-124.48 71.5,-134.48 75,-124.48 68,-124.48"/>
</g>
<!-- Node4 -->
<g id="node4" class="node">
<title>Node4</title>
<g id="a_node4"><a xlink:href="classpism_1_1stressbalance_1_1ShallowStressBalance.html" target="_top" xlink:title="Shallow stress balance (such as the SSA).">
<polygon fill="none" stroke="black" points="6.5,-190.5 6.5,-220.5 136.5,-220.5 136.5,-190.5 6.5,-190.5"/>
<text text-anchor="start" x="14.5" y="-208.5" font-family="Helvetica,sans-Serif" font-size="10.00">pism::stressbalance</text>
<text text-anchor="middle" x="71.5" y="-197.5" font-family="Helvetica,sans-Serif" font-size="10.00">::ShallowStressBalance</text>
</a>
</g>
</g>
<!-- Node4&#45;&gt;Node3 -->
<g id="edge3" class="edge">
<title>Node4&#45;&gt;Node3</title>
<path fill="none" stroke="midnightblue" d="M71.5,-180.29C71.5,-170.86 71.5,-160.65 71.5,-153.66"/>
<polygon fill="midnightblue" stroke="midnightblue" points="68,-180.4 71.5,-190.4 75,-180.4 68,-180.4"/>
</g>
<!-- Node5 -->
<g id="node5" class="node">
<title>Node5</title>
<g id="a_node5"><a xlink:href="classpism_1_1Component.html" target="_top" xlink:title="A class defining a common interface for most PISM sub&#45;models.">
<polygon fill="none" stroke="black" points="20,-257.5 20,-276.5 123,-276.5 123,-257.5 20,-257.5"/>
<text text-anchor="middle" x="71.5" y="-264.5" font-family="Helvetica,sans-Serif" font-size="10.00">pism::Component</text>
</a>
</g>
</g>
<!-- Node5&#45;&gt;Node4 -->
<g id="edge4" class="edge">
<title>Node5&#45;&gt;Node4</title>
<path fill="none" stroke="midnightblue" d="M71.5,-247.23C71.5,-238.59 71.5,-228.5 71.5,-220.52"/>
<polygon fill="midnightblue" stroke="midnightblue" points="68,-247.48 71.5,-257.48 75,-247.48 68,-247.48"/>
</g>
</g>
</svg>
