<?xml version="1.0" encoding="UTF-8" standalone="no"?>
<!DOCTYPE svg PUBLIC "-//W3C//DTD SVG 1.1//EN"
 "http://www.w3.org/Graphics/SVG/1.1/DTD/svg11.dtd">
<!-- Generated by graphviz version 2.43.0 (0)
 -->
<!-- Title: pism::diagnostics::FluxDivergence Pages: 1 -->
<svg width="262pt" height="220pt"
 viewBox="0.00 0.00 262.00 220.00" xmlns="http://www.w3.org/2000/svg" xmlns:xlink="http://www.w3.org/1999/xlink">
<g id="graph0" class="graph" transform="scale(1 1) rotate(0) translate(4 216)">
<title>pism::diagnostics::FluxDivergence</title>
<!-- Node1 -->
<g id="node1" class="node">
<title>Node1</title>
<g id="a_node1"><a xlink:title="Report the divergence of the ice flux.">
<polygon fill="#bfbfbf" stroke="black" points="39,-0.5 39,-30.5 147,-30.5 147,-0.5 39,-0.5"/>
<text text-anchor="start" x="47" y="-18.5" font-family="Helvetica,sans-Serif" font-size="10.00">pism::diagnostics::</text>
<text text-anchor="middle" x="93" y="-7.5" font-family="Helvetica,sans-Serif" font-size="10.00">FluxDivergence</text>
</a>
</g>
</g>
<!-- Node2 -->
<g id="node2" class="node">
<title>Node2</title>
<g id="a_node2"><a xlink:href="classpism_1_1Diag.html" target="_top" xlink:title=" ">
<polygon fill="none" stroke="black" points="0,-68.5 0,-87.5 186,-87.5 186,-68.5 0,-68.5"/>
<text text-anchor="middle" x="93" y="-75.5" font-family="Helvetica,sans-Serif" font-size="10.00">pism::Diag&lt; GeometryEvolution &gt;</text>
</a>
</g>
</g>
<!-- Node2&#45;&gt;Node1 -->
<g id="edge1" class="edge">
<title>Node2&#45;&gt;Node1</title>
<path fill="none" stroke="midnightblue" d="M93,-58.22C93,-49.36 93,-38.96 93,-30.76"/>
<polygon fill="midnightblue" stroke="midnightblue" points="89.5,-58.33 93,-68.33 96.5,-58.33 89.5,-58.33"/>
</g>
<!-- Node3 -->
<g id="node3" class="node">
<title>Node3</title>
<g id="a_node3"><a xlink:href="classpism_1_1Diagnostic.html" target="_top" xlink:title="Class representing diagnostic computations in PISM.">
<polygon fill="none" stroke="black" points="40,-192.5 40,-211.5 138,-211.5 138,-192.5 40,-192.5"/>
<text text-anchor="middle" x="89" y="-199.5" font-family="Helvetica,sans-Serif" font-size="10.00">pism::Diagnostic</text>
</a>
</g>
</g>
<!-- Node3&#45;&gt;Node2 -->
<g id="edge2" class="edge">
<title>Node3&#45;&gt;Node2</title>
<path fill="none" stroke="midnightblue" d="M89.62,-182.19C90.5,-155.4 92.07,-107.31 92.71,-87.69"/>
<polygon fill="midnightblue" stroke="midnightblue" points="86.12,-182.12 89.29,-192.23 93.11,-182.35 86.12,-182.12"/>
</g>
<!-- Node4 -->
<g id="node4" class="node">
<title>Node4</title>
<g id="a_node4"><a xlink:href="classpism_1_1Diag.html" target="_top" xlink:title="A template derived from Diagnostic, adding a &quot;Model&quot;.">
<polygon fill="none" stroke="black" points="105,-135.5 105,-154.5 227,-154.5 227,-135.5 105,-135.5"/>
<text text-anchor="middle" x="166" y="-142.5" font-family="Helvetica,sans-Serif" font-size="10.00">pism::Diag&lt; Model &gt;</text>
</a>
</g>
</g>
<!-- Node3&#45;&gt;Node4 -->
<g id="edge4" class="edge">
<title>Node3&#45;&gt;Node4</title>
<path fill="none" stroke="midnightblue" d="M109.25,-186.54C123.5,-176.35 142.11,-163.07 154.05,-154.53"/>
<polygon fill="midnightblue" stroke="midnightblue" points="107.13,-183.75 101.03,-192.41 111.2,-189.44 107.13,-183.75"/>
</g>
<!-- Node4&#45;&gt;Node2 -->
<g id="edge3" class="edge">
<title>Node4&#45;&gt;Node2</title>
<path fill="none" stroke="orange" stroke-dasharray="5,2" d="M148.43,-128.36C134.08,-115.58 114.33,-97.99 102.69,-87.63"/>
<polygon fill="orange" stroke="orange" points="146.36,-131.2 156.15,-135.23 151.01,-125.97 146.36,-131.2"/>
<text text-anchor="middle" x="193.5" y="-109" font-family="Helvetica,sans-Serif" font-size="10.00"> &lt; GeometryEvolution &gt;</text>
</g>
</g>
</svg>
