<?xml version="1.0" encoding="UTF-8" standalone="no"?>
<!DOCTYPE svg PUBLIC "-//W3C//DTD SVG 1.1//EN"
 "http://www.w3.org/Graphics/SVG/1.1/DTD/svg11.dtd">
<!-- Generated by graphviz version 2.43.0 (0)
 -->
<!-- Title: pism::stressbalance::SIAFD_schoofs_theta Pages: 1 -->
<svg width="205pt" height="220pt"
 viewBox="0.00 0.00 204.50 220.00" xmlns="http://www.w3.org/2000/svg" xmlns:xlink="http://www.w3.org/1999/xlink">
<g id="graph0" class="graph" transform="scale(1 1) rotate(0) translate(4 216)">
<title>pism::stressbalance::SIAFD_schoofs_theta</title>
<!-- Node1 -->
<g id="node1" class="node">
<title>Node1</title>
<g id="a_node1"><a xlink:title="Computes the multiplier &#160;in Schoof&#39;s (2003) theory of the effect of bed roughness on the diffusivity ...">
<polygon fill="#bfbfbf" stroke="black" points="0,-0.5 0,-30.5 125,-30.5 125,-0.5 0,-0.5"/>
<text text-anchor="start" x="8" y="-18.5" font-family="Helvetica,sans-Serif" font-size="10.00">pism::stressbalance</text>
<text text-anchor="middle" x="62.5" y="-7.5" font-family="Helvetica,sans-Serif" font-size="10.00">::SIAFD_schoofs_theta</text>
</a>
</g>
</g>
<!-- Node2 -->
<g id="node2" class="node">
<title>Node2</title>
<g id="a_node2"><a xlink:href="classpism_1_1Diag.html" target="_top" xlink:title=" ">
<polygon fill="none" stroke="black" points="2,-68.5 2,-87.5 123,-87.5 123,-68.5 2,-68.5"/>
<text text-anchor="middle" x="62.5" y="-75.5" font-family="Helvetica,sans-Serif" font-size="10.00">pism::Diag&lt; SIAFD &gt;</text>
</a>
</g>
</g>
<!-- Node2&#45;&gt;Node1 -->
<g id="edge1" class="edge">
<title>Node2&#45;&gt;Node1</title>
<path fill="none" stroke="midnightblue" d="M62.5,-58.22C62.5,-49.36 62.5,-38.96 62.5,-30.76"/>
<polygon fill="midnightblue" stroke="midnightblue" points="59,-58.33 62.5,-68.33 66,-58.33 59,-58.33"/>
</g>
<!-- Node3 -->
<g id="node3" class="node">
<title>Node3</title>
<g id="a_node3"><a xlink:href="classpism_1_1Diagnostic.html" target="_top" xlink:title="Class representing diagnostic computations in PISM.">
<polygon fill="none" stroke="black" points="9.5,-192.5 9.5,-211.5 107.5,-211.5 107.5,-192.5 9.5,-192.5"/>
<text text-anchor="middle" x="58.5" y="-199.5" font-family="Helvetica,sans-Serif" font-size="10.00">pism::Diagnostic</text>
</a>
</g>
</g>
<!-- Node3&#45;&gt;Node2 -->
<g id="edge2" class="edge">
<title>Node3&#45;&gt;Node2</title>
<path fill="none" stroke="midnightblue" d="M59.12,-182.19C60,-155.4 61.57,-107.31 62.21,-87.69"/>
<polygon fill="midnightblue" stroke="midnightblue" points="55.62,-182.12 58.79,-192.23 62.61,-182.35 55.62,-182.12"/>
</g>
<!-- Node4 -->
<g id="node4" class="node">
<title>Node4</title>
<g id="a_node4"><a xlink:href="classpism_1_1Diag.html" target="_top" xlink:title="A template derived from Diagnostic, adding a &quot;Model&quot;.">
<polygon fill="none" stroke="black" points="74.5,-135.5 74.5,-154.5 196.5,-154.5 196.5,-135.5 74.5,-135.5"/>
<text text-anchor="middle" x="135.5" y="-142.5" font-family="Helvetica,sans-Serif" font-size="10.00">pism::Diag&lt; Model &gt;</text>
</a>
</g>
</g>
<!-- Node3&#45;&gt;Node4 -->
<g id="edge4" class="edge">
<title>Node3&#45;&gt;Node4</title>
<path fill="none" stroke="midnightblue" d="M78.75,-186.54C93,-176.35 111.61,-163.07 123.55,-154.53"/>
<polygon fill="midnightblue" stroke="midnightblue" points="76.63,-183.75 70.53,-192.41 80.7,-189.44 76.63,-183.75"/>
</g>
<!-- Node4&#45;&gt;Node2 -->
<g id="edge3" class="edge">
<title>Node4&#45;&gt;Node2</title>
<path fill="none" stroke="orange" stroke-dasharray="5,2" d="M117.93,-128.36C103.58,-115.58 83.83,-97.99 72.19,-87.63"/>
<polygon fill="orange" stroke="orange" points="115.86,-131.2 125.65,-135.23 120.51,-125.97 115.86,-131.2"/>
<text text-anchor="middle" x="130" y="-109" font-family="Helvetica,sans-Serif" font-size="10.00"> &lt; SIAFD &gt;</text>
</g>
</g>
</svg>
