<?xml version="1.0" encoding="UTF-8" standalone="no"?>
<!DOCTYPE svg PUBLIC "-//W3C//DTD SVG 1.1//EN"
 "http://www.w3.org/Graphics/SVG/1.1/DTD/svg11.dtd">
<!-- Generated by graphviz version 2.43.0 (0)
 -->
<!-- Title: pism::rheology::PatersonBuddWarm Pages: 1 -->
<svg width="169pt" height="151pt"
 viewBox="0.00 0.00 169.00 151.00" xmlns="http://www.w3.org/2000/svg" xmlns:xlink="http://www.w3.org/1999/xlink">
<g id="graph0" class="graph" transform="scale(1 1) rotate(0) translate(4 147)">
<title>pism::rheology::PatersonBuddWarm</title>
<!-- Node1 -->
<g id="node1" class="node">
<title>Node1</title>
<g id="a_node1"><a xlink:title="Warm case of Paterson&#45;Budd.">
<polygon fill="#bfbfbf" stroke="black" points="12,-0.5 12,-30.5 149,-30.5 149,-0.5 12,-0.5"/>
<text text-anchor="start" x="20" y="-18.5" font-family="Helvetica,sans-Serif" font-size="10.00">pism::rheology::Paterson</text>
<text text-anchor="middle" x="80.5" y="-7.5" font-family="Helvetica,sans-Serif" font-size="10.00">BuddWarm</text>
</a>
</g>
</g>
<!-- Node2 -->
<g id="node2" class="node">
<title>Node2</title>
<g id="a_node2"><a xlink:href="classpism_1_1rheology_1_1PatersonBudd.html" target="_top" xlink:title="Derived class of FlowLaw for Paterson&#45;Budd (1982)&#45;Glen ice.">
<polygon fill="none" stroke="black" points="0,-67.5 0,-86.5 161,-86.5 161,-67.5 0,-67.5"/>
<text text-anchor="middle" x="80.5" y="-74.5" font-family="Helvetica,sans-Serif" font-size="10.00">pism::rheology::PatersonBudd</text>
</a>
</g>
</g>
<!-- Node2&#45;&gt;Node1 -->
<g id="edge1" class="edge">
<title>Node2&#45;&gt;Node1</title>
<path fill="none" stroke="midnightblue" d="M80.5,-57.23C80.5,-48.59 80.5,-38.5 80.5,-30.52"/>
<polygon fill="midnightblue" stroke="midnightblue" points="77,-57.48 80.5,-67.48 84,-57.48 77,-57.48"/>
</g>
<!-- Node3 -->
<g id="node3" class="node">
<title>Node3</title>
<g id="a_node3"><a xlink:href="classpism_1_1rheology_1_1FlowLaw.html" target="_top" xlink:title=" ">
<polygon fill="none" stroke="black" points="12,-123.5 12,-142.5 149,-142.5 149,-123.5 12,-123.5"/>
<text text-anchor="middle" x="80.5" y="-130.5" font-family="Helvetica,sans-Serif" font-size="10.00">pism::rheology::FlowLaw</text>
</a>
</g>
</g>
<!-- Node3&#45;&gt;Node2 -->
<g id="edge2" class="edge">
<title>Node3&#45;&gt;Node2</title>
<path fill="none" stroke="midnightblue" d="M80.5,-112.8C80.5,-103.91 80.5,-93.78 80.5,-86.75"/>
<polygon fill="midnightblue" stroke="midnightblue" points="77,-113.08 80.5,-123.08 84,-113.08 77,-113.08"/>
</g>
</g>
</svg>
