<?xml version="1.0" encoding="UTF-8" standalone="no"?>
<!DOCTYPE svg PUBLIC "-//W3C//DTD SVG 1.1//EN"
 "http://www.w3.org/Graphics/SVG/1.1/DTD/svg11.dtd">
<!-- Generated by graphviz version 2.43.0 (0)
 -->
<!-- Title: pism::TSRateDiagnostic Pages: 1 -->
<svg width="951pt" height="762pt"
 viewBox="0.00 0.00 951.00 761.50" xmlns="http://www.w3.org/2000/svg" xmlns:xlink="http://www.w3.org/1999/xlink">
<g id="graph0" class="graph" transform="scale(1 1) rotate(0) translate(4 757.5)">
<title>pism::TSRateDiagnostic</title>
<!-- Node1 -->
<g id="node1" class="node">
<title>Node1</title>
<g id="a_node1"><a xlink:title="Scalar diagnostic reporting the rate of change of a quantity modeled by PISM.">
<polygon fill="#bfbfbf" stroke="black" points="146,-441.5 146,-460.5 279,-460.5 279,-441.5 146,-441.5"/>
<text text-anchor="middle" x="212.5" y="-448.5" font-family="Helvetica,sans-Serif" font-size="10.00">pism::TSRateDiagnostic</text>
</a>
</g>
</g>
<!-- Node3 -->
<g id="node3" class="node">
<title>Node3</title>
<g id="a_node3"><a xlink:href="classpism_1_1TSDiag.html" target="_top" xlink:title=" ">
<polygon fill="none" stroke="black" points="315,-613 315,-643 497,-643 497,-613 315,-613"/>
<text text-anchor="start" x="323" y="-631" font-family="Helvetica,sans-Serif" font-size="10.00">pism::TSDiag&lt; TSRateDiagnostic,</text>
<text text-anchor="middle" x="406" y="-620" font-family="Helvetica,sans-Serif" font-size="10.00"> IceModel &gt;</text>
</a>
</g>
</g>
<!-- Node1&#45;&gt;Node3 -->
<g id="edge2" class="edge">
<title>Node1&#45;&gt;Node3</title>
<path fill="none" stroke="midnightblue" d="M231.33,-467.48C268.35,-501.7 353.02,-579.96 388.69,-612.92"/>
<polygon fill="midnightblue" stroke="midnightblue" points="233.52,-464.73 223.8,-460.52 228.76,-469.87 233.52,-464.73"/>
</g>
<!-- Node8 -->
<g id="node8" class="node">
<title>Node8</title>
<g id="a_node8"><a xlink:href="classpism_1_1TSFluxDiagnostic.html" target="_top" xlink:title="Scalar diagnostic reporting a &quot;flux&quot;.">
<polygon fill="none" stroke="black" points="340.5,-386.5 340.5,-405.5 471.5,-405.5 471.5,-386.5 340.5,-386.5"/>
<text text-anchor="middle" x="406" y="-393.5" font-family="Helvetica,sans-Serif" font-size="10.00">pism::TSFluxDiagnostic</text>
</a>
</g>
</g>
<!-- Node1&#45;&gt;Node8 -->
<g id="edge7" class="edge">
<title>Node1&#45;&gt;Node8</title>
<path fill="none" stroke="midnightblue" d="M256.75,-438.58C291.58,-428.57 339.83,-414.72 371.7,-405.56"/>
<polygon fill="midnightblue" stroke="midnightblue" points="255.5,-435.3 246.86,-441.42 257.43,-442.02 255.5,-435.3"/>
</g>
<!-- Node2 -->
<g id="node2" class="node">
<title>Node2</title>
<g id="a_node2"><a xlink:href="classpism_1_1TSDiagnostic.html" target="_top" xlink:title="PISM&#39;s scalar time&#45;series diagnostics.">
<polygon fill="none" stroke="black" points="0,-441.5 0,-460.5 110,-460.5 110,-441.5 0,-441.5"/>
<text text-anchor="middle" x="55" y="-448.5" font-family="Helvetica,sans-Serif" font-size="10.00">pism::TSDiagnostic</text>
</a>
</g>
</g>
<!-- Node2&#45;&gt;Node1 -->
<g id="edge1" class="edge">
<title>Node2&#45;&gt;Node1</title>
<path fill="none" stroke="midnightblue" d="M120.5,-451C128.89,-451 137.5,-451 145.92,-451"/>
<polygon fill="midnightblue" stroke="midnightblue" points="120.39,-447.5 110.39,-451 120.39,-454.5 120.39,-447.5"/>
</g>
<!-- Node4 -->
<g id="node4" class="node">
<title>Node4</title>
<g id="a_node4"><a xlink:href="classpism_1_1diagnostics_1_1scalar_1_1IceMassRateOfChange.html" target="_top" xlink:title="Computes the rate of change of the total ice mass.">
<polygon fill="none" stroke="black" points="542,-723 542,-753 704,-753 704,-723 542,-723"/>
<text text-anchor="start" x="550" y="-741" font-family="Helvetica,sans-Serif" font-size="10.00">pism::diagnostics::</text>
<text text-anchor="middle" x="623" y="-730" font-family="Helvetica,sans-Serif" font-size="10.00">scalar::IceMassRateOfChange</text>
</a>
</g>
</g>
<!-- Node3&#45;&gt;Node4 -->
<g id="edge3" class="edge">
<title>Node3&#45;&gt;Node4</title>
<path fill="none" stroke="midnightblue" d="M433.57,-649.65C458.09,-668.68 496.16,-695.94 533,-713 541.16,-716.78 550,-720.1 558.85,-722.98"/>
<polygon fill="midnightblue" stroke="midnightblue" points="435.52,-646.72 425.49,-643.29 431.19,-652.22 435.52,-646.72"/>
</g>
<!-- Node5 -->
<g id="node5" class="node">
<title>Node5</title>
<g id="a_node5"><a xlink:href="classpism_1_1diagnostics_1_1scalar_1_1IceMassRateOfChangeGlacierized.html" target="_top" xlink:title="Computes the rate of change of the total ice mass in glacierized areas.">
<polygon fill="none" stroke="black" points="542,-662.5 542,-703.5 704,-703.5 704,-662.5 542,-662.5"/>
<text text-anchor="start" x="550" y="-691.5" font-family="Helvetica,sans-Serif" font-size="10.00">pism::diagnostics::</text>
<text text-anchor="start" x="550" y="-680.5" font-family="Helvetica,sans-Serif" font-size="10.00">scalar::IceMassRateOfChange</text>
<text text-anchor="middle" x="623" y="-669.5" font-family="Helvetica,sans-Serif" font-size="10.00">Glacierized</text>
</a>
</g>
</g>
<!-- Node3&#45;&gt;Node5 -->
<g id="edge4" class="edge">
<title>Node3&#45;&gt;Node5</title>
<path fill="none" stroke="midnightblue" d="M475.59,-645.55C496.71,-650.95 520.14,-656.94 541.96,-662.52"/>
<polygon fill="midnightblue" stroke="midnightblue" points="476.31,-642.12 465.75,-643.03 474.57,-648.9 476.31,-642.12"/>
</g>
<!-- Node6 -->
<g id="node6" class="node">
<title>Node6</title>
<g id="a_node6"><a xlink:href="classpism_1_1diagnostics_1_1scalar_1_1IceVolumeRateOfChange.html" target="_top" xlink:title="Computes the rate of change of the total ice volume.">
<polygon fill="none" stroke="black" points="536.5,-613 536.5,-643 709.5,-643 709.5,-613 536.5,-613"/>
<text text-anchor="start" x="544.5" y="-631" font-family="Helvetica,sans-Serif" font-size="10.00">pism::diagnostics::</text>
<text text-anchor="middle" x="623" y="-620" font-family="Helvetica,sans-Serif" font-size="10.00">scalar::IceVolumeRateOfChange</text>
</a>
</g>
</g>
<!-- Node3&#45;&gt;Node6 -->
<g id="edge5" class="edge">
<title>Node3&#45;&gt;Node6</title>
<path fill="none" stroke="midnightblue" d="M507.34,-628C517.07,-628 526.88,-628 536.45,-628"/>
<polygon fill="midnightblue" stroke="midnightblue" points="507.24,-624.5 497.24,-628 507.24,-631.5 507.24,-624.5"/>
</g>
<!-- Node7 -->
<g id="node7" class="node">
<title>Node7</title>
<g id="a_node7"><a xlink:href="classpism_1_1diagnostics_1_1scalar_1_1IceVolumeRateOfChangeGlacierized.html" target="_top" xlink:title="Computes the rate of change of the total ice volume in glacierized areas.">
<polygon fill="none" stroke="black" points="536.5,-552.5 536.5,-593.5 709.5,-593.5 709.5,-552.5 536.5,-552.5"/>
<text text-anchor="start" x="544.5" y="-581.5" font-family="Helvetica,sans-Serif" font-size="10.00">pism::diagnostics::</text>
<text text-anchor="start" x="544.5" y="-570.5" font-family="Helvetica,sans-Serif" font-size="10.00">scalar::IceVolumeRateOfChange</text>
<text text-anchor="middle" x="623" y="-559.5" font-family="Helvetica,sans-Serif" font-size="10.00">Glacierized</text>
</a>
</g>
</g>
<!-- Node3&#45;&gt;Node7 -->
<g id="edge6" class="edge">
<title>Node3&#45;&gt;Node7</title>
<path fill="none" stroke="midnightblue" d="M475.54,-610.47C496.54,-605.09 519.84,-599.13 541.56,-593.58"/>
<polygon fill="midnightblue" stroke="midnightblue" points="474.57,-607.1 465.75,-612.97 476.31,-613.88 474.57,-607.1"/>
</g>
<!-- Node9 -->
<g id="node9" class="node">
<title>Node9</title>
<g id="a_node9"><a xlink:href="classpism_1_1TSDiag.html" target="_top" xlink:title=" ">
<polygon fill="none" stroke="black" points="533,-503 533,-533 713,-533 713,-503 533,-503"/>
<text text-anchor="start" x="541" y="-521" font-family="Helvetica,sans-Serif" font-size="10.00">pism::TSDiag&lt; TSFluxDiagnostic,</text>
<text text-anchor="middle" x="623" y="-510" font-family="Helvetica,sans-Serif" font-size="10.00"> TemperatureIndex &gt;</text>
</a>
</g>
</g>
<!-- Node8&#45;&gt;Node9 -->
<g id="edge8" class="edge">
<title>Node8&#45;&gt;Node9</title>
<path fill="none" stroke="midnightblue" d="M432.72,-410.6C473.78,-433.89 553.74,-479.27 595.37,-502.89"/>
<polygon fill="midnightblue" stroke="midnightblue" points="434.3,-407.46 423.87,-405.57 430.84,-413.55 434.3,-407.46"/>
</g>
<!-- Node13 -->
<g id="node13" class="node">
<title>Node13</title>
<g id="a_node13"><a xlink:href="classpism_1_1TSDiag.html" target="_top" xlink:title=" ">
<polygon fill="none" stroke="black" points="533,-282 533,-312 713,-312 713,-282 533,-282"/>
<text text-anchor="start" x="541" y="-300" font-family="Helvetica,sans-Serif" font-size="10.00">pism::TSDiag&lt; TSFluxDiagnostic,</text>
<text text-anchor="middle" x="623" y="-289" font-family="Helvetica,sans-Serif" font-size="10.00"> IceModel &gt;</text>
</a>
</g>
</g>
<!-- Node8&#45;&gt;Node13 -->
<g id="edge12" class="edge">
<title>Node8&#45;&gt;Node13</title>
<path fill="none" stroke="midnightblue" d="M437.29,-382.05C477.47,-363.55 548.12,-331.02 589.42,-312"/>
<polygon fill="midnightblue" stroke="midnightblue" points="435.63,-378.97 428.01,-386.33 438.55,-385.32 435.63,-378.97"/>
</g>
<!-- Node23 -->
<g id="node23" class="node">
<title>Node23</title>
<g id="a_node23"><a xlink:href="classpism_1_1TSDiag.html" target="_top" xlink:title=" ">
<polygon fill="none" stroke="black" points="533,-126 533,-156 713,-156 713,-126 533,-126"/>
<text text-anchor="start" x="541" y="-144" font-family="Helvetica,sans-Serif" font-size="10.00">pism::TSDiag&lt; TSFluxDiagnostic,</text>
<text text-anchor="middle" x="623" y="-133" font-family="Helvetica,sans-Serif" font-size="10.00"> EnergyModel &gt;</text>
</a>
</g>
</g>
<!-- Node8&#45;&gt;Node23 -->
<g id="edge22" class="edge">
<title>Node8&#45;&gt;Node23</title>
<path fill="none" stroke="midnightblue" d="M421.79,-378.46C461.8,-331.01 571.67,-200.7 609.22,-156.16"/>
<polygon fill="midnightblue" stroke="midnightblue" points="418.94,-376.41 415.17,-386.32 424.29,-380.93 418.94,-376.41"/>
</g>
<!-- Node10 -->
<g id="node10" class="node">
<title>Node10</title>
<g id="a_node10"><a xlink:href="classpism_1_1surface_1_1diagnostics_1_1TotalSurfaceAccumulation.html" target="_top" xlink:title="Reports the total accumulation rate.">
<polygon fill="none" stroke="black" points="771.5,-601 771.5,-631 920.5,-631 920.5,-601 771.5,-601"/>
<text text-anchor="start" x="779.5" y="-619" font-family="Helvetica,sans-Serif" font-size="10.00">pism::surface::diagnostics</text>
<text text-anchor="middle" x="846" y="-608" font-family="Helvetica,sans-Serif" font-size="10.00">::TotalSurfaceAccumulation</text>
</a>
</g>
</g>
<!-- Node9&#45;&gt;Node10 -->
<g id="edge9" class="edge">
<title>Node9&#45;&gt;Node10</title>
<path fill="none" stroke="midnightblue" d="M704.01,-537.52C707.13,-539.2 710.14,-541.02 713,-543 735.22,-558.38 726.56,-576.94 749,-592 755.85,-596.6 763.5,-600.31 771.42,-603.32"/>
<polygon fill="midnightblue" stroke="midnightblue" points="705.51,-534.36 694.98,-533.16 702.46,-540.66 705.51,-534.36"/>
</g>
<!-- Node11 -->
<g id="node11" class="node">
<title>Node11</title>
<g id="a_node11"><a xlink:href="classpism_1_1surface_1_1diagnostics_1_1TotalSurfaceMelt.html" target="_top" xlink:title="Reports the total melt rate.">
<polygon fill="none" stroke="black" points="774,-552 774,-582 918,-582 918,-552 774,-552"/>
<text text-anchor="start" x="782" y="-570" font-family="Helvetica,sans-Serif" font-size="10.00">pism::surface::diagnostics</text>
<text text-anchor="middle" x="846" y="-559" font-family="Helvetica,sans-Serif" font-size="10.00">::TotalSurfaceMelt</text>
</a>
</g>
</g>
<!-- Node9&#45;&gt;Node11 -->
<g id="edge10" class="edge">
<title>Node9&#45;&gt;Node11</title>
<path fill="none" stroke="midnightblue" d="M701.84,-535.26C726.46,-540.72 753.47,-546.71 777.32,-551.99"/>
<polygon fill="midnightblue" stroke="midnightblue" points="702.33,-531.78 691.81,-533.03 700.81,-538.62 702.33,-531.78"/>
</g>
<!-- Node12 -->
<g id="node12" class="node">
<title>Node12</title>
<g id="a_node12"><a xlink:href="classpism_1_1surface_1_1diagnostics_1_1TotalSurfaceRunoff.html" target="_top" xlink:title="Reports the total top surface ice flux.">
<polygon fill="none" stroke="black" points="774,-503 774,-533 918,-533 918,-503 774,-503"/>
<text text-anchor="start" x="782" y="-521" font-family="Helvetica,sans-Serif" font-size="10.00">pism::surface::diagnostics</text>
<text text-anchor="middle" x="846" y="-510" font-family="Helvetica,sans-Serif" font-size="10.00">::TotalSurfaceRunoff</text>
</a>
</g>
</g>
<!-- Node9&#45;&gt;Node12 -->
<g id="edge11" class="edge">
<title>Node9&#45;&gt;Node12</title>
<path fill="none" stroke="midnightblue" d="M723.7,-518C740.58,-518 757.79,-518 773.75,-518"/>
<polygon fill="midnightblue" stroke="midnightblue" points="723.25,-514.5 713.25,-518 723.25,-521.5 723.25,-514.5"/>
</g>
<!-- Node14 -->
<g id="node14" class="node">
<title>Node14</title>
<g id="a_node14"><a xlink:href="classpism_1_1diagnostics_1_1scalar_1_1IceMassFluxAtGroundingLine.html" target="_top" xlink:title="Reports the total flux across the grounding line.">
<polygon fill="none" stroke="black" points="749,-454 749,-484 943,-484 943,-454 749,-454"/>
<text text-anchor="start" x="757" y="-472" font-family="Helvetica,sans-Serif" font-size="10.00">pism::diagnostics::</text>
<text text-anchor="middle" x="846" y="-461" font-family="Helvetica,sans-Serif" font-size="10.00">scalar::IceMassFluxAtGroundingLine</text>
</a>
</g>
</g>
<!-- Node13&#45;&gt;Node14 -->
<g id="edge13" class="edge">
<title>Node13&#45;&gt;Node14</title>
<path fill="none" stroke="midnightblue" d="M637.85,-321.08C658.03,-353.96 698.64,-412.4 749,-444 755.13,-447.84 761.83,-451.1 768.75,-453.86"/>
<polygon fill="midnightblue" stroke="midnightblue" points="640.63,-318.92 632.48,-312.15 634.63,-322.52 640.63,-318.92"/>
</g>
<!-- Node15 -->
<g id="node15" class="node">
<title>Node15</title>
<g id="a_node15"><a xlink:href="classpism_1_1diagnostics_1_1scalar_1_1IceMassFluxBasal.html" target="_top" xlink:title="Reports the total bottom surface ice flux.">
<polygon fill="none" stroke="black" points="776,-405 776,-435 916,-435 916,-405 776,-405"/>
<text text-anchor="start" x="784" y="-423" font-family="Helvetica,sans-Serif" font-size="10.00">pism::diagnostics::</text>
<text text-anchor="middle" x="846" y="-412" font-family="Helvetica,sans-Serif" font-size="10.00">scalar::IceMassFluxBasal</text>
</a>
</g>
</g>
<!-- Node13&#45;&gt;Node15 -->
<g id="edge14" class="edge">
<title>Node13&#45;&gt;Node15</title>
<path fill="none" stroke="midnightblue" d="M646.51,-319.41C670.12,-341.69 709.26,-375.32 749,-395 757.41,-399.17 766.59,-402.69 775.83,-405.66"/>
<polygon fill="midnightblue" stroke="midnightblue" points="648.76,-316.71 639.12,-312.32 643.91,-321.77 648.76,-316.71"/>
</g>
<!-- Node16 -->
<g id="node16" class="node">
<title>Node16</title>
<g id="a_node16"><a xlink:href="classpism_1_1diagnostics_1_1scalar_1_1IceMassFluxBasalFloating.html" target="_top" xlink:title="Reports the total sub&#45;shelf ice flux.">
<polygon fill="none" stroke="black" points="756.5,-356 756.5,-386 935.5,-386 935.5,-356 756.5,-356"/>
<text text-anchor="start" x="764.5" y="-374" font-family="Helvetica,sans-Serif" font-size="10.00">pism::diagnostics::</text>
<text text-anchor="middle" x="846" y="-363" font-family="Helvetica,sans-Serif" font-size="10.00">scalar::IceMassFluxBasalFloating</text>
</a>
</g>
</g>
<!-- Node13&#45;&gt;Node16 -->
<g id="edge15" class="edge">
<title>Node13&#45;&gt;Node16</title>
<path fill="none" stroke="midnightblue" d="M668.56,-315.96C692.22,-325.64 721.92,-337.2 749,-346 759.81,-349.51 771.43,-352.88 782.72,-355.93"/>
<polygon fill="midnightblue" stroke="midnightblue" points="669.73,-312.65 659.15,-312.08 667.06,-319.13 669.73,-312.65"/>
</g>
<!-- Node17 -->
<g id="node17" class="node">
<title>Node17</title>
<g id="a_node17"><a xlink:href="classpism_1_1diagnostics_1_1scalar_1_1IceMassFluxBasalGrounded.html" target="_top" xlink:title="Reports the total basal ice flux over the grounded region.">
<polygon fill="none" stroke="black" points="752.5,-307 752.5,-337 939.5,-337 939.5,-307 752.5,-307"/>
<text text-anchor="start" x="760.5" y="-325" font-family="Helvetica,sans-Serif" font-size="10.00">pism::diagnostics::</text>
<text text-anchor="middle" x="846" y="-314" font-family="Helvetica,sans-Serif" font-size="10.00">scalar::IceMassFluxBasalGrounded</text>
</a>
</g>
</g>
<!-- Node13&#45;&gt;Node17 -->
<g id="edge16" class="edge">
<title>Node13&#45;&gt;Node17</title>
<path fill="none" stroke="midnightblue" d="M723.23,-308.23C732.86,-309.31 742.61,-310.42 752.17,-311.5"/>
<polygon fill="midnightblue" stroke="midnightblue" points="723.58,-304.74 713.25,-307.1 722.8,-311.7 723.58,-304.74"/>
</g>
<!-- Node18 -->
<g id="node18" class="node">
<title>Node18</title>
<g id="a_node18"><a xlink:href="classpism_1_1diagnostics_1_1scalar_1_1IceMassFluxCalving.html" target="_top" xlink:title="Reports the total calving flux.">
<polygon fill="none" stroke="black" points="771.5,-258 771.5,-288 920.5,-288 920.5,-258 771.5,-258"/>
<text text-anchor="start" x="779.5" y="-276" font-family="Helvetica,sans-Serif" font-size="10.00">pism::diagnostics::</text>
<text text-anchor="middle" x="846" y="-265" font-family="Helvetica,sans-Serif" font-size="10.00">scalar::IceMassFluxCalving</text>
</a>
</g>
</g>
<!-- Node13&#45;&gt;Node18 -->
<g id="edge17" class="edge">
<title>Node13&#45;&gt;Node18</title>
<path fill="none" stroke="midnightblue" d="M723.26,-286.22C739.43,-284.46 755.92,-282.67 771.33,-281"/>
<polygon fill="midnightblue" stroke="midnightblue" points="722.82,-282.75 713.25,-287.31 723.57,-289.71 722.82,-282.75"/>
</g>
<!-- Node19 -->
<g id="node19" class="node">
<title>Node19</title>
<g id="a_node19"><a xlink:href="classpism_1_1diagnostics_1_1scalar_1_1IceMassFluxConservationError.html" target="_top" xlink:title="Reports the total numerical mass flux needed to preserve non&#45;negativity of ice thickness.">
<polygon fill="none" stroke="black" points="757.5,-197.5 757.5,-238.5 934.5,-238.5 934.5,-197.5 757.5,-197.5"/>
<text text-anchor="start" x="765.5" y="-226.5" font-family="Helvetica,sans-Serif" font-size="10.00">pism::diagnostics::</text>
<text text-anchor="start" x="765.5" y="-215.5" font-family="Helvetica,sans-Serif" font-size="10.00">scalar::IceMassFluxConservation</text>
<text text-anchor="middle" x="846" y="-204.5" font-family="Helvetica,sans-Serif" font-size="10.00">Error</text>
</a>
</g>
</g>
<!-- Node13&#45;&gt;Node19 -->
<g id="edge18" class="edge">
<title>Node13&#45;&gt;Node19</title>
<path fill="none" stroke="midnightblue" d="M669.77,-278.16C693.3,-268.71 722.52,-257.31 749,-248 758.06,-244.81 767.66,-241.61 777.14,-238.55"/>
<polygon fill="midnightblue" stroke="midnightblue" points="668.35,-274.96 660.39,-281.95 670.97,-281.45 668.35,-274.96"/>
</g>
<!-- Node20 -->
<g id="node20" class="node">
<title>Node20</title>
<g id="a_node20"><a xlink:href="classpism_1_1diagnostics_1_1scalar_1_1IceMassFluxDischarge.html" target="_top" xlink:title="Reports the total discharge flux.">
<polygon fill="none" stroke="black" points="765.5,-148 765.5,-178 926.5,-178 926.5,-148 765.5,-148"/>
<text text-anchor="start" x="773.5" y="-166" font-family="Helvetica,sans-Serif" font-size="10.00">pism::diagnostics::</text>
<text text-anchor="middle" x="846" y="-155" font-family="Helvetica,sans-Serif" font-size="10.00">scalar::IceMassFluxDischarge</text>
</a>
</g>
</g>
<!-- Node13&#45;&gt;Node20 -->
<g id="edge19" class="edge">
<title>Node13&#45;&gt;Node20</title>
<path fill="none" stroke="midnightblue" d="M643.8,-274.35C666.71,-249.54 706.73,-210.33 749,-188 756.31,-184.14 764.25,-180.85 772.34,-178.05"/>
<polygon fill="midnightblue" stroke="midnightblue" points="641.12,-272.1 636.98,-281.86 646.3,-276.81 641.12,-272.1"/>
</g>
<!-- Node21 -->
<g id="node21" class="node">
<title>Node21</title>
<g id="a_node21"><a xlink:href="classpism_1_1diagnostics_1_1scalar_1_1IceMassFluxSurface.html" target="_top" xlink:title="Reports the total top surface ice flux.">
<polygon fill="none" stroke="black" points="771.5,-99 771.5,-129 920.5,-129 920.5,-99 771.5,-99"/>
<text text-anchor="start" x="779.5" y="-117" font-family="Helvetica,sans-Serif" font-size="10.00">pism::diagnostics::</text>
<text text-anchor="middle" x="846" y="-106" font-family="Helvetica,sans-Serif" font-size="10.00">scalar::IceMassFluxSurface</text>
</a>
</g>
</g>
<!-- Node13&#45;&gt;Node21 -->
<g id="edge20" class="edge">
<title>Node13&#45;&gt;Node21</title>
<path fill="none" stroke="midnightblue" d="M636.46,-272.41C655.67,-237.06 695.93,-172.37 749,-138 755.78,-133.61 763.3,-130.02 771.07,-127.09"/>
<polygon fill="midnightblue" stroke="midnightblue" points="633.2,-271.08 631.61,-281.55 639.39,-274.36 633.2,-271.08"/>
</g>
<!-- Node22 -->
<g id="node22" class="node">
<title>Node22</title>
<g id="a_node22"><a xlink:href="classpism_1_1diagnostics_1_1scalar_1_1IceMassRateOfChangeDueToFlow.html" target="_top" xlink:title="Computes the rate of change of the total ice mass due to flow (influx due to prescribed constant&#45;in&#45;t...">
<polygon fill="none" stroke="black" points="765,-38.5 765,-79.5 927,-79.5 927,-38.5 765,-38.5"/>
<text text-anchor="start" x="773" y="-67.5" font-family="Helvetica,sans-Serif" font-size="10.00">pism::diagnostics::</text>
<text text-anchor="start" x="773" y="-56.5" font-family="Helvetica,sans-Serif" font-size="10.00">scalar::IceMassRateOfChange</text>
<text text-anchor="middle" x="846" y="-45.5" font-family="Helvetica,sans-Serif" font-size="10.00">DueToFlow</text>
</a>
</g>
</g>
<!-- Node13&#45;&gt;Node22 -->
<g id="edge21" class="edge">
<title>Node13&#45;&gt;Node22</title>
<path fill="none" stroke="midnightblue" d="M641.39,-273.57C660.2,-247.7 690.51,-204.49 713,-165 731.5,-132.52 720.79,-113.52 749,-89 753.74,-84.88 759.05,-81.32 764.67,-78.25"/>
<polygon fill="midnightblue" stroke="midnightblue" points="638.56,-271.51 635.48,-281.64 644.21,-275.64 638.56,-271.51"/>
</g>
<!-- Node24 -->
<g id="node24" class="node">
<title>Node24</title>
<g id="a_node24"><a xlink:href="classpism_1_1energy_1_1LiquifiedIceFlux.html" target="_top" xlink:title="Ice loss &quot;flux&quot; due to ice liquefaction.">
<polygon fill="none" stroke="black" points="765,-0.5 765,-19.5 927,-19.5 927,-0.5 765,-0.5"/>
<text text-anchor="middle" x="846" y="-7.5" font-family="Helvetica,sans-Serif" font-size="10.00">pism::energy::LiquifiedIceFlux</text>
</a>
</g>
</g>
<!-- Node23&#45;&gt;Node24 -->
<g id="edge23" class="edge">
<title>Node23&#45;&gt;Node24</title>
<path fill="none" stroke="midnightblue" d="M642.7,-118.07C665.13,-92.18 705.24,-50.84 749,-29 756.83,-25.09 765.39,-21.99 774.08,-19.52"/>
<polygon fill="midnightblue" stroke="midnightblue" points="639.86,-116 636.05,-125.89 645.19,-120.54 639.86,-116"/>
</g>
</g>
</svg>
