<?xml version="1.0" encoding="UTF-8" standalone="no"?>
<!DOCTYPE svg PUBLIC "-//W3C//DTD SVG 1.1//EN"
 "http://www.w3.org/Graphics/SVG/1.1/DTD/svg11.dtd">
<!-- Generated by graphviz version 2.43.0 (0)
 -->
<!-- Title: pism::diagnostics::scalar::IceAreaGlacierizedTemperateBase Pages: 1 -->
<svg width="344pt" height="253pt"
 viewBox="0.00 0.00 343.50 253.00" xmlns="http://www.w3.org/2000/svg" xmlns:xlink="http://www.w3.org/1999/xlink">
<g id="graph0" class="graph" transform="scale(1 1) rotate(0) translate(4 249)">
<title>pism::diagnostics::scalar::IceAreaGlacierizedTemperateBase</title>
<!-- Node1 -->
<g id="node1" class="node">
<title>Node1</title>
<g id="a_node1"><a xlink:title="Computes the total area of the temperate ice.">
<polygon fill="#bfbfbf" stroke="black" points="85,-0.5 85,-41.5 228,-41.5 228,-0.5 85,-0.5"/>
<text text-anchor="start" x="93" y="-29.5" font-family="Helvetica,sans-Serif" font-size="10.00">pism::diagnostics::</text>
<text text-anchor="start" x="93" y="-18.5" font-family="Helvetica,sans-Serif" font-size="10.00">scalar::IceAreaGlacierized</text>
<text text-anchor="middle" x="156.5" y="-7.5" font-family="Helvetica,sans-Serif" font-size="10.00">TemperateBase</text>
</a>
</g>
</g>
<!-- Node2 -->
<g id="node2" class="node">
<title>Node2</title>
<g id="a_node2"><a xlink:href="classpism_1_1TSDiag.html" target="_top" xlink:title=" ">
<polygon fill="none" stroke="black" points="82,-79.5 82,-109.5 231,-109.5 231,-79.5 82,-79.5"/>
<text text-anchor="start" x="90" y="-97.5" font-family="Helvetica,sans-Serif" font-size="10.00">pism::TSDiag&lt; TSSnapshot</text>
<text text-anchor="middle" x="156.5" y="-86.5" font-family="Helvetica,sans-Serif" font-size="10.00">Diagnostic, IceModel &gt;</text>
</a>
</g>
</g>
<!-- Node2&#45;&gt;Node1 -->
<g id="edge1" class="edge">
<title>Node2&#45;&gt;Node1</title>
<path fill="none" stroke="midnightblue" d="M156.5,-69.1C156.5,-60.1 156.5,-50.02 156.5,-41.51"/>
<polygon fill="midnightblue" stroke="midnightblue" points="153,-69.37 156.5,-79.37 160,-69.37 153,-69.37"/>
</g>
<!-- Node3 -->
<g id="node3" class="node">
<title>Node3</title>
<g id="a_node3"><a xlink:href="classpism_1_1TSSnapshotDiagnostic.html" target="_top" xlink:title="Scalar diagnostic reporting a snapshot of a quantity modeled by PISM.">
<polygon fill="none" stroke="black" points="0,-168.5 0,-187.5 155,-187.5 155,-168.5 0,-168.5"/>
<text text-anchor="middle" x="77.5" y="-175.5" font-family="Helvetica,sans-Serif" font-size="10.00">pism::TSSnapshotDiagnostic</text>
</a>
</g>
</g>
<!-- Node3&#45;&gt;Node2 -->
<g id="edge2" class="edge">
<title>Node3&#45;&gt;Node2</title>
<path fill="none" stroke="midnightblue" d="M93.22,-160.78C107.72,-145.83 129.03,-123.84 142.84,-109.6"/>
<polygon fill="midnightblue" stroke="midnightblue" points="90.4,-158.66 85.95,-168.28 95.43,-163.53 90.4,-158.66"/>
</g>
<!-- Node4 -->
<g id="node4" class="node">
<title>Node4</title>
<g id="a_node4"><a xlink:href="classpism_1_1TSDiagnostic.html" target="_top" xlink:title="PISM&#39;s scalar time&#45;series diagnostics.">
<polygon fill="none" stroke="black" points="22.5,-225.5 22.5,-244.5 132.5,-244.5 132.5,-225.5 22.5,-225.5"/>
<text text-anchor="middle" x="77.5" y="-232.5" font-family="Helvetica,sans-Serif" font-size="10.00">pism::TSDiagnostic</text>
</a>
</g>
</g>
<!-- Node4&#45;&gt;Node3 -->
<g id="edge3" class="edge">
<title>Node4&#45;&gt;Node3</title>
<path fill="none" stroke="midnightblue" d="M77.5,-215.12C77.5,-205.82 77.5,-195.06 77.5,-187.71"/>
<polygon fill="midnightblue" stroke="midnightblue" points="74,-215.41 77.5,-225.41 81,-215.41 74,-215.41"/>
</g>
<!-- Node5 -->
<g id="node5" class="node">
<title>Node5</title>
<g id="a_node5"><a xlink:href="classpism_1_1TSDiag.html" target="_top" xlink:title=" ">
<polygon fill="none" stroke="black" points="173.5,-168.5 173.5,-187.5 299.5,-187.5 299.5,-168.5 173.5,-168.5"/>
<text text-anchor="middle" x="236.5" y="-175.5" font-family="Helvetica,sans-Serif" font-size="10.00">pism::TSDiag&lt; D, M &gt;</text>
</a>
</g>
</g>
<!-- Node5&#45;&gt;Node2 -->
<g id="edge4" class="edge">
<title>Node5&#45;&gt;Node2</title>
<path fill="none" stroke="orange" stroke-dasharray="5,2" d="M220.58,-160.78C205.9,-145.83 184.32,-123.84 170.34,-109.6"/>
<polygon fill="orange" stroke="orange" points="218.44,-163.59 227.94,-168.28 223.43,-158.69 218.44,-163.59"/>
<text text-anchor="start" x="208.5" y="-142" font-family="Helvetica,sans-Serif" font-size="10.00"> &lt; TSSnapshotDiagnostic,</text>
<text text-anchor="middle" x="272" y="-131" font-family="Helvetica,sans-Serif" font-size="10.00"> IceModel &gt;</text>
</g>
<!-- Node6 -->
<g id="node6" class="node">
<title>Node6</title>
<g id="a_node6"><a xlink:href="classD.html" target="_top" xlink:title=" ">
<polygon fill="none" stroke="black" points="222,-225.5 222,-244.5 251,-244.5 251,-225.5 222,-225.5"/>
<text text-anchor="middle" x="236.5" y="-232.5" font-family="Helvetica,sans-Serif" font-size="10.00">D</text>
</a>
</g>
</g>
<!-- Node6&#45;&gt;Node5 -->
<g id="edge5" class="edge">
<title>Node6&#45;&gt;Node5</title>
<path fill="none" stroke="midnightblue" d="M236.5,-215.12C236.5,-205.82 236.5,-195.06 236.5,-187.71"/>
<polygon fill="midnightblue" stroke="midnightblue" points="233,-215.41 236.5,-225.41 240,-215.41 233,-215.41"/>
</g>
</g>
</svg>
