<?xml version="1.0" encoding="UTF-8" standalone="no"?>
<!DOCTYPE svg PUBLIC "-//W3C//DTD SVG 1.1//EN"
 "http://www.w3.org/Graphics/SVG/1.1/DTD/svg11.dtd">
<!-- Generated by graphviz version 2.43.0 (0)
 -->
<!-- Title: pism::atmosphere::PIK Pages: 1 -->
<svg width="178pt" height="218pt"
 viewBox="0.00 0.00 178.00 218.00" xmlns="http://www.w3.org/2000/svg" xmlns:xlink="http://www.w3.org/1999/xlink">
<g id="graph0" class="graph" transform="scale(1 1) rotate(0) translate(4 214)">
<title>pism::atmosphere::PIK</title>
<!-- Node1 -->
<g id="node1" class="node">
<title>Node1</title>
<g id="a_node1"><a xlink:title=" ">
<polygon fill="#bfbfbf" stroke="black" points="21.5,-0.5 21.5,-19.5 148.5,-19.5 148.5,-0.5 21.5,-0.5"/>
<text text-anchor="middle" x="85" y="-7.5" font-family="Helvetica,sans-Serif" font-size="10.00">pism::atmosphere::PIK</text>
</a>
</g>
</g>
<!-- Node2 -->
<g id="node2" class="node">
<title>Node2</title>
<g id="a_node2"><a xlink:href="classpism_1_1atmosphere_1_1YearlyCycle.html" target="_top" xlink:title=" ">
<polygon fill="none" stroke="black" points="15,-56.5 15,-86.5 155,-86.5 155,-56.5 15,-56.5"/>
<text text-anchor="start" x="23" y="-74.5" font-family="Helvetica,sans-Serif" font-size="10.00">pism::atmosphere::Yearly</text>
<text text-anchor="middle" x="85" y="-63.5" font-family="Helvetica,sans-Serif" font-size="10.00">Cycle</text>
</a>
</g>
</g>
<!-- Node2&#45;&gt;Node1 -->
<g id="edge1" class="edge">
<title>Node2&#45;&gt;Node1</title>
<path fill="none" stroke="midnightblue" d="M85,-46.29C85,-36.86 85,-26.65 85,-19.66"/>
<polygon fill="midnightblue" stroke="midnightblue" points="81.5,-46.4 85,-56.4 88.5,-46.4 81.5,-46.4"/>
</g>
<!-- Node3 -->
<g id="node3" class="node">
<title>Node3</title>
<g id="a_node3"><a xlink:href="classpism_1_1atmosphere_1_1AtmosphereModel.html" target="_top" xlink:title="A purely virtual class defining the interface of a PISM Atmosphere Model.">
<polygon fill="none" stroke="black" points="0,-123.5 0,-153.5 170,-153.5 170,-123.5 0,-123.5"/>
<text text-anchor="start" x="8" y="-141.5" font-family="Helvetica,sans-Serif" font-size="10.00">pism::atmosphere::Atmosphere</text>
<text text-anchor="middle" x="85" y="-130.5" font-family="Helvetica,sans-Serif" font-size="10.00">Model</text>
</a>
</g>
</g>
<!-- Node3&#45;&gt;Node2 -->
<g id="edge2" class="edge">
<title>Node3&#45;&gt;Node2</title>
<path fill="none" stroke="midnightblue" d="M85,-113.11C85,-104.15 85,-94.32 85,-86.58"/>
<polygon fill="midnightblue" stroke="midnightblue" points="81.5,-113.4 85,-123.4 88.5,-113.4 81.5,-113.4"/>
</g>
<!-- Node4 -->
<g id="node4" class="node">
<title>Node4</title>
<g id="a_node4"><a xlink:href="classpism_1_1Component.html" target="_top" xlink:title="A class defining a common interface for most PISM sub&#45;models.">
<polygon fill="none" stroke="black" points="33.5,-190.5 33.5,-209.5 136.5,-209.5 136.5,-190.5 33.5,-190.5"/>
<text text-anchor="middle" x="85" y="-197.5" font-family="Helvetica,sans-Serif" font-size="10.00">pism::Component</text>
</a>
</g>
</g>
<!-- Node4&#45;&gt;Node3 -->
<g id="edge3" class="edge">
<title>Node4&#45;&gt;Node3</title>
<path fill="none" stroke="midnightblue" d="M85,-180.23C85,-171.59 85,-161.5 85,-153.52"/>
<polygon fill="midnightblue" stroke="midnightblue" points="81.5,-180.48 85,-190.48 88.5,-180.48 81.5,-180.48"/>
</g>
</g>
</svg>
