<?xml version="1.0" encoding="UTF-8" standalone="no"?>
<!DOCTYPE svg PUBLIC "-//W3C//DTD SVG 1.1//EN"
 "http://www.w3.org/Graphics/SVG/1.1/DTD/svg11.dtd">
<!-- Generated by graphviz version 2.43.0 (0)
 -->
<!-- Title: pism::surface::diagnostics::SurfaceRunoff Pages: 1 -->
<svg width="307pt" height="355pt"
 viewBox="0.00 0.00 306.50 355.00" xmlns="http://www.w3.org/2000/svg" xmlns:xlink="http://www.w3.org/1999/xlink">
<g id="graph0" class="graph" transform="scale(1 1) rotate(0) translate(4 351)">
<title>pism::surface::diagnostics::SurfaceRunoff</title>
<!-- Node1 -->
<g id="node1" class="node">
<title>Node1</title>
<g id="a_node1"><a xlink:title="Report surface runoff, averaged over the reporting interval.">
<polygon fill="#bfbfbf" stroke="black" points="42,-0.5 42,-30.5 186,-30.5 186,-0.5 42,-0.5"/>
<text text-anchor="start" x="50" y="-18.5" font-family="Helvetica,sans-Serif" font-size="10.00">pism::surface::diagnostics</text>
<text text-anchor="middle" x="114" y="-7.5" font-family="Helvetica,sans-Serif" font-size="10.00">::SurfaceRunoff</text>
</a>
</g>
</g>
<!-- Node2 -->
<g id="node2" class="node">
<title>Node2</title>
<g id="a_node2"><a xlink:href="classpism_1_1DiagAverageRate.html" target="_top" xlink:title=" ">
<polygon fill="none" stroke="black" points="48.5,-68.5 48.5,-98.5 179.5,-98.5 179.5,-68.5 48.5,-68.5"/>
<text text-anchor="start" x="56.5" y="-86.5" font-family="Helvetica,sans-Serif" font-size="10.00">pism::DiagAverageRate</text>
<text text-anchor="middle" x="114" y="-75.5" font-family="Helvetica,sans-Serif" font-size="10.00">&lt; SurfaceModel &gt;</text>
</a>
</g>
</g>
<!-- Node2&#45;&gt;Node1 -->
<g id="edge1" class="edge">
<title>Node2&#45;&gt;Node1</title>
<path fill="none" stroke="midnightblue" d="M114,-58.03C114,-48.86 114,-38.74 114,-30.79"/>
<polygon fill="midnightblue" stroke="midnightblue" points="110.5,-58.18 114,-68.18 117.5,-58.18 110.5,-58.18"/>
</g>
<!-- Node3 -->
<g id="node3" class="node">
<title>Node3</title>
<g id="a_node3"><a xlink:href="classpism_1_1Diag.html" target="_top" xlink:title=" ">
<polygon fill="none" stroke="black" points="0,-203.5 0,-222.5 158,-222.5 158,-203.5 0,-203.5"/>
<text text-anchor="middle" x="79" y="-210.5" font-family="Helvetica,sans-Serif" font-size="10.00">pism::Diag&lt; SurfaceModel &gt;</text>
</a>
</g>
</g>
<!-- Node3&#45;&gt;Node2 -->
<g id="edge2" class="edge">
<title>Node3&#45;&gt;Node2</title>
<path fill="none" stroke="midnightblue" d="M84.05,-193.59C91.11,-167.87 103.77,-121.75 110.13,-98.59"/>
<polygon fill="midnightblue" stroke="midnightblue" points="80.68,-192.67 81.41,-203.24 87.43,-194.52 80.68,-192.67"/>
</g>
<!-- Node4 -->
<g id="node4" class="node">
<title>Node4</title>
<g id="a_node4"><a xlink:href="classpism_1_1Diagnostic.html" target="_top" xlink:title="Class representing diagnostic computations in PISM.">
<polygon fill="none" stroke="black" points="112,-327.5 112,-346.5 210,-346.5 210,-327.5 112,-327.5"/>
<text text-anchor="middle" x="161" y="-334.5" font-family="Helvetica,sans-Serif" font-size="10.00">pism::Diagnostic</text>
</a>
</g>
</g>
<!-- Node4&#45;&gt;Node3 -->
<g id="edge3" class="edge">
<title>Node4&#45;&gt;Node3</title>
<path fill="none" stroke="midnightblue" d="M131.27,-322.8C117.14,-315.12 101.17,-304.14 91,-290 76.34,-269.61 76.74,-238.18 77.99,-222.92"/>
<polygon fill="midnightblue" stroke="midnightblue" points="129.7,-325.93 140.2,-327.37 132.89,-319.7 129.7,-325.93"/>
</g>
<!-- Node5 -->
<g id="node5" class="node">
<title>Node5</title>
<g id="a_node5"><a xlink:href="classpism_1_1Diag.html" target="_top" xlink:title="A template derived from Diagnostic, adding a &quot;Model&quot;.">
<polygon fill="none" stroke="black" points="100,-270.5 100,-289.5 222,-289.5 222,-270.5 100,-270.5"/>
<text text-anchor="middle" x="161" y="-277.5" font-family="Helvetica,sans-Serif" font-size="10.00">pism::Diag&lt; Model &gt;</text>
</a>
</g>
</g>
<!-- Node4&#45;&gt;Node5 -->
<g id="edge5" class="edge">
<title>Node4&#45;&gt;Node5</title>
<path fill="none" stroke="midnightblue" d="M161,-317.12C161,-307.82 161,-297.06 161,-289.71"/>
<polygon fill="midnightblue" stroke="midnightblue" points="157.5,-317.41 161,-327.41 164.5,-317.41 157.5,-317.41"/>
</g>
<!-- Node7 -->
<g id="node7" class="node">
<title>Node7</title>
<g id="a_node7"><a xlink:href="classpism_1_1Diag.html" target="_top" xlink:title=" ">
<polygon fill="none" stroke="black" points="176.5,-203.5 176.5,-222.5 277.5,-222.5 277.5,-203.5 176.5,-203.5"/>
<text text-anchor="middle" x="227" y="-210.5" font-family="Helvetica,sans-Serif" font-size="10.00">pism::Diag&lt; M &gt;</text>
</a>
</g>
</g>
<!-- Node4&#45;&gt;Node7 -->
<g id="edge8" class="edge">
<title>Node4&#45;&gt;Node7</title>
<path fill="none" stroke="midnightblue" d="M191.33,-322.85C205.45,-315.23 221.26,-304.29 231,-290 243.43,-271.77 243.58,-262.59 239,-241 237.64,-234.58 234.64,-227.83 231.98,-222.68"/>
<polygon fill="midnightblue" stroke="midnightblue" points="189.71,-319.75 182.37,-327.38 192.87,-325.99 189.71,-319.75"/>
</g>
<!-- Node5&#45;&gt;Node3 -->
<g id="edge4" class="edge">
<title>Node5&#45;&gt;Node3</title>
<path fill="none" stroke="orange" stroke-dasharray="5,2" d="M113.14,-266.61C105.33,-262.91 97.88,-258.14 92,-252 84.28,-243.94 81.14,-231.11 79.86,-222.62"/>
<polygon fill="orange" stroke="orange" points="111.83,-269.86 122.41,-270.48 114.53,-263.4 111.83,-269.86"/>
<text text-anchor="middle" x="138.5" y="-244" font-family="Helvetica,sans-Serif" font-size="10.00"> &lt; SurfaceModel &gt;</text>
</g>
<!-- Node5&#45;&gt;Node7 -->
<g id="edge9" class="edge">
<title>Node5&#45;&gt;Node7</title>
<path fill="none" stroke="orange" stroke-dasharray="5,2" d="M177.63,-263.06C181.38,-259.44 185.34,-255.6 189,-252 199.12,-242.06 210.62,-230.53 218.29,-222.8"/>
<polygon fill="orange" stroke="orange" points="175.15,-260.59 170.37,-270.04 180.01,-265.63 175.15,-260.59"/>
<text text-anchor="middle" x="217.5" y="-244" font-family="Helvetica,sans-Serif" font-size="10.00"> &lt; M &gt;</text>
</g>
<!-- Node6 -->
<g id="node6" class="node">
<title>Node6</title>
<g id="a_node6"><a xlink:href="classpism_1_1DiagAverageRate.html" target="_top" xlink:title=" ">
<polygon fill="none" stroke="black" points="135.5,-146.5 135.5,-165.5 298.5,-165.5 298.5,-146.5 135.5,-146.5"/>
<text text-anchor="middle" x="217" y="-153.5" font-family="Helvetica,sans-Serif" font-size="10.00">pism::DiagAverageRate&lt; M &gt;</text>
</a>
</g>
</g>
<!-- Node6&#45;&gt;Node2 -->
<g id="edge6" class="edge">
<title>Node6&#45;&gt;Node2</title>
<path fill="none" stroke="orange" stroke-dasharray="5,2" d="M195.76,-140.47C177.83,-128.19 152.31,-110.72 134.57,-98.58"/>
<polygon fill="orange" stroke="orange" points="194.14,-143.6 204.37,-146.36 198.09,-137.82 194.14,-143.6"/>
<text text-anchor="middle" x="221.5" y="-120" font-family="Helvetica,sans-Serif" font-size="10.00"> &lt; SurfaceModel &gt;</text>
</g>
<!-- Node7&#45;&gt;Node6 -->
<g id="edge7" class="edge">
<title>Node7&#45;&gt;Node6</title>
<path fill="none" stroke="midnightblue" d="M223.62,-193.42C221.92,-184.05 219.93,-173.14 218.58,-165.71"/>
<polygon fill="midnightblue" stroke="midnightblue" points="220.21,-194.19 225.44,-203.41 227.09,-192.94 220.21,-194.19"/>
</g>
</g>
</svg>
