<?xml version="1.0" encoding="UTF-8" standalone="no"?>
<!DOCTYPE svg PUBLIC "-//W3C//DTD SVG 1.1//EN"
 "http://www.w3.org/Graphics/SVG/1.1/DTD/svg11.dtd">
<!-- Generated by graphviz version 2.43.0 (0)
 -->
<!-- Title: pism::diagnostics::IceAreaFractionGrounded Pages: 1 -->
<svg width="212pt" height="220pt"
 viewBox="0.00 0.00 212.00 220.00" xmlns="http://www.w3.org/2000/svg" xmlns:xlink="http://www.w3.org/1999/xlink">
<g id="graph0" class="graph" transform="scale(1 1) rotate(0) translate(4 216)">
<title>pism::diagnostics::IceAreaFractionGrounded</title>
<!-- Node1 -->
<g id="node1" class="node">
<title>Node1</title>
<g id="a_node1"><a xlink:title=" ">
<polygon fill="#bfbfbf" stroke="black" points="0,-0.5 0,-30.5 140,-30.5 140,-0.5 0,-0.5"/>
<text text-anchor="start" x="8" y="-18.5" font-family="Helvetica,sans-Serif" font-size="10.00">pism::diagnostics::</text>
<text text-anchor="middle" x="70" y="-7.5" font-family="Helvetica,sans-Serif" font-size="10.00">IceAreaFractionGrounded</text>
</a>
</g>
</g>
<!-- Node2 -->
<g id="node2" class="node">
<title>Node2</title>
<g id="a_node2"><a xlink:href="classpism_1_1Diag.html" target="_top" xlink:title=" ">
<polygon fill="none" stroke="black" points="2,-68.5 2,-87.5 138,-87.5 138,-68.5 2,-68.5"/>
<text text-anchor="middle" x="70" y="-75.5" font-family="Helvetica,sans-Serif" font-size="10.00">pism::Diag&lt; IceModel &gt;</text>
</a>
</g>
</g>
<!-- Node2&#45;&gt;Node1 -->
<g id="edge1" class="edge">
<title>Node2&#45;&gt;Node1</title>
<path fill="none" stroke="midnightblue" d="M70,-58.22C70,-49.36 70,-38.96 70,-30.76"/>
<polygon fill="midnightblue" stroke="midnightblue" points="66.5,-58.33 70,-68.33 73.5,-58.33 66.5,-58.33"/>
</g>
<!-- Node3 -->
<g id="node3" class="node">
<title>Node3</title>
<g id="a_node3"><a xlink:href="classpism_1_1Diagnostic.html" target="_top" xlink:title="Class representing diagnostic computations in PISM.">
<polygon fill="none" stroke="black" points="17,-192.5 17,-211.5 115,-211.5 115,-192.5 17,-192.5"/>
<text text-anchor="middle" x="66" y="-199.5" font-family="Helvetica,sans-Serif" font-size="10.00">pism::Diagnostic</text>
</a>
</g>
</g>
<!-- Node3&#45;&gt;Node2 -->
<g id="edge2" class="edge">
<title>Node3&#45;&gt;Node2</title>
<path fill="none" stroke="midnightblue" d="M66.62,-182.19C67.5,-155.4 69.07,-107.31 69.71,-87.69"/>
<polygon fill="midnightblue" stroke="midnightblue" points="63.12,-182.12 66.29,-192.23 70.11,-182.35 63.12,-182.12"/>
</g>
<!-- Node4 -->
<g id="node4" class="node">
<title>Node4</title>
<g id="a_node4"><a xlink:href="classpism_1_1Diag.html" target="_top" xlink:title="A template derived from Diagnostic, adding a &quot;Model&quot;.">
<polygon fill="none" stroke="black" points="82,-135.5 82,-154.5 204,-154.5 204,-135.5 82,-135.5"/>
<text text-anchor="middle" x="143" y="-142.5" font-family="Helvetica,sans-Serif" font-size="10.00">pism::Diag&lt; Model &gt;</text>
</a>
</g>
</g>
<!-- Node3&#45;&gt;Node4 -->
<g id="edge4" class="edge">
<title>Node3&#45;&gt;Node4</title>
<path fill="none" stroke="midnightblue" d="M86.25,-186.54C100.5,-176.35 119.11,-163.07 131.05,-154.53"/>
<polygon fill="midnightblue" stroke="midnightblue" points="84.13,-183.75 78.03,-192.41 88.2,-189.44 84.13,-183.75"/>
</g>
<!-- Node4&#45;&gt;Node2 -->
<g id="edge3" class="edge">
<title>Node4&#45;&gt;Node2</title>
<path fill="none" stroke="orange" stroke-dasharray="5,2" d="M125.43,-128.36C111.08,-115.58 91.33,-97.99 79.69,-87.63"/>
<polygon fill="orange" stroke="orange" points="123.36,-131.2 133.15,-135.23 128.01,-125.97 123.36,-131.2"/>
<text text-anchor="middle" x="145" y="-109" font-family="Helvetica,sans-Serif" font-size="10.00"> &lt; IceModel &gt;</text>
</g>
</g>
</svg>
