<?xml version="1.0" encoding="UTF-8" standalone="no"?>
<!DOCTYPE svg PUBLIC "-//W3C//DTD SVG 1.1//EN"
 "http://www.w3.org/Graphics/SVG/1.1/DTD/svg11.dtd">
<!-- Generated by graphviz version 2.43.0 (0)
 -->
<!-- Title: pism::io::NCFile Pages: 1 -->
<svg width="482pt" height="140pt"
 viewBox="0.00 0.00 482.00 140.00" xmlns="http://www.w3.org/2000/svg" xmlns:xlink="http://www.w3.org/1999/xlink">
<g id="graph0" class="graph" transform="scale(1 1) rotate(0) translate(4 136)">
<title>pism::io::NCFile</title>
<!-- Node1 -->
<g id="node1" class="node">
<title>Node1</title>
<g id="a_node1"><a xlink:title="The PISM wrapper for a subset of the NetCDF C API.">
<polygon fill="#bfbfbf" stroke="black" points="190.5,-112.5 190.5,-131.5 283.5,-131.5 283.5,-112.5 190.5,-112.5"/>
<text text-anchor="middle" x="237" y="-119.5" font-family="Helvetica,sans-Serif" font-size="10.00">pism::io::NCFile</text>
</a>
</g>
</g>
<!-- Node2 -->
<g id="node2" class="node">
<title>Node2</title>
<g id="a_node2"><a xlink:href="classpism_1_1io_1_1NC4File.html" target="_top" xlink:title=" ">
<polygon fill="none" stroke="black" points="3.5,-56.5 3.5,-75.5 102.5,-75.5 102.5,-56.5 3.5,-56.5"/>
<text text-anchor="middle" x="53" y="-63.5" font-family="Helvetica,sans-Serif" font-size="10.00">pism::io::NC4File</text>
</a>
</g>
</g>
<!-- Node1&#45;&gt;Node2 -->
<g id="edge1" class="edge">
<title>Node1&#45;&gt;Node2</title>
<path fill="none" stroke="midnightblue" d="M198.05,-109.57C163.34,-99.38 113.32,-84.7 82.02,-75.52"/>
<polygon fill="midnightblue" stroke="midnightblue" points="197.26,-112.99 207.84,-112.44 199.23,-106.27 197.26,-112.99"/>
</g>
<!-- Node4 -->
<g id="node4" class="node">
<title>Node4</title>
<g id="a_node4"><a xlink:href="classpism_1_1io_1_1NC__Serial.html" target="_top" xlink:title=" ">
<polygon fill="none" stroke="black" points="121.5,-56.5 121.5,-75.5 230.5,-75.5 230.5,-56.5 121.5,-56.5"/>
<text text-anchor="middle" x="176" y="-63.5" font-family="Helvetica,sans-Serif" font-size="10.00">pism::io::NC_Serial</text>
</a>
</g>
</g>
<!-- Node1&#45;&gt;Node4 -->
<g id="edge3" class="edge">
<title>Node1&#45;&gt;Node4</title>
<path fill="none" stroke="midnightblue" d="M219.53,-105.54C208.66,-95.91 195.06,-83.87 185.98,-75.83"/>
<polygon fill="midnightblue" stroke="midnightblue" points="217.39,-108.32 227.2,-112.32 222.03,-103.07 217.39,-108.32"/>
</g>
<!-- Node6 -->
<g id="node6" class="node">
<title>Node6</title>
<g id="a_node6"><a xlink:href="classpism_1_1io_1_1PNCFile.html" target="_top" xlink:title="PISM&#39;s PnetCDF I/O wrapper.">
<polygon fill="none" stroke="black" points="248.5,-56.5 248.5,-75.5 347.5,-75.5 347.5,-56.5 248.5,-56.5"/>
<text text-anchor="middle" x="298" y="-63.5" font-family="Helvetica,sans-Serif" font-size="10.00">pism::io::PNCFile</text>
</a>
</g>
</g>
<!-- Node1&#45;&gt;Node6 -->
<g id="edge5" class="edge">
<title>Node1&#45;&gt;Node6</title>
<path fill="none" stroke="midnightblue" d="M254.47,-105.54C265.34,-95.91 278.94,-83.87 288.02,-75.83"/>
<polygon fill="midnightblue" stroke="midnightblue" points="251.97,-103.07 246.8,-112.32 256.61,-108.32 251.97,-103.07"/>
</g>
<!-- Node7 -->
<g id="node7" class="node">
<title>Node7</title>
<g id="a_node7"><a xlink:href="classpism_1_1io_1_1ParallelIO.html" target="_top" xlink:title=" ">
<polygon fill="none" stroke="black" points="366,-56.5 366,-75.5 474,-75.5 474,-56.5 366,-56.5"/>
<text text-anchor="middle" x="420" y="-63.5" font-family="Helvetica,sans-Serif" font-size="10.00">pism::io::ParallelIO</text>
</a>
</g>
</g>
<!-- Node1&#45;&gt;Node7 -->
<g id="edge6" class="edge">
<title>Node1&#45;&gt;Node7</title>
<path fill="none" stroke="midnightblue" d="M275.74,-109.57C310.26,-99.38 360.01,-84.7 391.14,-75.52"/>
<polygon fill="midnightblue" stroke="midnightblue" points="274.6,-106.26 266,-112.44 276.58,-112.97 274.6,-106.26"/>
</g>
<!-- Node3 -->
<g id="node3" class="node">
<title>Node3</title>
<g id="a_node3"><a xlink:href="classpism_1_1io_1_1NC4__Par.html" target="_top" xlink:title=" ">
<polygon fill="none" stroke="black" points="0,-0.5 0,-19.5 102,-19.5 102,-0.5 0,-0.5"/>
<text text-anchor="middle" x="51" y="-7.5" font-family="Helvetica,sans-Serif" font-size="10.00">pism::io::NC4_Par</text>
</a>
</g>
</g>
<!-- Node2&#45;&gt;Node3 -->
<g id="edge2" class="edge">
<title>Node2&#45;&gt;Node3</title>
<path fill="none" stroke="midnightblue" d="M52.29,-45.8C51.96,-36.91 51.58,-26.78 51.32,-19.75"/>
<polygon fill="midnightblue" stroke="midnightblue" points="48.8,-46.22 52.67,-56.08 55.8,-45.96 48.8,-46.22"/>
</g>
<!-- Node5 -->
<g id="node5" class="node">
<title>Node5</title>
<g id="a_node5"><a xlink:href="classpism_1_1io_1_1NC4__Serial.html" target="_top" xlink:title=" ">
<polygon fill="none" stroke="black" points="120.5,-0.5 120.5,-19.5 235.5,-19.5 235.5,-0.5 120.5,-0.5"/>
<text text-anchor="middle" x="178" y="-7.5" font-family="Helvetica,sans-Serif" font-size="10.00">pism::io::NC4_Serial</text>
</a>
</g>
</g>
<!-- Node4&#45;&gt;Node5 -->
<g id="edge4" class="edge">
<title>Node4&#45;&gt;Node5</title>
<path fill="none" stroke="midnightblue" d="M176.71,-45.8C177.04,-36.91 177.42,-26.78 177.68,-19.75"/>
<polygon fill="midnightblue" stroke="midnightblue" points="173.2,-45.96 176.33,-56.08 180.2,-46.22 173.2,-45.96"/>
</g>
</g>
</svg>
