<?xml version="1.0" encoding="UTF-8" standalone="no"?>
<!DOCTYPE svg PUBLIC "-//W3C//DTD SVG 1.1//EN"
 "http://www.w3.org/Graphics/SVG/1.1/DTD/svg11.dtd">
<!-- Generated by graphviz version 2.43.0 (0)
 -->
<!-- Title: pism::inverse::IPTotalVariationFunctional2S Pages: 1 -->
<svg width="190pt" height="185pt"
 viewBox="0.00 0.00 190.00 185.00" xmlns="http://www.w3.org/2000/svg" xmlns:xlink="http://www.w3.org/1999/xlink">
<g id="graph0" class="graph" transform="scale(1 1) rotate(0) translate(4 181)">
<title>pism::inverse::IPTotalVariationFunctional2S</title>
<!-- Node1 -->
<g id="node1" class="node">
<title>Node1</title>
<g id="a_node1"><a xlink:title="Pseduo total variation functional.">
<polygon fill="#bfbfbf" stroke="black" points="0,-0.5 0,-30.5 164,-30.5 164,-0.5 0,-0.5"/>
<text text-anchor="start" x="8" y="-18.5" font-family="Helvetica,sans-Serif" font-size="10.00">pism::inverse::IPTotalVariation</text>
<text text-anchor="middle" x="82" y="-7.5" font-family="Helvetica,sans-Serif" font-size="10.00">Functional2S</text>
</a>
</g>
</g>
<!-- Node2 -->
<g id="node2" class="node">
<title>Node2</title>
<g id="a_node2"><a xlink:href="classpism_1_1inverse_1_1IPFunctional.html" target="_top" xlink:title=" ">
<polygon fill="none" stroke="black" points="8,-68.5 8,-98.5 156,-98.5 156,-68.5 8,-68.5"/>
<text text-anchor="start" x="16" y="-86.5" font-family="Helvetica,sans-Serif" font-size="10.00">pism::inverse::IPFunctional</text>
<text text-anchor="middle" x="82" y="-75.5" font-family="Helvetica,sans-Serif" font-size="10.00">&lt; IceModelVec2S &gt;</text>
</a>
</g>
</g>
<!-- Node2&#45;&gt;Node1 -->
<g id="edge1" class="edge">
<title>Node2&#45;&gt;Node1</title>
<path fill="none" stroke="midnightblue" d="M82,-58.03C82,-48.86 82,-38.74 82,-30.79"/>
<polygon fill="midnightblue" stroke="midnightblue" points="78.5,-58.18 82,-68.18 85.5,-58.18 78.5,-58.18"/>
</g>
<!-- Node3 -->
<g id="node3" class="node">
<title>Node3</title>
<g id="a_node3"><a xlink:href="classpism_1_1inverse_1_1IPFunctional.html" target="_top" xlink:title="Abstract base class for functions from ice model vectors to .">
<polygon fill="none" stroke="black" points="8,-146.5 8,-176.5 156,-176.5 156,-146.5 8,-146.5"/>
<text text-anchor="start" x="16" y="-164.5" font-family="Helvetica,sans-Serif" font-size="10.00">pism::inverse::IPFunctional</text>
<text text-anchor="middle" x="82" y="-153.5" font-family="Helvetica,sans-Serif" font-size="10.00">&lt; IMVecType &gt;</text>
</a>
</g>
</g>
<!-- Node3&#45;&gt;Node2 -->
<g id="edge2" class="edge">
<title>Node3&#45;&gt;Node2</title>
<path fill="none" stroke="orange" stroke-dasharray="5,2" d="M82,-136.09C82,-123.76 82,-109.22 82,-98.73"/>
<polygon fill="orange" stroke="orange" points="78.5,-136.2 82,-146.2 85.5,-136.21 78.5,-136.2"/>
<text text-anchor="middle" x="132" y="-120" font-family="Helvetica,sans-Serif" font-size="10.00"> &lt; IceModelVec2S &gt;</text>
</g>
</g>
</svg>
