<?xml version="1.0" encoding="UTF-8" standalone="no"?>
<!DOCTYPE svg PUBLIC "-//W3C//DTD SVG 1.1//EN"
 "http://www.w3.org/Graphics/SVG/1.1/DTD/svg11.dtd">
<!-- Generated by graphviz version 2.43.0 (0)
 -->
<!-- Title: pism::inverse::IPInnerProductFunctional&lt; IMVecType &gt; Pages: 1 -->
<svg width="860pt" height="305pt"
 viewBox="0.00 0.00 860.00 304.50" xmlns="http://www.w3.org/2000/svg" xmlns:xlink="http://www.w3.org/1999/xlink">
<g id="graph0" class="graph" transform="scale(1 1) rotate(0) translate(4 300.5)">
<title>pism::inverse::IPInnerProductFunctional&lt; IMVecType &gt;</title>
<!-- Node1 -->
<g id="node1" class="node">
<title>Node1</title>
<g id="a_node1"><a xlink:title="Abstract base class for IPFunctionals arising from an inner product.">
<polygon fill="#bfbfbf" stroke="black" points="185,-177.5 185,-207.5 344,-207.5 344,-177.5 185,-177.5"/>
<text text-anchor="start" x="193" y="-195.5" font-family="Helvetica,sans-Serif" font-size="10.00">pism::inverse::IPInnerProduct</text>
<text text-anchor="middle" x="264.5" y="-184.5" font-family="Helvetica,sans-Serif" font-size="10.00">Functional&lt; IMVecType &gt;</text>
</a>
</g>
</g>
<!-- Node3 -->
<g id="node3" class="node">
<title>Node3</title>
<g id="a_node3"><a xlink:href="classpism_1_1inverse_1_1IPInnerProductFunctional.html" target="_top" xlink:title=" ">
<polygon fill="none" stroke="black" points="498,-255 498,-296 657,-296 657,-255 498,-255"/>
<text text-anchor="start" x="506" y="-284" font-family="Helvetica,sans-Serif" font-size="10.00">pism::inverse::IPInnerProduct</text>
<text text-anchor="start" x="506" y="-273" font-family="Helvetica,sans-Serif" font-size="10.00">Functional&lt; pism::array::</text>
<text text-anchor="middle" x="577.5" y="-262" font-family="Helvetica,sans-Serif" font-size="10.00">Scalar &gt;</text>
</a>
</g>
</g>
<!-- Node1&#45;&gt;Node3 -->
<g id="edge2" class="edge">
<title>Node1&#45;&gt;Node3</title>
<path fill="none" stroke="orange" stroke-dasharray="5,2" d="M314.71,-211.06C329.77,-216.41 346.46,-222 362,-226.5 406.49,-239.37 456.96,-251.04 497.75,-259.76"/>
<polygon fill="orange" stroke="orange" points="315.67,-207.68 305.08,-207.59 313.3,-214.27 315.67,-207.68"/>
<text text-anchor="middle" x="421" y="-257.5" font-family="Helvetica,sans-Serif" font-size="10.00"> &lt; pism::array::Scalar &gt;</text>
</g>
<!-- Node4 -->
<g id="node4" class="node">
<title>Node4</title>
<g id="a_node4"><a xlink:href="classpism_1_1inverse_1_1IPInnerProductFunctional.html" target="_top" xlink:title=" ">
<polygon fill="none" stroke="black" points="498,-205.5 498,-235.5 657,-235.5 657,-205.5 498,-205.5"/>
<text text-anchor="start" x="506" y="-223.5" font-family="Helvetica,sans-Serif" font-size="10.00">pism::inverse::IPInnerProduct</text>
<text text-anchor="middle" x="577.5" y="-212.5" font-family="Helvetica,sans-Serif" font-size="10.00">Functional&lt; array::Vector &gt;</text>
</a>
</g>
</g>
<!-- Node1&#45;&gt;Node4 -->
<g id="edge3" class="edge">
<title>Node1&#45;&gt;Node4</title>
<path fill="none" stroke="orange" stroke-dasharray="5,2" d="M354.48,-200.51C399.75,-204.59 454.28,-209.5 497.97,-213.43"/>
<polygon fill="orange" stroke="orange" points="354.65,-197.01 344.38,-199.6 354.03,-203.98 354.65,-197.01"/>
<text text-anchor="middle" x="421" y="-214.5" font-family="Helvetica,sans-Serif" font-size="10.00"> &lt; array::Vector &gt;</text>
</g>
<!-- Node7 -->
<g id="node7" class="node">
<title>Node7</title>
<g id="a_node7"><a xlink:href="classpism_1_1inverse_1_1IPInnerProductFunctional.html" target="_top" xlink:title=" ">
<polygon fill="none" stroke="black" points="498,-145 498,-186 657,-186 657,-145 498,-145"/>
<text text-anchor="start" x="506" y="-174" font-family="Helvetica,sans-Serif" font-size="10.00">pism::inverse::IPInnerProduct</text>
<text text-anchor="start" x="506" y="-163" font-family="Helvetica,sans-Serif" font-size="10.00">Functional&lt; pism::array::</text>
<text text-anchor="middle" x="577.5" y="-152" font-family="Helvetica,sans-Serif" font-size="10.00">Vector &gt;</text>
</a>
</g>
</g>
<!-- Node1&#45;&gt;Node7 -->
<g id="edge6" class="edge">
<title>Node1&#45;&gt;Node7</title>
<path fill="none" stroke="orange" stroke-dasharray="5,2" d="M354.27,-178.36C356.87,-178.06 359.46,-177.77 362,-177.5 406.88,-172.77 457.26,-169.83 497.9,-168.04"/>
<polygon fill="orange" stroke="orange" points="353.64,-174.91 344.15,-179.62 354.51,-181.86 353.64,-174.91"/>
<text text-anchor="middle" x="421" y="-180.5" font-family="Helvetica,sans-Serif" font-size="10.00"> &lt; pism::array::Vector &gt;</text>
</g>
<!-- Node8 -->
<g id="node8" class="node">
<title>Node8</title>
<g id="a_node8"><a xlink:href="classpism_1_1inverse_1_1IPInnerProductFunctional.html" target="_top" xlink:title=" ">
<polygon fill="none" stroke="black" points="498,-95.5 498,-125.5 657,-125.5 657,-95.5 498,-95.5"/>
<text text-anchor="start" x="506" y="-113.5" font-family="Helvetica,sans-Serif" font-size="10.00">pism::inverse::IPInnerProduct</text>
<text text-anchor="middle" x="577.5" y="-102.5" font-family="Helvetica,sans-Serif" font-size="10.00">Functional&lt; array::Scalar &gt;</text>
</a>
</g>
</g>
<!-- Node1&#45;&gt;Node8 -->
<g id="edge7" class="edge">
<title>Node1&#45;&gt;Node8</title>
<path fill="none" stroke="orange" stroke-dasharray="5,2" d="M308.74,-173.63C325.19,-166.94 344.25,-159.77 362,-154.5 406.28,-141.35 456.84,-130.77 497.75,-123.28"/>
<polygon fill="orange" stroke="orange" points="307.29,-170.44 299.38,-177.49 309.96,-176.91 307.29,-170.44"/>
<text text-anchor="middle" x="421" y="-157.5" font-family="Helvetica,sans-Serif" font-size="10.00"> &lt; array::Scalar &gt;</text>
</g>
<!-- Node2 -->
<g id="node2" class="node">
<title>Node2</title>
<g id="a_node2"><a xlink:href="classpism_1_1inverse_1_1IPFunctional.html" target="_top" xlink:title="Abstract base class for functions from ice model vectors to .">
<polygon fill="none" stroke="black" points="0,-177.5 0,-207.5 148,-207.5 148,-177.5 0,-177.5"/>
<text text-anchor="start" x="8" y="-195.5" font-family="Helvetica,sans-Serif" font-size="10.00">pism::inverse::IPFunctional</text>
<text text-anchor="middle" x="74" y="-184.5" font-family="Helvetica,sans-Serif" font-size="10.00">&lt; IMVecType &gt;</text>
</a>
</g>
</g>
<!-- Node2&#45;&gt;Node1 -->
<g id="edge1" class="edge">
<title>Node2&#45;&gt;Node1</title>
<path fill="none" stroke="midnightblue" d="M158.37,-192.5C167.15,-192.5 176.05,-192.5 184.77,-192.5"/>
<polygon fill="midnightblue" stroke="midnightblue" points="158.15,-189 148.15,-192.5 158.15,-196 158.15,-189"/>
</g>
<!-- Node5 -->
<g id="node5" class="node">
<title>Node5</title>
<g id="a_node5"><a xlink:href="classpism_1_1inverse_1_1IPMeanSquareFunctional2V.html" target="_top" xlink:title="Implements a functional corresponding to a (possibly weighted) sum of squares of components of an arr...">
<polygon fill="none" stroke="black" points="694,-251.5 694,-281.5 852,-281.5 852,-251.5 694,-251.5"/>
<text text-anchor="start" x="702" y="-269.5" font-family="Helvetica,sans-Serif" font-size="10.00">pism::inverse::IPMeanSquare</text>
<text text-anchor="middle" x="773" y="-258.5" font-family="Helvetica,sans-Serif" font-size="10.00">Functional2V</text>
</a>
</g>
</g>
<!-- Node4&#45;&gt;Node5 -->
<g id="edge4" class="edge">
<title>Node4&#45;&gt;Node5</title>
<path fill="none" stroke="midnightblue" d="M651.84,-237.93C670.61,-242.4 690.62,-247.15 708.83,-251.48"/>
<polygon fill="midnightblue" stroke="midnightblue" points="652.4,-234.47 641.86,-235.56 650.78,-241.28 652.4,-234.47"/>
</g>
<!-- Node6 -->
<g id="node6" class="node">
<title>Node6</title>
<g id="a_node6"><a xlink:href="classpism_1_1inverse_1_1IP__L2NormFunctional2V.html" target="_top" xlink:title="Implements a functional corresponding to (the square of) an &#160;norm of a vector valued function.">
<polygon fill="none" stroke="black" points="702.5,-202.5 702.5,-232.5 843.5,-232.5 843.5,-202.5 702.5,-202.5"/>
<text text-anchor="start" x="710.5" y="-220.5" font-family="Helvetica,sans-Serif" font-size="10.00">pism::inverse::IP_L2Norm</text>
<text text-anchor="middle" x="773" y="-209.5" font-family="Helvetica,sans-Serif" font-size="10.00">Functional2V</text>
</a>
</g>
</g>
<!-- Node4&#45;&gt;Node6 -->
<g id="edge5" class="edge">
<title>Node4&#45;&gt;Node6</title>
<path fill="none" stroke="midnightblue" d="M667.45,-219.12C679.17,-218.94 691.05,-218.76 702.38,-218.58"/>
<polygon fill="midnightblue" stroke="midnightblue" points="667.15,-215.63 657.2,-219.28 667.26,-222.62 667.15,-215.63"/>
</g>
<!-- Node9 -->
<g id="node9" class="node">
<title>Node9</title>
<g id="a_node9"><a xlink:href="classpism_1_1inverse_1_1IPGroundedIceH1NormFunctional2S.html" target="_top" xlink:title="Implements a functional corresponding to (the square of) an &#160;norm of a scalar valued function over a ...">
<polygon fill="none" stroke="black" points="700.5,-147.5 700.5,-177.5 845.5,-177.5 845.5,-147.5 700.5,-147.5"/>
<text text-anchor="start" x="708.5" y="-165.5" font-family="Helvetica,sans-Serif" font-size="10.00">pism::inverse::IPGrounded</text>
<text text-anchor="middle" x="773" y="-154.5" font-family="Helvetica,sans-Serif" font-size="10.00">IceH1NormFunctional2S</text>
</a>
</g>
</g>
<!-- Node8&#45;&gt;Node9 -->
<g id="edge8" class="edge">
<title>Node8&#45;&gt;Node9</title>
<path fill="none" stroke="midnightblue" d="M644.3,-128.18C667.66,-134.46 693.71,-141.46 716.16,-147.49"/>
<polygon fill="midnightblue" stroke="midnightblue" points="645.03,-124.76 634.47,-125.54 643.22,-131.52 645.03,-124.76"/>
</g>
<!-- Node10 -->
<g id="node10" class="node">
<title>Node10</title>
<g id="a_node10"><a xlink:href="classpism_1_1inverse_1_1IPMeanSquareFunctional2S.html" target="_top" xlink:title="Implements a functional corresponding to a (possibly weighted) sum of squares of components of an arr...">
<polygon fill="none" stroke="black" points="694,-98.5 694,-128.5 852,-128.5 852,-98.5 694,-98.5"/>
<text text-anchor="start" x="702" y="-116.5" font-family="Helvetica,sans-Serif" font-size="10.00">pism::inverse::IPMeanSquare</text>
<text text-anchor="middle" x="773" y="-105.5" font-family="Helvetica,sans-Serif" font-size="10.00">Functional2S</text>
</a>
</g>
</g>
<!-- Node8&#45;&gt;Node10 -->
<g id="edge9" class="edge">
<title>Node8&#45;&gt;Node10</title>
<path fill="none" stroke="midnightblue" d="M667.23,-111.88C676.16,-112.01 685.19,-112.15 693.99,-112.29"/>
<polygon fill="midnightblue" stroke="midnightblue" points="667.26,-108.38 657.2,-111.72 667.15,-115.37 667.26,-108.38"/>
</g>
<!-- Node11 -->
<g id="node11" class="node">
<title>Node11</title>
<g id="a_node11"><a xlink:href="classpism_1_1inverse_1_1IP__H1NormFunctional2S.html" target="_top" xlink:title="Implements a functional corresponding to (the square of) an &#160;norm of a scalar valued function.">
<polygon fill="none" stroke="black" points="701.5,-49.5 701.5,-79.5 844.5,-79.5 844.5,-49.5 701.5,-49.5"/>
<text text-anchor="start" x="709.5" y="-67.5" font-family="Helvetica,sans-Serif" font-size="10.00">pism::inverse::IP_H1Norm</text>
<text text-anchor="middle" x="773" y="-56.5" font-family="Helvetica,sans-Serif" font-size="10.00">Functional2S</text>
</a>
</g>
</g>
<!-- Node8&#45;&gt;Node11 -->
<g id="edge10" class="edge">
<title>Node8&#45;&gt;Node11</title>
<path fill="none" stroke="midnightblue" d="M651.84,-93.07C670.61,-88.6 690.62,-83.85 708.83,-79.52"/>
<polygon fill="midnightblue" stroke="midnightblue" points="650.78,-89.72 641.86,-95.44 652.4,-96.53 650.78,-89.72"/>
</g>
<!-- Node12 -->
<g id="node12" class="node">
<title>Node12</title>
<g id="a_node12"><a xlink:href="classpism_1_1inverse_1_1IP__L2NormFunctional2S.html" target="_top" xlink:title="Implements a functional corresponding to (the square of) an &#160;norm of a scalar valued function.">
<polygon fill="none" stroke="black" points="702.5,-0.5 702.5,-30.5 843.5,-30.5 843.5,-0.5 702.5,-0.5"/>
<text text-anchor="start" x="710.5" y="-18.5" font-family="Helvetica,sans-Serif" font-size="10.00">pism::inverse::IP_L2Norm</text>
<text text-anchor="middle" x="773" y="-7.5" font-family="Helvetica,sans-Serif" font-size="10.00">Functional2S</text>
</a>
</g>
</g>
<!-- Node8&#45;&gt;Node12 -->
<g id="edge11" class="edge">
<title>Node8&#45;&gt;Node12</title>
<path fill="none" stroke="midnightblue" d="M607.79,-89.61C630.48,-74.16 663.14,-53.46 694,-39.5 701.23,-36.23 709.03,-33.24 716.8,-30.57"/>
<polygon fill="midnightblue" stroke="midnightblue" points="605.56,-86.9 599.31,-95.46 609.53,-92.66 605.56,-86.9"/>
</g>
</g>
</svg>
