<?xml version="1.0" encoding="UTF-8" standalone="no"?>
<!DOCTYPE svg PUBLIC "-//W3C//DTD SVG 1.1//EN"
 "http://www.w3.org/Graphics/SVG/1.1/DTD/svg11.dtd">
<!-- Generated by graphviz version 2.43.0 (0)
 -->
<!-- Title: pism::rheology::PatersonBudd Pages: 1 -->
<svg width="548pt" height="165pt"
 viewBox="0.00 0.00 548.00 164.50" xmlns="http://www.w3.org/2000/svg" xmlns:xlink="http://www.w3.org/1999/xlink">
<g id="graph0" class="graph" transform="scale(1 1) rotate(0) translate(4 160.5)">
<title>pism::rheology::PatersonBudd</title>
<!-- Node1 -->
<g id="node1" class="node">
<title>Node1</title>
<g id="a_node1"><a xlink:title="Derived class of FlowLaw for Paterson&#45;Budd (1982)&#45;Glen ice.">
<polygon fill="#bfbfbf" stroke="black" points="173,-77 173,-96 334,-96 334,-77 173,-77"/>
<text text-anchor="middle" x="253.5" y="-84" font-family="Helvetica,sans-Serif" font-size="10.00">pism::rheology::PatersonBudd</text>
</a>
</g>
</g>
<!-- Node3 -->
<g id="node3" class="node">
<title>Node3</title>
<g id="a_node3"><a xlink:href="classpism_1_1rheology_1_1Hooke.html" target="_top" xlink:title="The Hooke flow law.">
<polygon fill="none" stroke="black" points="392.5,-137 392.5,-156 517.5,-156 517.5,-137 392.5,-137"/>
<text text-anchor="middle" x="455" y="-144" font-family="Helvetica,sans-Serif" font-size="10.00">pism::rheology::Hooke</text>
</a>
</g>
</g>
<!-- Node1&#45;&gt;Node3 -->
<g id="edge2" class="edge">
<title>Node1&#45;&gt;Node3</title>
<path fill="none" stroke="midnightblue" d="M288.57,-99.8C311.39,-108.4 342.23,-119.46 370,-127.5 381.92,-130.95 394.94,-134.16 407.1,-136.92"/>
<polygon fill="midnightblue" stroke="midnightblue" points="289.6,-96.44 279.01,-96.16 287.11,-102.98 289.6,-96.44"/>
</g>
<!-- Node4 -->
<g id="node4" class="node">
<title>Node4</title>
<g id="a_node4"><a xlink:href="classpism_1_1rheology_1_1IsothermalGlen.html" target="_top" xlink:title="Isothermal Glen ice allowing extra customization.">
<polygon fill="none" stroke="black" points="370,-99 370,-118 540,-118 540,-99 370,-99"/>
<text text-anchor="middle" x="455" y="-106" font-family="Helvetica,sans-Serif" font-size="10.00">pism::rheology::IsothermalGlen</text>
</a>
</g>
</g>
<!-- Node1&#45;&gt;Node4 -->
<g id="edge3" class="edge">
<title>Node1&#45;&gt;Node4</title>
<path fill="none" stroke="midnightblue" d="M344.17,-96.39C352.72,-97.33 361.36,-98.28 369.84,-99.22"/>
<polygon fill="midnightblue" stroke="midnightblue" points="344.53,-92.91 334.21,-95.29 343.76,-99.86 344.53,-92.91"/>
</g>
<!-- Node5 -->
<g id="node5" class="node">
<title>Node5</title>
<g id="a_node5"><a xlink:href="classpism_1_1rheology_1_1PatersonBuddCold.html" target="_top" xlink:title="Cold case of Paterson&#45;Budd.">
<polygon fill="none" stroke="black" points="386.5,-49.5 386.5,-79.5 523.5,-79.5 523.5,-49.5 386.5,-49.5"/>
<text text-anchor="start" x="394.5" y="-67.5" font-family="Helvetica,sans-Serif" font-size="10.00">pism::rheology::Paterson</text>
<text text-anchor="middle" x="455" y="-56.5" font-family="Helvetica,sans-Serif" font-size="10.00">BuddCold</text>
</a>
</g>
</g>
<!-- Node1&#45;&gt;Node5 -->
<g id="edge4" class="edge">
<title>Node1&#45;&gt;Node5</title>
<path fill="none" stroke="midnightblue" d="M344.4,-76.59C358.48,-75.03 372.83,-73.45 386.3,-71.97"/>
<polygon fill="midnightblue" stroke="midnightblue" points="343.76,-73.14 334.21,-77.71 344.53,-80.09 343.76,-73.14"/>
</g>
<!-- Node6 -->
<g id="node6" class="node">
<title>Node6</title>
<g id="a_node6"><a xlink:href="classpism_1_1rheology_1_1PatersonBuddWarm.html" target="_top" xlink:title="Warm case of Paterson&#45;Budd.">
<polygon fill="none" stroke="black" points="386.5,-0.5 386.5,-30.5 523.5,-30.5 523.5,-0.5 386.5,-0.5"/>
<text text-anchor="start" x="394.5" y="-18.5" font-family="Helvetica,sans-Serif" font-size="10.00">pism::rheology::Paterson</text>
<text text-anchor="middle" x="455" y="-7.5" font-family="Helvetica,sans-Serif" font-size="10.00">BuddWarm</text>
</a>
</g>
</g>
<!-- Node1&#45;&gt;Node6 -->
<g id="edge5" class="edge">
<title>Node1&#45;&gt;Node6</title>
<path fill="none" stroke="midnightblue" d="M285.22,-72.94C308.3,-63.01 340.81,-49.57 370,-39.5 379.03,-36.38 388.71,-33.35 398.16,-30.54"/>
<polygon fill="midnightblue" stroke="midnightblue" points="283.73,-69.77 275.95,-76.96 286.51,-76.19 283.73,-69.77"/>
</g>
<!-- Node2 -->
<g id="node2" class="node">
<title>Node2</title>
<g id="a_node2"><a xlink:href="classpism_1_1rheology_1_1FlowLaw.html" target="_top" xlink:title=" ">
<polygon fill="none" stroke="black" points="0,-77 0,-96 137,-96 137,-77 0,-77"/>
<text text-anchor="middle" x="68.5" y="-84" font-family="Helvetica,sans-Serif" font-size="10.00">pism::rheology::FlowLaw</text>
</a>
</g>
</g>
<!-- Node2&#45;&gt;Node1 -->
<g id="edge1" class="edge">
<title>Node2&#45;&gt;Node1</title>
<path fill="none" stroke="midnightblue" d="M147.31,-86.5C155.74,-86.5 164.32,-86.5 172.78,-86.5"/>
<polygon fill="midnightblue" stroke="midnightblue" points="147.12,-83 137.12,-86.5 147.12,-90 147.12,-83"/>
</g>
</g>
</svg>
