<?xml version="1.0" encoding="UTF-8" standalone="no"?>
<!DOCTYPE svg PUBLIC "-//W3C//DTD SVG 1.1//EN"
 "http://www.w3.org/Graphics/SVG/1.1/DTD/svg11.dtd">
<!-- Generated by graphviz version 2.43.0 (0)
 -->
<!-- Title: pism::diagnostics::IsochroneDepths Pages: 1 -->
<svg width="214pt" height="220pt"
 viewBox="0.00 0.00 214.00 220.00" xmlns="http://www.w3.org/2000/svg" xmlns:xlink="http://www.w3.org/1999/xlink">
<g id="graph0" class="graph" transform="scale(1 1) rotate(0) translate(4 216)">
<title>pism::diagnostics::IsochroneDepths</title>
<!-- Node1 -->
<g id="node1" class="node">
<title>Node1</title>
<g id="a_node1"><a xlink:title="Report isochrone depth below surface, in meters.">
<polygon fill="#bfbfbf" stroke="black" points="18,-0.5 18,-30.5 126,-30.5 126,-0.5 18,-0.5"/>
<text text-anchor="start" x="26" y="-18.5" font-family="Helvetica,sans-Serif" font-size="10.00">pism::diagnostics::</text>
<text text-anchor="middle" x="72" y="-7.5" font-family="Helvetica,sans-Serif" font-size="10.00">IsochroneDepths</text>
</a>
</g>
</g>
<!-- Node2 -->
<g id="node2" class="node">
<title>Node2</title>
<g id="a_node2"><a xlink:href="classpism_1_1Diag.html" target="_top" xlink:title=" ">
<polygon fill="none" stroke="black" points="0,-68.5 0,-87.5 144,-87.5 144,-68.5 0,-68.5"/>
<text text-anchor="middle" x="72" y="-75.5" font-family="Helvetica,sans-Serif" font-size="10.00">pism::Diag&lt; Isochrones &gt;</text>
</a>
</g>
</g>
<!-- Node2&#45;&gt;Node1 -->
<g id="edge1" class="edge">
<title>Node2&#45;&gt;Node1</title>
<path fill="none" stroke="midnightblue" d="M72,-58.22C72,-49.36 72,-38.96 72,-30.76"/>
<polygon fill="midnightblue" stroke="midnightblue" points="68.5,-58.33 72,-68.33 75.5,-58.33 68.5,-58.33"/>
</g>
<!-- Node3 -->
<g id="node3" class="node">
<title>Node3</title>
<g id="a_node3"><a xlink:href="classpism_1_1Diagnostic.html" target="_top" xlink:title="Class representing diagnostic computations in PISM.">
<polygon fill="none" stroke="black" points="19,-192.5 19,-211.5 117,-211.5 117,-192.5 19,-192.5"/>
<text text-anchor="middle" x="68" y="-199.5" font-family="Helvetica,sans-Serif" font-size="10.00">pism::Diagnostic</text>
</a>
</g>
</g>
<!-- Node3&#45;&gt;Node2 -->
<g id="edge2" class="edge">
<title>Node3&#45;&gt;Node2</title>
<path fill="none" stroke="midnightblue" d="M68.62,-182.19C69.5,-155.4 71.07,-107.31 71.71,-87.69"/>
<polygon fill="midnightblue" stroke="midnightblue" points="65.12,-182.12 68.29,-192.23 72.11,-182.35 65.12,-182.12"/>
</g>
<!-- Node4 -->
<g id="node4" class="node">
<title>Node4</title>
<g id="a_node4"><a xlink:href="classpism_1_1Diag.html" target="_top" xlink:title="A template derived from Diagnostic, adding a &quot;Model&quot;.">
<polygon fill="none" stroke="black" points="84,-135.5 84,-154.5 206,-154.5 206,-135.5 84,-135.5"/>
<text text-anchor="middle" x="145" y="-142.5" font-family="Helvetica,sans-Serif" font-size="10.00">pism::Diag&lt; Model &gt;</text>
</a>
</g>
</g>
<!-- Node3&#45;&gt;Node4 -->
<g id="edge4" class="edge">
<title>Node3&#45;&gt;Node4</title>
<path fill="none" stroke="midnightblue" d="M88.25,-186.54C102.5,-176.35 121.11,-163.07 133.05,-154.53"/>
<polygon fill="midnightblue" stroke="midnightblue" points="86.13,-183.75 80.03,-192.41 90.2,-189.44 86.13,-183.75"/>
</g>
<!-- Node4&#45;&gt;Node2 -->
<g id="edge3" class="edge">
<title>Node4&#45;&gt;Node2</title>
<path fill="none" stroke="orange" stroke-dasharray="5,2" d="M127.43,-128.36C113.08,-115.58 93.33,-97.99 81.69,-87.63"/>
<polygon fill="orange" stroke="orange" points="125.36,-131.2 135.15,-135.23 130.01,-125.97 125.36,-131.2"/>
<text text-anchor="middle" x="151.5" y="-109" font-family="Helvetica,sans-Serif" font-size="10.00"> &lt; Isochrones &gt;</text>
</g>
</g>
</svg>
