<?xml version="1.0" encoding="UTF-8" standalone="no"?>
<!DOCTYPE svg PUBLIC "-//W3C//DTD SVG 1.1//EN"
 "http://www.w3.org/Graphics/SVG/1.1/DTD/svg11.dtd">
<!-- Generated by graphviz version 2.43.0 (0)
 -->
<!-- Title: pism::stressbalance::SSAFD_Regional Pages: 1 -->
<svg width="148pt" height="285pt"
 viewBox="0.00 0.00 148.00 285.00" xmlns="http://www.w3.org/2000/svg" xmlns:xlink="http://www.w3.org/1999/xlink">
<g id="graph0" class="graph" transform="scale(1 1) rotate(0) translate(4 281)">
<title>pism::stressbalance::SSAFD_Regional</title>
<!-- Node1 -->
<g id="node1" class="node">
<title>Node1</title>
<g id="a_node1"><a xlink:title="A version of the SSA stress balance with tweaks for outlet glacier simulations.">
<polygon fill="#bfbfbf" stroke="black" points="13,-0.5 13,-30.5 127,-30.5 127,-0.5 13,-0.5"/>
<text text-anchor="start" x="21" y="-18.5" font-family="Helvetica,sans-Serif" font-size="10.00">pism::stressbalance</text>
<text text-anchor="middle" x="70" y="-7.5" font-family="Helvetica,sans-Serif" font-size="10.00">::SSAFD_Regional</text>
</a>
</g>
</g>
<!-- Node2 -->
<g id="node2" class="node">
<title>Node2</title>
<g id="a_node2"><a xlink:href="classpism_1_1stressbalance_1_1SSAFD.html" target="_top" xlink:title="PISM&#39;s SSA solver: the finite difference implementation.">
<polygon fill="none" stroke="black" points="13,-67.5 13,-97.5 127,-97.5 127,-67.5 13,-67.5"/>
<text text-anchor="start" x="21" y="-85.5" font-family="Helvetica,sans-Serif" font-size="10.00">pism::stressbalance</text>
<text text-anchor="middle" x="70" y="-74.5" font-family="Helvetica,sans-Serif" font-size="10.00">::SSAFD</text>
</a>
</g>
</g>
<!-- Node2&#45;&gt;Node1 -->
<g id="edge1" class="edge">
<title>Node2&#45;&gt;Node1</title>
<path fill="none" stroke="midnightblue" d="M70,-57.11C70,-48.15 70,-38.32 70,-30.58"/>
<polygon fill="midnightblue" stroke="midnightblue" points="66.5,-57.4 70,-67.4 73.5,-57.4 66.5,-57.4"/>
</g>
<!-- Node3 -->
<g id="node3" class="node">
<title>Node3</title>
<g id="a_node3"><a xlink:href="classpism_1_1stressbalance_1_1SSA.html" target="_top" xlink:title="PISM&#39;s SSA solver.">
<polygon fill="none" stroke="black" points="0,-134.5 0,-153.5 140,-153.5 140,-134.5 0,-134.5"/>
<text text-anchor="middle" x="70" y="-141.5" font-family="Helvetica,sans-Serif" font-size="10.00">pism::stressbalance::SSA</text>
</a>
</g>
</g>
<!-- Node3&#45;&gt;Node2 -->
<g id="edge2" class="edge">
<title>Node3&#45;&gt;Node2</title>
<path fill="none" stroke="midnightblue" d="M70,-124.23C70,-115.59 70,-105.5 70,-97.52"/>
<polygon fill="midnightblue" stroke="midnightblue" points="66.5,-124.48 70,-134.48 73.5,-124.48 66.5,-124.48"/>
</g>
<!-- Node4 -->
<g id="node4" class="node">
<title>Node4</title>
<g id="a_node4"><a xlink:href="classpism_1_1stressbalance_1_1ShallowStressBalance.html" target="_top" xlink:title="Shallow stress balance (such as the SSA).">
<polygon fill="none" stroke="black" points="5,-190.5 5,-220.5 135,-220.5 135,-190.5 5,-190.5"/>
<text text-anchor="start" x="13" y="-208.5" font-family="Helvetica,sans-Serif" font-size="10.00">pism::stressbalance</text>
<text text-anchor="middle" x="70" y="-197.5" font-family="Helvetica,sans-Serif" font-size="10.00">::ShallowStressBalance</text>
</a>
</g>
</g>
<!-- Node4&#45;&gt;Node3 -->
<g id="edge3" class="edge">
<title>Node4&#45;&gt;Node3</title>
<path fill="none" stroke="midnightblue" d="M70,-180.29C70,-170.86 70,-160.65 70,-153.66"/>
<polygon fill="midnightblue" stroke="midnightblue" points="66.5,-180.4 70,-190.4 73.5,-180.4 66.5,-180.4"/>
</g>
<!-- Node5 -->
<g id="node5" class="node">
<title>Node5</title>
<g id="a_node5"><a xlink:href="classpism_1_1Component.html" target="_top" xlink:title="A class defining a common interface for most PISM sub&#45;models.">
<polygon fill="none" stroke="black" points="18.5,-257.5 18.5,-276.5 121.5,-276.5 121.5,-257.5 18.5,-257.5"/>
<text text-anchor="middle" x="70" y="-264.5" font-family="Helvetica,sans-Serif" font-size="10.00">pism::Component</text>
</a>
</g>
</g>
<!-- Node5&#45;&gt;Node4 -->
<g id="edge4" class="edge">
<title>Node5&#45;&gt;Node4</title>
<path fill="none" stroke="midnightblue" d="M70,-247.23C70,-238.59 70,-228.5 70,-220.52"/>
<polygon fill="midnightblue" stroke="midnightblue" points="66.5,-247.48 70,-257.48 73.5,-247.48 66.5,-247.48"/>
</g>
</g>
</svg>
