<?xml version="1.0" encoding="UTF-8" standalone="no"?>
<!DOCTYPE svg PUBLIC "-//W3C//DTD SVG 1.1//EN"
 "http://www.w3.org/Graphics/SVG/1.1/DTD/svg11.dtd">
<!-- Generated by graphviz version 2.43.0 (0)
 -->
<!-- Title: pism::inverse::IPTaoTikhonovProblem&lt; ForwardProblem &gt; Pages: 1 -->
<svg width="801pt" height="86pt"
 viewBox="0.00 0.00 801.00 86.00" xmlns="http://www.w3.org/2000/svg" xmlns:xlink="http://www.w3.org/1999/xlink">
<g id="graph0" class="graph" transform="scale(1 1) rotate(0) translate(4 82)">
<title>pism::inverse::IPTaoTikhonovProblem&lt; ForwardProblem &gt;</title>
<!-- Node1 -->
<g id="Node000001" class="node">
<title>Node1</title>
<g id="a_Node000001"><a xlink:title="Defines a Tikhonov minimization problem to be solved with a TaoBasicSolver.">
<polygon fill="#999999" stroke="#666666" points="159,-54 0,-54 0,-24 159,-24 159,-54"/>
<text text-anchor="start" x="8" y="-42" font-family="Helvetica,sans-Serif" font-size="10.00">pism::inverse::IPTaoTikhonov</text>
<text text-anchor="middle" x="79.5" y="-31" font-family="Helvetica,sans-Serif" font-size="10.00">Problem&lt; ForwardProblem &gt;</text>
</a>
</g>
</g>
<!-- Node2 -->
<g id="Node000002" class="node">
<title>Node2</title>
<g id="a_Node000002"><a xlink:href="classpism_1_1inverse_1_1IPTaoTikhonovProblem.html" target="_top" xlink:title=" ">
<polygon fill="white" stroke="#666666" points="598,-78 370,-78 370,-48 598,-48 598,-78"/>
<text text-anchor="start" x="378" y="-66" font-family="Helvetica,sans-Serif" font-size="10.00">pism::inverse::IPTaoTikhonov</text>
<text text-anchor="middle" x="484" y="-55" font-family="Helvetica,sans-Serif" font-size="10.00">Problem&lt; IP_SSAHardavForwardProblem &gt;</text>
</a>
</g>
</g>
<!-- Node1&#45;&gt;Node2 -->
<g id="edge1_Node000001_Node000002" class="edge">
<title>Node1&#45;&gt;Node2</title>
<g id="a_edge1_Node000001_Node000002"><a xlink:title=" ">
<path fill="none" stroke="orange" stroke-dasharray="5,2" d="M169.12,-44.28C228.21,-47.81 306.42,-52.47 369.98,-56.26"/>
<polygon fill="orange" stroke="orange" points="169.25,-40.79 159.06,-43.68 168.84,-47.77 169.25,-40.79"/>
</a>
</g>
<text text-anchor="middle" x="264.5" y="-57" font-family="Helvetica,sans-Serif" font-size="10.00" fill="grey"> &lt; IP_SSAHardavForwardProblem &gt;</text>
</g>
<!-- Node4 -->
<g id="Node000004" class="node">
<title>Node4</title>
<g id="a_Node000004"><a xlink:href="classpism_1_1inverse_1_1IPTaoTikhonovProblem.html" target="_top" xlink:title=" ">
<polygon fill="white" stroke="#666666" points="591,-30 377,-30 377,0 591,0 591,-30"/>
<text text-anchor="start" x="385" y="-18" font-family="Helvetica,sans-Serif" font-size="10.00">pism::inverse::IPTaoTikhonov</text>
<text text-anchor="middle" x="484" y="-7" font-family="Helvetica,sans-Serif" font-size="10.00">Problem&lt; IP_SSATaucForwardProblem &gt;</text>
</a>
</g>
</g>
<!-- Node1&#45;&gt;Node4 -->
<g id="edge3_Node000001_Node000004" class="edge">
<title>Node1&#45;&gt;Node4</title>
<g id="a_edge3_Node000001_Node000004"><a xlink:title=" ">
<path fill="none" stroke="orange" stroke-dasharray="5,2" d="M169.3,-29.6C171.89,-29.39 174.46,-29.19 177,-29 243.29,-24.05 317.8,-20.6 376.7,-18.36"/>
<polygon fill="orange" stroke="orange" points="168.87,-26.13 159.2,-30.47 169.46,-33.1 168.87,-26.13"/>
</a>
</g>
<text text-anchor="middle" x="264.5" y="-32" font-family="Helvetica,sans-Serif" font-size="10.00" fill="grey"> &lt; IP_SSATaucForwardProblem &gt;</text>
</g>
<!-- Node3 -->
<g id="Node000003" class="node">
<title>Node3</title>
<g id="a_Node000003"><a xlink:href="classpism_1_1inverse_1_1IP__SSAHardavTaoTikhonovProblem.html" target="_top" xlink:title="Defines an IPTaoTikhonovProblem for inversion of basal yeild stresses &#160;from SSA velocities.">
<polygon fill="white" stroke="#666666" points="793,-78 635,-78 635,-48 793,-48 793,-78"/>
<text text-anchor="start" x="643" y="-66" font-family="Helvetica,sans-Serif" font-size="10.00">pism::inverse::IP_SSAHardav</text>
<text text-anchor="middle" x="714" y="-55" font-family="Helvetica,sans-Serif" font-size="10.00">TaoTikhonovProblem</text>
</a>
</g>
</g>
<!-- Node2&#45;&gt;Node3 -->
<g id="edge2_Node000002_Node000003" class="edge">
<title>Node2&#45;&gt;Node3</title>
<g id="a_edge2_Node000002_Node000003"><a xlink:title=" ">
<path fill="none" stroke="#63b8ff" d="M608.5,-63C617.48,-63 626.39,-63 634.99,-63"/>
<polygon fill="#63b8ff" stroke="#63b8ff" points="608.33,-59.5 598.33,-63 608.33,-66.5 608.33,-59.5"/>
</a>
</g>
</g>
<!-- Node5 -->
<g id="Node000005" class="node">
<title>Node5</title>
<g id="a_Node000005"><a xlink:href="classpism_1_1inverse_1_1IP__SSATaucTaoTikhonovProblem.html" target="_top" xlink:title="Defines an IPTaoTikhonovProblem for inversion of basal yeild stresses &#160;from SSA velocities.">
<polygon fill="white" stroke="#666666" points="785.5,-30 642.5,-30 642.5,0 785.5,0 785.5,-30"/>
<text text-anchor="start" x="650.5" y="-18" font-family="Helvetica,sans-Serif" font-size="10.00">pism::inverse::IP_SSATauc</text>
<text text-anchor="middle" x="714" y="-7" font-family="Helvetica,sans-Serif" font-size="10.00">TaoTikhonovProblem</text>
</a>
</g>
</g>
<!-- Node4&#45;&gt;Node5 -->
<g id="edge4_Node000004_Node000005" class="edge">
<title>Node4&#45;&gt;Node5</title>
<g id="a_edge4_Node000004_Node000005"><a xlink:title=" ">
<path fill="none" stroke="#63b8ff" d="M601.47,-15C615.42,-15 629.31,-15 642.33,-15"/>
<polygon fill="#63b8ff" stroke="#63b8ff" points="601.32,-11.5 591.32,-15 601.32,-18.5 601.32,-11.5"/>
</a>
</g>
</g>
</g>
</svg>
