<?xml version="1.0" encoding="UTF-8" standalone="no"?>
<!DOCTYPE svg PUBLIC "-//W3C//DTD SVG 1.1//EN"
 "http://www.w3.org/Graphics/SVG/1.1/DTD/svg11.dtd">
<!-- Generated by graphviz version 2.43.0 (0)
 -->
<!-- Title: pism::petsc::Wrapper&lt; T &gt; Pages: 1 -->
<svg width="783pt" height="431pt"
 viewBox="0.00 0.00 783.00 431.00" xmlns="http://www.w3.org/2000/svg" xmlns:xlink="http://www.w3.org/1999/xlink">
<g id="graph0" class="graph" transform="scale(1 1) rotate(0) translate(4 427)">
<title>pism::petsc::Wrapper&lt; T &gt;</title>
<!-- Node1 -->
<g id="node1" class="node">
<title>Node1</title>
<g id="a_node1"><a xlink:title=" ">
<polygon fill="#bfbfbf" stroke="black" points="0,-202 0,-221 149,-221 149,-202 0,-202"/>
<text text-anchor="middle" x="74.5" y="-209" font-family="Helvetica,sans-Serif" font-size="10.00">pism::petsc::Wrapper&lt; T &gt;</text>
</a>
</g>
</g>
<!-- Node2 -->
<g id="node2" class="node">
<title>Node2</title>
<g id="a_node2"><a xlink:href="classpism_1_1petsc_1_1Wrapper.html" target="_top" xlink:title=" ">
<polygon fill="none" stroke="black" points="271,-392.5 271,-422.5 391,-422.5 391,-392.5 271,-392.5"/>
<text text-anchor="start" x="279" y="-410.5" font-family="Helvetica,sans-Serif" font-size="10.00">pism::petsc::Wrapper</text>
<text text-anchor="middle" x="331" y="-399.5" font-family="Helvetica,sans-Serif" font-size="10.00">&lt; ::DM &gt;</text>
</a>
</g>
</g>
<!-- Node1&#45;&gt;Node2 -->
<g id="edge1" class="edge">
<title>Node1&#45;&gt;Node2</title>
<path fill="none" stroke="orange" stroke-dasharray="5,2" d="M82.72,-230.62C95.23,-261.22 123.82,-321.13 167,-354.5 197.02,-377.7 237.57,-390.94 270.71,-398.38"/>
<polygon fill="orange" stroke="orange" points="85.89,-229.13 78.97,-221.11 79.38,-231.7 85.89,-229.13"/>
<text text-anchor="middle" x="210" y="-395.5" font-family="Helvetica,sans-Serif" font-size="10.00"> &lt; ::DM &gt;</text>
</g>
<!-- Node4 -->
<g id="node4" class="node">
<title>Node4</title>
<g id="a_node4"><a xlink:href="classpism_1_1petsc_1_1Wrapper.html" target="_top" xlink:title=" ">
<polygon fill="none" stroke="black" points="271,-343.5 271,-373.5 391,-373.5 391,-343.5 271,-343.5"/>
<text text-anchor="start" x="279" y="-361.5" font-family="Helvetica,sans-Serif" font-size="10.00">pism::petsc::Wrapper</text>
<text text-anchor="middle" x="331" y="-350.5" font-family="Helvetica,sans-Serif" font-size="10.00">&lt; ::Vec &gt;</text>
</a>
</g>
</g>
<!-- Node1&#45;&gt;Node4 -->
<g id="edge3" class="edge">
<title>Node1&#45;&gt;Node4</title>
<path fill="none" stroke="orange" stroke-dasharray="5,2" d="M88.61,-228.91C104.89,-249.43 134.54,-283.29 167,-303.5 198.82,-323.31 238.62,-336.91 270.92,-345.64"/>
<polygon fill="orange" stroke="orange" points="91.37,-226.76 82.47,-221.01 85.84,-231.06 91.37,-226.76"/>
<text text-anchor="middle" x="210" y="-342.5" font-family="Helvetica,sans-Serif" font-size="10.00"> &lt; ::Vec &gt;</text>
</g>
<!-- Node7 -->
<g id="node7" class="node">
<title>Node7</title>
<g id="a_node7"><a xlink:href="classpism_1_1petsc_1_1Wrapper.html" target="_top" xlink:title=" ">
<polygon fill="none" stroke="black" points="271,-294.5 271,-324.5 391,-324.5 391,-294.5 271,-294.5"/>
<text text-anchor="start" x="279" y="-312.5" font-family="Helvetica,sans-Serif" font-size="10.00">pism::petsc::Wrapper</text>
<text text-anchor="middle" x="331" y="-301.5" font-family="Helvetica,sans-Serif" font-size="10.00">&lt; ::SNES &gt;</text>
</a>
</g>
</g>
<!-- Node1&#45;&gt;Node7 -->
<g id="edge6" class="edge">
<title>Node1&#45;&gt;Node7</title>
<path fill="none" stroke="orange" stroke-dasharray="5,2" d="M99.95,-226.33C118.02,-236.85 143.46,-250.77 167,-260.5 200.59,-274.38 239.53,-286.23 270.93,-294.8"/>
<polygon fill="orange" stroke="orange" points="101.62,-223.24 91.22,-221.17 98.06,-229.27 101.62,-223.24"/>
<text text-anchor="middle" x="210" y="-291.5" font-family="Helvetica,sans-Serif" font-size="10.00"> &lt; ::SNES &gt;</text>
</g>
<!-- Node9 -->
<g id="node9" class="node">
<title>Node9</title>
<g id="a_node9"><a xlink:href="classpism_1_1petsc_1_1Wrapper.html" target="_top" xlink:title=" ">
<polygon fill="none" stroke="black" points="271,-245.5 271,-275.5 391,-275.5 391,-245.5 271,-245.5"/>
<text text-anchor="start" x="279" y="-263.5" font-family="Helvetica,sans-Serif" font-size="10.00">pism::petsc::Wrapper</text>
<text text-anchor="middle" x="331" y="-252.5" font-family="Helvetica,sans-Serif" font-size="10.00">&lt; ::Mat &gt;</text>
</a>
</g>
</g>
<!-- Node1&#45;&gt;Node9 -->
<g id="edge8" class="edge">
<title>Node1&#45;&gt;Node9</title>
<path fill="none" stroke="orange" stroke-dasharray="5,2" d="M134.72,-222.9C175.69,-230.79 229.99,-241.25 270.93,-249.13"/>
<polygon fill="orange" stroke="orange" points="135.35,-219.46 124.87,-221.01 134.03,-226.33 135.35,-219.46"/>
<text text-anchor="middle" x="210" y="-248.5" font-family="Helvetica,sans-Serif" font-size="10.00"> &lt; ::Mat &gt;</text>
</g>
<!-- Node11 -->
<g id="node11" class="node">
<title>Node11</title>
<g id="a_node11"><a xlink:href="classpism_1_1petsc_1_1Wrapper.html" target="_top" xlink:title=" ">
<polygon fill="none" stroke="black" points="271,-196.5 271,-226.5 391,-226.5 391,-196.5 271,-196.5"/>
<text text-anchor="start" x="279" y="-214.5" font-family="Helvetica,sans-Serif" font-size="10.00">pism::petsc::Wrapper</text>
<text text-anchor="middle" x="331" y="-203.5" font-family="Helvetica,sans-Serif" font-size="10.00">&lt; ::VecScatter &gt;</text>
</a>
</g>
</g>
<!-- Node1&#45;&gt;Node11 -->
<g id="edge10" class="edge">
<title>Node1&#45;&gt;Node11</title>
<path fill="none" stroke="orange" stroke-dasharray="5,2" d="M159.23,-211.5C195.67,-211.5 237.51,-211.5 270.66,-211.5"/>
<polygon fill="orange" stroke="orange" points="159.11,-208 149.11,-211.5 159.11,-215 159.11,-208"/>
<text text-anchor="middle" x="210" y="-214.5" font-family="Helvetica,sans-Serif" font-size="10.00"> &lt; ::VecScatter &gt;</text>
</g>
<!-- Node13 -->
<g id="node13" class="node">
<title>Node13</title>
<g id="a_node13"><a xlink:href="classpism_1_1petsc_1_1Wrapper.html" target="_top" xlink:title=" ">
<polygon fill="none" stroke="black" points="271,-147.5 271,-177.5 391,-177.5 391,-147.5 271,-147.5"/>
<text text-anchor="start" x="279" y="-165.5" font-family="Helvetica,sans-Serif" font-size="10.00">pism::petsc::Wrapper</text>
<text text-anchor="middle" x="331" y="-154.5" font-family="Helvetica,sans-Serif" font-size="10.00">&lt; ::KSP &gt;</text>
</a>
</g>
</g>
<!-- Node1&#45;&gt;Node13 -->
<g id="edge12" class="edge">
<title>Node1&#45;&gt;Node13</title>
<path fill="none" stroke="orange" stroke-dasharray="5,2" d="M134.72,-200.1C175.69,-192.21 229.99,-181.75 270.93,-173.87"/>
<polygon fill="orange" stroke="orange" points="134.03,-196.67 124.87,-201.99 135.35,-203.54 134.03,-196.67"/>
<text text-anchor="middle" x="210" y="-196.5" font-family="Helvetica,sans-Serif" font-size="10.00"> &lt; ::KSP &gt;</text>
</g>
<!-- Node15 -->
<g id="node15" class="node">
<title>Node15</title>
<g id="a_node15"><a xlink:href="classpism_1_1petsc_1_1Wrapper.html" target="_top" xlink:title=" ">
<polygon fill="none" stroke="black" points="271,-98.5 271,-128.5 391,-128.5 391,-98.5 271,-98.5"/>
<text text-anchor="start" x="279" y="-116.5" font-family="Helvetica,sans-Serif" font-size="10.00">pism::petsc::Wrapper</text>
<text text-anchor="middle" x="331" y="-105.5" font-family="Helvetica,sans-Serif" font-size="10.00">&lt; ::IS &gt;</text>
</a>
</g>
</g>
<!-- Node1&#45;&gt;Node15 -->
<g id="edge14" class="edge">
<title>Node1&#45;&gt;Node15</title>
<path fill="none" stroke="orange" stroke-dasharray="5,2" d="M100.33,-196.86C118.4,-186.61 143.69,-173.09 167,-163.5 200.94,-149.53 240.25,-137.37 271.75,-128.53"/>
<polygon fill="orange" stroke="orange" points="98.52,-193.87 91.59,-201.89 102,-199.94 98.52,-193.87"/>
<text text-anchor="middle" x="210" y="-166.5" font-family="Helvetica,sans-Serif" font-size="10.00"> &lt; ::IS &gt;</text>
</g>
<!-- Node17 -->
<g id="node17" class="node">
<title>Node17</title>
<g id="a_node17"><a xlink:href="classpism_1_1petsc_1_1Wrapper.html" target="_top" xlink:title=" ">
<polygon fill="none" stroke="black" points="271,-49.5 271,-79.5 391,-79.5 391,-49.5 271,-49.5"/>
<text text-anchor="start" x="279" y="-67.5" font-family="Helvetica,sans-Serif" font-size="10.00">pism::petsc::Wrapper</text>
<text text-anchor="middle" x="331" y="-56.5" font-family="Helvetica,sans-Serif" font-size="10.00">&lt; PetscViewer &gt;</text>
</a>
</g>
</g>
<!-- Node1&#45;&gt;Node17 -->
<g id="edge16" class="edge">
<title>Node1&#45;&gt;Node17</title>
<path fill="none" stroke="orange" stroke-dasharray="5,2" d="M89.14,-193.73C105.58,-173.41 135.02,-140.41 167,-120.5 198.88,-100.65 238.68,-86.81 270.97,-77.85"/>
<polygon fill="orange" stroke="orange" points="86.19,-191.82 82.73,-201.83 91.68,-196.16 86.19,-191.82"/>
<text text-anchor="middle" x="210" y="-123.5" font-family="Helvetica,sans-Serif" font-size="10.00"> &lt; PetscViewer &gt;</text>
</g>
<!-- Node19 -->
<g id="node19" class="node">
<title>Node19</title>
<g id="a_node19"><a xlink:href="classpism_1_1petsc_1_1Wrapper.html" target="_top" xlink:title=" ">
<polygon fill="none" stroke="black" points="271,-0.5 271,-30.5 391,-30.5 391,-0.5 271,-0.5"/>
<text text-anchor="start" x="279" y="-18.5" font-family="Helvetica,sans-Serif" font-size="10.00">pism::petsc::Wrapper</text>
<text text-anchor="middle" x="331" y="-7.5" font-family="Helvetica,sans-Serif" font-size="10.00">&lt; ::Tao &gt;</text>
</a>
</g>
</g>
<!-- Node1&#45;&gt;Node19 -->
<g id="edge18" class="edge">
<title>Node1&#45;&gt;Node19</title>
<path fill="none" stroke="orange" stroke-dasharray="5,2" d="M82.72,-192.38C95.23,-161.78 123.82,-101.87 167,-68.5 197.02,-45.3 237.57,-32.06 270.71,-24.62"/>
<polygon fill="orange" stroke="orange" points="79.38,-191.3 78.97,-201.89 85.89,-193.87 79.38,-191.3"/>
<text text-anchor="middle" x="210" y="-71.5" font-family="Helvetica,sans-Serif" font-size="10.00"> &lt; ::Tao &gt;</text>
</g>
<!-- Node3 -->
<g id="node3" class="node">
<title>Node3</title>
<g id="a_node3"><a xlink:href="classpism_1_1petsc_1_1DM.html" target="_top" xlink:title=" ">
<polygon fill="none" stroke="black" points="446,-398 446,-417 541,-417 541,-398 446,-398"/>
<text text-anchor="middle" x="493.5" y="-405" font-family="Helvetica,sans-Serif" font-size="10.00">pism::petsc::DM</text>
</a>
</g>
</g>
<!-- Node2&#45;&gt;Node3 -->
<g id="edge2" class="edge">
<title>Node2&#45;&gt;Node3</title>
<path fill="none" stroke="midnightblue" d="M401.59,-407.5C416.59,-407.5 432.1,-407.5 445.97,-407.5"/>
<polygon fill="midnightblue" stroke="midnightblue" points="401.31,-404 391.31,-407.5 401.31,-411 401.31,-404"/>
</g>
<!-- Node5 -->
<g id="node5" class="node">
<title>Node5</title>
<g id="a_node5"><a xlink:href="classpism_1_1petsc_1_1Vec.html" target="_top" xlink:title=" ">
<polygon fill="none" stroke="black" points="445.5,-349 445.5,-368 541.5,-368 541.5,-349 445.5,-349"/>
<text text-anchor="middle" x="493.5" y="-356" font-family="Helvetica,sans-Serif" font-size="10.00">pism::petsc::Vec</text>
</a>
</g>
</g>
<!-- Node4&#45;&gt;Node5 -->
<g id="edge4" class="edge">
<title>Node4&#45;&gt;Node5</title>
<path fill="none" stroke="midnightblue" d="M401.49,-358.5C416.34,-358.5 431.69,-358.5 445.46,-358.5"/>
<polygon fill="midnightblue" stroke="midnightblue" points="401.31,-355 391.31,-358.5 401.31,-362 401.31,-355"/>
</g>
<!-- Node6 -->
<g id="node6" class="node">
<title>Node6</title>
<g id="a_node6"><a xlink:href="classpism_1_1petsc_1_1TemporaryGlobalVec.html" target="_top" xlink:title=" ">
<polygon fill="none" stroke="black" points="596,-349 596,-368 775,-368 775,-349 596,-349"/>
<text text-anchor="middle" x="685.5" y="-356" font-family="Helvetica,sans-Serif" font-size="10.00">pism::petsc::TemporaryGlobalVec</text>
</a>
</g>
</g>
<!-- Node5&#45;&gt;Node6 -->
<g id="edge5" class="edge">
<title>Node5&#45;&gt;Node6</title>
<path fill="none" stroke="midnightblue" d="M552.23,-358.5C566,-358.5 581.03,-358.5 595.84,-358.5"/>
<polygon fill="midnightblue" stroke="midnightblue" points="551.95,-355 541.95,-358.5 551.95,-362 551.95,-355"/>
</g>
<!-- Node8 -->
<g id="node8" class="node">
<title>Node8</title>
<g id="a_node8"><a xlink:href="classpism_1_1petsc_1_1SNES.html" target="_top" xlink:title=" ">
<polygon fill="none" stroke="black" points="441.5,-300 441.5,-319 545.5,-319 545.5,-300 441.5,-300"/>
<text text-anchor="middle" x="493.5" y="-307" font-family="Helvetica,sans-Serif" font-size="10.00">pism::petsc::SNES</text>
</a>
</g>
</g>
<!-- Node7&#45;&gt;Node8 -->
<g id="edge7" class="edge">
<title>Node7&#45;&gt;Node8</title>
<path fill="none" stroke="midnightblue" d="M401.45,-309.5C414.85,-309.5 428.66,-309.5 441.35,-309.5"/>
<polygon fill="midnightblue" stroke="midnightblue" points="401.31,-306 391.31,-309.5 401.31,-313 401.31,-306"/>
</g>
<!-- Node10 -->
<g id="node10" class="node">
<title>Node10</title>
<g id="a_node10"><a xlink:href="classpism_1_1petsc_1_1Mat.html" target="_top" xlink:title=" ">
<polygon fill="none" stroke="black" points="444.5,-251 444.5,-270 542.5,-270 542.5,-251 444.5,-251"/>
<text text-anchor="middle" x="493.5" y="-258" font-family="Helvetica,sans-Serif" font-size="10.00">pism::petsc::Mat</text>
</a>
</g>
</g>
<!-- Node9&#45;&gt;Node10 -->
<g id="edge9" class="edge">
<title>Node9&#45;&gt;Node10</title>
<path fill="none" stroke="midnightblue" d="M401.7,-260.5C416.12,-260.5 431,-260.5 444.44,-260.5"/>
<polygon fill="midnightblue" stroke="midnightblue" points="401.31,-257 391.31,-260.5 401.31,-264 401.31,-257"/>
</g>
<!-- Node12 -->
<g id="node12" class="node">
<title>Node12</title>
<g id="a_node12"><a xlink:href="classpism_1_1petsc_1_1VecScatter.html" target="_top" xlink:title=" ">
<polygon fill="none" stroke="black" points="428,-202 428,-221 559,-221 559,-202 428,-202"/>
<text text-anchor="middle" x="493.5" y="-209" font-family="Helvetica,sans-Serif" font-size="10.00">pism::petsc::VecScatter</text>
</a>
</g>
</g>
<!-- Node11&#45;&gt;Node12 -->
<g id="edge11" class="edge">
<title>Node11&#45;&gt;Node12</title>
<path fill="none" stroke="midnightblue" d="M401.46,-211.5C410.2,-211.5 419.11,-211.5 427.77,-211.5"/>
<polygon fill="midnightblue" stroke="midnightblue" points="401.31,-208 391.31,-211.5 401.31,-215 401.31,-208"/>
</g>
<!-- Node14 -->
<g id="node14" class="node">
<title>Node14</title>
<g id="a_node14"><a xlink:href="classpism_1_1petsc_1_1KSP.html" target="_top" xlink:title=" ">
<polygon fill="none" stroke="black" points="444.5,-153 444.5,-172 542.5,-172 542.5,-153 444.5,-153"/>
<text text-anchor="middle" x="493.5" y="-160" font-family="Helvetica,sans-Serif" font-size="10.00">pism::petsc::KSP</text>
</a>
</g>
</g>
<!-- Node13&#45;&gt;Node14 -->
<g id="edge13" class="edge">
<title>Node13&#45;&gt;Node14</title>
<path fill="none" stroke="midnightblue" d="M401.7,-162.5C416.12,-162.5 431,-162.5 444.44,-162.5"/>
<polygon fill="midnightblue" stroke="midnightblue" points="401.31,-159 391.31,-162.5 401.31,-166 401.31,-159"/>
</g>
<!-- Node16 -->
<g id="node16" class="node">
<title>Node16</title>
<g id="a_node16"><a xlink:href="classpism_1_1petsc_1_1IS.html" target="_top" xlink:title=" ">
<polygon fill="none" stroke="black" points="449.5,-104 449.5,-123 537.5,-123 537.5,-104 449.5,-104"/>
<text text-anchor="middle" x="493.5" y="-111" font-family="Helvetica,sans-Serif" font-size="10.00">pism::petsc::IS</text>
</a>
</g>
</g>
<!-- Node15&#45;&gt;Node16 -->
<g id="edge15" class="edge">
<title>Node15&#45;&gt;Node16</title>
<path fill="none" stroke="midnightblue" d="M401.38,-113.5C417.73,-113.5 434.69,-113.5 449.48,-113.5"/>
<polygon fill="midnightblue" stroke="midnightblue" points="401.31,-110 391.31,-113.5 401.31,-117 401.31,-110"/>
</g>
<!-- Node18 -->
<g id="node18" class="node">
<title>Node18</title>
<g id="a_node18"><a xlink:href="classpism_1_1petsc_1_1Viewer.html" target="_top" xlink:title=" ">
<polygon fill="none" stroke="black" points="437,-55 437,-74 550,-74 550,-55 437,-55"/>
<text text-anchor="middle" x="493.5" y="-62" font-family="Helvetica,sans-Serif" font-size="10.00">pism::petsc::Viewer</text>
</a>
</g>
</g>
<!-- Node17&#45;&gt;Node18 -->
<g id="edge17" class="edge">
<title>Node17&#45;&gt;Node18</title>
<path fill="none" stroke="midnightblue" d="M401.58,-64.5C413.39,-64.5 425.51,-64.5 436.9,-64.5"/>
<polygon fill="midnightblue" stroke="midnightblue" points="401.31,-61 391.31,-64.5 401.31,-68 401.31,-61"/>
</g>
<!-- Node20 -->
<g id="node20" class="node">
<title>Node20</title>
<g id="a_node20"><a xlink:href="classpism_1_1petsc_1_1Tao.html" target="_top" xlink:title=" ">
<polygon fill="none" stroke="black" points="446,-6 446,-25 541,-25 541,-6 446,-6"/>
<text text-anchor="middle" x="493.5" y="-13" font-family="Helvetica,sans-Serif" font-size="10.00">pism::petsc::Tao</text>
</a>
</g>
</g>
<!-- Node19&#45;&gt;Node20 -->
<g id="edge19" class="edge">
<title>Node19&#45;&gt;Node20</title>
<path fill="none" stroke="midnightblue" d="M401.59,-15.5C416.59,-15.5 432.1,-15.5 445.97,-15.5"/>
<polygon fill="midnightblue" stroke="midnightblue" points="401.31,-12 391.31,-15.5 401.31,-19 401.31,-12"/>
</g>
</g>
</svg>
