<?xml version="1.0" encoding="UTF-8" standalone="no"?>
<!DOCTYPE svg PUBLIC "-//W3C//DTD SVG 1.1//EN"
 "http://www.w3.org/Graphics/SVG/1.1/DTD/svg11.dtd">
<!-- Generated by graphviz version 2.43.0 (0)
 -->
<!-- Title: pism::IceModelVec Pages: 1 -->
<svg width="946pt" height="356pt"
 viewBox="0.00 0.00 946.00 356.00" xmlns="http://www.w3.org/2000/svg" xmlns:xlink="http://www.w3.org/1999/xlink">
<g id="graph0" class="graph" transform="scale(1 1) rotate(0) translate(4 352)">
<title>pism::IceModelVec</title>
<!-- Node1 -->
<g id="node1" class="node">
<title>Node1</title>
<g id="a_node1"><a xlink:title="Abstract class for reading, writing, allocating, and accessing a DA&#45;based PETSc Vec (2D and 3D fields...">
<polygon fill="#bfbfbf" stroke="black" points="162,-162.5 162,-181.5 270,-181.5 270,-162.5 162,-162.5"/>
<text text-anchor="middle" x="216" y="-169.5" font-family="Helvetica,sans-Serif" font-size="10.00">pism::IceModelVec</text>
</a>
</g>
</g>
<!-- Node3 -->
<g id="node3" class="node">
<title>Node3</title>
<g id="a_node3"><a xlink:href="classpism_1_1IceModelVec2.html" target="_top" xlink:title=" ">
<polygon fill="none" stroke="black" points="608,-306.5 608,-347.5 746,-347.5 746,-306.5 608,-306.5"/>
<text text-anchor="start" x="616" y="-335.5" font-family="Helvetica,sans-Serif" font-size="10.00">pism::IceModelVec2</text>
<text text-anchor="start" x="616" y="-324.5" font-family="Helvetica,sans-Serif" font-size="10.00">&lt; pism::stressbalance</text>
<text text-anchor="middle" x="677" y="-313.5" font-family="Helvetica,sans-Serif" font-size="10.00">::SSAFEM::Coefficients &gt;</text>
</a>
</g>
</g>
<!-- Node1&#45;&gt;Node3 -->
<g id="edge2" class="edge">
<title>Node1&#45;&gt;Node3</title>
<path fill="none" stroke="midnightblue" d="M231.58,-189.28C248.25,-208.17 277.1,-238.36 307,-258 371.92,-300.64 391.91,-310.4 468,-326 513.99,-335.43 566.91,-335.54 607.86,-333.36"/>
<polygon fill="midnightblue" stroke="midnightblue" points="234.21,-186.97 225.02,-181.71 228.92,-191.56 234.21,-186.97"/>
</g>
<!-- Node4 -->
<g id="node4" class="node">
<title>Node4</title>
<g id="a_node4"><a xlink:href="classpism_1_1IceModelVec2.html" target="_top" xlink:title=" ">
<polygon fill="none" stroke="black" points="620,-238 620,-268 734,-268 734,-238 620,-238"/>
<text text-anchor="start" x="628" y="-256" font-family="Helvetica,sans-Serif" font-size="10.00">pism::IceModelVec2</text>
<text text-anchor="middle" x="677" y="-245" font-family="Helvetica,sans-Serif" font-size="10.00">&lt; Vector2 &gt;</text>
</a>
</g>
</g>
<!-- Node1&#45;&gt;Node4 -->
<g id="edge3" class="edge">
<title>Node1&#45;&gt;Node4</title>
<path fill="none" stroke="midnightblue" d="M236.96,-187.86C254.44,-200.92 281.02,-218.88 307,-229 411.69,-269.77 545.68,-266.02 619.99,-259.56"/>
<polygon fill="midnightblue" stroke="midnightblue" points="238.78,-184.84 228.71,-181.54 234.52,-190.4 238.78,-184.84"/>
</g>
<!-- Node6 -->
<g id="node6" class="node">
<title>Node6</title>
<g id="a_node6"><a xlink:href="classpism_1_1IceModelVec2.html" target="_top" xlink:title=" ">
<polygon fill="none" stroke="black" points="614.5,-176.5 614.5,-217.5 739.5,-217.5 739.5,-176.5 614.5,-176.5"/>
<text text-anchor="start" x="622.5" y="-205.5" font-family="Helvetica,sans-Serif" font-size="10.00">pism::IceModelVec2</text>
<text text-anchor="start" x="622.5" y="-194.5" font-family="Helvetica,sans-Serif" font-size="10.00">&lt; pism::stressbalance</text>
<text text-anchor="middle" x="677" y="-183.5" font-family="Helvetica,sans-Serif" font-size="10.00">::SSAFD::Work &gt;</text>
</a>
</g>
</g>
<!-- Node1&#45;&gt;Node6 -->
<g id="edge5" class="edge">
<title>Node1&#45;&gt;Node6</title>
<path fill="none" stroke="midnightblue" d="M280.23,-175.44C368.32,-180.24 526.98,-188.88 614.27,-193.64"/>
<polygon fill="midnightblue" stroke="midnightblue" points="280.28,-171.94 270.1,-174.89 279.9,-178.93 280.28,-171.94"/>
</g>
<!-- Node7 -->
<g id="node7" class="node">
<title>Node7</title>
<g id="a_node7"><a xlink:href="classpism_1_1IceModelVec2.html" target="_top" xlink:title=" ">
<polygon fill="none" stroke="black" points="613,-114.5 613,-155.5 741,-155.5 741,-114.5 613,-114.5"/>
<text text-anchor="start" x="621" y="-143.5" font-family="Helvetica,sans-Serif" font-size="10.00">pism::IceModelVec2</text>
<text text-anchor="start" x="621" y="-132.5" font-family="Helvetica,sans-Serif" font-size="10.00">&lt; pism::stressbalance</text>
<text text-anchor="middle" x="677" y="-121.5" font-family="Helvetica,sans-Serif" font-size="10.00">::Blatter::Parameters &gt;</text>
</a>
</g>
</g>
<!-- Node1&#45;&gt;Node7 -->
<g id="edge6" class="edge">
<title>Node1&#45;&gt;Node7</title>
<path fill="none" stroke="midnightblue" d="M280.42,-163.72C331.1,-157.4 403.99,-148.95 468,-144 516.47,-140.25 571.42,-137.96 612.67,-136.62"/>
<polygon fill="midnightblue" stroke="midnightblue" points="279.76,-160.28 270.27,-165 280.63,-167.22 279.76,-160.28"/>
</g>
<!-- Node8 -->
<g id="node8" class="node">
<title>Node8</title>
<g id="a_node8"><a xlink:href="classpism_1_1IceModelVec2.html" target="_top" xlink:title="A storage vector combining related fields in a struct.">
<polygon fill="none" stroke="black" points="307,-200.5 307,-219.5 450,-219.5 450,-200.5 307,-200.5"/>
<text text-anchor="middle" x="378.5" y="-207.5" font-family="Helvetica,sans-Serif" font-size="10.00">pism::IceModelVec2&lt; T &gt;</text>
</a>
</g>
</g>
<!-- Node1&#45;&gt;Node8 -->
<g id="edge7" class="edge">
<title>Node1&#45;&gt;Node8</title>
<path fill="none" stroke="midnightblue" d="M267.25,-183.9C289.81,-189.24 316.06,-195.45 337.29,-200.48"/>
<polygon fill="midnightblue" stroke="midnightblue" points="268.04,-180.49 257.5,-181.59 266.43,-187.3 268.04,-180.49"/>
</g>
<!-- Node9 -->
<g id="node9" class="node">
<title>Node9</title>
<g id="a_node9"><a xlink:href="classpism_1_1IceModelVec2S.html" target="_top" xlink:title=" ">
<polygon fill="none" stroke="black" points="318.5,-54.5 318.5,-73.5 438.5,-73.5 438.5,-54.5 318.5,-54.5"/>
<text text-anchor="middle" x="378.5" y="-61.5" font-family="Helvetica,sans-Serif" font-size="10.00">pism::IceModelVec2S</text>
</a>
</g>
</g>
<!-- Node1&#45;&gt;Node9 -->
<g id="edge12" class="edge">
<title>Node1&#45;&gt;Node9</title>
<path fill="none" stroke="midnightblue" d="M227.81,-153.54C240.02,-134.32 261.66,-104.72 288,-88 297.92,-81.71 309.45,-77.05 320.88,-73.61"/>
<polygon fill="midnightblue" stroke="midnightblue" points="224.69,-151.93 222.45,-162.28 230.66,-155.59 224.69,-151.93"/>
</g>
<!-- Node13 -->
<g id="node13" class="node">
<title>Node13</title>
<g id="a_node13"><a xlink:href="classpism_1_1IceModelVec3.html" target="_top" xlink:title="A virtual class collecting methods common to ice and bedrock 3D fields.">
<polygon fill="none" stroke="black" points="321.5,-8.5 321.5,-27.5 435.5,-27.5 435.5,-8.5 321.5,-8.5"/>
<text text-anchor="middle" x="378.5" y="-15.5" font-family="Helvetica,sans-Serif" font-size="10.00">pism::IceModelVec3</text>
</a>
</g>
</g>
<!-- Node1&#45;&gt;Node13 -->
<g id="edge16" class="edge">
<title>Node1&#45;&gt;Node13</title>
<path fill="none" stroke="midnightblue" d="M225.93,-152.95C239.69,-125.5 268.57,-74.82 307,-45 316.84,-37.37 329.08,-31.68 340.59,-27.55"/>
<polygon fill="midnightblue" stroke="midnightblue" points="222.63,-151.73 221.4,-162.25 228.93,-154.79 222.63,-151.73"/>
</g>
<!-- Node2 -->
<g id="node2" class="node">
<title>Node2</title>
<g id="a_node2"><a xlink:href="classpism_1_1PetscAccessible.html" target="_top" xlink:title=" ">
<polygon fill="none" stroke="black" points="0,-162.5 0,-181.5 125,-181.5 125,-162.5 0,-162.5"/>
<text text-anchor="middle" x="62.5" y="-169.5" font-family="Helvetica,sans-Serif" font-size="10.00">pism::PetscAccessible</text>
</a>
</g>
</g>
<!-- Node2&#45;&gt;Node1 -->
<g id="edge1" class="edge">
<title>Node2&#45;&gt;Node1</title>
<path fill="none" stroke="midnightblue" d="M135.15,-172C144.09,-172 153.1,-172 161.69,-172"/>
<polygon fill="midnightblue" stroke="midnightblue" points="135.12,-168.5 125.12,-172 135.12,-175.5 135.12,-168.5"/>
</g>
<!-- Node5 -->
<g id="node5" class="node">
<title>Node5</title>
<g id="a_node5"><a xlink:href="classpism_1_1IceModelVec2V.html" target="_top" xlink:title=" ">
<polygon fill="none" stroke="black" points="800,-243.5 800,-262.5 921,-262.5 921,-243.5 800,-243.5"/>
<text text-anchor="middle" x="860.5" y="-250.5" font-family="Helvetica,sans-Serif" font-size="10.00">pism::IceModelVec2V</text>
</a>
</g>
</g>
<!-- Node4&#45;&gt;Node5 -->
<g id="edge4" class="edge">
<title>Node4&#45;&gt;Node5</title>
<path fill="none" stroke="midnightblue" d="M744.63,-253C762.75,-253 782.26,-253 799.96,-253"/>
<polygon fill="midnightblue" stroke="midnightblue" points="744.43,-249.5 734.43,-253 744.43,-256.5 744.43,-249.5"/>
</g>
<!-- Node8&#45;&gt;Node3 -->
<g id="edge8" class="edge">
<title>Node8&#45;&gt;Node3</title>
<path fill="none" stroke="orange" stroke-dasharray="5,2" d="M404.01,-224.82C421.45,-234.98 445.67,-248.33 468,-258 513.56,-277.73 566.72,-295.27 607.9,-307.74"/>
<polygon fill="orange" stroke="orange" points="405.46,-221.61 395.07,-219.54 401.9,-227.64 405.46,-221.61"/>
<text text-anchor="start" x="468" y="-314" font-family="Helvetica,sans-Serif" font-size="10.00"> &lt; pism::stressbalance</text>
<text text-anchor="middle" x="529" y="-303" font-family="Helvetica,sans-Serif" font-size="10.00">::SSAFEM::Coefficients &gt;</text>
</g>
<!-- Node8&#45;&gt;Node4 -->
<g id="edge9" class="edge">
<title>Node8&#45;&gt;Node4</title>
<path fill="none" stroke="orange" stroke-dasharray="5,2" d="M432.97,-221.6C444.49,-223.9 456.63,-226.16 468,-228 519.17,-236.26 577.82,-243.07 619.77,-247.49"/>
<polygon fill="orange" stroke="orange" points="433.53,-218.14 423.04,-219.59 432.14,-225 433.53,-218.14"/>
<text text-anchor="middle" x="529" y="-246" font-family="Helvetica,sans-Serif" font-size="10.00"> &lt; Vector2 &gt;</text>
</g>
<!-- Node8&#45;&gt;Node6 -->
<g id="edge10" class="edge">
<title>Node8&#45;&gt;Node6</title>
<path fill="none" stroke="orange" stroke-dasharray="5,2" d="M460.23,-206.34C462.85,-206.23 465.45,-206.11 468,-206 517.11,-203.83 572.74,-201.42 614.11,-199.65"/>
<polygon fill="orange" stroke="orange" points="459.86,-202.86 450.03,-206.8 460.17,-209.85 459.86,-202.86"/>
<text text-anchor="start" x="473" y="-220" font-family="Helvetica,sans-Serif" font-size="10.00"> &lt; pism::stressbalance</text>
<text text-anchor="middle" x="529" y="-209" font-family="Helvetica,sans-Serif" font-size="10.00">::SSAFD::Work &gt;</text>
</g>
<!-- Node8&#45;&gt;Node7 -->
<g id="edge11" class="edge">
<title>Node8&#45;&gt;Node7</title>
<path fill="none" stroke="orange" stroke-dasharray="5,2" d="M409.18,-196.18C426.12,-188.74 447.91,-179.9 468,-174 515.76,-159.96 571.24,-149.86 612.88,-143.46"/>
<polygon fill="orange" stroke="orange" points="407.52,-193.09 399.82,-200.36 410.38,-199.48 407.52,-193.09"/>
<text text-anchor="start" x="473" y="-188" font-family="Helvetica,sans-Serif" font-size="10.00"> &lt; pism::stressbalance</text>
<text text-anchor="middle" x="529" y="-177" font-family="Helvetica,sans-Serif" font-size="10.00">::Blatter::Parameters &gt;</text>
</g>
<!-- Node10 -->
<g id="node10" class="node">
<title>Node10</title>
<g id="a_node10"><a xlink:href="classpism_1_1IceModelVec2Int.html" target="_top" xlink:title="A simple class &quot;hiding&quot; the fact that the mask is stored as floating&#45;point scalars (instead of intege...">
<polygon fill="none" stroke="black" points="613.5,-76.5 613.5,-95.5 740.5,-95.5 740.5,-76.5 613.5,-76.5"/>
<text text-anchor="middle" x="677" y="-83.5" font-family="Helvetica,sans-Serif" font-size="10.00">pism::IceModelVec2Int</text>
</a>
</g>
</g>
<!-- Node9&#45;&gt;Node10 -->
<g id="edge13" class="edge">
<title>Node9&#45;&gt;Node10</title>
<path fill="none" stroke="midnightblue" d="M448.84,-69.14C498.67,-72.84 565.29,-77.79 613.49,-81.36"/>
<polygon fill="midnightblue" stroke="midnightblue" points="449.02,-65.65 438.79,-68.4 448.5,-72.63 449.02,-65.65"/>
</g>
<!-- Node12 -->
<g id="node12" class="node">
<title>Node12</title>
<g id="a_node12"><a xlink:href="classpism_1_1IceModelVec2T.html" target="_top" xlink:title="A class for storing and accessing 2D time&#45;series (for climate forcing)">
<polygon fill="none" stroke="black" points="617,-38.5 617,-57.5 737,-57.5 737,-38.5 617,-38.5"/>
<text text-anchor="middle" x="677" y="-45.5" font-family="Helvetica,sans-Serif" font-size="10.00">pism::IceModelVec2T</text>
</a>
</g>
</g>
<!-- Node9&#45;&gt;Node12 -->
<g id="edge15" class="edge">
<title>Node9&#45;&gt;Node12</title>
<path fill="none" stroke="midnightblue" d="M449.06,-60.25C500.03,-57.5 568.46,-53.8 616.81,-51.19"/>
<polygon fill="midnightblue" stroke="midnightblue" points="448.59,-56.77 438.79,-60.8 448.96,-63.76 448.59,-56.77"/>
</g>
<!-- Node11 -->
<g id="node11" class="node">
<title>Node11</title>
<g id="a_node11"><a xlink:href="classpism_1_1IceModelVec2CellType.html" target="_top" xlink:title="&quot;Cell type&quot; mask. Adds convenience methods to IceModelVec2Int.">
<polygon fill="none" stroke="black" points="783,-76.5 783,-95.5 938,-95.5 938,-76.5 783,-76.5"/>
<text text-anchor="middle" x="860.5" y="-83.5" font-family="Helvetica,sans-Serif" font-size="10.00">pism::IceModelVec2CellType</text>
</a>
</g>
</g>
<!-- Node10&#45;&gt;Node11 -->
<g id="edge14" class="edge">
<title>Node10&#45;&gt;Node11</title>
<path fill="none" stroke="midnightblue" d="M750.76,-86C761.37,-86 772.32,-86 783,-86"/>
<polygon fill="midnightblue" stroke="midnightblue" points="750.72,-82.5 740.72,-86 750.72,-89.5 750.72,-82.5"/>
</g>
<!-- Node14 -->
<g id="node14" class="node">
<title>Node14</title>
<g id="a_node14"><a xlink:href="classpism_1_1IceModelVec2Stag.html" target="_top" xlink:title="A class for storing and accessing internal staggered&#45;grid 2D fields. Uses dof=2 storage....">
<polygon fill="none" stroke="black" points="609,-0.5 609,-19.5 745,-19.5 745,-0.5 609,-0.5"/>
<text text-anchor="middle" x="677" y="-7.5" font-family="Helvetica,sans-Serif" font-size="10.00">pism::IceModelVec2Stag</text>
</a>
</g>
</g>
<!-- Node13&#45;&gt;Node14 -->
<g id="edge17" class="edge">
<title>Node13&#45;&gt;Node14</title>
<path fill="none" stroke="midnightblue" d="M445.72,-16.21C494.34,-14.9 560.14,-13.13 608.95,-11.81"/>
<polygon fill="midnightblue" stroke="midnightblue" points="445.52,-12.72 435.62,-16.49 445.71,-19.71 445.52,-12.72"/>
</g>
</g>
</svg>
