<?xml version="1.0" encoding="UTF-8" standalone="no"?>
<!DOCTYPE svg PUBLIC "-//W3C//DTD SVG 1.1//EN"
 "http://www.w3.org/Graphics/SVG/1.1/DTD/svg11.dtd">
<!-- Generated by graphviz version 2.43.0 (0)
 -->
<!-- Title: pism::PCFactory&lt; Model &gt; Pages: 1 -->
<svg width="681pt" height="230pt"
 viewBox="0.00 0.00 681.00 230.00" xmlns="http://www.w3.org/2000/svg" xmlns:xlink="http://www.w3.org/1999/xlink">
<g id="graph0" class="graph" transform="scale(1 1) rotate(0) translate(4 226)">
<title>pism::PCFactory&lt; Model &gt;</title>
<!-- Node1 -->
<g id="Node000001" class="node">
<title>Node1</title>
<g id="a_Node000001"><a xlink:title=" ">
<polygon fill="#999999" stroke="#666666" points="147,-120.5 0,-120.5 0,-101.5 147,-101.5 147,-120.5"/>
<text text-anchor="middle" x="73.5" y="-108.5" font-family="Helvetica,sans-Serif" font-size="10.00">pism::PCFactory&lt; Model &gt;</text>
</a>
</g>
</g>
<!-- Node2 -->
<g id="Node000002" class="node">
<title>Node2</title>
<g id="a_Node000002"><a xlink:href="classpism_1_1PCFactory.html" target="_top" xlink:title=" ">
<polygon fill="white" stroke="#666666" points="490,-222 325,-222 325,-192 490,-192 490,-222"/>
<text text-anchor="start" x="333" y="-210" font-family="Helvetica,sans-Serif" font-size="10.00">pism::PCFactory&lt; Atmosphere</text>
<text text-anchor="middle" x="407.5" y="-199" font-family="Helvetica,sans-Serif" font-size="10.00">Model &gt;</text>
</a>
</g>
</g>
<!-- Node1&#45;&gt;Node2 -->
<g id="edge1_Node000001_Node000002" class="edge">
<title>Node1&#45;&gt;Node2</title>
<g id="a_edge1_Node000001_Node000002"><a xlink:title=" ">
<path fill="none" stroke="orange" stroke-dasharray="5,2" d="M97.43,-125.96C115.2,-136.92 140.8,-151.32 165,-160 216.67,-178.52 277.31,-190.29 324.91,-197.42"/>
<polygon fill="orange" stroke="orange" points="99.23,-122.96 88.9,-120.6 95.51,-128.89 99.23,-122.96"/>
</a>
</g>
<text text-anchor="middle" x="236" y="-197" font-family="Helvetica,sans-Serif" font-size="10.00" fill="grey"> &lt; AtmosphereModel &gt;</text>
</g>
<!-- Node4 -->
<g id="Node000004" class="node">
<title>Node4</title>
<g id="a_Node000004"><a xlink:href="classpism_1_1PCFactory.html" target="_top" xlink:title=" ">
<polygon fill="white" stroke="#666666" points="488,-174 327,-174 327,-144 488,-144 488,-174"/>
<text text-anchor="start" x="335" y="-162" font-family="Helvetica,sans-Serif" font-size="10.00">pism::PCFactory&lt; frontalmelt</text>
<text text-anchor="middle" x="407.5" y="-151" font-family="Helvetica,sans-Serif" font-size="10.00">::FrontalMelt &gt;</text>
</a>
</g>
</g>
<!-- Node1&#45;&gt;Node4 -->
<g id="edge3_Node000001_Node000004" class="edge">
<title>Node1&#45;&gt;Node4</title>
<g id="a_edge3_Node000001_Node000004"><a xlink:title=" ">
<path fill="none" stroke="orange" stroke-dasharray="5,2" d="M140.46,-122.16C148.72,-123.49 157.05,-124.8 165,-126 218.87,-134.14 279.64,-142.44 326.74,-148.68"/>
<polygon fill="orange" stroke="orange" points="140.89,-118.68 130.46,-120.53 139.77,-125.59 140.89,-118.68"/>
</a>
</g>
<text text-anchor="middle" x="236" y="-148" font-family="Helvetica,sans-Serif" font-size="10.00" fill="grey"> &lt; frontalmelt::FrontalMelt &gt;</text>
</g>
<!-- Node6 -->
<g id="Node000006" class="node">
<title>Node6</title>
<g id="a_Node000006"><a xlink:href="classpism_1_1PCFactory.html" target="_top" xlink:title=" ">
<polygon fill="white" stroke="#666666" points="475,-126 340,-126 340,-96 475,-96 475,-126"/>
<text text-anchor="start" x="348" y="-114" font-family="Helvetica,sans-Serif" font-size="10.00">pism::PCFactory&lt; ocean</text>
<text text-anchor="middle" x="407.5" y="-103" font-family="Helvetica,sans-Serif" font-size="10.00">::OceanModel &gt;</text>
</a>
</g>
</g>
<!-- Node1&#45;&gt;Node6 -->
<g id="edge5_Node000001_Node000006" class="edge">
<title>Node1&#45;&gt;Node6</title>
<g id="a_edge5_Node000001_Node000006"><a xlink:title=" ">
<path fill="none" stroke="orange" stroke-dasharray="5,2" d="M157.66,-111C213.93,-111 287.28,-111 339.74,-111"/>
<polygon fill="orange" stroke="orange" points="157.36,-107.5 147.36,-111 157.36,-114.5 157.36,-107.5"/>
</a>
</g>
<text text-anchor="middle" x="236" y="-114" font-family="Helvetica,sans-Serif" font-size="10.00" fill="grey"> &lt; ocean::OceanModel &gt;</text>
</g>
<!-- Node8 -->
<g id="Node000008" class="node">
<title>Node8</title>
<g id="a_Node000008"><a xlink:href="classpism_1_1PCFactory.html" target="_top" xlink:title=" ">
<polygon fill="white" stroke="#666666" points="475,-78 340,-78 340,-48 475,-48 475,-78"/>
<text text-anchor="start" x="348" y="-66" font-family="Helvetica,sans-Serif" font-size="10.00">pism::PCFactory&lt; ocean</text>
<text text-anchor="middle" x="407.5" y="-55" font-family="Helvetica,sans-Serif" font-size="10.00">::sea_level::SeaLevel &gt;</text>
</a>
</g>
</g>
<!-- Node1&#45;&gt;Node8 -->
<g id="edge7_Node000001_Node000008" class="edge">
<title>Node1&#45;&gt;Node8</title>
<g id="a_edge7_Node000001_Node000008"><a xlink:title=" ">
<path fill="none" stroke="orange" stroke-dasharray="5,2" d="M112.29,-98.42C128.37,-93.51 147.44,-88.29 165,-85 223.55,-74.02 291.16,-68.46 339.92,-65.68"/>
<polygon fill="orange" stroke="orange" points="111.21,-95.09 102.7,-101.41 113.29,-101.77 111.21,-95.09"/>
</a>
</g>
<text text-anchor="start" x="187.5" y="-99" font-family="Helvetica,sans-Serif" font-size="10.00" fill="grey"> &lt; ocean::sea_level</text>
<text text-anchor="middle" x="236" y="-88" font-family="Helvetica,sans-Serif" font-size="10.00" fill="grey">::SeaLevel &gt;</text>
</g>
<!-- Node10 -->
<g id="Node000010" class="node">
<title>Node10</title>
<g id="a_Node000010"><a xlink:href="classpism_1_1PCFactory.html" target="_top" xlink:title=" ">
<polygon fill="white" stroke="#666666" points="479,-30 336,-30 336,0 479,0 479,-30"/>
<text text-anchor="start" x="344" y="-18" font-family="Helvetica,sans-Serif" font-size="10.00">pism::PCFactory&lt; Surface</text>
<text text-anchor="middle" x="407.5" y="-7" font-family="Helvetica,sans-Serif" font-size="10.00">Model &gt;</text>
</a>
</g>
</g>
<!-- Node1&#45;&gt;Node10 -->
<g id="edge9_Node000001_Node000010" class="edge">
<title>Node1&#45;&gt;Node10</title>
<g id="a_edge9_Node000001_Node000010"><a xlink:title=" ">
<path fill="none" stroke="orange" stroke-dasharray="5,2" d="M94.19,-94.94C111.7,-81.53 138.56,-63.04 165,-53 220.15,-32.05 286.61,-22.65 335.84,-18.43"/>
<polygon fill="orange" stroke="orange" points="91.64,-92.49 85.94,-101.41 95.96,-97.99 91.64,-92.49"/>
</a>
</g>
<text text-anchor="middle" x="236" y="-56" font-family="Helvetica,sans-Serif" font-size="10.00" fill="grey"> &lt; SurfaceModel &gt;</text>
</g>
<!-- Node3 -->
<g id="Node000003" class="node">
<title>Node3</title>
<g id="a_Node000003"><a xlink:href="classpism_1_1atmosphere_1_1Factory.html" target="_top" xlink:title=" ">
<polygon fill="white" stroke="#666666" points="673,-216.5 527,-216.5 527,-197.5 673,-197.5 673,-216.5"/>
<text text-anchor="middle" x="600" y="-204.5" font-family="Helvetica,sans-Serif" font-size="10.00">pism::atmosphere::Factory</text>
</a>
</g>
</g>
<!-- Node2&#45;&gt;Node3 -->
<g id="edge2_Node000002_Node000003" class="edge">
<title>Node2&#45;&gt;Node3</title>
<g id="a_edge2_Node000002_Node000003"><a xlink:title=" ">
<path fill="none" stroke="#63b8ff" d="M500.19,-207C509.15,-207 518.14,-207 526.87,-207"/>
<polygon fill="#63b8ff" stroke="#63b8ff" points="500.12,-203.5 490.12,-207 500.12,-210.5 500.12,-203.5"/>
</a>
</g>
</g>
<!-- Node5 -->
<g id="Node000005" class="node">
<title>Node5</title>
<g id="a_Node000005"><a xlink:href="classpism_1_1frontalmelt_1_1Factory.html" target="_top" xlink:title=" ">
<polygon fill="white" stroke="#666666" points="653.5,-174 546.5,-174 546.5,-144 653.5,-144 653.5,-174"/>
<text text-anchor="start" x="554.5" y="-162" font-family="Helvetica,sans-Serif" font-size="10.00">pism::frontalmelt::</text>
<text text-anchor="middle" x="600" y="-151" font-family="Helvetica,sans-Serif" font-size="10.00">Factory</text>
</a>
</g>
</g>
<!-- Node4&#45;&gt;Node5 -->
<g id="edge4_Node000004_Node000005" class="edge">
<title>Node4&#45;&gt;Node5</title>
<g id="a_edge4_Node000004_Node000005"><a xlink:title=" ">
<path fill="none" stroke="#63b8ff" d="M498.39,-159C514.86,-159 531.55,-159 546.47,-159"/>
<polygon fill="#63b8ff" stroke="#63b8ff" points="498.19,-155.5 488.19,-159 498.19,-162.5 498.19,-155.5"/>
</a>
</g>
</g>
<!-- Node7 -->
<g id="Node000007" class="node">
<title>Node7</title>
<g id="a_Node000007"><a xlink:href="classpism_1_1ocean_1_1Factory.html" target="_top" xlink:title=" ">
<polygon fill="white" stroke="#666666" points="658.5,-120.5 541.5,-120.5 541.5,-101.5 658.5,-101.5 658.5,-120.5"/>
<text text-anchor="middle" x="600" y="-108.5" font-family="Helvetica,sans-Serif" font-size="10.00">pism::ocean::Factory</text>
</a>
</g>
</g>
<!-- Node6&#45;&gt;Node7 -->
<g id="edge6_Node000006_Node000007" class="edge">
<title>Node6&#45;&gt;Node7</title>
<g id="a_edge6_Node000006_Node000007"><a xlink:title=" ">
<path fill="none" stroke="#63b8ff" d="M485.38,-111C504.04,-111 523.68,-111 541.28,-111"/>
<polygon fill="#63b8ff" stroke="#63b8ff" points="485.13,-107.5 475.13,-111 485.13,-114.5 485.13,-107.5"/>
</a>
</g>
</g>
<!-- Node9 -->
<g id="Node000009" class="node">
<title>Node9</title>
<g id="a_Node000009"><a xlink:href="classpism_1_1ocean_1_1sea__level_1_1Factory.html" target="_top" xlink:title=" ">
<polygon fill="white" stroke="#666666" points="664,-78 536,-78 536,-48 664,-48 664,-78"/>
<text text-anchor="start" x="544" y="-66" font-family="Helvetica,sans-Serif" font-size="10.00">pism::ocean::sea_level</text>
<text text-anchor="middle" x="600" y="-55" font-family="Helvetica,sans-Serif" font-size="10.00">::Factory</text>
</a>
</g>
</g>
<!-- Node8&#45;&gt;Node9 -->
<g id="edge8_Node000008_Node000009" class="edge">
<title>Node8&#45;&gt;Node9</title>
<g id="a_edge8_Node000008_Node000009"><a xlink:title=" ">
<path fill="none" stroke="#63b8ff" d="M485.45,-63C502.22,-63 519.77,-63 535.93,-63"/>
<polygon fill="#63b8ff" stroke="#63b8ff" points="485.13,-59.5 475.13,-63 485.13,-66.5 485.13,-59.5"/>
</a>
</g>
</g>
<!-- Node11 -->
<g id="Node000011" class="node">
<title>Node11</title>
<g id="a_Node000011"><a xlink:href="classpism_1_1surface_1_1Factory.html" target="_top" xlink:title=" ">
<polygon fill="white" stroke="#666666" points="662,-24.5 538,-24.5 538,-5.5 662,-5.5 662,-24.5"/>
<text text-anchor="middle" x="600" y="-12.5" font-family="Helvetica,sans-Serif" font-size="10.00">pism::surface::Factory</text>
</a>
</g>
</g>
<!-- Node10&#45;&gt;Node11 -->
<g id="edge10_Node000010_Node000011" class="edge">
<title>Node10&#45;&gt;Node11</title>
<g id="a_edge10_Node000010_Node000011"><a xlink:title=" ">
<path fill="none" stroke="#63b8ff" d="M489.21,-15C505.5,-15 522.36,-15 537.84,-15"/>
<polygon fill="#63b8ff" stroke="#63b8ff" points="489.16,-11.5 479.16,-15 489.16,-18.5 489.16,-11.5"/>
</a>
</g>
</g>
</g>
</svg>
