<?xml version="1.0" encoding="UTF-8" standalone="no"?>
<!DOCTYPE svg PUBLIC "-//W3C//DTD SVG 1.1//EN"
 "http://www.w3.org/Graphics/SVG/1.1/DTD/svg11.dtd">
<!-- Generated by graphviz version 2.43.0 (0)
 -->
<!-- Title: pism::petsc::Viewer Pages: 1 -->
<svg width="169pt" height="163pt"
 viewBox="0.00 0.00 168.50 163.00" xmlns="http://www.w3.org/2000/svg" xmlns:xlink="http://www.w3.org/1999/xlink">
<g id="graph0" class="graph" transform="scale(1 1) rotate(0) translate(4 159)">
<title>pism::petsc::Viewer</title>
<!-- Node1 -->
<g id="node1" class="node">
<title>Node1</title>
<g id="a_node1"><a xlink:title=" ">
<polygon fill="#bfbfbf" stroke="black" points="18,-0.5 18,-19.5 131,-19.5 131,-0.5 18,-0.5"/>
<text text-anchor="middle" x="74.5" y="-7.5" font-family="Helvetica,sans-Serif" font-size="10.00">pism::petsc::Viewer</text>
</a>
</g>
</g>
<!-- Node2 -->
<g id="node2" class="node">
<title>Node2</title>
<g id="a_node2"><a xlink:href="classpism_1_1petsc_1_1Wrapper.html" target="_top" xlink:title=" ">
<polygon fill="none" stroke="black" points="14.5,-57.5 14.5,-87.5 134.5,-87.5 134.5,-57.5 14.5,-57.5"/>
<text text-anchor="start" x="22.5" y="-75.5" font-family="Helvetica,sans-Serif" font-size="10.00">pism::petsc::Wrapper</text>
<text text-anchor="middle" x="74.5" y="-64.5" font-family="Helvetica,sans-Serif" font-size="10.00">&lt; PetscViewer &gt;</text>
</a>
</g>
</g>
<!-- Node2&#45;&gt;Node1 -->
<g id="edge1" class="edge">
<title>Node2&#45;&gt;Node1</title>
<path fill="none" stroke="midnightblue" d="M74.5,-47.35C74.5,-37.51 74.5,-26.78 74.5,-19.54"/>
<polygon fill="midnightblue" stroke="midnightblue" points="71,-47.47 74.5,-57.47 78,-47.47 71,-47.47"/>
</g>
<!-- Node3 -->
<g id="node3" class="node">
<title>Node3</title>
<g id="a_node3"><a xlink:href="classpism_1_1petsc_1_1Wrapper.html" target="_top" xlink:title=" ">
<polygon fill="none" stroke="black" points="0,-135.5 0,-154.5 149,-154.5 149,-135.5 0,-135.5"/>
<text text-anchor="middle" x="74.5" y="-142.5" font-family="Helvetica,sans-Serif" font-size="10.00">pism::petsc::Wrapper&lt; T &gt;</text>
</a>
</g>
</g>
<!-- Node3&#45;&gt;Node2 -->
<g id="edge2" class="edge">
<title>Node3&#45;&gt;Node2</title>
<path fill="none" stroke="orange" stroke-dasharray="5,2" d="M74.5,-125.24C74.5,-113.41 74.5,-98.38 74.5,-87.58"/>
<polygon fill="orange" stroke="orange" points="71,-125.36 74.5,-135.36 78,-125.36 71,-125.36"/>
<text text-anchor="middle" x="117.5" y="-109" font-family="Helvetica,sans-Serif" font-size="10.00"> &lt; PetscViewer &gt;</text>
</g>
</g>
</svg>
