<?xml version="1.0" encoding="UTF-8" standalone="no"?>
<!DOCTYPE svg PUBLIC "-//W3C//DTD SVG 1.1//EN"
 "http://www.w3.org/Graphics/SVG/1.1/DTD/svg11.dtd">
<!-- Generated by graphviz version 2.43.0 (0)
 -->
<!-- Title: pism::array::Forcing Pages: 1 -->
<svg width="233pt" height="334pt"
 viewBox="0.00 0.00 232.50 334.00" xmlns="http://www.w3.org/2000/svg" xmlns:xlink="http://www.w3.org/1999/xlink">
<g id="graph0" class="graph" transform="scale(1 1) rotate(0) translate(4 330)">
<title>pism::array::Forcing</title>
<!-- Node1 -->
<g id="node1" class="node">
<title>Node1</title>
<g id="a_node1"><a xlink:title="2D time&#45;dependent inputs (for climate forcing, etc)">
<polygon fill="#bfbfbf" stroke="black" points="10,-0.5 10,-19.5 123,-19.5 123,-0.5 10,-0.5"/>
<text text-anchor="middle" x="66.5" y="-7.5" font-family="Helvetica,sans-Serif" font-size="10.00">pism::array::Forcing</text>
</a>
</g>
</g>
<!-- Node2 -->
<g id="node2" class="node">
<title>Node2</title>
<g id="a_node2"><a xlink:href="classpism_1_1array_1_1Scalar.html" target="_top" xlink:title=" ">
<polygon fill="none" stroke="black" points="13,-57.5 13,-76.5 120,-76.5 120,-57.5 13,-57.5"/>
<text text-anchor="middle" x="66.5" y="-64.5" font-family="Helvetica,sans-Serif" font-size="10.00">pism::array::Scalar</text>
</a>
</g>
</g>
<!-- Node2&#45;&gt;Node1 -->
<g id="edge1" class="edge">
<title>Node2&#45;&gt;Node1</title>
<path fill="none" stroke="midnightblue" d="M66.5,-47.12C66.5,-37.82 66.5,-27.06 66.5,-19.71"/>
<polygon fill="midnightblue" stroke="midnightblue" points="63,-47.41 66.5,-57.41 70,-47.41 63,-47.41"/>
</g>
<!-- Node3 -->
<g id="node3" class="node">
<title>Node3</title>
<g id="a_node3"><a xlink:href="classpism_1_1array_1_1Array2D.html" target="_top" xlink:title=" ">
<polygon fill="none" stroke="black" points="8,-114.5 8,-144.5 125,-144.5 125,-114.5 8,-114.5"/>
<text text-anchor="start" x="16" y="-132.5" font-family="Helvetica,sans-Serif" font-size="10.00">pism::array::Array2D</text>
<text text-anchor="middle" x="66.5" y="-121.5" font-family="Helvetica,sans-Serif" font-size="10.00">&lt; double &gt;</text>
</a>
</g>
</g>
<!-- Node3&#45;&gt;Node2 -->
<g id="edge2" class="edge">
<title>Node3&#45;&gt;Node2</title>
<path fill="none" stroke="midnightblue" d="M66.5,-104.35C66.5,-94.51 66.5,-83.78 66.5,-76.54"/>
<polygon fill="midnightblue" stroke="midnightblue" points="63,-104.47 66.5,-114.47 70,-104.47 63,-104.47"/>
</g>
<!-- Node4 -->
<g id="node4" class="node">
<title>Node4</title>
<g id="a_node4"><a xlink:href="classpism_1_1array_1_1Array.html" target="_top" xlink:title="Abstract class for reading, writing, allocating, and accessing a DA&#45;based PETSc Vec (2D and 3D fields...">
<polygon fill="none" stroke="black" points="10.5,-249.5 10.5,-268.5 114.5,-268.5 114.5,-249.5 10.5,-249.5"/>
<text text-anchor="middle" x="62.5" y="-256.5" font-family="Helvetica,sans-Serif" font-size="10.00">pism::array::Array</text>
</a>
</g>
</g>
<!-- Node4&#45;&gt;Node3 -->
<g id="edge3" class="edge">
<title>Node4&#45;&gt;Node3</title>
<path fill="none" stroke="midnightblue" d="M63.1,-238.9C63.91,-213.05 65.34,-167.54 66.06,-144.59"/>
<polygon fill="midnightblue" stroke="midnightblue" points="59.59,-239.13 62.77,-249.24 66.59,-239.35 59.59,-239.13"/>
</g>
<!-- Node6 -->
<g id="node6" class="node">
<title>Node6</title>
<g id="a_node6"><a xlink:href="classpism_1_1array_1_1Array2D.html" target="_top" xlink:title="A storage vector combining related fields in a struct.">
<polygon fill="none" stroke="black" points="78.5,-192.5 78.5,-211.5 224.5,-211.5 224.5,-192.5 78.5,-192.5"/>
<text text-anchor="middle" x="151.5" y="-199.5" font-family="Helvetica,sans-Serif" font-size="10.00">pism::array::Array2D&lt; T &gt;</text>
</a>
</g>
</g>
<!-- Node4&#45;&gt;Node6 -->
<g id="edge6" class="edge">
<title>Node4&#45;&gt;Node6</title>
<path fill="none" stroke="midnightblue" d="M84.98,-244.11C101.57,-233.86 123.62,-220.23 137.69,-211.53"/>
<polygon fill="midnightblue" stroke="midnightblue" points="83.07,-241.17 76.41,-249.41 86.75,-247.13 83.07,-241.17"/>
</g>
<!-- Node5 -->
<g id="node5" class="node">
<title>Node5</title>
<g id="a_node5"><a xlink:href="classpism_1_1PetscAccessible.html" target="_top" xlink:title=" ">
<polygon fill="none" stroke="black" points="0,-306.5 0,-325.5 125,-325.5 125,-306.5 0,-306.5"/>
<text text-anchor="middle" x="62.5" y="-313.5" font-family="Helvetica,sans-Serif" font-size="10.00">pism::PetscAccessible</text>
</a>
</g>
</g>
<!-- Node5&#45;&gt;Node4 -->
<g id="edge4" class="edge">
<title>Node5&#45;&gt;Node4</title>
<path fill="none" stroke="midnightblue" d="M62.5,-296.12C62.5,-286.82 62.5,-276.06 62.5,-268.71"/>
<polygon fill="midnightblue" stroke="midnightblue" points="59,-296.41 62.5,-306.41 66,-296.41 59,-296.41"/>
</g>
<!-- Node6&#45;&gt;Node3 -->
<g id="edge5" class="edge">
<title>Node6&#45;&gt;Node3</title>
<path fill="none" stroke="orange" stroke-dasharray="5,2" d="M133.15,-185.78C118.41,-173.55 97.84,-156.5 83.47,-144.58"/>
<polygon fill="orange" stroke="orange" points="131.15,-188.67 141.08,-192.36 135.61,-183.28 131.15,-188.67"/>
<text text-anchor="middle" x="146" y="-166" font-family="Helvetica,sans-Serif" font-size="10.00"> &lt; double &gt;</text>
</g>
</g>
</svg>
