<?xml version="1.0" encoding="UTF-8" standalone="no"?>
<!DOCTYPE svg PUBLIC "-//W3C//DTD SVG 1.1//EN"
 "http://www.w3.org/Graphics/SVG/1.1/DTD/svg11.dtd">
<!-- Generated by graphviz version 2.43.0 (0)
 -->
<!-- Title: pism::options::Option&lt; T &gt; Pages: 1 -->
<svg width="665pt" height="333pt"
 viewBox="0.00 0.00 665.00 333.00" xmlns="http://www.w3.org/2000/svg" xmlns:xlink="http://www.w3.org/1999/xlink">
<g id="graph0" class="graph" transform="scale(1 1) rotate(0) translate(4 329)">
<title>pism::options::Option&lt; T &gt;</title>
<!-- Node1 -->
<g id="node1" class="node">
<title>Node1</title>
<g id="a_node1"><a xlink:title="Template base class used by PISM&#39;s option&#45;processing classes.">
<polygon fill="#bfbfbf" stroke="black" points="0,-153 0,-172 149,-172 149,-153 0,-153"/>
<text text-anchor="middle" x="74.5" y="-160" font-family="Helvetica,sans-Serif" font-size="10.00">pism::options::Option&lt; T &gt;</text>
</a>
</g>
</g>
<!-- Node2 -->
<g id="node2" class="node">
<title>Node2</title>
<g id="a_node2"><a xlink:href="classpism_1_1options_1_1Option.html" target="_top" xlink:title=" ">
<polygon fill="none" stroke="black" points="338.5,-294.5 338.5,-324.5 459.5,-324.5 459.5,-294.5 338.5,-294.5"/>
<text text-anchor="start" x="346.5" y="-312.5" font-family="Helvetica,sans-Serif" font-size="10.00">pism::options::Option</text>
<text text-anchor="middle" x="399" y="-301.5" font-family="Helvetica,sans-Serif" font-size="10.00">&lt; double &gt;</text>
</a>
</g>
</g>
<!-- Node1&#45;&gt;Node2 -->
<g id="edge1" class="edge">
<title>Node1&#45;&gt;Node2</title>
<path fill="none" stroke="orange" stroke-dasharray="5,2" d="M86.28,-180.74C101.24,-204.34 130.62,-244.85 167,-265.5 219.9,-295.53 289.47,-305.51 338.39,-308.6"/>
<polygon fill="orange" stroke="orange" points="89.15,-178.74 80.93,-172.05 83.19,-182.4 89.15,-178.74"/>
<text text-anchor="middle" x="233.5" y="-307.5" font-family="Helvetica,sans-Serif" font-size="10.00"> &lt; double &gt;</text>
</g>
<!-- Node4 -->
<g id="node4" class="node">
<title>Node4</title>
<g id="a_node4"><a xlink:href="classpism_1_1options_1_1Option.html" target="_top" xlink:title=" ">
<polygon fill="none" stroke="black" points="336,-245.5 336,-275.5 462,-275.5 462,-245.5 336,-245.5"/>
<text text-anchor="start" x="344" y="-263.5" font-family="Helvetica,sans-Serif" font-size="10.00">pism::options::Option</text>
<text text-anchor="middle" x="399" y="-252.5" font-family="Helvetica,sans-Serif" font-size="10.00">&lt; std::vector&lt; int &gt; &gt;</text>
</a>
</g>
</g>
<!-- Node1&#45;&gt;Node4 -->
<g id="edge3" class="edge">
<title>Node1&#45;&gt;Node4</title>
<path fill="none" stroke="orange" stroke-dasharray="5,2" d="M95.83,-178.36C113.62,-191.43 140.66,-209.39 167,-219.5 221.95,-240.59 288.46,-250.93 335.98,-255.94"/>
<polygon fill="orange" stroke="orange" points="97.52,-175.26 87.43,-172.04 93.32,-180.85 97.52,-175.26"/>
<text text-anchor="middle" x="233.5" y="-253.5" font-family="Helvetica,sans-Serif" font-size="10.00"> &lt; std::vector&lt; int &gt; &gt;</text>
</g>
<!-- Node6 -->
<g id="node6" class="node">
<title>Node6</title>
<g id="a_node6"><a xlink:href="classpism_1_1options_1_1Option.html" target="_top" xlink:title=" ">
<polygon fill="none" stroke="black" points="338.5,-196.5 338.5,-226.5 459.5,-226.5 459.5,-196.5 338.5,-196.5"/>
<text text-anchor="start" x="346.5" y="-214.5" font-family="Helvetica,sans-Serif" font-size="10.00">pism::options::Option</text>
<text text-anchor="middle" x="399" y="-203.5" font-family="Helvetica,sans-Serif" font-size="10.00">&lt; std::string &gt;</text>
</a>
</g>
</g>
<!-- Node1&#45;&gt;Node6 -->
<g id="edge5" class="edge">
<title>Node1&#45;&gt;Node6</title>
<path fill="none" stroke="orange" stroke-dasharray="5,2" d="M115.71,-175.01C131.56,-179.54 150,-184.32 167,-187.5 224.66,-198.3 291.4,-204.57 338.27,-207.98"/>
<polygon fill="orange" stroke="orange" points="116.29,-171.53 105.71,-172.09 114.33,-178.25 116.29,-171.53"/>
<text text-anchor="middle" x="233.5" y="-207.5" font-family="Helvetica,sans-Serif" font-size="10.00"> &lt; std::string &gt;</text>
</g>
<!-- Node9 -->
<g id="node9" class="node">
<title>Node9</title>
<g id="a_node9"><a xlink:href="classpism_1_1options_1_1Option.html" target="_top" xlink:title=" ">
<polygon fill="none" stroke="black" points="318,-147.5 318,-177.5 480,-177.5 480,-147.5 318,-147.5"/>
<text text-anchor="start" x="326" y="-165.5" font-family="Helvetica,sans-Serif" font-size="10.00">pism::options::Option</text>
<text text-anchor="middle" x="399" y="-154.5" font-family="Helvetica,sans-Serif" font-size="10.00">&lt; std::vector&lt; std::string &gt; &gt;</text>
</a>
</g>
</g>
<!-- Node1&#45;&gt;Node9 -->
<g id="edge8" class="edge">
<title>Node1&#45;&gt;Node9</title>
<path fill="none" stroke="orange" stroke-dasharray="5,2" d="M159.33,-162.5C208.27,-162.5 269.68,-162.5 317.95,-162.5"/>
<polygon fill="orange" stroke="orange" points="159.08,-159 149.08,-162.5 159.08,-166 159.08,-159"/>
<text text-anchor="start" x="187" y="-176.5" font-family="Helvetica,sans-Serif" font-size="10.00"> &lt; std::vector&lt; std</text>
<text text-anchor="middle" x="233.5" y="-165.5" font-family="Helvetica,sans-Serif" font-size="10.00">::string &gt; &gt;</text>
</g>
<!-- Node11 -->
<g id="node11" class="node">
<title>Node11</title>
<g id="a_node11"><a xlink:href="classpism_1_1options_1_1Option.html" target="_top" xlink:title=" ">
<polygon fill="none" stroke="black" points="326,-98.5 326,-128.5 472,-128.5 472,-98.5 326,-98.5"/>
<text text-anchor="start" x="334" y="-116.5" font-family="Helvetica,sans-Serif" font-size="10.00">pism::options::Option</text>
<text text-anchor="middle" x="399" y="-105.5" font-family="Helvetica,sans-Serif" font-size="10.00">&lt; std::set&lt; std::string &gt; &gt;</text>
</a>
</g>
</g>
<!-- Node1&#45;&gt;Node11 -->
<g id="edge10" class="edge">
<title>Node1&#45;&gt;Node11</title>
<path fill="none" stroke="orange" stroke-dasharray="5,2" d="M142.56,-151.38C150.79,-150.05 159.08,-148.73 167,-147.5 220.17,-139.23 280.31,-130.39 325.9,-123.8"/>
<polygon fill="orange" stroke="orange" points="141.9,-147.94 132.58,-152.99 143.02,-154.85 141.9,-147.94"/>
<text text-anchor="middle" x="233.5" y="-150.5" font-family="Helvetica,sans-Serif" font-size="10.00"> &lt; std::set&lt; std::string &gt; &gt;</text>
</g>
<!-- Node13 -->
<g id="node13" class="node">
<title>Node13</title>
<g id="a_node13"><a xlink:href="classpism_1_1options_1_1Option.html" target="_top" xlink:title=" ">
<polygon fill="none" stroke="black" points="338.5,-49.5 338.5,-79.5 459.5,-79.5 459.5,-49.5 338.5,-49.5"/>
<text text-anchor="start" x="346.5" y="-67.5" font-family="Helvetica,sans-Serif" font-size="10.00">pism::options::Option</text>
<text text-anchor="middle" x="399" y="-56.5" font-family="Helvetica,sans-Serif" font-size="10.00">&lt; int &gt;</text>
</a>
</g>
</g>
<!-- Node1&#45;&gt;Node13 -->
<g id="edge12" class="edge">
<title>Node1&#45;&gt;Node13</title>
<path fill="none" stroke="orange" stroke-dasharray="5,2" d="M98.38,-147.51C116.37,-136.35 142.41,-121.55 167,-112.5 223.32,-91.78 290.83,-79.06 338.28,-71.96"/>
<polygon fill="orange" stroke="orange" points="96.34,-144.66 89.76,-152.96 100.08,-150.57 96.34,-144.66"/>
<text text-anchor="middle" x="233.5" y="-115.5" font-family="Helvetica,sans-Serif" font-size="10.00"> &lt; int &gt;</text>
</g>
<!-- Node15 -->
<g id="node15" class="node">
<title>Node15</title>
<g id="a_node15"><a xlink:href="classpism_1_1options_1_1Option.html" target="_top" xlink:title=" ">
<polygon fill="none" stroke="black" points="326,-0.5 326,-30.5 472,-30.5 472,-0.5 326,-0.5"/>
<text text-anchor="start" x="334" y="-18.5" font-family="Helvetica,sans-Serif" font-size="10.00">pism::options::Option</text>
<text text-anchor="middle" x="399" y="-7.5" font-family="Helvetica,sans-Serif" font-size="10.00">&lt; std::vector&lt; double &gt; &gt;</text>
</a>
</g>
</g>
<!-- Node1&#45;&gt;Node15 -->
<g id="edge14" class="edge">
<title>Node1&#45;&gt;Node15</title>
<path fill="none" stroke="orange" stroke-dasharray="5,2" d="M86.97,-144.37C102.31,-121.7 131.73,-83.45 167,-63.5 215.66,-35.97 278.11,-24.15 325.8,-19.12"/>
<polygon fill="orange" stroke="orange" points="84.02,-142.49 81.45,-152.77 89.86,-146.33 84.02,-142.49"/>
<text text-anchor="middle" x="233.5" y="-66.5" font-family="Helvetica,sans-Serif" font-size="10.00"> &lt; std::vector&lt; double &gt; &gt;</text>
</g>
<!-- Node3 -->
<g id="node3" class="node">
<title>Node3</title>
<g id="a_node3"><a xlink:href="classpism_1_1options_1_1Real.html" target="_top" xlink:title=" ">
<polygon fill="none" stroke="black" points="532,-300 532,-319 642,-319 642,-300 532,-300"/>
<text text-anchor="middle" x="587" y="-307" font-family="Helvetica,sans-Serif" font-size="10.00">pism::options::Real</text>
</a>
</g>
</g>
<!-- Node2&#45;&gt;Node3 -->
<g id="edge2" class="edge">
<title>Node2&#45;&gt;Node3</title>
<path fill="none" stroke="midnightblue" d="M469.84,-309.5C490.32,-309.5 512.4,-309.5 531.76,-309.5"/>
<polygon fill="midnightblue" stroke="midnightblue" points="469.62,-306 459.62,-309.5 469.62,-313 469.62,-306"/>
</g>
<!-- Node5 -->
<g id="node5" class="node">
<title>Node5</title>
<g id="a_node5"><a xlink:href="classpism_1_1options_1_1IntegerList.html" target="_top" xlink:title=" ">
<polygon fill="none" stroke="black" points="517,-259 517,-278 657,-278 657,-259 517,-259"/>
<text text-anchor="middle" x="587" y="-266" font-family="Helvetica,sans-Serif" font-size="10.00">pism::options::IntegerList</text>
</a>
</g>
</g>
<!-- Node4&#45;&gt;Node5 -->
<g id="edge4" class="edge">
<title>Node4&#45;&gt;Node5</title>
<path fill="none" stroke="midnightblue" d="M472.21,-263.61C486.87,-264.24 502.26,-264.9 516.82,-265.52"/>
<polygon fill="midnightblue" stroke="midnightblue" points="472.34,-260.11 462.19,-263.18 472.03,-267.1 472.34,-260.11"/>
</g>
<!-- Node7 -->
<g id="node7" class="node">
<title>Node7</title>
<g id="a_node7"><a xlink:href="classpism_1_1options_1_1Keyword.html" target="_top" xlink:title=" ">
<polygon fill="none" stroke="black" points="521.5,-221 521.5,-240 652.5,-240 652.5,-221 521.5,-221"/>
<text text-anchor="middle" x="587" y="-228" font-family="Helvetica,sans-Serif" font-size="10.00">pism::options::Keyword</text>
</a>
</g>
</g>
<!-- Node6&#45;&gt;Node7 -->
<g id="edge6" class="edge">
<title>Node6&#45;&gt;Node7</title>
<path fill="none" stroke="midnightblue" d="M469.94,-218.64C486.77,-220.36 504.67,-222.19 521.25,-223.89"/>
<polygon fill="midnightblue" stroke="midnightblue" points="469.92,-215.12 459.62,-217.59 469.21,-222.09 469.92,-215.12"/>
</g>
<!-- Node8 -->
<g id="node8" class="node">
<title>Node8</title>
<g id="a_node8"><a xlink:href="classpism_1_1options_1_1String.html" target="_top" xlink:title=" ">
<polygon fill="none" stroke="black" points="528.5,-183 528.5,-202 645.5,-202 645.5,-183 528.5,-183"/>
<text text-anchor="middle" x="587" y="-190" font-family="Helvetica,sans-Serif" font-size="10.00">pism::options::String</text>
</a>
</g>
</g>
<!-- Node6&#45;&gt;Node8 -->
<g id="edge7" class="edge">
<title>Node6&#45;&gt;Node8</title>
<path fill="none" stroke="midnightblue" d="M469.58,-204.39C488.93,-202.42 509.72,-200.29 528.3,-198.39"/>
<polygon fill="midnightblue" stroke="midnightblue" points="469.21,-200.91 459.62,-205.41 469.92,-207.88 469.21,-200.91"/>
</g>
<!-- Node10 -->
<g id="node10" class="node">
<title>Node10</title>
<g id="a_node10"><a xlink:href="classpism_1_1options_1_1StringList.html" target="_top" xlink:title=" ">
<polygon fill="none" stroke="black" points="520,-145 520,-164 654,-164 654,-145 520,-145"/>
<text text-anchor="middle" x="587" y="-152" font-family="Helvetica,sans-Serif" font-size="10.00">pism::options::StringList</text>
</a>
</g>
</g>
<!-- Node9&#45;&gt;Node10 -->
<g id="edge9" class="edge">
<title>Node9&#45;&gt;Node10</title>
<path fill="none" stroke="midnightblue" d="M490.47,-158.61C500.33,-158.18 510.23,-157.76 519.72,-157.35"/>
<polygon fill="midnightblue" stroke="midnightblue" points="490.07,-155.12 480.23,-159.05 490.37,-162.12 490.07,-155.12"/>
</g>
<!-- Node12 -->
<g id="node12" class="node">
<title>Node12</title>
<g id="a_node12"><a xlink:href="classpism_1_1options_1_1StringSet.html" target="_top" xlink:title=" ">
<polygon fill="none" stroke="black" points="520.5,-104 520.5,-123 653.5,-123 653.5,-104 520.5,-104"/>
<text text-anchor="middle" x="587" y="-111" font-family="Helvetica,sans-Serif" font-size="10.00">pism::options::StringSet</text>
</a>
</g>
</g>
<!-- Node11&#45;&gt;Node12 -->
<g id="edge11" class="edge">
<title>Node11&#45;&gt;Node12</title>
<path fill="none" stroke="midnightblue" d="M482.29,-113.5C494.99,-113.5 507.96,-113.5 520.24,-113.5"/>
<polygon fill="midnightblue" stroke="midnightblue" points="482.18,-110 472.18,-113.5 482.18,-117 482.18,-110"/>
</g>
<!-- Node14 -->
<g id="node14" class="node">
<title>Node14</title>
<g id="a_node14"><a xlink:href="classpism_1_1options_1_1Integer.html" target="_top" xlink:title=" ">
<polygon fill="none" stroke="black" points="525.5,-55 525.5,-74 648.5,-74 648.5,-55 525.5,-55"/>
<text text-anchor="middle" x="587" y="-62" font-family="Helvetica,sans-Serif" font-size="10.00">pism::options::Integer</text>
</a>
</g>
</g>
<!-- Node13&#45;&gt;Node14 -->
<g id="edge13" class="edge">
<title>Node13&#45;&gt;Node14</title>
<path fill="none" stroke="midnightblue" d="M469.65,-64.5C487.99,-64.5 507.62,-64.5 525.44,-64.5"/>
<polygon fill="midnightblue" stroke="midnightblue" points="469.62,-61 459.62,-64.5 469.62,-68 469.62,-61"/>
</g>
<!-- Node16 -->
<g id="node16" class="node">
<title>Node16</title>
<g id="a_node16"><a xlink:href="classpism_1_1options_1_1RealList.html" target="_top" xlink:title=" ">
<polygon fill="none" stroke="black" points="523,-6 523,-25 651,-25 651,-6 523,-6"/>
<text text-anchor="middle" x="587" y="-13" font-family="Helvetica,sans-Serif" font-size="10.00">pism::options::RealList</text>
</a>
</g>
</g>
<!-- Node15&#45;&gt;Node16 -->
<g id="edge15" class="edge">
<title>Node15&#45;&gt;Node16</title>
<path fill="none" stroke="midnightblue" d="M482.48,-15.5C496.06,-15.5 509.94,-15.5 522.94,-15.5"/>
<polygon fill="midnightblue" stroke="midnightblue" points="482.18,-12 472.18,-15.5 482.18,-19 482.18,-12"/>
</g>
</g>
</svg>
