<?xml version="1.0" encoding="UTF-8" standalone="no"?>
<!DOCTYPE svg PUBLIC "-//W3C//DTD SVG 1.1//EN"
 "http://www.w3.org/Graphics/SVG/1.1/DTD/svg11.dtd">
<!-- Generated by graphviz version 2.43.0 (0)
 -->
<!-- Title: pism::inverse::IPFunctional&lt; IMVecType &gt; Pages: 1 -->
<svg width="1036pt" height="349pt"
 viewBox="0.00 0.00 1036.00 349.00" xmlns="http://www.w3.org/2000/svg" xmlns:xlink="http://www.w3.org/1999/xlink">
<g id="graph0" class="graph" transform="scale(1 1) rotate(0) translate(4 345)">
<title>pism::inverse::IPFunctional&lt; IMVecType &gt;</title>
<!-- Node1 -->
<g id="node1" class="node">
<title>Node1</title>
<g id="a_node1"><a xlink:title="Abstract base class for functions from ice model vectors to .">
<polygon fill="#bfbfbf" stroke="black" points="0,-172.5 0,-202.5 148,-202.5 148,-172.5 0,-172.5"/>
<text text-anchor="start" x="8" y="-190.5" font-family="Helvetica,sans-Serif" font-size="10.00">pism::inverse::IPFunctional</text>
<text text-anchor="middle" x="74" y="-179.5" font-family="Helvetica,sans-Serif" font-size="10.00">&lt; IMVecType &gt;</text>
</a>
</g>
</g>
<!-- Node2 -->
<g id="node2" class="node">
<title>Node2</title>
<g id="a_node2"><a xlink:href="classpism_1_1inverse_1_1IPInnerProductFunctional.html" target="_top" xlink:title="Abstract base class for IPFunctionals arising from an inner product.">
<polygon fill="none" stroke="black" points="314,-172.5 314,-202.5 473,-202.5 473,-172.5 314,-172.5"/>
<text text-anchor="start" x="322" y="-190.5" font-family="Helvetica,sans-Serif" font-size="10.00">pism::inverse::IPInnerProduct</text>
<text text-anchor="middle" x="393.5" y="-179.5" font-family="Helvetica,sans-Serif" font-size="10.00">Functional&lt; IMVecType &gt;</text>
</a>
</g>
</g>
<!-- Node1&#45;&gt;Node2 -->
<g id="edge1" class="edge">
<title>Node1&#45;&gt;Node2</title>
<path fill="none" stroke="midnightblue" d="M158.31,-187.5C206.4,-187.5 266.51,-187.5 313.8,-187.5"/>
<polygon fill="midnightblue" stroke="midnightblue" points="158.24,-184 148.24,-187.5 158.24,-191 158.24,-184"/>
</g>
<!-- Node13 -->
<g id="node13" class="node">
<title>Node13</title>
<g id="a_node13"><a xlink:href="classpism_1_1inverse_1_1IPFunctional.html" target="_top" xlink:title=" ">
<polygon fill="none" stroke="black" points="319.5,-285.5 319.5,-315.5 467.5,-315.5 467.5,-285.5 319.5,-285.5"/>
<text text-anchor="start" x="327.5" y="-303.5" font-family="Helvetica,sans-Serif" font-size="10.00">pism::inverse::IPFunctional</text>
<text text-anchor="middle" x="393.5" y="-292.5" font-family="Helvetica,sans-Serif" font-size="10.00">&lt; IceModelVec2S &gt;</text>
</a>
</g>
</g>
<!-- Node1&#45;&gt;Node13 -->
<g id="edge12" class="edge">
<title>Node1&#45;&gt;Node13</title>
<path fill="none" stroke="orange" stroke-dasharray="5,2" d="M105.03,-208.23C122.25,-219.36 144.63,-232.59 166,-241.5 215.5,-262.15 274.18,-277.19 319.4,-286.92"/>
<polygon fill="orange" stroke="orange" points="106.8,-205.21 96.52,-202.63 102.95,-211.06 106.8,-205.21"/>
<text text-anchor="middle" x="231" y="-283.5" font-family="Helvetica,sans-Serif" font-size="10.00"> &lt; IceModelVec2S &gt;</text>
</g>
<!-- Node15 -->
<g id="node15" class="node">
<title>Node15</title>
<g id="a_node15"><a xlink:href="classpism_1_1inverse_1_1IPFunctional.html" target="_top" xlink:title=" ">
<polygon fill="none" stroke="black" points="319.5,-231.5 319.5,-261.5 467.5,-261.5 467.5,-231.5 319.5,-231.5"/>
<text text-anchor="start" x="327.5" y="-249.5" font-family="Helvetica,sans-Serif" font-size="10.00">pism::inverse::IPFunctional</text>
<text text-anchor="middle" x="393.5" y="-238.5" font-family="Helvetica,sans-Serif" font-size="10.00">&lt; pism::IceModelVec2V &gt;</text>
</a>
</g>
</g>
<!-- Node1&#45;&gt;Node15 -->
<g id="edge15" class="edge">
<title>Node1&#45;&gt;Node15</title>
<path fill="none" stroke="orange" stroke-dasharray="5,2" d="M158.38,-202.99C208.36,-212.28 271.32,-223.98 319.35,-232.91"/>
<polygon fill="orange" stroke="orange" points="158.71,-199.5 148.24,-201.11 157.43,-206.38 158.71,-199.5"/>
<text text-anchor="middle" x="231" y="-229.5" font-family="Helvetica,sans-Serif" font-size="10.00"> &lt; pism::IceModelVec2V &gt;</text>
</g>
<!-- Node16 -->
<g id="node16" class="node">
<title>Node16</title>
<g id="a_node16"><a xlink:href="classpism_1_1inverse_1_1IPFunctional.html" target="_top" xlink:title=" ">
<polygon fill="none" stroke="black" points="319.5,-116.5 319.5,-146.5 467.5,-146.5 467.5,-116.5 319.5,-116.5"/>
<text text-anchor="start" x="327.5" y="-134.5" font-family="Helvetica,sans-Serif" font-size="10.00">pism::inverse::IPFunctional</text>
<text text-anchor="middle" x="393.5" y="-123.5" font-family="Helvetica,sans-Serif" font-size="10.00">&lt; pism::IceModelVec2S &gt;</text>
</a>
</g>
</g>
<!-- Node1&#45;&gt;Node16 -->
<g id="edge17" class="edge">
<title>Node1&#45;&gt;Node16</title>
<path fill="none" stroke="orange" stroke-dasharray="5,2" d="M158.38,-172.79C208.36,-163.98 271.32,-152.87 319.35,-144.4"/>
<polygon fill="orange" stroke="orange" points="157.48,-169.4 148.24,-174.58 158.7,-176.29 157.48,-169.4"/>
<text text-anchor="middle" x="231" y="-173.5" font-family="Helvetica,sans-Serif" font-size="10.00"> &lt; pism::IceModelVec2S &gt;</text>
</g>
<!-- Node17 -->
<g id="node17" class="node">
<title>Node17</title>
<g id="a_node17"><a xlink:href="classpism_1_1inverse_1_1IPFunctional.html" target="_top" xlink:title=" ">
<polygon fill="none" stroke="black" points="319.5,-62.5 319.5,-92.5 467.5,-92.5 467.5,-62.5 319.5,-62.5"/>
<text text-anchor="start" x="327.5" y="-80.5" font-family="Helvetica,sans-Serif" font-size="10.00">pism::inverse::IPFunctional</text>
<text text-anchor="middle" x="393.5" y="-69.5" font-family="Helvetica,sans-Serif" font-size="10.00">&lt; IceModelVec2V &gt;</text>
</a>
</g>
</g>
<!-- Node1&#45;&gt;Node17 -->
<g id="edge19" class="edge">
<title>Node1&#45;&gt;Node17</title>
<path fill="none" stroke="orange" stroke-dasharray="5,2" d="M105.82,-167.12C122.97,-156.5 145.03,-143.99 166,-135.5 215.57,-115.42 274.11,-100.65 319.25,-91.04"/>
<polygon fill="orange" stroke="orange" points="103.92,-164.18 97.33,-172.47 107.65,-170.1 103.92,-164.18"/>
<text text-anchor="middle" x="231" y="-138.5" font-family="Helvetica,sans-Serif" font-size="10.00"> &lt; IceModelVec2V &gt;</text>
</g>
<!-- Node3 -->
<g id="node3" class="node">
<title>Node3</title>
<g id="a_node3"><a xlink:href="classpism_1_1inverse_1_1IPInnerProductFunctional.html" target="_top" xlink:title=" ">
<polygon fill="none" stroke="black" points="654.5,-255.5 654.5,-285.5 817.5,-285.5 817.5,-255.5 654.5,-255.5"/>
<text text-anchor="start" x="662.5" y="-273.5" font-family="Helvetica,sans-Serif" font-size="10.00">pism::inverse::IPInnerProduct</text>
<text text-anchor="middle" x="736" y="-262.5" font-family="Helvetica,sans-Serif" font-size="10.00">Functional&lt; IceModelVec2S &gt;</text>
</a>
</g>
</g>
<!-- Node2&#45;&gt;Node3 -->
<g id="edge2" class="edge">
<title>Node2&#45;&gt;Node3</title>
<path fill="none" stroke="orange" stroke-dasharray="5,2" d="M439,-206.48C455.16,-212.86 473.7,-219.6 491,-224.5 544.71,-239.73 606.52,-251.32 654.49,-259.06"/>
<polygon fill="orange" stroke="orange" points="439.86,-203.06 429.28,-202.58 437.25,-209.55 439.86,-203.06"/>
<text text-anchor="middle" x="556" y="-255.5" font-family="Helvetica,sans-Serif" font-size="10.00"> &lt; IceModelVec2S &gt;</text>
</g>
<!-- Node8 -->
<g id="node8" class="node">
<title>Node8</title>
<g id="a_node8"><a xlink:href="classpism_1_1inverse_1_1IPInnerProductFunctional.html" target="_top" xlink:title=" ">
<polygon fill="none" stroke="black" points="639,-206.5 639,-236.5 833,-236.5 833,-206.5 639,-206.5"/>
<text text-anchor="start" x="647" y="-224.5" font-family="Helvetica,sans-Serif" font-size="10.00">pism::inverse::IPInnerProduct</text>
<text text-anchor="middle" x="736" y="-213.5" font-family="Helvetica,sans-Serif" font-size="10.00">Functional&lt; pism::IceModelVec2V &gt;</text>
</a>
</g>
</g>
<!-- Node2&#45;&gt;Node8 -->
<g id="edge7" class="edge">
<title>Node2&#45;&gt;Node8</title>
<path fill="none" stroke="orange" stroke-dasharray="5,2" d="M483.07,-196.34C530.9,-201.12 590,-207.02 638.93,-211.91"/>
<polygon fill="orange" stroke="orange" points="483.34,-192.85 473.05,-195.34 482.65,-199.82 483.34,-192.85"/>
<text text-anchor="middle" x="556" y="-212.5" font-family="Helvetica,sans-Serif" font-size="10.00"> &lt; pism::IceModelVec2V &gt;</text>
</g>
<!-- Node9 -->
<g id="node9" class="node">
<title>Node9</title>
<g id="a_node9"><a xlink:href="classpism_1_1inverse_1_1IPInnerProductFunctional.html" target="_top" xlink:title=" ">
<polygon fill="none" stroke="black" points="639.5,-157.5 639.5,-187.5 832.5,-187.5 832.5,-157.5 639.5,-157.5"/>
<text text-anchor="start" x="647.5" y="-175.5" font-family="Helvetica,sans-Serif" font-size="10.00">pism::inverse::IPInnerProduct</text>
<text text-anchor="middle" x="736" y="-164.5" font-family="Helvetica,sans-Serif" font-size="10.00">Functional&lt; pism::IceModelVec2S &gt;</text>
</a>
</g>
</g>
<!-- Node2&#45;&gt;Node9 -->
<g id="edge8" class="edge">
<title>Node2&#45;&gt;Node9</title>
<path fill="none" stroke="orange" stroke-dasharray="5,2" d="M483.31,-182.86C485.9,-182.74 488.47,-182.62 491,-182.5 539.92,-180.23 594.36,-177.97 639.39,-176.18"/>
<polygon fill="orange" stroke="orange" points="483.05,-179.37 473.23,-183.35 483.39,-186.36 483.05,-179.37"/>
<text text-anchor="middle" x="556" y="-185.5" font-family="Helvetica,sans-Serif" font-size="10.00"> &lt; pism::IceModelVec2S &gt;</text>
</g>
<!-- Node10 -->
<g id="node10" class="node">
<title>Node10</title>
<g id="a_node10"><a xlink:href="classpism_1_1inverse_1_1IPInnerProductFunctional.html" target="_top" xlink:title=" ">
<polygon fill="none" stroke="black" points="654,-102.5 654,-132.5 818,-132.5 818,-102.5 654,-102.5"/>
<text text-anchor="start" x="662" y="-120.5" font-family="Helvetica,sans-Serif" font-size="10.00">pism::inverse::IPInnerProduct</text>
<text text-anchor="middle" x="736" y="-109.5" font-family="Helvetica,sans-Serif" font-size="10.00">Functional&lt; IceModelVec2V &gt;</text>
</a>
</g>
</g>
<!-- Node2&#45;&gt;Node10 -->
<g id="edge9" class="edge">
<title>Node2&#45;&gt;Node10</title>
<path fill="none" stroke="orange" stroke-dasharray="5,2" d="M456.93,-169.85C468.23,-166.89 479.94,-163.98 491,-161.5 544.97,-149.39 606.24,-138.35 653.88,-130.36"/>
<polygon fill="orange" stroke="orange" points="455.91,-166.5 447.14,-172.45 457.7,-173.27 455.91,-166.5"/>
<text text-anchor="middle" x="556" y="-164.5" font-family="Helvetica,sans-Serif" font-size="10.00"> &lt; IceModelVec2V &gt;</text>
</g>
<!-- Node4 -->
<g id="node4" class="node">
<title>Node4</title>
<g id="a_node4"><a xlink:href="classpism_1_1inverse_1_1IPGroundedIceH1NormFunctional2S.html" target="_top" xlink:title="Implements a functional corresponding to (the square of) an &#160;norm of a scalar valued function over a ...">
<polygon fill="none" stroke="black" points="876.5,-208.5 876.5,-238.5 1021.5,-238.5 1021.5,-208.5 876.5,-208.5"/>
<text text-anchor="start" x="884.5" y="-226.5" font-family="Helvetica,sans-Serif" font-size="10.00">pism::inverse::IPGrounded</text>
<text text-anchor="middle" x="949" y="-215.5" font-family="Helvetica,sans-Serif" font-size="10.00">IceH1NormFunctional2S</text>
</a>
</g>
</g>
<!-- Node3&#45;&gt;Node4 -->
<g id="edge3" class="edge">
<title>Node3&#45;&gt;Node4</title>
<path fill="none" stroke="midnightblue" d="M814.2,-253.3C835.95,-248.46 859.44,-243.23 880.57,-238.52"/>
<polygon fill="midnightblue" stroke="midnightblue" points="813.34,-249.91 804.34,-255.5 814.86,-256.74 813.34,-249.91"/>
</g>
<!-- Node5 -->
<g id="node5" class="node">
<title>Node5</title>
<g id="a_node5"><a xlink:href="classpism_1_1inverse_1_1IPMeanSquareFunctional2S.html" target="_top" xlink:title="Implements a functional corresponding to a (possibly weighted) sum of squares of components of an Ice...">
<polygon fill="none" stroke="black" points="870,-159.5 870,-189.5 1028,-189.5 1028,-159.5 870,-159.5"/>
<text text-anchor="start" x="878" y="-177.5" font-family="Helvetica,sans-Serif" font-size="10.00">pism::inverse::IPMeanSquare</text>
<text text-anchor="middle" x="949" y="-166.5" font-family="Helvetica,sans-Serif" font-size="10.00">Functional2S</text>
</a>
</g>
</g>
<!-- Node3&#45;&gt;Node5 -->
<g id="edge4" class="edge">
<title>Node3&#45;&gt;Node5</title>
<path fill="none" stroke="midnightblue" d="M824.95,-251.18C827.72,-249.73 830.42,-248.17 833,-246.5 855.32,-232.05 848.16,-214.66 870,-199.5 875.49,-195.69 881.59,-192.43 887.9,-189.66"/>
<polygon fill="midnightblue" stroke="midnightblue" points="823.42,-248.03 815.85,-255.44 826.39,-254.37 823.42,-248.03"/>
</g>
<!-- Node6 -->
<g id="node6" class="node">
<title>Node6</title>
<g id="a_node6"><a xlink:href="classpism_1_1inverse_1_1IP__H1NormFunctional2S.html" target="_top" xlink:title="Implements a functional corresponding to (the square of) an &#160;norm of a scalar valued function.">
<polygon fill="none" stroke="black" points="877.5,-306.5 877.5,-336.5 1020.5,-336.5 1020.5,-306.5 877.5,-306.5"/>
<text text-anchor="start" x="885.5" y="-324.5" font-family="Helvetica,sans-Serif" font-size="10.00">pism::inverse::IP_H1Norm</text>
<text text-anchor="middle" x="949" y="-313.5" font-family="Helvetica,sans-Serif" font-size="10.00">Functional2S</text>
</a>
</g>
</g>
<!-- Node3&#45;&gt;Node6 -->
<g id="edge5" class="edge">
<title>Node3&#45;&gt;Node6</title>
<path fill="none" stroke="midnightblue" d="M808.96,-287.89C833.97,-293.94 861.78,-300.66 885.91,-306.49"/>
<polygon fill="midnightblue" stroke="midnightblue" points="809.71,-284.47 799.17,-285.53 808.06,-291.28 809.71,-284.47"/>
</g>
<!-- Node7 -->
<g id="node7" class="node">
<title>Node7</title>
<g id="a_node7"><a xlink:href="classpism_1_1inverse_1_1IP__L2NormFunctional2S.html" target="_top" xlink:title="Implements a functional corresponding to (the square of) an &#160;norm of a scalar valued function.">
<polygon fill="none" stroke="black" points="878.5,-257.5 878.5,-287.5 1019.5,-287.5 1019.5,-257.5 878.5,-257.5"/>
<text text-anchor="start" x="886.5" y="-275.5" font-family="Helvetica,sans-Serif" font-size="10.00">pism::inverse::IP_L2Norm</text>
<text text-anchor="middle" x="949" y="-264.5" font-family="Helvetica,sans-Serif" font-size="10.00">Functional2S</text>
</a>
</g>
</g>
<!-- Node3&#45;&gt;Node7 -->
<g id="edge6" class="edge">
<title>Node3&#45;&gt;Node7</title>
<path fill="none" stroke="midnightblue" d="M828.09,-271.36C844.94,-271.52 862.3,-271.69 878.39,-271.84"/>
<polygon fill="midnightblue" stroke="midnightblue" points="827.71,-267.86 817.67,-271.26 827.64,-274.86 827.71,-267.86"/>
</g>
<!-- Node11 -->
<g id="node11" class="node">
<title>Node11</title>
<g id="a_node11"><a xlink:href="classpism_1_1inverse_1_1IPMeanSquareFunctional2V.html" target="_top" xlink:title="Implements a functional corresponding to a (possibly weighted) sum of squares of components of an Ice...">
<polygon fill="none" stroke="black" points="870,-107.5 870,-137.5 1028,-137.5 1028,-107.5 870,-107.5"/>
<text text-anchor="start" x="878" y="-125.5" font-family="Helvetica,sans-Serif" font-size="10.00">pism::inverse::IPMeanSquare</text>
<text text-anchor="middle" x="949" y="-114.5" font-family="Helvetica,sans-Serif" font-size="10.00">Functional2V</text>
</a>
</g>
</g>
<!-- Node10&#45;&gt;Node11 -->
<g id="edge10" class="edge">
<title>Node10&#45;&gt;Node11</title>
<path fill="none" stroke="midnightblue" d="M828.29,-119.66C842.15,-119.99 856.34,-120.33 869.89,-120.65"/>
<polygon fill="midnightblue" stroke="midnightblue" points="828.36,-116.16 818.28,-119.43 828.19,-123.16 828.36,-116.16"/>
</g>
<!-- Node12 -->
<g id="node12" class="node">
<title>Node12</title>
<g id="a_node12"><a xlink:href="classpism_1_1inverse_1_1IP__L2NormFunctional2V.html" target="_top" xlink:title="Implements a functional corresponding to (the square of) an &#160;norm of a vector valued function.">
<polygon fill="none" stroke="black" points="878.5,-58.5 878.5,-88.5 1019.5,-88.5 1019.5,-58.5 878.5,-58.5"/>
<text text-anchor="start" x="886.5" y="-76.5" font-family="Helvetica,sans-Serif" font-size="10.00">pism::inverse::IP_L2Norm</text>
<text text-anchor="middle" x="949" y="-65.5" font-family="Helvetica,sans-Serif" font-size="10.00">Functional2V</text>
</a>
</g>
</g>
<!-- Node10&#45;&gt;Node12 -->
<g id="edge11" class="edge">
<title>Node10&#45;&gt;Node12</title>
<path fill="none" stroke="midnightblue" d="M818.88,-100.42C838.56,-96.32 859.39,-91.98 878.44,-88.01"/>
<polygon fill="midnightblue" stroke="midnightblue" points="818.1,-97.01 809.02,-102.48 819.53,-103.87 818.1,-97.01"/>
</g>
<!-- Node13&#45;&gt;Node3 -->
<g id="edge13" class="edge">
<title>Node13&#45;&gt;Node3</title>
<path fill="none" stroke="midnightblue" d="M477.8,-293.76C520.61,-290.24 573.61,-285.77 621,-281.5 631.79,-280.53 643.16,-279.47 654.36,-278.41"/>
<polygon fill="midnightblue" stroke="midnightblue" points="477.39,-290.28 467.71,-294.59 477.96,-297.26 477.39,-290.28"/>
</g>
<!-- Node14 -->
<g id="node14" class="node">
<title>Node14</title>
<g id="a_node14"><a xlink:href="classpism_1_1inverse_1_1IPTotalVariationFunctional2S.html" target="_top" xlink:title="Pseduo total variation functional.">
<polygon fill="none" stroke="black" points="654,-310.5 654,-340.5 818,-340.5 818,-310.5 654,-310.5"/>
<text text-anchor="start" x="662" y="-328.5" font-family="Helvetica,sans-Serif" font-size="10.00">pism::inverse::IPTotalVariation</text>
<text text-anchor="middle" x="736" y="-317.5" font-family="Helvetica,sans-Serif" font-size="10.00">Functional2S</text>
</a>
</g>
</g>
<!-- Node13&#45;&gt;Node14 -->
<g id="edge14" class="edge">
<title>Node13&#45;&gt;Node14</title>
<path fill="none" stroke="midnightblue" d="M478,-310.31C482.39,-310.74 486.75,-311.14 491,-311.5 545.22,-316.14 606.35,-319.65 653.86,-321.99"/>
<polygon fill="midnightblue" stroke="midnightblue" points="477.99,-306.79 467.7,-309.28 477.3,-313.76 477.99,-306.79"/>
</g>
<!-- Node15&#45;&gt;Node8 -->
<g id="edge16" class="edge">
<title>Node15&#45;&gt;Node8</title>
<path fill="none" stroke="midnightblue" d="M456.5,-263.8C503.12,-273.71 567.84,-280.75 621,-261.5 630.79,-257.95 629.74,-251.26 639,-246.5 646.51,-242.64 654.66,-239.35 662.93,-236.54"/>
<polygon fill="midnightblue" stroke="midnightblue" points="457.06,-260.34 446.54,-261.59 455.54,-267.18 457.06,-260.34"/>
</g>
<!-- Node16&#45;&gt;Node9 -->
<g id="edge18" class="edge">
<title>Node16&#45;&gt;Node9</title>
<path fill="none" stroke="midnightblue" d="M477.69,-117.81C521.36,-113.73 575.18,-113.68 621,-128.5 630.39,-131.54 630.2,-137.04 639,-141.5 651.26,-147.71 665.03,-153.03 678.23,-157.42"/>
<polygon fill="midnightblue" stroke="midnightblue" points="477.27,-114.33 467.68,-118.83 477.98,-121.3 477.27,-114.33"/>
</g>
<!-- Node17&#45;&gt;Node10 -->
<g id="edge20" class="edge">
<title>Node17&#45;&gt;Node10</title>
<path fill="none" stroke="midnightblue" d="M477.8,-86.9C520.61,-91.77 573.61,-97.87 621,-103.5 631.59,-104.76 642.74,-106.1 653.74,-107.44"/>
<polygon fill="midnightblue" stroke="midnightblue" points="478.04,-83.41 467.71,-85.75 477.25,-90.36 478.04,-83.41"/>
</g>
<!-- Node18 -->
<g id="node18" class="node">
<title>Node18</title>
<g id="a_node18"><a xlink:href="classpism_1_1inverse_1_1IPLogRatioFunctional.html" target="_top" xlink:title="Implements a functional for log&#45;ratio errors.">
<polygon fill="none" stroke="black" points="666,-49.5 666,-79.5 806,-79.5 806,-49.5 666,-49.5"/>
<text text-anchor="start" x="674" y="-67.5" font-family="Helvetica,sans-Serif" font-size="10.00">pism::inverse::IPLogRatio</text>
<text text-anchor="middle" x="736" y="-56.5" font-family="Helvetica,sans-Serif" font-size="10.00">Functional</text>
</a>
</g>
</g>
<!-- Node17&#45;&gt;Node18 -->
<g id="edge21" class="edge">
<title>Node17&#45;&gt;Node18</title>
<path fill="none" stroke="midnightblue" d="M477.74,-74.32C535.47,-72.12 611.45,-69.22 665.85,-67.14"/>
<polygon fill="midnightblue" stroke="midnightblue" points="477.4,-70.83 467.55,-74.71 477.67,-77.83 477.4,-70.83"/>
</g>
<!-- Node19 -->
<g id="node19" class="node">
<title>Node19</title>
<g id="a_node19"><a xlink:href="classpism_1_1inverse_1_1IPLogRelativeFunctional.html" target="_top" xlink:title="Implements a functional for log&#45;relative errors.">
<polygon fill="none" stroke="black" points="658.5,-0.5 658.5,-30.5 813.5,-30.5 813.5,-0.5 658.5,-0.5"/>
<text text-anchor="start" x="666.5" y="-18.5" font-family="Helvetica,sans-Serif" font-size="10.00">pism::inverse::IPLogRelative</text>
<text text-anchor="middle" x="736" y="-7.5" font-family="Helvetica,sans-Serif" font-size="10.00">Functional</text>
</a>
</g>
</g>
<!-- Node17&#45;&gt;Node19 -->
<g id="edge22" class="edge">
<title>Node17&#45;&gt;Node19</title>
<path fill="none" stroke="midnightblue" d="M477.63,-62.36C532.73,-52.33 604.49,-39.26 658.23,-29.48"/>
<polygon fill="midnightblue" stroke="midnightblue" points="476.76,-58.96 467.55,-64.2 478.01,-65.85 476.76,-58.96"/>
</g>
</g>
</svg>
