<?xml version="1.0" encoding="UTF-8" standalone="no"?>
<!DOCTYPE svg PUBLIC "-//W3C//DTD SVG 1.1//EN"
 "http://www.w3.org/Graphics/SVG/1.1/DTD/svg11.dtd">
<!-- Generated by graphviz version 2.43.0 (0)
 -->
<!-- Title: pism::hydrology::NullTransport Pages: 1 -->
<svg width="332pt" height="207pt"
 viewBox="0.00 0.00 332.00 207.00" xmlns="http://www.w3.org/2000/svg" xmlns:xlink="http://www.w3.org/1999/xlink">
<g id="graph0" class="graph" transform="scale(1 1) rotate(0) translate(4 203)">
<title>pism::hydrology::NullTransport</title>
<!-- Node1 -->
<g id="node1" class="node">
<title>Node1</title>
<g id="a_node1"><a xlink:title=" ">
<polygon fill="#bfbfbf" stroke="black" points="82.5,-67.5 82.5,-86.5 247.5,-86.5 247.5,-67.5 82.5,-67.5"/>
<text text-anchor="middle" x="165" y="-74.5" font-family="Helvetica,sans-Serif" font-size="10.00">pism::hydrology::NullTransport</text>
</a>
</g>
</g>
<!-- Node4 -->
<g id="node4" class="node">
<title>Node4</title>
<g id="a_node4"><a xlink:href="classpism_1_1hydrology_1_1SteadyState.html" target="_top" xlink:title=" ">
<polygon fill="none" stroke="black" points="0,-6 0,-25 160,-25 160,-6 0,-6"/>
<text text-anchor="middle" x="80" y="-13" font-family="Helvetica,sans-Serif" font-size="10.00">pism::hydrology::SteadyState</text>
</a>
</g>
</g>
<!-- Node1&#45;&gt;Node4 -->
<g id="edge3" class="edge">
<title>Node1&#45;&gt;Node4</title>
<path fill="none" stroke="midnightblue" d="M144.45,-61.61C128.1,-50.17 105.78,-34.55 92.16,-25.01"/>
<polygon fill="midnightblue" stroke="midnightblue" points="142.62,-64.61 152.82,-67.48 146.64,-58.87 142.62,-64.61"/>
</g>
<!-- Node5 -->
<g id="node5" class="node">
<title>Node5</title>
<g id="a_node5"><a xlink:href="classpism_1_1icebin_1_1NullTransportHydrology.html" target="_top" xlink:title=" ">
<polygon fill="none" stroke="black" points="178,-0.5 178,-30.5 324,-30.5 324,-0.5 178,-0.5"/>
<text text-anchor="start" x="186" y="-18.5" font-family="Helvetica,sans-Serif" font-size="10.00">pism::icebin::NullTransport</text>
<text text-anchor="middle" x="251" y="-7.5" font-family="Helvetica,sans-Serif" font-size="10.00">Hydrology</text>
</a>
</g>
</g>
<!-- Node1&#45;&gt;Node5 -->
<g id="edge4" class="edge">
<title>Node1&#45;&gt;Node5</title>
<path fill="none" stroke="midnightblue" d="M185.61,-61.74C199.28,-52.28 217.13,-39.93 230.73,-30.52"/>
<polygon fill="midnightblue" stroke="midnightblue" points="183.55,-58.91 177.32,-67.48 187.54,-64.66 183.55,-58.91"/>
</g>
<!-- Node2 -->
<g id="node2" class="node">
<title>Node2</title>
<g id="a_node2"><a xlink:href="classpism_1_1hydrology_1_1Hydrology.html" target="_top" xlink:title="The PISM subglacial hydrology model interface.">
<polygon fill="none" stroke="black" points="89.5,-123.5 89.5,-142.5 240.5,-142.5 240.5,-123.5 89.5,-123.5"/>
<text text-anchor="middle" x="165" y="-130.5" font-family="Helvetica,sans-Serif" font-size="10.00">pism::hydrology::Hydrology</text>
</a>
</g>
</g>
<!-- Node2&#45;&gt;Node1 -->
<g id="edge1" class="edge">
<title>Node2&#45;&gt;Node1</title>
<path fill="none" stroke="midnightblue" d="M165,-112.8C165,-103.91 165,-93.78 165,-86.75"/>
<polygon fill="midnightblue" stroke="midnightblue" points="161.5,-113.08 165,-123.08 168.5,-113.08 161.5,-113.08"/>
</g>
<!-- Node3 -->
<g id="node3" class="node">
<title>Node3</title>
<g id="a_node3"><a xlink:href="classpism_1_1Component.html" target="_top" xlink:title="A class defining a common interface for most PISM sub&#45;models.">
<polygon fill="none" stroke="black" points="113.5,-179.5 113.5,-198.5 216.5,-198.5 216.5,-179.5 113.5,-179.5"/>
<text text-anchor="middle" x="165" y="-186.5" font-family="Helvetica,sans-Serif" font-size="10.00">pism::Component</text>
</a>
</g>
</g>
<!-- Node3&#45;&gt;Node2 -->
<g id="edge2" class="edge">
<title>Node3&#45;&gt;Node2</title>
<path fill="none" stroke="midnightblue" d="M165,-168.8C165,-159.91 165,-149.78 165,-142.75"/>
<polygon fill="midnightblue" stroke="midnightblue" points="161.5,-169.08 165,-179.08 168.5,-169.08 161.5,-169.08"/>
</g>
</g>
</svg>
