<?xml version="1.0" encoding="UTF-8" standalone="no"?>
<!DOCTYPE svg PUBLIC "-//W3C//DTD SVG 1.1//EN"
 "http://www.w3.org/Graphics/SVG/1.1/DTD/svg11.dtd">
<!-- Generated by graphviz version 2.43.0 (0)
 -->
<!-- Title: pism::array::CellType1 Pages: 1 -->
<svg width="233pt" height="448pt"
 viewBox="0.00 0.00 232.50 448.00" xmlns="http://www.w3.org/2000/svg" xmlns:xlink="http://www.w3.org/1999/xlink">
<g id="graph0" class="graph" transform="scale(1 1) rotate(0) translate(4 444)">
<title>pism::array::CellType1</title>
<!-- Node1 -->
<g id="node1" class="node">
<title>Node1</title>
<g id="a_node1"><a xlink:title=" ">
<polygon fill="#bfbfbf" stroke="black" points="4,-57.5 4,-76.5 129,-76.5 129,-57.5 4,-57.5"/>
<text text-anchor="middle" x="66.5" y="-64.5" font-family="Helvetica,sans-Serif" font-size="10.00">pism::array::CellType1</text>
</a>
</g>
</g>
<!-- Node8 -->
<g id="node8" class="node">
<title>Node8</title>
<g id="a_node8"><a xlink:href="classpism_1_1array_1_1CellType2.html" target="_top" xlink:title=" ">
<polygon fill="none" stroke="black" points="4,-0.5 4,-19.5 129,-19.5 129,-0.5 4,-0.5"/>
<text text-anchor="middle" x="66.5" y="-7.5" font-family="Helvetica,sans-Serif" font-size="10.00">pism::array::CellType2</text>
</a>
</g>
</g>
<!-- Node1&#45;&gt;Node8 -->
<g id="edge8" class="edge">
<title>Node1&#45;&gt;Node8</title>
<path fill="none" stroke="midnightblue" d="M66.5,-47.12C66.5,-37.82 66.5,-27.06 66.5,-19.71"/>
<polygon fill="midnightblue" stroke="midnightblue" points="63,-47.41 66.5,-57.41 70,-47.41 63,-47.41"/>
</g>
<!-- Node2 -->
<g id="node2" class="node">
<title>Node2</title>
<g id="a_node2"><a xlink:href="classpism_1_1array_1_1CellType.html" target="_top" xlink:title="&quot;Cell type&quot; mask. Adds convenience methods to array::Scalar.">
<polygon fill="none" stroke="black" points="7,-114.5 7,-133.5 126,-133.5 126,-114.5 7,-114.5"/>
<text text-anchor="middle" x="66.5" y="-121.5" font-family="Helvetica,sans-Serif" font-size="10.00">pism::array::CellType</text>
</a>
</g>
</g>
<!-- Node2&#45;&gt;Node1 -->
<g id="edge1" class="edge">
<title>Node2&#45;&gt;Node1</title>
<path fill="none" stroke="midnightblue" d="M66.5,-104.12C66.5,-94.82 66.5,-84.06 66.5,-76.71"/>
<polygon fill="midnightblue" stroke="midnightblue" points="63,-104.41 66.5,-114.41 70,-104.41 63,-104.41"/>
</g>
<!-- Node3 -->
<g id="node3" class="node">
<title>Node3</title>
<g id="a_node3"><a xlink:href="classpism_1_1array_1_1Scalar.html" target="_top" xlink:title=" ">
<polygon fill="none" stroke="black" points="13,-171.5 13,-190.5 120,-190.5 120,-171.5 13,-171.5"/>
<text text-anchor="middle" x="66.5" y="-178.5" font-family="Helvetica,sans-Serif" font-size="10.00">pism::array::Scalar</text>
</a>
</g>
</g>
<!-- Node3&#45;&gt;Node2 -->
<g id="edge2" class="edge">
<title>Node3&#45;&gt;Node2</title>
<path fill="none" stroke="midnightblue" d="M66.5,-161.12C66.5,-151.82 66.5,-141.06 66.5,-133.71"/>
<polygon fill="midnightblue" stroke="midnightblue" points="63,-161.41 66.5,-171.41 70,-161.41 63,-161.41"/>
</g>
<!-- Node4 -->
<g id="node4" class="node">
<title>Node4</title>
<g id="a_node4"><a xlink:href="classpism_1_1array_1_1Array2D.html" target="_top" xlink:title=" ">
<polygon fill="none" stroke="black" points="8,-228.5 8,-258.5 125,-258.5 125,-228.5 8,-228.5"/>
<text text-anchor="start" x="16" y="-246.5" font-family="Helvetica,sans-Serif" font-size="10.00">pism::array::Array2D</text>
<text text-anchor="middle" x="66.5" y="-235.5" font-family="Helvetica,sans-Serif" font-size="10.00">&lt; double &gt;</text>
</a>
</g>
</g>
<!-- Node4&#45;&gt;Node3 -->
<g id="edge3" class="edge">
<title>Node4&#45;&gt;Node3</title>
<path fill="none" stroke="midnightblue" d="M66.5,-218.35C66.5,-208.51 66.5,-197.78 66.5,-190.54"/>
<polygon fill="midnightblue" stroke="midnightblue" points="63,-218.47 66.5,-228.47 70,-218.47 63,-218.47"/>
</g>
<!-- Node5 -->
<g id="node5" class="node">
<title>Node5</title>
<g id="a_node5"><a xlink:href="classpism_1_1array_1_1Array.html" target="_top" xlink:title="Abstract class for reading, writing, allocating, and accessing a DA&#45;based PETSc Vec (2D and 3D fields...">
<polygon fill="none" stroke="black" points="10.5,-363.5 10.5,-382.5 114.5,-382.5 114.5,-363.5 10.5,-363.5"/>
<text text-anchor="middle" x="62.5" y="-370.5" font-family="Helvetica,sans-Serif" font-size="10.00">pism::array::Array</text>
</a>
</g>
</g>
<!-- Node5&#45;&gt;Node4 -->
<g id="edge4" class="edge">
<title>Node5&#45;&gt;Node4</title>
<path fill="none" stroke="midnightblue" d="M63.1,-352.9C63.91,-327.05 65.34,-281.54 66.06,-258.59"/>
<polygon fill="midnightblue" stroke="midnightblue" points="59.59,-353.13 62.77,-363.24 66.59,-353.35 59.59,-353.13"/>
</g>
<!-- Node7 -->
<g id="node7" class="node">
<title>Node7</title>
<g id="a_node7"><a xlink:href="classpism_1_1array_1_1Array2D.html" target="_top" xlink:title="A storage vector combining related fields in a struct.">
<polygon fill="none" stroke="black" points="78.5,-306.5 78.5,-325.5 224.5,-325.5 224.5,-306.5 78.5,-306.5"/>
<text text-anchor="middle" x="151.5" y="-313.5" font-family="Helvetica,sans-Serif" font-size="10.00">pism::array::Array2D&lt; T &gt;</text>
</a>
</g>
</g>
<!-- Node5&#45;&gt;Node7 -->
<g id="edge7" class="edge">
<title>Node5&#45;&gt;Node7</title>
<path fill="none" stroke="midnightblue" d="M84.98,-358.11C101.57,-347.86 123.62,-334.23 137.69,-325.53"/>
<polygon fill="midnightblue" stroke="midnightblue" points="83.07,-355.17 76.41,-363.41 86.75,-361.13 83.07,-355.17"/>
</g>
<!-- Node6 -->
<g id="node6" class="node">
<title>Node6</title>
<g id="a_node6"><a xlink:href="classpism_1_1PetscAccessible.html" target="_top" xlink:title=" ">
<polygon fill="none" stroke="black" points="0,-420.5 0,-439.5 125,-439.5 125,-420.5 0,-420.5"/>
<text text-anchor="middle" x="62.5" y="-427.5" font-family="Helvetica,sans-Serif" font-size="10.00">pism::PetscAccessible</text>
</a>
</g>
</g>
<!-- Node6&#45;&gt;Node5 -->
<g id="edge5" class="edge">
<title>Node6&#45;&gt;Node5</title>
<path fill="none" stroke="midnightblue" d="M62.5,-410.12C62.5,-400.82 62.5,-390.06 62.5,-382.71"/>
<polygon fill="midnightblue" stroke="midnightblue" points="59,-410.41 62.5,-420.41 66,-410.41 59,-410.41"/>
</g>
<!-- Node7&#45;&gt;Node4 -->
<g id="edge6" class="edge">
<title>Node7&#45;&gt;Node4</title>
<path fill="none" stroke="orange" stroke-dasharray="5,2" d="M133.15,-299.78C118.41,-287.55 97.84,-270.5 83.47,-258.58"/>
<polygon fill="orange" stroke="orange" points="131.15,-302.67 141.08,-306.36 135.61,-297.28 131.15,-302.67"/>
<text text-anchor="middle" x="146" y="-280" font-family="Helvetica,sans-Serif" font-size="10.00"> &lt; double &gt;</text>
</g>
</g>
</svg>
