<?xml version="1.0" encoding="UTF-8" standalone="no"?>
<!DOCTYPE svg PUBLIC "-//W3C//DTD SVG 1.1//EN"
 "http://www.w3.org/Graphics/SVG/1.1/DTD/svg11.dtd">
<!-- Generated by graphviz version 2.43.0 (0)
 -->
<!-- Title: pism::atmosphere::AtmosphereModel Pages: 1 -->
<svg width="763pt" height="498pt"
 viewBox="0.00 0.00 763.00 498.00" xmlns="http://www.w3.org/2000/svg" xmlns:xlink="http://www.w3.org/1999/xlink">
<g id="graph0" class="graph" transform="scale(1 1) rotate(0) translate(4 494)">
<title>pism::atmosphere::AtmosphereModel</title>
<!-- Node1 -->
<g id="node1" class="node">
<title>Node1</title>
<g id="a_node1"><a xlink:title="A purely virtual class defining the interface of a PISM Atmosphere Model.">
<polygon fill="#bfbfbf" stroke="black" points="139,-263 139,-293 309,-293 309,-263 139,-263"/>
<text text-anchor="start" x="147" y="-281" font-family="Helvetica,sans-Serif" font-size="10.00">pism::atmosphere::Atmosphere</text>
<text text-anchor="middle" x="224" y="-270" font-family="Helvetica,sans-Serif" font-size="10.00">Model</text>
</a>
</g>
</g>
<!-- Node3 -->
<g id="node3" class="node">
<title>Node3</title>
<g id="a_node3"><a xlink:href="classpism_1_1atmosphere_1_1Anomaly.html" target="_top" xlink:title="Reads and uses air_temp and precipitation anomalies from a file.">
<polygon fill="none" stroke="black" points="354,-470.5 354,-489.5 509,-489.5 509,-470.5 354,-470.5"/>
<text text-anchor="middle" x="431.5" y="-477.5" font-family="Helvetica,sans-Serif" font-size="10.00">pism::atmosphere::Anomaly</text>
</a>
</g>
</g>
<!-- Node1&#45;&gt;Node3 -->
<g id="edge2" class="edge">
<title>Node1&#45;&gt;Node3</title>
<path fill="none" stroke="midnightblue" d="M234.01,-302.67C249.93,-342.58 286.91,-420.87 345,-461 350.63,-464.89 356.92,-468 363.47,-470.48"/>
<polygon fill="midnightblue" stroke="midnightblue" points="237.21,-301.23 230.34,-293.17 230.68,-303.76 237.21,-301.23"/>
</g>
<!-- Node4 -->
<g id="node4" class="node">
<title>Node4</title>
<g id="a_node4"><a xlink:href="classpism_1_1atmosphere_1_1Delta__P.html" target="_top" xlink:title=" ">
<polygon fill="none" stroke="black" points="357,-432.5 357,-451.5 506,-451.5 506,-432.5 357,-432.5"/>
<text text-anchor="middle" x="431.5" y="-439.5" font-family="Helvetica,sans-Serif" font-size="10.00">pism::atmosphere::Delta_P</text>
</a>
</g>
</g>
<!-- Node1&#45;&gt;Node4 -->
<g id="edge3" class="edge">
<title>Node1&#45;&gt;Node4</title>
<path fill="none" stroke="midnightblue" d="M237.98,-302.01C256.98,-334.74 295.53,-392.73 345,-423 351.36,-426.89 358.41,-429.98 365.66,-432.45"/>
<polygon fill="midnightblue" stroke="midnightblue" points="240.91,-300.08 232.93,-293.11 234.82,-303.54 240.91,-300.08"/>
</g>
<!-- Node5 -->
<g id="node5" class="node">
<title>Node5</title>
<g id="a_node5"><a xlink:href="classpism_1_1atmosphere_1_1Delta__T.html" target="_top" xlink:title=" ">
<polygon fill="none" stroke="black" points="357,-394.5 357,-413.5 506,-413.5 506,-394.5 357,-394.5"/>
<text text-anchor="middle" x="431.5" y="-401.5" font-family="Helvetica,sans-Serif" font-size="10.00">pism::atmosphere::Delta_T</text>
</a>
</g>
</g>
<!-- Node1&#45;&gt;Node5 -->
<g id="edge4" class="edge">
<title>Node1&#45;&gt;Node5</title>
<path fill="none" stroke="midnightblue" d="M244.05,-300.85C265.86,-325.48 303.93,-363.96 345,-385 352.58,-388.88 360.93,-391.98 369.36,-394.44"/>
<polygon fill="midnightblue" stroke="midnightblue" points="246.49,-298.33 237.29,-293.07 241.21,-302.92 246.49,-298.33"/>
</g>
<!-- Node6 -->
<g id="node6" class="node">
<title>Node6</title>
<g id="a_node6"><a xlink:href="classpism_1_1atmosphere_1_1ElevationChange.html" target="_top" xlink:title=" ">
<polygon fill="none" stroke="black" points="353,-345 353,-375 510,-375 510,-345 353,-345"/>
<text text-anchor="start" x="361" y="-363" font-family="Helvetica,sans-Serif" font-size="10.00">pism::atmosphere::Elevation</text>
<text text-anchor="middle" x="431.5" y="-352" font-family="Helvetica,sans-Serif" font-size="10.00">Change</text>
</a>
</g>
</g>
<!-- Node1&#45;&gt;Node6 -->
<g id="edge5" class="edge">
<title>Node1&#45;&gt;Node6</title>
<path fill="none" stroke="midnightblue" d="M262.72,-297.82C286.02,-309.58 316.77,-324.25 345,-335 354.39,-338.58 364.53,-341.95 374.42,-344.99"/>
<polygon fill="midnightblue" stroke="midnightblue" points="264.03,-294.56 253.54,-293.14 260.86,-300.8 264.03,-294.56"/>
</g>
<!-- Node7 -->
<g id="node7" class="node">
<title>Node7</title>
<g id="a_node7"><a xlink:href="classpism_1_1atmosphere_1_1Frac__P.html" target="_top" xlink:title=" ">
<polygon fill="none" stroke="black" points="360,-306.5 360,-325.5 503,-325.5 503,-306.5 360,-306.5"/>
<text text-anchor="middle" x="431.5" y="-313.5" font-family="Helvetica,sans-Serif" font-size="10.00">pism::atmosphere::Frac_P</text>
</a>
</g>
</g>
<!-- Node1&#45;&gt;Node7 -->
<g id="edge6" class="edge">
<title>Node1&#45;&gt;Node7</title>
<path fill="none" stroke="midnightblue" d="M316.09,-294.84C337.7,-298.84 360.01,-302.96 379.12,-306.5"/>
<polygon fill="midnightblue" stroke="midnightblue" points="316.69,-291.4 306.22,-293.02 315.42,-298.28 316.69,-291.4"/>
</g>
<!-- Node8 -->
<g id="node8" class="node">
<title>Node8</title>
<g id="a_node8"><a xlink:href="classpism_1_1atmosphere_1_1Given.html" target="_top" xlink:title=" ">
<polygon fill="none" stroke="black" points="361.5,-268.5 361.5,-287.5 501.5,-287.5 501.5,-268.5 361.5,-268.5"/>
<text text-anchor="middle" x="431.5" y="-275.5" font-family="Helvetica,sans-Serif" font-size="10.00">pism::atmosphere::Given</text>
</a>
</g>
</g>
<!-- Node1&#45;&gt;Node8 -->
<g id="edge7" class="edge">
<title>Node1&#45;&gt;Node8</title>
<path fill="none" stroke="midnightblue" d="M319.38,-278C333.46,-278 347.75,-278 361.18,-278"/>
<polygon fill="midnightblue" stroke="midnightblue" points="319.18,-274.5 309.18,-278 319.18,-281.5 319.18,-274.5"/>
</g>
<!-- Node9 -->
<g id="node9" class="node">
<title>Node9</title>
<g id="a_node9"><a xlink:href="classpism_1_1atmosphere_1_1OrographicPrecipitation.html" target="_top" xlink:title=" ">
<polygon fill="none" stroke="black" points="349.5,-219 349.5,-249 513.5,-249 513.5,-219 349.5,-219"/>
<text text-anchor="start" x="357.5" y="-237" font-family="Helvetica,sans-Serif" font-size="10.00">pism::atmosphere::Orographic</text>
<text text-anchor="middle" x="431.5" y="-226" font-family="Helvetica,sans-Serif" font-size="10.00">Precipitation</text>
</a>
</g>
</g>
<!-- Node1&#45;&gt;Node9 -->
<g id="edge8" class="edge">
<title>Node1&#45;&gt;Node9</title>
<path fill="none" stroke="midnightblue" d="M305.15,-260.84C323.36,-256.94 342.56,-252.83 360.32,-249.03"/>
<polygon fill="midnightblue" stroke="midnightblue" points="304.19,-257.46 295.15,-262.98 305.66,-264.31 304.19,-257.46"/>
</g>
<!-- Node10 -->
<g id="node10" class="node">
<title>Node10</title>
<g id="a_node10"><a xlink:href="classpism_1_1atmosphere_1_1PrecipitationScaling.html" target="_top" xlink:title=" ">
<polygon fill="none" stroke="black" points="345,-170 345,-200 518,-200 518,-170 345,-170"/>
<text text-anchor="start" x="353" y="-188" font-family="Helvetica,sans-Serif" font-size="10.00">pism::atmosphere::Precipitation</text>
<text text-anchor="middle" x="431.5" y="-177" font-family="Helvetica,sans-Serif" font-size="10.00">Scaling</text>
</a>
</g>
</g>
<!-- Node1&#45;&gt;Node10 -->
<g id="edge9" class="edge">
<title>Node1&#45;&gt;Node10</title>
<path fill="none" stroke="midnightblue" d="M256.1,-257.24C279.7,-242.21 313.37,-222.29 345,-209 352.82,-205.72 361.22,-202.73 369.6,-200.08"/>
<polygon fill="midnightblue" stroke="midnightblue" points="254.08,-254.38 247.57,-262.74 257.88,-260.26 254.08,-254.38"/>
</g>
<!-- Node11 -->
<g id="node11" class="node">
<title>Node11</title>
<g id="a_node11"><a xlink:href="classpism_1_1atmosphere_1_1Uniform.html" target="_top" xlink:title=" ">
<polygon fill="none" stroke="black" points="356,-131.5 356,-150.5 507,-150.5 507,-131.5 356,-131.5"/>
<text text-anchor="middle" x="431.5" y="-138.5" font-family="Helvetica,sans-Serif" font-size="10.00">pism::atmosphere::Uniform</text>
</a>
</g>
</g>
<!-- Node1&#45;&gt;Node11 -->
<g id="edge10" class="edge">
<title>Node1&#45;&gt;Node11</title>
<path fill="none" stroke="midnightblue" d="M241.89,-254.86C262.92,-227.78 301.45,-183.67 345,-160 352.08,-156.15 359.89,-153.08 367.83,-150.63"/>
<polygon fill="midnightblue" stroke="midnightblue" points="238.96,-252.92 235.69,-263 244.53,-257.16 238.96,-252.92"/>
</g>
<!-- Node12 -->
<g id="node12" class="node">
<title>Node12</title>
<g id="a_node12"><a xlink:href="classpism_1_1atmosphere_1_1WeatherStation.html" target="_top" xlink:title=" ">
<polygon fill="none" stroke="black" points="355.5,-82 355.5,-112 507.5,-112 507.5,-82 355.5,-82"/>
<text text-anchor="start" x="363.5" y="-100" font-family="Helvetica,sans-Serif" font-size="10.00">pism::atmosphere::Weather</text>
<text text-anchor="middle" x="431.5" y="-89" font-family="Helvetica,sans-Serif" font-size="10.00">Station</text>
</a>
</g>
</g>
<!-- Node1&#45;&gt;Node12 -->
<g id="edge11" class="edge">
<title>Node1&#45;&gt;Node12</title>
<path fill="none" stroke="midnightblue" d="M237.29,-253.61C255.89,-219.15 294.47,-156.55 345,-122 350.62,-118.16 356.83,-114.9 363.27,-112.14"/>
<polygon fill="midnightblue" stroke="midnightblue" points="234.15,-252.06 232.58,-262.54 240.34,-255.33 234.15,-252.06"/>
</g>
<!-- Node13 -->
<g id="node13" class="node">
<title>Node13</title>
<g id="a_node13"><a xlink:href="classpism_1_1atmosphere_1_1YearlyCycle.html" target="_top" xlink:title=" ">
<polygon fill="none" stroke="black" points="361.5,-33 361.5,-63 501.5,-63 501.5,-33 361.5,-33"/>
<text text-anchor="start" x="369.5" y="-51" font-family="Helvetica,sans-Serif" font-size="10.00">pism::atmosphere::Yearly</text>
<text text-anchor="middle" x="431.5" y="-40" font-family="Helvetica,sans-Serif" font-size="10.00">Cycle</text>
</a>
</g>
</g>
<!-- Node1&#45;&gt;Node13 -->
<g id="edge12" class="edge">
<title>Node1&#45;&gt;Node13</title>
<path fill="none" stroke="midnightblue" d="M232.55,-253.16C247.06,-209.7 283,-119.97 345,-72 350,-68.13 355.59,-64.89 361.46,-62.17"/>
<polygon fill="midnightblue" stroke="midnightblue" points="229.15,-252.32 229.4,-262.91 235.81,-254.47 229.15,-252.32"/>
</g>
<!-- Node2 -->
<g id="node2" class="node">
<title>Node2</title>
<g id="a_node2"><a xlink:href="classpism_1_1Component.html" target="_top" xlink:title="A class defining a common interface for most PISM sub&#45;models.">
<polygon fill="none" stroke="black" points="0,-268.5 0,-287.5 103,-287.5 103,-268.5 0,-268.5"/>
<text text-anchor="middle" x="51.5" y="-275.5" font-family="Helvetica,sans-Serif" font-size="10.00">pism::Component</text>
</a>
</g>
</g>
<!-- Node2&#45;&gt;Node1 -->
<g id="edge1" class="edge">
<title>Node2&#45;&gt;Node1</title>
<path fill="none" stroke="midnightblue" d="M113.2,-278C121.57,-278 130.28,-278 138.97,-278"/>
<polygon fill="midnightblue" stroke="midnightblue" points="113.19,-274.5 103.19,-278 113.19,-281.5 113.19,-274.5"/>
</g>
<!-- Node14 -->
<g id="node14" class="node">
<title>Node14</title>
<g id="a_node14"><a xlink:href="classpism_1_1atmosphere_1_1CosineYearlyCycle.html" target="_top" xlink:title=" ">
<polygon fill="none" stroke="black" points="582.5,-77 582.5,-107 726.5,-107 726.5,-77 582.5,-77"/>
<text text-anchor="start" x="590.5" y="-95" font-family="Helvetica,sans-Serif" font-size="10.00">pism::atmosphere::Cosine</text>
<text text-anchor="middle" x="654.5" y="-84" font-family="Helvetica,sans-Serif" font-size="10.00">YearlyCycle</text>
</a>
</g>
</g>
<!-- Node13&#45;&gt;Node14 -->
<g id="edge13" class="edge">
<title>Node13&#45;&gt;Node14</title>
<path fill="none" stroke="midnightblue" d="M511.62,-63.75C534.7,-68.35 559.78,-73.34 582.34,-77.83"/>
<polygon fill="midnightblue" stroke="midnightblue" points="512.01,-60.26 501.52,-61.74 510.64,-67.13 512.01,-60.26"/>
</g>
<!-- Node15 -->
<g id="node15" class="node">
<title>Node15</title>
<g id="a_node15"><a xlink:href="classpism_1_1atmosphere_1_1PIK.html" target="_top" xlink:title=" ">
<polygon fill="none" stroke="black" points="591,-38.5 591,-57.5 718,-57.5 718,-38.5 591,-38.5"/>
<text text-anchor="middle" x="654.5" y="-45.5" font-family="Helvetica,sans-Serif" font-size="10.00">pism::atmosphere::PIK</text>
</a>
</g>
</g>
<!-- Node13&#45;&gt;Node15 -->
<g id="edge14" class="edge">
<title>Node13&#45;&gt;Node15</title>
<path fill="none" stroke="midnightblue" d="M511.7,-48C537.63,-48 566.07,-48 590.63,-48"/>
<polygon fill="midnightblue" stroke="midnightblue" points="511.52,-44.5 501.52,-48 511.52,-51.5 511.52,-44.5"/>
</g>
<!-- Node16 -->
<g id="node16" class="node">
<title>Node16</title>
<g id="a_node16"><a xlink:href="classpism_1_1atmosphere_1_1SeaRISEGreenland.html" target="_top" xlink:title="A modification of YearlyCycle tailored for the SeaRISE&#45;Greenland assessment. Uses the Fausto [Faustoe...">
<polygon fill="none" stroke="black" points="554,-0.5 554,-19.5 755,-19.5 755,-0.5 554,-0.5"/>
<text text-anchor="middle" x="654.5" y="-7.5" font-family="Helvetica,sans-Serif" font-size="10.00">pism::atmosphere::SeaRISEGreenland</text>
</a>
</g>
</g>
<!-- Node13&#45;&gt;Node16 -->
<g id="edge15" class="edge">
<title>Node13&#45;&gt;Node16</title>
<path fill="none" stroke="midnightblue" d="M511.49,-34.42C540.09,-29.5 571.76,-24.05 597.93,-19.56"/>
<polygon fill="midnightblue" stroke="midnightblue" points="510.78,-30.99 501.52,-36.13 511.97,-37.89 510.78,-30.99"/>
</g>
</g>
</svg>
