<?xml version="1.0" encoding="UTF-8" standalone="no"?>
<!DOCTYPE svg PUBLIC "-//W3C//DTD SVG 1.1//EN"
 "http://www.w3.org/Graphics/SVG/1.1/DTD/svg11.dtd">
<!-- Generated by graphviz version 2.43.0 (0)
 -->
<!-- Title: pism::atmosphere::PrecipitationScaling Pages: 1 -->
<svg width="181pt" height="159pt"
 viewBox="0.00 0.00 181.00 159.00" xmlns="http://www.w3.org/2000/svg" xmlns:xlink="http://www.w3.org/1999/xlink">
<g id="graph0" class="graph" transform="scale(1 1) rotate(0) translate(4 155)">
<title>pism::atmosphere::PrecipitationScaling</title>
<!-- Node1 -->
<g id="Node000001" class="node">
<title>Node1</title>
<g id="a_Node000001"><a xlink:title=" ">
<polygon fill="#999999" stroke="#666666" points="173,-30 0,-30 0,0 173,0 173,-30"/>
<text text-anchor="start" x="8" y="-18" font-family="Helvetica,sans-Serif" font-size="10.00">pism::atmosphere::Precipitation</text>
<text text-anchor="middle" x="86.5" y="-7" font-family="Helvetica,sans-Serif" font-size="10.00">Scaling</text>
</a>
</g>
</g>
<!-- Node2 -->
<g id="Node000002" class="node">
<title>Node2</title>
<g id="a_Node000002"><a xlink:href="classpism_1_1atmosphere_1_1AtmosphereModel.html" target="_top" xlink:title="A purely virtual class defining the interface of a PISM Atmosphere Model.">
<polygon fill="white" stroke="#666666" points="171.5,-96 1.5,-96 1.5,-66 171.5,-66 171.5,-96"/>
<text text-anchor="start" x="9.5" y="-84" font-family="Helvetica,sans-Serif" font-size="10.00">pism::atmosphere::Atmosphere</text>
<text text-anchor="middle" x="86.5" y="-73" font-family="Helvetica,sans-Serif" font-size="10.00">Model</text>
</a>
</g>
</g>
<!-- Node2&#45;&gt;Node1 -->
<g id="edge1_Node000001_Node000002" class="edge">
<title>Node2&#45;&gt;Node1</title>
<g id="a_edge1_Node000001_Node000002"><a xlink:title=" ">
<path fill="none" stroke="#63b8ff" d="M86.5,-55.54C86.5,-46.96 86.5,-37.61 86.5,-30.16"/>
<polygon fill="#63b8ff" stroke="#63b8ff" points="83,-55.8 86.5,-65.8 90,-55.8 83,-55.8"/>
</a>
</g>
</g>
<!-- Node3 -->
<g id="Node000003" class="node">
<title>Node3</title>
<g id="a_Node000003"><a xlink:href="classpism_1_1Component.html" target="_top" xlink:title="A class defining a common interface for most PISM sub&#45;models.">
<polygon fill="white" stroke="#666666" points="138,-151 35,-151 35,-132 138,-132 138,-151"/>
<text text-anchor="middle" x="86.5" y="-139" font-family="Helvetica,sans-Serif" font-size="10.00">pism::Component</text>
</a>
</g>
</g>
<!-- Node3&#45;&gt;Node2 -->
<g id="edge2_Node000002_Node000003" class="edge">
<title>Node3&#45;&gt;Node2</title>
<g id="a_edge2_Node000002_Node000003"><a xlink:title=" ">
<path fill="none" stroke="#63b8ff" d="M86.5,-121.65C86.5,-113.36 86.5,-103.78 86.5,-96.11"/>
<polygon fill="#63b8ff" stroke="#63b8ff" points="83,-121.87 86.5,-131.87 90,-121.87 83,-121.87"/>
</a>
</g>
</g>
</g>
</svg>
