<?xml version="1.0" encoding="UTF-8" standalone="no"?>
<!DOCTYPE svg PUBLIC "-//W3C//DTD SVG 1.1//EN"
 "http://www.w3.org/Graphics/SVG/1.1/DTD/svg11.dtd">
<!-- Generated by graphviz version 2.43.0 (0)
 -->
<!-- Title: pism::diagnostics::scalar::IceMassRateOfChangeGlacierized Pages: 1 -->
<svg width="301pt" height="253pt"
 viewBox="0.00 0.00 300.50 253.00" xmlns="http://www.w3.org/2000/svg" xmlns:xlink="http://www.w3.org/1999/xlink">
<g id="graph0" class="graph" transform="scale(1 1) rotate(0) translate(4 249)">
<title>pism::diagnostics::scalar::IceMassRateOfChangeGlacierized</title>
<!-- Node1 -->
<g id="node1" class="node">
<title>Node1</title>
<g id="a_node1"><a xlink:title="Computes the rate of change of the total ice mass in glacierized areas.">
<polygon fill="#bfbfbf" stroke="black" points="58.5,-0.5 58.5,-41.5 220.5,-41.5 220.5,-0.5 58.5,-0.5"/>
<text text-anchor="start" x="66.5" y="-29.5" font-family="Helvetica,sans-Serif" font-size="10.00">pism::diagnostics::</text>
<text text-anchor="start" x="66.5" y="-18.5" font-family="Helvetica,sans-Serif" font-size="10.00">scalar::IceMassRateOfChange</text>
<text text-anchor="middle" x="139.5" y="-7.5" font-family="Helvetica,sans-Serif" font-size="10.00">Glacierized</text>
</a>
</g>
</g>
<!-- Node2 -->
<g id="node2" class="node">
<title>Node2</title>
<g id="a_node2"><a xlink:href="classpism_1_1TSDiag.html" target="_top" xlink:title=" ">
<polygon fill="none" stroke="black" points="48.5,-79.5 48.5,-109.5 230.5,-109.5 230.5,-79.5 48.5,-79.5"/>
<text text-anchor="start" x="56.5" y="-97.5" font-family="Helvetica,sans-Serif" font-size="10.00">pism::TSDiag&lt; TSRateDiagnostic,</text>
<text text-anchor="middle" x="139.5" y="-86.5" font-family="Helvetica,sans-Serif" font-size="10.00"> IceModel &gt;</text>
</a>
</g>
</g>
<!-- Node2&#45;&gt;Node1 -->
<g id="edge1" class="edge">
<title>Node2&#45;&gt;Node1</title>
<path fill="none" stroke="midnightblue" d="M139.5,-69.1C139.5,-60.1 139.5,-50.02 139.5,-41.51"/>
<polygon fill="midnightblue" stroke="midnightblue" points="136,-69.37 139.5,-79.37 143,-69.37 136,-69.37"/>
</g>
<!-- Node3 -->
<g id="node3" class="node">
<title>Node3</title>
<g id="a_node3"><a xlink:href="classpism_1_1TSRateDiagnostic.html" target="_top" xlink:title="Scalar diagnostic reporting the rate of change of a quantity modeled by PISM.">
<polygon fill="none" stroke="black" points="0,-168.5 0,-187.5 133,-187.5 133,-168.5 0,-168.5"/>
<text text-anchor="middle" x="66.5" y="-175.5" font-family="Helvetica,sans-Serif" font-size="10.00">pism::TSRateDiagnostic</text>
</a>
</g>
</g>
<!-- Node3&#45;&gt;Node2 -->
<g id="edge2" class="edge">
<title>Node3&#45;&gt;Node2</title>
<path fill="none" stroke="midnightblue" d="M81.02,-160.78C94.42,-145.83 114.11,-123.84 126.87,-109.6"/>
<polygon fill="midnightblue" stroke="midnightblue" points="78.38,-158.49 74.31,-168.28 83.59,-163.16 78.38,-158.49"/>
</g>
<!-- Node4 -->
<g id="node4" class="node">
<title>Node4</title>
<g id="a_node4"><a xlink:href="classpism_1_1TSDiagnostic.html" target="_top" xlink:title="PISM&#39;s scalar time&#45;series diagnostics.">
<polygon fill="none" stroke="black" points="11.5,-225.5 11.5,-244.5 121.5,-244.5 121.5,-225.5 11.5,-225.5"/>
<text text-anchor="middle" x="66.5" y="-232.5" font-family="Helvetica,sans-Serif" font-size="10.00">pism::TSDiagnostic</text>
</a>
</g>
</g>
<!-- Node4&#45;&gt;Node3 -->
<g id="edge3" class="edge">
<title>Node4&#45;&gt;Node3</title>
<path fill="none" stroke="midnightblue" d="M66.5,-215.12C66.5,-205.82 66.5,-195.06 66.5,-187.71"/>
<polygon fill="midnightblue" stroke="midnightblue" points="63,-215.41 66.5,-225.41 70,-215.41 63,-215.41"/>
</g>
<!-- Node5 -->
<g id="node5" class="node">
<title>Node5</title>
<g id="a_node5"><a xlink:href="classpism_1_1TSDiag.html" target="_top" xlink:title=" ">
<polygon fill="none" stroke="black" points="151.5,-168.5 151.5,-187.5 277.5,-187.5 277.5,-168.5 151.5,-168.5"/>
<text text-anchor="middle" x="214.5" y="-175.5" font-family="Helvetica,sans-Serif" font-size="10.00">pism::TSDiag&lt; D, M &gt;</text>
</a>
</g>
</g>
<!-- Node5&#45;&gt;Node2 -->
<g id="edge4" class="edge">
<title>Node5&#45;&gt;Node2</title>
<path fill="none" stroke="orange" stroke-dasharray="5,2" d="M199.58,-160.78C185.81,-145.83 165.58,-123.84 152.47,-109.6"/>
<polygon fill="orange" stroke="orange" points="197.13,-163.29 206.47,-168.28 202.28,-158.55 197.13,-163.29"/>
<text text-anchor="start" x="188.5" y="-142" font-family="Helvetica,sans-Serif" font-size="10.00"> &lt; TSRateDiagnostic,</text>
<text text-anchor="middle" x="240.5" y="-131" font-family="Helvetica,sans-Serif" font-size="10.00"> IceModel &gt;</text>
</g>
<!-- Node6 -->
<g id="node6" class="node">
<title>Node6</title>
<g id="a_node6"><a xlink:href="classD.html" target="_top" xlink:title=" ">
<polygon fill="none" stroke="black" points="200,-225.5 200,-244.5 229,-244.5 229,-225.5 200,-225.5"/>
<text text-anchor="middle" x="214.5" y="-232.5" font-family="Helvetica,sans-Serif" font-size="10.00">D</text>
</a>
</g>
</g>
<!-- Node6&#45;&gt;Node5 -->
<g id="edge5" class="edge">
<title>Node6&#45;&gt;Node5</title>
<path fill="none" stroke="midnightblue" d="M214.5,-215.12C214.5,-205.82 214.5,-195.06 214.5,-187.71"/>
<polygon fill="midnightblue" stroke="midnightblue" points="211,-215.41 214.5,-225.41 218,-215.41 211,-215.41"/>
</g>
</g>
</svg>
