<?xml version="1.0" encoding="UTF-8" standalone="no"?>
<!DOCTYPE svg PUBLIC "-//W3C//DTD SVG 1.1//EN"
 "http://www.w3.org/Graphics/SVG/1.1/DTD/svg11.dtd">
<!-- Generated by graphviz version 2.43.0 (0)
 -->
<!-- Title: pism::inverse::IPFunctional&lt; IMVecType &gt; Pages: 1 -->
<svg width="982pt" height="364pt"
 viewBox="0.00 0.00 982.00 363.50" xmlns="http://www.w3.org/2000/svg" xmlns:xlink="http://www.w3.org/1999/xlink">
<g id="graph0" class="graph" transform="scale(1 1) rotate(0) translate(4 359.5)">
<title>pism::inverse::IPFunctional&lt; IMVecType &gt;</title>
<!-- Node1 -->
<g id="node1" class="node">
<title>Node1</title>
<g id="a_node1"><a xlink:title="Abstract base class for functions from ice model vectors to .">
<polygon fill="#bfbfbf" stroke="black" points="0,-204.5 0,-234.5 148,-234.5 148,-204.5 0,-204.5"/>
<text text-anchor="start" x="8" y="-222.5" font-family="Helvetica,sans-Serif" font-size="10.00">pism::inverse::IPFunctional</text>
<text text-anchor="middle" x="74" y="-211.5" font-family="Helvetica,sans-Serif" font-size="10.00">&lt; IMVecType &gt;</text>
</a>
</g>
</g>
<!-- Node2 -->
<g id="node2" class="node">
<title>Node2</title>
<g id="a_node2"><a xlink:href="classpism_1_1inverse_1_1IPInnerProductFunctional.html" target="_top" xlink:title="Abstract base class for IPFunctionals arising from an inner product.">
<polygon fill="none" stroke="black" points="302,-204.5 302,-234.5 461,-234.5 461,-204.5 302,-204.5"/>
<text text-anchor="start" x="310" y="-222.5" font-family="Helvetica,sans-Serif" font-size="10.00">pism::inverse::IPInnerProduct</text>
<text text-anchor="middle" x="381.5" y="-211.5" font-family="Helvetica,sans-Serif" font-size="10.00">Functional&lt; IMVecType &gt;</text>
</a>
</g>
</g>
<!-- Node1&#45;&gt;Node2 -->
<g id="edge1" class="edge">
<title>Node1&#45;&gt;Node2</title>
<path fill="none" stroke="midnightblue" d="M158.42,-219.5C203.1,-219.5 257.83,-219.5 301.77,-219.5"/>
<polygon fill="midnightblue" stroke="midnightblue" points="158.17,-216 148.17,-219.5 158.17,-223 158.17,-216"/>
</g>
<!-- Node13 -->
<g id="node13" class="node">
<title>Node13</title>
<g id="a_node13"><a xlink:href="classpism_1_1inverse_1_1IPFunctional.html" target="_top" xlink:title=" ">
<polygon fill="none" stroke="black" points="307.5,-315.5 307.5,-345.5 455.5,-345.5 455.5,-315.5 307.5,-315.5"/>
<text text-anchor="start" x="315.5" y="-333.5" font-family="Helvetica,sans-Serif" font-size="10.00">pism::inverse::IPFunctional</text>
<text text-anchor="middle" x="381.5" y="-322.5" font-family="Helvetica,sans-Serif" font-size="10.00">&lt; pism::array::Scalar &gt;</text>
</a>
</g>
</g>
<!-- Node1&#45;&gt;Node13 -->
<g id="edge12" class="edge">
<title>Node1&#45;&gt;Node13</title>
<path fill="none" stroke="orange" stroke-dasharray="5,2" d="M107.12,-239.98C124.13,-250.18 145.66,-262.1 166,-270.5 212.82,-289.84 267.89,-305.1 310.51,-315.39"/>
<polygon fill="orange" stroke="orange" points="108.53,-236.74 98.17,-234.53 104.89,-242.72 108.53,-236.74"/>
<text text-anchor="middle" x="225" y="-310.5" font-family="Helvetica,sans-Serif" font-size="10.00"> &lt; pism::array::Scalar &gt;</text>
</g>
<!-- Node14 -->
<g id="node14" class="node">
<title>Node14</title>
<g id="a_node14"><a xlink:href="classpism_1_1inverse_1_1IPFunctional.html" target="_top" xlink:title=" ">
<polygon fill="none" stroke="black" points="307.5,-151.5 307.5,-181.5 455.5,-181.5 455.5,-151.5 307.5,-151.5"/>
<text text-anchor="start" x="315.5" y="-169.5" font-family="Helvetica,sans-Serif" font-size="10.00">pism::inverse::IPFunctional</text>
<text text-anchor="middle" x="381.5" y="-158.5" font-family="Helvetica,sans-Serif" font-size="10.00">&lt; array::Vector &gt;</text>
</a>
</g>
</g>
<!-- Node1&#45;&gt;Node14 -->
<g id="edge14" class="edge">
<title>Node1&#45;&gt;Node14</title>
<path fill="none" stroke="orange" stroke-dasharray="5,2" d="M158.25,-205.06C204.89,-196.97 262.51,-186.97 307.39,-179.18"/>
<polygon fill="orange" stroke="orange" points="157.43,-201.65 148.17,-206.81 158.63,-208.54 157.43,-201.65"/>
<text text-anchor="middle" x="225" y="-204.5" font-family="Helvetica,sans-Serif" font-size="10.00"> &lt; array::Vector &gt;</text>
</g>
<!-- Node17 -->
<g id="node17" class="node">
<title>Node17</title>
<g id="a_node17"><a xlink:href="classpism_1_1inverse_1_1IPFunctional.html" target="_top" xlink:title=" ">
<polygon fill="none" stroke="black" points="307.5,-258.5 307.5,-288.5 455.5,-288.5 455.5,-258.5 307.5,-258.5"/>
<text text-anchor="start" x="315.5" y="-276.5" font-family="Helvetica,sans-Serif" font-size="10.00">pism::inverse::IPFunctional</text>
<text text-anchor="middle" x="381.5" y="-265.5" font-family="Helvetica,sans-Serif" font-size="10.00">&lt; pism::array::Vector &gt;</text>
</a>
</g>
</g>
<!-- Node1&#45;&gt;Node17 -->
<g id="edge18" class="edge">
<title>Node1&#45;&gt;Node17</title>
<path fill="none" stroke="orange" stroke-dasharray="5,2" d="M158.25,-234.22C204.89,-242.46 262.51,-252.64 307.39,-260.58"/>
<polygon fill="orange" stroke="orange" points="158.63,-230.73 148.17,-232.43 157.41,-237.62 158.63,-230.73"/>
<text text-anchor="middle" x="225" y="-258.5" font-family="Helvetica,sans-Serif" font-size="10.00"> &lt; pism::array::Vector &gt;</text>
</g>
<!-- Node18 -->
<g id="node18" class="node">
<title>Node18</title>
<g id="a_node18"><a xlink:href="classpism_1_1inverse_1_1IPFunctional.html" target="_top" xlink:title=" ">
<polygon fill="none" stroke="black" points="307.5,-84.5 307.5,-114.5 455.5,-114.5 455.5,-84.5 307.5,-84.5"/>
<text text-anchor="start" x="315.5" y="-102.5" font-family="Helvetica,sans-Serif" font-size="10.00">pism::inverse::IPFunctional</text>
<text text-anchor="middle" x="381.5" y="-91.5" font-family="Helvetica,sans-Serif" font-size="10.00">&lt; array::Scalar &gt;</text>
</a>
</g>
</g>
<!-- Node1&#45;&gt;Node18 -->
<g id="edge20" class="edge">
<title>Node1&#45;&gt;Node18</title>
<path fill="none" stroke="orange" stroke-dasharray="5,2" d="M107.97,-198.92C124.9,-188.9 146.11,-177.17 166,-168.5 217.82,-145.91 279.48,-126.84 323.36,-114.51"/>
<polygon fill="orange" stroke="orange" points="105.81,-196.13 99.04,-204.28 109.41,-202.13 105.81,-196.13"/>
<text text-anchor="middle" x="225" y="-171.5" font-family="Helvetica,sans-Serif" font-size="10.00"> &lt; array::Scalar &gt;</text>
</g>
<!-- Node3 -->
<g id="node3" class="node">
<title>Node3</title>
<g id="a_node3"><a xlink:href="classpism_1_1inverse_1_1IPInnerProductFunctional.html" target="_top" xlink:title=" ">
<polygon fill="none" stroke="black" points="617.5,-314 617.5,-355 776.5,-355 776.5,-314 617.5,-314"/>
<text text-anchor="start" x="625.5" y="-343" font-family="Helvetica,sans-Serif" font-size="10.00">pism::inverse::IPInnerProduct</text>
<text text-anchor="start" x="625.5" y="-332" font-family="Helvetica,sans-Serif" font-size="10.00">Functional&lt; pism::array::</text>
<text text-anchor="middle" x="697" y="-321" font-family="Helvetica,sans-Serif" font-size="10.00">Scalar &gt;</text>
</a>
</g>
</g>
<!-- Node2&#45;&gt;Node3 -->
<g id="edge2" class="edge">
<title>Node2&#45;&gt;Node3</title>
<path fill="none" stroke="orange" stroke-dasharray="5,2" d="M441.71,-238.59C448.46,-241.79 455.05,-245.41 461,-249.5 470.86,-256.27 468.9,-263.1 479,-269.5 502.3,-284.25 565.2,-302.35 617.32,-315.7"/>
<polygon fill="orange" stroke="orange" points="443,-235.34 432.44,-234.5 440.18,-241.74 443,-235.34"/>
<text text-anchor="middle" x="538" y="-311.5" font-family="Helvetica,sans-Serif" font-size="10.00"> &lt; pism::array::Scalar &gt;</text>
</g>
<!-- Node4 -->
<g id="node4" class="node">
<title>Node4</title>
<g id="a_node4"><a xlink:href="classpism_1_1inverse_1_1IPInnerProductFunctional.html" target="_top" xlink:title=" ">
<polygon fill="none" stroke="black" points="617.5,-200.5 617.5,-230.5 776.5,-230.5 776.5,-200.5 617.5,-200.5"/>
<text text-anchor="start" x="625.5" y="-218.5" font-family="Helvetica,sans-Serif" font-size="10.00">pism::inverse::IPInnerProduct</text>
<text text-anchor="middle" x="697" y="-207.5" font-family="Helvetica,sans-Serif" font-size="10.00">Functional&lt; array::Vector &gt;</text>
</a>
</g>
</g>
<!-- Node2&#45;&gt;Node4 -->
<g id="edge3" class="edge">
<title>Node2&#45;&gt;Node4</title>
<path fill="none" stroke="orange" stroke-dasharray="5,2" d="M471.31,-217.62C473.9,-217.58 476.47,-217.54 479,-217.5 524.86,-216.81 576.19,-216.33 617.4,-216.01"/>
<polygon fill="orange" stroke="orange" points="471.17,-214.12 461.23,-217.79 471.29,-221.12 471.17,-214.12"/>
<text text-anchor="middle" x="538" y="-220.5" font-family="Helvetica,sans-Serif" font-size="10.00"> &lt; array::Vector &gt;</text>
</g>
<!-- Node7 -->
<g id="node7" class="node">
<title>Node7</title>
<g id="a_node7"><a xlink:href="classpism_1_1inverse_1_1IPInnerProductFunctional.html" target="_top" xlink:title=" ">
<polygon fill="none" stroke="black" points="617.5,-252 617.5,-293 776.5,-293 776.5,-252 617.5,-252"/>
<text text-anchor="start" x="625.5" y="-281" font-family="Helvetica,sans-Serif" font-size="10.00">pism::inverse::IPInnerProduct</text>
<text text-anchor="start" x="625.5" y="-270" font-family="Helvetica,sans-Serif" font-size="10.00">Functional&lt; pism::array::</text>
<text text-anchor="middle" x="697" y="-259" font-family="Helvetica,sans-Serif" font-size="10.00">Vector &gt;</text>
</a>
</g>
</g>
<!-- Node2&#45;&gt;Node7 -->
<g id="edge6" class="edge">
<title>Node2&#45;&gt;Node7</title>
<path fill="none" stroke="orange" stroke-dasharray="5,2" d="M471.16,-234.49C517.14,-242.26 572.82,-251.67 617.26,-259.19"/>
<polygon fill="orange" stroke="orange" points="471.65,-231.02 461.2,-232.81 470.48,-237.92 471.65,-231.02"/>
<text text-anchor="middle" x="538" y="-257.5" font-family="Helvetica,sans-Serif" font-size="10.00"> &lt; pism::array::Vector &gt;</text>
</g>
<!-- Node8 -->
<g id="node8" class="node">
<title>Node8</title>
<g id="a_node8"><a xlink:href="classpism_1_1inverse_1_1IPInnerProductFunctional.html" target="_top" xlink:title=" ">
<polygon fill="none" stroke="black" points="617.5,-98.5 617.5,-128.5 776.5,-128.5 776.5,-98.5 617.5,-98.5"/>
<text text-anchor="start" x="625.5" y="-116.5" font-family="Helvetica,sans-Serif" font-size="10.00">pism::inverse::IPInnerProduct</text>
<text text-anchor="middle" x="697" y="-105.5" font-family="Helvetica,sans-Serif" font-size="10.00">Functional&lt; array::Scalar &gt;</text>
</a>
</g>
</g>
<!-- Node2&#45;&gt;Node8 -->
<g id="edge7" class="edge">
<title>Node2&#45;&gt;Node8</title>
<path fill="none" stroke="orange" stroke-dasharray="5,2" d="M434.64,-201.09C492.14,-180.83 581.03,-149.66 615,-138.5 625.07,-135.19 635.88,-131.77 646.22,-128.56"/>
<polygon fill="orange" stroke="orange" points="433.26,-197.87 424.99,-204.49 435.58,-204.47 433.26,-197.87"/>
<text text-anchor="middle" x="538" y="-187.5" font-family="Helvetica,sans-Serif" font-size="10.00"> &lt; array::Scalar &gt;</text>
</g>
<!-- Node5 -->
<g id="node5" class="node">
<title>Node5</title>
<g id="a_node5"><a xlink:href="classpism_1_1inverse_1_1IPMeanSquareFunctional2V.html" target="_top" xlink:title="Implements a functional corresponding to a (possibly weighted) sum of squares of components of an arr...">
<polygon fill="none" stroke="black" points="816,-248.5 816,-278.5 974,-278.5 974,-248.5 816,-248.5"/>
<text text-anchor="start" x="824" y="-266.5" font-family="Helvetica,sans-Serif" font-size="10.00">pism::inverse::IPMeanSquare</text>
<text text-anchor="middle" x="895" y="-255.5" font-family="Helvetica,sans-Serif" font-size="10.00">Functional2V</text>
</a>
</g>
</g>
<!-- Node4&#45;&gt;Node5 -->
<g id="edge4" class="edge">
<title>Node4&#45;&gt;Node5</title>
<path fill="none" stroke="midnightblue" d="M769.22,-232.94C790.04,-238.04 812.6,-243.57 832.74,-248.5"/>
<polygon fill="midnightblue" stroke="midnightblue" points="770.02,-229.54 759.48,-230.56 768.36,-236.33 770.02,-229.54"/>
</g>
<!-- Node6 -->
<g id="node6" class="node">
<title>Node6</title>
<g id="a_node6"><a xlink:href="classpism_1_1inverse_1_1IP__L2NormFunctional2V.html" target="_top" xlink:title="Implements a functional corresponding to (the square of) an &#160;norm of a vector valued function.">
<polygon fill="none" stroke="black" points="824.5,-199.5 824.5,-229.5 965.5,-229.5 965.5,-199.5 824.5,-199.5"/>
<text text-anchor="start" x="832.5" y="-217.5" font-family="Helvetica,sans-Serif" font-size="10.00">pism::inverse::IP_L2Norm</text>
<text text-anchor="middle" x="895" y="-206.5" font-family="Helvetica,sans-Serif" font-size="10.00">Functional2V</text>
</a>
</g>
</g>
<!-- Node4&#45;&gt;Node6 -->
<g id="edge5" class="edge">
<title>Node4&#45;&gt;Node6</title>
<path fill="none" stroke="midnightblue" d="M786.64,-215.05C799.25,-214.98 812.07,-214.92 824.25,-214.86"/>
<polygon fill="midnightblue" stroke="midnightblue" points="786.57,-211.55 776.59,-215.1 786.61,-218.55 786.57,-211.55"/>
</g>
<!-- Node9 -->
<g id="node9" class="node">
<title>Node9</title>
<g id="a_node9"><a xlink:href="classpism_1_1inverse_1_1IPGroundedIceH1NormFunctional2S.html" target="_top" xlink:title="Implements a functional corresponding to (the square of) an &#160;norm of a scalar valued function over a ...">
<polygon fill="none" stroke="black" points="822.5,-148.5 822.5,-178.5 967.5,-178.5 967.5,-148.5 822.5,-148.5"/>
<text text-anchor="start" x="830.5" y="-166.5" font-family="Helvetica,sans-Serif" font-size="10.00">pism::inverse::IPGrounded</text>
<text text-anchor="middle" x="895" y="-155.5" font-family="Helvetica,sans-Serif" font-size="10.00">IceH1NormFunctional2S</text>
</a>
</g>
</g>
<!-- Node8&#45;&gt;Node9 -->
<g id="edge8" class="edge">
<title>Node8&#45;&gt;Node9</title>
<path fill="none" stroke="midnightblue" d="M766.54,-130.98C788.83,-136.67 813.36,-142.93 834.9,-148.42"/>
<polygon fill="midnightblue" stroke="midnightblue" points="767.36,-127.58 756.81,-128.5 765.63,-134.36 767.36,-127.58"/>
</g>
<!-- Node10 -->
<g id="node10" class="node">
<title>Node10</title>
<g id="a_node10"><a xlink:href="classpism_1_1inverse_1_1IPMeanSquareFunctional2S.html" target="_top" xlink:title="Implements a functional corresponding to a (possibly weighted) sum of squares of components of an arr...">
<polygon fill="none" stroke="black" points="816,-99.5 816,-129.5 974,-129.5 974,-99.5 816,-99.5"/>
<text text-anchor="start" x="824" y="-117.5" font-family="Helvetica,sans-Serif" font-size="10.00">pism::inverse::IPMeanSquare</text>
<text text-anchor="middle" x="895" y="-106.5" font-family="Helvetica,sans-Serif" font-size="10.00">Functional2S</text>
</a>
</g>
</g>
<!-- Node8&#45;&gt;Node10 -->
<g id="edge9" class="edge">
<title>Node8&#45;&gt;Node10</title>
<path fill="none" stroke="midnightblue" d="M786.64,-113.95C796.33,-114 806.15,-114.05 815.71,-114.1"/>
<polygon fill="midnightblue" stroke="midnightblue" points="786.61,-110.45 776.59,-113.9 786.57,-117.45 786.61,-110.45"/>
</g>
<!-- Node11 -->
<g id="node11" class="node">
<title>Node11</title>
<g id="a_node11"><a xlink:href="classpism_1_1inverse_1_1IP__H1NormFunctional2S.html" target="_top" xlink:title="Implements a functional corresponding to (the square of) an &#160;norm of a scalar valued function.">
<polygon fill="none" stroke="black" points="823.5,-50.5 823.5,-80.5 966.5,-80.5 966.5,-50.5 823.5,-50.5"/>
<text text-anchor="start" x="831.5" y="-68.5" font-family="Helvetica,sans-Serif" font-size="10.00">pism::inverse::IP_H1Norm</text>
<text text-anchor="middle" x="895" y="-57.5" font-family="Helvetica,sans-Serif" font-size="10.00">Functional2S</text>
</a>
</g>
</g>
<!-- Node8&#45;&gt;Node11 -->
<g id="edge10" class="edge">
<title>Node8&#45;&gt;Node11</title>
<path fill="none" stroke="midnightblue" d="M769.22,-96.06C790.04,-90.96 812.6,-85.43 832.74,-80.5"/>
<polygon fill="midnightblue" stroke="midnightblue" points="768.36,-92.67 759.48,-98.44 770.02,-99.46 768.36,-92.67"/>
</g>
<!-- Node12 -->
<g id="node12" class="node">
<title>Node12</title>
<g id="a_node12"><a xlink:href="classpism_1_1inverse_1_1IP__L2NormFunctional2S.html" target="_top" xlink:title="Implements a functional corresponding to (the square of) an &#160;norm of a scalar valued function.">
<polygon fill="none" stroke="black" points="824.5,-1.5 824.5,-31.5 965.5,-31.5 965.5,-1.5 824.5,-1.5"/>
<text text-anchor="start" x="832.5" y="-19.5" font-family="Helvetica,sans-Serif" font-size="10.00">pism::inverse::IP_L2Norm</text>
<text text-anchor="middle" x="895" y="-8.5" font-family="Helvetica,sans-Serif" font-size="10.00">Functional2S</text>
</a>
</g>
</g>
<!-- Node8&#45;&gt;Node12 -->
<g id="edge11" class="edge">
<title>Node8&#45;&gt;Node12</title>
<path fill="none" stroke="midnightblue" d="M769.96,-94.02C773.1,-92.33 776.13,-90.49 779,-88.5 801.13,-73.14 793.87,-55.85 816,-40.5 820.89,-37.11 826.27,-34.18 831.86,-31.67"/>
<polygon fill="midnightblue" stroke="midnightblue" points="768.34,-90.92 760.87,-98.42 771.39,-97.22 768.34,-90.92"/>
</g>
<!-- Node13&#45;&gt;Node3 -->
<g id="edge13" class="edge">
<title>Node13&#45;&gt;Node3</title>
<path fill="none" stroke="midnightblue" d="M465.75,-331.56C512.72,-332.16 571.08,-332.91 617.29,-333.5"/>
<polygon fill="midnightblue" stroke="midnightblue" points="465.65,-328.06 455.61,-331.43 465.56,-335.06 465.65,-328.06"/>
</g>
<!-- Node14&#45;&gt;Node4 -->
<g id="edge15" class="edge">
<title>Node14&#45;&gt;Node4</title>
<path fill="none" stroke="midnightblue" d="M465.75,-179.51C512.72,-186.85 571.08,-195.97 617.29,-203.2"/>
<polygon fill="midnightblue" stroke="midnightblue" points="466.03,-176.01 455.61,-177.93 464.95,-182.93 466.03,-176.01"/>
</g>
<!-- Node15 -->
<g id="node15" class="node">
<title>Node15</title>
<g id="a_node15"><a xlink:href="classpism_1_1inverse_1_1IPLogRatioFunctional.html" target="_top" xlink:title="Implements a functional for log&#45;ratio errors.">
<polygon fill="none" stroke="black" points="627,-147.5 627,-177.5 767,-177.5 767,-147.5 627,-147.5"/>
<text text-anchor="start" x="635" y="-165.5" font-family="Helvetica,sans-Serif" font-size="10.00">pism::inverse::IPLogRatio</text>
<text text-anchor="middle" x="697" y="-154.5" font-family="Helvetica,sans-Serif" font-size="10.00">Functional</text>
</a>
</g>
</g>
<!-- Node14&#45;&gt;Node15 -->
<g id="edge16" class="edge">
<title>Node14&#45;&gt;Node15</title>
<path fill="none" stroke="midnightblue" d="M465.8,-165.44C516.06,-164.8 579.33,-163.99 626.81,-163.38"/>
<polygon fill="midnightblue" stroke="midnightblue" points="465.56,-161.94 455.61,-165.57 465.65,-168.94 465.56,-161.94"/>
</g>
<!-- Node16 -->
<g id="node16" class="node">
<title>Node16</title>
<g id="a_node16"><a xlink:href="classpism_1_1inverse_1_1IPLogRelativeFunctional.html" target="_top" xlink:title="Implements a functional for log&#45;relative errors.">
<polygon fill="none" stroke="black" points="619.5,-49.5 619.5,-79.5 774.5,-79.5 774.5,-49.5 619.5,-49.5"/>
<text text-anchor="start" x="627.5" y="-67.5" font-family="Helvetica,sans-Serif" font-size="10.00">pism::inverse::IPLogRelative</text>
<text text-anchor="middle" x="697" y="-56.5" font-family="Helvetica,sans-Serif" font-size="10.00">Functional</text>
</a>
</g>
</g>
<!-- Node14&#45;&gt;Node16 -->
<g id="edge17" class="edge">
<title>Node14&#45;&gt;Node16</title>
<path fill="none" stroke="midnightblue" d="M421.16,-146.56C434.03,-139.6 448.31,-131.51 461,-123.5 469.34,-118.23 469.98,-114.5 479,-110.5 523.36,-90.84 576.62,-79.39 619.28,-72.83"/>
<polygon fill="midnightblue" stroke="midnightblue" points="419.24,-143.62 412.08,-151.42 422.55,-149.79 419.24,-143.62"/>
</g>
<!-- Node17&#45;&gt;Node7 -->
<g id="edge19" class="edge">
<title>Node17&#45;&gt;Node7</title>
<path fill="none" stroke="midnightblue" d="M465.75,-273.23C512.72,-273.08 571.08,-272.9 617.29,-272.75"/>
<polygon fill="midnightblue" stroke="midnightblue" points="465.59,-269.73 455.61,-273.27 465.62,-276.73 465.59,-269.73"/>
</g>
<!-- Node18&#45;&gt;Node8 -->
<g id="edge21" class="edge">
<title>Node18&#45;&gt;Node8</title>
<path fill="none" stroke="midnightblue" d="M465.75,-103.22C512.72,-105.32 571.08,-107.92 617.29,-109.98"/>
<polygon fill="midnightblue" stroke="midnightblue" points="465.75,-99.71 455.61,-102.76 465.44,-106.71 465.75,-99.71"/>
</g>
<!-- Node19 -->
<g id="node19" class="node">
<title>Node19</title>
<g id="a_node19"><a xlink:href="classpism_1_1inverse_1_1IPTotalVariationFunctional2S.html" target="_top" xlink:title="Pseduo total variation functional.">
<polygon fill="none" stroke="black" points="615,-0.5 615,-30.5 779,-30.5 779,-0.5 615,-0.5"/>
<text text-anchor="start" x="623" y="-18.5" font-family="Helvetica,sans-Serif" font-size="10.00">pism::inverse::IPTotalVariation</text>
<text text-anchor="middle" x="697" y="-7.5" font-family="Helvetica,sans-Serif" font-size="10.00">Functional2S</text>
</a>
</g>
</g>
<!-- Node18&#45;&gt;Node19 -->
<g id="edge22" class="edge">
<title>Node18&#45;&gt;Node19</title>
<path fill="none" stroke="midnightblue" d="M415.95,-79.27C434.03,-69.18 457.09,-57.64 479,-50.5 522.81,-36.23 573.57,-27.63 614.98,-22.54"/>
<polygon fill="midnightblue" stroke="midnightblue" points="413.93,-76.39 406.98,-84.38 417.4,-82.47 413.93,-76.39"/>
</g>
</g>
</svg>
