<?xml version="1.0" encoding="UTF-8" standalone="no"?>
<!DOCTYPE svg PUBLIC "-//W3C//DTD SVG 1.1//EN"
 "http://www.w3.org/Graphics/SVG/1.1/DTD/svg11.dtd">
<!-- Generated by graphviz version 2.43.0 (0)
 -->
<!-- Title: pism::atmosphere::CosineYearlyCycle Pages: 1 -->
<svg width="178pt" height="229pt"
 viewBox="0.00 0.00 178.00 229.00" xmlns="http://www.w3.org/2000/svg" xmlns:xlink="http://www.w3.org/1999/xlink">
<g id="graph0" class="graph" transform="scale(1 1) rotate(0) translate(4 225)">
<title>pism::atmosphere::CosineYearlyCycle</title>
<!-- Node1 -->
<g id="node1" class="node">
<title>Node1</title>
<g id="a_node1"><a xlink:title=" ">
<polygon fill="#bfbfbf" stroke="black" points="13,-0.5 13,-30.5 157,-30.5 157,-0.5 13,-0.5"/>
<text text-anchor="start" x="21" y="-18.5" font-family="Helvetica,sans-Serif" font-size="10.00">pism::atmosphere::Cosine</text>
<text text-anchor="middle" x="85" y="-7.5" font-family="Helvetica,sans-Serif" font-size="10.00">YearlyCycle</text>
</a>
</g>
</g>
<!-- Node2 -->
<g id="node2" class="node">
<title>Node2</title>
<g id="a_node2"><a xlink:href="classpism_1_1atmosphere_1_1YearlyCycle.html" target="_top" xlink:title=" ">
<polygon fill="none" stroke="black" points="15,-67.5 15,-97.5 155,-97.5 155,-67.5 15,-67.5"/>
<text text-anchor="start" x="23" y="-85.5" font-family="Helvetica,sans-Serif" font-size="10.00">pism::atmosphere::Yearly</text>
<text text-anchor="middle" x="85" y="-74.5" font-family="Helvetica,sans-Serif" font-size="10.00">Cycle</text>
</a>
</g>
</g>
<!-- Node2&#45;&gt;Node1 -->
<g id="edge1" class="edge">
<title>Node2&#45;&gt;Node1</title>
<path fill="none" stroke="midnightblue" d="M85,-57.11C85,-48.15 85,-38.32 85,-30.58"/>
<polygon fill="midnightblue" stroke="midnightblue" points="81.5,-57.4 85,-67.4 88.5,-57.4 81.5,-57.4"/>
</g>
<!-- Node3 -->
<g id="node3" class="node">
<title>Node3</title>
<g id="a_node3"><a xlink:href="classpism_1_1atmosphere_1_1AtmosphereModel.html" target="_top" xlink:title="A purely virtual class defining the interface of a PISM Atmosphere Model.">
<polygon fill="none" stroke="black" points="0,-134.5 0,-164.5 170,-164.5 170,-134.5 0,-134.5"/>
<text text-anchor="start" x="8" y="-152.5" font-family="Helvetica,sans-Serif" font-size="10.00">pism::atmosphere::Atmosphere</text>
<text text-anchor="middle" x="85" y="-141.5" font-family="Helvetica,sans-Serif" font-size="10.00">Model</text>
</a>
</g>
</g>
<!-- Node3&#45;&gt;Node2 -->
<g id="edge2" class="edge">
<title>Node3&#45;&gt;Node2</title>
<path fill="none" stroke="midnightblue" d="M85,-124.11C85,-115.15 85,-105.32 85,-97.58"/>
<polygon fill="midnightblue" stroke="midnightblue" points="81.5,-124.4 85,-134.4 88.5,-124.4 81.5,-124.4"/>
</g>
<!-- Node4 -->
<g id="node4" class="node">
<title>Node4</title>
<g id="a_node4"><a xlink:href="classpism_1_1Component.html" target="_top" xlink:title="A class defining a common interface for most PISM sub&#45;models.">
<polygon fill="none" stroke="black" points="33.5,-201.5 33.5,-220.5 136.5,-220.5 136.5,-201.5 33.5,-201.5"/>
<text text-anchor="middle" x="85" y="-208.5" font-family="Helvetica,sans-Serif" font-size="10.00">pism::Component</text>
</a>
</g>
</g>
<!-- Node4&#45;&gt;Node3 -->
<g id="edge3" class="edge">
<title>Node4&#45;&gt;Node3</title>
<path fill="none" stroke="midnightblue" d="M85,-191.23C85,-182.59 85,-172.5 85,-164.52"/>
<polygon fill="midnightblue" stroke="midnightblue" points="81.5,-191.48 85,-201.48 88.5,-191.48 81.5,-191.48"/>
</g>
</g>
</svg>
