<?xml version="1.0" encoding="UTF-8" standalone="no"?>
<!DOCTYPE svg PUBLIC "-//W3C//DTD SVG 1.1//EN"
 "http://www.w3.org/Graphics/SVG/1.1/DTD/svg11.dtd">
<!-- Generated by graphviz version 2.43.0 (0)
 -->
<!-- Title: pism::IceModelVec2V Pages: 1 -->
<svg width="230pt" height="277pt"
 viewBox="0.00 0.00 230.00 277.00" xmlns="http://www.w3.org/2000/svg" xmlns:xlink="http://www.w3.org/1999/xlink">
<g id="graph0" class="graph" transform="scale(1 1) rotate(0) translate(4 273)">
<title>pism::IceModelVec2V</title>
<!-- Node1 -->
<g id="node1" class="node">
<title>Node1</title>
<g id="a_node1"><a xlink:title=" ">
<polygon fill="#bfbfbf" stroke="black" points="6,-0.5 6,-19.5 127,-19.5 127,-0.5 6,-0.5"/>
<text text-anchor="middle" x="66.5" y="-7.5" font-family="Helvetica,sans-Serif" font-size="10.00">pism::IceModelVec2V</text>
</a>
</g>
</g>
<!-- Node2 -->
<g id="node2" class="node">
<title>Node2</title>
<g id="a_node2"><a xlink:href="classpism_1_1IceModelVec2.html" target="_top" xlink:title=" ">
<polygon fill="none" stroke="black" points="9.5,-57.5 9.5,-87.5 123.5,-87.5 123.5,-57.5 9.5,-57.5"/>
<text text-anchor="start" x="17.5" y="-75.5" font-family="Helvetica,sans-Serif" font-size="10.00">pism::IceModelVec2</text>
<text text-anchor="middle" x="66.5" y="-64.5" font-family="Helvetica,sans-Serif" font-size="10.00">&lt; Vector2 &gt;</text>
</a>
</g>
</g>
<!-- Node2&#45;&gt;Node1 -->
<g id="edge1" class="edge">
<title>Node2&#45;&gt;Node1</title>
<path fill="none" stroke="midnightblue" d="M66.5,-47.35C66.5,-37.51 66.5,-26.78 66.5,-19.54"/>
<polygon fill="midnightblue" stroke="midnightblue" points="63,-47.47 66.5,-57.47 70,-47.47 63,-47.47"/>
</g>
<!-- Node3 -->
<g id="node3" class="node">
<title>Node3</title>
<g id="a_node3"><a xlink:href="classpism_1_1IceModelVec.html" target="_top" xlink:title="Abstract class for reading, writing, allocating, and accessing a DA&#45;based PETSc Vec (2D and 3D fields...">
<polygon fill="none" stroke="black" points="8.5,-192.5 8.5,-211.5 116.5,-211.5 116.5,-192.5 8.5,-192.5"/>
<text text-anchor="middle" x="62.5" y="-199.5" font-family="Helvetica,sans-Serif" font-size="10.00">pism::IceModelVec</text>
</a>
</g>
</g>
<!-- Node3&#45;&gt;Node2 -->
<g id="edge2" class="edge">
<title>Node3&#45;&gt;Node2</title>
<path fill="none" stroke="midnightblue" d="M63.1,-181.9C63.91,-156.05 65.34,-110.54 66.06,-87.59"/>
<polygon fill="midnightblue" stroke="midnightblue" points="59.59,-182.13 62.77,-192.24 66.59,-182.35 59.59,-182.13"/>
</g>
<!-- Node5 -->
<g id="node5" class="node">
<title>Node5</title>
<g id="a_node5"><a xlink:href="classpism_1_1IceModelVec2.html" target="_top" xlink:title="A storage vector combining related fields in a struct.">
<polygon fill="none" stroke="black" points="79,-135.5 79,-154.5 222,-154.5 222,-135.5 79,-135.5"/>
<text text-anchor="middle" x="150.5" y="-142.5" font-family="Helvetica,sans-Serif" font-size="10.00">pism::IceModelVec2&lt; T &gt;</text>
</a>
</g>
</g>
<!-- Node3&#45;&gt;Node5 -->
<g id="edge5" class="edge">
<title>Node3&#45;&gt;Node5</title>
<path fill="none" stroke="midnightblue" d="M85.18,-186.82C101.53,-176.61 123.06,-163.15 136.85,-154.53"/>
<polygon fill="midnightblue" stroke="midnightblue" points="82.87,-184.14 76.25,-192.41 86.59,-190.07 82.87,-184.14"/>
</g>
<!-- Node4 -->
<g id="node4" class="node">
<title>Node4</title>
<g id="a_node4"><a xlink:href="classpism_1_1PetscAccessible.html" target="_top" xlink:title=" ">
<polygon fill="none" stroke="black" points="0,-249.5 0,-268.5 125,-268.5 125,-249.5 0,-249.5"/>
<text text-anchor="middle" x="62.5" y="-256.5" font-family="Helvetica,sans-Serif" font-size="10.00">pism::PetscAccessible</text>
</a>
</g>
</g>
<!-- Node4&#45;&gt;Node3 -->
<g id="edge3" class="edge">
<title>Node4&#45;&gt;Node3</title>
<path fill="none" stroke="midnightblue" d="M62.5,-239.12C62.5,-229.82 62.5,-219.06 62.5,-211.71"/>
<polygon fill="midnightblue" stroke="midnightblue" points="59,-239.41 62.5,-249.41 66,-239.41 59,-239.41"/>
</g>
<!-- Node5&#45;&gt;Node2 -->
<g id="edge4" class="edge">
<title>Node5&#45;&gt;Node2</title>
<path fill="none" stroke="orange" stroke-dasharray="5,2" d="M132.37,-128.78C117.79,-116.55 97.48,-99.5 83.27,-87.58"/>
<polygon fill="orange" stroke="orange" points="130.29,-131.61 140.2,-135.36 134.79,-126.25 130.29,-131.61"/>
<text text-anchor="middle" x="147" y="-109" font-family="Helvetica,sans-Serif" font-size="10.00"> &lt; Vector2 &gt;</text>
</g>
</g>
</svg>
