<?xml version="1.0" encoding="UTF-8" standalone="no"?>
<!DOCTYPE svg PUBLIC "-//W3C//DTD SVG 1.1//EN"
 "http://www.w3.org/Graphics/SVG/1.1/DTD/svg11.dtd">
<!-- Generated by graphviz version 2.43.0 (0)
 -->
<!-- Title: pism::hydrology::diagnostics::EffectiveBasalWaterPressure Pages: 1 -->
<svg width="224pt" height="220pt"
 viewBox="0.00 0.00 223.50 220.00" xmlns="http://www.w3.org/2000/svg" xmlns:xlink="http://www.w3.org/1999/xlink">
<g id="graph0" class="graph" transform="scale(1 1) rotate(0) translate(4 216)">
<title>pism::hydrology::diagnostics::EffectiveBasalWaterPressure</title>
<!-- Node1 -->
<g id="node1" class="node">
<title>Node1</title>
<g id="a_node1"><a xlink:title="Reports the effective pressure of the transportable water in the subglacial layer,...">
<polygon fill="#bfbfbf" stroke="black" points="0,-0.5 0,-30.5 163,-30.5 163,-0.5 0,-0.5"/>
<text text-anchor="start" x="8" y="-18.5" font-family="Helvetica,sans-Serif" font-size="10.00">pism::hydrology::diagnostics</text>
<text text-anchor="middle" x="81.5" y="-7.5" font-family="Helvetica,sans-Serif" font-size="10.00">::EffectiveBasalWaterPressure</text>
</a>
</g>
</g>
<!-- Node2 -->
<g id="node2" class="node">
<title>Node2</title>
<g id="a_node2"><a xlink:href="classpism_1_1Diag.html" target="_top" xlink:title=" ">
<polygon fill="none" stroke="black" points="17,-68.5 17,-87.5 146,-87.5 146,-68.5 17,-68.5"/>
<text text-anchor="middle" x="81.5" y="-75.5" font-family="Helvetica,sans-Serif" font-size="10.00">pism::Diag&lt; Routing &gt;</text>
</a>
</g>
</g>
<!-- Node2&#45;&gt;Node1 -->
<g id="edge1" class="edge">
<title>Node2&#45;&gt;Node1</title>
<path fill="none" stroke="midnightblue" d="M81.5,-58.22C81.5,-49.36 81.5,-38.96 81.5,-30.76"/>
<polygon fill="midnightblue" stroke="midnightblue" points="78,-58.33 81.5,-68.33 85,-58.33 78,-58.33"/>
</g>
<!-- Node3 -->
<g id="node3" class="node">
<title>Node3</title>
<g id="a_node3"><a xlink:href="classpism_1_1Diagnostic.html" target="_top" xlink:title="Class representing diagnostic computations in PISM.">
<polygon fill="none" stroke="black" points="28.5,-192.5 28.5,-211.5 126.5,-211.5 126.5,-192.5 28.5,-192.5"/>
<text text-anchor="middle" x="77.5" y="-199.5" font-family="Helvetica,sans-Serif" font-size="10.00">pism::Diagnostic</text>
</a>
</g>
</g>
<!-- Node3&#45;&gt;Node2 -->
<g id="edge2" class="edge">
<title>Node3&#45;&gt;Node2</title>
<path fill="none" stroke="midnightblue" d="M78.12,-182.19C79,-155.4 80.57,-107.31 81.21,-87.69"/>
<polygon fill="midnightblue" stroke="midnightblue" points="74.62,-182.12 77.79,-192.23 81.61,-182.35 74.62,-182.12"/>
</g>
<!-- Node4 -->
<g id="node4" class="node">
<title>Node4</title>
<g id="a_node4"><a xlink:href="classpism_1_1Diag.html" target="_top" xlink:title="A template derived from Diagnostic, adding a &quot;Model&quot;.">
<polygon fill="none" stroke="black" points="93.5,-135.5 93.5,-154.5 215.5,-154.5 215.5,-135.5 93.5,-135.5"/>
<text text-anchor="middle" x="154.5" y="-142.5" font-family="Helvetica,sans-Serif" font-size="10.00">pism::Diag&lt; Model &gt;</text>
</a>
</g>
</g>
<!-- Node3&#45;&gt;Node4 -->
<g id="edge4" class="edge">
<title>Node3&#45;&gt;Node4</title>
<path fill="none" stroke="midnightblue" d="M97.75,-186.54C112,-176.35 130.61,-163.07 142.55,-154.53"/>
<polygon fill="midnightblue" stroke="midnightblue" points="95.63,-183.75 89.53,-192.41 99.7,-189.44 95.63,-183.75"/>
</g>
<!-- Node4&#45;&gt;Node2 -->
<g id="edge3" class="edge">
<title>Node4&#45;&gt;Node2</title>
<path fill="none" stroke="orange" stroke-dasharray="5,2" d="M136.93,-128.36C122.58,-115.58 102.83,-97.99 91.19,-87.63"/>
<polygon fill="orange" stroke="orange" points="134.86,-131.2 144.65,-135.23 139.51,-125.97 134.86,-131.2"/>
<text text-anchor="middle" x="153.5" y="-109" font-family="Helvetica,sans-Serif" font-size="10.00"> &lt; Routing &gt;</text>
</g>
</g>
</svg>
