<?xml version="1.0" encoding="UTF-8" standalone="no"?>
<!DOCTYPE svg PUBLIC "-//W3C//DTD SVG 1.1//EN"
 "http://www.w3.org/Graphics/SVG/1.1/DTD/svg11.dtd">
<!-- Generated by graphviz version 2.43.0 (0)
 -->
<!-- Title: pism::diagnostics::TendencyOfIceAmountDueToFlow Pages: 1 -->
<svg width="308pt" height="357pt"
 viewBox="0.00 0.00 307.50 357.00" xmlns="http://www.w3.org/2000/svg" xmlns:xlink="http://www.w3.org/1999/xlink">
<g id="graph0" class="graph" transform="scale(1 1) rotate(0) translate(4 353)">
<title>pism::diagnostics::TendencyOfIceAmountDueToFlow</title>
<!-- Node1 -->
<g id="Node000001" class="node">
<title>Node1</title>
<g id="a_Node000001"><a xlink:title="Computes tendency_of_ice_amount_due_to_flow, the rate of change of ice amount due to flow.">
<polygon fill="#999999" stroke="#666666" points="179,-30 0,-30 0,0 179,0 179,-30"/>
<text text-anchor="start" x="8" y="-18" font-family="Helvetica,sans-Serif" font-size="10.00">pism::diagnostics::</text>
<text text-anchor="middle" x="89.5" y="-7" font-family="Helvetica,sans-Serif" font-size="10.00">TendencyOfIceAmountDueToFlow</text>
</a>
</g>
</g>
<!-- Node2 -->
<g id="Node000002" class="node">
<title>Node2</title>
<g id="a_Node000002"><a xlink:href="classpism_1_1DiagAverageRate.html" target="_top" xlink:title=" ">
<polygon fill="white" stroke="#666666" points="155,-97 24,-97 24,-67 155,-67 155,-97"/>
<text text-anchor="start" x="32" y="-85" font-family="Helvetica,sans-Serif" font-size="10.00">pism::DiagAverageRate</text>
<text text-anchor="middle" x="89.5" y="-74" font-family="Helvetica,sans-Serif" font-size="10.00">&lt; IceModel &gt;</text>
</a>
</g>
</g>
<!-- Node2&#45;&gt;Node1 -->
<g id="edge1_Node000001_Node000002" class="edge">
<title>Node2&#45;&gt;Node1</title>
<g id="a_edge1_Node000001_Node000002"><a xlink:title=" ">
<path fill="none" stroke="#63b8ff" d="M89.5,-56.61C89.5,-47.65 89.5,-37.82 89.5,-30.08"/>
<polygon fill="#63b8ff" stroke="#63b8ff" points="86,-56.9 89.5,-66.9 93,-56.9 86,-56.9"/>
</a>
</g>
</g>
<!-- Node3 -->
<g id="Node000003" class="node">
<title>Node3</title>
<g id="a_Node000003"><a xlink:href="classpism_1_1Diag.html" target="_top" xlink:title="A template derived from Diagnostic, adding a &quot;Model&quot;.">
<polygon fill="white" stroke="#666666" points="134.5,-256 12.5,-256 12.5,-237 134.5,-237 134.5,-256"/>
<text text-anchor="middle" x="73.5" y="-244" font-family="Helvetica,sans-Serif" font-size="10.00">pism::Diag&lt; Model &gt;</text>
</a>
</g>
</g>
<!-- Node3&#45;&gt;Node2 -->
<g id="edge2_Node000002_Node000003" class="edge">
<title>Node3&#45;&gt;Node2</title>
<g id="a_edge2_Node000002_Node000003"><a xlink:title=" ">
<path fill="none" stroke="#63b8ff" d="M75.35,-226.66C78.6,-193.71 85.23,-126.34 88.11,-97.08"/>
<polygon fill="#63b8ff" stroke="#63b8ff" points="71.86,-226.47 74.36,-236.76 78.82,-227.15 71.86,-226.47"/>
</a>
</g>
</g>
<!-- Node4 -->
<g id="Node000004" class="node">
<title>Node4</title>
<g id="a_Node000004"><a xlink:href="classpism_1_1Diagnostic.html" target="_top" xlink:title="Class representing diagnostic computations in PISM.">
<polygon fill="white" stroke="#666666" points="198.5,-349 100.5,-349 100.5,-330 198.5,-330 198.5,-349"/>
<text text-anchor="middle" x="149.5" y="-337" font-family="Helvetica,sans-Serif" font-size="10.00">pism::Diagnostic</text>
</a>
</g>
</g>
<!-- Node4&#45;&gt;Node3 -->
<g id="edge3_Node000003_Node000004" class="edge">
<title>Node4&#45;&gt;Node3</title>
<g id="a_edge3_Node000003_Node000004"><a xlink:title=" ">
<path fill="none" stroke="#63b8ff" d="M135.76,-322.05C119.56,-302.65 93.24,-271.14 80.65,-256.07"/>
<polygon fill="#63b8ff" stroke="#63b8ff" points="133.12,-324.34 142.21,-329.77 138.49,-319.86 133.12,-324.34"/>
</a>
</g>
</g>
<!-- Node6 -->
<g id="Node000006" class="node">
<title>Node6</title>
<g id="a_Node000006"><a xlink:href="classpism_1_1Diag.html" target="_top" xlink:title=" ">
<polygon fill="white" stroke="#666666" points="234,-219 133,-219 133,-200 234,-200 234,-219"/>
<text text-anchor="middle" x="183.5" y="-207" font-family="Helvetica,sans-Serif" font-size="10.00">pism::Diag&lt; M &gt;</text>
</a>
</g>
</g>
<!-- Node4&#45;&gt;Node6 -->
<g id="edge6_Node000006_Node000004" class="edge">
<title>Node4&#45;&gt;Node6</title>
<g id="a_edge6_Node000006_Node000004"><a xlink:title=" ">
<path fill="none" stroke="#63b8ff" d="M154.44,-319.9C161.91,-291.76 175.8,-239.48 181.24,-219.02"/>
<polygon fill="#63b8ff" stroke="#63b8ff" points="151.02,-319.14 151.84,-329.7 157.79,-320.94 151.02,-319.14"/>
</a>
</g>
</g>
<!-- Node7 -->
<g id="Node000007" class="node">
<title>Node7</title>
<g id="a_Node000007"><a xlink:href="classpism_1_1Diag.html" target="_top" xlink:title="A template derived from Diagnostic, adding a &quot;Model&quot;.">
<polygon fill="white" stroke="#666666" points="299.5,-293 177.5,-293 177.5,-274 299.5,-274 299.5,-293"/>
<text text-anchor="middle" x="238.5" y="-281" font-family="Helvetica,sans-Serif" font-size="10.00">pism::Diag&lt; Model &gt;</text>
</a>
</g>
</g>
<!-- Node4&#45;&gt;Node7 -->
<g id="edge8_Node000007_Node000004" class="edge">
<title>Node4&#45;&gt;Node7</title>
<g id="a_edge8_Node000007_Node000004"><a xlink:title=" ">
<path fill="none" stroke="#63b8ff" d="M172.74,-324.4C189.06,-314.5 210.37,-301.57 224.24,-293.15"/>
<polygon fill="#63b8ff" stroke="#63b8ff" points="170.53,-321.64 163.8,-329.82 174.16,-327.63 170.53,-321.64"/>
</a>
</g>
</g>
<!-- Node5 -->
<g id="Node000005" class="node">
<title>Node5</title>
<g id="a_Node000005"><a xlink:href="classpism_1_1DiagAverageRate.html" target="_top" xlink:title=" ">
<polygon fill="white" stroke="#666666" points="265,-163 102,-163 102,-144 265,-144 265,-163"/>
<text text-anchor="middle" x="183.5" y="-151" font-family="Helvetica,sans-Serif" font-size="10.00">pism::DiagAverageRate&lt; M &gt;</text>
</a>
</g>
</g>
<!-- Node5&#45;&gt;Node2 -->
<g id="edge4_Node000002_Node000005" class="edge">
<title>Node5&#45;&gt;Node2</title>
<g id="a_edge4_Node000002_Node000005"><a xlink:title=" ">
<path fill="none" stroke="orange" stroke-dasharray="5,2" d="M163.72,-137.88C147.5,-125.88 124.67,-109 108.62,-97.14"/>
<polygon fill="orange" stroke="orange" points="161.85,-140.85 171.97,-143.98 166.01,-135.22 161.85,-140.85"/>
</a>
</g>
<text text-anchor="middle" x="180.5" y="-118" font-family="Helvetica,sans-Serif" font-size="10.00" fill="grey"> &lt; IceModel &gt;</text>
</g>
<!-- Node6&#45;&gt;Node5 -->
<g id="edge5_Node000005_Node000006" class="edge">
<title>Node6&#45;&gt;Node5</title>
<g id="a_edge5_Node000005_Node000006"><a xlink:title=" ">
<path fill="none" stroke="#63b8ff" d="M183.5,-189.3C183.5,-180.41 183.5,-170.28 183.5,-163.25"/>
<polygon fill="#63b8ff" stroke="#63b8ff" points="180,-189.58 183.5,-199.58 187,-189.58 180,-189.58"/>
</a>
</g>
</g>
<!-- Node7&#45;&gt;Node6 -->
<g id="edge7_Node000006_Node000007" class="edge">
<title>Node7&#45;&gt;Node6</title>
<g id="a_edge7_Node000006_Node000007"><a xlink:title=" ">
<path fill="none" stroke="orange" stroke-dasharray="5,2" d="M225.72,-265.76C214.54,-251.14 198.78,-230.5 190.02,-219.03"/>
<polygon fill="orange" stroke="orange" points="223.12,-268.14 231.97,-273.96 228.69,-263.89 223.12,-268.14"/>
</a>
</g>
<text text-anchor="middle" x="236" y="-244" font-family="Helvetica,sans-Serif" font-size="10.00" fill="grey"> &lt; M &gt;</text>
</g>
</g>
</svg>
