<?xml version="1.0" encoding="UTF-8" standalone="no"?>
<!DOCTYPE svg PUBLIC "-//W3C//DTD SVG 1.1//EN"
 "http://www.w3.org/Graphics/SVG/1.1/DTD/svg11.dtd">
<!-- Generated by graphviz version 2.43.0 (0)
 -->
<!-- Title: pism::petsc::Tao Pages: 1 -->
<svg width="141pt" height="152pt"
 viewBox="0.00 0.00 141.00 152.00" xmlns="http://www.w3.org/2000/svg" xmlns:xlink="http://www.w3.org/1999/xlink">
<g id="graph0" class="graph" transform="scale(1 1) rotate(0) translate(4 148)">
<title>pism::petsc::Tao</title>
<!-- Node1 -->
<g id="node1" class="node">
<title>Node1</title>
<g id="a_node1"><a xlink:title=" ">
<polygon fill="#bfbfbf" stroke="black" points="19,-0.5 19,-19.5 114,-19.5 114,-0.5 19,-0.5"/>
<text text-anchor="middle" x="66.5" y="-7.5" font-family="Helvetica,sans-Serif" font-size="10.00">pism::petsc::Tao</text>
</a>
</g>
</g>
<!-- Node2 -->
<g id="node2" class="node">
<title>Node2</title>
<g id="a_node2"><a xlink:href="classpism_1_1Wrapper.html" target="_top" xlink:title=" ">
<polygon fill="none" stroke="black" points="0,-57.5 0,-76.5 133,-76.5 133,-57.5 0,-57.5"/>
<text text-anchor="middle" x="66.5" y="-64.5" font-family="Helvetica,sans-Serif" font-size="10.00">pism::Wrapper&lt; ::Tao &gt;</text>
</a>
</g>
</g>
<!-- Node2&#45;&gt;Node1 -->
<g id="edge1" class="edge">
<title>Node2&#45;&gt;Node1</title>
<path fill="none" stroke="midnightblue" d="M66.5,-47.12C66.5,-37.82 66.5,-27.06 66.5,-19.71"/>
<polygon fill="midnightblue" stroke="midnightblue" points="63,-47.41 66.5,-57.41 70,-47.41 63,-47.41"/>
</g>
<!-- Node3 -->
<g id="node3" class="node">
<title>Node3</title>
<g id="a_node3"><a xlink:href="classpism_1_1Wrapper.html" target="_top" xlink:title=" ">
<polygon fill="none" stroke="black" points="8.5,-124.5 8.5,-143.5 124.5,-143.5 124.5,-124.5 8.5,-124.5"/>
<text text-anchor="middle" x="66.5" y="-131.5" font-family="Helvetica,sans-Serif" font-size="10.00">pism::Wrapper&lt; T &gt;</text>
</a>
</g>
</g>
<!-- Node3&#45;&gt;Node2 -->
<g id="edge2" class="edge">
<title>Node3&#45;&gt;Node2</title>
<path fill="none" stroke="orange" stroke-dasharray="5,2" d="M66.5,-114.04C66.5,-101.67 66.5,-86.12 66.5,-76.63"/>
<polygon fill="orange" stroke="orange" points="63,-114.23 66.5,-124.23 70,-114.23 63,-114.23"/>
<text text-anchor="middle" x="91" y="-98" font-family="Helvetica,sans-Serif" font-size="10.00"> &lt; ::Tao &gt;</text>
</g>
</g>
</svg>
