<?xml version="1.0" encoding="UTF-8" standalone="no"?>
<!DOCTYPE svg PUBLIC "-//W3C//DTD SVG 1.1//EN"
 "http://www.w3.org/Graphics/SVG/1.1/DTD/svg11.dtd">
<!-- Generated by graphviz version 2.43.0 (0)
 -->
<!-- Title: pism::surface::diagnostics::DEBMSInsolation Pages: 1 -->
<svg width="220pt" height="220pt"
 viewBox="0.00 0.00 219.50 220.00" xmlns="http://www.w3.org/2000/svg" xmlns:xlink="http://www.w3.org/1999/xlink">
<g id="graph0" class="graph" transform="scale(1 1) rotate(0) translate(4 216)">
<title>pism::surface::diagnostics::DEBMSInsolation</title>
<!-- Node1 -->
<g id="node1" class="node">
<title>Node1</title>
<g id="a_node1"><a xlink:title="Report mean top of atmosphere insolation.">
<polygon fill="#bfbfbf" stroke="black" points="5.5,-0.5 5.5,-30.5 149.5,-30.5 149.5,-0.5 5.5,-0.5"/>
<text text-anchor="start" x="13.5" y="-18.5" font-family="Helvetica,sans-Serif" font-size="10.00">pism::surface::diagnostics</text>
<text text-anchor="middle" x="77.5" y="-7.5" font-family="Helvetica,sans-Serif" font-size="10.00">::DEBMSInsolation</text>
</a>
</g>
</g>
<!-- Node2 -->
<g id="node2" class="node">
<title>Node2</title>
<g id="a_node2"><a xlink:href="classpism_1_1Diag.html" target="_top" xlink:title=" ">
<polygon fill="none" stroke="black" points="0,-68.5 0,-87.5 155,-87.5 155,-68.5 0,-68.5"/>
<text text-anchor="middle" x="77.5" y="-75.5" font-family="Helvetica,sans-Serif" font-size="10.00">pism::Diag&lt; DEBMSimple &gt;</text>
</a>
</g>
</g>
<!-- Node2&#45;&gt;Node1 -->
<g id="edge1" class="edge">
<title>Node2&#45;&gt;Node1</title>
<path fill="none" stroke="midnightblue" d="M77.5,-58.22C77.5,-49.36 77.5,-38.96 77.5,-30.76"/>
<polygon fill="midnightblue" stroke="midnightblue" points="74,-58.33 77.5,-68.33 81,-58.33 74,-58.33"/>
</g>
<!-- Node3 -->
<g id="node3" class="node">
<title>Node3</title>
<g id="a_node3"><a xlink:href="classpism_1_1Diagnostic.html" target="_top" xlink:title="Class representing diagnostic computations in PISM.">
<polygon fill="none" stroke="black" points="24.5,-192.5 24.5,-211.5 122.5,-211.5 122.5,-192.5 24.5,-192.5"/>
<text text-anchor="middle" x="73.5" y="-199.5" font-family="Helvetica,sans-Serif" font-size="10.00">pism::Diagnostic</text>
</a>
</g>
</g>
<!-- Node3&#45;&gt;Node2 -->
<g id="edge2" class="edge">
<title>Node3&#45;&gt;Node2</title>
<path fill="none" stroke="midnightblue" d="M74.12,-182.19C75,-155.4 76.57,-107.31 77.21,-87.69"/>
<polygon fill="midnightblue" stroke="midnightblue" points="70.62,-182.12 73.79,-192.23 77.61,-182.35 70.62,-182.12"/>
</g>
<!-- Node4 -->
<g id="node4" class="node">
<title>Node4</title>
<g id="a_node4"><a xlink:href="classpism_1_1Diag.html" target="_top" xlink:title="A template derived from Diagnostic, adding a &quot;Model&quot;.">
<polygon fill="none" stroke="black" points="89.5,-135.5 89.5,-154.5 211.5,-154.5 211.5,-135.5 89.5,-135.5"/>
<text text-anchor="middle" x="150.5" y="-142.5" font-family="Helvetica,sans-Serif" font-size="10.00">pism::Diag&lt; Model &gt;</text>
</a>
</g>
</g>
<!-- Node3&#45;&gt;Node4 -->
<g id="edge4" class="edge">
<title>Node3&#45;&gt;Node4</title>
<path fill="none" stroke="midnightblue" d="M93.75,-186.54C108,-176.35 126.61,-163.07 138.55,-154.53"/>
<polygon fill="midnightblue" stroke="midnightblue" points="91.63,-183.75 85.53,-192.41 95.7,-189.44 91.63,-183.75"/>
</g>
<!-- Node4&#45;&gt;Node2 -->
<g id="edge3" class="edge">
<title>Node4&#45;&gt;Node2</title>
<path fill="none" stroke="orange" stroke-dasharray="5,2" d="M132.93,-128.36C118.58,-115.58 98.83,-97.99 87.19,-87.63"/>
<polygon fill="orange" stroke="orange" points="130.86,-131.2 140.65,-135.23 135.51,-125.97 130.86,-131.2"/>
<text text-anchor="middle" x="162" y="-109" font-family="Helvetica,sans-Serif" font-size="10.00"> &lt; DEBMSimple &gt;</text>
</g>
</g>
</svg>
