<?xml version="1.0" encoding="UTF-8" standalone="no"?>
<!DOCTYPE svg PUBLIC "-//W3C//DTD SVG 1.1//EN"
 "http://www.w3.org/Graphics/SVG/1.1/DTD/svg11.dtd">
<!-- Generated by graphviz version 2.43.0 (0)
 -->
<!-- Title: pism::array::Scalar Pages: 1 -->
<svg width="392pt" height="448pt"
 viewBox="0.00 0.00 392.00 448.00" xmlns="http://www.w3.org/2000/svg" xmlns:xlink="http://www.w3.org/1999/xlink">
<g id="graph0" class="graph" transform="scale(1 1) rotate(0) translate(4 444)">
<title>pism::array::Scalar</title>
<!-- Node1 -->
<g id="node1" class="node">
<title>Node1</title>
<g id="a_node1"><a xlink:title=" ">
<polygon fill="#bfbfbf" stroke="black" points="143,-171.5 143,-190.5 250,-190.5 250,-171.5 143,-171.5"/>
<text text-anchor="middle" x="196.5" y="-178.5" font-family="Helvetica,sans-Serif" font-size="10.00">pism::array::Scalar</text>
</a>
</g>
</g>
<!-- Node6 -->
<g id="node6" class="node">
<title>Node6</title>
<g id="a_node6"><a xlink:href="classpism_1_1array_1_1CellType.html" target="_top" xlink:title="&quot;Cell type&quot; mask. Adds convenience methods to array::Scalar.">
<polygon fill="none" stroke="black" points="3,-114.5 3,-133.5 122,-133.5 122,-114.5 3,-114.5"/>
<text text-anchor="middle" x="62.5" y="-121.5" font-family="Helvetica,sans-Serif" font-size="10.00">pism::array::CellType</text>
</a>
</g>
</g>
<!-- Node1&#45;&gt;Node6 -->
<g id="edge6" class="edge">
<title>Node1&#45;&gt;Node6</title>
<path fill="none" stroke="midnightblue" d="M166.07,-167.51C140.78,-157.13 105.46,-142.63 83.29,-133.53"/>
<polygon fill="midnightblue" stroke="midnightblue" points="164.98,-170.85 175.56,-171.41 167.64,-164.37 164.98,-170.85"/>
</g>
<!-- Node9 -->
<g id="node9" class="node">
<title>Node9</title>
<g id="a_node9"><a xlink:href="classpism_1_1array_1_1Forcing.html" target="_top" xlink:title="2D time&#45;dependent inputs (for climate forcing, etc)">
<polygon fill="none" stroke="black" points="140,-114.5 140,-133.5 253,-133.5 253,-114.5 140,-114.5"/>
<text text-anchor="middle" x="196.5" y="-121.5" font-family="Helvetica,sans-Serif" font-size="10.00">pism::array::Forcing</text>
</a>
</g>
</g>
<!-- Node1&#45;&gt;Node9 -->
<g id="edge9" class="edge">
<title>Node1&#45;&gt;Node9</title>
<path fill="none" stroke="midnightblue" d="M196.5,-161.12C196.5,-151.82 196.5,-141.06 196.5,-133.71"/>
<polygon fill="midnightblue" stroke="midnightblue" points="193,-161.41 196.5,-171.41 200,-161.41 193,-161.41"/>
</g>
<!-- Node10 -->
<g id="node10" class="node">
<title>Node10</title>
<g id="a_node10"><a xlink:href="classpism_1_1array_1_1Scalar1.html" target="_top" xlink:title=" ">
<polygon fill="none" stroke="black" points="271,-114.5 271,-133.5 384,-133.5 384,-114.5 271,-114.5"/>
<text text-anchor="middle" x="327.5" y="-121.5" font-family="Helvetica,sans-Serif" font-size="10.00">pism::array::Scalar1</text>
</a>
</g>
</g>
<!-- Node1&#45;&gt;Node10 -->
<g id="edge10" class="edge">
<title>Node1&#45;&gt;Node10</title>
<path fill="none" stroke="midnightblue" d="M226.25,-167.51C250.97,-157.13 285.51,-142.63 307.17,-133.53"/>
<polygon fill="midnightblue" stroke="midnightblue" points="224.83,-164.31 216.97,-171.41 227.54,-170.76 224.83,-164.31"/>
</g>
<!-- Node2 -->
<g id="node2" class="node">
<title>Node2</title>
<g id="a_node2"><a xlink:href="classpism_1_1array_1_1Array2D.html" target="_top" xlink:title=" ">
<polygon fill="none" stroke="black" points="138,-228.5 138,-258.5 255,-258.5 255,-228.5 138,-228.5"/>
<text text-anchor="start" x="146" y="-246.5" font-family="Helvetica,sans-Serif" font-size="10.00">pism::array::Array2D</text>
<text text-anchor="middle" x="196.5" y="-235.5" font-family="Helvetica,sans-Serif" font-size="10.00">&lt; double &gt;</text>
</a>
</g>
</g>
<!-- Node2&#45;&gt;Node1 -->
<g id="edge1" class="edge">
<title>Node2&#45;&gt;Node1</title>
<path fill="none" stroke="midnightblue" d="M196.5,-218.35C196.5,-208.51 196.5,-197.78 196.5,-190.54"/>
<polygon fill="midnightblue" stroke="midnightblue" points="193,-218.47 196.5,-228.47 200,-218.47 193,-218.47"/>
</g>
<!-- Node3 -->
<g id="node3" class="node">
<title>Node3</title>
<g id="a_node3"><a xlink:href="classpism_1_1array_1_1Array.html" target="_top" xlink:title="Abstract class for reading, writing, allocating, and accessing a DA&#45;based PETSc Vec (2D and 3D fields...">
<polygon fill="none" stroke="black" points="140.5,-363.5 140.5,-382.5 244.5,-382.5 244.5,-363.5 140.5,-363.5"/>
<text text-anchor="middle" x="192.5" y="-370.5" font-family="Helvetica,sans-Serif" font-size="10.00">pism::array::Array</text>
</a>
</g>
</g>
<!-- Node3&#45;&gt;Node2 -->
<g id="edge2" class="edge">
<title>Node3&#45;&gt;Node2</title>
<path fill="none" stroke="midnightblue" d="M193.1,-352.9C193.91,-327.05 195.34,-281.54 196.06,-258.59"/>
<polygon fill="midnightblue" stroke="midnightblue" points="189.59,-353.13 192.77,-363.24 196.59,-353.35 189.59,-353.13"/>
</g>
<!-- Node5 -->
<g id="node5" class="node">
<title>Node5</title>
<g id="a_node5"><a xlink:href="classpism_1_1array_1_1Array2D.html" target="_top" xlink:title="A storage vector combining related fields in a struct.">
<polygon fill="none" stroke="black" points="208.5,-306.5 208.5,-325.5 354.5,-325.5 354.5,-306.5 208.5,-306.5"/>
<text text-anchor="middle" x="281.5" y="-313.5" font-family="Helvetica,sans-Serif" font-size="10.00">pism::array::Array2D&lt; T &gt;</text>
</a>
</g>
</g>
<!-- Node3&#45;&gt;Node5 -->
<g id="edge5" class="edge">
<title>Node3&#45;&gt;Node5</title>
<path fill="none" stroke="midnightblue" d="M214.98,-358.11C231.57,-347.86 253.62,-334.23 267.69,-325.53"/>
<polygon fill="midnightblue" stroke="midnightblue" points="213.07,-355.17 206.41,-363.41 216.75,-361.13 213.07,-355.17"/>
</g>
<!-- Node4 -->
<g id="node4" class="node">
<title>Node4</title>
<g id="a_node4"><a xlink:href="classpism_1_1PetscAccessible.html" target="_top" xlink:title=" ">
<polygon fill="none" stroke="black" points="130,-420.5 130,-439.5 255,-439.5 255,-420.5 130,-420.5"/>
<text text-anchor="middle" x="192.5" y="-427.5" font-family="Helvetica,sans-Serif" font-size="10.00">pism::PetscAccessible</text>
</a>
</g>
</g>
<!-- Node4&#45;&gt;Node3 -->
<g id="edge3" class="edge">
<title>Node4&#45;&gt;Node3</title>
<path fill="none" stroke="midnightblue" d="M192.5,-410.12C192.5,-400.82 192.5,-390.06 192.5,-382.71"/>
<polygon fill="midnightblue" stroke="midnightblue" points="189,-410.41 192.5,-420.41 196,-410.41 189,-410.41"/>
</g>
<!-- Node5&#45;&gt;Node2 -->
<g id="edge4" class="edge">
<title>Node5&#45;&gt;Node2</title>
<path fill="none" stroke="orange" stroke-dasharray="5,2" d="M263.15,-299.78C248.41,-287.55 227.84,-270.5 213.47,-258.58"/>
<polygon fill="orange" stroke="orange" points="261.15,-302.67 271.08,-306.36 265.61,-297.28 261.15,-302.67"/>
<text text-anchor="middle" x="276" y="-280" font-family="Helvetica,sans-Serif" font-size="10.00"> &lt; double &gt;</text>
</g>
<!-- Node7 -->
<g id="node7" class="node">
<title>Node7</title>
<g id="a_node7"><a xlink:href="classpism_1_1array_1_1CellType1.html" target="_top" xlink:title=" ">
<polygon fill="none" stroke="black" points="0,-57.5 0,-76.5 125,-76.5 125,-57.5 0,-57.5"/>
<text text-anchor="middle" x="62.5" y="-64.5" font-family="Helvetica,sans-Serif" font-size="10.00">pism::array::CellType1</text>
</a>
</g>
</g>
<!-- Node6&#45;&gt;Node7 -->
<g id="edge7" class="edge">
<title>Node6&#45;&gt;Node7</title>
<path fill="none" stroke="midnightblue" d="M62.5,-104.12C62.5,-94.82 62.5,-84.06 62.5,-76.71"/>
<polygon fill="midnightblue" stroke="midnightblue" points="59,-104.41 62.5,-114.41 66,-104.41 59,-104.41"/>
</g>
<!-- Node8 -->
<g id="node8" class="node">
<title>Node8</title>
<g id="a_node8"><a xlink:href="classpism_1_1array_1_1CellType2.html" target="_top" xlink:title=" ">
<polygon fill="none" stroke="black" points="0,-0.5 0,-19.5 125,-19.5 125,-0.5 0,-0.5"/>
<text text-anchor="middle" x="62.5" y="-7.5" font-family="Helvetica,sans-Serif" font-size="10.00">pism::array::CellType2</text>
</a>
</g>
</g>
<!-- Node7&#45;&gt;Node8 -->
<g id="edge8" class="edge">
<title>Node7&#45;&gt;Node8</title>
<path fill="none" stroke="midnightblue" d="M62.5,-47.12C62.5,-37.82 62.5,-27.06 62.5,-19.71"/>
<polygon fill="midnightblue" stroke="midnightblue" points="59,-47.41 62.5,-57.41 66,-47.41 59,-47.41"/>
</g>
<!-- Node11 -->
<g id="node11" class="node">
<title>Node11</title>
<g id="a_node11"><a xlink:href="classpism_1_1array_1_1Scalar2.html" target="_top" xlink:title=" ">
<polygon fill="none" stroke="black" points="271,-57.5 271,-76.5 384,-76.5 384,-57.5 271,-57.5"/>
<text text-anchor="middle" x="327.5" y="-64.5" font-family="Helvetica,sans-Serif" font-size="10.00">pism::array::Scalar2</text>
</a>
</g>
</g>
<!-- Node10&#45;&gt;Node11 -->
<g id="edge11" class="edge">
<title>Node10&#45;&gt;Node11</title>
<path fill="none" stroke="midnightblue" d="M327.5,-104.12C327.5,-94.82 327.5,-84.06 327.5,-76.71"/>
<polygon fill="midnightblue" stroke="midnightblue" points="324,-104.41 327.5,-114.41 331,-104.41 324,-104.41"/>
</g>
</g>
</svg>
