<?xml version="1.0" encoding="UTF-8" standalone="no"?>
<!DOCTYPE svg PUBLIC "-//W3C//DTD SVG 1.1//EN"
 "http://www.w3.org/Graphics/SVG/1.1/DTD/svg11.dtd">
<!-- Generated by graphviz version 2.43.0 (0)
 -->
<!-- Title: pism::atmosphere::SeaRISEGreenland Pages: 1 -->
<svg width="209pt" height="218pt"
 viewBox="0.00 0.00 209.00 218.00" xmlns="http://www.w3.org/2000/svg" xmlns:xlink="http://www.w3.org/1999/xlink">
<g id="graph0" class="graph" transform="scale(1 1) rotate(0) translate(4 214)">
<title>pism::atmosphere::SeaRISEGreenland</title>
<!-- Node1 -->
<g id="node1" class="node">
<title>Node1</title>
<g id="a_node1"><a xlink:title="A modification of YearlyCycle tailored for the SeaRISE&#45;Greenland assessment. Uses the Fausto [Faustoe...">
<polygon fill="#bfbfbf" stroke="black" points="0,-0.5 0,-19.5 201,-19.5 201,-0.5 0,-0.5"/>
<text text-anchor="middle" x="100.5" y="-7.5" font-family="Helvetica,sans-Serif" font-size="10.00">pism::atmosphere::SeaRISEGreenland</text>
</a>
</g>
</g>
<!-- Node2 -->
<g id="node2" class="node">
<title>Node2</title>
<g id="a_node2"><a xlink:href="classpism_1_1atmosphere_1_1YearlyCycle.html" target="_top" xlink:title=" ">
<polygon fill="none" stroke="black" points="30.5,-56.5 30.5,-86.5 170.5,-86.5 170.5,-56.5 30.5,-56.5"/>
<text text-anchor="start" x="38.5" y="-74.5" font-family="Helvetica,sans-Serif" font-size="10.00">pism::atmosphere::Yearly</text>
<text text-anchor="middle" x="100.5" y="-63.5" font-family="Helvetica,sans-Serif" font-size="10.00">Cycle</text>
</a>
</g>
</g>
<!-- Node2&#45;&gt;Node1 -->
<g id="edge1" class="edge">
<title>Node2&#45;&gt;Node1</title>
<path fill="none" stroke="midnightblue" d="M100.5,-46.29C100.5,-36.86 100.5,-26.65 100.5,-19.66"/>
<polygon fill="midnightblue" stroke="midnightblue" points="97,-46.4 100.5,-56.4 104,-46.4 97,-46.4"/>
</g>
<!-- Node3 -->
<g id="node3" class="node">
<title>Node3</title>
<g id="a_node3"><a xlink:href="classpism_1_1atmosphere_1_1AtmosphereModel.html" target="_top" xlink:title="A purely virtual class defining the interface of a PISM Atmosphere Model.">
<polygon fill="none" stroke="black" points="15.5,-123.5 15.5,-153.5 185.5,-153.5 185.5,-123.5 15.5,-123.5"/>
<text text-anchor="start" x="23.5" y="-141.5" font-family="Helvetica,sans-Serif" font-size="10.00">pism::atmosphere::Atmosphere</text>
<text text-anchor="middle" x="100.5" y="-130.5" font-family="Helvetica,sans-Serif" font-size="10.00">Model</text>
</a>
</g>
</g>
<!-- Node3&#45;&gt;Node2 -->
<g id="edge2" class="edge">
<title>Node3&#45;&gt;Node2</title>
<path fill="none" stroke="midnightblue" d="M100.5,-113.11C100.5,-104.15 100.5,-94.32 100.5,-86.58"/>
<polygon fill="midnightblue" stroke="midnightblue" points="97,-113.4 100.5,-123.4 104,-113.4 97,-113.4"/>
</g>
<!-- Node4 -->
<g id="node4" class="node">
<title>Node4</title>
<g id="a_node4"><a xlink:href="classpism_1_1Component.html" target="_top" xlink:title="A class defining a common interface for most PISM sub&#45;models.">
<polygon fill="none" stroke="black" points="49,-190.5 49,-209.5 152,-209.5 152,-190.5 49,-190.5"/>
<text text-anchor="middle" x="100.5" y="-197.5" font-family="Helvetica,sans-Serif" font-size="10.00">pism::Component</text>
</a>
</g>
</g>
<!-- Node4&#45;&gt;Node3 -->
<g id="edge3" class="edge">
<title>Node4&#45;&gt;Node3</title>
<path fill="none" stroke="midnightblue" d="M100.5,-180.23C100.5,-171.59 100.5,-161.5 100.5,-153.52"/>
<polygon fill="midnightblue" stroke="midnightblue" points="97,-180.48 100.5,-190.48 104,-180.48 97,-180.48"/>
</g>
</g>
</svg>
