<?xml version="1.0" encoding="UTF-8" standalone="no"?>
<!DOCTYPE svg PUBLIC "-//W3C//DTD SVG 1.1//EN"
 "http://www.w3.org/Graphics/SVG/1.1/DTD/svg11.dtd">
<!-- Generated by graphviz version 2.43.0 (0)
 -->
<!-- Title: pism::ocean::OceanModel Pages: 1 -->
<svg width="647pt" height="432pt"
 viewBox="0.00 0.00 647.00 432.00" xmlns="http://www.w3.org/2000/svg" xmlns:xlink="http://www.w3.org/1999/xlink">
<g id="graph0" class="graph" transform="scale(1 1) rotate(0) translate(4 428)">
<title>pism::ocean::OceanModel</title>
<!-- Node1 -->
<g id="node1" class="node">
<title>Node1</title>
<g id="a_node1"><a xlink:title="A very rudimentary PISM ocean model.">
<polygon fill="#bfbfbf" stroke="black" points="139,-202.5 139,-221.5 282,-221.5 282,-202.5 139,-202.5"/>
<text text-anchor="middle" x="210.5" y="-209.5" font-family="Helvetica,sans-Serif" font-size="10.00">pism::ocean::OceanModel</text>
</a>
</g>
</g>
<!-- Node3 -->
<g id="node3" class="node">
<title>Node3</title>
<g id="a_node3"><a xlink:href="classpism_1_1ocean_1_1Anomaly.html" target="_top" xlink:title="Reads and uses shelf_basal_mass_flux anomalies from a file.">
<polygon fill="none" stroke="black" points="335.5,-404.5 335.5,-423.5 460.5,-423.5 460.5,-404.5 335.5,-404.5"/>
<text text-anchor="middle" x="398" y="-411.5" font-family="Helvetica,sans-Serif" font-size="10.00">pism::ocean::Anomaly</text>
</a>
</g>
</g>
<!-- Node1&#45;&gt;Node3 -->
<g id="edge2" class="edge">
<title>Node1&#45;&gt;Node3</title>
<path fill="none" stroke="midnightblue" d="M217.17,-231.59C229.18,-269.4 260.84,-352.45 318,-395 323.21,-398.87 329.09,-401.97 335.24,-404.44"/>
<polygon fill="midnightblue" stroke="midnightblue" points="220.45,-230.34 214.19,-221.8 213.76,-232.38 220.45,-230.34"/>
</g>
<!-- Node4 -->
<g id="node4" class="node">
<title>Node4</title>
<g id="a_node4"><a xlink:href="classpism_1_1ocean_1_1Cache.html" target="_top" xlink:title=" ">
<polygon fill="none" stroke="black" points="342,-366.5 342,-385.5 454,-385.5 454,-366.5 342,-366.5"/>
<text text-anchor="middle" x="398" y="-373.5" font-family="Helvetica,sans-Serif" font-size="10.00">pism::ocean::Cache</text>
</a>
</g>
</g>
<!-- Node1&#45;&gt;Node4 -->
<g id="edge3" class="edge">
<title>Node1&#45;&gt;Node4</title>
<path fill="none" stroke="midnightblue" d="M220.27,-231.2C235.52,-262.38 269.98,-323.78 318,-356 325.17,-360.81 333.4,-364.46 341.79,-367.24"/>
<polygon fill="midnightblue" stroke="midnightblue" points="223.29,-229.4 215.84,-221.87 216.96,-232.4 223.29,-229.4"/>
</g>
<!-- Node5 -->
<g id="node5" class="node">
<title>Node5</title>
<g id="a_node5"><a xlink:href="classpism_1_1ocean_1_1CompleteOceanModel.html" target="_top" xlink:title=" ">
<polygon fill="none" stroke="black" points="318,-317 318,-347 478,-347 478,-317 318,-317"/>
<text text-anchor="start" x="326" y="-335" font-family="Helvetica,sans-Serif" font-size="10.00">pism::ocean::CompleteOcean</text>
<text text-anchor="middle" x="398" y="-324" font-family="Helvetica,sans-Serif" font-size="10.00">Model</text>
</a>
</g>
</g>
<!-- Node1&#45;&gt;Node5 -->
<g id="edge4" class="edge">
<title>Node1&#45;&gt;Node5</title>
<path fill="none" stroke="midnightblue" d="M226.36,-229.11C245.56,-250.22 280.93,-285.9 318,-307 324.63,-310.77 331.89,-314.05 339.26,-316.89"/>
<polygon fill="midnightblue" stroke="midnightblue" points="228.88,-226.67 219.61,-221.54 223.65,-231.33 228.88,-226.67"/>
</g>
<!-- Node10 -->
<g id="node10" class="node">
<title>Node10</title>
<g id="a_node10"><a xlink:href="classpism_1_1ocean_1_1Delta__MBP.html" target="_top" xlink:title=" ">
<polygon fill="none" stroke="black" points="330.5,-278.5 330.5,-297.5 465.5,-297.5 465.5,-278.5 330.5,-278.5"/>
<text text-anchor="middle" x="398" y="-285.5" font-family="Helvetica,sans-Serif" font-size="10.00">pism::ocean::Delta_MBP</text>
</a>
</g>
</g>
<!-- Node1&#45;&gt;Node10 -->
<g id="edge9" class="edge">
<title>Node1&#45;&gt;Node10</title>
<path fill="none" stroke="midnightblue" d="M235.02,-226.85C256.06,-239.59 288.12,-257.63 318,-269 327.76,-272.71 338.47,-275.87 348.78,-278.48"/>
<polygon fill="midnightblue" stroke="midnightblue" points="236.79,-223.84 226.44,-221.59 233.13,-229.8 236.79,-223.84"/>
</g>
<!-- Node11 -->
<g id="node11" class="node">
<title>Node11</title>
<g id="a_node11"><a xlink:href="classpism_1_1ocean_1_1Delta__SMB.html" target="_top" xlink:title="Forcing using shelf base mass flux offsets (scalar, time&#45;dependent).">
<polygon fill="none" stroke="black" points="330.5,-240.5 330.5,-259.5 465.5,-259.5 465.5,-240.5 330.5,-240.5"/>
<text text-anchor="middle" x="398" y="-247.5" font-family="Helvetica,sans-Serif" font-size="10.00">pism::ocean::Delta_SMB</text>
</a>
</g>
</g>
<!-- Node1&#45;&gt;Node11 -->
<g id="edge10" class="edge">
<title>Node1&#45;&gt;Node11</title>
<path fill="none" stroke="midnightblue" d="M268.17,-223.61C294.56,-229.01 325.55,-235.36 350.53,-240.48"/>
<polygon fill="midnightblue" stroke="midnightblue" points="268.81,-220.17 258.31,-221.59 267.4,-227.02 268.81,-220.17"/>
</g>
<!-- Node12 -->
<g id="node12" class="node">
<title>Node12</title>
<g id="a_node12"><a xlink:href="classpism_1_1ocean_1_1Delta__T.html" target="_top" xlink:title="Forcing using shelf base temperature scalar time&#45;dependent offsets.">
<polygon fill="none" stroke="black" points="338.5,-202.5 338.5,-221.5 457.5,-221.5 457.5,-202.5 338.5,-202.5"/>
<text text-anchor="middle" x="398" y="-209.5" font-family="Helvetica,sans-Serif" font-size="10.00">pism::ocean::Delta_T</text>
</a>
</g>
</g>
<!-- Node1&#45;&gt;Node12 -->
<g id="edge11" class="edge">
<title>Node1&#45;&gt;Node12</title>
<path fill="none" stroke="midnightblue" d="M292.25,-212C307.74,-212 323.68,-212 338.3,-212"/>
<polygon fill="midnightblue" stroke="midnightblue" points="292.16,-208.5 282.16,-212 292.16,-215.5 292.16,-208.5"/>
</g>
<!-- Node13 -->
<g id="node13" class="node">
<title>Node13</title>
<g id="a_node13"><a xlink:href="classpism_1_1ocean_1_1Frac__MBP.html" target="_top" xlink:title=" ">
<polygon fill="none" stroke="black" points="333.5,-164.5 333.5,-183.5 462.5,-183.5 462.5,-164.5 333.5,-164.5"/>
<text text-anchor="middle" x="398" y="-171.5" font-family="Helvetica,sans-Serif" font-size="10.00">pism::ocean::Frac_MBP</text>
</a>
</g>
</g>
<!-- Node1&#45;&gt;Node13 -->
<g id="edge12" class="edge">
<title>Node1&#45;&gt;Node13</title>
<path fill="none" stroke="midnightblue" d="M268.17,-200.39C294.56,-194.99 325.55,-188.64 350.53,-183.52"/>
<polygon fill="midnightblue" stroke="midnightblue" points="267.4,-196.98 258.31,-202.41 268.81,-203.83 267.4,-196.98"/>
</g>
<!-- Node14 -->
<g id="node14" class="node">
<title>Node14</title>
<g id="a_node14"><a xlink:href="classpism_1_1ocean_1_1Frac__SMB.html" target="_top" xlink:title="Forcing using shelf base mass flux fractions (scalar, time&#45;dependent).">
<polygon fill="none" stroke="black" points="333.5,-126.5 333.5,-145.5 462.5,-145.5 462.5,-126.5 333.5,-126.5"/>
<text text-anchor="middle" x="398" y="-133.5" font-family="Helvetica,sans-Serif" font-size="10.00">pism::ocean::Frac_SMB</text>
</a>
</g>
</g>
<!-- Node1&#45;&gt;Node14 -->
<g id="edge13" class="edge">
<title>Node1&#45;&gt;Node14</title>
<path fill="none" stroke="midnightblue" d="M235.02,-197.15C256.06,-184.41 288.12,-166.37 318,-155 327.76,-151.29 338.47,-148.13 348.78,-145.52"/>
<polygon fill="midnightblue" stroke="midnightblue" points="233.13,-194.2 226.44,-202.41 236.79,-200.16 233.13,-194.2"/>
</g>
<!-- Node15 -->
<g id="node15" class="node">
<title>Node15</title>
<g id="a_node15"><a xlink:href="classpism_1_1ocean_1_1Given.html" target="_top" xlink:title=" ">
<polygon fill="none" stroke="black" points="343,-88.5 343,-107.5 453,-107.5 453,-88.5 343,-88.5"/>
<text text-anchor="middle" x="398" y="-95.5" font-family="Helvetica,sans-Serif" font-size="10.00">pism::ocean::Given</text>
</a>
</g>
</g>
<!-- Node1&#45;&gt;Node15 -->
<g id="edge14" class="edge">
<title>Node1&#45;&gt;Node15</title>
<path fill="none" stroke="midnightblue" d="M226.13,-194.47C245.09,-172.92 280.21,-136.78 318,-117 325.62,-113.01 334.1,-109.84 342.59,-107.33"/>
<polygon fill="midnightblue" stroke="midnightblue" points="223.34,-192.34 219.47,-202.21 228.64,-196.91 223.34,-192.34"/>
</g>
<!-- Node16 -->
<g id="node16" class="node">
<title>Node16</title>
<g id="a_node16"><a xlink:href="classpism_1_1ocean_1_1InitializationHelper.html" target="_top" xlink:title=" ">
<polygon fill="none" stroke="black" points="326.5,-39 326.5,-69 469.5,-69 469.5,-39 326.5,-39"/>
<text text-anchor="start" x="334.5" y="-57" font-family="Helvetica,sans-Serif" font-size="10.00">pism::ocean::Initialization</text>
<text text-anchor="middle" x="398" y="-46" font-family="Helvetica,sans-Serif" font-size="10.00">Helper</text>
</a>
</g>
</g>
<!-- Node1&#45;&gt;Node16 -->
<g id="edge15" class="edge">
<title>Node1&#45;&gt;Node16</title>
<path fill="none" stroke="midnightblue" d="M221.55,-193.37C237.97,-164.65 273.26,-109.68 318,-79 323.58,-75.18 329.77,-71.91 336.16,-69.14"/>
<polygon fill="midnightblue" stroke="midnightblue" points="218.35,-191.91 216.54,-202.35 224.47,-195.32 218.35,-191.91"/>
</g>
<!-- Node17 -->
<g id="node17" class="node">
<title>Node17</title>
<g id="a_node17"><a xlink:href="classpism_1_1ocean_1_1Runoff__SMB.html" target="_top" xlink:title=" ">
<polygon fill="none" stroke="black" points="328,-0.5 328,-19.5 468,-19.5 468,-0.5 328,-0.5"/>
<text text-anchor="middle" x="398" y="-7.5" font-family="Helvetica,sans-Serif" font-size="10.00">pism::ocean::Runoff_SMB</text>
</a>
</g>
</g>
<!-- Node1&#45;&gt;Node17 -->
<g id="edge16" class="edge">
<title>Node1&#45;&gt;Node17</title>
<path fill="none" stroke="midnightblue" d="M217.17,-192.41C229.18,-154.6 260.84,-71.55 318,-29 323.21,-25.13 329.09,-22.03 335.24,-19.56"/>
<polygon fill="midnightblue" stroke="midnightblue" points="213.76,-191.62 214.19,-202.2 220.45,-193.66 213.76,-191.62"/>
</g>
<!-- Node2 -->
<g id="node2" class="node">
<title>Node2</title>
<g id="a_node2"><a xlink:href="classpism_1_1Component.html" target="_top" xlink:title="A class defining a common interface for most PISM sub&#45;models.">
<polygon fill="none" stroke="black" points="0,-202.5 0,-221.5 103,-221.5 103,-202.5 0,-202.5"/>
<text text-anchor="middle" x="51.5" y="-209.5" font-family="Helvetica,sans-Serif" font-size="10.00">pism::Component</text>
</a>
</g>
</g>
<!-- Node2&#45;&gt;Node1 -->
<g id="edge1" class="edge">
<title>Node2&#45;&gt;Node1</title>
<path fill="none" stroke="midnightblue" d="M113.11,-212C121.51,-212 130.19,-212 138.75,-212"/>
<polygon fill="midnightblue" stroke="midnightblue" points="113.04,-208.5 103.04,-212 113.04,-215.5 113.04,-208.5"/>
</g>
<!-- Node6 -->
<g id="node6" class="node">
<title>Node6</title>
<g id="a_node6"><a xlink:href="classpism_1_1ocean_1_1Constant.html" target="_top" xlink:title="A class implementing a constant (in terms of the ocean inputs) ocean model. Uses configuration parame...">
<polygon fill="none" stroke="black" points="514,-379.5 514,-398.5 639,-398.5 639,-379.5 514,-379.5"/>
<text text-anchor="middle" x="576.5" y="-386.5" font-family="Helvetica,sans-Serif" font-size="10.00">pism::ocean::Constant</text>
</a>
</g>
</g>
<!-- Node5&#45;&gt;Node6 -->
<g id="edge5" class="edge">
<title>Node5&#45;&gt;Node6</title>
<path fill="none" stroke="midnightblue" d="M457.12,-350.1C464.17,-352.38 471.26,-354.72 478,-357 494.11,-362.46 497.87,-364.6 514,-370 523.54,-373.19 533.97,-376.49 543.49,-379.42"/>
<polygon fill="midnightblue" stroke="midnightblue" points="458.16,-346.76 447.56,-347.03 456.01,-353.42 458.16,-346.76"/>
</g>
<!-- Node7 -->
<g id="node7" class="node">
<title>Node7</title>
<g id="a_node7"><a xlink:href="classpism_1_1ocean_1_1GivenTH.html" target="_top" xlink:title=" ">
<polygon fill="none" stroke="black" points="514.5,-341.5 514.5,-360.5 638.5,-360.5 638.5,-341.5 514.5,-341.5"/>
<text text-anchor="middle" x="576.5" y="-348.5" font-family="Helvetica,sans-Serif" font-size="10.00">pism::ocean::GivenTH</text>
</a>
</g>
</g>
<!-- Node5&#45;&gt;Node7 -->
<g id="edge6" class="edge">
<title>Node5&#45;&gt;Node7</title>
<path fill="none" stroke="midnightblue" d="M488.17,-341.6C497,-342.55 505.82,-343.5 514.27,-344.41"/>
<polygon fill="midnightblue" stroke="midnightblue" points="488.53,-338.12 478.22,-340.53 487.78,-345.08 488.53,-338.12"/>
</g>
<!-- Node8 -->
<g id="node8" class="node">
<title>Node8</title>
<g id="a_node8"><a xlink:href="classpism_1_1ocean_1_1PIK.html" target="_top" xlink:title="Implements the ocean model used in [Martinetal2011].">
<polygon fill="none" stroke="black" points="527.5,-303.5 527.5,-322.5 625.5,-322.5 625.5,-303.5 527.5,-303.5"/>
<text text-anchor="middle" x="576.5" y="-310.5" font-family="Helvetica,sans-Serif" font-size="10.00">pism::ocean::PIK</text>
</a>
</g>
</g>
<!-- Node5&#45;&gt;Node8 -->
<g id="edge7" class="edge">
<title>Node5&#45;&gt;Node8</title>
<path fill="none" stroke="midnightblue" d="M488.41,-322.37C501.76,-320.94 515.08,-319.5 527.14,-318.21"/>
<polygon fill="midnightblue" stroke="midnightblue" points="487.78,-318.92 478.22,-323.47 488.53,-325.88 487.78,-318.92"/>
</g>
<!-- Node9 -->
<g id="node9" class="node">
<title>Node9</title>
<g id="a_node9"><a xlink:href="classpism_1_1ocean_1_1Pico.html" target="_top" xlink:title=" ">
<polygon fill="none" stroke="black" points="525.5,-265.5 525.5,-284.5 627.5,-284.5 627.5,-265.5 525.5,-265.5"/>
<text text-anchor="middle" x="576.5" y="-272.5" font-family="Helvetica,sans-Serif" font-size="10.00">pism::ocean::Pico</text>
</a>
</g>
</g>
<!-- Node5&#45;&gt;Node9 -->
<g id="edge8" class="edge">
<title>Node5&#45;&gt;Node9</title>
<path fill="none" stroke="midnightblue" d="M457.12,-313.9C464.17,-311.62 471.26,-309.28 478,-307 494.11,-301.54 497.87,-299.4 514,-294 523.54,-290.81 533.97,-287.51 543.49,-284.58"/>
<polygon fill="midnightblue" stroke="midnightblue" points="456.01,-310.58 447.56,-316.97 458.16,-317.24 456.01,-310.58"/>
</g>
</g>
</svg>
