<?xml version="1.0" encoding="UTF-8" standalone="no"?>
<!DOCTYPE svg PUBLIC "-//W3C//DTD SVG 1.1//EN"
 "http://www.w3.org/Graphics/SVG/1.1/DTD/svg11.dtd">
<!-- Generated by graphviz version 2.43.0 (0)
 -->
<!-- Title: pism::stressbalance::SSAFEM Pages: 1 -->
<svg width="328pt" height="285pt"
 viewBox="0.00 0.00 327.50 285.00" xmlns="http://www.w3.org/2000/svg" xmlns:xlink="http://www.w3.org/1999/xlink">
<g id="graph0" class="graph" transform="scale(1 1) rotate(0) translate(4 281)">
<title>pism::stressbalance::SSAFEM</title>
<!-- Node1 -->
<g id="node1" class="node">
<title>Node1</title>
<g id="a_node1"><a xlink:title="PISM&#39;s SSA solver: the finite element method implementation written by Jed and David.">
<polygon fill="#bfbfbf" stroke="black" points="106,-67.5 106,-97.5 220,-97.5 220,-67.5 106,-67.5"/>
<text text-anchor="start" x="114" y="-85.5" font-family="Helvetica,sans-Serif" font-size="10.00">pism::stressbalance</text>
<text text-anchor="middle" x="163" y="-74.5" font-family="Helvetica,sans-Serif" font-size="10.00">::SSAFEM</text>
</a>
</g>
</g>
<!-- Node5 -->
<g id="node5" class="node">
<title>Node5</title>
<g id="a_node5"><a xlink:href="classpism_1_1inverse_1_1IP__SSAHardavForwardProblem.html" target="_top" xlink:title="Implements the forward problem of the map taking &#160;to the corresponding solution of the SSA.">
<polygon fill="none" stroke="black" points="0,-0.5 0,-30.5 158,-30.5 158,-0.5 0,-0.5"/>
<text text-anchor="start" x="8" y="-18.5" font-family="Helvetica,sans-Serif" font-size="10.00">pism::inverse::IP_SSAHardav</text>
<text text-anchor="middle" x="79" y="-7.5" font-family="Helvetica,sans-Serif" font-size="10.00">ForwardProblem</text>
</a>
</g>
</g>
<!-- Node1&#45;&gt;Node5 -->
<g id="edge4" class="edge">
<title>Node1&#45;&gt;Node5</title>
<path fill="none" stroke="midnightblue" d="M136.72,-61.17C123.88,-51.23 108.74,-39.51 97.19,-30.58"/>
<polygon fill="midnightblue" stroke="midnightblue" points="134.72,-64.04 144.77,-67.4 139.01,-58.51 134.72,-64.04"/>
</g>
<!-- Node6 -->
<g id="node6" class="node">
<title>Node6</title>
<g id="a_node6"><a xlink:href="classpism_1_1inverse_1_1IP__SSATaucForwardProblem.html" target="_top" xlink:title="Implements the forward problem of the map taking &#160;to the corresponding solution of the SSA.">
<polygon fill="none" stroke="black" points="176.5,-0.5 176.5,-30.5 319.5,-30.5 319.5,-0.5 176.5,-0.5"/>
<text text-anchor="start" x="184.5" y="-18.5" font-family="Helvetica,sans-Serif" font-size="10.00">pism::inverse::IP_SSATauc</text>
<text text-anchor="middle" x="248" y="-7.5" font-family="Helvetica,sans-Serif" font-size="10.00">ForwardProblem</text>
</a>
</g>
</g>
<!-- Node1&#45;&gt;Node6 -->
<g id="edge5" class="edge">
<title>Node1&#45;&gt;Node6</title>
<path fill="none" stroke="midnightblue" d="M189.59,-61.17C202.59,-51.23 217.9,-39.51 229.59,-30.58"/>
<polygon fill="midnightblue" stroke="midnightblue" points="187.26,-58.54 181.44,-67.4 191.51,-64.1 187.26,-58.54"/>
</g>
<!-- Node2 -->
<g id="node2" class="node">
<title>Node2</title>
<g id="a_node2"><a xlink:href="classpism_1_1stressbalance_1_1SSA.html" target="_top" xlink:title="PISM&#39;s SSA solver.">
<polygon fill="none" stroke="black" points="93,-134.5 93,-153.5 233,-153.5 233,-134.5 93,-134.5"/>
<text text-anchor="middle" x="163" y="-141.5" font-family="Helvetica,sans-Serif" font-size="10.00">pism::stressbalance::SSA</text>
</a>
</g>
</g>
<!-- Node2&#45;&gt;Node1 -->
<g id="edge1" class="edge">
<title>Node2&#45;&gt;Node1</title>
<path fill="none" stroke="midnightblue" d="M163,-124.23C163,-115.59 163,-105.5 163,-97.52"/>
<polygon fill="midnightblue" stroke="midnightblue" points="159.5,-124.48 163,-134.48 166.5,-124.48 159.5,-124.48"/>
</g>
<!-- Node3 -->
<g id="node3" class="node">
<title>Node3</title>
<g id="a_node3"><a xlink:href="classpism_1_1stressbalance_1_1ShallowStressBalance.html" target="_top" xlink:title="Shallow stress balance (such as the SSA).">
<polygon fill="none" stroke="black" points="98,-190.5 98,-220.5 228,-220.5 228,-190.5 98,-190.5"/>
<text text-anchor="start" x="106" y="-208.5" font-family="Helvetica,sans-Serif" font-size="10.00">pism::stressbalance</text>
<text text-anchor="middle" x="163" y="-197.5" font-family="Helvetica,sans-Serif" font-size="10.00">::ShallowStressBalance</text>
</a>
</g>
</g>
<!-- Node3&#45;&gt;Node2 -->
<g id="edge2" class="edge">
<title>Node3&#45;&gt;Node2</title>
<path fill="none" stroke="midnightblue" d="M163,-180.29C163,-170.86 163,-160.65 163,-153.66"/>
<polygon fill="midnightblue" stroke="midnightblue" points="159.5,-180.4 163,-190.4 166.5,-180.4 159.5,-180.4"/>
</g>
<!-- Node4 -->
<g id="node4" class="node">
<title>Node4</title>
<g id="a_node4"><a xlink:href="classpism_1_1Component.html" target="_top" xlink:title="A class defining a common interface for most PISM sub&#45;models.">
<polygon fill="none" stroke="black" points="111.5,-257.5 111.5,-276.5 214.5,-276.5 214.5,-257.5 111.5,-257.5"/>
<text text-anchor="middle" x="163" y="-264.5" font-family="Helvetica,sans-Serif" font-size="10.00">pism::Component</text>
</a>
</g>
</g>
<!-- Node4&#45;&gt;Node3 -->
<g id="edge3" class="edge">
<title>Node4&#45;&gt;Node3</title>
<path fill="none" stroke="midnightblue" d="M163,-247.23C163,-238.59 163,-228.5 163,-220.52"/>
<polygon fill="midnightblue" stroke="midnightblue" points="159.5,-247.48 163,-257.48 166.5,-247.48 159.5,-247.48"/>
</g>
</g>
</svg>
