<?xml version="1.0" encoding="UTF-8" standalone="no"?>
<!DOCTYPE svg PUBLIC "-//W3C//DTD SVG 1.1//EN"
 "http://www.w3.org/Graphics/SVG/1.1/DTD/svg11.dtd">
<!-- Generated by graphviz version 2.43.0 (0)
 -->
<!-- Title: pism::surface::diagnostics::TotalSurfaceRunoff Pages: 1 -->
<svg width="299pt" height="299pt"
 viewBox="0.00 0.00 298.50 299.00" xmlns="http://www.w3.org/2000/svg" xmlns:xlink="http://www.w3.org/1999/xlink">
<g id="graph0" class="graph" transform="scale(1 1) rotate(0) translate(4 295)">
<title>pism::surface::diagnostics::TotalSurfaceRunoff</title>
<!-- Node1 -->
<g id="node1" class="node">
<title>Node1</title>
<g id="a_node1"><a xlink:title="Reports the total top surface ice flux.">
<polygon fill="#bfbfbf" stroke="black" points="67.5,-0.5 67.5,-30.5 211.5,-30.5 211.5,-0.5 67.5,-0.5"/>
<text text-anchor="start" x="75.5" y="-18.5" font-family="Helvetica,sans-Serif" font-size="10.00">pism::surface::diagnostics</text>
<text text-anchor="middle" x="139.5" y="-7.5" font-family="Helvetica,sans-Serif" font-size="10.00">::TotalSurfaceRunoff</text>
</a>
</g>
</g>
<!-- Node2 -->
<g id="node2" class="node">
<title>Node2</title>
<g id="a_node2"><a xlink:href="classpism_1_1TSDiag.html" target="_top" xlink:title=" ">
<polygon fill="none" stroke="black" points="49.5,-68.5 49.5,-98.5 229.5,-98.5 229.5,-68.5 49.5,-68.5"/>
<text text-anchor="start" x="57.5" y="-86.5" font-family="Helvetica,sans-Serif" font-size="10.00">pism::TSDiag&lt; TSFluxDiagnostic,</text>
<text text-anchor="middle" x="139.5" y="-75.5" font-family="Helvetica,sans-Serif" font-size="10.00"> SurfaceModel &gt;</text>
</a>
</g>
</g>
<!-- Node2&#45;&gt;Node1 -->
<g id="edge1" class="edge">
<title>Node2&#45;&gt;Node1</title>
<path fill="none" stroke="midnightblue" d="M139.5,-58.03C139.5,-48.86 139.5,-38.74 139.5,-30.79"/>
<polygon fill="midnightblue" stroke="midnightblue" points="136,-58.18 139.5,-68.18 143,-58.18 136,-58.18"/>
</g>
<!-- Node3 -->
<g id="node3" class="node">
<title>Node3</title>
<g id="a_node3"><a xlink:href="classpism_1_1TSFluxDiagnostic.html" target="_top" xlink:title="Scalar diagnostic reporting a &quot;flux&quot;.">
<polygon fill="none" stroke="black" points="1,-157.5 1,-176.5 132,-176.5 132,-157.5 1,-157.5"/>
<text text-anchor="middle" x="66.5" y="-164.5" font-family="Helvetica,sans-Serif" font-size="10.00">pism::TSFluxDiagnostic</text>
</a>
</g>
</g>
<!-- Node3&#45;&gt;Node2 -->
<g id="edge2" class="edge">
<title>Node3&#45;&gt;Node2</title>
<path fill="none" stroke="midnightblue" d="M81.02,-149.78C94.42,-134.83 114.11,-112.84 126.87,-98.6"/>
<polygon fill="midnightblue" stroke="midnightblue" points="78.38,-147.49 74.31,-157.28 83.59,-152.16 78.38,-147.49"/>
</g>
<!-- Node4 -->
<g id="node4" class="node">
<title>Node4</title>
<g id="a_node4"><a xlink:href="classpism_1_1TSRateDiagnostic.html" target="_top" xlink:title="Scalar diagnostic reporting the rate of change of a quantity modeled by PISM.">
<polygon fill="none" stroke="black" points="0,-214.5 0,-233.5 133,-233.5 133,-214.5 0,-214.5"/>
<text text-anchor="middle" x="66.5" y="-221.5" font-family="Helvetica,sans-Serif" font-size="10.00">pism::TSRateDiagnostic</text>
</a>
</g>
</g>
<!-- Node4&#45;&gt;Node3 -->
<g id="edge3" class="edge">
<title>Node4&#45;&gt;Node3</title>
<path fill="none" stroke="midnightblue" d="M66.5,-204.12C66.5,-194.82 66.5,-184.06 66.5,-176.71"/>
<polygon fill="midnightblue" stroke="midnightblue" points="63,-204.41 66.5,-214.41 70,-204.41 63,-204.41"/>
</g>
<!-- Node5 -->
<g id="node5" class="node">
<title>Node5</title>
<g id="a_node5"><a xlink:href="classpism_1_1TSDiagnostic.html" target="_top" xlink:title="PISM&#39;s scalar time&#45;series diagnostics.">
<polygon fill="none" stroke="black" points="11.5,-271.5 11.5,-290.5 121.5,-290.5 121.5,-271.5 11.5,-271.5"/>
<text text-anchor="middle" x="66.5" y="-278.5" font-family="Helvetica,sans-Serif" font-size="10.00">pism::TSDiagnostic</text>
</a>
</g>
</g>
<!-- Node5&#45;&gt;Node4 -->
<g id="edge4" class="edge">
<title>Node5&#45;&gt;Node4</title>
<path fill="none" stroke="midnightblue" d="M66.5,-261.12C66.5,-251.82 66.5,-241.06 66.5,-233.71"/>
<polygon fill="midnightblue" stroke="midnightblue" points="63,-261.41 66.5,-271.41 70,-261.41 63,-261.41"/>
</g>
<!-- Node6 -->
<g id="node6" class="node">
<title>Node6</title>
<g id="a_node6"><a xlink:href="classpism_1_1TSDiag.html" target="_top" xlink:title=" ">
<polygon fill="none" stroke="black" points="150.5,-157.5 150.5,-176.5 276.5,-176.5 276.5,-157.5 150.5,-157.5"/>
<text text-anchor="middle" x="213.5" y="-164.5" font-family="Helvetica,sans-Serif" font-size="10.00">pism::TSDiag&lt; D, M &gt;</text>
</a>
</g>
</g>
<!-- Node6&#45;&gt;Node2 -->
<g id="edge5" class="edge">
<title>Node6&#45;&gt;Node2</title>
<path fill="none" stroke="orange" stroke-dasharray="5,2" d="M198.78,-149.78C185.2,-134.83 165.23,-112.84 152.3,-98.6"/>
<polygon fill="orange" stroke="orange" points="196.27,-152.23 205.58,-157.28 201.45,-147.52 196.27,-152.23"/>
<text text-anchor="start" x="187.5" y="-131" font-family="Helvetica,sans-Serif" font-size="10.00"> &lt; TSFluxDiagnostic,</text>
<text text-anchor="middle" x="239" y="-120" font-family="Helvetica,sans-Serif" font-size="10.00"> SurfaceModel &gt;</text>
</g>
<!-- Node7 -->
<g id="node7" class="node">
<title>Node7</title>
<g id="a_node7"><a xlink:href="classD.html" target="_top" xlink:title=" ">
<polygon fill="none" stroke="black" points="199,-214.5 199,-233.5 228,-233.5 228,-214.5 199,-214.5"/>
<text text-anchor="middle" x="213.5" y="-221.5" font-family="Helvetica,sans-Serif" font-size="10.00">D</text>
</a>
</g>
</g>
<!-- Node7&#45;&gt;Node6 -->
<g id="edge6" class="edge">
<title>Node7&#45;&gt;Node6</title>
<path fill="none" stroke="midnightblue" d="M213.5,-204.12C213.5,-194.82 213.5,-184.06 213.5,-176.71"/>
<polygon fill="midnightblue" stroke="midnightblue" points="210,-204.41 213.5,-214.41 217,-204.41 210,-204.41"/>
</g>
</g>
</svg>
