<?xml version="1.0" encoding="UTF-8" standalone="no"?>
<!DOCTYPE svg PUBLIC "-//W3C//DTD SVG 1.1//EN"
 "http://www.w3.org/Graphics/SVG/1.1/DTD/svg11.dtd">
<!-- Generated by graphviz version 2.43.0 (0)
 -->
<!-- Title: pism::stressbalance::SIAFD_diffusivity_staggered Pages: 1 -->
<svg width="203pt" height="231pt"
 viewBox="0.00 0.00 202.50 231.00" xmlns="http://www.w3.org/2000/svg" xmlns:xlink="http://www.w3.org/1999/xlink">
<g id="graph0" class="graph" transform="scale(1 1) rotate(0) translate(4 227)">
<title>pism::stressbalance::SIAFD_diffusivity_staggered</title>
<!-- Node1 -->
<g id="node1" class="node">
<title>Node1</title>
<g id="a_node1"><a xlink:title="Compute diffusivity of the SIA flow (on the staggered grid).">
<polygon fill="#bfbfbf" stroke="black" points="3.5,-0.5 3.5,-41.5 117.5,-41.5 117.5,-0.5 3.5,-0.5"/>
<text text-anchor="start" x="11.5" y="-29.5" font-family="Helvetica,sans-Serif" font-size="10.00">pism::stressbalance</text>
<text text-anchor="start" x="11.5" y="-18.5" font-family="Helvetica,sans-Serif" font-size="10.00">::SIAFD_diffusivity</text>
<text text-anchor="middle" x="60.5" y="-7.5" font-family="Helvetica,sans-Serif" font-size="10.00">_staggered</text>
</a>
</g>
</g>
<!-- Node2 -->
<g id="node2" class="node">
<title>Node2</title>
<g id="a_node2"><a xlink:href="classpism_1_1Diag.html" target="_top" xlink:title=" ">
<polygon fill="none" stroke="black" points="0,-79.5 0,-98.5 121,-98.5 121,-79.5 0,-79.5"/>
<text text-anchor="middle" x="60.5" y="-86.5" font-family="Helvetica,sans-Serif" font-size="10.00">pism::Diag&lt; SIAFD &gt;</text>
</a>
</g>
</g>
<!-- Node2&#45;&gt;Node1 -->
<g id="edge1" class="edge">
<title>Node2&#45;&gt;Node1</title>
<path fill="none" stroke="midnightblue" d="M60.5,-69.25C60.5,-60.65 60.5,-50.45 60.5,-41.74"/>
<polygon fill="midnightblue" stroke="midnightblue" points="57,-69.37 60.5,-79.37 64,-69.37 57,-69.37"/>
</g>
<!-- Node3 -->
<g id="node3" class="node">
<title>Node3</title>
<g id="a_node3"><a xlink:href="classpism_1_1Diagnostic.html" target="_top" xlink:title="Class representing diagnostic computations in PISM.">
<polygon fill="none" stroke="black" points="7.5,-203.5 7.5,-222.5 105.5,-222.5 105.5,-203.5 7.5,-203.5"/>
<text text-anchor="middle" x="56.5" y="-210.5" font-family="Helvetica,sans-Serif" font-size="10.00">pism::Diagnostic</text>
</a>
</g>
</g>
<!-- Node3&#45;&gt;Node2 -->
<g id="edge2" class="edge">
<title>Node3&#45;&gt;Node2</title>
<path fill="none" stroke="midnightblue" d="M57.12,-193.19C58,-166.4 59.57,-118.31 60.21,-98.69"/>
<polygon fill="midnightblue" stroke="midnightblue" points="53.62,-193.12 56.79,-203.23 60.61,-193.35 53.62,-193.12"/>
</g>
<!-- Node4 -->
<g id="node4" class="node">
<title>Node4</title>
<g id="a_node4"><a xlink:href="classpism_1_1Diag.html" target="_top" xlink:title="A template derived from Diagnostic, adding a &quot;Model&quot;.">
<polygon fill="none" stroke="black" points="72.5,-146.5 72.5,-165.5 194.5,-165.5 194.5,-146.5 72.5,-146.5"/>
<text text-anchor="middle" x="133.5" y="-153.5" font-family="Helvetica,sans-Serif" font-size="10.00">pism::Diag&lt; Model &gt;</text>
</a>
</g>
</g>
<!-- Node3&#45;&gt;Node4 -->
<g id="edge4" class="edge">
<title>Node3&#45;&gt;Node4</title>
<path fill="none" stroke="midnightblue" d="M76.75,-197.54C91,-187.35 109.61,-174.07 121.55,-165.53"/>
<polygon fill="midnightblue" stroke="midnightblue" points="74.63,-194.75 68.53,-203.41 78.7,-200.44 74.63,-194.75"/>
</g>
<!-- Node4&#45;&gt;Node2 -->
<g id="edge3" class="edge">
<title>Node4&#45;&gt;Node2</title>
<path fill="none" stroke="orange" stroke-dasharray="5,2" d="M115.93,-139.36C101.58,-126.58 81.83,-108.99 70.19,-98.63"/>
<polygon fill="orange" stroke="orange" points="113.86,-142.2 123.65,-146.23 118.51,-136.97 113.86,-142.2"/>
<text text-anchor="middle" x="128" y="-120" font-family="Helvetica,sans-Serif" font-size="10.00"> &lt; SIAFD &gt;</text>
</g>
</g>
</svg>
