<?xml version="1.0" encoding="UTF-8" standalone="no"?>
<!DOCTYPE svg PUBLIC "-//W3C//DTD SVG 1.1//EN"
 "http://www.w3.org/Graphics/SVG/1.1/DTD/svg11.dtd">
<!-- Generated by graphviz version 2.43.0 (0)
 -->
<!-- Title: pism::stressbalance::ShallowStressBalance Pages: 1 -->
<svg width="816pt" height="431pt"
 viewBox="0.00 0.00 816.00 431.00" xmlns="http://www.w3.org/2000/svg" xmlns:xlink="http://www.w3.org/1999/xlink">
<g id="graph0" class="graph" transform="scale(1 1) rotate(0) translate(4 427)">
<title>pism::stressbalance::ShallowStressBalance</title>
<!-- Node1 -->
<g id="node1" class="node">
<title>Node1</title>
<g id="a_node1"><a xlink:title="Shallow stress balance (such as the SSA).">
<polygon fill="#bfbfbf" stroke="black" points="139,-74.5 139,-104.5 269,-104.5 269,-74.5 139,-74.5"/>
<text text-anchor="start" x="147" y="-92.5" font-family="Helvetica,sans-Serif" font-size="10.00">pism::stressbalance</text>
<text text-anchor="middle" x="204" y="-81.5" font-family="Helvetica,sans-Serif" font-size="10.00">::ShallowStressBalance</text>
</a>
</g>
</g>
<!-- Node3 -->
<g id="node3" class="node">
<title>Node3</title>
<g id="a_node3"><a xlink:href="classpism_1_1stressbalance_1_1Blatter.html" target="_top" xlink:title=" ">
<polygon fill="none" stroke="black" points="318,-245.5 318,-275.5 432,-275.5 432,-245.5 318,-245.5"/>
<text text-anchor="start" x="326" y="-263.5" font-family="Helvetica,sans-Serif" font-size="10.00">pism::stressbalance</text>
<text text-anchor="middle" x="375" y="-252.5" font-family="Helvetica,sans-Serif" font-size="10.00">::Blatter</text>
</a>
</g>
</g>
<!-- Node1&#45;&gt;Node3 -->
<g id="edge2" class="edge">
<title>Node1&#45;&gt;Node3</title>
<path fill="none" stroke="midnightblue" d="M227.35,-112.11C262.27,-147.45 328.88,-214.85 358.79,-245.11"/>
<polygon fill="midnightblue" stroke="midnightblue" points="229.52,-109.33 220,-104.68 224.54,-114.25 229.52,-109.33"/>
</g>
<!-- Node10 -->
<g id="node10" class="node">
<title>Node10</title>
<g id="a_node10"><a xlink:href="classpism_1_1stressbalance_1_1SSA.html" target="_top" xlink:title="PISM&#39;s SSA solver.">
<polygon fill="none" stroke="black" points="305,-102 305,-121 445,-121 445,-102 305,-102"/>
<text text-anchor="middle" x="375" y="-109" font-family="Helvetica,sans-Serif" font-size="10.00">pism::stressbalance::SSA</text>
</a>
</g>
</g>
<!-- Node1&#45;&gt;Node10 -->
<g id="edge9" class="edge">
<title>Node1&#45;&gt;Node10</title>
<path fill="none" stroke="midnightblue" d="M279.52,-99.2C287.9,-100.29 296.42,-101.4 304.74,-102.48"/>
<polygon fill="midnightblue" stroke="midnightblue" points="279.74,-95.7 269.37,-97.88 278.84,-102.64 279.74,-95.7"/>
</g>
<!-- Node16 -->
<g id="node16" class="node">
<title>Node16</title>
<g id="a_node16"><a xlink:href="classpism_1_1stressbalance_1_1WeertmanSliding.html" target="_top" xlink:title=" ">
<polygon fill="none" stroke="black" points="318,-52.5 318,-82.5 432,-82.5 432,-52.5 318,-52.5"/>
<text text-anchor="start" x="326" y="-70.5" font-family="Helvetica,sans-Serif" font-size="10.00">pism::stressbalance</text>
<text text-anchor="middle" x="375" y="-59.5" font-family="Helvetica,sans-Serif" font-size="10.00">::WeertmanSliding</text>
</a>
</g>
</g>
<!-- Node1&#45;&gt;Node16 -->
<g id="edge15" class="edge">
<title>Node1&#45;&gt;Node16</title>
<path fill="none" stroke="midnightblue" d="M279.58,-79.79C292.42,-78.12 305.57,-76.41 317.82,-74.81"/>
<polygon fill="midnightblue" stroke="midnightblue" points="278.84,-76.36 269.37,-81.12 279.74,-83.3 278.84,-76.36"/>
</g>
<!-- Node17 -->
<g id="node17" class="node">
<title>Node17</title>
<g id="a_node17"><a xlink:href="classpism_1_1stressbalance_1_1ZeroSliding.html" target="_top" xlink:title="Returns zero velocity field, zero friction heating, and zero for D^2.">
<polygon fill="none" stroke="black" points="318,-2.5 318,-32.5 432,-32.5 432,-2.5 318,-2.5"/>
<text text-anchor="start" x="326" y="-20.5" font-family="Helvetica,sans-Serif" font-size="10.00">pism::stressbalance</text>
<text text-anchor="middle" x="375" y="-9.5" font-family="Helvetica,sans-Serif" font-size="10.00">::ZeroSliding</text>
</a>
</g>
</g>
<!-- Node1&#45;&gt;Node17 -->
<g id="edge16" class="edge">
<title>Node1&#45;&gt;Node17</title>
<path fill="none" stroke="midnightblue" d="M244.47,-69.92C262.72,-61.14 284.78,-50.89 305,-42.5 313.12,-39.13 321.87,-35.76 330.33,-32.63"/>
<polygon fill="midnightblue" stroke="midnightblue" points="242.78,-66.85 235.31,-74.37 245.84,-73.15 242.78,-66.85"/>
</g>
<!-- Node2 -->
<g id="node2" class="node">
<title>Node2</title>
<g id="a_node2"><a xlink:href="classpism_1_1Component.html" target="_top" xlink:title="A class defining a common interface for most PISM sub&#45;models.">
<polygon fill="none" stroke="black" points="0,-80 0,-99 103,-99 103,-80 0,-80"/>
<text text-anchor="middle" x="51.5" y="-87" font-family="Helvetica,sans-Serif" font-size="10.00">pism::Component</text>
</a>
</g>
</g>
<!-- Node2&#45;&gt;Node1 -->
<g id="edge1" class="edge">
<title>Node2&#45;&gt;Node1</title>
<path fill="none" stroke="midnightblue" d="M113.22,-89.5C121.7,-89.5 130.43,-89.5 138.97,-89.5"/>
<polygon fill="midnightblue" stroke="midnightblue" points="113.03,-86 103.03,-89.5 113.03,-93 113.03,-86"/>
</g>
<!-- Node4 -->
<g id="node4" class="node">
<title>Node4</title>
<g id="a_node4"><a xlink:href="classpism_1_1stressbalance_1_1BlatterISMIPHOM.html" target="_top" xlink:title=" ">
<polygon fill="none" stroke="black" points="490.5,-392.5 490.5,-422.5 604.5,-422.5 604.5,-392.5 490.5,-392.5"/>
<text text-anchor="start" x="498.5" y="-410.5" font-family="Helvetica,sans-Serif" font-size="10.00">pism::stressbalance</text>
<text text-anchor="middle" x="547.5" y="-399.5" font-family="Helvetica,sans-Serif" font-size="10.00">::BlatterISMIPHOM</text>
</a>
</g>
</g>
<!-- Node3&#45;&gt;Node4 -->
<g id="edge3" class="edge">
<title>Node3&#45;&gt;Node4</title>
<path fill="none" stroke="midnightblue" d="M390.67,-284.12C408.8,-311.53 442.07,-356.42 481,-383.5 485.87,-386.89 491.28,-389.86 496.84,-392.45"/>
<polygon fill="midnightblue" stroke="midnightblue" points="393.49,-282.04 385.12,-275.55 387.62,-285.84 393.49,-282.04"/>
</g>
<!-- Node5 -->
<g id="node5" class="node">
<title>Node5</title>
<g id="a_node5"><a xlink:href="classpism_1_1stressbalance_1_1BlatterTestCFBC.html" target="_top" xlink:title=" ">
<polygon fill="none" stroke="black" points="490.5,-343.5 490.5,-373.5 604.5,-373.5 604.5,-343.5 490.5,-343.5"/>
<text text-anchor="start" x="498.5" y="-361.5" font-family="Helvetica,sans-Serif" font-size="10.00">pism::stressbalance</text>
<text text-anchor="middle" x="547.5" y="-350.5" font-family="Helvetica,sans-Serif" font-size="10.00">::BlatterTestCFBC</text>
</a>
</g>
</g>
<!-- Node3&#45;&gt;Node5 -->
<g id="edge4" class="edge">
<title>Node3&#45;&gt;Node5</title>
<path fill="none" stroke="midnightblue" d="M402.31,-281.99C422.83,-298 452.53,-319.58 481,-334.5 487.22,-337.76 493.99,-340.77 500.73,-343.49"/>
<polygon fill="midnightblue" stroke="midnightblue" points="404.4,-279.18 394.38,-275.73 400.06,-284.67 404.4,-279.18"/>
</g>
<!-- Node6 -->
<g id="node6" class="node">
<title>Node6</title>
<g id="a_node6"><a xlink:href="classpism_1_1stressbalance_1_1BlatterTestHalfar.html" target="_top" xlink:title=" ">
<polygon fill="none" stroke="black" points="490.5,-294.5 490.5,-324.5 604.5,-324.5 604.5,-294.5 490.5,-294.5"/>
<text text-anchor="start" x="498.5" y="-312.5" font-family="Helvetica,sans-Serif" font-size="10.00">pism::stressbalance</text>
<text text-anchor="middle" x="547.5" y="-301.5" font-family="Helvetica,sans-Serif" font-size="10.00">::BlatterTestHalfar</text>
</a>
</g>
</g>
<!-- Node3&#45;&gt;Node6 -->
<g id="edge5" class="edge">
<title>Node3&#45;&gt;Node6</title>
<path fill="none" stroke="midnightblue" d="M438.26,-278.39C456.6,-283.66 476.48,-289.38 494.13,-294.45"/>
<polygon fill="midnightblue" stroke="midnightblue" points="439.12,-275 428.55,-275.6 437.19,-281.73 439.12,-275"/>
</g>
<!-- Node7 -->
<g id="node7" class="node">
<title>Node7</title>
<g id="a_node7"><a xlink:href="classpism_1_1stressbalance_1_1BlatterTestXY.html" target="_top" xlink:title=" ">
<polygon fill="none" stroke="black" points="490.5,-245.5 490.5,-275.5 604.5,-275.5 604.5,-245.5 490.5,-245.5"/>
<text text-anchor="start" x="498.5" y="-263.5" font-family="Helvetica,sans-Serif" font-size="10.00">pism::stressbalance</text>
<text text-anchor="middle" x="547.5" y="-252.5" font-family="Helvetica,sans-Serif" font-size="10.00">::BlatterTestXY</text>
</a>
</g>
</g>
<!-- Node3&#45;&gt;Node7 -->
<g id="edge6" class="edge">
<title>Node3&#45;&gt;Node7</title>
<path fill="none" stroke="midnightblue" d="M442.52,-260.5C458.3,-260.5 474.98,-260.5 490.26,-260.5"/>
<polygon fill="midnightblue" stroke="midnightblue" points="442.3,-257 432.3,-260.5 442.3,-264 442.3,-257"/>
</g>
<!-- Node8 -->
<g id="node8" class="node">
<title>Node8</title>
<g id="a_node8"><a xlink:href="classpism_1_1stressbalance_1_1BlatterTestXZ.html" target="_top" xlink:title=" ">
<polygon fill="none" stroke="black" points="490.5,-196.5 490.5,-226.5 604.5,-226.5 604.5,-196.5 490.5,-196.5"/>
<text text-anchor="start" x="498.5" y="-214.5" font-family="Helvetica,sans-Serif" font-size="10.00">pism::stressbalance</text>
<text text-anchor="middle" x="547.5" y="-203.5" font-family="Helvetica,sans-Serif" font-size="10.00">::BlatterTestXZ</text>
</a>
</g>
</g>
<!-- Node3&#45;&gt;Node8 -->
<g id="edge7" class="edge">
<title>Node3&#45;&gt;Node8</title>
<path fill="none" stroke="midnightblue" d="M438.26,-242.61C456.6,-237.34 476.48,-231.62 494.13,-226.55"/>
<polygon fill="midnightblue" stroke="midnightblue" points="437.19,-239.27 428.55,-245.4 439.12,-246 437.19,-239.27"/>
</g>
<!-- Node9 -->
<g id="node9" class="node">
<title>Node9</title>
<g id="a_node9"><a xlink:href="classpism_1_1stressbalance_1_1BlatterTestvanderVeen.html" target="_top" xlink:title=" ">
<polygon fill="none" stroke="black" points="481,-147.5 481,-177.5 614,-177.5 614,-147.5 481,-147.5"/>
<text text-anchor="start" x="489" y="-165.5" font-family="Helvetica,sans-Serif" font-size="10.00">pism::stressbalance</text>
<text text-anchor="middle" x="547.5" y="-154.5" font-family="Helvetica,sans-Serif" font-size="10.00">::BlatterTestvanderVeen</text>
</a>
</g>
</g>
<!-- Node3&#45;&gt;Node9 -->
<g id="edge8" class="edge">
<title>Node3&#45;&gt;Node9</title>
<path fill="none" stroke="midnightblue" d="M402.79,-239.14C423.35,-223.45 452.88,-202.36 481,-187.5 487.78,-183.92 495.19,-180.58 502.51,-177.59"/>
<polygon fill="midnightblue" stroke="midnightblue" points="400.61,-236.41 394.84,-245.29 404.89,-241.95 400.61,-236.41"/>
</g>
<!-- Node11 -->
<g id="node11" class="node">
<title>Node11</title>
<g id="a_node11"><a xlink:href="classpism_1_1stressbalance_1_1SSAFD.html" target="_top" xlink:title="PISM&#39;s SSA solver: the finite difference implementation.">
<polygon fill="none" stroke="black" points="490.5,-98.5 490.5,-128.5 604.5,-128.5 604.5,-98.5 490.5,-98.5"/>
<text text-anchor="start" x="498.5" y="-116.5" font-family="Helvetica,sans-Serif" font-size="10.00">pism::stressbalance</text>
<text text-anchor="middle" x="547.5" y="-105.5" font-family="Helvetica,sans-Serif" font-size="10.00">::SSAFD</text>
</a>
</g>
</g>
<!-- Node10&#45;&gt;Node11 -->
<g id="edge10" class="edge">
<title>Node10&#45;&gt;Node11</title>
<path fill="none" stroke="midnightblue" d="M455.58,-112.43C467.29,-112.57 479.15,-112.71 490.26,-112.84"/>
<polygon fill="midnightblue" stroke="midnightblue" points="455.39,-108.93 445.35,-112.31 455.31,-115.93 455.39,-108.93"/>
</g>
<!-- Node13 -->
<g id="node13" class="node">
<title>Node13</title>
<g id="a_node13"><a xlink:href="classpism_1_1stressbalance_1_1SSAFEM.html" target="_top" xlink:title="PISM&#39;s SSA solver: the finite element method implementation written by Jed and David.">
<polygon fill="none" stroke="black" points="490.5,-49.5 490.5,-79.5 604.5,-79.5 604.5,-49.5 490.5,-49.5"/>
<text text-anchor="start" x="498.5" y="-67.5" font-family="Helvetica,sans-Serif" font-size="10.00">pism::stressbalance</text>
<text text-anchor="middle" x="547.5" y="-56.5" font-family="Helvetica,sans-Serif" font-size="10.00">::SSAFEM</text>
</a>
</g>
</g>
<!-- Node10&#45;&gt;Node13 -->
<g id="edge12" class="edge">
<title>Node10&#45;&gt;Node13</title>
<path fill="none" stroke="midnightblue" d="M420.2,-99.32C442.1,-93.28 468.75,-85.93 491.91,-79.55"/>
<polygon fill="midnightblue" stroke="midnightblue" points="419.21,-95.96 410.5,-101.99 421.07,-102.71 419.21,-95.96"/>
</g>
<!-- Node12 -->
<g id="node12" class="node">
<title>Node12</title>
<g id="a_node12"><a xlink:href="classpism_1_1stressbalance_1_1SSAFD__Regional.html" target="_top" xlink:title="A version of the SSA stress balance with tweaks for outlet glacier simulations.">
<polygon fill="none" stroke="black" points="672,-98.5 672,-128.5 786,-128.5 786,-98.5 672,-98.5"/>
<text text-anchor="start" x="680" y="-116.5" font-family="Helvetica,sans-Serif" font-size="10.00">pism::stressbalance</text>
<text text-anchor="middle" x="729" y="-105.5" font-family="Helvetica,sans-Serif" font-size="10.00">::SSAFD_Regional</text>
</a>
</g>
</g>
<!-- Node11&#45;&gt;Node12 -->
<g id="edge11" class="edge">
<title>Node11&#45;&gt;Node12</title>
<path fill="none" stroke="midnightblue" d="M615.02,-113.5C633.72,-113.5 653.87,-113.5 671.9,-113.5"/>
<polygon fill="midnightblue" stroke="midnightblue" points="614.8,-110 604.8,-113.5 614.8,-117 614.8,-110"/>
</g>
<!-- Node14 -->
<g id="node14" class="node">
<title>Node14</title>
<g id="a_node14"><a xlink:href="classpism_1_1inverse_1_1IP__SSAHardavForwardProblem.html" target="_top" xlink:title="Implements the forward problem of the map taking &#160;to the corresponding solution of the SSA.">
<polygon fill="none" stroke="black" points="650,-49.5 650,-79.5 808,-79.5 808,-49.5 650,-49.5"/>
<text text-anchor="start" x="658" y="-67.5" font-family="Helvetica,sans-Serif" font-size="10.00">pism::inverse::IP_SSAHardav</text>
<text text-anchor="middle" x="729" y="-56.5" font-family="Helvetica,sans-Serif" font-size="10.00">ForwardProblem</text>
</a>
</g>
</g>
<!-- Node13&#45;&gt;Node14 -->
<g id="edge13" class="edge">
<title>Node13&#45;&gt;Node14</title>
<path fill="none" stroke="midnightblue" d="M615.05,-64.5C626.39,-64.5 638.26,-64.5 649.87,-64.5"/>
<polygon fill="midnightblue" stroke="midnightblue" points="614.8,-61 604.8,-64.5 614.8,-68 614.8,-61"/>
</g>
<!-- Node15 -->
<g id="node15" class="node">
<title>Node15</title>
<g id="a_node15"><a xlink:href="classpism_1_1inverse_1_1IP__SSATaucForwardProblem.html" target="_top" xlink:title="Implements the forward problem of the map taking &#160;to the corresponding solution of the SSA.">
<polygon fill="none" stroke="black" points="657.5,-0.5 657.5,-30.5 800.5,-30.5 800.5,-0.5 657.5,-0.5"/>
<text text-anchor="start" x="665.5" y="-18.5" font-family="Helvetica,sans-Serif" font-size="10.00">pism::inverse::IP_SSATauc</text>
<text text-anchor="middle" x="729" y="-7.5" font-family="Helvetica,sans-Serif" font-size="10.00">ForwardProblem</text>
</a>
</g>
</g>
<!-- Node13&#45;&gt;Node15 -->
<g id="edge14" class="edge">
<title>Node13&#45;&gt;Node15</title>
<path fill="none" stroke="midnightblue" d="M613.52,-46.75C632.97,-41.44 654.11,-35.67 672.86,-30.55"/>
<polygon fill="midnightblue" stroke="midnightblue" points="612.55,-43.39 603.82,-49.4 614.39,-50.14 612.55,-43.39"/>
</g>
<!-- Node18 -->
<g id="node18" class="node">
<title>Node18</title>
<g id="a_node18"><a xlink:href="classpism_1_1stressbalance_1_1PrescribedSliding.html" target="_top" xlink:title=" ">
<polygon fill="none" stroke="black" points="490.5,-0.5 490.5,-30.5 604.5,-30.5 604.5,-0.5 490.5,-0.5"/>
<text text-anchor="start" x="498.5" y="-18.5" font-family="Helvetica,sans-Serif" font-size="10.00">pism::stressbalance</text>
<text text-anchor="middle" x="547.5" y="-7.5" font-family="Helvetica,sans-Serif" font-size="10.00">::PrescribedSliding</text>
</a>
</g>
</g>
<!-- Node17&#45;&gt;Node18 -->
<g id="edge17" class="edge">
<title>Node17&#45;&gt;Node18</title>
<path fill="none" stroke="midnightblue" d="M442.52,-16.72C458.3,-16.53 474.98,-16.34 490.26,-16.16"/>
<polygon fill="midnightblue" stroke="midnightblue" points="442.26,-13.22 432.3,-16.84 442.34,-20.22 442.26,-13.22"/>
</g>
</g>
</svg>
