<?xml version="1.0" encoding="UTF-8" standalone="no"?>
<!DOCTYPE svg PUBLIC "-//W3C//DTD SVG 1.1//EN"
 "http://www.w3.org/Graphics/SVG/1.1/DTD/svg11.dtd">
<!-- Generated by graphviz version 2.43.0 (0)
 -->
<!-- Title: pism::hydrology::Hydrology Pages: 1 -->
<svg width="695pt" height="116pt"
 viewBox="0.00 0.00 695.00 116.00" xmlns="http://www.w3.org/2000/svg" xmlns:xlink="http://www.w3.org/1999/xlink">
<g id="graph0" class="graph" transform="scale(1 1) rotate(0) translate(4 112)">
<title>pism::hydrology::Hydrology</title>
<!-- Node1 -->
<g id="node1" class="node">
<title>Node1</title>
<g id="a_node1"><a xlink:title="The PISM subglacial hydrology model interface.">
<polygon fill="#bfbfbf" stroke="black" points="139,-22.5 139,-41.5 290,-41.5 290,-22.5 139,-22.5"/>
<text text-anchor="middle" x="214.5" y="-29.5" font-family="Helvetica,sans-Serif" font-size="10.00">pism::hydrology::Hydrology</text>
</a>
</g>
</g>
<!-- Node3 -->
<g id="node3" class="node">
<title>Node3</title>
<g id="a_node3"><a xlink:href="classpism_1_1hydrology_1_1NullTransport.html" target="_top" xlink:title=" ">
<polygon fill="none" stroke="black" points="326,-44.5 326,-63.5 491,-63.5 491,-44.5 326,-44.5"/>
<text text-anchor="middle" x="408.5" y="-51.5" font-family="Helvetica,sans-Serif" font-size="10.00">pism::hydrology::NullTransport</text>
</a>
</g>
</g>
<!-- Node1&#45;&gt;Node3 -->
<g id="edge2" class="edge">
<title>Node1&#45;&gt;Node3</title>
<path fill="none" stroke="midnightblue" d="M299.97,-41.68C308.52,-42.66 317.19,-43.65 325.71,-44.63"/>
<polygon fill="midnightblue" stroke="midnightblue" points="300.34,-38.2 290.01,-40.54 299.54,-45.15 300.34,-38.2"/>
</g>
<!-- Node6 -->
<g id="node6" class="node">
<title>Node6</title>
<g id="a_node6"><a xlink:href="classpism_1_1hydrology_1_1Routing.html" target="_top" xlink:title="A subglacial hydrology model which assumes water pressure equals overburden pressure.">
<polygon fill="none" stroke="black" points="339.5,-3.5 339.5,-22.5 477.5,-22.5 477.5,-3.5 339.5,-3.5"/>
<text text-anchor="middle" x="408.5" y="-10.5" font-family="Helvetica,sans-Serif" font-size="10.00">pism::hydrology::Routing</text>
</a>
</g>
</g>
<!-- Node1&#45;&gt;Node6 -->
<g id="edge5" class="edge">
<title>Node1&#45;&gt;Node6</title>
<path fill="none" stroke="midnightblue" d="M299.99,-23.64C313.14,-22.34 326.58,-21.01 339.31,-19.75"/>
<polygon fill="midnightblue" stroke="midnightblue" points="299.61,-20.16 290.01,-24.63 300.3,-27.13 299.61,-20.16"/>
</g>
<!-- Node2 -->
<g id="node2" class="node">
<title>Node2</title>
<g id="a_node2"><a xlink:href="classpism_1_1Component.html" target="_top" xlink:title="A class defining a common interface for most PISM sub&#45;models.">
<polygon fill="none" stroke="black" points="0,-22.5 0,-41.5 103,-41.5 103,-22.5 0,-22.5"/>
<text text-anchor="middle" x="51.5" y="-29.5" font-family="Helvetica,sans-Serif" font-size="10.00">pism::Component</text>
</a>
</g>
</g>
<!-- Node2&#45;&gt;Node1 -->
<g id="edge1" class="edge">
<title>Node2&#45;&gt;Node1</title>
<path fill="none" stroke="midnightblue" d="M113.66,-32C121.87,-32 130.36,-32 138.77,-32"/>
<polygon fill="midnightblue" stroke="midnightblue" points="113.44,-28.5 103.44,-32 113.44,-35.5 113.44,-28.5"/>
</g>
<!-- Node4 -->
<g id="node4" class="node">
<title>Node4</title>
<g id="a_node4"><a xlink:href="classpism_1_1hydrology_1_1SteadyState.html" target="_top" xlink:title=" ">
<polygon fill="none" stroke="black" points="527,-88.5 527,-107.5 687,-107.5 687,-88.5 527,-88.5"/>
<text text-anchor="middle" x="607" y="-95.5" font-family="Helvetica,sans-Serif" font-size="10.00">pism::hydrology::SteadyState</text>
</a>
</g>
</g>
<!-- Node3&#45;&gt;Node4 -->
<g id="edge3" class="edge">
<title>Node3&#45;&gt;Node4</title>
<path fill="none" stroke="midnightblue" d="M462.13,-65.78C493.85,-72.89 533.72,-81.82 563.45,-88.47"/>
<polygon fill="midnightblue" stroke="midnightblue" points="462.66,-62.32 452.14,-63.55 461.13,-69.15 462.66,-62.32"/>
</g>
<!-- Node5 -->
<g id="node5" class="node">
<title>Node5</title>
<g id="a_node5"><a xlink:href="classpism_1_1icebin_1_1NullTransportHydrology.html" target="_top" xlink:title=" ">
<polygon fill="none" stroke="black" points="534,-39 534,-69 680,-69 680,-39 534,-39"/>
<text text-anchor="start" x="542" y="-57" font-family="Helvetica,sans-Serif" font-size="10.00">pism::icebin::NullTransport</text>
<text text-anchor="middle" x="607" y="-46" font-family="Helvetica,sans-Serif" font-size="10.00">Hydrology</text>
</a>
</g>
</g>
<!-- Node3&#45;&gt;Node5 -->
<g id="edge4" class="edge">
<title>Node3&#45;&gt;Node5</title>
<path fill="none" stroke="midnightblue" d="M501.46,-54C512.29,-54 523.22,-54 533.72,-54"/>
<polygon fill="midnightblue" stroke="midnightblue" points="501.13,-50.5 491.13,-54 501.13,-57.5 501.13,-50.5"/>
</g>
<!-- Node7 -->
<g id="node7" class="node">
<title>Node7</title>
<g id="a_node7"><a xlink:href="classpism_1_1hydrology_1_1Distributed.html" target="_top" xlink:title="The PISM subglacial hydrology model for a distributed linked&#45;cavity system.">
<polygon fill="none" stroke="black" points="529.5,-0.5 529.5,-19.5 684.5,-19.5 684.5,-0.5 529.5,-0.5"/>
<text text-anchor="middle" x="607" y="-7.5" font-family="Helvetica,sans-Serif" font-size="10.00">pism::hydrology::Distributed</text>
</a>
</g>
</g>
<!-- Node6&#45;&gt;Node7 -->
<g id="edge6" class="edge">
<title>Node6&#45;&gt;Node7</title>
<path fill="none" stroke="midnightblue" d="M487.95,-11.8C501.54,-11.59 515.65,-11.38 529.2,-11.17"/>
<polygon fill="midnightblue" stroke="midnightblue" points="487.62,-8.31 477.67,-11.96 487.73,-15.31 487.62,-8.31"/>
</g>
</g>
</svg>
