<?xml version="1.0" encoding="UTF-8" standalone="no"?>
<!DOCTYPE svg PUBLIC "-//W3C//DTD SVG 1.1//EN"
 "http://www.w3.org/Graphics/SVG/1.1/DTD/svg11.dtd">
<!-- Generated by graphviz version 2.43.0 (0)
 -->
<!-- Title: pism::inverse::IP_L2NormFunctional2S Pages: 1 -->
<svg width="812pt" height="86pt"
 viewBox="0.00 0.00 812.00 86.00" xmlns="http://www.w3.org/2000/svg" xmlns:xlink="http://www.w3.org/1999/xlink">
<g id="graph0" class="graph" transform="scale(1 1) rotate(0) translate(4 82)">
<title>pism::inverse::IP_L2NormFunctional2S</title>
<!-- Node1 -->
<g id="Node000001" class="node">
<title>Node1</title>
<g id="a_Node000001"><a xlink:title="Implements a functional corresponding to (the square of) an &#160;norm of a scalar valued function.">
<polygon fill="#999999" stroke="#666666" points="804,-54 663,-54 663,-24 804,-24 804,-54"/>
<text text-anchor="start" x="671" y="-42" font-family="Helvetica,sans-Serif" font-size="10.00">pism::inverse::IP_L2Norm</text>
<text text-anchor="middle" x="733.5" y="-31" font-family="Helvetica,sans-Serif" font-size="10.00">Functional2S</text>
</a>
</g>
</g>
<!-- Node2 -->
<g id="Node000002" class="node">
<title>Node2</title>
<g id="a_Node000002"><a xlink:href="classpism_1_1inverse_1_1IPInnerProductFunctional.html" target="_top" xlink:title=" ">
<polygon fill="white" stroke="#666666" points="626,-54 467,-54 467,-24 626,-24 626,-54"/>
<text text-anchor="start" x="475" y="-42" font-family="Helvetica,sans-Serif" font-size="10.00">pism::inverse::IPInnerProduct</text>
<text text-anchor="middle" x="546.5" y="-31" font-family="Helvetica,sans-Serif" font-size="10.00">Functional&lt; array::Scalar &gt;</text>
</a>
</g>
</g>
<!-- Node2&#45;&gt;Node1 -->
<g id="edge1_Node000001_Node000002" class="edge">
<title>Node2&#45;&gt;Node1</title>
<g id="a_edge1_Node000001_Node000002"><a xlink:title=" ">
<path fill="none" stroke="#63b8ff" d="M636.28,-39C645.23,-39 654.22,-39 662.92,-39"/>
<polygon fill="#63b8ff" stroke="#63b8ff" points="636.22,-35.5 626.22,-39 636.22,-42.5 636.22,-35.5"/>
</a>
</g>
</g>
<!-- Node3 -->
<g id="Node000003" class="node">
<title>Node3</title>
<g id="a_Node000003"><a xlink:href="classpism_1_1inverse_1_1IPFunctional.html" target="_top" xlink:title="Abstract base class for functions from ice model vectors to .">
<polygon fill="white" stroke="#666666" points="338.5,-78 190.5,-78 190.5,-48 338.5,-48 338.5,-78"/>
<text text-anchor="start" x="198.5" y="-66" font-family="Helvetica,sans-Serif" font-size="10.00">pism::inverse::IPFunctional</text>
<text text-anchor="middle" x="264.5" y="-55" font-family="Helvetica,sans-Serif" font-size="10.00">&lt; IMVecType &gt;</text>
</a>
</g>
</g>
<!-- Node3&#45;&gt;Node2 -->
<g id="edge2_Node000002_Node000003" class="edge">
<title>Node3&#45;&gt;Node2</title>
<g id="a_edge2_Node000002_Node000003"><a xlink:title=" ">
<path fill="none" stroke="#63b8ff" d="M349.04,-55.84C386.36,-52.64 430.11,-48.89 466.84,-45.74"/>
<polygon fill="#63b8ff" stroke="#63b8ff" points="348.37,-52.38 338.7,-56.73 348.96,-59.36 348.37,-52.38"/>
</a>
</g>
</g>
<!-- Node4 -->
<g id="Node000004" class="node">
<title>Node4</title>
<g id="a_Node000004"><a xlink:href="classpism_1_1inverse_1_1IPInnerProductFunctional.html" target="_top" xlink:title="Abstract base class for IPFunctionals arising from an inner product.">
<polygon fill="white" stroke="#666666" points="344,-30 185,-30 185,0 344,0 344,-30"/>
<text text-anchor="start" x="193" y="-18" font-family="Helvetica,sans-Serif" font-size="10.00">pism::inverse::IPInnerProduct</text>
<text text-anchor="middle" x="264.5" y="-7" font-family="Helvetica,sans-Serif" font-size="10.00">Functional&lt; IMVecType &gt;</text>
</a>
</g>
</g>
<!-- Node4&#45;&gt;Node2 -->
<g id="edge3_Node000002_Node000004" class="edge">
<title>Node4&#45;&gt;Node2</title>
<g id="a_edge3_Node000002_Node000004"><a xlink:title=" ">
<path fill="none" stroke="orange" stroke-dasharray="5,2" d="M354.28,-22.61C390.42,-25.71 431.84,-29.26 466.87,-32.26"/>
<polygon fill="orange" stroke="orange" points="354.5,-19.12 344.24,-21.75 353.91,-26.09 354.5,-19.12"/>
</a>
</g>
<text text-anchor="middle" x="405.5" y="-33" font-family="Helvetica,sans-Serif" font-size="10.00" fill="grey"> &lt; array::Scalar &gt;</text>
</g>
<!-- Node5 -->
<g id="Node000005" class="node">
<title>Node5</title>
<g id="a_Node000005"><a xlink:href="classpism_1_1inverse_1_1IPFunctional.html" target="_top" xlink:title="Abstract base class for functions from ice model vectors to .">
<polygon fill="white" stroke="#666666" points="148,-30 0,-30 0,0 148,0 148,-30"/>
<text text-anchor="start" x="8" y="-18" font-family="Helvetica,sans-Serif" font-size="10.00">pism::inverse::IPFunctional</text>
<text text-anchor="middle" x="74" y="-7" font-family="Helvetica,sans-Serif" font-size="10.00">&lt; IMVecType &gt;</text>
</a>
</g>
</g>
<!-- Node5&#45;&gt;Node4 -->
<g id="edge4_Node000004_Node000005" class="edge">
<title>Node5&#45;&gt;Node4</title>
<g id="a_edge4_Node000004_Node000005"><a xlink:title=" ">
<path fill="none" stroke="#63b8ff" d="M158.37,-15C167.15,-15 176.05,-15 184.77,-15"/>
<polygon fill="#63b8ff" stroke="#63b8ff" points="158.15,-11.5 148.15,-15 158.15,-18.5 158.15,-11.5"/>
</a>
</g>
</g>
</g>
</svg>
