<?xml version="1.0" encoding="UTF-8" standalone="no"?>
<!DOCTYPE svg PUBLIC "-//W3C//DTD SVG 1.1//EN"
 "http://www.w3.org/Graphics/SVG/1.1/DTD/svg11.dtd">
<!-- Generated by graphviz version 2.43.0 (0)
 -->
<!-- Title: pism::PetscAccessible Pages: 1 -->
<svg width="996pt" height="356pt"
 viewBox="0.00 0.00 996.00 356.00" xmlns="http://www.w3.org/2000/svg" xmlns:xlink="http://www.w3.org/1999/xlink">
<g id="graph0" class="graph" transform="scale(1 1) rotate(0) translate(4 352)">
<title>pism::PetscAccessible</title>
<!-- Node1 -->
<g id="node1" class="node">
<title>Node1</title>
<g id="a_node1"><a xlink:title=" ">
<polygon fill="#bfbfbf" stroke="black" points="0,-136.5 0,-155.5 125,-155.5 125,-136.5 0,-136.5"/>
<text text-anchor="middle" x="62.5" y="-143.5" font-family="Helvetica,sans-Serif" font-size="10.00">pism::PetscAccessible</text>
</a>
</g>
</g>
<!-- Node2 -->
<g id="node2" class="node">
<title>Node2</title>
<g id="a_node2"><a xlink:href="classpism_1_1IceModelVec.html" target="_top" xlink:title="Abstract class for reading, writing, allocating, and accessing a DA&#45;based PETSc Vec (2D and 3D fields...">
<polygon fill="none" stroke="black" points="187,-162.5 187,-181.5 295,-181.5 295,-162.5 187,-162.5"/>
<text text-anchor="middle" x="241" y="-169.5" font-family="Helvetica,sans-Serif" font-size="10.00">pism::IceModelVec</text>
</a>
</g>
</g>
<!-- Node1&#45;&gt;Node2 -->
<g id="edge1" class="edge">
<title>Node1&#45;&gt;Node2</title>
<path fill="none" stroke="midnightblue" d="M135.26,-156.57C152.49,-159.11 170.59,-161.78 186.81,-164.16"/>
<polygon fill="midnightblue" stroke="midnightblue" points="135.63,-153.09 125.23,-155.09 134.61,-160.01 135.63,-153.09"/>
</g>
<!-- Node15 -->
<g id="node15" class="node">
<title>Node15</title>
<g id="a_node15"><a xlink:href="structpism_1_1icebin_1_1MassEnthVec2S.html" target="_top" xlink:title=" ">
<polygon fill="none" stroke="black" points="162,-124.5 162,-143.5 320,-143.5 320,-124.5 162,-124.5"/>
<text text-anchor="middle" x="241" y="-131.5" font-family="Helvetica,sans-Serif" font-size="10.00">pism::icebin::MassEnthVec2S</text>
</a>
</g>
</g>
<!-- Node1&#45;&gt;Node15 -->
<g id="edge18" class="edge">
<title>Node1&#45;&gt;Node15</title>
<path fill="none" stroke="midnightblue" d="M135.36,-141.11C144.09,-140.52 153.04,-139.91 161.86,-139.31"/>
<polygon fill="midnightblue" stroke="midnightblue" points="134.97,-137.63 125.23,-141.8 135.45,-144.62 134.97,-137.63"/>
</g>
<!-- Node3 -->
<g id="node3" class="node">
<title>Node3</title>
<g id="a_node3"><a xlink:href="classpism_1_1IceModelVec2.html" target="_top" xlink:title=" ">
<polygon fill="none" stroke="black" points="658,-306.5 658,-347.5 796,-347.5 796,-306.5 658,-306.5"/>
<text text-anchor="start" x="666" y="-335.5" font-family="Helvetica,sans-Serif" font-size="10.00">pism::IceModelVec2</text>
<text text-anchor="start" x="666" y="-324.5" font-family="Helvetica,sans-Serif" font-size="10.00">&lt; pism::stressbalance</text>
<text text-anchor="middle" x="727" y="-313.5" font-family="Helvetica,sans-Serif" font-size="10.00">::SSAFEM::Coefficients &gt;</text>
</a>
</g>
</g>
<!-- Node2&#45;&gt;Node3 -->
<g id="edge2" class="edge">
<title>Node2&#45;&gt;Node3</title>
<path fill="none" stroke="midnightblue" d="M260.79,-188.53C303.03,-224.34 410.29,-307.72 518,-331 563.89,-340.92 616.81,-339.73 657.79,-336.16"/>
<polygon fill="midnightblue" stroke="midnightblue" points="262.87,-185.71 253,-181.84 258.3,-191.02 262.87,-185.71"/>
</g>
<!-- Node4 -->
<g id="node4" class="node">
<title>Node4</title>
<g id="a_node4"><a xlink:href="classpism_1_1IceModelVec2.html" target="_top" xlink:title=" ">
<polygon fill="none" stroke="black" points="670,-248 670,-278 784,-278 784,-248 670,-248"/>
<text text-anchor="start" x="678" y="-266" font-family="Helvetica,sans-Serif" font-size="10.00">pism::IceModelVec2</text>
<text text-anchor="middle" x="727" y="-255" font-family="Helvetica,sans-Serif" font-size="10.00">&lt; Vector2 &gt;</text>
</a>
</g>
</g>
<!-- Node2&#45;&gt;Node4 -->
<g id="edge3" class="edge">
<title>Node2&#45;&gt;Node4</title>
<path fill="none" stroke="midnightblue" d="M267.16,-186.84C289.92,-199.69 324.73,-217.91 357,-229 426.07,-252.75 445.35,-254.45 518,-262 569.18,-267.32 627.83,-267.02 669.78,-265.72"/>
<polygon fill="midnightblue" stroke="midnightblue" points="268.59,-183.63 258.18,-181.7 265.12,-189.71 268.59,-183.63"/>
</g>
<!-- Node6 -->
<g id="node6" class="node">
<title>Node6</title>
<g id="a_node6"><a xlink:href="classpism_1_1IceModelVec2.html" target="_top" xlink:title=" ">
<polygon fill="none" stroke="black" points="664.5,-179.5 664.5,-220.5 789.5,-220.5 789.5,-179.5 664.5,-179.5"/>
<text text-anchor="start" x="672.5" y="-208.5" font-family="Helvetica,sans-Serif" font-size="10.00">pism::IceModelVec2</text>
<text text-anchor="start" x="672.5" y="-197.5" font-family="Helvetica,sans-Serif" font-size="10.00">&lt; pism::stressbalance</text>
<text text-anchor="middle" x="727" y="-186.5" font-family="Helvetica,sans-Serif" font-size="10.00">::SSAFD::Work &gt;</text>
</a>
</g>
</g>
<!-- Node2&#45;&gt;Node6 -->
<g id="edge5" class="edge">
<title>Node2&#45;&gt;Node6</title>
<path fill="none" stroke="midnightblue" d="M305.33,-175.66C398.66,-181.06 572.04,-191.09 664.38,-196.44"/>
<polygon fill="midnightblue" stroke="midnightblue" points="305.37,-172.16 295.18,-175.08 304.96,-179.15 305.37,-172.16"/>
</g>
<!-- Node7 -->
<g id="node7" class="node">
<title>Node7</title>
<g id="a_node7"><a xlink:href="classpism_1_1IceModelVec2.html" target="_top" xlink:title=" ">
<polygon fill="none" stroke="black" points="663,-114.5 663,-155.5 791,-155.5 791,-114.5 663,-114.5"/>
<text text-anchor="start" x="671" y="-143.5" font-family="Helvetica,sans-Serif" font-size="10.00">pism::IceModelVec2</text>
<text text-anchor="start" x="671" y="-132.5" font-family="Helvetica,sans-Serif" font-size="10.00">&lt; pism::stressbalance</text>
<text text-anchor="middle" x="727" y="-121.5" font-family="Helvetica,sans-Serif" font-size="10.00">::Blatter::Parameters &gt;</text>
</a>
</g>
</g>
<!-- Node2&#45;&gt;Node7 -->
<g id="edge6" class="edge">
<title>Node2&#45;&gt;Node7</title>
<path fill="none" stroke="midnightblue" d="M305.23,-165.68C361.14,-160.23 444.94,-152.42 518,-147 566.52,-143.4 621.47,-140.27 662.7,-138.11"/>
<polygon fill="midnightblue" stroke="midnightblue" points="304.74,-162.21 295.13,-166.67 305.42,-169.18 304.74,-162.21"/>
</g>
<!-- Node8 -->
<g id="node8" class="node">
<title>Node8</title>
<g id="a_node8"><a xlink:href="classpism_1_1IceModelVec2.html" target="_top" xlink:title="A storage vector combining related fields in a struct.">
<polygon fill="none" stroke="black" points="357,-200.5 357,-219.5 500,-219.5 500,-200.5 357,-200.5"/>
<text text-anchor="middle" x="428.5" y="-207.5" font-family="Helvetica,sans-Serif" font-size="10.00">pism::IceModelVec2&lt; T &gt;</text>
</a>
</g>
</g>
<!-- Node2&#45;&gt;Node8 -->
<g id="edge7" class="edge">
<title>Node2&#45;&gt;Node8</title>
<path fill="none" stroke="midnightblue" d="M298.67,-183.61C325.06,-189.01 356.05,-195.36 381.03,-200.48"/>
<polygon fill="midnightblue" stroke="midnightblue" points="299.31,-180.17 288.81,-181.59 297.9,-187.02 299.31,-180.17"/>
</g>
<!-- Node9 -->
<g id="node9" class="node">
<title>Node9</title>
<g id="a_node9"><a xlink:href="classpism_1_1IceModelVec2S.html" target="_top" xlink:title=" ">
<polygon fill="none" stroke="black" points="368.5,-54.5 368.5,-73.5 488.5,-73.5 488.5,-54.5 368.5,-54.5"/>
<text text-anchor="middle" x="428.5" y="-61.5" font-family="Helvetica,sans-Serif" font-size="10.00">pism::IceModelVec2S</text>
</a>
</g>
</g>
<!-- Node2&#45;&gt;Node9 -->
<g id="edge12" class="edge">
<title>Node2&#45;&gt;Node9</title>
<path fill="none" stroke="midnightblue" d="M304.33,-163.5C310.1,-160.83 315.47,-157.39 320,-153 341.52,-132.14 316.72,-109.11 338,-88 346.34,-79.73 357.2,-74.22 368.46,-70.58"/>
<polygon fill="midnightblue" stroke="midnightblue" points="303.06,-160.24 295,-167.11 305.59,-166.77 303.06,-160.24"/>
</g>
<!-- Node13 -->
<g id="node13" class="node">
<title>Node13</title>
<g id="a_node13"><a xlink:href="classpism_1_1IceModelVec3.html" target="_top" xlink:title="A virtual class collecting methods common to ice and bedrock 3D fields.">
<polygon fill="none" stroke="black" points="371.5,-8.5 371.5,-27.5 485.5,-27.5 485.5,-8.5 371.5,-8.5"/>
<text text-anchor="middle" x="428.5" y="-15.5" font-family="Helvetica,sans-Serif" font-size="10.00">pism::IceModelVec3</text>
</a>
</g>
</g>
<!-- Node2&#45;&gt;Node13 -->
<g id="edge16" class="edge">
<title>Node2&#45;&gt;Node13</title>
<path fill="none" stroke="midnightblue" d="M304.81,-163.38C310.41,-160.72 315.61,-157.32 320,-153 342.59,-130.77 327.01,-113.72 338,-84 344.69,-65.92 342.78,-58.02 357,-45 365.5,-37.21 376.49,-31.58 387.25,-27.56"/>
<polygon fill="midnightblue" stroke="midnightblue" points="303.11,-160.28 295.08,-167.19 305.67,-166.8 303.11,-160.28"/>
</g>
<!-- Node5 -->
<g id="node5" class="node">
<title>Node5</title>
<g id="a_node5"><a xlink:href="classpism_1_1IceModelVec2V.html" target="_top" xlink:title=" ">
<polygon fill="none" stroke="black" points="850,-253.5 850,-272.5 971,-272.5 971,-253.5 850,-253.5"/>
<text text-anchor="middle" x="910.5" y="-260.5" font-family="Helvetica,sans-Serif" font-size="10.00">pism::IceModelVec2V</text>
</a>
</g>
</g>
<!-- Node4&#45;&gt;Node5 -->
<g id="edge4" class="edge">
<title>Node4&#45;&gt;Node5</title>
<path fill="none" stroke="midnightblue" d="M794.63,-263C812.75,-263 832.26,-263 849.96,-263"/>
<polygon fill="midnightblue" stroke="midnightblue" points="794.43,-259.5 784.43,-263 794.43,-266.5 794.43,-259.5"/>
</g>
<!-- Node8&#45;&gt;Node3 -->
<g id="edge8" class="edge">
<title>Node8&#45;&gt;Node3</title>
<path fill="none" stroke="orange" stroke-dasharray="5,2" d="M451.39,-225.15C468.82,-236.7 494.18,-252.39 518,-263 563.21,-283.14 616.62,-299.43 657.99,-310.53"/>
<polygon fill="orange" stroke="orange" points="453.29,-222.21 443.04,-219.53 449.38,-228.01 453.29,-222.21"/>
<text text-anchor="start" x="518" y="-319" font-family="Helvetica,sans-Serif" font-size="10.00"> &lt; pism::stressbalance</text>
<text text-anchor="middle" x="579" y="-308" font-family="Helvetica,sans-Serif" font-size="10.00">::SSAFEM::Coefficients &gt;</text>
</g>
<!-- Node8&#45;&gt;Node4 -->
<g id="edge9" class="edge">
<title>Node8&#45;&gt;Node4</title>
<path fill="none" stroke="orange" stroke-dasharray="5,2" d="M484.83,-221.55C495.81,-223.76 507.26,-226 518,-228 569.3,-237.53 627.94,-247.3 669.85,-254.08"/>
<polygon fill="orange" stroke="orange" points="485.42,-218.1 474.92,-219.55 484.03,-224.96 485.42,-218.1"/>
<text text-anchor="middle" x="579" y="-251" font-family="Helvetica,sans-Serif" font-size="10.00"> &lt; Vector2 &gt;</text>
</g>
<!-- Node8&#45;&gt;Node6 -->
<g id="edge10" class="edge">
<title>Node8&#45;&gt;Node6</title>
<path fill="none" stroke="orange" stroke-dasharray="5,2" d="M510.23,-206.3C512.85,-206.19 515.44,-206.09 518,-206 567.1,-204.18 622.73,-202.6 664.1,-201.52"/>
<polygon fill="orange" stroke="orange" points="509.87,-202.81 500.02,-206.71 510.16,-209.8 509.87,-202.81"/>
<text text-anchor="start" x="523" y="-220" font-family="Helvetica,sans-Serif" font-size="10.00"> &lt; pism::stressbalance</text>
<text text-anchor="middle" x="579" y="-209" font-family="Helvetica,sans-Serif" font-size="10.00">::SSAFD::Work &gt;</text>
</g>
<!-- Node8&#45;&gt;Node7 -->
<g id="edge11" class="edge">
<title>Node8&#45;&gt;Node7</title>
<path fill="none" stroke="orange" stroke-dasharray="5,2" d="M461.84,-196.54C478.42,-190 499.07,-182.41 518,-177 565.82,-163.35 621.05,-152.41 662.57,-145.13"/>
<polygon fill="orange" stroke="orange" points="460.07,-193.48 452.09,-200.45 462.68,-199.98 460.07,-193.48"/>
<text text-anchor="start" x="523" y="-191" font-family="Helvetica,sans-Serif" font-size="10.00"> &lt; pism::stressbalance</text>
<text text-anchor="middle" x="579" y="-180" font-family="Helvetica,sans-Serif" font-size="10.00">::Blatter::Parameters &gt;</text>
</g>
<!-- Node10 -->
<g id="node10" class="node">
<title>Node10</title>
<g id="a_node10"><a xlink:href="classpism_1_1IceModelVec2Int.html" target="_top" xlink:title="A simple class &quot;hiding&quot; the fact that the mask is stored as floating&#45;point scalars (instead of intege...">
<polygon fill="none" stroke="black" points="663.5,-76.5 663.5,-95.5 790.5,-95.5 790.5,-76.5 663.5,-76.5"/>
<text text-anchor="middle" x="727" y="-83.5" font-family="Helvetica,sans-Serif" font-size="10.00">pism::IceModelVec2Int</text>
</a>
</g>
</g>
<!-- Node9&#45;&gt;Node10 -->
<g id="edge13" class="edge">
<title>Node9&#45;&gt;Node10</title>
<path fill="none" stroke="midnightblue" d="M498.84,-69.14C548.67,-72.84 615.29,-77.79 663.49,-81.36"/>
<polygon fill="midnightblue" stroke="midnightblue" points="499.02,-65.65 488.79,-68.4 498.5,-72.63 499.02,-65.65"/>
</g>
<!-- Node12 -->
<g id="node12" class="node">
<title>Node12</title>
<g id="a_node12"><a xlink:href="classpism_1_1IceModelVec2T.html" target="_top" xlink:title="A class for storing and accessing 2D time&#45;series (for climate forcing)">
<polygon fill="none" stroke="black" points="667,-38.5 667,-57.5 787,-57.5 787,-38.5 667,-38.5"/>
<text text-anchor="middle" x="727" y="-45.5" font-family="Helvetica,sans-Serif" font-size="10.00">pism::IceModelVec2T</text>
</a>
</g>
</g>
<!-- Node9&#45;&gt;Node12 -->
<g id="edge15" class="edge">
<title>Node9&#45;&gt;Node12</title>
<path fill="none" stroke="midnightblue" d="M499.06,-60.25C550.03,-57.5 618.46,-53.8 666.81,-51.19"/>
<polygon fill="midnightblue" stroke="midnightblue" points="498.59,-56.77 488.79,-60.8 498.96,-63.76 498.59,-56.77"/>
</g>
<!-- Node11 -->
<g id="node11" class="node">
<title>Node11</title>
<g id="a_node11"><a xlink:href="classpism_1_1IceModelVec2CellType.html" target="_top" xlink:title="&quot;Cell type&quot; mask. Adds convenience methods to IceModelVec2Int.">
<polygon fill="none" stroke="black" points="833,-76.5 833,-95.5 988,-95.5 988,-76.5 833,-76.5"/>
<text text-anchor="middle" x="910.5" y="-83.5" font-family="Helvetica,sans-Serif" font-size="10.00">pism::IceModelVec2CellType</text>
</a>
</g>
</g>
<!-- Node10&#45;&gt;Node11 -->
<g id="edge14" class="edge">
<title>Node10&#45;&gt;Node11</title>
<path fill="none" stroke="midnightblue" d="M800.76,-86C811.37,-86 822.32,-86 833,-86"/>
<polygon fill="midnightblue" stroke="midnightblue" points="800.72,-82.5 790.72,-86 800.72,-89.5 800.72,-82.5"/>
</g>
<!-- Node14 -->
<g id="node14" class="node">
<title>Node14</title>
<g id="a_node14"><a xlink:href="classpism_1_1IceModelVec2Stag.html" target="_top" xlink:title="A class for storing and accessing internal staggered&#45;grid 2D fields. Uses dof=2 storage....">
<polygon fill="none" stroke="black" points="659,-0.5 659,-19.5 795,-19.5 795,-0.5 659,-0.5"/>
<text text-anchor="middle" x="727" y="-7.5" font-family="Helvetica,sans-Serif" font-size="10.00">pism::IceModelVec2Stag</text>
</a>
</g>
</g>
<!-- Node13&#45;&gt;Node14 -->
<g id="edge17" class="edge">
<title>Node13&#45;&gt;Node14</title>
<path fill="none" stroke="midnightblue" d="M495.72,-16.21C544.34,-14.9 610.14,-13.13 658.95,-11.81"/>
<polygon fill="midnightblue" stroke="midnightblue" points="495.52,-12.72 485.62,-16.49 495.71,-19.71 495.52,-12.72"/>
</g>
</g>
</svg>
