<?xml version="1.0" encoding="UTF-8" standalone="no"?>
<!DOCTYPE svg PUBLIC "-//W3C//DTD SVG 1.1//EN"
 "http://www.w3.org/Graphics/SVG/1.1/DTD/svg11.dtd">
<!-- Generated by graphviz version 2.43.0 (0)
 -->
<!-- Title: pism::ocean::sea_level::Factory Pages: 1 -->
<svg width="179pt" height="185pt"
 viewBox="0.00 0.00 178.50 185.00" xmlns="http://www.w3.org/2000/svg" xmlns:xlink="http://www.w3.org/1999/xlink">
<g id="graph0" class="graph" transform="scale(1 1) rotate(0) translate(4 181)">
<title>pism::ocean::sea_level::Factory</title>
<!-- Node1 -->
<g id="node1" class="node">
<title>Node1</title>
<g id="a_node1"><a xlink:title=" ">
<polygon fill="#bfbfbf" stroke="black" points="9.5,-0.5 9.5,-30.5 137.5,-30.5 137.5,-0.5 9.5,-0.5"/>
<text text-anchor="start" x="17.5" y="-18.5" font-family="Helvetica,sans-Serif" font-size="10.00">pism::ocean::sea_level</text>
<text text-anchor="middle" x="73.5" y="-7.5" font-family="Helvetica,sans-Serif" font-size="10.00">::Factory</text>
</a>
</g>
</g>
<!-- Node2 -->
<g id="node2" class="node">
<title>Node2</title>
<g id="a_node2"><a xlink:href="classpism_1_1PCFactory.html" target="_top" xlink:title=" ">
<polygon fill="none" stroke="black" points="6,-68.5 6,-98.5 141,-98.5 141,-68.5 6,-68.5"/>
<text text-anchor="start" x="14" y="-86.5" font-family="Helvetica,sans-Serif" font-size="10.00">pism::PCFactory&lt; ocean</text>
<text text-anchor="middle" x="73.5" y="-75.5" font-family="Helvetica,sans-Serif" font-size="10.00">::sea_level::SeaLevel &gt;</text>
</a>
</g>
</g>
<!-- Node2&#45;&gt;Node1 -->
<g id="edge1" class="edge">
<title>Node2&#45;&gt;Node1</title>
<path fill="none" stroke="midnightblue" d="M73.5,-58.03C73.5,-48.86 73.5,-38.74 73.5,-30.79"/>
<polygon fill="midnightblue" stroke="midnightblue" points="70,-58.18 73.5,-68.18 77,-58.18 70,-58.18"/>
</g>
<!-- Node3 -->
<g id="node3" class="node">
<title>Node3</title>
<g id="a_node3"><a xlink:href="classpism_1_1PCFactory.html" target="_top" xlink:title=" ">
<polygon fill="none" stroke="black" points="0,-157.5 0,-176.5 147,-176.5 147,-157.5 0,-157.5"/>
<text text-anchor="middle" x="73.5" y="-164.5" font-family="Helvetica,sans-Serif" font-size="10.00">pism::PCFactory&lt; Model &gt;</text>
</a>
</g>
</g>
<!-- Node3&#45;&gt;Node2 -->
<g id="edge2" class="edge">
<title>Node3&#45;&gt;Node2</title>
<path fill="none" stroke="orange" stroke-dasharray="5,2" d="M73.5,-147.23C73.5,-132.41 73.5,-112.05 73.5,-98.6"/>
<polygon fill="orange" stroke="orange" points="70,-147.28 73.5,-157.28 77,-147.28 70,-147.28"/>
<text text-anchor="start" x="73.5" y="-131" font-family="Helvetica,sans-Serif" font-size="10.00"> &lt; ocean::sea_level</text>
<text text-anchor="middle" x="122" y="-120" font-family="Helvetica,sans-Serif" font-size="10.00">::SeaLevel &gt;</text>
</g>
</g>
</svg>
