<?xml version="1.0" encoding="UTF-8" standalone="no"?>
<!DOCTYPE svg PUBLIC "-//W3C//DTD SVG 1.1//EN"
 "http://www.w3.org/Graphics/SVG/1.1/DTD/svg11.dtd">
<!-- Generated by graphviz version 2.43.0 (0)
 -->
<!-- Title: pism::array::Vector Pages: 1 -->
<svg width="233pt" height="384pt"
 viewBox="0.00 0.00 232.50 384.00" xmlns="http://www.w3.org/2000/svg" xmlns:xlink="http://www.w3.org/1999/xlink">
<g id="graph0" class="graph" transform="scale(1 1) rotate(0) translate(4 380)">
<title>pism::array::Vector</title>
<!-- Node1 -->
<g id="Node000001" class="node">
<title>Node1</title>
<g id="a_Node000001"><a xlink:title=" ">
<polygon fill="#999999" stroke="#666666" points="120.5,-131 12.5,-131 12.5,-112 120.5,-112 120.5,-131"/>
<text text-anchor="middle" x="66.5" y="-119" font-family="Helvetica,sans-Serif" font-size="10.00">pism::array::Vector</text>
</a>
</g>
</g>
<!-- Node6 -->
<g id="Node000006" class="node">
<title>Node6</title>
<g id="a_Node000006"><a xlink:href="classpism_1_1array_1_1Vector1.html" target="_top" xlink:title=" ">
<polygon fill="white" stroke="#666666" points="123.5,-75 9.5,-75 9.5,-56 123.5,-56 123.5,-75"/>
<text text-anchor="middle" x="66.5" y="-63" font-family="Helvetica,sans-Serif" font-size="10.00">pism::array::Vector1</text>
</a>
</g>
</g>
<!-- Node1&#45;&gt;Node6 -->
<g id="edge6_Node000001_Node000006" class="edge">
<title>Node1&#45;&gt;Node6</title>
<g id="a_edge6_Node000001_Node000006"><a xlink:title=" ">
<path fill="none" stroke="#63b8ff" d="M66.5,-101.3C66.5,-92.41 66.5,-82.28 66.5,-75.25"/>
<polygon fill="#63b8ff" stroke="#63b8ff" points="63,-101.58 66.5,-111.58 70,-101.58 63,-101.58"/>
</a>
</g>
</g>
<!-- Node2 -->
<g id="Node000002" class="node">
<title>Node2</title>
<g id="a_Node000002"><a xlink:href="classpism_1_1array_1_1Array2D.html" target="_top" xlink:title=" ">
<polygon fill="white" stroke="#666666" points="125,-198 8,-198 8,-168 125,-168 125,-198"/>
<text text-anchor="start" x="16" y="-186" font-family="Helvetica,sans-Serif" font-size="10.00">pism::array::Array2D</text>
<text text-anchor="middle" x="66.5" y="-175" font-family="Helvetica,sans-Serif" font-size="10.00">&lt; pism::Vector2d &gt;</text>
</a>
</g>
</g>
<!-- Node2&#45;&gt;Node1 -->
<g id="edge1_Node000001_Node000002" class="edge">
<title>Node2&#45;&gt;Node1</title>
<g id="a_edge1_Node000001_Node000002"><a xlink:title=" ">
<path fill="none" stroke="#63b8ff" d="M66.5,-157.79C66.5,-148.36 66.5,-138.15 66.5,-131.16"/>
<polygon fill="#63b8ff" stroke="#63b8ff" points="63,-157.9 66.5,-167.9 70,-157.9 63,-157.9"/>
</a>
</g>
</g>
<!-- Node3 -->
<g id="Node000003" class="node">
<title>Node3</title>
<g id="a_Node000003"><a xlink:href="classpism_1_1array_1_1Array.html" target="_top" xlink:title="Abstract class for reading, writing, allocating, and accessing a DA&#45;based PETSc Vec (2D and 3D fields...">
<polygon fill="white" stroke="#666666" points="114.5,-320 10.5,-320 10.5,-301 114.5,-301 114.5,-320"/>
<text text-anchor="middle" x="62.5" y="-308" font-family="Helvetica,sans-Serif" font-size="10.00">pism::array::Array</text>
</a>
</g>
</g>
<!-- Node3&#45;&gt;Node2 -->
<g id="edge2_Node000002_Node000003" class="edge">
<title>Node3&#45;&gt;Node2</title>
<g id="a_edge2_Node000002_Node000003"><a xlink:title=" ">
<path fill="none" stroke="#63b8ff" d="M63.1,-290.76C63.9,-265.48 65.32,-221.02 66.05,-198.27"/>
<polygon fill="#63b8ff" stroke="#63b8ff" points="59.6,-290.77 62.77,-300.87 66.59,-290.99 59.6,-290.77"/>
</a>
</g>
</g>
<!-- Node5 -->
<g id="Node000005" class="node">
<title>Node5</title>
<g id="a_Node000005"><a xlink:href="classpism_1_1array_1_1Array2D.html" target="_top" xlink:title="A storage vector combining related fields in a struct.">
<polygon fill="white" stroke="#666666" points="224.5,-264 78.5,-264 78.5,-245 224.5,-245 224.5,-264"/>
<text text-anchor="middle" x="151.5" y="-252" font-family="Helvetica,sans-Serif" font-size="10.00">pism::array::Array2D&lt; T &gt;</text>
</a>
</g>
</g>
<!-- Node3&#45;&gt;Node5 -->
<g id="edge5_Node000005_Node000003" class="edge">
<title>Node3&#45;&gt;Node5</title>
<g id="a_edge5_Node000005_Node000003"><a xlink:title=" ">
<path fill="none" stroke="#63b8ff" d="M85.74,-295.4C102.06,-285.5 123.37,-272.57 137.24,-264.15"/>
<polygon fill="#63b8ff" stroke="#63b8ff" points="83.53,-292.64 76.8,-300.82 87.16,-298.63 83.53,-292.64"/>
</a>
</g>
</g>
<!-- Node4 -->
<g id="Node000004" class="node">
<title>Node4</title>
<g id="a_Node000004"><a xlink:href="classpism_1_1PetscAccessible.html" target="_top" xlink:title=" ">
<polygon fill="white" stroke="#666666" points="125,-376 0,-376 0,-357 125,-357 125,-376"/>
<text text-anchor="middle" x="62.5" y="-364" font-family="Helvetica,sans-Serif" font-size="10.00">pism::PetscAccessible</text>
</a>
</g>
</g>
<!-- Node4&#45;&gt;Node3 -->
<g id="edge3_Node000003_Node000004" class="edge">
<title>Node4&#45;&gt;Node3</title>
<g id="a_edge3_Node000003_Node000004"><a xlink:title=" ">
<path fill="none" stroke="#63b8ff" d="M62.5,-346.3C62.5,-337.41 62.5,-327.28 62.5,-320.25"/>
<polygon fill="#63b8ff" stroke="#63b8ff" points="59,-346.58 62.5,-356.58 66,-346.58 59,-346.58"/>
</a>
</g>
</g>
<!-- Node5&#45;&gt;Node2 -->
<g id="edge4_Node000002_Node000005" class="edge">
<title>Node5&#45;&gt;Node2</title>
<g id="a_edge4_Node000002_Node000005"><a xlink:title=" ">
<path fill="none" stroke="orange" stroke-dasharray="5,2" d="M133.21,-238.54C118.56,-226.57 98.16,-209.89 83.79,-198.14"/>
<polygon fill="orange" stroke="orange" points="131.12,-241.36 141.08,-244.98 135.55,-235.94 131.12,-241.36"/>
</a>
</g>
<text text-anchor="middle" x="166" y="-219" font-family="Helvetica,sans-Serif" font-size="10.00" fill="grey"> &lt; pism::Vector2d &gt;</text>
</g>
<!-- Node7 -->
<g id="Node000007" class="node">
<title>Node7</title>
<g id="a_Node000007"><a xlink:href="classpism_1_1array_1_1Vector2.html" target="_top" xlink:title=" ">
<polygon fill="white" stroke="#666666" points="123.5,-19 9.5,-19 9.5,0 123.5,0 123.5,-19"/>
<text text-anchor="middle" x="66.5" y="-7" font-family="Helvetica,sans-Serif" font-size="10.00">pism::array::Vector2</text>
</a>
</g>
</g>
<!-- Node6&#45;&gt;Node7 -->
<g id="edge7_Node000006_Node000007" class="edge">
<title>Node6&#45;&gt;Node7</title>
<g id="a_edge7_Node000006_Node000007"><a xlink:title=" ">
<path fill="none" stroke="#63b8ff" d="M66.5,-45.3C66.5,-36.41 66.5,-26.28 66.5,-19.25"/>
<polygon fill="#63b8ff" stroke="#63b8ff" points="63,-45.58 66.5,-55.58 70,-45.58 63,-45.58"/>
</a>
</g>
</g>
</g>
</svg>
