<?xml version="1.0" encoding="UTF-8" standalone="no"?>
<!DOCTYPE svg PUBLIC "-//W3C//DTD SVG 1.1//EN"
 "http://www.w3.org/Graphics/SVG/1.1/DTD/svg11.dtd">
<!-- Generated by graphviz version 2.43.0 (0)
 -->
<!-- Title: pism::surface::SurfaceModel Pages: 1 -->
<svg width="681pt" height="596pt"
 viewBox="0.00 0.00 681.00 595.50" xmlns="http://www.w3.org/2000/svg" xmlns:xlink="http://www.w3.org/1999/xlink">
<g id="graph0" class="graph" transform="scale(1 1) rotate(0) translate(4 591.5)">
<title>pism::surface::SurfaceModel</title>
<!-- Node1 -->
<g id="node1" class="node">
<title>Node1</title>
<g id="a_node1"><a xlink:title="The interface of PISM&#39;s surface models.">
<polygon fill="#bfbfbf" stroke="black" points="139,-290 139,-309 294,-309 294,-290 139,-290"/>
<text text-anchor="middle" x="216.5" y="-297" font-family="Helvetica,sans-Serif" font-size="10.00">pism::surface::SurfaceModel</text>
</a>
</g>
</g>
<!-- Node3 -->
<g id="node3" class="node">
<title>Node3</title>
<g id="a_node3"><a xlink:href="classpism_1_1icebin_1_1IBSurfaceModel.html" target="_top" xlink:title="A class implementing a constant&#45;in&#45;time surface model for the surface mass balance.">
<polygon fill="none" stroke="black" points="333,-568 333,-587 491,-587 491,-568 333,-568"/>
<text text-anchor="middle" x="412" y="-575" font-family="Helvetica,sans-Serif" font-size="10.00">pism::icebin::IBSurfaceModel</text>
</a>
</g>
</g>
<!-- Node1&#45;&gt;Node3 -->
<g id="edge2" class="edge">
<title>Node1&#45;&gt;Node3</title>
<path fill="none" stroke="midnightblue" d="M220.02,-319.19C227.34,-367.83 253.18,-494.36 330,-558.5 334.55,-562.3 339.71,-565.36 345.19,-567.84"/>
<polygon fill="midnightblue" stroke="midnightblue" points="223.46,-318.48 218.6,-309.06 216.53,-319.45 223.46,-318.48"/>
</g>
<!-- Node4 -->
<g id="node4" class="node">
<title>Node4</title>
<g id="a_node4"><a xlink:href="classpism_1_1surface_1_1Anomaly.html" target="_top" xlink:title="Reads and uses climatic_mass_balance and ice_surface_temp anomalies from a file.">
<polygon fill="none" stroke="black" points="346,-530 346,-549 478,-549 478,-530 346,-530"/>
<text text-anchor="middle" x="412" y="-537" font-family="Helvetica,sans-Serif" font-size="10.00">pism::surface::Anomaly</text>
</a>
</g>
</g>
<!-- Node1&#45;&gt;Node4 -->
<g id="edge3" class="edge">
<title>Node1&#45;&gt;Node4</title>
<path fill="none" stroke="midnightblue" d="M221.63,-319.22C231.81,-362.76 262.38,-467.46 330,-520.5 334.89,-524.33 340.42,-527.42 346.24,-529.89"/>
<polygon fill="midnightblue" stroke="midnightblue" points="225.01,-318.31 219.42,-309.31 218.18,-319.83 225.01,-318.31"/>
</g>
<!-- Node5 -->
<g id="node5" class="node">
<title>Node5</title>
<g id="a_node5"><a xlink:href="classpism_1_1surface_1_1Cache.html" target="_top" xlink:title=" ">
<polygon fill="none" stroke="black" points="352.5,-492 352.5,-511 471.5,-511 471.5,-492 352.5,-492"/>
<text text-anchor="middle" x="412" y="-499" font-family="Helvetica,sans-Serif" font-size="10.00">pism::surface::Cache</text>
</a>
</g>
</g>
<!-- Node1&#45;&gt;Node5 -->
<g id="edge4" class="edge">
<title>Node1&#45;&gt;Node5</title>
<path fill="none" stroke="midnightblue" d="M223.8,-319.13C237.02,-357.02 271.37,-440.2 330,-482.5 336.68,-487.32 344.4,-490.93 352.36,-493.64"/>
<polygon fill="midnightblue" stroke="midnightblue" points="227.01,-317.68 220.5,-309.32 220.37,-319.91 227.01,-317.68"/>
</g>
<!-- Node6 -->
<g id="node6" class="node">
<title>Node6</title>
<g id="a_node6"><a xlink:href="classpism_1_1surface_1_1Delta__T.html" target="_top" xlink:title="Implements the scalar temperature offsets for the ice surface temperature.">
<polygon fill="none" stroke="black" points="349,-454 349,-473 475,-473 475,-454 349,-454"/>
<text text-anchor="middle" x="412" y="-461" font-family="Helvetica,sans-Serif" font-size="10.00">pism::surface::Delta_T</text>
</a>
</g>
</g>
<!-- Node1&#45;&gt;Node6 -->
<g id="edge5" class="edge">
<title>Node1&#45;&gt;Node6</title>
<path fill="none" stroke="midnightblue" d="M226.51,-318.06C242.67,-349.32 279.68,-412.2 330,-444.5 336.08,-448.4 342.87,-451.5 349.87,-453.97"/>
<polygon fill="midnightblue" stroke="midnightblue" points="229.62,-316.47 222,-309.11 223.37,-319.61 229.62,-316.47"/>
</g>
<!-- Node7 -->
<g id="node7" class="node">
<title>Node7</title>
<g id="a_node7"><a xlink:href="classpism_1_1surface_1_1Elevation.html" target="_top" xlink:title="A class implementing a elevation&#45;dependent temperature and mass balance model.">
<polygon fill="none" stroke="black" points="345,-416 345,-435 479,-435 479,-416 345,-416"/>
<text text-anchor="middle" x="412" y="-423" font-family="Helvetica,sans-Serif" font-size="10.00">pism::surface::Elevation</text>
</a>
</g>
</g>
<!-- Node1&#45;&gt;Node7 -->
<g id="edge6" class="edge">
<title>Node1&#45;&gt;Node7</title>
<path fill="none" stroke="midnightblue" d="M230.96,-317.21C250.21,-341.24 287.97,-383.79 330,-406.5 337.12,-410.35 345,-413.42 352.96,-415.87"/>
<polygon fill="midnightblue" stroke="midnightblue" points="233.65,-314.97 224.73,-309.26 228.15,-319.29 233.65,-314.97"/>
</g>
<!-- Node8 -->
<g id="node8" class="node">
<title>Node8</title>
<g id="a_node8"><a xlink:href="classpism_1_1surface_1_1ElevationChange.html" target="_top" xlink:title=" ">
<polygon fill="none" stroke="black" points="345,-366.5 345,-396.5 479,-396.5 479,-366.5 345,-366.5"/>
<text text-anchor="start" x="353" y="-384.5" font-family="Helvetica,sans-Serif" font-size="10.00">pism::surface::Elevation</text>
<text text-anchor="middle" x="412" y="-373.5" font-family="Helvetica,sans-Serif" font-size="10.00">Change</text>
</a>
</g>
</g>
<!-- Node1&#45;&gt;Node8 -->
<g id="edge7" class="edge">
<title>Node1&#45;&gt;Node8</title>
<path fill="none" stroke="midnightblue" d="M243.12,-314.06C265.55,-326.42 299.27,-344.08 330,-356.5 338.73,-360.03 348.16,-363.36 357.39,-366.36"/>
<polygon fill="midnightblue" stroke="midnightblue" points="244.67,-310.92 234.23,-309.11 241.27,-317.03 244.67,-310.92"/>
</g>
<!-- Node9 -->
<g id="node9" class="node">
<title>Node9</title>
<g id="a_node9"><a xlink:href="classpism_1_1surface_1_1ForceThickness.html" target="_top" xlink:title=" ">
<polygon fill="none" stroke="black" points="330,-328 330,-347 494,-347 494,-328 330,-328"/>
<text text-anchor="middle" x="412" y="-335" font-family="Helvetica,sans-Serif" font-size="10.00">pism::surface::ForceThickness</text>
</a>
</g>
</g>
<!-- Node1&#45;&gt;Node9 -->
<g id="edge8" class="edge">
<title>Node1&#45;&gt;Node9</title>
<path fill="none" stroke="midnightblue" d="M276.25,-311.04C303.85,-316.46 336.35,-322.84 362.52,-327.98"/>
<polygon fill="midnightblue" stroke="midnightblue" points="276.82,-307.58 266.33,-309.09 275.47,-314.45 276.82,-307.58"/>
</g>
<!-- Node10 -->
<g id="node10" class="node">
<title>Node10</title>
<g id="a_node10"><a xlink:href="classpism_1_1surface_1_1Given.html" target="_top" xlink:title=" ">
<polygon fill="none" stroke="black" points="353.5,-290 353.5,-309 470.5,-309 470.5,-290 353.5,-290"/>
<text text-anchor="middle" x="412" y="-297" font-family="Helvetica,sans-Serif" font-size="10.00">pism::surface::Given</text>
</a>
</g>
</g>
<!-- Node1&#45;&gt;Node10 -->
<g id="edge9" class="edge">
<title>Node1&#45;&gt;Node10</title>
<path fill="none" stroke="midnightblue" d="M304.51,-299.5C321.1,-299.5 338.07,-299.5 353.45,-299.5"/>
<polygon fill="midnightblue" stroke="midnightblue" points="304.25,-296 294.25,-299.5 304.25,-303 304.25,-296"/>
</g>
<!-- Node11 -->
<g id="node11" class="node">
<title>Node11</title>
<g id="a_node11"><a xlink:href="classpism_1_1surface_1_1ISMIP6.html" target="_top" xlink:title=" ">
<polygon fill="none" stroke="black" points="351,-252 351,-271 473,-271 473,-252 351,-252"/>
<text text-anchor="middle" x="412" y="-259" font-family="Helvetica,sans-Serif" font-size="10.00">pism::surface::ISMIP6</text>
</a>
</g>
</g>
<!-- Node1&#45;&gt;Node11 -->
<g id="edge10" class="edge">
<title>Node1&#45;&gt;Node11</title>
<path fill="none" stroke="midnightblue" d="M276.25,-287.96C303.85,-282.54 336.35,-276.16 362.52,-271.02"/>
<polygon fill="midnightblue" stroke="midnightblue" points="275.47,-284.55 266.33,-289.91 276.82,-291.42 275.47,-284.55"/>
</g>
<!-- Node12 -->
<g id="node12" class="node">
<title>Node12</title>
<g id="a_node12"><a xlink:href="classpism_1_1surface_1_1InitializationHelper.html" target="_top" xlink:title=" ">
<polygon fill="none" stroke="black" points="337.5,-202.5 337.5,-232.5 486.5,-232.5 486.5,-202.5 337.5,-202.5"/>
<text text-anchor="start" x="345.5" y="-220.5" font-family="Helvetica,sans-Serif" font-size="10.00">pism::surface::Initialization</text>
<text text-anchor="middle" x="412" y="-209.5" font-family="Helvetica,sans-Serif" font-size="10.00">Helper</text>
</a>
</g>
</g>
<!-- Node1&#45;&gt;Node12 -->
<g id="edge11" class="edge">
<title>Node1&#45;&gt;Node12</title>
<path fill="none" stroke="midnightblue" d="M243.12,-284.94C265.55,-272.58 299.27,-254.92 330,-242.5 338.73,-238.97 348.16,-235.64 357.39,-232.64"/>
<polygon fill="midnightblue" stroke="midnightblue" points="241.27,-281.97 234.23,-289.89 244.67,-288.08 241.27,-281.97"/>
</g>
<!-- Node13 -->
<g id="node13" class="node">
<title>Node13</title>
<g id="a_node13"><a xlink:href="classpism_1_1surface_1_1NoGLRetreat.html" target="_top" xlink:title=" ">
<polygon fill="none" stroke="black" points="336.5,-164 336.5,-183 487.5,-183 487.5,-164 336.5,-164"/>
<text text-anchor="middle" x="412" y="-171" font-family="Helvetica,sans-Serif" font-size="10.00">pism::surface::NoGLRetreat</text>
</a>
</g>
</g>
<!-- Node1&#45;&gt;Node13 -->
<g id="edge12" class="edge">
<title>Node1&#45;&gt;Node13</title>
<path fill="none" stroke="midnightblue" d="M230.96,-281.79C250.21,-257.76 287.97,-215.21 330,-192.5 337.12,-188.65 345,-185.58 352.96,-183.13"/>
<polygon fill="midnightblue" stroke="midnightblue" points="228.15,-279.71 224.73,-289.74 233.65,-284.03 228.15,-279.71"/>
</g>
<!-- Node14 -->
<g id="node14" class="node">
<title>Node14</title>
<g id="a_node14"><a xlink:href="classpism_1_1surface_1_1PIK.html" target="_top" xlink:title="A class implementing a constant&#45;in&#45;time surface model for the surface mass balance.">
<polygon fill="none" stroke="black" points="360,-126 360,-145 464,-145 464,-126 360,-126"/>
<text text-anchor="middle" x="412" y="-133" font-family="Helvetica,sans-Serif" font-size="10.00">pism::surface::PIK</text>
</a>
</g>
</g>
<!-- Node1&#45;&gt;Node14 -->
<g id="edge13" class="edge">
<title>Node1&#45;&gt;Node14</title>
<path fill="none" stroke="midnightblue" d="M226.51,-280.94C242.67,-249.68 279.68,-186.8 330,-154.5 338.87,-148.8 349.27,-144.81 359.61,-142.01"/>
<polygon fill="midnightblue" stroke="midnightblue" points="223.37,-279.39 222,-289.89 229.62,-282.53 223.37,-279.39"/>
</g>
<!-- Node15 -->
<g id="node15" class="node">
<title>Node15</title>
<g id="a_node15"><a xlink:href="classpism_1_1surface_1_1PSFormulas.html" target="_top" xlink:title=" ">
<polygon fill="none" stroke="black" points="339,-88 339,-107 485,-107 485,-88 339,-88"/>
<text text-anchor="middle" x="412" y="-95" font-family="Helvetica,sans-Serif" font-size="10.00">pism::surface::PSFormulas</text>
</a>
</g>
</g>
<!-- Node1&#45;&gt;Node15 -->
<g id="edge14" class="edge">
<title>Node1&#45;&gt;Node15</title>
<path fill="none" stroke="midnightblue" d="M223.8,-279.87C237.02,-241.98 271.37,-158.8 330,-116.5 335.39,-112.61 341.46,-109.51 347.78,-107.03"/>
<polygon fill="midnightblue" stroke="midnightblue" points="220.37,-279.09 220.5,-289.68 227.01,-281.32 220.37,-279.09"/>
</g>
<!-- Node18 -->
<g id="node18" class="node">
<title>Node18</title>
<g id="a_node18"><a xlink:href="classpism_1_1surface_1_1Simple.html" target="_top" xlink:title="A class implementing a primitive surface model.">
<polygon fill="none" stroke="black" points="351,-50 351,-69 473,-69 473,-50 351,-50"/>
<text text-anchor="middle" x="412" y="-57" font-family="Helvetica,sans-Serif" font-size="10.00">pism::surface::Simple</text>
</a>
</g>
</g>
<!-- Node1&#45;&gt;Node18 -->
<g id="edge17" class="edge">
<title>Node1&#45;&gt;Node18</title>
<path fill="none" stroke="midnightblue" d="M221.63,-279.78C231.81,-236.24 262.38,-131.54 330,-78.5 336.14,-73.69 343.29,-70.06 350.75,-67.33"/>
<polygon fill="midnightblue" stroke="midnightblue" points="218.18,-279.17 219.42,-289.69 225.01,-280.69 218.18,-279.17"/>
</g>
<!-- Node19 -->
<g id="node19" class="node">
<title>Node19</title>
<g id="a_node19"><a xlink:href="classpism_1_1surface_1_1TemperatureIndex.html" target="_top" xlink:title="A class implementing a temperature&#45;index (positive degree&#45;day) scheme to compute melt and runoff,...">
<polygon fill="none" stroke="black" points="337,-0.5 337,-30.5 487,-30.5 487,-0.5 337,-0.5"/>
<text text-anchor="start" x="345" y="-18.5" font-family="Helvetica,sans-Serif" font-size="10.00">pism::surface::Temperature</text>
<text text-anchor="middle" x="412" y="-7.5" font-family="Helvetica,sans-Serif" font-size="10.00">Index</text>
</a>
</g>
</g>
<!-- Node1&#45;&gt;Node19 -->
<g id="edge18" class="edge">
<title>Node1&#45;&gt;Node19</title>
<path fill="none" stroke="midnightblue" d="M220.36,-279.81C228.38,-231.67 255.61,-107.1 330,-40.5 334.28,-36.67 339.13,-33.43 344.28,-30.68"/>
<polygon fill="midnightblue" stroke="midnightblue" points="216.87,-279.42 218.78,-289.84 223.79,-280.51 216.87,-279.42"/>
</g>
<!-- Node2 -->
<g id="node2" class="node">
<title>Node2</title>
<g id="a_node2"><a xlink:href="classpism_1_1Component.html" target="_top" xlink:title="A class defining a common interface for most PISM sub&#45;models.">
<polygon fill="none" stroke="black" points="0,-290 0,-309 103,-309 103,-290 0,-290"/>
<text text-anchor="middle" x="51.5" y="-297" font-family="Helvetica,sans-Serif" font-size="10.00">pism::Component</text>
</a>
</g>
</g>
<!-- Node2&#45;&gt;Node1 -->
<g id="edge1" class="edge">
<title>Node2&#45;&gt;Node1</title>
<path fill="none" stroke="midnightblue" d="M113.19,-299.5C121.55,-299.5 130.22,-299.5 138.82,-299.5"/>
<polygon fill="midnightblue" stroke="midnightblue" points="113.18,-296 103.18,-299.5 113.18,-303 113.18,-296"/>
</g>
<!-- Node16 -->
<g id="node16" class="node">
<title>Node16</title>
<g id="a_node16"><a xlink:href="classpism_1_1surface_1_1EISMINTII.html" target="_top" xlink:title=" ">
<polygon fill="none" stroke="black" points="534,-107 534,-126 669,-126 669,-107 534,-107"/>
<text text-anchor="middle" x="601.5" y="-114" font-family="Helvetica,sans-Serif" font-size="10.00">pism::surface::EISMINTII</text>
</a>
</g>
</g>
<!-- Node15&#45;&gt;Node16 -->
<g id="edge15" class="edge">
<title>Node15&#45;&gt;Node16</title>
<path fill="none" stroke="midnightblue" d="M495.44,-105.85C508.28,-107.16 521.41,-108.49 533.84,-109.75"/>
<polygon fill="midnightblue" stroke="midnightblue" points="495.53,-102.34 485.22,-104.82 494.82,-109.31 495.53,-102.34"/>
</g>
<!-- Node17 -->
<g id="node17" class="node">
<title>Node17</title>
<g id="a_node17"><a xlink:href="classpism_1_1surface_1_1Verification.html" target="_top" xlink:title="Climate inputs for verification tests.">
<polygon fill="none" stroke="black" points="530,-69 530,-88 673,-88 673,-69 530,-69"/>
<text text-anchor="middle" x="601.5" y="-76" font-family="Helvetica,sans-Serif" font-size="10.00">pism::surface::Verification</text>
</a>
</g>
</g>
<!-- Node15&#45;&gt;Node17 -->
<g id="edge16" class="edge">
<title>Node15&#45;&gt;Node17</title>
<path fill="none" stroke="midnightblue" d="M495.28,-89.16C506.81,-87.99 518.57,-86.8 529.86,-85.66"/>
<polygon fill="midnightblue" stroke="midnightblue" points="494.82,-85.69 485.22,-90.18 495.53,-92.66 494.82,-85.69"/>
</g>
</g>
</svg>
