<?xml version="1.0" encoding="UTF-8" standalone="no"?>
<!DOCTYPE svg PUBLIC "-//W3C//DTD SVG 1.1//EN"
 "http://www.w3.org/Graphics/SVG/1.1/DTD/svg11.dtd">
<!-- Generated by graphviz version 2.43.0 (0)
 -->
<!-- Title: pism::inverse::IPMeanSquareFunctional2V Pages: 1 -->
<svg width="917pt" height="88pt"
 viewBox="0.00 0.00 917.00 88.00" xmlns="http://www.w3.org/2000/svg" xmlns:xlink="http://www.w3.org/1999/xlink">
<g id="graph0" class="graph" transform="scale(1 1) rotate(0) translate(4 84)">
<title>pism::inverse::IPMeanSquareFunctional2V</title>
<!-- Node1 -->
<g id="node1" class="node">
<title>Node1</title>
<g id="a_node1"><a xlink:title="Implements a functional corresponding to a (possibly weighted) sum of squares of components of an arr...">
<polygon fill="#bfbfbf" stroke="black" points="751,-27.5 751,-57.5 909,-57.5 909,-27.5 751,-27.5"/>
<text text-anchor="start" x="759" y="-45.5" font-family="Helvetica,sans-Serif" font-size="10.00">pism::inverse::IPMeanSquare</text>
<text text-anchor="middle" x="830" y="-34.5" font-family="Helvetica,sans-Serif" font-size="10.00">Functional2V</text>
</a>
</g>
</g>
<!-- Node2 -->
<g id="node2" class="node">
<title>Node2</title>
<g id="a_node2"><a xlink:href="classpism_1_1inverse_1_1IPInnerProductFunctional.html" target="_top" xlink:title=" ">
<polygon fill="none" stroke="black" points="555,-27.5 555,-57.5 714,-57.5 714,-27.5 555,-27.5"/>
<text text-anchor="start" x="563" y="-45.5" font-family="Helvetica,sans-Serif" font-size="10.00">pism::inverse::IPInnerProduct</text>
<text text-anchor="middle" x="634.5" y="-34.5" font-family="Helvetica,sans-Serif" font-size="10.00">Functional&lt; array::Vector &gt;</text>
</a>
</g>
</g>
<!-- Node2&#45;&gt;Node1 -->
<g id="edge1" class="edge">
<title>Node2&#45;&gt;Node1</title>
<path fill="none" stroke="midnightblue" d="M724.23,-42.5C733.16,-42.5 742.19,-42.5 750.99,-42.5"/>
<polygon fill="midnightblue" stroke="midnightblue" points="724.2,-39 714.2,-42.5 724.2,-46 724.2,-39"/>
</g>
<!-- Node3 -->
<g id="node3" class="node">
<title>Node3</title>
<g id="a_node3"><a xlink:href="classpism_1_1inverse_1_1IPFunctional.html" target="_top" xlink:title=" ">
<polygon fill="none" stroke="black" points="277.5,-49.5 277.5,-79.5 425.5,-79.5 425.5,-49.5 277.5,-49.5"/>
<text text-anchor="start" x="285.5" y="-67.5" font-family="Helvetica,sans-Serif" font-size="10.00">pism::inverse::IPFunctional</text>
<text text-anchor="middle" x="351.5" y="-56.5" font-family="Helvetica,sans-Serif" font-size="10.00">&lt; array::Vector &gt;</text>
</a>
</g>
</g>
<!-- Node3&#45;&gt;Node2 -->
<g id="edge2" class="edge">
<title>Node3&#45;&gt;Node2</title>
<path fill="none" stroke="midnightblue" d="M436.02,-57.96C473.65,-55.02 517.83,-51.56 554.86,-48.66"/>
<polygon fill="midnightblue" stroke="midnightblue" points="435.29,-54.51 425.6,-58.78 435.84,-61.49 435.29,-54.51"/>
</g>
<!-- Node4 -->
<g id="node4" class="node">
<title>Node4</title>
<g id="a_node4"><a xlink:href="classpism_1_1inverse_1_1IPFunctional.html" target="_top" xlink:title="Abstract base class for functions from ice model vectors to .">
<polygon fill="none" stroke="black" points="0,-24.5 0,-54.5 148,-54.5 148,-24.5 0,-24.5"/>
<text text-anchor="start" x="8" y="-42.5" font-family="Helvetica,sans-Serif" font-size="10.00">pism::inverse::IPFunctional</text>
<text text-anchor="middle" x="74" y="-31.5" font-family="Helvetica,sans-Serif" font-size="10.00">&lt; IMVecType &gt;</text>
</a>
</g>
</g>
<!-- Node4&#45;&gt;Node3 -->
<g id="edge3" class="edge">
<title>Node4&#45;&gt;Node3</title>
<path fill="none" stroke="orange" stroke-dasharray="5,2" d="M158.09,-47.04C195.97,-50.48 240.42,-54.51 277.05,-57.84"/>
<polygon fill="orange" stroke="orange" points="158.38,-43.55 148.11,-46.13 157.75,-50.52 158.38,-43.55"/>
<text text-anchor="middle" x="210" y="-58.5" font-family="Helvetica,sans-Serif" font-size="10.00"> &lt; array::Vector &gt;</text>
</g>
<!-- Node5 -->
<g id="node5" class="node">
<title>Node5</title>
<g id="a_node5"><a xlink:href="classpism_1_1inverse_1_1IPInnerProductFunctional.html" target="_top" xlink:title="Abstract base class for IPFunctionals arising from an inner product.">
<polygon fill="none" stroke="black" points="272,-0.5 272,-30.5 431,-30.5 431,-0.5 272,-0.5"/>
<text text-anchor="start" x="280" y="-18.5" font-family="Helvetica,sans-Serif" font-size="10.00">pism::inverse::IPInnerProduct</text>
<text text-anchor="middle" x="351.5" y="-7.5" font-family="Helvetica,sans-Serif" font-size="10.00">Functional&lt; IMVecType &gt;</text>
</a>
</g>
</g>
<!-- Node4&#45;&gt;Node5 -->
<g id="edge5" class="edge">
<title>Node4&#45;&gt;Node5</title>
<path fill="none" stroke="midnightblue" d="M158.11,-32.26C194.16,-29.12 236.18,-25.46 271.73,-22.36"/>
<polygon fill="midnightblue" stroke="midnightblue" points="157.76,-28.78 148.11,-33.13 158.37,-35.75 157.76,-28.78"/>
</g>
<!-- Node5&#45;&gt;Node2 -->
<g id="edge4" class="edge">
<title>Node5&#45;&gt;Node2</title>
<path fill="none" stroke="orange" stroke-dasharray="5,2" d="M441.27,-24.03C477.71,-27.53 519.55,-31.55 554.87,-34.94"/>
<polygon fill="orange" stroke="orange" points="441.44,-20.53 431.15,-23.06 440.77,-27.5 441.44,-20.53"/>
<text text-anchor="middle" x="493" y="-35.5" font-family="Helvetica,sans-Serif" font-size="10.00"> &lt; array::Vector &gt;</text>
</g>
</g>
</svg>
