<?xml version="1.0" encoding="UTF-8" standalone="no"?>
<!DOCTYPE svg PUBLIC "-//W3C//DTD SVG 1.1//EN"
 "http://www.w3.org/Graphics/SVG/1.1/DTD/svg11.dtd">
<!-- Generated by graphviz version 2.43.0 (0)
 -->
<!-- Title: pism::energy::EnergyModel Pages: 1 -->
<svg width="684pt" height="137pt"
 viewBox="0.00 0.00 684.00 137.00" xmlns="http://www.w3.org/2000/svg" xmlns:xlink="http://www.w3.org/1999/xlink">
<g id="graph0" class="graph" transform="scale(1 1) rotate(0) translate(4 133)">
<title>pism::energy::EnergyModel</title>
<!-- Node1 -->
<g id="node1" class="node">
<title>Node1</title>
<g id="a_node1"><a xlink:title=" ">
<polygon fill="#bfbfbf" stroke="black" points="139,-55 139,-74 288,-74 288,-55 139,-55"/>
<text text-anchor="middle" x="213.5" y="-62" font-family="Helvetica,sans-Serif" font-size="10.00">pism::energy::EnergyModel</text>
</a>
</g>
</g>
<!-- Node3 -->
<g id="node3" class="node">
<title>Node3</title>
<g id="a_node3"><a xlink:href="classpism_1_1energy_1_1CHSystem.html" target="_top" xlink:title=" ">
<polygon fill="none" stroke="black" points="334.5,-93 334.5,-112 471.5,-112 471.5,-93 334.5,-93"/>
<text text-anchor="middle" x="403" y="-100" font-family="Helvetica,sans-Serif" font-size="10.00">pism::energy::CHSystem</text>
</a>
</g>
</g>
<!-- Node1&#45;&gt;Node3 -->
<g id="edge2" class="edge">
<title>Node1&#45;&gt;Node3</title>
<path fill="none" stroke="midnightblue" d="M271.78,-76.11C298.45,-81.51 329.78,-87.86 355.03,-92.98"/>
<polygon fill="midnightblue" stroke="midnightblue" points="272.31,-72.65 261.81,-74.09 270.92,-79.51 272.31,-72.65"/>
</g>
<!-- Node4 -->
<g id="node4" class="node">
<title>Node4</title>
<g id="a_node4"><a xlink:href="classpism_1_1energy_1_1EnthalpyModel.html" target="_top" xlink:title="The enthalpy&#45;based energy balance model.">
<polygon fill="none" stroke="black" points="324,-55 324,-74 482,-74 482,-55 324,-55"/>
<text text-anchor="middle" x="403" y="-62" font-family="Helvetica,sans-Serif" font-size="10.00">pism::energy::EnthalpyModel</text>
</a>
</g>
</g>
<!-- Node1&#45;&gt;Node4 -->
<g id="edge3" class="edge">
<title>Node1&#45;&gt;Node4</title>
<path fill="none" stroke="midnightblue" d="M298.3,-64.5C306.75,-64.5 315.31,-64.5 323.7,-64.5"/>
<polygon fill="midnightblue" stroke="midnightblue" points="298.07,-61 288.07,-64.5 298.07,-68 298.07,-61"/>
</g>
<!-- Node7 -->
<g id="node7" class="node">
<title>Node7</title>
<g id="a_node7"><a xlink:href="classpism_1_1energy_1_1TemperatureModel.html" target="_top" xlink:title=" ">
<polygon fill="none" stroke="black" points="329.5,-3.5 329.5,-33.5 476.5,-33.5 476.5,-3.5 329.5,-3.5"/>
<text text-anchor="start" x="337.5" y="-21.5" font-family="Helvetica,sans-Serif" font-size="10.00">pism::energy::Temperature</text>
<text text-anchor="middle" x="403" y="-10.5" font-family="Helvetica,sans-Serif" font-size="10.00">Model</text>
</a>
</g>
</g>
<!-- Node1&#45;&gt;Node7 -->
<g id="edge6" class="edge">
<title>Node1&#45;&gt;Node7</title>
<path fill="none" stroke="midnightblue" d="M263.16,-52.56C286.83,-46.75 315.53,-39.71 340.68,-33.54"/>
<polygon fill="midnightblue" stroke="midnightblue" points="262.23,-49.19 253.35,-54.97 263.9,-55.99 262.23,-49.19"/>
</g>
<!-- Node2 -->
<g id="node2" class="node">
<title>Node2</title>
<g id="a_node2"><a xlink:href="classpism_1_1Component.html" target="_top" xlink:title="A class defining a common interface for most PISM sub&#45;models.">
<polygon fill="none" stroke="black" points="0,-55 0,-74 103,-74 103,-55 0,-55"/>
<text text-anchor="middle" x="51.5" y="-62" font-family="Helvetica,sans-Serif" font-size="10.00">pism::Component</text>
</a>
</g>
</g>
<!-- Node2&#45;&gt;Node1 -->
<g id="edge1" class="edge">
<title>Node2&#45;&gt;Node1</title>
<path fill="none" stroke="midnightblue" d="M113.17,-64.5C121.55,-64.5 130.24,-64.5 138.82,-64.5"/>
<polygon fill="midnightblue" stroke="midnightblue" points="113.13,-61 103.12,-64.5 113.12,-68 113.13,-61"/>
</g>
<!-- Node5 -->
<g id="node5" class="node">
<title>Node5</title>
<g id="a_node5"><a xlink:href="classpism_1_1energy_1_1DummyEnergyModel.html" target="_top" xlink:title="The &quot;dummy&quot; energy balance model. Reads in enthalpy from a file, but does not update it.">
<polygon fill="none" stroke="black" points="518,-98.5 518,-128.5 676,-128.5 676,-98.5 518,-98.5"/>
<text text-anchor="start" x="526" y="-116.5" font-family="Helvetica,sans-Serif" font-size="10.00">pism::energy::DummyEnergy</text>
<text text-anchor="middle" x="597" y="-105.5" font-family="Helvetica,sans-Serif" font-size="10.00">Model</text>
</a>
</g>
</g>
<!-- Node4&#45;&gt;Node5 -->
<g id="edge4" class="edge">
<title>Node4&#45;&gt;Node5</title>
<path fill="none" stroke="midnightblue" d="M453.43,-76.4C462.92,-78.72 472.77,-81.16 482,-83.5 500.85,-88.27 521.4,-93.64 539.81,-98.49"/>
<polygon fill="midnightblue" stroke="midnightblue" points="454.26,-73 443.72,-74.02 452.6,-79.8 454.26,-73"/>
</g>
<!-- Node6 -->
<g id="node6" class="node">
<title>Node6</title>
<g id="a_node6"><a xlink:href="classpism_1_1energy_1_1EnthalpyModel__Regional.html" target="_top" xlink:title="The enthalpy&#45;based energy balance model for regional runs.">
<polygon fill="none" stroke="black" points="518,-49.5 518,-79.5 676,-79.5 676,-49.5 518,-49.5"/>
<text text-anchor="start" x="526" y="-67.5" font-family="Helvetica,sans-Serif" font-size="10.00">pism::energy::EnthalpyModel</text>
<text text-anchor="middle" x="597" y="-56.5" font-family="Helvetica,sans-Serif" font-size="10.00">_Regional</text>
</a>
</g>
</g>
<!-- Node4&#45;&gt;Node6 -->
<g id="edge5" class="edge">
<title>Node4&#45;&gt;Node6</title>
<path fill="none" stroke="midnightblue" d="M492.15,-64.5C500.77,-64.5 509.47,-64.5 517.98,-64.5"/>
<polygon fill="midnightblue" stroke="midnightblue" points="492.09,-61 482.09,-64.5 492.09,-68 492.09,-61"/>
</g>
<!-- Node8 -->
<g id="node8" class="node">
<title>Node8</title>
<g id="a_node8"><a xlink:href="classpism_1_1energy_1_1TemperatureModel__Verification.html" target="_top" xlink:title="Temperature&#45;based energy balance model with verification&#45;specific initialization code.">
<polygon fill="none" stroke="black" points="523.5,-0.5 523.5,-30.5 670.5,-30.5 670.5,-0.5 523.5,-0.5"/>
<text text-anchor="start" x="531.5" y="-18.5" font-family="Helvetica,sans-Serif" font-size="10.00">pism::energy::Temperature</text>
<text text-anchor="middle" x="597" y="-7.5" font-family="Helvetica,sans-Serif" font-size="10.00">Model_Verification</text>
</a>
</g>
</g>
<!-- Node7&#45;&gt;Node8 -->
<g id="edge7" class="edge">
<title>Node7&#45;&gt;Node8</title>
<path fill="none" stroke="midnightblue" d="M486.73,-17.21C498.9,-17.02 511.36,-16.82 523.31,-16.64"/>
<polygon fill="midnightblue" stroke="midnightblue" points="486.53,-13.71 476.59,-17.37 486.64,-20.71 486.53,-13.71"/>
</g>
</g>
</svg>
