<?xml version="1.0" encoding="UTF-8" standalone="no"?>
<!DOCTYPE svg PUBLIC "-//W3C//DTD SVG 1.1//EN"
 "http://www.w3.org/Graphics/SVG/1.1/DTD/svg11.dtd">
<!-- Generated by graphviz version 2.43.0 (0)
 -->
<!-- Title: pism::stressbalance::SIAFD_h_y Pages: 1 -->
<svg width="203pt" height="220pt"
 viewBox="0.00 0.00 202.50 220.00" xmlns="http://www.w3.org/2000/svg" xmlns:xlink="http://www.w3.org/1999/xlink">
<g id="graph0" class="graph" transform="scale(1 1) rotate(0) translate(4 216)">
<title>pism::stressbalance::SIAFD_h_y</title>
<!-- Node1 -->
<g id="node1" class="node">
<title>Node1</title>
<g id="a_node1"><a xlink:title="Reports the y&#45;component of the ice surface gradient on the staggered grid as computed by SIAFD.">
<polygon fill="#bfbfbf" stroke="black" points="3.5,-0.5 3.5,-30.5 117.5,-30.5 117.5,-0.5 3.5,-0.5"/>
<text text-anchor="start" x="11.5" y="-18.5" font-family="Helvetica,sans-Serif" font-size="10.00">pism::stressbalance</text>
<text text-anchor="middle" x="60.5" y="-7.5" font-family="Helvetica,sans-Serif" font-size="10.00">::SIAFD_h_y</text>
</a>
</g>
</g>
<!-- Node2 -->
<g id="node2" class="node">
<title>Node2</title>
<g id="a_node2"><a xlink:href="classpism_1_1Diag.html" target="_top" xlink:title=" ">
<polygon fill="none" stroke="black" points="0,-68.5 0,-87.5 121,-87.5 121,-68.5 0,-68.5"/>
<text text-anchor="middle" x="60.5" y="-75.5" font-family="Helvetica,sans-Serif" font-size="10.00">pism::Diag&lt; SIAFD &gt;</text>
</a>
</g>
</g>
<!-- Node2&#45;&gt;Node1 -->
<g id="edge1" class="edge">
<title>Node2&#45;&gt;Node1</title>
<path fill="none" stroke="midnightblue" d="M60.5,-58.22C60.5,-49.36 60.5,-38.96 60.5,-30.76"/>
<polygon fill="midnightblue" stroke="midnightblue" points="57,-58.33 60.5,-68.33 64,-58.33 57,-58.33"/>
</g>
<!-- Node3 -->
<g id="node3" class="node">
<title>Node3</title>
<g id="a_node3"><a xlink:href="classpism_1_1Diagnostic.html" target="_top" xlink:title="Class representing diagnostic computations in PISM.">
<polygon fill="none" stroke="black" points="7.5,-192.5 7.5,-211.5 105.5,-211.5 105.5,-192.5 7.5,-192.5"/>
<text text-anchor="middle" x="56.5" y="-199.5" font-family="Helvetica,sans-Serif" font-size="10.00">pism::Diagnostic</text>
</a>
</g>
</g>
<!-- Node3&#45;&gt;Node2 -->
<g id="edge2" class="edge">
<title>Node3&#45;&gt;Node2</title>
<path fill="none" stroke="midnightblue" d="M57.12,-182.19C58,-155.4 59.57,-107.31 60.21,-87.69"/>
<polygon fill="midnightblue" stroke="midnightblue" points="53.62,-182.12 56.79,-192.23 60.61,-182.35 53.62,-182.12"/>
</g>
<!-- Node4 -->
<g id="node4" class="node">
<title>Node4</title>
<g id="a_node4"><a xlink:href="classpism_1_1Diag.html" target="_top" xlink:title="A template derived from Diagnostic, adding a &quot;Model&quot;.">
<polygon fill="none" stroke="black" points="72.5,-135.5 72.5,-154.5 194.5,-154.5 194.5,-135.5 72.5,-135.5"/>
<text text-anchor="middle" x="133.5" y="-142.5" font-family="Helvetica,sans-Serif" font-size="10.00">pism::Diag&lt; Model &gt;</text>
</a>
</g>
</g>
<!-- Node3&#45;&gt;Node4 -->
<g id="edge4" class="edge">
<title>Node3&#45;&gt;Node4</title>
<path fill="none" stroke="midnightblue" d="M76.75,-186.54C91,-176.35 109.61,-163.07 121.55,-154.53"/>
<polygon fill="midnightblue" stroke="midnightblue" points="74.63,-183.75 68.53,-192.41 78.7,-189.44 74.63,-183.75"/>
</g>
<!-- Node4&#45;&gt;Node2 -->
<g id="edge3" class="edge">
<title>Node4&#45;&gt;Node2</title>
<path fill="none" stroke="orange" stroke-dasharray="5,2" d="M115.93,-128.36C101.58,-115.58 81.83,-97.99 70.19,-87.63"/>
<polygon fill="orange" stroke="orange" points="113.86,-131.2 123.65,-135.23 118.51,-125.97 113.86,-131.2"/>
<text text-anchor="middle" x="128" y="-109" font-family="Helvetica,sans-Serif" font-size="10.00"> &lt; SIAFD &gt;</text>
</g>
</g>
</svg>
