<?xml version="1.0" encoding="UTF-8" standalone="no"?>
<!DOCTYPE svg PUBLIC "-//W3C//DTD SVG 1.1//EN"
 "http://www.w3.org/Graphics/SVG/1.1/DTD/svg11.dtd">
<!-- Generated by graphviz version 2.43.0 (0)
 -->
<!-- Title: pism::TSFluxDiagnostic Pages: 1 -->
<svg width="900pt" height="640pt"
 viewBox="0.00 0.00 900.00 640.00" xmlns="http://www.w3.org/2000/svg" xmlns:xlink="http://www.w3.org/1999/xlink">
<g id="graph0" class="graph" transform="scale(1 1) rotate(0) translate(4 636)">
<title>pism::TSFluxDiagnostic</title>
<!-- Node1 -->
<g id="node1" class="node">
<title>Node1</title>
<g id="a_node1"><a xlink:title="Scalar diagnostic reporting a &quot;flux&quot;.">
<polygon fill="#bfbfbf" stroke="black" points="315,-148 315,-167 446,-167 446,-148 315,-148"/>
<text text-anchor="middle" x="380.5" y="-155" font-family="Helvetica,sans-Serif" font-size="10.00">pism::TSFluxDiagnostic</text>
</a>
</g>
</g>
<!-- Node4 -->
<g id="node4" class="node">
<title>Node4</title>
<g id="a_node4"><a xlink:href="classpism_1_1TSDiag.html" target="_top" xlink:title=" ">
<polygon fill="none" stroke="black" points="482,-377.5 482,-407.5 662,-407.5 662,-377.5 482,-377.5"/>
<text text-anchor="start" x="490" y="-395.5" font-family="Helvetica,sans-Serif" font-size="10.00">pism::TSDiag&lt; TSFluxDiagnostic,</text>
<text text-anchor="middle" x="572" y="-384.5" font-family="Helvetica,sans-Serif" font-size="10.00"> IceModel &gt;</text>
</a>
</g>
</g>
<!-- Node1&#45;&gt;Node4 -->
<g id="edge3" class="edge">
<title>Node1&#45;&gt;Node4</title>
<path fill="none" stroke="midnightblue" d="M395.49,-174.85C431.19,-219.12 525.21,-335.71 558.83,-377.41"/>
<polygon fill="midnightblue" stroke="midnightblue" points="398.17,-172.59 389.16,-167 392.72,-176.98 398.17,-172.59"/>
</g>
<!-- Node14 -->
<g id="node14" class="node">
<title>Node14</title>
<g id="a_node14"><a xlink:href="classpism_1_1TSDiag.html" target="_top" xlink:title=" ">
<polygon fill="none" stroke="black" points="482,-142.5 482,-172.5 662,-172.5 662,-142.5 482,-142.5"/>
<text text-anchor="start" x="490" y="-160.5" font-family="Helvetica,sans-Serif" font-size="10.00">pism::TSDiag&lt; TSFluxDiagnostic,</text>
<text text-anchor="middle" x="572" y="-149.5" font-family="Helvetica,sans-Serif" font-size="10.00"> EnergyModel &gt;</text>
</a>
</g>
</g>
<!-- Node1&#45;&gt;Node14 -->
<g id="edge13" class="edge">
<title>Node1&#45;&gt;Node14</title>
<path fill="none" stroke="midnightblue" d="M456.28,-157.5C464.66,-157.5 473.26,-157.5 481.8,-157.5"/>
<polygon fill="midnightblue" stroke="midnightblue" points="456.19,-154 446.19,-157.5 456.19,-161 456.19,-154"/>
</g>
<!-- Node16 -->
<g id="node16" class="node">
<title>Node16</title>
<g id="a_node16"><a xlink:href="classpism_1_1TSDiag.html" target="_top" xlink:title=" ">
<polygon fill="none" stroke="black" points="482,-71.5 482,-101.5 662,-101.5 662,-71.5 482,-71.5"/>
<text text-anchor="start" x="490" y="-89.5" font-family="Helvetica,sans-Serif" font-size="10.00">pism::TSDiag&lt; TSFluxDiagnostic,</text>
<text text-anchor="middle" x="572" y="-78.5" font-family="Helvetica,sans-Serif" font-size="10.00"> SurfaceModel &gt;</text>
</a>
</g>
</g>
<!-- Node1&#45;&gt;Node16 -->
<g id="edge15" class="edge">
<title>Node1&#45;&gt;Node16</title>
<path fill="none" stroke="midnightblue" d="M416.55,-144.37C448.84,-132.27 496.76,-114.32 530.64,-101.62"/>
<polygon fill="midnightblue" stroke="midnightblue" points="415.19,-141.14 407.06,-147.92 417.65,-147.69 415.19,-141.14"/>
</g>
<!-- Node2 -->
<g id="node2" class="node">
<title>Node2</title>
<g id="a_node2"><a xlink:href="classpism_1_1TSRateDiagnostic.html" target="_top" xlink:title="Scalar diagnostic reporting the rate of change of a quantity modeled by PISM.">
<polygon fill="none" stroke="black" points="146,-148 146,-167 279,-167 279,-148 146,-148"/>
<text text-anchor="middle" x="212.5" y="-155" font-family="Helvetica,sans-Serif" font-size="10.00">pism::TSRateDiagnostic</text>
</a>
</g>
</g>
<!-- Node2&#45;&gt;Node1 -->
<g id="edge1" class="edge">
<title>Node2&#45;&gt;Node1</title>
<path fill="none" stroke="midnightblue" d="M289.14,-157.5C297.75,-157.5 306.46,-157.5 314.91,-157.5"/>
<polygon fill="midnightblue" stroke="midnightblue" points="289.11,-154 279.11,-157.5 289.11,-161 289.11,-154"/>
</g>
<!-- Node3 -->
<g id="node3" class="node">
<title>Node3</title>
<g id="a_node3"><a xlink:href="classpism_1_1TSDiagnostic.html" target="_top" xlink:title="PISM&#39;s scalar time&#45;series diagnostics.">
<polygon fill="none" stroke="black" points="0,-148 0,-167 110,-167 110,-148 0,-148"/>
<text text-anchor="middle" x="55" y="-155" font-family="Helvetica,sans-Serif" font-size="10.00">pism::TSDiagnostic</text>
</a>
</g>
</g>
<!-- Node3&#45;&gt;Node2 -->
<g id="edge2" class="edge">
<title>Node3&#45;&gt;Node2</title>
<path fill="none" stroke="midnightblue" d="M120.5,-157.5C128.89,-157.5 137.5,-157.5 145.92,-157.5"/>
<polygon fill="midnightblue" stroke="midnightblue" points="120.39,-154 110.39,-157.5 120.39,-161 120.39,-154"/>
</g>
<!-- Node5 -->
<g id="node5" class="node">
<title>Node5</title>
<g id="a_node5"><a xlink:href="classpism_1_1diagnostics_1_1scalar_1_1IceMassFluxAtGroundingLine.html" target="_top" xlink:title="Reports the total flux across the grounding line.">
<polygon fill="none" stroke="black" points="698,-601.5 698,-631.5 892,-631.5 892,-601.5 698,-601.5"/>
<text text-anchor="start" x="706" y="-619.5" font-family="Helvetica,sans-Serif" font-size="10.00">pism::diagnostics::</text>
<text text-anchor="middle" x="795" y="-608.5" font-family="Helvetica,sans-Serif" font-size="10.00">scalar::IceMassFluxAtGroundingLine</text>
</a>
</g>
</g>
<!-- Node4&#45;&gt;Node5 -->
<g id="edge4" class="edge">
<title>Node4&#45;&gt;Node5</title>
<path fill="none" stroke="midnightblue" d="M581.36,-417.13C597.13,-459.74 635.43,-547.01 698,-592.5 702.72,-595.93 707.89,-598.88 713.29,-601.41"/>
<polygon fill="midnightblue" stroke="midnightblue" points="584.59,-415.77 577.92,-407.55 578.01,-418.14 584.59,-415.77"/>
</g>
<!-- Node6 -->
<g id="node6" class="node">
<title>Node6</title>
<g id="a_node6"><a xlink:href="classpism_1_1diagnostics_1_1scalar_1_1IceMassFluxBasal.html" target="_top" xlink:title="Reports the total bottom surface ice flux.">
<polygon fill="none" stroke="black" points="725,-552.5 725,-582.5 865,-582.5 865,-552.5 725,-552.5"/>
<text text-anchor="start" x="733" y="-570.5" font-family="Helvetica,sans-Serif" font-size="10.00">pism::diagnostics::</text>
<text text-anchor="middle" x="795" y="-559.5" font-family="Helvetica,sans-Serif" font-size="10.00">scalar::IceMassFluxBasal</text>
</a>
</g>
</g>
<!-- Node4&#45;&gt;Node6 -->
<g id="edge5" class="edge">
<title>Node4&#45;&gt;Node6</title>
<path fill="none" stroke="midnightblue" d="M586.08,-416.36C605.81,-450.04 646.41,-511 698,-543.5 706.21,-548.67 715.48,-552.73 724.93,-555.92"/>
<polygon fill="midnightblue" stroke="midnightblue" points="589.09,-414.57 581.08,-407.64 583.02,-418.05 589.09,-414.57"/>
</g>
<!-- Node7 -->
<g id="node7" class="node">
<title>Node7</title>
<g id="a_node7"><a xlink:href="classpism_1_1diagnostics_1_1scalar_1_1IceMassFluxBasalFloating.html" target="_top" xlink:title="Reports the total sub&#45;shelf ice flux.">
<polygon fill="none" stroke="black" points="705.5,-503.5 705.5,-533.5 884.5,-533.5 884.5,-503.5 705.5,-503.5"/>
<text text-anchor="start" x="713.5" y="-521.5" font-family="Helvetica,sans-Serif" font-size="10.00">pism::diagnostics::</text>
<text text-anchor="middle" x="795" y="-510.5" font-family="Helvetica,sans-Serif" font-size="10.00">scalar::IceMassFluxBasalFloating</text>
</a>
</g>
</g>
<!-- Node4&#45;&gt;Node7 -->
<g id="edge6" class="edge">
<title>Node4&#45;&gt;Node7</title>
<path fill="none" stroke="midnightblue" d="M594.51,-415.17C617.86,-438.45 657.28,-474.09 698,-494.5 704.83,-497.93 712.19,-500.89 719.69,-503.44"/>
<polygon fill="midnightblue" stroke="midnightblue" points="596.74,-412.45 587.23,-407.78 591.76,-417.36 596.74,-412.45"/>
</g>
<!-- Node8 -->
<g id="node8" class="node">
<title>Node8</title>
<g id="a_node8"><a xlink:href="classpism_1_1diagnostics_1_1scalar_1_1IceMassFluxBasalGrounded.html" target="_top" xlink:title="Reports the total basal ice flux over the grounded region.">
<polygon fill="none" stroke="black" points="701.5,-454.5 701.5,-484.5 888.5,-484.5 888.5,-454.5 701.5,-454.5"/>
<text text-anchor="start" x="709.5" y="-472.5" font-family="Helvetica,sans-Serif" font-size="10.00">pism::diagnostics::</text>
<text text-anchor="middle" x="795" y="-461.5" font-family="Helvetica,sans-Serif" font-size="10.00">scalar::IceMassFluxBasalGrounded</text>
</a>
</g>
</g>
<!-- Node4&#45;&gt;Node8 -->
<g id="edge7" class="edge">
<title>Node4&#45;&gt;Node8</title>
<path fill="none" stroke="midnightblue" d="M613.79,-411.7C637.92,-422.58 669.29,-435.89 698,-445.5 707.61,-448.72 717.89,-451.73 728.02,-454.45"/>
<polygon fill="midnightblue" stroke="midnightblue" points="615.14,-408.47 604.58,-407.51 612.24,-414.84 615.14,-408.47"/>
</g>
<!-- Node9 -->
<g id="node9" class="node">
<title>Node9</title>
<g id="a_node9"><a xlink:href="classpism_1_1diagnostics_1_1scalar_1_1IceMassFluxCalving.html" target="_top" xlink:title="Reports the total calving flux.">
<polygon fill="none" stroke="black" points="720.5,-405.5 720.5,-435.5 869.5,-435.5 869.5,-405.5 720.5,-405.5"/>
<text text-anchor="start" x="728.5" y="-423.5" font-family="Helvetica,sans-Serif" font-size="10.00">pism::diagnostics::</text>
<text text-anchor="middle" x="795" y="-412.5" font-family="Helvetica,sans-Serif" font-size="10.00">scalar::IceMassFluxCalving</text>
</a>
</g>
</g>
<!-- Node4&#45;&gt;Node9 -->
<g id="edge8" class="edge">
<title>Node4&#45;&gt;Node9</title>
<path fill="none" stroke="midnightblue" d="M672.26,-405.08C688.43,-407.12 704.92,-409.21 720.33,-411.17"/>
<polygon fill="midnightblue" stroke="midnightblue" points="672.61,-401.59 662.25,-403.81 671.73,-408.54 672.61,-401.59"/>
</g>
<!-- Node10 -->
<g id="node10" class="node">
<title>Node10</title>
<g id="a_node10"><a xlink:href="classpism_1_1diagnostics_1_1scalar_1_1IceMassFluxConservationError.html" target="_top" xlink:title="Reports the total numerical mass flux needed to preserve non&#45;negativity of ice thickness.">
<polygon fill="none" stroke="black" points="706.5,-345 706.5,-386 883.5,-386 883.5,-345 706.5,-345"/>
<text text-anchor="start" x="714.5" y="-374" font-family="Helvetica,sans-Serif" font-size="10.00">pism::diagnostics::</text>
<text text-anchor="start" x="714.5" y="-363" font-family="Helvetica,sans-Serif" font-size="10.00">scalar::IceMassFluxConservation</text>
<text text-anchor="middle" x="795" y="-352" font-family="Helvetica,sans-Serif" font-size="10.00">Error</text>
</a>
</g>
</g>
<!-- Node4&#45;&gt;Node10 -->
<g id="edge9" class="edge">
<title>Node4&#45;&gt;Node10</title>
<path fill="none" stroke="midnightblue" d="M672.51,-380.34C683.75,-378.97 695.14,-377.58 706.21,-376.23"/>
<polygon fill="midnightblue" stroke="midnightblue" points="671.75,-376.91 662.25,-381.6 672.6,-383.86 671.75,-376.91"/>
</g>
<!-- Node11 -->
<g id="node11" class="node">
<title>Node11</title>
<g id="a_node11"><a xlink:href="classpism_1_1diagnostics_1_1scalar_1_1IceMassFluxDischarge.html" target="_top" xlink:title="Reports the total discharge flux.">
<polygon fill="none" stroke="black" points="714.5,-295.5 714.5,-325.5 875.5,-325.5 875.5,-295.5 714.5,-295.5"/>
<text text-anchor="start" x="722.5" y="-313.5" font-family="Helvetica,sans-Serif" font-size="10.00">pism::diagnostics::</text>
<text text-anchor="middle" x="795" y="-302.5" font-family="Helvetica,sans-Serif" font-size="10.00">scalar::IceMassFluxDischarge</text>
</a>
</g>
</g>
<!-- Node4&#45;&gt;Node11 -->
<g id="edge10" class="edge">
<title>Node4&#45;&gt;Node11</title>
<path fill="none" stroke="midnightblue" d="M611.46,-372.87C635.82,-360.96 668.24,-346.07 698,-335.5 708.22,-331.87 719.23,-328.51 730.01,-325.51"/>
<polygon fill="midnightblue" stroke="midnightblue" points="609.62,-369.87 602.21,-377.43 612.72,-376.15 609.62,-369.87"/>
</g>
<!-- Node12 -->
<g id="node12" class="node">
<title>Node12</title>
<g id="a_node12"><a xlink:href="classpism_1_1diagnostics_1_1scalar_1_1IceMassFluxSurface.html" target="_top" xlink:title="Reports the total top surface ice flux.">
<polygon fill="none" stroke="black" points="720.5,-246.5 720.5,-276.5 869.5,-276.5 869.5,-246.5 720.5,-246.5"/>
<text text-anchor="start" x="728.5" y="-264.5" font-family="Helvetica,sans-Serif" font-size="10.00">pism::diagnostics::</text>
<text text-anchor="middle" x="795" y="-253.5" font-family="Helvetica,sans-Serif" font-size="10.00">scalar::IceMassFluxSurface</text>
</a>
</g>
</g>
<!-- Node4&#45;&gt;Node12 -->
<g id="edge11" class="edge">
<title>Node4&#45;&gt;Node12</title>
<path fill="none" stroke="midnightblue" d="M593.31,-370.1C616.39,-345.98 656.3,-308.16 698,-286.5 705.41,-282.65 713.46,-279.36 721.64,-276.56"/>
<polygon fill="midnightblue" stroke="midnightblue" points="590.73,-367.73 586.42,-377.41 595.83,-372.53 590.73,-367.73"/>
</g>
<!-- Node13 -->
<g id="node13" class="node">
<title>Node13</title>
<g id="a_node13"><a xlink:href="classpism_1_1diagnostics_1_1scalar_1_1IceMassRateOfChangeDueToFlow.html" target="_top" xlink:title="Computes the rate of change of the total ice mass due to flow (influx due to prescribed constant&#45;in&#45;t...">
<polygon fill="none" stroke="black" points="714,-186 714,-227 876,-227 876,-186 714,-186"/>
<text text-anchor="start" x="722" y="-215" font-family="Helvetica,sans-Serif" font-size="10.00">pism::diagnostics::</text>
<text text-anchor="start" x="722" y="-204" font-family="Helvetica,sans-Serif" font-size="10.00">scalar::IceMassRateOfChange</text>
<text text-anchor="middle" x="795" y="-193" font-family="Helvetica,sans-Serif" font-size="10.00">DueToFlow</text>
</a>
</g>
</g>
<!-- Node4&#45;&gt;Node13 -->
<g id="edge12" class="edge">
<title>Node4&#45;&gt;Node13</title>
<path fill="none" stroke="midnightblue" d="M586.23,-368.47C606.14,-334.48 646.96,-272.59 698,-237.5 703.63,-233.63 709.77,-230.22 716.14,-227.22"/>
<polygon fill="midnightblue" stroke="midnightblue" points="583.12,-366.86 581.18,-377.27 589.19,-370.34 583.12,-366.86"/>
</g>
<!-- Node15 -->
<g id="node15" class="node">
<title>Node15</title>
<g id="a_node15"><a xlink:href="classpism_1_1energy_1_1LiquifiedIceFlux.html" target="_top" xlink:title="Ice loss &quot;flux&quot; due to ice liquefaction.">
<polygon fill="none" stroke="black" points="714,-148 714,-167 876,-167 876,-148 714,-148"/>
<text text-anchor="middle" x="795" y="-155" font-family="Helvetica,sans-Serif" font-size="10.00">pism::energy::LiquifiedIceFlux</text>
</a>
</g>
</g>
<!-- Node14&#45;&gt;Node15 -->
<g id="edge14" class="edge">
<title>Node14&#45;&gt;Node15</title>
<path fill="none" stroke="midnightblue" d="M672.29,-157.5C686.14,-157.5 700.24,-157.5 713.68,-157.5"/>
<polygon fill="midnightblue" stroke="midnightblue" points="672.25,-154 662.25,-157.5 672.25,-161 672.25,-154"/>
</g>
<!-- Node17 -->
<g id="node17" class="node">
<title>Node17</title>
<g id="a_node17"><a xlink:href="classpism_1_1surface_1_1diagnostics_1_1TotalSurfaceAccumulation.html" target="_top" xlink:title="Reports the total accumulation rate.">
<polygon fill="none" stroke="black" points="720.5,-98.5 720.5,-128.5 869.5,-128.5 869.5,-98.5 720.5,-98.5"/>
<text text-anchor="start" x="728.5" y="-116.5" font-family="Helvetica,sans-Serif" font-size="10.00">pism::surface::diagnostics</text>
<text text-anchor="middle" x="795" y="-105.5" font-family="Helvetica,sans-Serif" font-size="10.00">::TotalSurfaceAccumulation</text>
</a>
</g>
</g>
<!-- Node16&#45;&gt;Node17 -->
<g id="edge16" class="edge">
<title>Node16&#45;&gt;Node17</title>
<path fill="none" stroke="midnightblue" d="M672.26,-98.63C688.43,-100.6 704.92,-102.62 720.33,-104.5"/>
<polygon fill="midnightblue" stroke="midnightblue" points="672.6,-95.14 662.25,-97.4 671.75,-102.09 672.6,-95.14"/>
</g>
<!-- Node18 -->
<g id="node18" class="node">
<title>Node18</title>
<g id="a_node18"><a xlink:href="classpism_1_1surface_1_1diagnostics_1_1TotalSurfaceMelt.html" target="_top" xlink:title="Reports the total melt rate.">
<polygon fill="none" stroke="black" points="723,-49.5 723,-79.5 867,-79.5 867,-49.5 723,-49.5"/>
<text text-anchor="start" x="731" y="-67.5" font-family="Helvetica,sans-Serif" font-size="10.00">pism::surface::diagnostics</text>
<text text-anchor="middle" x="795" y="-56.5" font-family="Helvetica,sans-Serif" font-size="10.00">::TotalSurfaceMelt</text>
</a>
</g>
</g>
<!-- Node16&#45;&gt;Node18 -->
<g id="edge17" class="edge">
<title>Node16&#45;&gt;Node18</title>
<path fill="none" stroke="midnightblue" d="M672.22,-76.62C689.25,-74.93 706.64,-73.2 722.75,-71.59"/>
<polygon fill="midnightblue" stroke="midnightblue" points="671.86,-73.14 662.25,-77.62 672.55,-80.11 671.86,-73.14"/>
</g>
<!-- Node19 -->
<g id="node19" class="node">
<title>Node19</title>
<g id="a_node19"><a xlink:href="classpism_1_1surface_1_1diagnostics_1_1TotalSurfaceRunoff.html" target="_top" xlink:title="Reports the total top surface ice flux.">
<polygon fill="none" stroke="black" points="723,-0.5 723,-30.5 867,-30.5 867,-0.5 723,-0.5"/>
<text text-anchor="start" x="731" y="-18.5" font-family="Helvetica,sans-Serif" font-size="10.00">pism::surface::diagnostics</text>
<text text-anchor="middle" x="795" y="-7.5" font-family="Helvetica,sans-Serif" font-size="10.00">::TotalSurfaceRunoff</text>
</a>
</g>
</g>
<!-- Node16&#45;&gt;Node19 -->
<g id="edge18" class="edge">
<title>Node16&#45;&gt;Node19</title>
<path fill="none" stroke="midnightblue" d="M618.88,-67.81C642.33,-58.62 671.45,-47.78 698,-39.5 708.09,-36.35 718.87,-33.33 729.43,-30.56"/>
<polygon fill="midnightblue" stroke="midnightblue" points="617.55,-64.57 609.53,-71.5 620.12,-71.08 617.55,-64.57"/>
</g>
</g>
</svg>
