<?xml version="1.0" encoding="UTF-8" standalone="no"?>
<!DOCTYPE svg PUBLIC "-//W3C//DTD SVG 1.1//EN"
 "http://www.w3.org/Graphics/SVG/1.1/DTD/svg11.dtd">
<!-- Generated by graphviz version 2.43.0 (0)
 -->
<!-- Title: pism::DiagAverageRate&lt; M &gt; Pages: 1 -->
<svg width="1126pt" height="1362pt"
 viewBox="0.00 0.00 1126.00 1362.00" xmlns="http://www.w3.org/2000/svg" xmlns:xlink="http://www.w3.org/1999/xlink">
<g id="graph0" class="graph" transform="scale(1 1) rotate(0) translate(4 1358)">
<title>pism::DiagAverageRate&lt; M &gt;</title>
<!-- Node1 -->
<g id="node1" class="node">
<title>Node1</title>
<g id="a_node1"><a xlink:title=" ">
<polygon fill="#bfbfbf" stroke="black" points="466,-1047 466,-1066 629,-1066 629,-1047 466,-1047"/>
<text text-anchor="middle" x="547.5" y="-1054" font-family="Helvetica,sans-Serif" font-size="10.00">pism::DiagAverageRate&lt; M &gt;</text>
</a>
</g>
</g>
<!-- Node5 -->
<g id="node5" class="node">
<title>Node5</title>
<g id="a_node5"><a xlink:href="classpism_1_1DiagAverageRate.html" target="_top" xlink:title=" ">
<polygon fill="none" stroke="black" points="758,-1237.5 758,-1267.5 889,-1267.5 889,-1237.5 758,-1237.5"/>
<text text-anchor="start" x="766" y="-1255.5" font-family="Helvetica,sans-Serif" font-size="10.00">pism::DiagAverageRate</text>
<text text-anchor="middle" x="823.5" y="-1244.5" font-family="Helvetica,sans-Serif" font-size="10.00">&lt; SurfaceModel &gt;</text>
</a>
</g>
</g>
<!-- Node1&#45;&gt;Node5 -->
<g id="edge5" class="edge">
<title>Node1&#45;&gt;Node5</title>
<path fill="none" stroke="orange" stroke-dasharray="5,2" d="M563.13,-1073.7C581.37,-1094.49 614.16,-1129.74 647,-1154.5 693.12,-1189.27 752.95,-1220.04 789.5,-1237.45"/>
<polygon fill="orange" stroke="orange" points="565.65,-1071.27 556.46,-1066 560.36,-1075.85 565.65,-1071.27"/>
<text text-anchor="middle" x="693.5" y="-1214.5" font-family="Helvetica,sans-Serif" font-size="10.00"> &lt; SurfaceModel &gt;</text>
</g>
<!-- Node9 -->
<g id="node9" class="node">
<title>Node9</title>
<g id="a_node9"><a xlink:href="classpism_1_1DiagAverageRate.html" target="_top" xlink:title=" ">
<polygon fill="none" stroke="black" points="758,-1164.5 758,-1194.5 889,-1194.5 889,-1164.5 758,-1164.5"/>
<text text-anchor="start" x="766" y="-1182.5" font-family="Helvetica,sans-Serif" font-size="10.00">pism::DiagAverageRate</text>
<text text-anchor="middle" x="823.5" y="-1171.5" font-family="Helvetica,sans-Serif" font-size="10.00">&lt; NoGLRetreat &gt;</text>
</a>
</g>
</g>
<!-- Node1&#45;&gt;Node9 -->
<g id="edge9" class="edge">
<title>Node1&#45;&gt;Node9</title>
<path fill="none" stroke="orange" stroke-dasharray="5,2" d="M579.35,-1070.35C631.21,-1093.63 735.43,-1140.42 789.01,-1164.47"/>
<polygon fill="orange" stroke="orange" points="580.56,-1067.05 570,-1066.15 577.69,-1073.44 580.56,-1067.05"/>
<text text-anchor="middle" x="693.5" y="-1142.5" font-family="Helvetica,sans-Serif" font-size="10.00"> &lt; NoGLRetreat &gt;</text>
</g>
<!-- Node11 -->
<g id="node11" class="node">
<title>Node11</title>
<g id="a_node11"><a xlink:href="classpism_1_1DiagAverageRate.html" target="_top" xlink:title=" ">
<polygon fill="none" stroke="black" points="758,-1078.5 758,-1108.5 889,-1108.5 889,-1078.5 758,-1078.5"/>
<text text-anchor="start" x="766" y="-1096.5" font-family="Helvetica,sans-Serif" font-size="10.00">pism::DiagAverageRate</text>
<text text-anchor="middle" x="823.5" y="-1085.5" font-family="Helvetica,sans-Serif" font-size="10.00">&lt; FrontalMelt &gt;</text>
</a>
</g>
</g>
<!-- Node1&#45;&gt;Node11 -->
<g id="edge11" class="edge">
<title>Node1&#45;&gt;Node11</title>
<path fill="none" stroke="orange" stroke-dasharray="5,2" d="M629.03,-1067.37C670.06,-1072.92 719.28,-1079.56 757.81,-1084.76"/>
<polygon fill="orange" stroke="orange" points="629.44,-1063.9 619.06,-1066.03 628.5,-1070.84 629.44,-1063.9"/>
<text text-anchor="middle" x="693.5" y="-1084.5" font-family="Helvetica,sans-Serif" font-size="10.00"> &lt; FrontalMelt &gt;</text>
</g>
<!-- Node14 -->
<g id="node14" class="node">
<title>Node14</title>
<g id="a_node14"><a xlink:href="classpism_1_1DiagAverageRate.html" target="_top" xlink:title=" ">
<polygon fill="none" stroke="black" points="758,-1004.5 758,-1034.5 889,-1034.5 889,-1004.5 758,-1004.5"/>
<text text-anchor="start" x="766" y="-1022.5" font-family="Helvetica,sans-Serif" font-size="10.00">pism::DiagAverageRate</text>
<text text-anchor="middle" x="823.5" y="-1011.5" font-family="Helvetica,sans-Serif" font-size="10.00">&lt; DEBMSimple &gt;</text>
</a>
</g>
</g>
<!-- Node1&#45;&gt;Node14 -->
<g id="edge14" class="edge">
<title>Node1&#45;&gt;Node14</title>
<path fill="none" stroke="orange" stroke-dasharray="5,2" d="M629.03,-1045.63C670.06,-1040.08 719.28,-1033.44 757.81,-1028.24"/>
<polygon fill="orange" stroke="orange" points="628.5,-1042.16 619.06,-1046.97 629.44,-1049.1 628.5,-1042.16"/>
<text text-anchor="middle" x="693.5" y="-1044.5" font-family="Helvetica,sans-Serif" font-size="10.00"> &lt; DEBMSimple &gt;</text>
</g>
<!-- Node18 -->
<g id="node18" class="node">
<title>Node18</title>
<g id="a_node18"><a xlink:href="classpism_1_1DiagAverageRate.html" target="_top" xlink:title=" ">
<polygon fill="none" stroke="black" points="758,-686.5 758,-716.5 889,-716.5 889,-686.5 758,-686.5"/>
<text text-anchor="start" x="766" y="-704.5" font-family="Helvetica,sans-Serif" font-size="10.00">pism::DiagAverageRate</text>
<text text-anchor="middle" x="823.5" y="-693.5" font-family="Helvetica,sans-Serif" font-size="10.00">&lt; IceModel &gt;</text>
</a>
</g>
</g>
<!-- Node1&#45;&gt;Node18 -->
<g id="edge18" class="edge">
<title>Node1&#45;&gt;Node18</title>
<path fill="none" stroke="orange" stroke-dasharray="5,2" d="M562.32,-1038.6C609.9,-976.94 766.49,-774.07 810.75,-716.72"/>
<polygon fill="orange" stroke="orange" points="559.45,-1036.58 556.11,-1046.63 565,-1040.86 559.45,-1036.58"/>
<text text-anchor="middle" x="693.5" y="-924.5" font-family="Helvetica,sans-Serif" font-size="10.00"> &lt; IceModel &gt;</text>
</g>
<!-- Node29 -->
<g id="node29" class="node">
<title>Node29</title>
<g id="a_node29"><a xlink:href="classpism_1_1DiagAverageRate.html" target="_top" xlink:title=" ">
<polygon fill="none" stroke="black" points="758,-221.5 758,-251.5 889,-251.5 889,-221.5 758,-221.5"/>
<text text-anchor="start" x="766" y="-239.5" font-family="Helvetica,sans-Serif" font-size="10.00">pism::DiagAverageRate</text>
<text text-anchor="middle" x="823.5" y="-228.5" font-family="Helvetica,sans-Serif" font-size="10.00">&lt; Hydrology &gt;</text>
</a>
</g>
</g>
<!-- Node1&#45;&gt;Node29 -->
<g id="edge29" class="edge">
<title>Node1&#45;&gt;Node29</title>
<path fill="none" stroke="orange" stroke-dasharray="5,2" d="M555.03,-1036.95C592.92,-923.56 783.94,-351.9 817.47,-251.55"/>
<polygon fill="orange" stroke="orange" points="551.62,-1036.13 551.77,-1046.72 558.26,-1038.34 551.62,-1036.13"/>
<text text-anchor="middle" x="693.5" y="-747.5" font-family="Helvetica,sans-Serif" font-size="10.00"> &lt; Hydrology &gt;</text>
</g>
<!-- Node2 -->
<g id="node2" class="node">
<title>Node2</title>
<g id="a_node2"><a xlink:href="classpism_1_1Diag.html" target="_top" xlink:title=" ">
<polygon fill="none" stroke="black" points="328,-1047 328,-1066 429,-1066 429,-1047 328,-1047"/>
<text text-anchor="middle" x="378.5" y="-1054" font-family="Helvetica,sans-Serif" font-size="10.00">pism::Diag&lt; M &gt;</text>
</a>
</g>
</g>
<!-- Node2&#45;&gt;Node1 -->
<g id="edge1" class="edge">
<title>Node2&#45;&gt;Node1</title>
<path fill="none" stroke="midnightblue" d="M439.39,-1056.5C447.95,-1056.5 456.88,-1056.5 465.76,-1056.5"/>
<polygon fill="midnightblue" stroke="midnightblue" points="439.15,-1053 429.15,-1056.5 439.15,-1060 439.15,-1053"/>
</g>
<!-- Node3 -->
<g id="node3" class="node">
<title>Node3</title>
<g id="a_node3"><a xlink:href="classpism_1_1Diagnostic.html" target="_top" xlink:title="Class representing diagnostic computations in PISM.">
<polygon fill="none" stroke="black" points="0,-1044 0,-1063 98,-1063 98,-1044 0,-1044"/>
<text text-anchor="middle" x="49" y="-1051" font-family="Helvetica,sans-Serif" font-size="10.00">pism::Diagnostic</text>
</a>
</g>
</g>
<!-- Node3&#45;&gt;Node2 -->
<g id="edge2" class="edge">
<title>Node3&#45;&gt;Node2</title>
<path fill="none" stroke="midnightblue" d="M108.33,-1058.16C110.92,-1058.29 113.49,-1058.4 116,-1058.5 189.72,-1061.29 275.22,-1059.73 327.83,-1058.22"/>
<polygon fill="midnightblue" stroke="midnightblue" points="108.46,-1054.66 98.28,-1057.58 108.06,-1061.65 108.46,-1054.66"/>
</g>
<!-- Node4 -->
<g id="node4" class="node">
<title>Node4</title>
<g id="a_node4"><a xlink:href="classpism_1_1Diag.html" target="_top" xlink:title="A template derived from Diagnostic, adding a &quot;Model&quot;.">
<polygon fill="none" stroke="black" points="135,-1025 135,-1044 257,-1044 257,-1025 135,-1025"/>
<text text-anchor="middle" x="196" y="-1032" font-family="Helvetica,sans-Serif" font-size="10.00">pism::Diag&lt; Model &gt;</text>
</a>
</g>
</g>
<!-- Node3&#45;&gt;Node4 -->
<g id="edge4" class="edge">
<title>Node3&#45;&gt;Node4</title>
<path fill="none" stroke="midnightblue" d="M108.35,-1045.85C117.06,-1044.71 126.05,-1043.53 134.8,-1042.39"/>
<polygon fill="midnightblue" stroke="midnightblue" points="107.74,-1042.4 98.28,-1047.17 108.65,-1049.34 107.74,-1042.4"/>
</g>
<!-- Node4&#45;&gt;Node2 -->
<g id="edge3" class="edge">
<title>Node4&#45;&gt;Node2</title>
<path fill="none" stroke="orange" stroke-dasharray="5,2" d="M267.3,-1042.39C281.45,-1044.03 296.2,-1045.79 310,-1047.5 315.75,-1048.21 321.77,-1048.98 327.75,-1049.76"/>
<polygon fill="orange" stroke="orange" points="267.47,-1038.89 257.13,-1041.21 266.67,-1045.84 267.47,-1038.89"/>
<text text-anchor="middle" x="292.5" y="-1050.5" font-family="Helvetica,sans-Serif" font-size="10.00"> &lt; M &gt;</text>
</g>
<!-- Node6 -->
<g id="node6" class="node">
<title>Node6</title>
<g id="a_node6"><a xlink:href="classpism_1_1surface_1_1diagnostics_1_1Accumulation.html" target="_top" xlink:title="Report accumulation (precipitation minus rain), averaged over the reporting interval.">
<polygon fill="none" stroke="black" points="950,-1323.5 950,-1353.5 1094,-1353.5 1094,-1323.5 950,-1323.5"/>
<text text-anchor="start" x="958" y="-1341.5" font-family="Helvetica,sans-Serif" font-size="10.00">pism::surface::diagnostics</text>
<text text-anchor="middle" x="1022" y="-1330.5" font-family="Helvetica,sans-Serif" font-size="10.00">::Accumulation</text>
</a>
</g>
</g>
<!-- Node5&#45;&gt;Node6 -->
<g id="edge6" class="edge">
<title>Node5&#45;&gt;Node6</title>
<path fill="none" stroke="midnightblue" d="M853.37,-1273.38C873.02,-1286.76 900.08,-1303.61 926,-1314.5 934,-1317.86 942.58,-1320.84 951.19,-1323.45"/>
<polygon fill="midnightblue" stroke="midnightblue" points="855.1,-1270.32 844.89,-1267.51 851.12,-1276.08 855.1,-1270.32"/>
</g>
<!-- Node7 -->
<g id="node7" class="node">
<title>Node7</title>
<g id="a_node7"><a xlink:href="classpism_1_1surface_1_1diagnostics_1_1SurfaceMelt.html" target="_top" xlink:title="Report surface melt, averaged over the reporting interval.">
<polygon fill="none" stroke="black" points="950,-1274.5 950,-1304.5 1094,-1304.5 1094,-1274.5 950,-1274.5"/>
<text text-anchor="start" x="958" y="-1292.5" font-family="Helvetica,sans-Serif" font-size="10.00">pism::surface::diagnostics</text>
<text text-anchor="middle" x="1022" y="-1281.5" font-family="Helvetica,sans-Serif" font-size="10.00">::SurfaceMelt</text>
</a>
</g>
</g>
<!-- Node5&#45;&gt;Node7 -->
<g id="edge7" class="edge">
<title>Node5&#45;&gt;Node7</title>
<path fill="none" stroke="midnightblue" d="M899.31,-1266.59C915.91,-1269.71 933.46,-1273.02 949.9,-1276.11"/>
<polygon fill="midnightblue" stroke="midnightblue" points="899.59,-1263.08 889.11,-1264.67 898.29,-1269.96 899.59,-1263.08"/>
</g>
<!-- Node8 -->
<g id="node8" class="node">
<title>Node8</title>
<g id="a_node8"><a xlink:href="classpism_1_1surface_1_1diagnostics_1_1SurfaceRunoff.html" target="_top" xlink:title="Report surface runoff, averaged over the reporting interval.">
<polygon fill="none" stroke="black" points="950,-1225.5 950,-1255.5 1094,-1255.5 1094,-1225.5 950,-1225.5"/>
<text text-anchor="start" x="958" y="-1243.5" font-family="Helvetica,sans-Serif" font-size="10.00">pism::surface::diagnostics</text>
<text text-anchor="middle" x="1022" y="-1232.5" font-family="Helvetica,sans-Serif" font-size="10.00">::SurfaceRunoff</text>
</a>
</g>
</g>
<!-- Node5&#45;&gt;Node8 -->
<g id="edge8" class="edge">
<title>Node5&#45;&gt;Node8</title>
<path fill="none" stroke="midnightblue" d="M899.31,-1247.93C915.91,-1246.92 933.46,-1245.85 949.9,-1244.84"/>
<polygon fill="midnightblue" stroke="midnightblue" points="898.88,-1244.45 889.11,-1248.55 899.31,-1251.44 898.88,-1244.45"/>
</g>
<!-- Node10 -->
<g id="node10" class="node">
<title>Node10</title>
<g id="a_node10"><a xlink:href="classpism_1_1surface_1_1diagnostics_1_1SMBAdjustment.html" target="_top" xlink:title=" ">
<polygon fill="none" stroke="black" points="950,-1176.5 950,-1206.5 1094,-1206.5 1094,-1176.5 950,-1176.5"/>
<text text-anchor="start" x="958" y="-1194.5" font-family="Helvetica,sans-Serif" font-size="10.00">pism::surface::diagnostics</text>
<text text-anchor="middle" x="1022" y="-1183.5" font-family="Helvetica,sans-Serif" font-size="10.00">::SMBAdjustment</text>
</a>
</g>
</g>
<!-- Node9&#45;&gt;Node10 -->
<g id="edge10" class="edge">
<title>Node9&#45;&gt;Node10</title>
<path fill="none" stroke="midnightblue" d="M899.31,-1184.07C915.91,-1185.08 933.46,-1186.15 949.9,-1187.16"/>
<polygon fill="midnightblue" stroke="midnightblue" points="899.31,-1180.56 889.11,-1183.45 898.88,-1187.55 899.31,-1180.56"/>
</g>
<!-- Node12 -->
<g id="node12" class="node">
<title>Node12</title>
<g id="a_node12"><a xlink:href="classpism_1_1frontalmelt_1_1diagnostics_1_1FrontalMeltRate.html" target="_top" xlink:title="Report frontal melt rate.">
<polygon fill="none" stroke="black" points="944,-1127.5 944,-1157.5 1100,-1157.5 1100,-1127.5 944,-1127.5"/>
<text text-anchor="start" x="952" y="-1145.5" font-family="Helvetica,sans-Serif" font-size="10.00">pism::frontalmelt::</text>
<text text-anchor="middle" x="1022" y="-1134.5" font-family="Helvetica,sans-Serif" font-size="10.00">diagnostics::FrontalMeltRate</text>
</a>
</g>
</g>
<!-- Node11&#45;&gt;Node12 -->
<g id="edge12" class="edge">
<title>Node11&#45;&gt;Node12</title>
<path fill="none" stroke="midnightblue" d="M894.59,-1110.98C916.24,-1116.38 939.9,-1122.28 960.82,-1127.49"/>
<polygon fill="midnightblue" stroke="midnightblue" points="895.34,-1107.56 884.79,-1108.53 893.65,-1114.35 895.34,-1107.56"/>
</g>
<!-- Node13 -->
<g id="node13" class="node">
<title>Node13</title>
<g id="a_node13"><a xlink:href="classpism_1_1frontalmelt_1_1diagnostics_1_1FrontalMeltRetreatRate.html" target="_top" xlink:title="Report retreat rate due to frontal melt.">
<polygon fill="none" stroke="black" points="926,-1078.5 926,-1108.5 1118,-1108.5 1118,-1078.5 926,-1078.5"/>
<text text-anchor="start" x="934" y="-1096.5" font-family="Helvetica,sans-Serif" font-size="10.00">pism::frontalmelt::</text>
<text text-anchor="middle" x="1022" y="-1085.5" font-family="Helvetica,sans-Serif" font-size="10.00">diagnostics::FrontalMeltRetreatRate</text>
</a>
</g>
</g>
<!-- Node11&#45;&gt;Node13 -->
<g id="edge13" class="edge">
<title>Node11&#45;&gt;Node13</title>
<path fill="none" stroke="midnightblue" d="M899.18,-1093.5C907.87,-1093.5 916.82,-1093.5 925.74,-1093.5"/>
<polygon fill="midnightblue" stroke="midnightblue" points="899.11,-1090 889.11,-1093.5 899.11,-1097 899.11,-1090"/>
</g>
<!-- Node15 -->
<g id="node15" class="node">
<title>Node15</title>
<g id="a_node15"><a xlink:href="classpism_1_1surface_1_1diagnostics_1_1DEBMSBackroundMelt.html" target="_top" xlink:title="Report surface backround melt, averaged over the reporting interval.">
<polygon fill="none" stroke="black" points="950,-1029.5 950,-1059.5 1094,-1059.5 1094,-1029.5 950,-1029.5"/>
<text text-anchor="start" x="958" y="-1047.5" font-family="Helvetica,sans-Serif" font-size="10.00">pism::surface::diagnostics</text>
<text text-anchor="middle" x="1022" y="-1036.5" font-family="Helvetica,sans-Serif" font-size="10.00">::DEBMSBackroundMelt</text>
</a>
</g>
</g>
<!-- Node14&#45;&gt;Node15 -->
<g id="edge15" class="edge">
<title>Node14&#45;&gt;Node15</title>
<path fill="none" stroke="midnightblue" d="M899.31,-1029.02C915.91,-1031.13 933.46,-1033.36 949.9,-1035.45"/>
<polygon fill="midnightblue" stroke="midnightblue" points="899.48,-1025.51 889.11,-1027.72 898.59,-1032.45 899.48,-1025.51"/>
</g>
<!-- Node16 -->
<g id="node16" class="node">
<title>Node16</title>
<g id="a_node16"><a xlink:href="classpism_1_1surface_1_1diagnostics_1_1DEBMSInsolationMelt.html" target="_top" xlink:title="Report surface insolation melt, averaged over the reporting interval.">
<polygon fill="none" stroke="black" points="950,-980.5 950,-1010.5 1094,-1010.5 1094,-980.5 950,-980.5"/>
<text text-anchor="start" x="958" y="-998.5" font-family="Helvetica,sans-Serif" font-size="10.00">pism::surface::diagnostics</text>
<text text-anchor="middle" x="1022" y="-987.5" font-family="Helvetica,sans-Serif" font-size="10.00">::DEBMSInsolationMelt</text>
</a>
</g>
</g>
<!-- Node14&#45;&gt;Node16 -->
<g id="edge16" class="edge">
<title>Node14&#45;&gt;Node16</title>
<path fill="none" stroke="midnightblue" d="M899.31,-1010.36C915.91,-1008.34 933.46,-1006.19 949.9,-1004.18"/>
<polygon fill="midnightblue" stroke="midnightblue" points="898.62,-1006.92 889.11,-1011.61 899.46,-1013.87 898.62,-1006.92"/>
</g>
<!-- Node17 -->
<g id="node17" class="node">
<title>Node17</title>
<g id="a_node17"><a xlink:href="classpism_1_1surface_1_1diagnostics_1_1DEBMSTemperatureMelt.html" target="_top" xlink:title="Report surface temperature melt, averaged over the reporting interval.">
<polygon fill="none" stroke="black" points="950,-931.5 950,-961.5 1094,-961.5 1094,-931.5 950,-931.5"/>
<text text-anchor="start" x="958" y="-949.5" font-family="Helvetica,sans-Serif" font-size="10.00">pism::surface::diagnostics</text>
<text text-anchor="middle" x="1022" y="-938.5" font-family="Helvetica,sans-Serif" font-size="10.00">::DEBMSTemperatureMelt</text>
</a>
</g>
</g>
<!-- Node14&#45;&gt;Node17 -->
<g id="edge17" class="edge">
<title>Node14&#45;&gt;Node17</title>
<path fill="none" stroke="midnightblue" d="M860.76,-999.78C879.79,-990.01 903.72,-978.6 926,-970.5 935.03,-967.22 944.71,-964.21 954.3,-961.53"/>
<polygon fill="midnightblue" stroke="midnightblue" points="859.1,-996.7 851.85,-1004.43 862.33,-1002.91 859.1,-996.7"/>
</g>
<!-- Node19 -->
<g id="node19" class="node">
<title>Node19</title>
<g id="a_node19"><a xlink:href="classpism_1_1diagnostics_1_1BMBSplit.html" target="_top" xlink:title="Report average basal mass balance flux over the reporting interval (grounded or floating areas)">
<polygon fill="none" stroke="black" points="968,-882.5 968,-912.5 1076,-912.5 1076,-882.5 968,-882.5"/>
<text text-anchor="start" x="976" y="-900.5" font-family="Helvetica,sans-Serif" font-size="10.00">pism::diagnostics::</text>
<text text-anchor="middle" x="1022" y="-889.5" font-family="Helvetica,sans-Serif" font-size="10.00">BMBSplit</text>
</a>
</g>
</g>
<!-- Node18&#45;&gt;Node19 -->
<g id="edge19" class="edge">
<title>Node18&#45;&gt;Node19</title>
<path fill="none" stroke="midnightblue" d="M832.39,-726.4C845.58,-763.92 875.74,-834.59 926,-872.5 938.12,-881.64 953.29,-887.45 967.93,-891.13"/>
<polygon fill="midnightblue" stroke="midnightblue" points="835.64,-725.1 829.11,-716.75 829.01,-727.35 835.64,-725.1"/>
</g>
<!-- Node20 -->
<g id="node20" class="node">
<title>Node20</title>
<g id="a_node20"><a xlink:href="classpism_1_1diagnostics_1_1BasalFlux.html" target="_top" xlink:title="Report basal mass balance flux, averaged over the reporting interval.">
<polygon fill="none" stroke="black" points="968,-833.5 968,-863.5 1076,-863.5 1076,-833.5 968,-833.5"/>
<text text-anchor="start" x="976" y="-851.5" font-family="Helvetica,sans-Serif" font-size="10.00">pism::diagnostics::</text>
<text text-anchor="middle" x="1022" y="-840.5" font-family="Helvetica,sans-Serif" font-size="10.00">BasalFlux</text>
</a>
</g>
</g>
<!-- Node18&#45;&gt;Node20 -->
<g id="edge20" class="edge">
<title>Node18&#45;&gt;Node20</title>
<path fill="none" stroke="midnightblue" d="M838.12,-725.57C855.11,-753.38 886.75,-798.5 926,-823.5 938.51,-831.47 953.5,-836.91 967.82,-840.62"/>
<polygon fill="midnightblue" stroke="midnightblue" points="841.06,-723.66 832.93,-716.86 835.04,-727.24 841.06,-723.66"/>
</g>
<!-- Node21 -->
<g id="node21" class="node">
<title>Node21</title>
<g id="a_node21"><a xlink:href="classpism_1_1diagnostics_1_1CalvingFlux.html" target="_top" xlink:title="Report the calving flux.">
<polygon fill="none" stroke="black" points="968,-784.5 968,-814.5 1076,-814.5 1076,-784.5 968,-784.5"/>
<text text-anchor="start" x="976" y="-802.5" font-family="Helvetica,sans-Serif" font-size="10.00">pism::diagnostics::</text>
<text text-anchor="middle" x="1022" y="-791.5" font-family="Helvetica,sans-Serif" font-size="10.00">CalvingFlux</text>
</a>
</g>
</g>
<!-- Node18&#45;&gt;Node21 -->
<g id="edge21" class="edge">
<title>Node18&#45;&gt;Node21</title>
<path fill="none" stroke="midnightblue" d="M849.04,-723.12C868.65,-739.37 897.48,-761.06 926,-774.5 938.96,-780.61 953.64,-785.4 967.52,-789.08"/>
<polygon fill="midnightblue" stroke="midnightblue" points="851.13,-720.3 841.23,-716.53 846.61,-725.65 851.13,-720.3"/>
</g>
<!-- Node22 -->
<g id="node22" class="node">
<title>Node22</title>
<g id="a_node22"><a xlink:href="classpism_1_1diagnostics_1_1ConservationErrorFlux.html" target="_top" xlink:title=" ">
<polygon fill="none" stroke="black" points="959.5,-735.5 959.5,-765.5 1084.5,-765.5 1084.5,-735.5 959.5,-735.5"/>
<text text-anchor="start" x="967.5" y="-753.5" font-family="Helvetica,sans-Serif" font-size="10.00">pism::diagnostics::</text>
<text text-anchor="middle" x="1022" y="-742.5" font-family="Helvetica,sans-Serif" font-size="10.00">ConservationErrorFlux</text>
</a>
</g>
</g>
<!-- Node18&#45;&gt;Node22 -->
<g id="edge22" class="edge">
<title>Node18&#45;&gt;Node22</title>
<path fill="none" stroke="midnightblue" d="M894.59,-718.98C916.24,-724.38 939.9,-730.28 960.82,-735.49"/>
<polygon fill="midnightblue" stroke="midnightblue" points="895.34,-715.56 884.79,-716.53 893.65,-722.35 895.34,-715.56"/>
</g>
<!-- Node23 -->
<g id="node23" class="node">
<title>Node23</title>
<g id="a_node23"><a xlink:href="classpism_1_1diagnostics_1_1DischargeFlux.html" target="_top" xlink:title="Report discharge (calving and frontal melt) flux.">
<polygon fill="none" stroke="black" points="968,-686.5 968,-716.5 1076,-716.5 1076,-686.5 968,-686.5"/>
<text text-anchor="start" x="976" y="-704.5" font-family="Helvetica,sans-Serif" font-size="10.00">pism::diagnostics::</text>
<text text-anchor="middle" x="1022" y="-693.5" font-family="Helvetica,sans-Serif" font-size="10.00">DischargeFlux</text>
</a>
</g>
</g>
<!-- Node18&#45;&gt;Node23 -->
<g id="edge23" class="edge">
<title>Node18&#45;&gt;Node23</title>
<path fill="none" stroke="midnightblue" d="M899.13,-701.5C922,-701.5 946.69,-701.5 967.82,-701.5"/>
<polygon fill="midnightblue" stroke="midnightblue" points="899.11,-698 889.11,-701.5 899.11,-705 899.11,-698"/>
</g>
<!-- Node24 -->
<g id="node24" class="node">
<title>Node24</title>
<g id="a_node24"><a xlink:href="classpism_1_1diagnostics_1_1ForcedRetreatFlux.html" target="_top" xlink:title="Report the frontal melt flux.">
<polygon fill="none" stroke="black" points="968,-637.5 968,-667.5 1076,-667.5 1076,-637.5 968,-637.5"/>
<text text-anchor="start" x="976" y="-655.5" font-family="Helvetica,sans-Serif" font-size="10.00">pism::diagnostics::</text>
<text text-anchor="middle" x="1022" y="-644.5" font-family="Helvetica,sans-Serif" font-size="10.00">ForcedRetreatFlux</text>
</a>
</g>
</g>
<!-- Node18&#45;&gt;Node24 -->
<g id="edge24" class="edge">
<title>Node18&#45;&gt;Node24</title>
<path fill="none" stroke="midnightblue" d="M894.6,-684.02C918.7,-678.01 945.28,-671.38 967.81,-665.76"/>
<polygon fill="midnightblue" stroke="midnightblue" points="893.65,-680.65 884.79,-686.47 895.34,-687.44 893.65,-680.65"/>
</g>
<!-- Node25 -->
<g id="node25" class="node">
<title>Node25</title>
<g id="a_node25"><a xlink:href="classpism_1_1diagnostics_1_1FrontalMeltFlux.html" target="_top" xlink:title="Report the frontal melt flux.">
<polygon fill="none" stroke="black" points="968,-588.5 968,-618.5 1076,-618.5 1076,-588.5 968,-588.5"/>
<text text-anchor="start" x="976" y="-606.5" font-family="Helvetica,sans-Serif" font-size="10.00">pism::diagnostics::</text>
<text text-anchor="middle" x="1022" y="-595.5" font-family="Helvetica,sans-Serif" font-size="10.00">FrontalMeltFlux</text>
</a>
</g>
</g>
<!-- Node18&#45;&gt;Node25 -->
<g id="edge25" class="edge">
<title>Node18&#45;&gt;Node25</title>
<path fill="none" stroke="midnightblue" d="M848.6,-679.79C868.17,-663.23 897.15,-641.04 926,-627.5 939.09,-621.36 953.96,-616.65 967.99,-613.1"/>
<polygon fill="midnightblue" stroke="midnightblue" points="846.11,-677.32 840.82,-686.5 850.68,-682.62 846.11,-677.32"/>
</g>
<!-- Node26 -->
<g id="node26" class="node">
<title>Node26</title>
<g id="a_node26"><a xlink:href="classpism_1_1diagnostics_1_1GroundingLineFlux.html" target="_top" xlink:title="Report grounding line flux.">
<polygon fill="none" stroke="black" points="968,-539.5 968,-569.5 1076,-569.5 1076,-539.5 968,-539.5"/>
<text text-anchor="start" x="976" y="-557.5" font-family="Helvetica,sans-Serif" font-size="10.00">pism::diagnostics::</text>
<text text-anchor="middle" x="1022" y="-546.5" font-family="Helvetica,sans-Serif" font-size="10.00">GroundingLineFlux</text>
</a>
</g>
</g>
<!-- Node18&#45;&gt;Node26 -->
<g id="edge26" class="edge">
<title>Node18&#45;&gt;Node26</title>
<path fill="none" stroke="midnightblue" d="M837.76,-677.61C854.59,-649.54 886.27,-603.64 926,-578.5 938.51,-570.59 953.48,-565.28 967.81,-561.72"/>
<polygon fill="midnightblue" stroke="midnightblue" points="834.65,-675.98 832.63,-686.38 840.7,-679.52 834.65,-675.98"/>
</g>
<!-- Node27 -->
<g id="node27" class="node">
<title>Node27</title>
<g id="a_node27"><a xlink:href="classpism_1_1diagnostics_1_1SurfaceFlux.html" target="_top" xlink:title="Report surface mass balance flux, averaged over the reporting interval.">
<polygon fill="none" stroke="black" points="968,-490.5 968,-520.5 1076,-520.5 1076,-490.5 968,-490.5"/>
<text text-anchor="start" x="976" y="-508.5" font-family="Helvetica,sans-Serif" font-size="10.00">pism::diagnostics::</text>
<text text-anchor="middle" x="1022" y="-497.5" font-family="Helvetica,sans-Serif" font-size="10.00">SurfaceFlux</text>
</a>
</g>
</g>
<!-- Node18&#45;&gt;Node27 -->
<g id="edge27" class="edge">
<title>Node18&#45;&gt;Node27</title>
<path fill="none" stroke="midnightblue" d="M832.2,-676.68C845.22,-638.93 875.26,-567.48 926,-529.5 938.12,-520.43 953.3,-514.76 967.94,-511.23"/>
<polygon fill="midnightblue" stroke="midnightblue" points="828.81,-675.78 828.98,-686.37 835.45,-677.99 828.81,-675.78"/>
</g>
<!-- Node28 -->
<g id="node28" class="node">
<title>Node28</title>
<g id="a_node28"><a xlink:href="classpism_1_1diagnostics_1_1TendencyOfIceAmountDueToFlow.html" target="_top" xlink:title="Computes tendency_of_ice_amount_due_to_flow, the rate of change of ice amount due to flow.">
<polygon fill="none" stroke="black" points="932.5,-441.5 932.5,-471.5 1111.5,-471.5 1111.5,-441.5 932.5,-441.5"/>
<text text-anchor="start" x="940.5" y="-459.5" font-family="Helvetica,sans-Serif" font-size="10.00">pism::diagnostics::</text>
<text text-anchor="middle" x="1022" y="-448.5" font-family="Helvetica,sans-Serif" font-size="10.00">TendencyOfIceAmountDueToFlow</text>
</a>
</g>
</g>
<!-- Node18&#45;&gt;Node28 -->
<g id="edge28" class="edge">
<title>Node18&#45;&gt;Node28</title>
<path fill="none" stroke="midnightblue" d="M828.73,-676.43C837.84,-630.36 863.8,-532.24 926,-480.5 930.05,-477.13 934.52,-474.22 939.24,-471.71"/>
<polygon fill="midnightblue" stroke="midnightblue" points="825.25,-675.98 826.85,-686.45 832.13,-677.27 825.25,-675.98"/>
</g>
<!-- Node30 -->
<g id="node30" class="node">
<title>Node30</title>
<g id="a_node30"><a xlink:href="classpism_1_1hydrology_1_1diagnostics_1_1ConservationErrorFlux.html" target="_top" xlink:title="Report subglacial water conservation error flux (mass added to preserve non&#45;negativity).">
<polygon fill="none" stroke="black" points="944,-392.5 944,-422.5 1100,-422.5 1100,-392.5 944,-392.5"/>
<text text-anchor="start" x="952" y="-410.5" font-family="Helvetica,sans-Serif" font-size="10.00">pism::hydrology::diagnostics</text>
<text text-anchor="middle" x="1022" y="-399.5" font-family="Helvetica,sans-Serif" font-size="10.00">::ConservationErrorFlux</text>
</a>
</g>
</g>
<!-- Node29&#45;&gt;Node30 -->
<g id="edge30" class="edge">
<title>Node29&#45;&gt;Node30</title>
<path fill="none" stroke="midnightblue" d="M834.81,-260.84C849.94,-293.56 881.29,-351.23 926,-382.5 931.59,-386.41 937.75,-389.71 944.17,-392.49"/>
<polygon fill="midnightblue" stroke="midnightblue" points="837.93,-259.23 830.64,-251.54 831.54,-262.1 837.93,-259.23"/>
</g>
<!-- Node31 -->
<g id="node31" class="node">
<title>Node31</title>
<g id="a_node31"><a xlink:href="classpism_1_1hydrology_1_1diagnostics_1_1DomainBoundaryFlux.html" target="_top" xlink:title="Report subglacial water flux at domain boundary (in regional model configurations).">
<polygon fill="none" stroke="black" points="944,-343.5 944,-373.5 1100,-373.5 1100,-343.5 944,-343.5"/>
<text text-anchor="start" x="952" y="-361.5" font-family="Helvetica,sans-Serif" font-size="10.00">pism::hydrology::diagnostics</text>
<text text-anchor="middle" x="1022" y="-350.5" font-family="Helvetica,sans-Serif" font-size="10.00">::DomainBoundaryFlux</text>
</a>
</g>
</g>
<!-- Node29&#45;&gt;Node31 -->
<g id="edge31" class="edge">
<title>Node29&#45;&gt;Node31</title>
<path fill="none" stroke="midnightblue" d="M842.7,-259.69C861.32,-281.86 892.24,-314.61 926,-333.5 932.85,-337.33 940.3,-340.59 947.92,-343.36"/>
<polygon fill="midnightblue" stroke="midnightblue" points="845.24,-257.27 836.19,-251.77 839.84,-261.71 845.24,-257.27"/>
</g>
<!-- Node32 -->
<g id="node32" class="node">
<title>Node32</title>
<g id="a_node32"><a xlink:href="classpism_1_1hydrology_1_1diagnostics_1_1GroundedMarginFlux.html" target="_top" xlink:title="Report water flux at the grounded margin.">
<polygon fill="none" stroke="black" points="944,-294.5 944,-324.5 1100,-324.5 1100,-294.5 944,-294.5"/>
<text text-anchor="start" x="952" y="-312.5" font-family="Helvetica,sans-Serif" font-size="10.00">pism::hydrology::diagnostics</text>
<text text-anchor="middle" x="1022" y="-301.5" font-family="Helvetica,sans-Serif" font-size="10.00">::GroundedMarginFlux</text>
</a>
</g>
</g>
<!-- Node29&#45;&gt;Node32 -->
<g id="edge32" class="edge">
<title>Node29&#45;&gt;Node32</title>
<path fill="none" stroke="midnightblue" d="M861.91,-256.22C880.78,-265.64 904.22,-276.56 926,-284.5 936.01,-288.15 946.8,-291.51 957.39,-294.5"/>
<polygon fill="midnightblue" stroke="midnightblue" points="863.28,-252.99 852.77,-251.6 860.12,-259.24 863.28,-252.99"/>
</g>
<!-- Node33 -->
<g id="node33" class="node">
<title>Node33</title>
<g id="a_node33"><a xlink:href="classpism_1_1hydrology_1_1diagnostics_1_1GroundingLineFlux.html" target="_top" xlink:title="Report subglacial water flux at grounding lines.">
<polygon fill="none" stroke="black" points="944,-245.5 944,-275.5 1100,-275.5 1100,-245.5 944,-245.5"/>
<text text-anchor="start" x="952" y="-263.5" font-family="Helvetica,sans-Serif" font-size="10.00">pism::hydrology::diagnostics</text>
<text text-anchor="middle" x="1022" y="-252.5" font-family="Helvetica,sans-Serif" font-size="10.00">::GroundingLineFlux</text>
</a>
</g>
</g>
<!-- Node29&#45;&gt;Node33 -->
<g id="edge33" class="edge">
<title>Node29&#45;&gt;Node33</title>
<path fill="none" stroke="midnightblue" d="M899.08,-245.61C913.68,-247.39 929.01,-249.26 943.69,-251.06"/>
<polygon fill="midnightblue" stroke="midnightblue" points="899.46,-242.13 889.11,-244.39 898.62,-249.08 899.46,-242.13"/>
</g>
<!-- Node34 -->
<g id="node34" class="node">
<title>Node34</title>
<g id="a_node34"><a xlink:href="classpism_1_1hydrology_1_1diagnostics_1_1SubglacialWaterFlux.html" target="_top" xlink:title="Report advective subglacial water flux.">
<polygon fill="none" stroke="black" points="944,-196.5 944,-226.5 1100,-226.5 1100,-196.5 944,-196.5"/>
<text text-anchor="start" x="952" y="-214.5" font-family="Helvetica,sans-Serif" font-size="10.00">pism::hydrology::diagnostics</text>
<text text-anchor="middle" x="1022" y="-203.5" font-family="Helvetica,sans-Serif" font-size="10.00">::SubglacialWaterFlux</text>
</a>
</g>
</g>
<!-- Node29&#45;&gt;Node34 -->
<g id="edge34" class="edge">
<title>Node29&#45;&gt;Node34</title>
<path fill="none" stroke="midnightblue" d="M899.08,-227.01C913.68,-225.15 929.01,-223.2 943.69,-221.34"/>
<polygon fill="midnightblue" stroke="midnightblue" points="898.59,-223.55 889.11,-228.28 899.48,-230.49 898.59,-223.55"/>
</g>
<!-- Node35 -->
<g id="node35" class="node">
<title>Node35</title>
<g id="a_node35"><a xlink:href="classpism_1_1hydrology_1_1diagnostics_1_1TendencyOfWaterMass.html" target="_top" xlink:title=" ">
<polygon fill="none" stroke="black" points="944,-147.5 944,-177.5 1100,-177.5 1100,-147.5 944,-147.5"/>
<text text-anchor="start" x="952" y="-165.5" font-family="Helvetica,sans-Serif" font-size="10.00">pism::hydrology::diagnostics</text>
<text text-anchor="middle" x="1022" y="-154.5" font-family="Helvetica,sans-Serif" font-size="10.00">::TendencyOfWaterMass</text>
</a>
</g>
</g>
<!-- Node29&#45;&gt;Node35 -->
<g id="edge35" class="edge">
<title>Node29&#45;&gt;Node35</title>
<path fill="none" stroke="midnightblue" d="M860.31,-216.55C879.39,-206.53 903.5,-194.78 926,-186.5 934.94,-183.21 944.52,-180.21 954.02,-177.53"/>
<polygon fill="midnightblue" stroke="midnightblue" points="858.56,-213.52 851.38,-221.32 861.85,-219.7 858.56,-213.52"/>
</g>
<!-- Node36 -->
<g id="node36" class="node">
<title>Node36</title>
<g id="a_node36"><a xlink:href="classpism_1_1hydrology_1_1diagnostics_1_1TendencyOfWaterMassDueToFlow.html" target="_top" xlink:title="Report water flux at the grounded margin.">
<polygon fill="none" stroke="black" points="928.5,-98.5 928.5,-128.5 1115.5,-128.5 1115.5,-98.5 928.5,-98.5"/>
<text text-anchor="start" x="936.5" y="-116.5" font-family="Helvetica,sans-Serif" font-size="10.00">pism::hydrology::diagnostics</text>
<text text-anchor="middle" x="1022" y="-105.5" font-family="Helvetica,sans-Serif" font-size="10.00">::TendencyOfWaterMassDueToFlow</text>
</a>
</g>
</g>
<!-- Node29&#45;&gt;Node36 -->
<g id="edge36" class="edge">
<title>Node29&#45;&gt;Node36</title>
<path fill="none" stroke="midnightblue" d="M842.25,-213.12C860.73,-190.43 891.71,-156.69 926,-137.5 932.09,-134.09 938.66,-131.16 945.41,-128.64"/>
<polygon fill="midnightblue" stroke="midnightblue" points="839.29,-211.22 835.8,-221.23 844.77,-215.58 839.29,-211.22"/>
</g>
<!-- Node37 -->
<g id="node37" class="node">
<title>Node37</title>
<g id="a_node37"><a xlink:href="classpism_1_1hydrology_1_1diagnostics_1_1TotalInputRate.html" target="_top" xlink:title="Report water input rate from the ice surface into the subglacial water system.">
<polygon fill="none" stroke="black" points="944,-49.5 944,-79.5 1100,-79.5 1100,-49.5 944,-49.5"/>
<text text-anchor="start" x="952" y="-67.5" font-family="Helvetica,sans-Serif" font-size="10.00">pism::hydrology::diagnostics</text>
<text text-anchor="middle" x="1022" y="-56.5" font-family="Helvetica,sans-Serif" font-size="10.00">::TotalInputRate</text>
</a>
</g>
</g>
<!-- Node29&#45;&gt;Node37 -->
<g id="edge37" class="edge">
<title>Node29&#45;&gt;Node37</title>
<path fill="none" stroke="midnightblue" d="M834.68,-211.76C849.65,-178.52 880.83,-119.98 926,-88.5 931.44,-84.71 937.43,-81.51 943.68,-78.82"/>
<polygon fill="midnightblue" stroke="midnightblue" points="831.35,-210.65 830.55,-221.21 837.76,-213.45 831.35,-210.65"/>
</g>
<!-- Node38 -->
<g id="node38" class="node">
<title>Node38</title>
<g id="a_node38"><a xlink:href="classpism_1_1hydrology_1_1diagnostics_1_1WaterInputFlux.html" target="_top" xlink:title="Report water flux due to input (basal melt and drainage from the surface).">
<polygon fill="none" stroke="black" points="944,-0.5 944,-30.5 1100,-30.5 1100,-0.5 944,-0.5"/>
<text text-anchor="start" x="952" y="-18.5" font-family="Helvetica,sans-Serif" font-size="10.00">pism::hydrology::diagnostics</text>
<text text-anchor="middle" x="1022" y="-7.5" font-family="Helvetica,sans-Serif" font-size="10.00">::WaterInputFlux</text>
</a>
</g>
</g>
<!-- Node29&#45;&gt;Node38 -->
<g id="edge38" class="edge">
<title>Node29&#45;&gt;Node38</title>
<path fill="none" stroke="midnightblue" d="M830.18,-211.75C841.15,-169.7 869.34,-84.5 926,-39.5 931.33,-35.27 937.31,-31.77 943.61,-28.89"/>
<polygon fill="midnightblue" stroke="midnightblue" points="826.78,-210.91 827.75,-221.46 833.57,-212.61 826.78,-210.91"/>
</g>
</g>
</svg>
