<?xml version="1.0" encoding="UTF-8" standalone="no"?>
<!DOCTYPE svg PUBLIC "-//W3C//DTD SVG 1.1//EN"
 "http://www.w3.org/Graphics/SVG/1.1/DTD/svg11.dtd">
<!-- Generated by graphviz version 2.43.0 (0)
 -->
<!-- Title: pism::fem::Element Pages: 1 -->
<svg width="440pt" height="137pt"
 viewBox="0.00 0.00 439.50 137.00" xmlns="http://www.w3.org/2000/svg" xmlns:xlink="http://www.w3.org/1999/xlink">
<g id="graph0" class="graph" transform="scale(1 1) rotate(0) translate(4 133)">
<title>pism::fem::Element</title>
<!-- Node1 -->
<g id="Node000001" class="node">
<title>Node1</title>
<g id="a_Node000001"><a xlink:title="The mapping from global to local degrees of freedom.">
<polygon fill="#999999" stroke="#666666" points="340,-129 227,-129 227,-110 340,-110 340,-129"/>
<text text-anchor="middle" x="283.5" y="-117" font-family="Helvetica,sans-Serif" font-size="10.00">pism::fem::Element</text>
</a>
</g>
</g>
<!-- Node2 -->
<g id="Node000002" class="node">
<title>Node2</title>
<g id="a_Node000002"><a xlink:href="classpism_1_1fem_1_1Element2.html" target="_top" xlink:title=" ">
<polygon fill="white" stroke="#666666" points="275,-74 156,-74 156,-55 275,-55 275,-74"/>
<text text-anchor="middle" x="215.5" y="-62" font-family="Helvetica,sans-Serif" font-size="10.00">pism::fem::Element2</text>
</a>
</g>
</g>
<!-- Node1&#45;&gt;Node2 -->
<g id="edge1_Node000001_Node000002" class="edge">
<title>Node1&#45;&gt;Node2</title>
<g id="a_edge1_Node000001_Node000002"><a xlink:title=" ">
<path fill="none" stroke="#63b8ff" d="M264.38,-103.6C252.2,-94.11 236.84,-82.13 226.62,-74.17"/>
<polygon fill="#63b8ff" stroke="#63b8ff" points="262.54,-106.6 272.57,-109.98 266.84,-101.08 262.54,-106.6"/>
</a>
</g>
</g>
<!-- Node5 -->
<g id="Node000005" class="node">
<title>Node5</title>
<g id="a_Node000005"><a xlink:href="classpism_1_1fem_1_1Element3.html" target="_top" xlink:title=" ">
<polygon fill="white" stroke="#666666" points="418,-74 299,-74 299,-55 418,-55 418,-74"/>
<text text-anchor="middle" x="358.5" y="-62" font-family="Helvetica,sans-Serif" font-size="10.00">pism::fem::Element3</text>
</a>
</g>
</g>
<!-- Node1&#45;&gt;Node5 -->
<g id="edge4_Node000001_Node000005" class="edge">
<title>Node1&#45;&gt;Node5</title>
<g id="a_edge4_Node000001_Node000005"><a xlink:title=" ">
<path fill="none" stroke="#63b8ff" d="M303.81,-104.15C317.36,-94.57 334.74,-82.29 346.23,-74.17"/>
<polygon fill="#63b8ff" stroke="#63b8ff" points="301.7,-101.36 295.55,-109.98 305.74,-107.07 301.7,-101.36"/>
</a>
</g>
</g>
<!-- Node3 -->
<g id="Node000003" class="node">
<title>Node3</title>
<g id="a_Node000003"><a xlink:href="classpism_1_1fem_1_1P1Element2.html" target="_top" xlink:title="P1 element embedded in Q1Element2.">
<polygon fill="white" stroke="#666666" points="131,-19 0,-19 0,0 131,0 131,-19"/>
<text text-anchor="middle" x="65.5" y="-7" font-family="Helvetica,sans-Serif" font-size="10.00">pism::fem::P1Element2</text>
</a>
</g>
</g>
<!-- Node2&#45;&gt;Node3 -->
<g id="edge2_Node000002_Node000003" class="edge">
<title>Node2&#45;&gt;Node3</title>
<g id="a_edge2_Node000002_Node000003"><a xlink:title=" ">
<path fill="none" stroke="#63b8ff" d="M181.68,-51.55C153.82,-41.71 114.99,-27.98 90.04,-19.17"/>
<polygon fill="#63b8ff" stroke="#63b8ff" points="180.81,-54.95 191.4,-54.98 183.14,-48.35 180.81,-54.95"/>
</a>
</g>
</g>
<!-- Node4 -->
<g id="Node000004" class="node">
<title>Node4</title>
<g id="a_Node000004"><a xlink:href="classpism_1_1fem_1_1Q1Element2.html" target="_top" xlink:title="Q1 element with sides parallel to X and Y axes.">
<polygon fill="white" stroke="#666666" points="281.5,-19 149.5,-19 149.5,0 281.5,0 281.5,-19"/>
<text text-anchor="middle" x="215.5" y="-7" font-family="Helvetica,sans-Serif" font-size="10.00">pism::fem::Q1Element2</text>
</a>
</g>
</g>
<!-- Node2&#45;&gt;Node4 -->
<g id="edge3_Node000002_Node000004" class="edge">
<title>Node2&#45;&gt;Node4</title>
<g id="a_edge3_Node000002_Node000004"><a xlink:title=" ">
<path fill="none" stroke="#63b8ff" d="M215.5,-44.66C215.5,-35.93 215.5,-25.99 215.5,-19.09"/>
<polygon fill="#63b8ff" stroke="#63b8ff" points="212,-44.75 215.5,-54.75 219,-44.75 212,-44.75"/>
</a>
</g>
</g>
<!-- Node6 -->
<g id="Node000006" class="node">
<title>Node6</title>
<g id="a_Node000006"><a xlink:href="classpism_1_1fem_1_1Q1Element3.html" target="_top" xlink:title="3D Q1 element">
<polygon fill="white" stroke="#666666" points="431.5,-19 299.5,-19 299.5,0 431.5,0 431.5,-19"/>
<text text-anchor="middle" x="365.5" y="-7" font-family="Helvetica,sans-Serif" font-size="10.00">pism::fem::Q1Element3</text>
</a>
</g>
</g>
<!-- Node5&#45;&gt;Node6 -->
<g id="edge5_Node000005_Node000006" class="edge">
<title>Node5&#45;&gt;Node6</title>
<g id="a_edge5_Node000005_Node000006"><a xlink:title=" ">
<path fill="none" stroke="#63b8ff" d="M360.99,-44.66C362.14,-35.93 363.45,-25.99 364.37,-19.09"/>
<polygon fill="#63b8ff" stroke="#63b8ff" points="357.5,-44.38 359.66,-54.75 364.44,-45.29 357.5,-44.38"/>
</a>
</g>
</g>
</g>
</svg>
