<?xml version="1.0" encoding="UTF-8" standalone="no"?>
<!DOCTYPE svg PUBLIC "-//W3C//DTD SVG 1.1//EN"
 "http://www.w3.org/Graphics/SVG/1.1/DTD/svg11.dtd">
<!-- Generated by graphviz version 2.43.0 (0)
 -->
<!-- Title: D Pages: 1 -->
<svg width="776pt" height="2078pt"
 viewBox="0.00 0.00 776.00 2078.00" xmlns="http://www.w3.org/2000/svg" xmlns:xlink="http://www.w3.org/1999/xlink">
<g id="graph0" class="graph" transform="scale(1 1) rotate(0) translate(4 2074)">
<title>D</title>
<!-- Node1 -->
<g id="node1" class="node">
<title>Node1</title>
<g id="a_node1"><a xlink:title=" ">
<polygon fill="#bfbfbf" stroke="black" points="0,-946 0,-965 29,-965 29,-946 0,-946"/>
<text text-anchor="middle" x="14.5" y="-953" font-family="Helvetica,sans-Serif" font-size="10.00">D</text>
</a>
</g>
</g>
<!-- Node2 -->
<g id="node2" class="node">
<title>Node2</title>
<g id="a_node2"><a xlink:href="classpism_1_1TSDiag.html" target="_top" xlink:title=" ">
<polygon fill="none" stroke="black" points="66,-946 66,-965 192,-965 192,-946 66,-946"/>
<text text-anchor="middle" x="129" y="-953" font-family="Helvetica,sans-Serif" font-size="10.00">pism::TSDiag&lt; D, M &gt;</text>
</a>
</g>
</g>
<!-- Node1&#45;&gt;Node2 -->
<g id="edge1" class="edge">
<title>Node1&#45;&gt;Node2</title>
<path fill="none" stroke="midnightblue" d="M39.44,-955.5C47.29,-955.5 56.41,-955.5 65.76,-955.5"/>
<polygon fill="midnightblue" stroke="midnightblue" points="39.29,-952 29.29,-955.5 39.29,-959 39.29,-952"/>
</g>
<!-- Node3 -->
<g id="node3" class="node">
<title>Node3</title>
<g id="a_node3"><a xlink:href="classpism_1_1TSDiag.html" target="_top" xlink:title=" ">
<polygon fill="none" stroke="black" points="356,-1815.5 356,-1845.5 536,-1845.5 536,-1815.5 356,-1815.5"/>
<text text-anchor="start" x="364" y="-1833.5" font-family="Helvetica,sans-Serif" font-size="10.00">pism::TSDiag&lt; TSFluxDiagnostic,</text>
<text text-anchor="middle" x="446" y="-1822.5" font-family="Helvetica,sans-Serif" font-size="10.00"> IceModel &gt;</text>
</a>
</g>
</g>
<!-- Node2&#45;&gt;Node3 -->
<g id="edge2" class="edge">
<title>Node2&#45;&gt;Node3</title>
<path fill="none" stroke="orange" stroke-dasharray="5,2" d="M133.27,-975.39C142.34,-1028.76 169.8,-1179.22 210,-1299.5 280.63,-1510.8 404.45,-1753.01 436.98,-1815.29"/>
<polygon fill="orange" stroke="orange" points="136.68,-974.54 131.58,-965.26 129.78,-975.7 136.68,-974.54"/>
<text text-anchor="start" x="222" y="-1619.5" font-family="Helvetica,sans-Serif" font-size="10.00"> &lt; TSFluxDiagnostic,</text>
<text text-anchor="middle" x="273.5" y="-1608.5" font-family="Helvetica,sans-Serif" font-size="10.00"> IceModel &gt;</text>
</g>
<!-- Node13 -->
<g id="node13" class="node">
<title>Node13</title>
<g id="a_node13"><a xlink:href="classpism_1_1TSDiag.html" target="_top" xlink:title=" ">
<polygon fill="none" stroke="black" points="356,-1431.5 356,-1461.5 536,-1461.5 536,-1431.5 356,-1431.5"/>
<text text-anchor="start" x="364" y="-1449.5" font-family="Helvetica,sans-Serif" font-size="10.00">pism::TSDiag&lt; TSFluxDiagnostic,</text>
<text text-anchor="middle" x="446" y="-1438.5" font-family="Helvetica,sans-Serif" font-size="10.00"> EnergyModel &gt;</text>
</a>
</g>
</g>
<!-- Node2&#45;&gt;Node13 -->
<g id="edge12" class="edge">
<title>Node2&#45;&gt;Node13</title>
<path fill="none" stroke="orange" stroke-dasharray="5,2" d="M141.97,-974.16C192.64,-1053.14 388.98,-1359.18 435.21,-1431.24"/>
<polygon fill="orange" stroke="orange" points="144.64,-971.83 136.29,-965.31 138.75,-975.61 144.64,-971.83"/>
<text text-anchor="start" x="222" y="-1287.5" font-family="Helvetica,sans-Serif" font-size="10.00"> &lt; TSFluxDiagnostic,</text>
<text text-anchor="middle" x="273.5" y="-1276.5" font-family="Helvetica,sans-Serif" font-size="10.00"> EnergyModel &gt;</text>
</g>
<!-- Node15 -->
<g id="node15" class="node">
<title>Node15</title>
<g id="a_node15"><a xlink:href="classpism_1_1TSDiag.html" target="_top" xlink:title=" ">
<polygon fill="none" stroke="black" points="371.5,-940.5 371.5,-970.5 520.5,-970.5 520.5,-940.5 371.5,-940.5"/>
<text text-anchor="start" x="379.5" y="-958.5" font-family="Helvetica,sans-Serif" font-size="10.00">pism::TSDiag&lt; TSSnapshot</text>
<text text-anchor="middle" x="446" y="-947.5" font-family="Helvetica,sans-Serif" font-size="10.00">Diagnostic, IceModel &gt;</text>
</a>
</g>
</g>
<!-- Node2&#45;&gt;Node15 -->
<g id="edge14" class="edge">
<title>Node2&#45;&gt;Node15</title>
<path fill="none" stroke="orange" stroke-dasharray="5,2" d="M202.44,-955.5C253.05,-955.5 320.39,-955.5 371.27,-955.5"/>
<polygon fill="orange" stroke="orange" points="202.23,-952 192.23,-955.5 202.23,-959 202.23,-952"/>
<text text-anchor="start" x="210" y="-969.5" font-family="Helvetica,sans-Serif" font-size="10.00"> &lt; TSSnapshotDiagnostic,</text>
<text text-anchor="middle" x="273.5" y="-958.5" font-family="Helvetica,sans-Serif" font-size="10.00"> IceModel &gt;</text>
</g>
<!-- Node39 -->
<g id="node39" class="node">
<title>Node39</title>
<g id="a_node39"><a xlink:href="classpism_1_1TSDiag.html" target="_top" xlink:title=" ">
<polygon fill="none" stroke="black" points="355,-263.5 355,-293.5 537,-293.5 537,-263.5 355,-263.5"/>
<text text-anchor="start" x="363" y="-281.5" font-family="Helvetica,sans-Serif" font-size="10.00">pism::TSDiag&lt; TSRateDiagnostic,</text>
<text text-anchor="middle" x="446" y="-270.5" font-family="Helvetica,sans-Serif" font-size="10.00"> IceModel &gt;</text>
</a>
</g>
</g>
<!-- Node2&#45;&gt;Node39 -->
<g id="edge38" class="edge">
<title>Node2&#45;&gt;Node39</title>
<path fill="none" stroke="orange" stroke-dasharray="5,2" d="M138.8,-936.59C184.74,-837.86 396.54,-382.65 437.96,-293.62"/>
<polygon fill="orange" stroke="orange" points="135.5,-935.39 134.45,-945.93 141.84,-938.34 135.5,-935.39"/>
<text text-anchor="start" x="221.5" y="-787.5" font-family="Helvetica,sans-Serif" font-size="10.00"> &lt; TSRateDiagnostic,</text>
<text text-anchor="middle" x="273.5" y="-776.5" font-family="Helvetica,sans-Serif" font-size="10.00"> IceModel &gt;</text>
</g>
<!-- Node44 -->
<g id="node44" class="node">
<title>Node44</title>
<g id="a_node44"><a xlink:href="classpism_1_1TSDiag.html" target="_top" xlink:title=" ">
<polygon fill="none" stroke="black" points="356,-74.5 356,-104.5 536,-104.5 536,-74.5 356,-74.5"/>
<text text-anchor="start" x="364" y="-92.5" font-family="Helvetica,sans-Serif" font-size="10.00">pism::TSDiag&lt; TSFluxDiagnostic,</text>
<text text-anchor="middle" x="446" y="-81.5" font-family="Helvetica,sans-Serif" font-size="10.00"> SurfaceModel &gt;</text>
</a>
</g>
</g>
<!-- Node2&#45;&gt;Node44 -->
<g id="edge43" class="edge">
<title>Node2&#45;&gt;Node44</title>
<path fill="none" stroke="orange" stroke-dasharray="5,2" d="M130.89,-935.49C134.34,-869.75 149.81,-655.27 210,-490.5 269.53,-327.54 394.82,-155.46 433.43,-104.52"/>
<polygon fill="orange" stroke="orange" points="127.38,-935.52 130.39,-945.67 134.38,-935.86 127.38,-935.52"/>
<text text-anchor="start" x="222" y="-504.5" font-family="Helvetica,sans-Serif" font-size="10.00"> &lt; TSFluxDiagnostic,</text>
<text text-anchor="middle" x="273.5" y="-493.5" font-family="Helvetica,sans-Serif" font-size="10.00"> SurfaceModel &gt;</text>
</g>
<!-- Node4 -->
<g id="node4" class="node">
<title>Node4</title>
<g id="a_node4"><a xlink:href="classpism_1_1diagnostics_1_1scalar_1_1IceMassFluxAtGroundingLine.html" target="_top" xlink:title="Reports the total flux across the grounding line.">
<polygon fill="none" stroke="black" points="574,-2039.5 574,-2069.5 768,-2069.5 768,-2039.5 574,-2039.5"/>
<text text-anchor="start" x="582" y="-2057.5" font-family="Helvetica,sans-Serif" font-size="10.00">pism::diagnostics::</text>
<text text-anchor="middle" x="671" y="-2046.5" font-family="Helvetica,sans-Serif" font-size="10.00">scalar::IceMassFluxAtGroundingLine</text>
</a>
</g>
</g>
<!-- Node3&#45;&gt;Node4 -->
<g id="edge3" class="edge">
<title>Node3&#45;&gt;Node4</title>
<path fill="none" stroke="midnightblue" d="M455.61,-1855.13C471.81,-1897.75 510.98,-1985.03 574,-2030.5 578.74,-2033.92 583.91,-2036.85 589.32,-2039.37"/>
<polygon fill="midnightblue" stroke="midnightblue" points="458.82,-1853.72 452.07,-1845.55 452.25,-1856.14 458.82,-1853.72"/>
</g>
<!-- Node5 -->
<g id="node5" class="node">
<title>Node5</title>
<g id="a_node5"><a xlink:href="classpism_1_1diagnostics_1_1scalar_1_1IceMassFluxBasal.html" target="_top" xlink:title="Reports the total bottom surface ice flux.">
<polygon fill="none" stroke="black" points="601,-1990.5 601,-2020.5 741,-2020.5 741,-1990.5 601,-1990.5"/>
<text text-anchor="start" x="609" y="-2008.5" font-family="Helvetica,sans-Serif" font-size="10.00">pism::diagnostics::</text>
<text text-anchor="middle" x="671" y="-1997.5" font-family="Helvetica,sans-Serif" font-size="10.00">scalar::IceMassFluxBasal</text>
</a>
</g>
</g>
<!-- Node3&#45;&gt;Node5 -->
<g id="edge4" class="edge">
<title>Node3&#45;&gt;Node5</title>
<path fill="none" stroke="midnightblue" d="M460.39,-1854.36C480.55,-1888.03 521.95,-1948.99 574,-1981.5 582.23,-1986.64 591.51,-1990.68 600.96,-1993.86"/>
<polygon fill="midnightblue" stroke="midnightblue" points="463.35,-1852.49 455.27,-1845.64 457.31,-1856.03 463.35,-1852.49"/>
</g>
<!-- Node6 -->
<g id="node6" class="node">
<title>Node6</title>
<g id="a_node6"><a xlink:href="classpism_1_1diagnostics_1_1scalar_1_1IceMassFluxBasalFloating.html" target="_top" xlink:title="Reports the total sub&#45;shelf ice flux.">
<polygon fill="none" stroke="black" points="581.5,-1941.5 581.5,-1971.5 760.5,-1971.5 760.5,-1941.5 581.5,-1941.5"/>
<text text-anchor="start" x="589.5" y="-1959.5" font-family="Helvetica,sans-Serif" font-size="10.00">pism::diagnostics::</text>
<text text-anchor="middle" x="671" y="-1948.5" font-family="Helvetica,sans-Serif" font-size="10.00">scalar::IceMassFluxBasalFloating</text>
</a>
</g>
</g>
<!-- Node3&#45;&gt;Node6 -->
<g id="edge5" class="edge">
<title>Node3&#45;&gt;Node6</title>
<path fill="none" stroke="midnightblue" d="M468.62,-1852.85C492.36,-1876.11 532.63,-1911.96 574,-1932.5 580.92,-1935.94 588.38,-1938.91 595.97,-1941.47"/>
<polygon fill="midnightblue" stroke="midnightblue" points="471.07,-1850.35 461.51,-1845.77 466.13,-1855.31 471.07,-1850.35"/>
</g>
<!-- Node7 -->
<g id="node7" class="node">
<title>Node7</title>
<g id="a_node7"><a xlink:href="classpism_1_1diagnostics_1_1scalar_1_1IceMassFluxBasalGrounded.html" target="_top" xlink:title="Reports the total basal ice flux over the grounded region.">
<polygon fill="none" stroke="black" points="577.5,-1892.5 577.5,-1922.5 764.5,-1922.5 764.5,-1892.5 577.5,-1892.5"/>
<text text-anchor="start" x="585.5" y="-1910.5" font-family="Helvetica,sans-Serif" font-size="10.00">pism::diagnostics::</text>
<text text-anchor="middle" x="671" y="-1899.5" font-family="Helvetica,sans-Serif" font-size="10.00">scalar::IceMassFluxBasalGrounded</text>
</a>
</g>
</g>
<!-- Node3&#45;&gt;Node7 -->
<g id="edge6" class="edge">
<title>Node3&#45;&gt;Node7</title>
<path fill="none" stroke="midnightblue" d="M488.73,-1849.78C513.22,-1860.62 544.97,-1873.87 574,-1883.5 583.7,-1886.72 594.08,-1889.74 604.3,-1892.47"/>
<polygon fill="midnightblue" stroke="midnightblue" points="489.94,-1846.49 479.38,-1845.6 487.08,-1852.88 489.94,-1846.49"/>
</g>
<!-- Node8 -->
<g id="node8" class="node">
<title>Node8</title>
<g id="a_node8"><a xlink:href="classpism_1_1diagnostics_1_1scalar_1_1IceMassFluxCalving.html" target="_top" xlink:title="Reports the total calving flux.">
<polygon fill="none" stroke="black" points="596.5,-1843.5 596.5,-1873.5 745.5,-1873.5 745.5,-1843.5 596.5,-1843.5"/>
<text text-anchor="start" x="604.5" y="-1861.5" font-family="Helvetica,sans-Serif" font-size="10.00">pism::diagnostics::</text>
<text text-anchor="middle" x="671" y="-1850.5" font-family="Helvetica,sans-Serif" font-size="10.00">scalar::IceMassFluxCalving</text>
</a>
</g>
</g>
<!-- Node3&#45;&gt;Node8 -->
<g id="edge7" class="edge">
<title>Node3&#45;&gt;Node8</title>
<path fill="none" stroke="midnightblue" d="M546.49,-1842.99C563.29,-1845.1 580.45,-1847.26 596.44,-1849.26"/>
<polygon fill="midnightblue" stroke="midnightblue" points="546.46,-1839.46 536.1,-1841.69 545.58,-1846.41 546.46,-1839.46"/>
</g>
<!-- Node9 -->
<g id="node9" class="node">
<title>Node9</title>
<g id="a_node9"><a xlink:href="classpism_1_1diagnostics_1_1scalar_1_1IceMassFluxConservationError.html" target="_top" xlink:title="Reports the total numerical mass flux needed to preserve non&#45;negativity of ice thickness.">
<polygon fill="none" stroke="black" points="582.5,-1783 582.5,-1824 759.5,-1824 759.5,-1783 582.5,-1783"/>
<text text-anchor="start" x="590.5" y="-1812" font-family="Helvetica,sans-Serif" font-size="10.00">pism::diagnostics::</text>
<text text-anchor="start" x="590.5" y="-1801" font-family="Helvetica,sans-Serif" font-size="10.00">scalar::IceMassFluxConservation</text>
<text text-anchor="middle" x="671" y="-1790" font-family="Helvetica,sans-Serif" font-size="10.00">Error</text>
</a>
</g>
</g>
<!-- Node3&#45;&gt;Node9 -->
<g id="edge8" class="edge">
<title>Node3&#45;&gt;Node9</title>
<path fill="none" stroke="midnightblue" d="M546.2,-1818.49C558.3,-1817.02 570.59,-1815.54 582.5,-1814.09"/>
<polygon fill="midnightblue" stroke="midnightblue" points="545.6,-1815.04 536.1,-1819.71 546.45,-1821.99 545.6,-1815.04"/>
</g>
<!-- Node10 -->
<g id="node10" class="node">
<title>Node10</title>
<g id="a_node10"><a xlink:href="classpism_1_1diagnostics_1_1scalar_1_1IceMassFluxDischarge.html" target="_top" xlink:title="Reports the total discharge flux.">
<polygon fill="none" stroke="black" points="590.5,-1733.5 590.5,-1763.5 751.5,-1763.5 751.5,-1733.5 590.5,-1733.5"/>
<text text-anchor="start" x="598.5" y="-1751.5" font-family="Helvetica,sans-Serif" font-size="10.00">pism::diagnostics::</text>
<text text-anchor="middle" x="671" y="-1740.5" font-family="Helvetica,sans-Serif" font-size="10.00">scalar::IceMassFluxDischarge</text>
</a>
</g>
</g>
<!-- Node3&#45;&gt;Node10 -->
<g id="edge9" class="edge">
<title>Node3&#45;&gt;Node10</title>
<path fill="none" stroke="midnightblue" d="M485.78,-1811.06C510.58,-1799.14 543.68,-1784.17 574,-1773.5 584.24,-1769.9 595.25,-1766.56 606.03,-1763.56"/>
<polygon fill="midnightblue" stroke="midnightblue" points="484.17,-1807.95 476.7,-1815.46 487.23,-1814.25 484.17,-1807.95"/>
</g>
<!-- Node11 -->
<g id="node11" class="node">
<title>Node11</title>
<g id="a_node11"><a xlink:href="classpism_1_1diagnostics_1_1scalar_1_1IceMassFluxSurface.html" target="_top" xlink:title="Reports the total top surface ice flux.">
<polygon fill="none" stroke="black" points="596.5,-1684.5 596.5,-1714.5 745.5,-1714.5 745.5,-1684.5 596.5,-1684.5"/>
<text text-anchor="start" x="604.5" y="-1702.5" font-family="Helvetica,sans-Serif" font-size="10.00">pism::diagnostics::</text>
<text text-anchor="middle" x="671" y="-1691.5" font-family="Helvetica,sans-Serif" font-size="10.00">scalar::IceMassFluxSurface</text>
</a>
</g>
</g>
<!-- Node3&#45;&gt;Node11 -->
<g id="edge10" class="edge">
<title>Node3&#45;&gt;Node11</title>
<path fill="none" stroke="midnightblue" d="M467.71,-1808.11C491.22,-1784.01 531.83,-1746.19 574,-1724.5 581.5,-1720.64 589.65,-1717.34 597.92,-1714.53"/>
<polygon fill="midnightblue" stroke="midnightblue" points="465.09,-1805.78 460.69,-1815.42 470.14,-1810.63 465.09,-1805.78"/>
</g>
<!-- Node12 -->
<g id="node12" class="node">
<title>Node12</title>
<g id="a_node12"><a xlink:href="classpism_1_1diagnostics_1_1scalar_1_1IceMassRateOfChangeDueToFlow.html" target="_top" xlink:title="Computes the rate of change of the total ice mass due to flow (influx due to prescribed constant&#45;in&#45;t...">
<polygon fill="none" stroke="black" points="590,-1624 590,-1665 752,-1665 752,-1624 590,-1624"/>
<text text-anchor="start" x="598" y="-1653" font-family="Helvetica,sans-Serif" font-size="10.00">pism::diagnostics::</text>
<text text-anchor="start" x="598" y="-1642" font-family="Helvetica,sans-Serif" font-size="10.00">scalar::IceMassRateOfChange</text>
<text text-anchor="middle" x="671" y="-1631" font-family="Helvetica,sans-Serif" font-size="10.00">DueToFlow</text>
</a>
</g>
</g>
<!-- Node3&#45;&gt;Node12 -->
<g id="edge11" class="edge">
<title>Node3&#45;&gt;Node12</title>
<path fill="none" stroke="midnightblue" d="M460.54,-1806.48C480.88,-1772.49 522.5,-1710.61 574,-1675.5 579.79,-1671.55 586.11,-1668.08 592.66,-1665.04"/>
<polygon fill="midnightblue" stroke="midnightblue" points="457.42,-1804.88 455.37,-1815.28 463.45,-1808.42 457.42,-1804.88"/>
</g>
<!-- Node14 -->
<g id="node14" class="node">
<title>Node14</title>
<g id="a_node14"><a xlink:href="classpism_1_1energy_1_1LiquifiedIceFlux.html" target="_top" xlink:title="Ice loss &quot;flux&quot; due to ice liquefaction.">
<polygon fill="none" stroke="black" points="590,-1586 590,-1605 752,-1605 752,-1586 590,-1586"/>
<text text-anchor="middle" x="671" y="-1593" font-family="Helvetica,sans-Serif" font-size="10.00">pism::energy::LiquifiedIceFlux</text>
</a>
</g>
</g>
<!-- Node13&#45;&gt;Node14 -->
<g id="edge13" class="edge">
<title>Node13&#45;&gt;Node14</title>
<path fill="none" stroke="midnightblue" d="M461.03,-1470.61C481.23,-1502.47 521.86,-1556.87 574,-1576.5 584.26,-1580.36 595.44,-1583.48 606.43,-1585.99"/>
<polygon fill="midnightblue" stroke="midnightblue" points="463.88,-1468.56 455.66,-1461.89 457.93,-1472.24 463.88,-1468.56"/>
</g>
<!-- Node16 -->
<g id="node16" class="node">
<title>Node16</title>
<g id="a_node16"><a xlink:href="classpism_1_1diagnostics_1_1scalar_1_1IceAreaGlacierized.html" target="_top" xlink:title="Computes the total ice area.">
<polygon fill="none" stroke="black" points="599.5,-1536.5 599.5,-1566.5 742.5,-1566.5 742.5,-1536.5 599.5,-1536.5"/>
<text text-anchor="start" x="607.5" y="-1554.5" font-family="Helvetica,sans-Serif" font-size="10.00">pism::diagnostics::</text>
<text text-anchor="middle" x="671" y="-1543.5" font-family="Helvetica,sans-Serif" font-size="10.00">scalar::IceAreaGlacierized</text>
</a>
</g>
</g>
<!-- Node15&#45;&gt;Node16 -->
<g id="edge15" class="edge">
<title>Node15&#45;&gt;Node16</title>
<path fill="none" stroke="midnightblue" d="M451.83,-980.74C472.58,-1088.64 554,-1506.5 574,-1526.5 581.06,-1533.56 589.85,-1538.71 599.23,-1542.45"/>
<polygon fill="midnightblue" stroke="midnightblue" points="455.24,-979.91 449.91,-970.75 448.36,-981.23 455.24,-979.91"/>
</g>
<!-- Node17 -->
<g id="node17" class="node">
<title>Node17</title>
<g id="a_node17"><a xlink:href="classpism_1_1diagnostics_1_1scalar_1_1IceAreaGlacierizedColdBase.html" target="_top" xlink:title="Computes the total area of the cold ice.">
<polygon fill="none" stroke="black" points="599.5,-1476 599.5,-1517 742.5,-1517 742.5,-1476 599.5,-1476"/>
<text text-anchor="start" x="607.5" y="-1505" font-family="Helvetica,sans-Serif" font-size="10.00">pism::diagnostics::</text>
<text text-anchor="start" x="607.5" y="-1494" font-family="Helvetica,sans-Serif" font-size="10.00">scalar::IceAreaGlacierized</text>
<text text-anchor="middle" x="671" y="-1483" font-family="Helvetica,sans-Serif" font-size="10.00">ColdBase</text>
</a>
</g>
</g>
<!-- Node15&#45;&gt;Node17 -->
<g id="edge16" class="edge">
<title>Node15&#45;&gt;Node17</title>
<path fill="none" stroke="midnightblue" d="M449.92,-980.73C461.16,-1073.61 504.5,-1394.86 574,-1466.5 581.05,-1473.77 589.84,-1479.28 599.21,-1483.47"/>
<polygon fill="midnightblue" stroke="midnightblue" points="453.37,-980.08 448.71,-970.57 446.42,-980.91 453.37,-980.08"/>
</g>
<!-- Node18 -->
<g id="node18" class="node">
<title>Node18</title>
<g id="a_node18"><a xlink:href="classpism_1_1diagnostics_1_1scalar_1_1IceAreaGlacierizedGrounded.html" target="_top" xlink:title="Computes the total grounded ice area.">
<polygon fill="none" stroke="black" points="599.5,-1416 599.5,-1457 742.5,-1457 742.5,-1416 599.5,-1416"/>
<text text-anchor="start" x="607.5" y="-1445" font-family="Helvetica,sans-Serif" font-size="10.00">pism::diagnostics::</text>
<text text-anchor="start" x="607.5" y="-1434" font-family="Helvetica,sans-Serif" font-size="10.00">scalar::IceAreaGlacierized</text>
<text text-anchor="middle" x="671" y="-1423" font-family="Helvetica,sans-Serif" font-size="10.00">Grounded</text>
</a>
</g>
</g>
<!-- Node15&#45;&gt;Node18 -->
<g id="edge17" class="edge">
<title>Node15&#45;&gt;Node18</title>
<path fill="none" stroke="midnightblue" d="M446.29,-980.88C445.62,-1056.64 454.19,-1283.47 574,-1406.5 581.07,-1413.76 589.86,-1419.26 599.23,-1423.44"/>
<polygon fill="midnightblue" stroke="midnightblue" points="449.79,-980.88 446.45,-970.83 442.8,-980.78 449.79,-980.88"/>
</g>
<!-- Node19 -->
<g id="node19" class="node">
<title>Node19</title>
<g id="a_node19"><a xlink:href="classpism_1_1diagnostics_1_1scalar_1_1IceAreaGlacierizedShelf.html" target="_top" xlink:title="Computes the total floating ice area.">
<polygon fill="none" stroke="black" points="599.5,-1356 599.5,-1397 742.5,-1397 742.5,-1356 599.5,-1356"/>
<text text-anchor="start" x="607.5" y="-1385" font-family="Helvetica,sans-Serif" font-size="10.00">pism::diagnostics::</text>
<text text-anchor="start" x="607.5" y="-1374" font-family="Helvetica,sans-Serif" font-size="10.00">scalar::IceAreaGlacierized</text>
<text text-anchor="middle" x="671" y="-1363" font-family="Helvetica,sans-Serif" font-size="10.00">Shelf</text>
</a>
</g>
</g>
<!-- Node15&#45;&gt;Node19 -->
<g id="edge18" class="edge">
<title>Node15&#45;&gt;Node19</title>
<path fill="none" stroke="midnightblue" d="M447.61,-981.12C450.67,-1050.25 468.72,-1242.39 574,-1346.5 581.2,-1353.62 590.07,-1359.06 599.47,-1363.2"/>
<polygon fill="midnightblue" stroke="midnightblue" points="451.09,-980.62 447.23,-970.75 444.1,-980.88 451.09,-980.62"/>
</g>
<!-- Node20 -->
<g id="node20" class="node">
<title>Node20</title>
<g id="a_node20"><a xlink:href="classpism_1_1diagnostics_1_1scalar_1_1IceAreaGlacierizedTemperateBase.html" target="_top" xlink:title="Computes the total area of the temperate ice.">
<polygon fill="none" stroke="black" points="599.5,-1296 599.5,-1337 742.5,-1337 742.5,-1296 599.5,-1296"/>
<text text-anchor="start" x="607.5" y="-1325" font-family="Helvetica,sans-Serif" font-size="10.00">pism::diagnostics::</text>
<text text-anchor="start" x="607.5" y="-1314" font-family="Helvetica,sans-Serif" font-size="10.00">scalar::IceAreaGlacierized</text>
<text text-anchor="middle" x="671" y="-1303" font-family="Helvetica,sans-Serif" font-size="10.00">TemperateBase</text>
</a>
</g>
</g>
<!-- Node15&#45;&gt;Node20 -->
<g id="edge19" class="edge">
<title>Node15&#45;&gt;Node20</title>
<path fill="none" stroke="midnightblue" d="M449.33,-980.88C456.33,-1042.43 482.74,-1200.85 574,-1286.5 581.26,-1293.31 590.04,-1298.58 599.32,-1302.65"/>
<polygon fill="midnightblue" stroke="midnightblue" points="452.77,-980.13 448.23,-970.55 445.8,-980.87 452.77,-980.13"/>
</g>
<!-- Node21 -->
<g id="node21" class="node">
<title>Node21</title>
<g id="a_node21"><a xlink:href="classpism_1_1diagnostics_1_1scalar_1_1IceEnthalpy.html" target="_top" xlink:title="Computes the total ice enthalpy.">
<polygon fill="none" stroke="black" points="616.5,-1246.5 616.5,-1276.5 725.5,-1276.5 725.5,-1246.5 616.5,-1246.5"/>
<text text-anchor="start" x="624.5" y="-1264.5" font-family="Helvetica,sans-Serif" font-size="10.00">pism::diagnostics::</text>
<text text-anchor="middle" x="671" y="-1253.5" font-family="Helvetica,sans-Serif" font-size="10.00">scalar::IceEnthalpy</text>
</a>
</g>
</g>
<!-- Node15&#45;&gt;Node21 -->
<g id="edge20" class="edge">
<title>Node15&#45;&gt;Node21</title>
<path fill="none" stroke="midnightblue" d="M450.86,-980.84C460.68,-1036.29 491.93,-1168.89 574,-1237.5 585.86,-1247.42 601.25,-1253.33 616.22,-1256.82"/>
<polygon fill="midnightblue" stroke="midnightblue" points="454.28,-980.1 449.17,-970.82 447.38,-981.26 454.28,-980.1"/>
</g>
<!-- Node22 -->
<g id="node22" class="node">
<title>Node22</title>
<g id="a_node22"><a xlink:href="classpism_1_1diagnostics_1_1scalar_1_1IceEnthalpyGlacierized.html" target="_top" xlink:title="Computes the total ice enthalpy in glacierized areas.">
<polygon fill="none" stroke="black" points="589,-1197.5 589,-1227.5 753,-1227.5 753,-1197.5 589,-1197.5"/>
<text text-anchor="start" x="597" y="-1215.5" font-family="Helvetica,sans-Serif" font-size="10.00">pism::diagnostics::</text>
<text text-anchor="middle" x="671" y="-1204.5" font-family="Helvetica,sans-Serif" font-size="10.00">scalar::IceEnthalpyGlacierized</text>
</a>
</g>
</g>
<!-- Node15&#45;&gt;Node22 -->
<g id="edge21" class="edge">
<title>Node15&#45;&gt;Node22</title>
<path fill="none" stroke="midnightblue" d="M453.33,-980.38C466.88,-1028.38 503.36,-1133.86 574,-1188.5 578.48,-1191.97 583.41,-1194.94 588.58,-1197.49"/>
<polygon fill="midnightblue" stroke="midnightblue" points="456.65,-979.25 450.65,-970.52 449.9,-981.09 456.65,-979.25"/>
</g>
<!-- Node23 -->
<g id="node23" class="node">
<title>Node23</title>
<g id="a_node23"><a xlink:href="classpism_1_1diagnostics_1_1scalar_1_1IceMass.html" target="_top" xlink:title="Computes the total ice mass.">
<polygon fill="none" stroke="black" points="617,-1148.5 617,-1178.5 725,-1178.5 725,-1148.5 617,-1148.5"/>
<text text-anchor="start" x="625" y="-1166.5" font-family="Helvetica,sans-Serif" font-size="10.00">pism::diagnostics::</text>
<text text-anchor="middle" x="671" y="-1155.5" font-family="Helvetica,sans-Serif" font-size="10.00">scalar::IceMass</text>
</a>
</g>
</g>
<!-- Node15&#45;&gt;Node23 -->
<g id="edge22" class="edge">
<title>Node15&#45;&gt;Node23</title>
<path fill="none" stroke="midnightblue" d="M456.92,-979.89C474.41,-1019.7 514.58,-1098.34 574,-1139.5 586.57,-1148.21 602,-1153.76 616.79,-1157.3"/>
<polygon fill="midnightblue" stroke="midnightblue" points="460.12,-978.46 452.97,-970.65 453.68,-981.22 460.12,-978.46"/>
</g>
<!-- Node24 -->
<g id="node24" class="node">
<title>Node24</title>
<g id="a_node24"><a xlink:href="classpism_1_1diagnostics_1_1scalar_1_1IceMassGlacierized.html" target="_top" xlink:title="Computes the total ice mass in glacierized areas.">
<polygon fill="none" stroke="black" points="598,-1099.5 598,-1129.5 744,-1129.5 744,-1099.5 598,-1099.5"/>
<text text-anchor="start" x="606" y="-1117.5" font-family="Helvetica,sans-Serif" font-size="10.00">pism::diagnostics::</text>
<text text-anchor="middle" x="671" y="-1106.5" font-family="Helvetica,sans-Serif" font-size="10.00">scalar::IceMassGlacierized</text>
</a>
</g>
</g>
<!-- Node15&#45;&gt;Node24 -->
<g id="edge23" class="edge">
<title>Node15&#45;&gt;Node24</title>
<path fill="none" stroke="midnightblue" d="M462.68,-978.82C484.21,-1008.98 525.77,-1061.02 574,-1089.5 581.41,-1093.88 589.6,-1097.5 597.96,-1100.5"/>
<polygon fill="midnightblue" stroke="midnightblue" points="465.51,-976.75 456.91,-970.57 459.78,-980.77 465.51,-976.75"/>
</g>
<!-- Node25 -->
<g id="node25" class="node">
<title>Node25</title>
<g id="a_node25"><a xlink:href="classpism_1_1diagnostics_1_1scalar_1_1IceMassNotDisplacingSeaWater.html" target="_top" xlink:title="Computes the total mass of the ice not displacing sea water.">
<polygon fill="none" stroke="black" points="591,-1039 591,-1080 751,-1080 751,-1039 591,-1039"/>
<text text-anchor="start" x="599" y="-1068" font-family="Helvetica,sans-Serif" font-size="10.00">pism::diagnostics::</text>
<text text-anchor="start" x="599" y="-1057" font-family="Helvetica,sans-Serif" font-size="10.00">scalar::IceMassNotDisplacing</text>
<text text-anchor="middle" x="671" y="-1046" font-family="Helvetica,sans-Serif" font-size="10.00">SeaWater</text>
</a>
</g>
</g>
<!-- Node15&#45;&gt;Node25 -->
<g id="edge24" class="edge">
<title>Node15&#45;&gt;Node25</title>
<path fill="none" stroke="midnightblue" d="M478.28,-976.4C503.36,-992.5 539.89,-1014.46 574,-1029.5 581.67,-1032.88 589.84,-1036.05 598.05,-1038.96"/>
<polygon fill="midnightblue" stroke="midnightblue" points="479.87,-973.26 469.58,-970.76 476.07,-979.14 479.87,-973.26"/>
</g>
<!-- Node26 -->
<g id="node26" class="node">
<title>Node26</title>
<g id="a_node26"><a xlink:href="classpism_1_1diagnostics_1_1scalar_1_1IceVolume.html" target="_top" xlink:title="Computes the total ice volume.">
<polygon fill="none" stroke="black" points="617,-989.5 617,-1019.5 725,-1019.5 725,-989.5 617,-989.5"/>
<text text-anchor="start" x="625" y="-1007.5" font-family="Helvetica,sans-Serif" font-size="10.00">pism::diagnostics::</text>
<text text-anchor="middle" x="671" y="-996.5" font-family="Helvetica,sans-Serif" font-size="10.00">scalar::IceVolume</text>
</a>
</g>
</g>
<!-- Node15&#45;&gt;Node26 -->
<g id="edge25" class="edge">
<title>Node15&#45;&gt;Node26</title>
<path fill="none" stroke="midnightblue" d="M525.54,-972.76C555.8,-979.41 589.63,-986.84 616.94,-992.84"/>
<polygon fill="midnightblue" stroke="midnightblue" points="525.94,-969.26 515.42,-970.53 524.44,-976.1 525.94,-969.26"/>
</g>
<!-- Node27 -->
<g id="node27" class="node">
<title>Node27</title>
<g id="a_node27"><a xlink:href="classpism_1_1diagnostics_1_1scalar_1_1IceVolumeCold.html" target="_top" xlink:title="Computes the total volume of the cold ice.">
<polygon fill="none" stroke="black" points="608.5,-940.5 608.5,-970.5 733.5,-970.5 733.5,-940.5 608.5,-940.5"/>
<text text-anchor="start" x="616.5" y="-958.5" font-family="Helvetica,sans-Serif" font-size="10.00">pism::diagnostics::</text>
<text text-anchor="middle" x="671" y="-947.5" font-family="Helvetica,sans-Serif" font-size="10.00">scalar::IceVolumeCold</text>
</a>
</g>
</g>
<!-- Node15&#45;&gt;Node27 -->
<g id="edge26" class="edge">
<title>Node15&#45;&gt;Node27</title>
<path fill="none" stroke="midnightblue" d="M530.77,-955.5C556.52,-955.5 584.38,-955.5 608.36,-955.5"/>
<polygon fill="midnightblue" stroke="midnightblue" points="530.64,-952 520.64,-955.5 530.64,-959 530.64,-952"/>
</g>
<!-- Node28 -->
<g id="node28" class="node">
<title>Node28</title>
<g id="a_node28"><a xlink:href="classpism_1_1diagnostics_1_1scalar_1_1IceVolumeGlacierized.html" target="_top" xlink:title="Computes the total ice volume in glacierized areas.">
<polygon fill="none" stroke="black" points="592,-891.5 592,-921.5 750,-921.5 750,-891.5 592,-891.5"/>
<text text-anchor="start" x="600" y="-909.5" font-family="Helvetica,sans-Serif" font-size="10.00">pism::diagnostics::</text>
<text text-anchor="middle" x="671" y="-898.5" font-family="Helvetica,sans-Serif" font-size="10.00">scalar::IceVolumeGlacierized</text>
</a>
</g>
</g>
<!-- Node15&#45;&gt;Node28 -->
<g id="edge27" class="edge">
<title>Node15&#45;&gt;Node28</title>
<path fill="none" stroke="midnightblue" d="M525.21,-938.31C550.15,-932.84 577.53,-926.82 601.71,-921.51"/>
<polygon fill="midnightblue" stroke="midnightblue" points="524.44,-934.9 515.42,-940.47 525.94,-941.74 524.44,-934.9"/>
</g>
<!-- Node29 -->
<g id="node29" class="node">
<title>Node29</title>
<g id="a_node29"><a xlink:href="classpism_1_1diagnostics_1_1scalar_1_1IceVolumeGlacierizedCold.html" target="_top" xlink:title="Computes the total volume of the cold ice in glacierized areas.">
<polygon fill="none" stroke="black" points="581.5,-842.5 581.5,-872.5 760.5,-872.5 760.5,-842.5 581.5,-842.5"/>
<text text-anchor="start" x="589.5" y="-860.5" font-family="Helvetica,sans-Serif" font-size="10.00">pism::diagnostics::</text>
<text text-anchor="middle" x="671" y="-849.5" font-family="Helvetica,sans-Serif" font-size="10.00">scalar::IceVolumeGlacierizedCold</text>
</a>
</g>
</g>
<!-- Node15&#45;&gt;Node29 -->
<g id="edge28" class="edge">
<title>Node15&#45;&gt;Node29</title>
<path fill="none" stroke="midnightblue" d="M477.67,-934.75C502.68,-918.61 539.41,-896.65 574,-882.5 583.17,-878.75 593.06,-875.43 602.89,-872.52"/>
<polygon fill="midnightblue" stroke="midnightblue" points="475.47,-932.01 469.01,-940.41 479.3,-937.87 475.47,-932.01"/>
</g>
<!-- Node30 -->
<g id="node30" class="node">
<title>Node30</title>
<g id="a_node30"><a xlink:href="classpism_1_1diagnostics_1_1scalar_1_1IceVolumeGlacierizedGrounded.html" target="_top" xlink:title="Computes the total grounded ice volume.">
<polygon fill="none" stroke="black" points="592,-782 592,-823 750,-823 750,-782 592,-782"/>
<text text-anchor="start" x="600" y="-811" font-family="Helvetica,sans-Serif" font-size="10.00">pism::diagnostics::</text>
<text text-anchor="start" x="600" y="-800" font-family="Helvetica,sans-Serif" font-size="10.00">scalar::IceVolumeGlacierized</text>
<text text-anchor="middle" x="671" y="-789" font-family="Helvetica,sans-Serif" font-size="10.00">Grounded</text>
</a>
</g>
</g>
<!-- Node15&#45;&gt;Node30 -->
<g id="edge29" class="edge">
<title>Node15&#45;&gt;Node30</title>
<path fill="none" stroke="midnightblue" d="M465.11,-932.66C487.84,-905.42 529.29,-860.23 574,-833.5 580.54,-829.59 587.63,-826.11 594.89,-823.04"/>
<polygon fill="midnightblue" stroke="midnightblue" points="462.32,-930.54 458.68,-940.49 467.73,-934.98 462.32,-930.54"/>
</g>
<!-- Node31 -->
<g id="node31" class="node">
<title>Node31</title>
<g id="a_node31"><a xlink:href="classpism_1_1diagnostics_1_1scalar_1_1IceVolumeGlacierizedShelf.html" target="_top" xlink:title="Computes the total floating ice volume.">
<polygon fill="none" stroke="black" points="592,-722 592,-763 750,-763 750,-722 592,-722"/>
<text text-anchor="start" x="600" y="-751" font-family="Helvetica,sans-Serif" font-size="10.00">pism::diagnostics::</text>
<text text-anchor="start" x="600" y="-740" font-family="Helvetica,sans-Serif" font-size="10.00">scalar::IceVolumeGlacierized</text>
<text text-anchor="middle" x="671" y="-729" font-family="Helvetica,sans-Serif" font-size="10.00">Shelf</text>
</a>
</g>
</g>
<!-- Node15&#45;&gt;Node31 -->
<g id="edge30" class="edge">
<title>Node15&#45;&gt;Node31</title>
<path fill="none" stroke="midnightblue" d="M457.48,-931.08C475.53,-891.86 516.23,-814.93 574,-772.5 579.49,-768.47 585.53,-764.97 591.84,-761.93"/>
<polygon fill="midnightblue" stroke="midnightblue" points="454.19,-929.87 453.28,-940.42 460.57,-932.74 454.19,-929.87"/>
</g>
<!-- Node32 -->
<g id="node32" class="node">
<title>Node32</title>
<g id="a_node32"><a xlink:href="classpism_1_1diagnostics_1_1scalar_1_1IceVolumeGlacierizedTemperate.html" target="_top" xlink:title="Computes the total volume of the temperate ice in glacierized areas.">
<polygon fill="none" stroke="black" points="592,-662 592,-703 750,-703 750,-662 592,-662"/>
<text text-anchor="start" x="600" y="-691" font-family="Helvetica,sans-Serif" font-size="10.00">pism::diagnostics::</text>
<text text-anchor="start" x="600" y="-680" font-family="Helvetica,sans-Serif" font-size="10.00">scalar::IceVolumeGlacierized</text>
<text text-anchor="middle" x="671" y="-669" font-family="Helvetica,sans-Serif" font-size="10.00">Temperate</text>
</a>
</g>
</g>
<!-- Node15&#45;&gt;Node32 -->
<g id="edge31" class="edge">
<title>Node15&#45;&gt;Node32</title>
<path fill="none" stroke="midnightblue" d="M453.12,-930.61C466.47,-881.53 502.87,-771.93 574,-712.5 579.36,-708.02 585.39,-704.21 591.75,-700.97"/>
<polygon fill="midnightblue" stroke="midnightblue" points="449.71,-929.82 450.55,-940.39 456.48,-931.6 449.71,-929.82"/>
</g>
<!-- Node33 -->
<g id="node33" class="node">
<title>Node33</title>
<g id="a_node33"><a xlink:href="classpism_1_1diagnostics_1_1scalar_1_1IceVolumeTemperate.html" target="_top" xlink:title="Computes the total volume of the temperate ice.">
<polygon fill="none" stroke="black" points="593.5,-612.5 593.5,-642.5 748.5,-642.5 748.5,-612.5 593.5,-612.5"/>
<text text-anchor="start" x="601.5" y="-630.5" font-family="Helvetica,sans-Serif" font-size="10.00">pism::diagnostics::</text>
<text text-anchor="middle" x="671" y="-619.5" font-family="Helvetica,sans-Serif" font-size="10.00">scalar::IceVolumeTemperate</text>
</a>
</g>
</g>
<!-- Node15&#45;&gt;Node33 -->
<g id="edge32" class="edge">
<title>Node15&#45;&gt;Node33</title>
<path fill="none" stroke="midnightblue" d="M450.07,-929.99C458.48,-871.62 487.36,-727.62 574,-652.5 579.73,-647.54 586.32,-643.54 593.31,-640.32"/>
<polygon fill="midnightblue" stroke="midnightblue" points="446.56,-929.79 448.69,-940.17 453.5,-930.73 446.56,-929.79"/>
</g>
<!-- Node34 -->
<g id="node34" class="node">
<title>Node34</title>
<g id="a_node34"><a xlink:href="classpism_1_1diagnostics_1_1scalar_1_1MaxDiffusivity.html" target="_top" xlink:title="Reports maximum diffusivity.">
<polygon fill="none" stroke="black" points="609.5,-563.5 609.5,-593.5 732.5,-593.5 732.5,-563.5 609.5,-563.5"/>
<text text-anchor="start" x="617.5" y="-581.5" font-family="Helvetica,sans-Serif" font-size="10.00">pism::diagnostics::</text>
<text text-anchor="middle" x="671" y="-570.5" font-family="Helvetica,sans-Serif" font-size="10.00">scalar::MaxDiffusivity</text>
</a>
</g>
</g>
<!-- Node15&#45;&gt;Node34 -->
<g id="edge33" class="edge">
<title>Node15&#45;&gt;Node34</title>
<path fill="none" stroke="midnightblue" d="M448.36,-930.42C453.23,-866 475.33,-693.53 574,-603.5 583.8,-594.56 596.38,-588.74 609.2,-584.97"/>
<polygon fill="midnightblue" stroke="midnightblue" points="444.86,-930.26 447.67,-940.47 451.84,-930.73 444.86,-930.26"/>
</g>
<!-- Node35 -->
<g id="node35" class="node">
<title>Node35</title>
<g id="a_node35"><a xlink:href="classpism_1_1diagnostics_1_1scalar_1_1MaxHorizontalVelocity.html" target="_top" xlink:title="Reports the maximum horizontal absolute velocity component over the grid.">
<polygon fill="none" stroke="black" points="590,-514.5 590,-544.5 752,-544.5 752,-514.5 590,-514.5"/>
<text text-anchor="start" x="598" y="-532.5" font-family="Helvetica,sans-Serif" font-size="10.00">pism::diagnostics::</text>
<text text-anchor="middle" x="671" y="-521.5" font-family="Helvetica,sans-Serif" font-size="10.00">scalar::MaxHorizontalVelocity</text>
</a>
</g>
</g>
<!-- Node15&#45;&gt;Node35 -->
<g id="edge34" class="edge">
<title>Node15&#45;&gt;Node35</title>
<path fill="none" stroke="midnightblue" d="M447.09,-929.88C448.8,-859.12 463.65,-659.26 574,-554.5 578.62,-550.11 583.91,-546.47 589.58,-543.45"/>
<polygon fill="midnightblue" stroke="midnightblue" points="443.59,-930.04 446.92,-940.1 450.59,-930.16 443.59,-930.04"/>
</g>
<!-- Node36 -->
<g id="node36" class="node">
<title>Node36</title>
<g id="a_node36"><a xlink:href="classpism_1_1diagnostics_1_1scalar_1_1SeaLevelRisePotential.html" target="_top" xlink:title="Computes the total ice volume which is relevant for sea&#45;level.">
<polygon fill="none" stroke="black" points="590.5,-465.5 590.5,-495.5 751.5,-495.5 751.5,-465.5 590.5,-465.5"/>
<text text-anchor="start" x="598.5" y="-483.5" font-family="Helvetica,sans-Serif" font-size="10.00">pism::diagnostics::</text>
<text text-anchor="middle" x="671" y="-472.5" font-family="Helvetica,sans-Serif" font-size="10.00">scalar::SeaLevelRisePotential</text>
</a>
</g>
</g>
<!-- Node15&#45;&gt;Node36 -->
<g id="edge35" class="edge">
<title>Node15&#45;&gt;Node36</title>
<path fill="none" stroke="midnightblue" d="M450.76,-930.17C463.99,-844.31 511.03,-566.37 574,-505.5 578.83,-500.83 584.41,-497.01 590.41,-493.87"/>
<polygon fill="midnightblue" stroke="midnightblue" points="447.29,-929.68 449.25,-940.09 454.21,-930.73 447.29,-929.68"/>
</g>
<!-- Node37 -->
<g id="node37" class="node">
<title>Node37</title>
<g id="a_node37"><a xlink:href="classpism_1_1diagnostics_1_1scalar_1_1TimeStepLength.html" target="_top" xlink:title="Reports the mass continuity time step.">
<polygon fill="none" stroke="black" points="605.5,-416.5 605.5,-446.5 736.5,-446.5 736.5,-416.5 605.5,-416.5"/>
<text text-anchor="start" x="613.5" y="-434.5" font-family="Helvetica,sans-Serif" font-size="10.00">pism::diagnostics::</text>
<text text-anchor="middle" x="671" y="-423.5" font-family="Helvetica,sans-Serif" font-size="10.00">scalar::TimeStepLength</text>
</a>
</g>
</g>
<!-- Node15&#45;&gt;Node37 -->
<g id="edge36" class="edge">
<title>Node15&#45;&gt;Node37</title>
<path fill="none" stroke="midnightblue" d="M449.96,-930.47C461.26,-839.05 504.58,-524.96 574,-456.5 582.58,-448.03 593.65,-442.33 605.2,-438.51"/>
<polygon fill="midnightblue" stroke="midnightblue" points="446.47,-930.13 448.74,-940.48 453.42,-930.98 446.47,-930.13"/>
</g>
<!-- Node38 -->
<g id="node38" class="node">
<title>Node38</title>
<g id="a_node38"><a xlink:href="classpism_1_1diagnostics_1_1scalar_1_1TimeStepRatio.html" target="_top" xlink:title="Reports the mass continuity time step.">
<polygon fill="none" stroke="black" points="609,-367.5 609,-397.5 733,-397.5 733,-367.5 609,-367.5"/>
<text text-anchor="start" x="617" y="-385.5" font-family="Helvetica,sans-Serif" font-size="10.00">pism::diagnostics::</text>
<text text-anchor="middle" x="671" y="-374.5" font-family="Helvetica,sans-Serif" font-size="10.00">scalar::TimeStepRatio</text>
</a>
</g>
</g>
<!-- Node15&#45;&gt;Node38 -->
<g id="edge37" class="edge">
<title>Node15&#45;&gt;Node38</title>
<path fill="none" stroke="midnightblue" d="M449.33,-930.23C458.81,-832.76 497.72,-482.99 574,-407.5 583.43,-398.17 595.87,-392.19 608.65,-388.39"/>
<polygon fill="midnightblue" stroke="midnightblue" points="445.83,-930.05 448.36,-940.34 452.8,-930.72 445.83,-930.05"/>
</g>
<!-- Node40 -->
<g id="node40" class="node">
<title>Node40</title>
<g id="a_node40"><a xlink:href="classpism_1_1diagnostics_1_1scalar_1_1IceMassRateOfChange.html" target="_top" xlink:title="Computes the rate of change of the total ice mass.">
<polygon fill="none" stroke="black" points="590,-318.5 590,-348.5 752,-348.5 752,-318.5 590,-318.5"/>
<text text-anchor="start" x="598" y="-336.5" font-family="Helvetica,sans-Serif" font-size="10.00">pism::diagnostics::</text>
<text text-anchor="middle" x="671" y="-325.5" font-family="Helvetica,sans-Serif" font-size="10.00">scalar::IceMassRateOfChange</text>
</a>
</g>
</g>
<!-- Node39&#45;&gt;Node40 -->
<g id="edge39" class="edge">
<title>Node39&#45;&gt;Node40</title>
<path fill="none" stroke="midnightblue" d="M517.72,-295.94C547.11,-303.19 580.88,-311.52 609.14,-318.49"/>
<polygon fill="midnightblue" stroke="midnightblue" points="518.48,-292.53 507.94,-293.53 516.81,-299.32 518.48,-292.53"/>
</g>
<!-- Node41 -->
<g id="node41" class="node">
<title>Node41</title>
<g id="a_node41"><a xlink:href="classpism_1_1diagnostics_1_1scalar_1_1IceMassRateOfChangeGlacierized.html" target="_top" xlink:title="Computes the rate of change of the total ice mass in glacierized areas.">
<polygon fill="none" stroke="black" points="590,-258 590,-299 752,-299 752,-258 590,-258"/>
<text text-anchor="start" x="598" y="-287" font-family="Helvetica,sans-Serif" font-size="10.00">pism::diagnostics::</text>
<text text-anchor="start" x="598" y="-276" font-family="Helvetica,sans-Serif" font-size="10.00">scalar::IceMassRateOfChange</text>
<text text-anchor="middle" x="671" y="-265" font-family="Helvetica,sans-Serif" font-size="10.00">Glacierized</text>
</a>
</g>
</g>
<!-- Node39&#45;&gt;Node41 -->
<g id="edge40" class="edge">
<title>Node39&#45;&gt;Node41</title>
<path fill="none" stroke="midnightblue" d="M547.33,-278.5C561.51,-278.5 575.93,-278.5 589.67,-278.5"/>
<polygon fill="midnightblue" stroke="midnightblue" points="547.06,-275 537.06,-278.5 547.06,-282 547.06,-275"/>
</g>
<!-- Node42 -->
<g id="node42" class="node">
<title>Node42</title>
<g id="a_node42"><a xlink:href="classpism_1_1diagnostics_1_1scalar_1_1IceVolumeRateOfChange.html" target="_top" xlink:title="Computes the rate of change of the total ice volume.">
<polygon fill="none" stroke="black" points="584.5,-208.5 584.5,-238.5 757.5,-238.5 757.5,-208.5 584.5,-208.5"/>
<text text-anchor="start" x="592.5" y="-226.5" font-family="Helvetica,sans-Serif" font-size="10.00">pism::diagnostics::</text>
<text text-anchor="middle" x="671" y="-215.5" font-family="Helvetica,sans-Serif" font-size="10.00">scalar::IceVolumeRateOfChange</text>
</a>
</g>
</g>
<!-- Node39&#45;&gt;Node42 -->
<g id="edge41" class="edge">
<title>Node39&#45;&gt;Node42</title>
<path fill="none" stroke="midnightblue" d="M517.72,-261.06C547.11,-253.81 580.88,-245.48 609.14,-238.51"/>
<polygon fill="midnightblue" stroke="midnightblue" points="516.81,-257.68 507.94,-263.47 518.48,-264.47 516.81,-257.68"/>
</g>
<!-- Node43 -->
<g id="node43" class="node">
<title>Node43</title>
<g id="a_node43"><a xlink:href="classpism_1_1diagnostics_1_1scalar_1_1IceVolumeRateOfChangeGlacierized.html" target="_top" xlink:title="Computes the rate of change of the total ice volume in glacierized areas.">
<polygon fill="none" stroke="black" points="584.5,-148 584.5,-189 757.5,-189 757.5,-148 584.5,-148"/>
<text text-anchor="start" x="592.5" y="-177" font-family="Helvetica,sans-Serif" font-size="10.00">pism::diagnostics::</text>
<text text-anchor="start" x="592.5" y="-166" font-family="Helvetica,sans-Serif" font-size="10.00">scalar::IceVolumeRateOfChange</text>
<text text-anchor="middle" x="671" y="-155" font-family="Helvetica,sans-Serif" font-size="10.00">Glacierized</text>
</a>
</g>
</g>
<!-- Node39&#45;&gt;Node43 -->
<g id="edge42" class="edge">
<title>Node39&#45;&gt;Node43</title>
<path fill="none" stroke="midnightblue" d="M475.98,-257.61C501,-240.29 538.6,-215.92 574,-199.5 582.1,-195.74 590.79,-192.25 599.5,-189.07"/>
<polygon fill="midnightblue" stroke="midnightblue" points="473.86,-254.82 467.68,-263.42 477.88,-260.56 473.86,-254.82"/>
</g>
<!-- Node45 -->
<g id="node45" class="node">
<title>Node45</title>
<g id="a_node45"><a xlink:href="classpism_1_1surface_1_1diagnostics_1_1TotalSurfaceAccumulation.html" target="_top" xlink:title="Reports the total accumulation rate.">
<polygon fill="none" stroke="black" points="596.5,-98.5 596.5,-128.5 745.5,-128.5 745.5,-98.5 596.5,-98.5"/>
<text text-anchor="start" x="604.5" y="-116.5" font-family="Helvetica,sans-Serif" font-size="10.00">pism::surface::diagnostics</text>
<text text-anchor="middle" x="671" y="-105.5" font-family="Helvetica,sans-Serif" font-size="10.00">::TotalSurfaceAccumulation</text>
</a>
</g>
</g>
<!-- Node44&#45;&gt;Node45 -->
<g id="edge44" class="edge">
<title>Node44&#45;&gt;Node45</title>
<path fill="none" stroke="midnightblue" d="M546.49,-100.21C563.29,-102.02 580.45,-103.86 596.44,-105.58"/>
<polygon fill="midnightblue" stroke="midnightblue" points="546.41,-96.68 536.1,-99.09 545.66,-103.64 546.41,-96.68"/>
</g>
<!-- Node46 -->
<g id="node46" class="node">
<title>Node46</title>
<g id="a_node46"><a xlink:href="classpism_1_1surface_1_1diagnostics_1_1TotalSurfaceMelt.html" target="_top" xlink:title="Reports the total melt rate.">
<polygon fill="none" stroke="black" points="599,-49.5 599,-79.5 743,-79.5 743,-49.5 599,-49.5"/>
<text text-anchor="start" x="607" y="-67.5" font-family="Helvetica,sans-Serif" font-size="10.00">pism::surface::diagnostics</text>
<text text-anchor="middle" x="671" y="-56.5" font-family="Helvetica,sans-Serif" font-size="10.00">::TotalSurfaceMelt</text>
</a>
</g>
</g>
<!-- Node44&#45;&gt;Node46 -->
<g id="edge45" class="edge">
<title>Node44&#45;&gt;Node46</title>
<path fill="none" stroke="midnightblue" d="M546.44,-78.35C564.11,-76.37 582.2,-74.34 598.88,-72.47"/>
<polygon fill="midnightblue" stroke="midnightblue" points="545.64,-74.92 536.1,-79.51 546.42,-81.88 545.64,-74.92"/>
</g>
<!-- Node47 -->
<g id="node47" class="node">
<title>Node47</title>
<g id="a_node47"><a xlink:href="classpism_1_1surface_1_1diagnostics_1_1TotalSurfaceRunoff.html" target="_top" xlink:title="Reports the total top surface ice flux.">
<polygon fill="none" stroke="black" points="599,-0.5 599,-30.5 743,-30.5 743,-0.5 599,-0.5"/>
<text text-anchor="start" x="607" y="-18.5" font-family="Helvetica,sans-Serif" font-size="10.00">pism::surface::diagnostics</text>
<text text-anchor="middle" x="671" y="-7.5" font-family="Helvetica,sans-Serif" font-size="10.00">::TotalSurfaceRunoff</text>
</a>
</g>
</g>
<!-- Node44&#45;&gt;Node47 -->
<g id="edge46" class="edge">
<title>Node44&#45;&gt;Node47</title>
<path fill="none" stroke="midnightblue" d="M492.3,-70.58C516.34,-60.91 546.52,-49.35 574,-40.5 584.9,-36.99 596.62,-33.62 607.99,-30.55"/>
<polygon fill="midnightblue" stroke="midnightblue" points="490.69,-67.46 482.74,-74.46 493.32,-73.95 490.69,-67.46"/>
</g>
</g>
</svg>
