<?xml version="1.0" encoding="UTF-8" standalone="no"?>
<!DOCTYPE svg PUBLIC "-//W3C//DTD SVG 1.1//EN"
 "http://www.w3.org/Graphics/SVG/1.1/DTD/svg11.dtd">
<!-- Generated by graphviz version 2.43.0 (0)
 -->
<!-- Title: pism::stressbalance::BlatterISMIPHOM Pages: 1 -->
<svg width="138pt" height="229pt"
 viewBox="0.00 0.00 138.00 229.00" xmlns="http://www.w3.org/2000/svg" xmlns:xlink="http://www.w3.org/1999/xlink">
<g id="graph0" class="graph" transform="scale(1 1) rotate(0) translate(4 225)">
<title>pism::stressbalance::BlatterISMIPHOM</title>
<!-- Node1 -->
<g id="node1" class="node">
<title>Node1</title>
<g id="a_node1"><a xlink:title=" ">
<polygon fill="#bfbfbf" stroke="black" points="8,-0.5 8,-30.5 122,-30.5 122,-0.5 8,-0.5"/>
<text text-anchor="start" x="16" y="-18.5" font-family="Helvetica,sans-Serif" font-size="10.00">pism::stressbalance</text>
<text text-anchor="middle" x="65" y="-7.5" font-family="Helvetica,sans-Serif" font-size="10.00">::BlatterISMIPHOM</text>
</a>
</g>
</g>
<!-- Node2 -->
<g id="node2" class="node">
<title>Node2</title>
<g id="a_node2"><a xlink:href="classpism_1_1stressbalance_1_1Blatter.html" target="_top" xlink:title=" ">
<polygon fill="none" stroke="black" points="8,-67.5 8,-97.5 122,-97.5 122,-67.5 8,-67.5"/>
<text text-anchor="start" x="16" y="-85.5" font-family="Helvetica,sans-Serif" font-size="10.00">pism::stressbalance</text>
<text text-anchor="middle" x="65" y="-74.5" font-family="Helvetica,sans-Serif" font-size="10.00">::Blatter</text>
</a>
</g>
</g>
<!-- Node2&#45;&gt;Node1 -->
<g id="edge1" class="edge">
<title>Node2&#45;&gt;Node1</title>
<path fill="none" stroke="midnightblue" d="M65,-57.11C65,-48.15 65,-38.32 65,-30.58"/>
<polygon fill="midnightblue" stroke="midnightblue" points="61.5,-57.4 65,-67.4 68.5,-57.4 61.5,-57.4"/>
</g>
<!-- Node3 -->
<g id="node3" class="node">
<title>Node3</title>
<g id="a_node3"><a xlink:href="classpism_1_1stressbalance_1_1ShallowStressBalance.html" target="_top" xlink:title="Shallow stress balance (such as the SSA).">
<polygon fill="none" stroke="black" points="0,-134.5 0,-164.5 130,-164.5 130,-134.5 0,-134.5"/>
<text text-anchor="start" x="8" y="-152.5" font-family="Helvetica,sans-Serif" font-size="10.00">pism::stressbalance</text>
<text text-anchor="middle" x="65" y="-141.5" font-family="Helvetica,sans-Serif" font-size="10.00">::ShallowStressBalance</text>
</a>
</g>
</g>
<!-- Node3&#45;&gt;Node2 -->
<g id="edge2" class="edge">
<title>Node3&#45;&gt;Node2</title>
<path fill="none" stroke="midnightblue" d="M65,-124.11C65,-115.15 65,-105.32 65,-97.58"/>
<polygon fill="midnightblue" stroke="midnightblue" points="61.5,-124.4 65,-134.4 68.5,-124.4 61.5,-124.4"/>
</g>
<!-- Node4 -->
<g id="node4" class="node">
<title>Node4</title>
<g id="a_node4"><a xlink:href="classpism_1_1Component.html" target="_top" xlink:title="A class defining a common interface for most PISM sub&#45;models.">
<polygon fill="none" stroke="black" points="13.5,-201.5 13.5,-220.5 116.5,-220.5 116.5,-201.5 13.5,-201.5"/>
<text text-anchor="middle" x="65" y="-208.5" font-family="Helvetica,sans-Serif" font-size="10.00">pism::Component</text>
</a>
</g>
</g>
<!-- Node4&#45;&gt;Node3 -->
<g id="edge3" class="edge">
<title>Node4&#45;&gt;Node3</title>
<path fill="none" stroke="midnightblue" d="M65,-191.23C65,-182.59 65,-172.5 65,-164.52"/>
<polygon fill="midnightblue" stroke="midnightblue" points="61.5,-191.48 65,-201.48 68.5,-191.48 61.5,-191.48"/>
</g>
</g>
</svg>
