<?xml version="1.0" encoding="UTF-8" standalone="no"?>
<!DOCTYPE svg PUBLIC "-//W3C//DTD SVG 1.1//EN"
 "http://www.w3.org/Graphics/SVG/1.1/DTD/svg11.dtd">
<!-- Generated by graphviz version 2.43.0 (0)
 -->
<!-- Title: pism::diagnostics::LiquidFraction Pages: 1 -->
<svg width="210pt" height="220pt"
 viewBox="0.00 0.00 210.00 220.00" xmlns="http://www.w3.org/2000/svg" xmlns:xlink="http://www.w3.org/1999/xlink">
<g id="graph0" class="graph" transform="scale(1 1) rotate(0) translate(4 216)">
<title>pism::diagnostics::LiquidFraction</title>
<!-- Node1 -->
<g id="node1" class="node">
<title>Node1</title>
<g id="a_node1"><a xlink:title="Computes the liquid water fraction.">
<polygon fill="#bfbfbf" stroke="black" points="14,-0.5 14,-30.5 122,-30.5 122,-0.5 14,-0.5"/>
<text text-anchor="start" x="22" y="-18.5" font-family="Helvetica,sans-Serif" font-size="10.00">pism::diagnostics::</text>
<text text-anchor="middle" x="68" y="-7.5" font-family="Helvetica,sans-Serif" font-size="10.00">LiquidFraction</text>
</a>
</g>
</g>
<!-- Node2 -->
<g id="node2" class="node">
<title>Node2</title>
<g id="a_node2"><a xlink:href="classpism_1_1Diag.html" target="_top" xlink:title=" ">
<polygon fill="none" stroke="black" points="0,-68.5 0,-87.5 136,-87.5 136,-68.5 0,-68.5"/>
<text text-anchor="middle" x="68" y="-75.5" font-family="Helvetica,sans-Serif" font-size="10.00">pism::Diag&lt; IceModel &gt;</text>
</a>
</g>
</g>
<!-- Node2&#45;&gt;Node1 -->
<g id="edge1" class="edge">
<title>Node2&#45;&gt;Node1</title>
<path fill="none" stroke="midnightblue" d="M68,-58.22C68,-49.36 68,-38.96 68,-30.76"/>
<polygon fill="midnightblue" stroke="midnightblue" points="64.5,-58.33 68,-68.33 71.5,-58.33 64.5,-58.33"/>
</g>
<!-- Node3 -->
<g id="node3" class="node">
<title>Node3</title>
<g id="a_node3"><a xlink:href="classpism_1_1Diagnostic.html" target="_top" xlink:title="Class representing diagnostic computations in PISM.">
<polygon fill="none" stroke="black" points="15,-192.5 15,-211.5 113,-211.5 113,-192.5 15,-192.5"/>
<text text-anchor="middle" x="64" y="-199.5" font-family="Helvetica,sans-Serif" font-size="10.00">pism::Diagnostic</text>
</a>
</g>
</g>
<!-- Node3&#45;&gt;Node2 -->
<g id="edge2" class="edge">
<title>Node3&#45;&gt;Node2</title>
<path fill="none" stroke="midnightblue" d="M64.62,-182.19C65.5,-155.4 67.07,-107.31 67.71,-87.69"/>
<polygon fill="midnightblue" stroke="midnightblue" points="61.12,-182.12 64.29,-192.23 68.11,-182.35 61.12,-182.12"/>
</g>
<!-- Node4 -->
<g id="node4" class="node">
<title>Node4</title>
<g id="a_node4"><a xlink:href="classpism_1_1Diag.html" target="_top" xlink:title="A template derived from Diagnostic, adding a &quot;Model&quot;.">
<polygon fill="none" stroke="black" points="80,-135.5 80,-154.5 202,-154.5 202,-135.5 80,-135.5"/>
<text text-anchor="middle" x="141" y="-142.5" font-family="Helvetica,sans-Serif" font-size="10.00">pism::Diag&lt; Model &gt;</text>
</a>
</g>
</g>
<!-- Node3&#45;&gt;Node4 -->
<g id="edge4" class="edge">
<title>Node3&#45;&gt;Node4</title>
<path fill="none" stroke="midnightblue" d="M84.25,-186.54C98.5,-176.35 117.11,-163.07 129.05,-154.53"/>
<polygon fill="midnightblue" stroke="midnightblue" points="82.13,-183.75 76.03,-192.41 86.2,-189.44 82.13,-183.75"/>
</g>
<!-- Node4&#45;&gt;Node2 -->
<g id="edge3" class="edge">
<title>Node4&#45;&gt;Node2</title>
<path fill="none" stroke="orange" stroke-dasharray="5,2" d="M123.43,-128.36C109.08,-115.58 89.33,-97.99 77.69,-87.63"/>
<polygon fill="orange" stroke="orange" points="121.36,-131.2 131.15,-135.23 126.01,-125.97 121.36,-131.2"/>
<text text-anchor="middle" x="143" y="-109" font-family="Helvetica,sans-Serif" font-size="10.00"> &lt; IceModel &gt;</text>
</g>
</g>
</svg>
