<?xml version="1.0" encoding="UTF-8" standalone="no"?>
<!DOCTYPE svg PUBLIC "-//W3C//DTD SVG 1.1//EN"
 "http://www.w3.org/Graphics/SVG/1.1/DTD/svg11.dtd">
<!-- Generated by graphviz version 2.43.0 (0)
 -->
<!-- Title: pism::surface::SurfaceModel Pages: 1 -->
<svg width="681pt" height="634pt"
 viewBox="0.00 0.00 681.00 633.50" xmlns="http://www.w3.org/2000/svg" xmlns:xlink="http://www.w3.org/1999/xlink">
<g id="graph0" class="graph" transform="scale(1 1) rotate(0) translate(4 629.5)">
<title>pism::surface::SurfaceModel</title>
<!-- Node1 -->
<g id="node1" class="node">
<title>Node1</title>
<g id="a_node1"><a xlink:title="The interface of PISM&#39;s surface models.">
<polygon fill="#bfbfbf" stroke="black" points="139,-309 139,-328 294,-328 294,-309 139,-309"/>
<text text-anchor="middle" x="216.5" y="-316" font-family="Helvetica,sans-Serif" font-size="10.00">pism::surface::SurfaceModel</text>
</a>
</g>
</g>
<!-- Node3 -->
<g id="node3" class="node">
<title>Node3</title>
<g id="a_node3"><a xlink:href="classpism_1_1icebin_1_1IBSurfaceModel.html" target="_top" xlink:title=" ">
<polygon fill="none" stroke="black" points="333,-606 333,-625 491,-625 491,-606 333,-606"/>
<text text-anchor="middle" x="412" y="-613" font-family="Helvetica,sans-Serif" font-size="10.00">pism::icebin::IBSurfaceModel</text>
</a>
</g>
</g>
<!-- Node1&#45;&gt;Node3 -->
<g id="edge2" class="edge">
<title>Node1&#45;&gt;Node3</title>
<path fill="none" stroke="midnightblue" d="M219.38,-338.24C225.35,-389.33 248.57,-526.75 330,-596.5 334.5,-600.35 339.63,-603.46 345.08,-605.96"/>
<polygon fill="midnightblue" stroke="midnightblue" points="222.85,-337.77 218.31,-328.2 215.89,-338.51 222.85,-337.77"/>
</g>
<!-- Node4 -->
<g id="node4" class="node">
<title>Node4</title>
<g id="a_node4"><a xlink:href="classpism_1_1surface_1_1Anomaly.html" target="_top" xlink:title="Reads and uses climatic_mass_balance and ice_surface_temp anomalies from a file.">
<polygon fill="none" stroke="black" points="346,-568 346,-587 478,-587 478,-568 346,-568"/>
<text text-anchor="middle" x="412" y="-575" font-family="Helvetica,sans-Serif" font-size="10.00">pism::surface::Anomaly</text>
</a>
</g>
</g>
<!-- Node1&#45;&gt;Node4 -->
<g id="edge3" class="edge">
<title>Node1&#45;&gt;Node4</title>
<path fill="none" stroke="midnightblue" d="M220.73,-338C229.41,-384 257.69,-499.86 330,-558.5 334.71,-562.32 340.06,-565.4 345.7,-567.88"/>
<polygon fill="midnightblue" stroke="midnightblue" points="224.17,-337.34 218.97,-328.11 217.27,-338.57 224.17,-337.34"/>
</g>
<!-- Node5 -->
<g id="node5" class="node">
<title>Node5</title>
<g id="a_node5"><a xlink:href="classpism_1_1surface_1_1Cache.html" target="_top" xlink:title=" ">
<polygon fill="none" stroke="black" points="352.5,-530 352.5,-549 471.5,-549 471.5,-530 352.5,-530"/>
<text text-anchor="middle" x="412" y="-537" font-family="Helvetica,sans-Serif" font-size="10.00">pism::surface::Cache</text>
</a>
</g>
</g>
<!-- Node1&#45;&gt;Node5 -->
<g id="edge4" class="edge">
<title>Node1&#45;&gt;Node5</title>
<path fill="none" stroke="midnightblue" d="M222.62,-338.19C234.3,-378.98 266.9,-472.88 330,-520.5 336.57,-525.46 344.23,-529.15 352.17,-531.9"/>
<polygon fill="midnightblue" stroke="midnightblue" points="225.96,-337.1 219.93,-328.38 219.21,-338.95 225.96,-337.1"/>
</g>
<!-- Node6 -->
<g id="node6" class="node">
<title>Node6</title>
<g id="a_node6"><a xlink:href="classpism_1_1surface_1_1DEBMSimple.html" target="_top" xlink:title="A class implementing a temperature&#45;index (positive degree&#45;day) scheme to compute melt and runoff,...">
<polygon fill="none" stroke="black" points="336,-492 336,-511 488,-511 488,-492 336,-492"/>
<text text-anchor="middle" x="412" y="-499" font-family="Helvetica,sans-Serif" font-size="10.00">pism::surface::DEBMSimple</text>
</a>
</g>
</g>
<!-- Node1&#45;&gt;Node6 -->
<g id="edge5" class="edge">
<title>Node1&#45;&gt;Node6</title>
<path fill="none" stroke="midnightblue" d="M225,-337.53C239.65,-372.13 275.51,-445.22 330,-482.5 335.6,-486.33 341.88,-489.4 348.39,-491.85"/>
<polygon fill="midnightblue" stroke="midnightblue" points="228.17,-336.03 221.13,-328.11 221.69,-338.69 228.17,-336.03"/>
</g>
<!-- Node7 -->
<g id="node7" class="node">
<title>Node7</title>
<g id="a_node7"><a xlink:href="classpism_1_1surface_1_1Delta__T.html" target="_top" xlink:title="Implements the scalar temperature offsets for the ice surface temperature.">
<polygon fill="none" stroke="black" points="349,-454 349,-473 475,-473 475,-454 349,-454"/>
<text text-anchor="middle" x="412" y="-461" font-family="Helvetica,sans-Serif" font-size="10.00">pism::surface::Delta_T</text>
</a>
</g>
</g>
<!-- Node1&#45;&gt;Node7 -->
<g id="edge6" class="edge">
<title>Node1&#45;&gt;Node7</title>
<path fill="none" stroke="midnightblue" d="M228.62,-336.94C246.41,-364.77 284,-417.16 330,-444.5 336.58,-448.41 343.91,-451.52 351.39,-453.98"/>
<polygon fill="midnightblue" stroke="midnightblue" points="231.43,-334.84 223.17,-328.2 225.49,-338.54 231.43,-334.84"/>
</g>
<!-- Node8 -->
<g id="node8" class="node">
<title>Node8</title>
<g id="a_node8"><a xlink:href="classpism_1_1surface_1_1Elevation.html" target="_top" xlink:title="A class implementing a elevation&#45;dependent temperature and mass balance model.">
<polygon fill="none" stroke="black" points="345,-416 345,-435 479,-435 479,-416 345,-416"/>
<text text-anchor="middle" x="412" y="-423" font-family="Helvetica,sans-Serif" font-size="10.00">pism::surface::Elevation</text>
</a>
</g>
</g>
<!-- Node1&#45;&gt;Node8 -->
<g id="edge7" class="edge">
<title>Node1&#45;&gt;Node8</title>
<path fill="none" stroke="midnightblue" d="M234.05,-335.32C254.68,-355.3 291.9,-388.23 330,-406.5 338.08,-410.37 346.99,-413.48 355.86,-415.97"/>
<polygon fill="midnightblue" stroke="midnightblue" points="236.32,-332.64 226.75,-328.11 231.4,-337.62 236.32,-332.64"/>
</g>
<!-- Node9 -->
<g id="node9" class="node">
<title>Node9</title>
<g id="a_node9"><a xlink:href="classpism_1_1surface_1_1ElevationChange.html" target="_top" xlink:title=" ">
<polygon fill="none" stroke="black" points="345,-366.5 345,-396.5 479,-396.5 479,-366.5 345,-366.5"/>
<text text-anchor="start" x="353" y="-384.5" font-family="Helvetica,sans-Serif" font-size="10.00">pism::surface::Elevation</text>
<text text-anchor="middle" x="412" y="-373.5" font-family="Helvetica,sans-Serif" font-size="10.00">Change</text>
</a>
</g>
</g>
<!-- Node1&#45;&gt;Node9 -->
<g id="edge8" class="edge">
<title>Node1&#45;&gt;Node9</title>
<path fill="none" stroke="midnightblue" d="M254.74,-331.35C276.61,-338.83 304.82,-348.36 330,-356.5 340.08,-359.76 350.9,-363.16 361.24,-366.37"/>
<polygon fill="midnightblue" stroke="midnightblue" points="255.77,-328.01 245.17,-328.07 253.5,-334.63 255.77,-328.01"/>
</g>
<!-- Node10 -->
<g id="node10" class="node">
<title>Node10</title>
<g id="a_node10"><a xlink:href="classpism_1_1surface_1_1ForceThickness.html" target="_top" xlink:title=" ">
<polygon fill="none" stroke="black" points="330,-328 330,-347 494,-347 494,-328 330,-328"/>
<text text-anchor="middle" x="412" y="-335" font-family="Helvetica,sans-Serif" font-size="10.00">pism::surface::ForceThickness</text>
</a>
</g>
</g>
<!-- Node1&#45;&gt;Node10 -->
<g id="edge9" class="edge">
<title>Node1&#45;&gt;Node10</title>
<path fill="none" stroke="midnightblue" d="M304.22,-327.01C312.76,-327.85 321.41,-328.7 329.89,-329.54"/>
<polygon fill="midnightblue" stroke="midnightblue" points="304.55,-323.53 294.25,-326.04 303.86,-330.5 304.55,-323.53"/>
</g>
<!-- Node11 -->
<g id="node11" class="node">
<title>Node11</title>
<g id="a_node11"><a xlink:href="classpism_1_1surface_1_1Given.html" target="_top" xlink:title=" ">
<polygon fill="none" stroke="black" points="353.5,-290 353.5,-309 470.5,-309 470.5,-290 353.5,-290"/>
<text text-anchor="middle" x="412" y="-297" font-family="Helvetica,sans-Serif" font-size="10.00">pism::surface::Given</text>
</a>
</g>
</g>
<!-- Node1&#45;&gt;Node11 -->
<g id="edge10" class="edge">
<title>Node1&#45;&gt;Node11</title>
<path fill="none" stroke="midnightblue" d="M304.51,-309.96C321.1,-308.33 338.07,-306.66 353.45,-305.15"/>
<polygon fill="midnightblue" stroke="midnightblue" points="303.86,-306.5 294.25,-310.96 304.55,-313.47 303.86,-306.5"/>
</g>
<!-- Node12 -->
<g id="node12" class="node">
<title>Node12</title>
<g id="a_node12"><a xlink:href="classpism_1_1surface_1_1ISMIP6.html" target="_top" xlink:title=" ">
<polygon fill="none" stroke="black" points="351,-252 351,-271 473,-271 473,-252 351,-252"/>
<text text-anchor="middle" x="412" y="-259" font-family="Helvetica,sans-Serif" font-size="10.00">pism::surface::ISMIP6</text>
</a>
</g>
</g>
<!-- Node1&#45;&gt;Node12 -->
<g id="edge11" class="edge">
<title>Node1&#45;&gt;Node12</title>
<path fill="none" stroke="midnightblue" d="M253.23,-305.46C275.21,-297.68 304.04,-287.91 330,-280.5 341.81,-277.13 354.7,-273.9 366.66,-271.1"/>
<polygon fill="midnightblue" stroke="midnightblue" points="251.89,-302.22 243.65,-308.88 254.24,-308.81 251.89,-302.22"/>
</g>
<!-- Node13 -->
<g id="node13" class="node">
<title>Node13</title>
<g id="a_node13"><a xlink:href="classpism_1_1surface_1_1InitializationHelper.html" target="_top" xlink:title=" ">
<polygon fill="none" stroke="black" points="337.5,-202.5 337.5,-232.5 486.5,-232.5 486.5,-202.5 337.5,-202.5"/>
<text text-anchor="start" x="345.5" y="-220.5" font-family="Helvetica,sans-Serif" font-size="10.00">pism::surface::Initialization</text>
<text text-anchor="middle" x="412" y="-209.5" font-family="Helvetica,sans-Serif" font-size="10.00">Helper</text>
</a>
</g>
</g>
<!-- Node1&#45;&gt;Node13 -->
<g id="edge12" class="edge">
<title>Node1&#45;&gt;Node13</title>
<path fill="none" stroke="midnightblue" d="M237.35,-302.42C259.01,-285.52 295.25,-259.15 330,-242.5 337.7,-238.81 346.07,-235.51 354.4,-232.61"/>
<polygon fill="midnightblue" stroke="midnightblue" points="234.94,-299.86 229.27,-308.81 239.28,-305.35 234.94,-299.86"/>
</g>
<!-- Node14 -->
<g id="node14" class="node">
<title>Node14</title>
<g id="a_node14"><a xlink:href="classpism_1_1surface_1_1NoGLRetreat.html" target="_top" xlink:title=" ">
<polygon fill="none" stroke="black" points="336.5,-164 336.5,-183 487.5,-183 487.5,-164 336.5,-164"/>
<text text-anchor="middle" x="412" y="-171" font-family="Helvetica,sans-Serif" font-size="10.00">pism::surface::NoGLRetreat</text>
</a>
</g>
</g>
<!-- Node1&#45;&gt;Node14 -->
<g id="edge13" class="edge">
<title>Node1&#45;&gt;Node14</title>
<path fill="none" stroke="midnightblue" d="M228.62,-300.06C246.41,-272.23 284,-219.84 330,-192.5 336.58,-188.59 343.91,-185.48 351.39,-183.02"/>
<polygon fill="midnightblue" stroke="midnightblue" points="225.49,-298.46 223.17,-308.8 231.43,-302.16 225.49,-298.46"/>
</g>
<!-- Node15 -->
<g id="node15" class="node">
<title>Node15</title>
<g id="a_node15"><a xlink:href="classpism_1_1surface_1_1PIK.html" target="_top" xlink:title="A class implementing a constant&#45;in&#45;time surface model for the surface mass balance.">
<polygon fill="none" stroke="black" points="360,-126 360,-145 464,-145 464,-126 360,-126"/>
<text text-anchor="middle" x="412" y="-133" font-family="Helvetica,sans-Serif" font-size="10.00">pism::surface::PIK</text>
</a>
</g>
</g>
<!-- Node1&#45;&gt;Node15 -->
<g id="edge14" class="edge">
<title>Node1&#45;&gt;Node15</title>
<path fill="none" stroke="midnightblue" d="M225,-299.47C239.65,-264.87 275.51,-191.78 330,-154.5 338.82,-148.46 349.31,-144.33 359.77,-141.5"/>
<polygon fill="midnightblue" stroke="midnightblue" points="221.69,-298.31 221.13,-308.89 228.17,-300.97 221.69,-298.31"/>
</g>
<!-- Node16 -->
<g id="node16" class="node">
<title>Node16</title>
<g id="a_node16"><a xlink:href="classpism_1_1surface_1_1PSFormulas.html" target="_top" xlink:title=" ">
<polygon fill="none" stroke="black" points="339,-88 339,-107 485,-107 485,-88 339,-88"/>
<text text-anchor="middle" x="412" y="-95" font-family="Helvetica,sans-Serif" font-size="10.00">pism::surface::PSFormulas</text>
</a>
</g>
</g>
<!-- Node1&#45;&gt;Node16 -->
<g id="edge15" class="edge">
<title>Node1&#45;&gt;Node16</title>
<path fill="none" stroke="midnightblue" d="M222.62,-298.81C234.3,-258.02 266.9,-164.12 330,-116.5 335.07,-112.67 340.79,-109.6 346.79,-107.13"/>
<polygon fill="midnightblue" stroke="midnightblue" points="219.21,-298.05 219.93,-308.62 225.96,-299.9 219.21,-298.05"/>
</g>
<!-- Node19 -->
<g id="node19" class="node">
<title>Node19</title>
<g id="a_node19"><a xlink:href="classpism_1_1surface_1_1Simple.html" target="_top" xlink:title="A class implementing a primitive surface model.">
<polygon fill="none" stroke="black" points="351,-50 351,-69 473,-69 473,-50 351,-50"/>
<text text-anchor="middle" x="412" y="-57" font-family="Helvetica,sans-Serif" font-size="10.00">pism::surface::Simple</text>
</a>
</g>
</g>
<!-- Node1&#45;&gt;Node19 -->
<g id="edge18" class="edge">
<title>Node1&#45;&gt;Node19</title>
<path fill="none" stroke="midnightblue" d="M220.73,-299C229.41,-253 257.69,-137.14 330,-78.5 336.06,-73.59 343.16,-69.9 350.61,-67.14"/>
<polygon fill="midnightblue" stroke="midnightblue" points="217.27,-298.43 218.97,-308.89 224.17,-299.66 217.27,-298.43"/>
</g>
<!-- Node20 -->
<g id="node20" class="node">
<title>Node20</title>
<g id="a_node20"><a xlink:href="classpism_1_1surface_1_1TemperatureIndex.html" target="_top" xlink:title="A class implementing a temperature&#45;index (positive degree&#45;day) scheme to compute melt and runoff,...">
<polygon fill="none" stroke="black" points="337,-0.5 337,-30.5 487,-30.5 487,-0.5 337,-0.5"/>
<text text-anchor="start" x="345" y="-18.5" font-family="Helvetica,sans-Serif" font-size="10.00">pism::surface::Temperature</text>
<text text-anchor="middle" x="412" y="-7.5" font-family="Helvetica,sans-Serif" font-size="10.00">Index</text>
</a>
</g>
</g>
<!-- Node1&#45;&gt;Node20 -->
<g id="edge19" class="edge">
<title>Node1&#45;&gt;Node20</title>
<path fill="none" stroke="midnightblue" d="M219.71,-298.76C226.42,-248.18 251.19,-112.87 330,-40.5 334.23,-36.62 339.05,-33.34 344.18,-30.57"/>
<polygon fill="midnightblue" stroke="midnightblue" points="216.2,-298.61 218.45,-308.96 223.15,-299.47 216.2,-298.61"/>
</g>
<!-- Node2 -->
<g id="node2" class="node">
<title>Node2</title>
<g id="a_node2"><a xlink:href="classpism_1_1Component.html" target="_top" xlink:title="A class defining a common interface for most PISM sub&#45;models.">
<polygon fill="none" stroke="black" points="0,-309 0,-328 103,-328 103,-309 0,-309"/>
<text text-anchor="middle" x="51.5" y="-316" font-family="Helvetica,sans-Serif" font-size="10.00">pism::Component</text>
</a>
</g>
</g>
<!-- Node2&#45;&gt;Node1 -->
<g id="edge1" class="edge">
<title>Node2&#45;&gt;Node1</title>
<path fill="none" stroke="midnightblue" d="M113.19,-318.5C121.55,-318.5 130.22,-318.5 138.82,-318.5"/>
<polygon fill="midnightblue" stroke="midnightblue" points="113.18,-315 103.18,-318.5 113.18,-322 113.18,-315"/>
</g>
<!-- Node17 -->
<g id="node17" class="node">
<title>Node17</title>
<g id="a_node17"><a xlink:href="classpism_1_1surface_1_1EISMINTII.html" target="_top" xlink:title=" ">
<polygon fill="none" stroke="black" points="534,-107 534,-126 669,-126 669,-107 534,-107"/>
<text text-anchor="middle" x="601.5" y="-114" font-family="Helvetica,sans-Serif" font-size="10.00">pism::surface::EISMINTII</text>
</a>
</g>
</g>
<!-- Node16&#45;&gt;Node17 -->
<g id="edge16" class="edge">
<title>Node16&#45;&gt;Node17</title>
<path fill="none" stroke="midnightblue" d="M495.44,-105.85C508.28,-107.16 521.41,-108.49 533.84,-109.75"/>
<polygon fill="midnightblue" stroke="midnightblue" points="495.53,-102.34 485.22,-104.82 494.82,-109.31 495.53,-102.34"/>
</g>
<!-- Node18 -->
<g id="node18" class="node">
<title>Node18</title>
<g id="a_node18"><a xlink:href="classpism_1_1surface_1_1Verification.html" target="_top" xlink:title="Climate inputs for verification tests.">
<polygon fill="none" stroke="black" points="530,-69 530,-88 673,-88 673,-69 530,-69"/>
<text text-anchor="middle" x="601.5" y="-76" font-family="Helvetica,sans-Serif" font-size="10.00">pism::surface::Verification</text>
</a>
</g>
</g>
<!-- Node16&#45;&gt;Node18 -->
<g id="edge17" class="edge">
<title>Node16&#45;&gt;Node18</title>
<path fill="none" stroke="midnightblue" d="M495.28,-89.16C506.81,-87.99 518.57,-86.8 529.86,-85.66"/>
<polygon fill="midnightblue" stroke="midnightblue" points="494.82,-85.69 485.22,-90.18 495.53,-92.66 494.82,-85.69"/>
</g>
</g>
</svg>
