<?xml version="1.0" encoding="UTF-8" standalone="no"?>
<!DOCTYPE svg PUBLIC "-//W3C//DTD SVG 1.1//EN"
 "http://www.w3.org/Graphics/SVG/1.1/DTD/svg11.dtd">
<!-- Generated by graphviz version 2.43.0 (0)
 -->
<!-- Title: pism::stressbalance::SSATestCase Pages: 1 -->
<svg width="272pt" height="284pt"
 viewBox="0.00 0.00 272.00 284.00" xmlns="http://www.w3.org/2000/svg" xmlns:xlink="http://www.w3.org/1999/xlink">
<g id="graph0" class="graph" transform="scale(1 1) rotate(0) translate(4 280)">
<title>pism::stressbalance::SSATestCase</title>
<!-- Node1 -->
<g id="node1" class="node">
<title>Node1</title>
<g id="a_node1"><a xlink:title=" ">
<polygon fill="#bfbfbf" stroke="black" points="0,-122.5 0,-152.5 114,-152.5 114,-122.5 0,-122.5"/>
<text text-anchor="start" x="8" y="-140.5" font-family="Helvetica,sans-Serif" font-size="10.00">pism::stressbalance</text>
<text text-anchor="middle" x="57" y="-129.5" font-family="Helvetica,sans-Serif" font-size="10.00">::SSATestCase</text>
</a>
</g>
</g>
<!-- Node2 -->
<g id="node2" class="node">
<title>Node2</title>
<g id="a_node2"><a xlink:href="classpism_1_1stressbalance_1_1SSATestCaseCFBC.html" target="_top" xlink:title=" ">
<polygon fill="none" stroke="black" points="150,-245.5 150,-275.5 264,-275.5 264,-245.5 150,-245.5"/>
<text text-anchor="start" x="158" y="-263.5" font-family="Helvetica,sans-Serif" font-size="10.00">pism::stressbalance</text>
<text text-anchor="middle" x="207" y="-252.5" font-family="Helvetica,sans-Serif" font-size="10.00">::SSATestCaseCFBC</text>
</a>
</g>
</g>
<!-- Node1&#45;&gt;Node2 -->
<g id="edge1" class="edge">
<title>Node1&#45;&gt;Node2</title>
<path fill="none" stroke="midnightblue" d="M75.08,-160.89C92.05,-182.8 119.85,-215.27 150,-236.5 154.67,-239.79 159.86,-242.76 165.15,-245.4"/>
<polygon fill="midnightblue" stroke="midnightblue" points="77.74,-158.62 68.91,-152.78 72.17,-162.85 77.74,-158.62"/>
</g>
<!-- Node3 -->
<g id="node3" class="node">
<title>Node3</title>
<g id="a_node3"><a xlink:href="classpism_1_1stressbalance_1_1SSATestCaseConst.html" target="_top" xlink:title=" ">
<polygon fill="none" stroke="black" points="150,-196.5 150,-226.5 264,-226.5 264,-196.5 150,-196.5"/>
<text text-anchor="start" x="158" y="-214.5" font-family="Helvetica,sans-Serif" font-size="10.00">pism::stressbalance</text>
<text text-anchor="middle" x="207" y="-203.5" font-family="Helvetica,sans-Serif" font-size="10.00">::SSATestCaseConst</text>
</a>
</g>
</g>
<!-- Node1&#45;&gt;Node3 -->
<g id="edge2" class="edge">
<title>Node1&#45;&gt;Node3</title>
<path fill="none" stroke="midnightblue" d="M93.23,-157.65C110.2,-167.09 130.95,-178.27 150,-187.5 156.28,-190.55 163.05,-193.62 169.63,-196.5"/>
<polygon fill="midnightblue" stroke="midnightblue" points="94.67,-154.44 84.23,-152.6 91.24,-160.54 94.67,-154.44"/>
</g>
<!-- Node4 -->
<g id="node4" class="node">
<title>Node4</title>
<g id="a_node4"><a xlink:href="classpism_1_1stressbalance_1_1SSATestCaseExp.html" target="_top" xlink:title=" ">
<polygon fill="none" stroke="black" points="150,-147.5 150,-177.5 264,-177.5 264,-147.5 150,-147.5"/>
<text text-anchor="start" x="158" y="-165.5" font-family="Helvetica,sans-Serif" font-size="10.00">pism::stressbalance</text>
<text text-anchor="middle" x="207" y="-154.5" font-family="Helvetica,sans-Serif" font-size="10.00">::SSATestCaseExp</text>
</a>
</g>
</g>
<!-- Node1&#45;&gt;Node4 -->
<g id="edge3" class="edge">
<title>Node1&#45;&gt;Node4</title>
<path fill="none" stroke="midnightblue" d="M124.28,-148.7C132.8,-150.13 141.45,-151.6 149.78,-153"/>
<polygon fill="midnightblue" stroke="midnightblue" points="124.82,-145.24 114.37,-147.02 123.65,-152.14 124.82,-145.24"/>
</g>
<!-- Node5 -->
<g id="node5" class="node">
<title>Node5</title>
<g id="a_node5"><a xlink:href="classpism_1_1stressbalance_1_1SSATestCaseI.html" target="_top" xlink:title=" ">
<polygon fill="none" stroke="black" points="150,-98.5 150,-128.5 264,-128.5 264,-98.5 150,-98.5"/>
<text text-anchor="start" x="158" y="-116.5" font-family="Helvetica,sans-Serif" font-size="10.00">pism::stressbalance</text>
<text text-anchor="middle" x="207" y="-105.5" font-family="Helvetica,sans-Serif" font-size="10.00">::SSATestCaseI</text>
</a>
</g>
</g>
<!-- Node1&#45;&gt;Node5 -->
<g id="edge4" class="edge">
<title>Node1&#45;&gt;Node5</title>
<path fill="none" stroke="midnightblue" d="M124.28,-126.75C132.8,-125.37 141.45,-123.97 149.78,-122.62"/>
<polygon fill="midnightblue" stroke="midnightblue" points="123.69,-123.3 114.37,-128.36 124.81,-130.21 123.69,-123.3"/>
</g>
<!-- Node6 -->
<g id="node6" class="node">
<title>Node6</title>
<g id="a_node6"><a xlink:href="classpism_1_1stressbalance_1_1SSATestCaseJ.html" target="_top" xlink:title=" ">
<polygon fill="none" stroke="black" points="150,-49.5 150,-79.5 264,-79.5 264,-49.5 150,-49.5"/>
<text text-anchor="start" x="158" y="-67.5" font-family="Helvetica,sans-Serif" font-size="10.00">pism::stressbalance</text>
<text text-anchor="middle" x="207" y="-56.5" font-family="Helvetica,sans-Serif" font-size="10.00">::SSATestCaseJ</text>
</a>
</g>
</g>
<!-- Node1&#45;&gt;Node6 -->
<g id="edge5" class="edge">
<title>Node1&#45;&gt;Node6</title>
<path fill="none" stroke="midnightblue" d="M94.87,-117.61C111.58,-108.76 131.66,-98.37 150,-89.5 156.9,-86.16 164.35,-82.73 171.49,-79.51"/>
<polygon fill="midnightblue" stroke="midnightblue" points="93.15,-114.56 85.96,-122.35 96.43,-120.74 93.15,-114.56"/>
</g>
<!-- Node7 -->
<g id="node7" class="node">
<title>Node7</title>
<g id="a_node7"><a xlink:href="classpism_1_1stressbalance_1_1SSATestCasePlug.html" target="_top" xlink:title=" ">
<polygon fill="none" stroke="black" points="150,-0.5 150,-30.5 264,-30.5 264,-0.5 150,-0.5"/>
<text text-anchor="start" x="158" y="-18.5" font-family="Helvetica,sans-Serif" font-size="10.00">pism::stressbalance</text>
<text text-anchor="middle" x="207" y="-7.5" font-family="Helvetica,sans-Serif" font-size="10.00">::SSATestCasePlug</text>
</a>
</g>
</g>
<!-- Node1&#45;&gt;Node7 -->
<g id="edge6" class="edge">
<title>Node1&#45;&gt;Node7</title>
<path fill="none" stroke="midnightblue" d="M75.53,-114.34C92.66,-92.96 120.4,-61.45 150,-40.5 155.21,-36.81 161.06,-33.48 166.96,-30.53"/>
<polygon fill="midnightblue" stroke="midnightblue" points="72.73,-112.25 69.3,-122.27 78.23,-116.57 72.73,-112.25"/>
</g>
</g>
</svg>
