<?xml version="1.0" encoding="UTF-8" standalone="no"?>
<!DOCTYPE svg PUBLIC "-//W3C//DTD SVG 1.1//EN"
 "http://www.w3.org/Graphics/SVG/1.1/DTD/svg11.dtd">
<!-- Generated by graphviz version 2.43.0 (0)
 -->
<!-- Title: pism::petsc::Vec Pages: 1 -->
<svg width="187pt" height="220pt"
 viewBox="0.00 0.00 187.00 220.00" xmlns="http://www.w3.org/2000/svg" xmlns:xlink="http://www.w3.org/1999/xlink">
<g id="graph0" class="graph" transform="scale(1 1) rotate(0) translate(4 216)">
<title>pism::petsc::Vec</title>
<!-- Node1 -->
<g id="node1" class="node">
<title>Node1</title>
<g id="a_node1"><a xlink:title=" ">
<polygon fill="#bfbfbf" stroke="black" points="41.5,-57.5 41.5,-76.5 137.5,-76.5 137.5,-57.5 41.5,-57.5"/>
<text text-anchor="middle" x="89.5" y="-64.5" font-family="Helvetica,sans-Serif" font-size="10.00">pism::petsc::Vec</text>
</a>
</g>
</g>
<!-- Node4 -->
<g id="node4" class="node">
<title>Node4</title>
<g id="a_node4"><a xlink:href="classpism_1_1petsc_1_1TemporaryGlobalVec.html" target="_top" xlink:title=" ">
<polygon fill="none" stroke="black" points="0,-0.5 0,-19.5 179,-19.5 179,-0.5 0,-0.5"/>
<text text-anchor="middle" x="89.5" y="-7.5" font-family="Helvetica,sans-Serif" font-size="10.00">pism::petsc::TemporaryGlobalVec</text>
</a>
</g>
</g>
<!-- Node1&#45;&gt;Node4 -->
<g id="edge3" class="edge">
<title>Node1&#45;&gt;Node4</title>
<path fill="none" stroke="midnightblue" d="M89.5,-47.12C89.5,-37.82 89.5,-27.06 89.5,-19.71"/>
<polygon fill="midnightblue" stroke="midnightblue" points="86,-47.41 89.5,-57.41 93,-47.41 86,-47.41"/>
</g>
<!-- Node2 -->
<g id="node2" class="node">
<title>Node2</title>
<g id="a_node2"><a xlink:href="classpism_1_1petsc_1_1Wrapper.html" target="_top" xlink:title=" ">
<polygon fill="none" stroke="black" points="29.5,-114.5 29.5,-144.5 149.5,-144.5 149.5,-114.5 29.5,-114.5"/>
<text text-anchor="start" x="37.5" y="-132.5" font-family="Helvetica,sans-Serif" font-size="10.00">pism::petsc::Wrapper</text>
<text text-anchor="middle" x="89.5" y="-121.5" font-family="Helvetica,sans-Serif" font-size="10.00">&lt; ::Vec &gt;</text>
</a>
</g>
</g>
<!-- Node2&#45;&gt;Node1 -->
<g id="edge1" class="edge">
<title>Node2&#45;&gt;Node1</title>
<path fill="none" stroke="midnightblue" d="M89.5,-104.35C89.5,-94.51 89.5,-83.78 89.5,-76.54"/>
<polygon fill="midnightblue" stroke="midnightblue" points="86,-104.47 89.5,-114.47 93,-104.47 86,-104.47"/>
</g>
<!-- Node3 -->
<g id="node3" class="node">
<title>Node3</title>
<g id="a_node3"><a xlink:href="classpism_1_1petsc_1_1Wrapper.html" target="_top" xlink:title=" ">
<polygon fill="none" stroke="black" points="15,-192.5 15,-211.5 164,-211.5 164,-192.5 15,-192.5"/>
<text text-anchor="middle" x="89.5" y="-199.5" font-family="Helvetica,sans-Serif" font-size="10.00">pism::petsc::Wrapper&lt; T &gt;</text>
</a>
</g>
</g>
<!-- Node3&#45;&gt;Node2 -->
<g id="edge2" class="edge">
<title>Node3&#45;&gt;Node2</title>
<path fill="none" stroke="orange" stroke-dasharray="5,2" d="M89.5,-182.24C89.5,-170.41 89.5,-155.38 89.5,-144.58"/>
<polygon fill="orange" stroke="orange" points="86,-182.36 89.5,-192.36 93,-182.36 86,-182.36"/>
<text text-anchor="middle" x="114" y="-166" font-family="Helvetica,sans-Serif" font-size="10.00"> &lt; ::Vec &gt;</text>
</g>
</g>
</svg>
