<?xml version="1.0" encoding="UTF-8" standalone="no"?>
<!DOCTYPE svg PUBLIC "-//W3C//DTD SVG 1.1//EN"
 "http://www.w3.org/Graphics/SVG/1.1/DTD/svg11.dtd">
<!-- Generated by graphviz version 2.43.0 (0)
 -->
<!-- Title: pism::Config Pages: 1 -->
<svg width="242pt" height="137pt"
 viewBox="0.00 0.00 242.00 137.00" xmlns="http://www.w3.org/2000/svg" xmlns:xlink="http://www.w3.org/1999/xlink">
<g id="graph0" class="graph" transform="scale(1 1) rotate(0) translate(4 133)">
<title>pism::Config</title>
<!-- Node1 -->
<g id="Node000001" class="node">
<title>Node1</title>
<g id="a_Node000001"><a xlink:title="A class for storing and accessing PISM configuration flags and parameters.">
<polygon fill="#999999" stroke="#666666" points="152,-129 75,-129 75,-110 152,-110 152,-129"/>
<text text-anchor="middle" x="113.5" y="-117" font-family="Helvetica,sans-Serif" font-size="10.00">pism::Config</text>
</a>
</g>
</g>
<!-- Node2 -->
<g id="Node000002" class="node">
<title>Node2</title>
<g id="a_Node000002"><a xlink:href="classpism_1_1ConfigJSON.html" target="_top" xlink:title="The JSON&#45;based Config implementation.">
<polygon fill="white" stroke="#666666" points="101,-74 0,-74 0,-55 101,-55 101,-74"/>
<text text-anchor="middle" x="50.5" y="-62" font-family="Helvetica,sans-Serif" font-size="10.00">pism::ConfigJSON</text>
</a>
</g>
</g>
<!-- Node1&#45;&gt;Node2 -->
<g id="edge1_Node000001_Node000002" class="edge">
<title>Node1&#45;&gt;Node2</title>
<g id="a_edge1_Node000001_Node000002"><a xlink:title=" ">
<path fill="none" stroke="#63b8ff" d="M95.46,-103.32C84.23,-93.87 70.18,-82.06 60.81,-74.17"/>
<polygon fill="#63b8ff" stroke="#63b8ff" points="93.47,-106.23 103.38,-109.98 97.98,-100.87 93.47,-106.23"/>
</a>
</g>
</g>
<!-- Node3 -->
<g id="Node000003" class="node">
<title>Node3</title>
<g id="a_Node000003"><a xlink:href="classpism_1_1NetCDFConfig.html" target="_top" xlink:title="A class for reading, writing and accessing PISM configuration flags and parameters.">
<polygon fill="white" stroke="#666666" points="234,-74 119,-74 119,-55 234,-55 234,-74"/>
<text text-anchor="middle" x="176.5" y="-62" font-family="Helvetica,sans-Serif" font-size="10.00">pism::NetCDFConfig</text>
</a>
</g>
</g>
<!-- Node1&#45;&gt;Node3 -->
<g id="edge2_Node000001_Node000003" class="edge">
<title>Node1&#45;&gt;Node3</title>
<g id="a_edge2_Node000001_Node000003"><a xlink:title=" ">
<path fill="none" stroke="#63b8ff" d="M131.54,-103.32C142.77,-93.87 156.82,-82.06 166.19,-74.17"/>
<polygon fill="#63b8ff" stroke="#63b8ff" points="129.02,-100.87 123.62,-109.98 133.53,-106.23 129.02,-100.87"/>
</a>
</g>
</g>
<!-- Node4 -->
<g id="Node000004" class="node">
<title>Node4</title>
<g id="a_Node000004"><a xlink:href="classpism_1_1DefaultConfig.html" target="_top" xlink:title="Default PISM configuration database: uses NetCDF files; can be initialized from a file specified usin...">
<polygon fill="white" stroke="#666666" points="233,-19 120,-19 120,0 233,0 233,-19"/>
<text text-anchor="middle" x="176.5" y="-7" font-family="Helvetica,sans-Serif" font-size="10.00">pism::DefaultConfig</text>
</a>
</g>
</g>
<!-- Node3&#45;&gt;Node4 -->
<g id="edge3_Node000003_Node000004" class="edge">
<title>Node3&#45;&gt;Node4</title>
<g id="a_edge3_Node000003_Node000004"><a xlink:title=" ">
<path fill="none" stroke="#63b8ff" d="M176.5,-44.66C176.5,-35.93 176.5,-25.99 176.5,-19.09"/>
<polygon fill="#63b8ff" stroke="#63b8ff" points="173,-44.75 176.5,-54.75 180,-44.75 173,-44.75"/>
</a>
</g>
</g>
</g>
</svg>
