<?xml version="1.0" encoding="UTF-8" standalone="no"?>
<!DOCTYPE svg PUBLIC "-//W3C//DTD SVG 1.1//EN"
 "http://www.w3.org/Graphics/SVG/1.1/DTD/svg11.dtd">
<!-- Generated by graphviz version 2.43.0 (0)
 -->
<!-- Title: pism::ocean::CompleteOceanModel Pages: 1 -->
<svg width="677pt" height="192pt"
 viewBox="0.00 0.00 677.00 191.50" xmlns="http://www.w3.org/2000/svg" xmlns:xlink="http://www.w3.org/1999/xlink">
<g id="graph0" class="graph" transform="scale(1 1) rotate(0) translate(4 187.5)">
<title>pism::ocean::CompleteOceanModel</title>
<!-- Node1 -->
<g id="node1" class="node">
<title>Node1</title>
<g id="a_node1"><a xlink:title=" ">
<polygon fill="#bfbfbf" stroke="black" points="318,-82.5 318,-112.5 478,-112.5 478,-82.5 318,-82.5"/>
<text text-anchor="start" x="326" y="-100.5" font-family="Helvetica,sans-Serif" font-size="10.00">pism::ocean::CompleteOcean</text>
<text text-anchor="middle" x="398" y="-89.5" font-family="Helvetica,sans-Serif" font-size="10.00">Model</text>
</a>
</g>
</g>
<!-- Node4 -->
<g id="node4" class="node">
<title>Node4</title>
<g id="a_node4"><a xlink:href="classpism_1_1ocean_1_1Constant.html" target="_top" xlink:title="A class implementing a constant (in terms of the ocean inputs) ocean model. Uses configuration parame...">
<polygon fill="none" stroke="black" points="529,-164 529,-183 654,-183 654,-164 529,-164"/>
<text text-anchor="middle" x="591.5" y="-171" font-family="Helvetica,sans-Serif" font-size="10.00">pism::ocean::Constant</text>
</a>
</g>
</g>
<!-- Node1&#45;&gt;Node4 -->
<g id="edge3" class="edge">
<title>Node1&#45;&gt;Node4</title>
<path fill="none" stroke="midnightblue" d="M434.01,-117.34C456.35,-129.37 486.24,-144.31 514,-154.5 523.89,-158.13 534.75,-161.3 545.11,-163.95"/>
<polygon fill="midnightblue" stroke="midnightblue" points="435.68,-114.26 425.23,-112.55 432.33,-120.41 435.68,-114.26"/>
</g>
<!-- Node5 -->
<g id="node5" class="node">
<title>Node5</title>
<g id="a_node5"><a xlink:href="classpism_1_1ocean_1_1GivenTH.html" target="_top" xlink:title=" ">
<polygon fill="none" stroke="black" points="529.5,-126 529.5,-145 653.5,-145 653.5,-126 529.5,-126"/>
<text text-anchor="middle" x="591.5" y="-133" font-family="Helvetica,sans-Serif" font-size="10.00">pism::ocean::GivenTH</text>
</a>
</g>
</g>
<!-- Node1&#45;&gt;Node5 -->
<g id="edge4" class="edge">
<title>Node1&#45;&gt;Node5</title>
<path fill="none" stroke="midnightblue" d="M484.7,-114.51C504.58,-118.45 525.05,-122.51 542.62,-126"/>
<polygon fill="midnightblue" stroke="midnightblue" points="485.18,-111.03 474.69,-112.52 483.81,-117.9 485.18,-111.03"/>
</g>
<!-- Node6 -->
<g id="node6" class="node">
<title>Node6</title>
<g id="a_node6"><a xlink:href="classpism_1_1ocean_1_1PIK.html" target="_top" xlink:title="Implements the ocean model used in [Martinetal2011].">
<polygon fill="none" stroke="black" points="542.5,-88 542.5,-107 640.5,-107 640.5,-88 542.5,-88"/>
<text text-anchor="middle" x="591.5" y="-95" font-family="Helvetica,sans-Serif" font-size="10.00">pism::ocean::PIK</text>
</a>
</g>
</g>
<!-- Node1&#45;&gt;Node6 -->
<g id="edge5" class="edge">
<title>Node1&#45;&gt;Node6</title>
<path fill="none" stroke="midnightblue" d="M488.52,-97.5C507.05,-97.5 525.89,-97.5 542.25,-97.5"/>
<polygon fill="midnightblue" stroke="midnightblue" points="488.27,-94 478.27,-97.5 488.27,-101 488.27,-94"/>
</g>
<!-- Node7 -->
<g id="node7" class="node">
<title>Node7</title>
<g id="a_node7"><a xlink:href="classpism_1_1ocean_1_1Pico.html" target="_top" xlink:title=" ">
<polygon fill="none" stroke="black" points="540.5,-50 540.5,-69 642.5,-69 642.5,-50 540.5,-50"/>
<text text-anchor="middle" x="591.5" y="-57" font-family="Helvetica,sans-Serif" font-size="10.00">pism::ocean::Pico</text>
</a>
</g>
</g>
<!-- Node1&#45;&gt;Node7 -->
<g id="edge6" class="edge">
<title>Node1&#45;&gt;Node7</title>
<path fill="none" stroke="midnightblue" d="M484.7,-80.49C504.58,-76.55 525.05,-72.49 542.62,-69"/>
<polygon fill="midnightblue" stroke="midnightblue" points="483.81,-77.1 474.69,-82.48 485.18,-83.97 483.81,-77.1"/>
</g>
<!-- Node8 -->
<g id="node8" class="node">
<title>Node8</title>
<g id="a_node8"><a xlink:href="classpism_1_1ocean_1_1PyOceanModelAdapter.html" target="_top" xlink:title="The adapter class for Python ocean models.">
<polygon fill="none" stroke="black" points="514,-0.5 514,-30.5 669,-30.5 669,-0.5 514,-0.5"/>
<text text-anchor="start" x="522" y="-18.5" font-family="Helvetica,sans-Serif" font-size="10.00">pism::ocean::PyOceanModel</text>
<text text-anchor="middle" x="591.5" y="-7.5" font-family="Helvetica,sans-Serif" font-size="10.00">Adapter</text>
</a>
</g>
</g>
<!-- Node1&#45;&gt;Node8 -->
<g id="edge7" class="edge">
<title>Node1&#45;&gt;Node8</title>
<path fill="none" stroke="midnightblue" d="M435.92,-77.5C458.17,-65.88 487.29,-51.42 514,-40.5 522.54,-37.01 531.76,-33.66 540.74,-30.61"/>
<polygon fill="midnightblue" stroke="midnightblue" points="434.05,-74.53 426.83,-82.29 437.31,-80.72 434.05,-74.53"/>
</g>
<!-- Node2 -->
<g id="node2" class="node">
<title>Node2</title>
<g id="a_node2"><a xlink:href="classpism_1_1ocean_1_1OceanModel.html" target="_top" xlink:title="A very rudimentary PISM ocean model.">
<polygon fill="none" stroke="black" points="139,-88 139,-107 282,-107 282,-88 139,-88"/>
<text text-anchor="middle" x="210.5" y="-95" font-family="Helvetica,sans-Serif" font-size="10.00">pism::ocean::OceanModel</text>
</a>
</g>
</g>
<!-- Node2&#45;&gt;Node1 -->
<g id="edge1" class="edge">
<title>Node2&#45;&gt;Node1</title>
<path fill="none" stroke="midnightblue" d="M292.39,-97.5C300.84,-97.5 309.43,-97.5 317.86,-97.5"/>
<polygon fill="midnightblue" stroke="midnightblue" points="292.16,-94 282.16,-97.5 292.16,-101 292.16,-94"/>
</g>
<!-- Node3 -->
<g id="node3" class="node">
<title>Node3</title>
<g id="a_node3"><a xlink:href="classpism_1_1Component.html" target="_top" xlink:title="A class defining a common interface for most PISM sub&#45;models.">
<polygon fill="none" stroke="black" points="0,-88 0,-107 103,-107 103,-88 0,-88"/>
<text text-anchor="middle" x="51.5" y="-95" font-family="Helvetica,sans-Serif" font-size="10.00">pism::Component</text>
</a>
</g>
</g>
<!-- Node3&#45;&gt;Node2 -->
<g id="edge2" class="edge">
<title>Node3&#45;&gt;Node2</title>
<path fill="none" stroke="midnightblue" d="M113.11,-97.5C121.51,-97.5 130.19,-97.5 138.75,-97.5"/>
<polygon fill="midnightblue" stroke="midnightblue" points="113.04,-94 103.04,-97.5 113.04,-101 113.04,-94"/>
</g>
</g>
</svg>
