<?xml version="1.0" encoding="UTF-8" standalone="no"?>
<!DOCTYPE svg PUBLIC "-//W3C//DTD SVG 1.1//EN"
 "http://www.w3.org/Graphics/SVG/1.1/DTD/svg11.dtd">
<!-- Generated by graphviz version 2.43.0 (0)
 -->
<!-- Title: pism::PCFactory&lt; Model &gt; Pages: 1 -->
<svg width="681pt" height="235pt"
 viewBox="0.00 0.00 681.00 235.00" xmlns="http://www.w3.org/2000/svg" xmlns:xlink="http://www.w3.org/1999/xlink">
<g id="graph0" class="graph" transform="scale(1 1) rotate(0) translate(4 231)">
<title>pism::PCFactory&lt; Model &gt;</title>
<!-- Node1 -->
<g id="node1" class="node">
<title>Node1</title>
<g id="a_node1"><a xlink:title=" ">
<polygon fill="#bfbfbf" stroke="black" points="0,-104 0,-123 147,-123 147,-104 0,-104"/>
<text text-anchor="middle" x="73.5" y="-111" font-family="Helvetica,sans-Serif" font-size="10.00">pism::PCFactory&lt; Model &gt;</text>
</a>
</g>
</g>
<!-- Node2 -->
<g id="node2" class="node">
<title>Node2</title>
<g id="a_node2"><a xlink:href="classpism_1_1PCFactory.html" target="_top" xlink:title=" ">
<polygon fill="none" stroke="black" points="336,-196.5 336,-226.5 479,-226.5 479,-196.5 336,-196.5"/>
<text text-anchor="start" x="344" y="-214.5" font-family="Helvetica,sans-Serif" font-size="10.00">pism::PCFactory&lt; Surface</text>
<text text-anchor="middle" x="407.5" y="-203.5" font-family="Helvetica,sans-Serif" font-size="10.00">Model &gt;</text>
</a>
</g>
</g>
<!-- Node1&#45;&gt;Node2 -->
<g id="edge1" class="edge">
<title>Node1&#45;&gt;Node2</title>
<path fill="none" stroke="orange" stroke-dasharray="5,2" d="M97.45,-128.41C115.23,-139.33 140.83,-153.73 165,-162.5 220.7,-182.72 286.81,-195.4 335.77,-202.79"/>
<polygon fill="orange" stroke="orange" points="99.25,-125.4 88.92,-123.06 95.53,-131.34 99.25,-125.4"/>
<text text-anchor="middle" x="236" y="-200.5" font-family="Helvetica,sans-Serif" font-size="10.00"> &lt; SurfaceModel &gt;</text>
</g>
<!-- Node4 -->
<g id="node4" class="node">
<title>Node4</title>
<g id="a_node4"><a xlink:href="classpism_1_1PCFactory.html" target="_top" xlink:title=" ">
<polygon fill="none" stroke="black" points="327,-147.5 327,-177.5 488,-177.5 488,-147.5 327,-147.5"/>
<text text-anchor="start" x="335" y="-165.5" font-family="Helvetica,sans-Serif" font-size="10.00">pism::PCFactory&lt; frontalmelt</text>
<text text-anchor="middle" x="407.5" y="-154.5" font-family="Helvetica,sans-Serif" font-size="10.00">::FrontalMelt &gt;</text>
</a>
</g>
</g>
<!-- Node1&#45;&gt;Node4 -->
<g id="edge3" class="edge">
<title>Node1&#45;&gt;Node4</title>
<path fill="none" stroke="orange" stroke-dasharray="5,2" d="M141.08,-124.73C149.14,-126.03 157.25,-127.31 165,-128.5 218.88,-136.76 279.65,-145.31 326.75,-151.77"/>
<polygon fill="orange" stroke="orange" points="141.38,-121.23 130.95,-123.07 140.26,-128.14 141.38,-121.23"/>
<text text-anchor="middle" x="236" y="-150.5" font-family="Helvetica,sans-Serif" font-size="10.00"> &lt; frontalmelt::FrontalMelt &gt;</text>
</g>
<!-- Node6 -->
<g id="node6" class="node">
<title>Node6</title>
<g id="a_node6"><a xlink:href="classpism_1_1PCFactory.html" target="_top" xlink:title=" ">
<polygon fill="none" stroke="black" points="325,-98.5 325,-128.5 490,-128.5 490,-98.5 325,-98.5"/>
<text text-anchor="start" x="333" y="-116.5" font-family="Helvetica,sans-Serif" font-size="10.00">pism::PCFactory&lt; Atmosphere</text>
<text text-anchor="middle" x="407.5" y="-105.5" font-family="Helvetica,sans-Serif" font-size="10.00">Model &gt;</text>
</a>
</g>
</g>
<!-- Node1&#45;&gt;Node6 -->
<g id="edge5" class="edge">
<title>Node1&#45;&gt;Node6</title>
<path fill="none" stroke="orange" stroke-dasharray="5,2" d="M157.39,-113.5C208.53,-113.5 273.85,-113.5 324.77,-113.5"/>
<polygon fill="orange" stroke="orange" points="157.36,-110 147.36,-113.5 157.36,-117 157.36,-110"/>
<text text-anchor="middle" x="236" y="-116.5" font-family="Helvetica,sans-Serif" font-size="10.00"> &lt; AtmosphereModel &gt;</text>
</g>
<!-- Node8 -->
<g id="node8" class="node">
<title>Node8</title>
<g id="a_node8"><a xlink:href="classpism_1_1PCFactory.html" target="_top" xlink:title=" ">
<polygon fill="none" stroke="black" points="340,-49.5 340,-79.5 475,-79.5 475,-49.5 340,-49.5"/>
<text text-anchor="start" x="348" y="-67.5" font-family="Helvetica,sans-Serif" font-size="10.00">pism::PCFactory&lt; ocean</text>
<text text-anchor="middle" x="407.5" y="-56.5" font-family="Helvetica,sans-Serif" font-size="10.00">::OceanModel &gt;</text>
</a>
</g>
</g>
<!-- Node1&#45;&gt;Node8 -->
<g id="edge7" class="edge">
<title>Node1&#45;&gt;Node8</title>
<path fill="none" stroke="orange" stroke-dasharray="5,2" d="M141.08,-102.27C149.14,-100.97 157.25,-99.69 165,-98.5 224.01,-89.46 291.28,-80.06 339.81,-73.44"/>
<polygon fill="orange" stroke="orange" points="140.26,-98.86 130.95,-103.93 141.38,-105.77 140.26,-98.86"/>
<text text-anchor="middle" x="236" y="-101.5" font-family="Helvetica,sans-Serif" font-size="10.00"> &lt; ocean::OceanModel &gt;</text>
</g>
<!-- Node10 -->
<g id="node10" class="node">
<title>Node10</title>
<g id="a_node10"><a xlink:href="classpism_1_1PCFactory.html" target="_top" xlink:title=" ">
<polygon fill="none" stroke="black" points="340,-0.5 340,-30.5 475,-30.5 475,-0.5 340,-0.5"/>
<text text-anchor="start" x="348" y="-18.5" font-family="Helvetica,sans-Serif" font-size="10.00">pism::PCFactory&lt; ocean</text>
<text text-anchor="middle" x="407.5" y="-7.5" font-family="Helvetica,sans-Serif" font-size="10.00">::sea_level::SeaLevel &gt;</text>
</a>
</g>
</g>
<!-- Node1&#45;&gt;Node10 -->
<g id="edge9" class="edge">
<title>Node1&#45;&gt;Node10</title>
<path fill="none" stroke="orange" stroke-dasharray="5,2" d="M92.98,-97.41C110.35,-83.22 137.7,-63.17 165,-52.5 221.49,-30.42 290.23,-21.46 339.9,-17.86"/>
<polygon fill="orange" stroke="orange" points="90.71,-94.74 85.29,-103.85 95.21,-100.11 90.71,-94.74"/>
<text text-anchor="start" x="187.5" y="-66.5" font-family="Helvetica,sans-Serif" font-size="10.00"> &lt; ocean::sea_level</text>
<text text-anchor="middle" x="236" y="-55.5" font-family="Helvetica,sans-Serif" font-size="10.00">::SeaLevel &gt;</text>
</g>
<!-- Node3 -->
<g id="node3" class="node">
<title>Node3</title>
<g id="a_node3"><a xlink:href="classpism_1_1surface_1_1Factory.html" target="_top" xlink:title=" ">
<polygon fill="none" stroke="black" points="538,-202 538,-221 662,-221 662,-202 538,-202"/>
<text text-anchor="middle" x="600" y="-209" font-family="Helvetica,sans-Serif" font-size="10.00">pism::surface::Factory</text>
</a>
</g>
</g>
<!-- Node2&#45;&gt;Node3 -->
<g id="edge2" class="edge">
<title>Node2&#45;&gt;Node3</title>
<path fill="none" stroke="midnightblue" d="M489.21,-211.5C505.5,-211.5 522.36,-211.5 537.84,-211.5"/>
<polygon fill="midnightblue" stroke="midnightblue" points="489.16,-208 479.16,-211.5 489.16,-215 489.16,-208"/>
</g>
<!-- Node5 -->
<g id="node5" class="node">
<title>Node5</title>
<g id="a_node5"><a xlink:href="classpism_1_1frontalmelt_1_1Factory.html" target="_top" xlink:title=" ">
<polygon fill="none" stroke="black" points="546.5,-147.5 546.5,-177.5 653.5,-177.5 653.5,-147.5 546.5,-147.5"/>
<text text-anchor="start" x="554.5" y="-165.5" font-family="Helvetica,sans-Serif" font-size="10.00">pism::frontalmelt::</text>
<text text-anchor="middle" x="600" y="-154.5" font-family="Helvetica,sans-Serif" font-size="10.00">Factory</text>
</a>
</g>
</g>
<!-- Node4&#45;&gt;Node5 -->
<g id="edge4" class="edge">
<title>Node4&#45;&gt;Node5</title>
<path fill="none" stroke="midnightblue" d="M498.39,-162.5C514.86,-162.5 531.55,-162.5 546.47,-162.5"/>
<polygon fill="midnightblue" stroke="midnightblue" points="498.19,-159 488.19,-162.5 498.19,-166 498.19,-159"/>
</g>
<!-- Node7 -->
<g id="node7" class="node">
<title>Node7</title>
<g id="a_node7"><a xlink:href="classpism_1_1atmosphere_1_1Factory.html" target="_top" xlink:title=" ">
<polygon fill="none" stroke="black" points="527,-104 527,-123 673,-123 673,-104 527,-104"/>
<text text-anchor="middle" x="600" y="-111" font-family="Helvetica,sans-Serif" font-size="10.00">pism::atmosphere::Factory</text>
</a>
</g>
</g>
<!-- Node6&#45;&gt;Node7 -->
<g id="edge6" class="edge">
<title>Node6&#45;&gt;Node7</title>
<path fill="none" stroke="midnightblue" d="M500.19,-113.5C509.15,-113.5 518.14,-113.5 526.87,-113.5"/>
<polygon fill="midnightblue" stroke="midnightblue" points="500.12,-110 490.12,-113.5 500.12,-117 500.12,-110"/>
</g>
<!-- Node9 -->
<g id="node9" class="node">
<title>Node9</title>
<g id="a_node9"><a xlink:href="classpism_1_1ocean_1_1Factory.html" target="_top" xlink:title=" ">
<polygon fill="none" stroke="black" points="541.5,-55 541.5,-74 658.5,-74 658.5,-55 541.5,-55"/>
<text text-anchor="middle" x="600" y="-62" font-family="Helvetica,sans-Serif" font-size="10.00">pism::ocean::Factory</text>
</a>
</g>
</g>
<!-- Node8&#45;&gt;Node9 -->
<g id="edge8" class="edge">
<title>Node8&#45;&gt;Node9</title>
<path fill="none" stroke="midnightblue" d="M485.38,-64.5C504.04,-64.5 523.68,-64.5 541.28,-64.5"/>
<polygon fill="midnightblue" stroke="midnightblue" points="485.13,-61 475.13,-64.5 485.13,-68 485.13,-61"/>
</g>
<!-- Node11 -->
<g id="node11" class="node">
<title>Node11</title>
<g id="a_node11"><a xlink:href="classpism_1_1ocean_1_1sea__level_1_1Factory.html" target="_top" xlink:title=" ">
<polygon fill="none" stroke="black" points="536,-0.5 536,-30.5 664,-30.5 664,-0.5 536,-0.5"/>
<text text-anchor="start" x="544" y="-18.5" font-family="Helvetica,sans-Serif" font-size="10.00">pism::ocean::sea_level</text>
<text text-anchor="middle" x="600" y="-7.5" font-family="Helvetica,sans-Serif" font-size="10.00">::Factory</text>
</a>
</g>
</g>
<!-- Node10&#45;&gt;Node11 -->
<g id="edge10" class="edge">
<title>Node10&#45;&gt;Node11</title>
<path fill="none" stroke="midnightblue" d="M485.45,-15.5C502.22,-15.5 519.77,-15.5 535.93,-15.5"/>
<polygon fill="midnightblue" stroke="midnightblue" points="485.13,-12 475.13,-15.5 485.13,-19 485.13,-12"/>
</g>
</g>
</svg>
