<?xml version="1.0" encoding="UTF-8" standalone="no"?>
<!DOCTYPE svg PUBLIC "-//W3C//DTD SVG 1.1//EN"
 "http://www.w3.org/Graphics/SVG/1.1/DTD/svg11.dtd">
<!-- Generated by graphviz version 2.43.0 (0)
 -->
<!-- Title: pism::diagnostics::CTS Pages: 1 -->
<svg width="210pt" height="209pt"
 viewBox="0.00 0.00 210.00 209.00" xmlns="http://www.w3.org/2000/svg" xmlns:xlink="http://www.w3.org/1999/xlink">
<g id="graph0" class="graph" transform="scale(1 1) rotate(0) translate(4 205)">
<title>pism::diagnostics::CTS</title>
<!-- Node1 -->
<g id="node1" class="node">
<title>Node1</title>
<g id="a_node1"><a xlink:title="Computes CTS, CTS = E/E_s(p).">
<polygon fill="#bfbfbf" stroke="black" points="4.5,-0.5 4.5,-19.5 131.5,-19.5 131.5,-0.5 4.5,-0.5"/>
<text text-anchor="middle" x="68" y="-7.5" font-family="Helvetica,sans-Serif" font-size="10.00">pism::diagnostics::CTS</text>
</a>
</g>
</g>
<!-- Node2 -->
<g id="node2" class="node">
<title>Node2</title>
<g id="a_node2"><a xlink:href="classpism_1_1Diag.html" target="_top" xlink:title=" ">
<polygon fill="none" stroke="black" points="0,-57.5 0,-76.5 136,-76.5 136,-57.5 0,-57.5"/>
<text text-anchor="middle" x="68" y="-64.5" font-family="Helvetica,sans-Serif" font-size="10.00">pism::Diag&lt; IceModel &gt;</text>
</a>
</g>
</g>
<!-- Node2&#45;&gt;Node1 -->
<g id="edge1" class="edge">
<title>Node2&#45;&gt;Node1</title>
<path fill="none" stroke="midnightblue" d="M68,-47.12C68,-37.82 68,-27.06 68,-19.71"/>
<polygon fill="midnightblue" stroke="midnightblue" points="64.5,-47.41 68,-57.41 71.5,-47.41 64.5,-47.41"/>
</g>
<!-- Node3 -->
<g id="node3" class="node">
<title>Node3</title>
<g id="a_node3"><a xlink:href="classpism_1_1Diagnostic.html" target="_top" xlink:title="Class representing diagnostic computations in PISM.">
<polygon fill="none" stroke="black" points="15,-181.5 15,-200.5 113,-200.5 113,-181.5 15,-181.5"/>
<text text-anchor="middle" x="64" y="-188.5" font-family="Helvetica,sans-Serif" font-size="10.00">pism::Diagnostic</text>
</a>
</g>
</g>
<!-- Node3&#45;&gt;Node2 -->
<g id="edge2" class="edge">
<title>Node3&#45;&gt;Node2</title>
<path fill="none" stroke="midnightblue" d="M64.62,-171.19C65.5,-144.4 67.07,-96.31 67.71,-76.69"/>
<polygon fill="midnightblue" stroke="midnightblue" points="61.12,-171.12 64.29,-181.23 68.11,-171.35 61.12,-171.12"/>
</g>
<!-- Node4 -->
<g id="node4" class="node">
<title>Node4</title>
<g id="a_node4"><a xlink:href="classpism_1_1Diag.html" target="_top" xlink:title="A template derived from Diagnostic, adding a &quot;Model&quot;.">
<polygon fill="none" stroke="black" points="80,-124.5 80,-143.5 202,-143.5 202,-124.5 80,-124.5"/>
<text text-anchor="middle" x="141" y="-131.5" font-family="Helvetica,sans-Serif" font-size="10.00">pism::Diag&lt; Model &gt;</text>
</a>
</g>
</g>
<!-- Node3&#45;&gt;Node4 -->
<g id="edge4" class="edge">
<title>Node3&#45;&gt;Node4</title>
<path fill="none" stroke="midnightblue" d="M84.25,-175.54C98.5,-165.35 117.11,-152.07 129.05,-143.53"/>
<polygon fill="midnightblue" stroke="midnightblue" points="82.13,-172.75 76.03,-181.41 86.2,-178.44 82.13,-172.75"/>
</g>
<!-- Node4&#45;&gt;Node2 -->
<g id="edge3" class="edge">
<title>Node4&#45;&gt;Node2</title>
<path fill="none" stroke="orange" stroke-dasharray="5,2" d="M123.43,-117.36C109.08,-104.58 89.33,-86.99 77.69,-76.63"/>
<polygon fill="orange" stroke="orange" points="121.36,-120.2 131.15,-124.23 126.01,-114.97 121.36,-120.2"/>
<text text-anchor="middle" x="143" y="-98" font-family="Helvetica,sans-Serif" font-size="10.00"> &lt; IceModel &gt;</text>
</g>
</g>
</svg>
