<?xml version="1.0" encoding="UTF-8" standalone="no"?>
<!DOCTYPE svg PUBLIC "-//W3C//DTD SVG 1.1//EN"
 "http://www.w3.org/Graphics/SVG/1.1/DTD/svg11.dtd">
<!-- Generated by graphviz version 2.43.0 (0)
 -->
<!-- Title: pism::hydrology::diagnostics::BasalWaterPressure Pages: 1 -->
<svg width="220pt" height="220pt"
 viewBox="0.00 0.00 220.00 220.00" xmlns="http://www.w3.org/2000/svg" xmlns:xlink="http://www.w3.org/1999/xlink">
<g id="graph0" class="graph" transform="scale(1 1) rotate(0) translate(4 216)">
<title>pism::hydrology::diagnostics::BasalWaterPressure</title>
<!-- Node1 -->
<g id="node1" class="node">
<title>Node1</title>
<g id="a_node1"><a xlink:title="Reports the pressure of the transportable water in the subglacial layer.">
<polygon fill="#bfbfbf" stroke="black" points="0,-0.5 0,-30.5 156,-30.5 156,-0.5 0,-0.5"/>
<text text-anchor="start" x="8" y="-18.5" font-family="Helvetica,sans-Serif" font-size="10.00">pism::hydrology::diagnostics</text>
<text text-anchor="middle" x="78" y="-7.5" font-family="Helvetica,sans-Serif" font-size="10.00">::BasalWaterPressure</text>
</a>
</g>
</g>
<!-- Node2 -->
<g id="node2" class="node">
<title>Node2</title>
<g id="a_node2"><a xlink:href="classpism_1_1Diag.html" target="_top" xlink:title=" ">
<polygon fill="none" stroke="black" points="13.5,-68.5 13.5,-87.5 142.5,-87.5 142.5,-68.5 13.5,-68.5"/>
<text text-anchor="middle" x="78" y="-75.5" font-family="Helvetica,sans-Serif" font-size="10.00">pism::Diag&lt; Routing &gt;</text>
</a>
</g>
</g>
<!-- Node2&#45;&gt;Node1 -->
<g id="edge1" class="edge">
<title>Node2&#45;&gt;Node1</title>
<path fill="none" stroke="midnightblue" d="M78,-58.22C78,-49.36 78,-38.96 78,-30.76"/>
<polygon fill="midnightblue" stroke="midnightblue" points="74.5,-58.33 78,-68.33 81.5,-58.33 74.5,-58.33"/>
</g>
<!-- Node3 -->
<g id="node3" class="node">
<title>Node3</title>
<g id="a_node3"><a xlink:href="classpism_1_1Diagnostic.html" target="_top" xlink:title="Class representing diagnostic computations in PISM.">
<polygon fill="none" stroke="black" points="25,-192.5 25,-211.5 123,-211.5 123,-192.5 25,-192.5"/>
<text text-anchor="middle" x="74" y="-199.5" font-family="Helvetica,sans-Serif" font-size="10.00">pism::Diagnostic</text>
</a>
</g>
</g>
<!-- Node3&#45;&gt;Node2 -->
<g id="edge2" class="edge">
<title>Node3&#45;&gt;Node2</title>
<path fill="none" stroke="midnightblue" d="M74.62,-182.19C75.5,-155.4 77.07,-107.31 77.71,-87.69"/>
<polygon fill="midnightblue" stroke="midnightblue" points="71.12,-182.12 74.29,-192.23 78.11,-182.35 71.12,-182.12"/>
</g>
<!-- Node4 -->
<g id="node4" class="node">
<title>Node4</title>
<g id="a_node4"><a xlink:href="classpism_1_1Diag.html" target="_top" xlink:title="A template derived from Diagnostic, adding a &quot;Model&quot;.">
<polygon fill="none" stroke="black" points="90,-135.5 90,-154.5 212,-154.5 212,-135.5 90,-135.5"/>
<text text-anchor="middle" x="151" y="-142.5" font-family="Helvetica,sans-Serif" font-size="10.00">pism::Diag&lt; Model &gt;</text>
</a>
</g>
</g>
<!-- Node3&#45;&gt;Node4 -->
<g id="edge4" class="edge">
<title>Node3&#45;&gt;Node4</title>
<path fill="none" stroke="midnightblue" d="M94.25,-186.54C108.5,-176.35 127.11,-163.07 139.05,-154.53"/>
<polygon fill="midnightblue" stroke="midnightblue" points="92.13,-183.75 86.03,-192.41 96.2,-189.44 92.13,-183.75"/>
</g>
<!-- Node4&#45;&gt;Node2 -->
<g id="edge3" class="edge">
<title>Node4&#45;&gt;Node2</title>
<path fill="none" stroke="orange" stroke-dasharray="5,2" d="M133.43,-128.36C119.08,-115.58 99.33,-97.99 87.69,-87.63"/>
<polygon fill="orange" stroke="orange" points="131.36,-131.2 141.15,-135.23 136.01,-125.97 131.36,-131.2"/>
<text text-anchor="middle" x="150" y="-109" font-family="Helvetica,sans-Serif" font-size="10.00"> &lt; Routing &gt;</text>
</g>
</g>
</svg>
