<?xml version="1.0" encoding="UTF-8" standalone="no"?>
<!DOCTYPE svg PUBLIC "-//W3C//DTD SVG 1.1//EN"
 "http://www.w3.org/Graphics/SVG/1.1/DTD/svg11.dtd">
<!-- Generated by graphviz version 2.43.0 (0)
 -->
<!-- Title: pism::surface::diagnostics::DEBMSTemperatureMelt Pages: 1 -->
<svg width="304pt" height="355pt"
 viewBox="0.00 0.00 304.00 355.00" xmlns="http://www.w3.org/2000/svg" xmlns:xlink="http://www.w3.org/1999/xlink">
<g id="graph0" class="graph" transform="scale(1 1) rotate(0) translate(4 351)">
<title>pism::surface::diagnostics::DEBMSTemperatureMelt</title>
<!-- Node1 -->
<g id="node1" class="node">
<title>Node1</title>
<g id="a_node1"><a xlink:title="Report surface temperature melt, averaged over the reporting interval.">
<polygon fill="#bfbfbf" stroke="black" points="39.5,-0.5 39.5,-30.5 183.5,-30.5 183.5,-0.5 39.5,-0.5"/>
<text text-anchor="start" x="47.5" y="-18.5" font-family="Helvetica,sans-Serif" font-size="10.00">pism::surface::diagnostics</text>
<text text-anchor="middle" x="111.5" y="-7.5" font-family="Helvetica,sans-Serif" font-size="10.00">::DEBMSTemperatureMelt</text>
</a>
</g>
</g>
<!-- Node2 -->
<g id="node2" class="node">
<title>Node2</title>
<g id="a_node2"><a xlink:href="classpism_1_1DiagAverageRate.html" target="_top" xlink:title=" ">
<polygon fill="none" stroke="black" points="46,-68.5 46,-98.5 177,-98.5 177,-68.5 46,-68.5"/>
<text text-anchor="start" x="54" y="-86.5" font-family="Helvetica,sans-Serif" font-size="10.00">pism::DiagAverageRate</text>
<text text-anchor="middle" x="111.5" y="-75.5" font-family="Helvetica,sans-Serif" font-size="10.00">&lt; DEBMSimple &gt;</text>
</a>
</g>
</g>
<!-- Node2&#45;&gt;Node1 -->
<g id="edge1" class="edge">
<title>Node2&#45;&gt;Node1</title>
<path fill="none" stroke="midnightblue" d="M111.5,-58.03C111.5,-48.86 111.5,-38.74 111.5,-30.79"/>
<polygon fill="midnightblue" stroke="midnightblue" points="108,-58.18 111.5,-68.18 115,-58.18 108,-58.18"/>
</g>
<!-- Node3 -->
<g id="node3" class="node">
<title>Node3</title>
<g id="a_node3"><a xlink:href="classpism_1_1Diag.html" target="_top" xlink:title=" ">
<polygon fill="none" stroke="black" points="0,-203.5 0,-222.5 155,-222.5 155,-203.5 0,-203.5"/>
<text text-anchor="middle" x="77.5" y="-210.5" font-family="Helvetica,sans-Serif" font-size="10.00">pism::Diag&lt; DEBMSimple &gt;</text>
</a>
</g>
</g>
<!-- Node3&#45;&gt;Node2 -->
<g id="edge2" class="edge">
<title>Node3&#45;&gt;Node2</title>
<path fill="none" stroke="midnightblue" d="M82.5,-193.24C89.38,-167.46 101.59,-121.65 107.74,-98.59"/>
<polygon fill="midnightblue" stroke="midnightblue" points="79.03,-192.67 79.84,-203.24 85.8,-194.48 79.03,-192.67"/>
</g>
<!-- Node4 -->
<g id="node4" class="node">
<title>Node4</title>
<g id="a_node4"><a xlink:href="classpism_1_1Diagnostic.html" target="_top" xlink:title="Class representing diagnostic computations in PISM.">
<polygon fill="none" stroke="black" points="109.5,-327.5 109.5,-346.5 207.5,-346.5 207.5,-327.5 109.5,-327.5"/>
<text text-anchor="middle" x="158.5" y="-334.5" font-family="Helvetica,sans-Serif" font-size="10.00">pism::Diagnostic</text>
</a>
</g>
</g>
<!-- Node4&#45;&gt;Node3 -->
<g id="edge3" class="edge">
<title>Node4&#45;&gt;Node3</title>
<path fill="none" stroke="midnightblue" d="M127.48,-322.96C113.34,-315.41 97.72,-304.49 88.5,-290 75.05,-268.85 75.42,-237.78 76.57,-222.76"/>
<polygon fill="midnightblue" stroke="midnightblue" points="125.97,-326.11 136.48,-327.44 129.09,-319.85 125.97,-326.11"/>
</g>
<!-- Node5 -->
<g id="node5" class="node">
<title>Node5</title>
<g id="a_node5"><a xlink:href="classpism_1_1Diag.html" target="_top" xlink:title="A template derived from Diagnostic, adding a &quot;Model&quot;.">
<polygon fill="none" stroke="black" points="97.5,-270.5 97.5,-289.5 219.5,-289.5 219.5,-270.5 97.5,-270.5"/>
<text text-anchor="middle" x="158.5" y="-277.5" font-family="Helvetica,sans-Serif" font-size="10.00">pism::Diag&lt; Model &gt;</text>
</a>
</g>
</g>
<!-- Node4&#45;&gt;Node5 -->
<g id="edge5" class="edge">
<title>Node4&#45;&gt;Node5</title>
<path fill="none" stroke="midnightblue" d="M158.5,-317.12C158.5,-307.82 158.5,-297.06 158.5,-289.71"/>
<polygon fill="midnightblue" stroke="midnightblue" points="155,-317.41 158.5,-327.41 162,-317.41 155,-317.41"/>
</g>
<!-- Node7 -->
<g id="node7" class="node">
<title>Node7</title>
<g id="a_node7"><a xlink:href="classpism_1_1Diag.html" target="_top" xlink:title=" ">
<polygon fill="none" stroke="black" points="173,-203.5 173,-222.5 274,-222.5 274,-203.5 173,-203.5"/>
<text text-anchor="middle" x="223.5" y="-210.5" font-family="Helvetica,sans-Serif" font-size="10.00">pism::Diag&lt; M &gt;</text>
</a>
</g>
</g>
<!-- Node4&#45;&gt;Node7 -->
<g id="edge8" class="edge">
<title>Node4&#45;&gt;Node7</title>
<path fill="none" stroke="midnightblue" d="M189.44,-322.9C203.56,-315.34 219.19,-304.43 228.5,-290 240.4,-271.56 238.72,-262.53 234.5,-241 233.25,-234.64 230.5,-227.89 228.07,-222.73"/>
<polygon fill="midnightblue" stroke="midnightblue" points="187.83,-319.79 180.45,-327.39 190.96,-326.05 187.83,-319.79"/>
</g>
<!-- Node5&#45;&gt;Node3 -->
<g id="edge4" class="edge">
<title>Node5&#45;&gt;Node3</title>
<path fill="none" stroke="orange" stroke-dasharray="5,2" d="M116.18,-266.49C108.3,-262.75 100.63,-258 94.5,-252 86.24,-243.91 81.66,-231.09 79.39,-222.61"/>
<polygon fill="orange" stroke="orange" points="114.87,-269.73 125.44,-270.41 117.6,-263.29 114.87,-269.73"/>
<text text-anchor="middle" x="139" y="-244" font-family="Helvetica,sans-Serif" font-size="10.00"> &lt; DEBMSimple &gt;</text>
</g>
<!-- Node5&#45;&gt;Node7 -->
<g id="edge9" class="edge">
<title>Node5&#45;&gt;Node7</title>
<path fill="none" stroke="orange" stroke-dasharray="5,2" d="M174.5,-263C187.25,-250.25 204.61,-232.89 214.87,-222.63"/>
<polygon fill="orange" stroke="orange" points="171.86,-260.69 167.27,-270.23 176.81,-265.64 171.86,-260.69"/>
<text text-anchor="middle" x="213" y="-244" font-family="Helvetica,sans-Serif" font-size="10.00"> &lt; M &gt;</text>
</g>
<!-- Node6 -->
<g id="node6" class="node">
<title>Node6</title>
<g id="a_node6"><a xlink:href="classpism_1_1DiagAverageRate.html" target="_top" xlink:title=" ">
<polygon fill="none" stroke="black" points="133,-146.5 133,-165.5 296,-165.5 296,-146.5 133,-146.5"/>
<text text-anchor="middle" x="214.5" y="-153.5" font-family="Helvetica,sans-Serif" font-size="10.00">pism::DiagAverageRate&lt; M &gt;</text>
</a>
</g>
</g>
<!-- Node6&#45;&gt;Node2 -->
<g id="edge6" class="edge">
<title>Node6&#45;&gt;Node2</title>
<path fill="none" stroke="orange" stroke-dasharray="5,2" d="M193.26,-140.47C175.33,-128.19 149.81,-110.72 132.07,-98.58"/>
<polygon fill="orange" stroke="orange" points="191.64,-143.6 201.87,-146.36 195.59,-137.82 191.64,-143.6"/>
<text text-anchor="middle" x="217" y="-120" font-family="Helvetica,sans-Serif" font-size="10.00"> &lt; DEBMSimple &gt;</text>
</g>
<!-- Node7&#45;&gt;Node6 -->
<g id="edge7" class="edge">
<title>Node7&#45;&gt;Node6</title>
<path fill="none" stroke="midnightblue" d="M220.46,-193.42C218.93,-184.05 217.14,-173.14 215.93,-165.71"/>
<polygon fill="midnightblue" stroke="midnightblue" points="217.02,-194.1 222.09,-203.41 223.93,-192.97 217.02,-194.1"/>
</g>
</g>
</svg>
