<?xml version="1.0" encoding="UTF-8" standalone="no"?>
<!DOCTYPE svg PUBLIC "-//W3C//DTD SVG 1.1//EN"
 "http://www.w3.org/Graphics/SVG/1.1/DTD/svg11.dtd">
<!-- Generated by graphviz version 2.43.0 (0)
 -->
<!-- Title: pism::TerminationReason Pages: 1 -->
<svg width="350pt" height="165pt"
 viewBox="0.00 0.00 350.00 165.00" xmlns="http://www.w3.org/2000/svg" xmlns:xlink="http://www.w3.org/1999/xlink">
<g id="graph0" class="graph" transform="scale(1 1) rotate(0) translate(4 161)">
<title>pism::TerminationReason</title>
<!-- Node1 -->
<g id="node1" class="node">
<title>Node1</title>
<g id="a_node1"><a xlink:title=" ">
<polygon fill="#bfbfbf" stroke="black" points="0,-69 0,-88 140,-88 140,-69 0,-69"/>
<text text-anchor="middle" x="70" y="-76" font-family="Helvetica,sans-Serif" font-size="10.00">pism::TerminationReason</text>
</a>
</g>
</g>
<!-- Node2 -->
<g id="node2" class="node">
<title>Node2</title>
<g id="a_node2"><a xlink:href="classpism_1_1GenericTerminationReason.html" target="_top" xlink:title=" ">
<polygon fill="none" stroke="black" points="188,-126.5 188,-156.5 330,-156.5 330,-126.5 188,-126.5"/>
<text text-anchor="start" x="196" y="-144.5" font-family="Helvetica,sans-Serif" font-size="10.00">pism::GenericTermination</text>
<text text-anchor="middle" x="259" y="-133.5" font-family="Helvetica,sans-Serif" font-size="10.00">Reason</text>
</a>
</g>
</g>
<!-- Node1&#45;&gt;Node2 -->
<g id="edge1" class="edge">
<title>Node1&#45;&gt;Node2</title>
<path fill="none" stroke="midnightblue" d="M105.82,-91.61C126.19,-99.15 152.45,-108.65 176,-116.5 186.03,-119.84 196.8,-123.25 207.13,-126.43"/>
<polygon fill="midnightblue" stroke="midnightblue" points="106.93,-88.29 96.33,-88.08 104.49,-94.85 106.93,-88.29"/>
</g>
<!-- Node3 -->
<g id="node3" class="node">
<title>Node3</title>
<g id="a_node3"><a xlink:href="classpism_1_1KSPTerminationReason.html" target="_top" xlink:title=" ">
<polygon fill="none" stroke="black" points="179.5,-88 179.5,-107 338.5,-107 338.5,-88 179.5,-88"/>
<text text-anchor="middle" x="259" y="-95" font-family="Helvetica,sans-Serif" font-size="10.00">pism::KSPTerminationReason</text>
</a>
</g>
</g>
<!-- Node1&#45;&gt;Node3 -->
<g id="edge2" class="edge">
<title>Node1&#45;&gt;Node3</title>
<path fill="none" stroke="midnightblue" d="M150.11,-86.54C159.81,-87.52 169.72,-88.53 179.41,-89.51"/>
<polygon fill="midnightblue" stroke="midnightblue" points="150.4,-83.05 140.1,-85.52 149.7,-90.01 150.4,-83.05"/>
</g>
<!-- Node4 -->
<g id="node4" class="node">
<title>Node4</title>
<g id="a_node4"><a xlink:href="classpism_1_1SNESTerminationReason.html" target="_top" xlink:title=" ">
<polygon fill="none" stroke="black" points="176,-50 176,-69 342,-69 342,-50 176,-50"/>
<text text-anchor="middle" x="259" y="-57" font-family="Helvetica,sans-Serif" font-size="10.00">pism::SNESTerminationReason</text>
</a>
</g>
</g>
<!-- Node1&#45;&gt;Node4 -->
<g id="edge3" class="edge">
<title>Node1&#45;&gt;Node4</title>
<path fill="none" stroke="midnightblue" d="M150.32,-70.44C158.78,-69.58 167.4,-68.71 175.89,-67.84"/>
<polygon fill="midnightblue" stroke="midnightblue" points="149.7,-66.99 140.1,-71.48 150.4,-73.95 149.7,-66.99"/>
</g>
<!-- Node5 -->
<g id="node5" class="node">
<title>Node5</title>
<g id="a_node5"><a xlink:href="classpism_1_1taoutil_1_1TAOTerminationReason.html" target="_top" xlink:title="Encapsulate TAO&#39;s TaoSolverTerminationReason codes as a PISM TerminationReason.">
<polygon fill="none" stroke="black" points="178.5,-0.5 178.5,-30.5 339.5,-30.5 339.5,-0.5 178.5,-0.5"/>
<text text-anchor="start" x="186.5" y="-18.5" font-family="Helvetica,sans-Serif" font-size="10.00">pism::taoutil::TAOTermination</text>
<text text-anchor="middle" x="259" y="-7.5" font-family="Helvetica,sans-Serif" font-size="10.00">Reason</text>
</a>
</g>
</g>
<!-- Node1&#45;&gt;Node5 -->
<g id="edge4" class="edge">
<title>Node1&#45;&gt;Node5</title>
<path fill="none" stroke="midnightblue" d="M105.82,-65.39C126.19,-57.85 152.45,-48.35 176,-40.5 186.03,-37.16 196.8,-33.75 207.13,-30.57"/>
<polygon fill="midnightblue" stroke="midnightblue" points="104.49,-62.15 96.33,-68.92 106.93,-68.71 104.49,-62.15"/>
</g>
</g>
</svg>
