<?xml version="1.0" encoding="UTF-8" standalone="no"?>
<!DOCTYPE svg PUBLIC "-//W3C//DTD SVG 1.1//EN"
 "http://www.w3.org/Graphics/SVG/1.1/DTD/svg11.dtd">
<!-- Generated by graphviz version 2.43.0 (0)
 -->
<!-- Title: pism::TSSnapshotDiagnostic Pages: 1 -->
<svg width="709pt" height="1208pt"
 viewBox="0.00 0.00 709.00 1208.00" xmlns="http://www.w3.org/2000/svg" xmlns:xlink="http://www.w3.org/1999/xlink">
<g id="graph0" class="graph" transform="scale(1 1) rotate(0) translate(4 1204)">
<title>pism::TSSnapshotDiagnostic</title>
<!-- Node1 -->
<g id="node1" class="node">
<title>Node1</title>
<g id="a_node1"><a xlink:title="Scalar diagnostic reporting a snapshot of a quantity modeled by PISM.">
<polygon fill="#bfbfbf" stroke="black" points="146,-579 146,-598 301,-598 301,-579 146,-579"/>
<text text-anchor="middle" x="223.5" y="-586" font-family="Helvetica,sans-Serif" font-size="10.00">pism::TSSnapshotDiagnostic</text>
</a>
</g>
</g>
<!-- Node3 -->
<g id="node3" class="node">
<title>Node3</title>
<g id="a_node3"><a xlink:href="classpism_1_1TSDiag.html" target="_top" xlink:title=" ">
<polygon fill="none" stroke="black" points="337,-573.5 337,-603.5 486,-603.5 486,-573.5 337,-573.5"/>
<text text-anchor="start" x="345" y="-591.5" font-family="Helvetica,sans-Serif" font-size="10.00">pism::TSDiag&lt; TSSnapshot</text>
<text text-anchor="middle" x="411.5" y="-580.5" font-family="Helvetica,sans-Serif" font-size="10.00">Diagnostic, IceModel &gt;</text>
</a>
</g>
</g>
<!-- Node1&#45;&gt;Node3 -->
<g id="edge2" class="edge">
<title>Node1&#45;&gt;Node3</title>
<path fill="none" stroke="midnightblue" d="M311.26,-588.5C319.85,-588.5 328.51,-588.5 336.94,-588.5"/>
<polygon fill="midnightblue" stroke="midnightblue" points="311.23,-585 301.23,-588.5 311.23,-592 311.23,-585"/>
</g>
<!-- Node2 -->
<g id="node2" class="node">
<title>Node2</title>
<g id="a_node2"><a xlink:href="classpism_1_1TSDiagnostic.html" target="_top" xlink:title="PISM&#39;s scalar time&#45;series diagnostics.">
<polygon fill="none" stroke="black" points="0,-579 0,-598 110,-598 110,-579 0,-579"/>
<text text-anchor="middle" x="55" y="-586" font-family="Helvetica,sans-Serif" font-size="10.00">pism::TSDiagnostic</text>
</a>
</g>
</g>
<!-- Node2&#45;&gt;Node1 -->
<g id="edge1" class="edge">
<title>Node2&#45;&gt;Node1</title>
<path fill="none" stroke="midnightblue" d="M120.12,-588.5C128.51,-588.5 137.16,-588.5 145.73,-588.5"/>
<polygon fill="midnightblue" stroke="midnightblue" points="120.06,-585 110.06,-588.5 120.06,-592 120.06,-585"/>
</g>
<!-- Node4 -->
<g id="node4" class="node">
<title>Node4</title>
<g id="a_node4"><a xlink:href="classpism_1_1diagnostics_1_1scalar_1_1IceAreaGlacierized.html" target="_top" xlink:title="Computes the total ice area.">
<polygon fill="none" stroke="black" points="540,-1169.5 540,-1199.5 683,-1199.5 683,-1169.5 540,-1169.5"/>
<text text-anchor="start" x="548" y="-1187.5" font-family="Helvetica,sans-Serif" font-size="10.00">pism::diagnostics::</text>
<text text-anchor="middle" x="611.5" y="-1176.5" font-family="Helvetica,sans-Serif" font-size="10.00">scalar::IceAreaGlacierized</text>
</a>
</g>
</g>
<!-- Node3&#45;&gt;Node4 -->
<g id="edge3" class="edge">
<title>Node3&#45;&gt;Node4</title>
<path fill="none" stroke="midnightblue" d="M413.89,-613.69C419.9,-713.19 446.76,-1077.51 522,-1159.5 527.07,-1165.03 533.27,-1169.37 540,-1172.77"/>
<polygon fill="midnightblue" stroke="midnightblue" points="417.38,-613.42 413.3,-603.64 410.4,-613.83 417.38,-613.42"/>
</g>
<!-- Node5 -->
<g id="node5" class="node">
<title>Node5</title>
<g id="a_node5"><a xlink:href="classpism_1_1diagnostics_1_1scalar_1_1IceAreaGlacierizedColdBase.html" target="_top" xlink:title="Computes the total area of the cold ice.">
<polygon fill="none" stroke="black" points="540,-1109 540,-1150 683,-1150 683,-1109 540,-1109"/>
<text text-anchor="start" x="548" y="-1138" font-family="Helvetica,sans-Serif" font-size="10.00">pism::diagnostics::</text>
<text text-anchor="start" x="548" y="-1127" font-family="Helvetica,sans-Serif" font-size="10.00">scalar::IceAreaGlacierized</text>
<text text-anchor="middle" x="611.5" y="-1116" font-family="Helvetica,sans-Serif" font-size="10.00">ColdBase</text>
</a>
</g>
</g>
<!-- Node3&#45;&gt;Node5 -->
<g id="edge4" class="edge">
<title>Node3&#45;&gt;Node5</title>
<path fill="none" stroke="midnightblue" d="M414.66,-613.88C423.03,-706.63 456.19,-1025.6 522,-1099.5 527.07,-1105.19 533.26,-1109.81 539.99,-1113.55"/>
<polygon fill="midnightblue" stroke="midnightblue" points="418.13,-613.38 413.76,-603.73 411.16,-614 418.13,-613.38"/>
</g>
<!-- Node6 -->
<g id="node6" class="node">
<title>Node6</title>
<g id="a_node6"><a xlink:href="classpism_1_1diagnostics_1_1scalar_1_1IceAreaGlacierizedGrounded.html" target="_top" xlink:title="Computes the total grounded ice area.">
<polygon fill="none" stroke="black" points="540,-1049 540,-1090 683,-1090 683,-1049 540,-1049"/>
<text text-anchor="start" x="548" y="-1078" font-family="Helvetica,sans-Serif" font-size="10.00">pism::diagnostics::</text>
<text text-anchor="start" x="548" y="-1067" font-family="Helvetica,sans-Serif" font-size="10.00">scalar::IceAreaGlacierized</text>
<text text-anchor="middle" x="611.5" y="-1056" font-family="Helvetica,sans-Serif" font-size="10.00">Grounded</text>
</a>
</g>
</g>
<!-- Node3&#45;&gt;Node6 -->
<g id="edge5" class="edge">
<title>Node3&#45;&gt;Node6</title>
<path fill="none" stroke="midnightblue" d="M415.45,-613.92C425.84,-699.51 463.38,-975.44 522,-1039.5 527.04,-1045.01 533.12,-1049.5 539.72,-1053.17"/>
<polygon fill="midnightblue" stroke="midnightblue" points="418.9,-613.31 414.24,-603.8 411.95,-614.14 418.9,-613.31"/>
</g>
<!-- Node7 -->
<g id="node7" class="node">
<title>Node7</title>
<g id="a_node7"><a xlink:href="classpism_1_1diagnostics_1_1scalar_1_1IceAreaGlacierizedShelf.html" target="_top" xlink:title="Computes the total floating ice area.">
<polygon fill="none" stroke="black" points="540,-989 540,-1030 683,-1030 683,-989 540,-989"/>
<text text-anchor="start" x="548" y="-1018" font-family="Helvetica,sans-Serif" font-size="10.00">pism::diagnostics::</text>
<text text-anchor="start" x="548" y="-1007" font-family="Helvetica,sans-Serif" font-size="10.00">scalar::IceAreaGlacierized</text>
<text text-anchor="middle" x="611.5" y="-996" font-family="Helvetica,sans-Serif" font-size="10.00">Shelf</text>
</a>
</g>
</g>
<!-- Node3&#45;&gt;Node7 -->
<g id="edge6" class="edge">
<title>Node3&#45;&gt;Node7</title>
<path fill="none" stroke="midnightblue" d="M411.97,-613.9C411.94,-682.48 421.41,-873.35 522,-979.5 527.13,-984.92 533.28,-989.36 539.91,-992.99"/>
<polygon fill="midnightblue" stroke="midnightblue" points="415.47,-613.65 412.05,-603.62 408.47,-613.59 415.47,-613.65"/>
</g>
<!-- Node8 -->
<g id="node8" class="node">
<title>Node8</title>
<g id="a_node8"><a xlink:href="classpism_1_1diagnostics_1_1scalar_1_1IceAreaGlacierizedTemperateBase.html" target="_top" xlink:title="Computes the total area of the temperate ice.">
<polygon fill="none" stroke="black" points="540,-929 540,-970 683,-970 683,-929 540,-929"/>
<text text-anchor="start" x="548" y="-958" font-family="Helvetica,sans-Serif" font-size="10.00">pism::diagnostics::</text>
<text text-anchor="start" x="548" y="-947" font-family="Helvetica,sans-Serif" font-size="10.00">scalar::IceAreaGlacierized</text>
<text text-anchor="middle" x="611.5" y="-936" font-family="Helvetica,sans-Serif" font-size="10.00">TemperateBase</text>
</a>
</g>
</g>
<!-- Node3&#45;&gt;Node8 -->
<g id="edge7" class="edge">
<title>Node3&#45;&gt;Node8</title>
<path fill="none" stroke="midnightblue" d="M413.51,-614.09C417.33,-675.46 435.49,-832.35 522,-919.5 527.14,-924.68 533.21,-928.97 539.72,-932.51"/>
<polygon fill="midnightblue" stroke="midnightblue" points="416.99,-613.58 412.95,-603.78 410,-613.96 416.99,-613.58"/>
</g>
<!-- Node9 -->
<g id="node9" class="node">
<title>Node9</title>
<g id="a_node9"><a xlink:href="classpism_1_1diagnostics_1_1scalar_1_1IceEnthalpy.html" target="_top" xlink:title="Computes the total ice enthalpy.">
<polygon fill="none" stroke="black" points="557,-879.5 557,-909.5 666,-909.5 666,-879.5 557,-879.5"/>
<text text-anchor="start" x="565" y="-897.5" font-family="Helvetica,sans-Serif" font-size="10.00">pism::diagnostics::</text>
<text text-anchor="middle" x="611.5" y="-886.5" font-family="Helvetica,sans-Serif" font-size="10.00">scalar::IceEnthalpy</text>
</a>
</g>
</g>
<!-- Node3&#45;&gt;Node9 -->
<g id="edge8" class="edge">
<title>Node3&#45;&gt;Node9</title>
<path fill="none" stroke="midnightblue" d="M414.79,-613.64C421.18,-668.68 444.22,-800.52 522,-870.5 531.7,-879.23 544.27,-884.83 556.87,-888.41"/>
<polygon fill="midnightblue" stroke="midnightblue" points="418.27,-613.26 413.72,-603.69 411.31,-614.01 418.27,-613.26"/>
</g>
<!-- Node10 -->
<g id="node10" class="node">
<title>Node10</title>
<g id="a_node10"><a xlink:href="classpism_1_1diagnostics_1_1scalar_1_1IceEnthalpyGlacierized.html" target="_top" xlink:title="Computes the total ice enthalpy in glacierized areas.">
<polygon fill="none" stroke="black" points="529.5,-830.5 529.5,-860.5 693.5,-860.5 693.5,-830.5 529.5,-830.5"/>
<text text-anchor="start" x="537.5" y="-848.5" font-family="Helvetica,sans-Serif" font-size="10.00">pism::diagnostics::</text>
<text text-anchor="middle" x="611.5" y="-837.5" font-family="Helvetica,sans-Serif" font-size="10.00">scalar::IceEnthalpyGlacierized</text>
</a>
</g>
</g>
<!-- Node3&#45;&gt;Node10 -->
<g id="edge9" class="edge">
<title>Node3&#45;&gt;Node10</title>
<path fill="none" stroke="midnightblue" d="M417.07,-613.53C427.13,-661.37 455.79,-765.94 522,-821.5 526.02,-824.88 530.48,-827.78 535.19,-830.28"/>
<polygon fill="midnightblue" stroke="midnightblue" points="420.49,-612.82 415.09,-603.7 413.63,-614.19 420.49,-612.82"/>
</g>
<!-- Node11 -->
<g id="node11" class="node">
<title>Node11</title>
<g id="a_node11"><a xlink:href="classpism_1_1diagnostics_1_1scalar_1_1IceMass.html" target="_top" xlink:title="Computes the total ice mass.">
<polygon fill="none" stroke="black" points="557.5,-781.5 557.5,-811.5 665.5,-811.5 665.5,-781.5 557.5,-781.5"/>
<text text-anchor="start" x="565.5" y="-799.5" font-family="Helvetica,sans-Serif" font-size="10.00">pism::diagnostics::</text>
<text text-anchor="middle" x="611.5" y="-788.5" font-family="Helvetica,sans-Serif" font-size="10.00">scalar::IceMass</text>
</a>
</g>
</g>
<!-- Node3&#45;&gt;Node11 -->
<g id="edge10" class="edge">
<title>Node3&#45;&gt;Node11</title>
<path fill="none" stroke="midnightblue" d="M420.36,-613.24C434.28,-652.98 467.1,-730.82 522,-772.5 532.27,-780.3 544.9,-785.56 557.37,-789.12"/>
<polygon fill="midnightblue" stroke="midnightblue" points="423.6,-611.89 417.08,-603.55 416.97,-614.14 423.6,-611.89"/>
</g>
<!-- Node12 -->
<g id="node12" class="node">
<title>Node12</title>
<g id="a_node12"><a xlink:href="classpism_1_1diagnostics_1_1scalar_1_1IceMassGlacierized.html" target="_top" xlink:title="Computes the total ice mass in glacierized areas.">
<polygon fill="none" stroke="black" points="538.5,-732.5 538.5,-762.5 684.5,-762.5 684.5,-732.5 538.5,-732.5"/>
<text text-anchor="start" x="546.5" y="-750.5" font-family="Helvetica,sans-Serif" font-size="10.00">pism::diagnostics::</text>
<text text-anchor="middle" x="611.5" y="-739.5" font-family="Helvetica,sans-Serif" font-size="10.00">scalar::IceMassGlacierized</text>
</a>
</g>
</g>
<!-- Node3&#45;&gt;Node12 -->
<g id="edge11" class="edge">
<title>Node3&#45;&gt;Node12</title>
<path fill="none" stroke="midnightblue" d="M425.78,-612.5C443.71,-642.67 478.48,-693.95 522,-722.5 527.87,-726.35 534.34,-729.62 541.03,-732.39"/>
<polygon fill="midnightblue" stroke="midnightblue" points="428.61,-610.4 420.57,-603.51 422.55,-613.91 428.61,-610.4"/>
</g>
<!-- Node13 -->
<g id="node13" class="node">
<title>Node13</title>
<g id="a_node13"><a xlink:href="classpism_1_1diagnostics_1_1scalar_1_1IceMassNotDisplacingSeaWater.html" target="_top" xlink:title="Computes the total mass of the ice not displacing sea water.">
<polygon fill="none" stroke="black" points="531.5,-672 531.5,-713 691.5,-713 691.5,-672 531.5,-672"/>
<text text-anchor="start" x="539.5" y="-701" font-family="Helvetica,sans-Serif" font-size="10.00">pism::diagnostics::</text>
<text text-anchor="start" x="539.5" y="-690" font-family="Helvetica,sans-Serif" font-size="10.00">scalar::IceMassNotDisplacing</text>
<text text-anchor="middle" x="611.5" y="-679" font-family="Helvetica,sans-Serif" font-size="10.00">SeaWater</text>
</a>
</g>
</g>
<!-- Node3&#45;&gt;Node13 -->
<g id="edge12" class="edge">
<title>Node3&#45;&gt;Node13</title>
<path fill="none" stroke="midnightblue" d="M439.3,-609.61C460.74,-625.74 492.06,-647.65 522,-662.5 528.83,-665.89 536.14,-669.04 543.51,-671.94"/>
<polygon fill="midnightblue" stroke="midnightblue" points="441.39,-606.8 431.32,-603.53 437.15,-612.37 441.39,-606.8"/>
</g>
<!-- Node14 -->
<g id="node14" class="node">
<title>Node14</title>
<g id="a_node14"><a xlink:href="classpism_1_1diagnostics_1_1scalar_1_1IceVolume.html" target="_top" xlink:title="Computes the total ice volume.">
<polygon fill="none" stroke="black" points="557.5,-622.5 557.5,-652.5 665.5,-652.5 665.5,-622.5 557.5,-622.5"/>
<text text-anchor="start" x="565.5" y="-640.5" font-family="Helvetica,sans-Serif" font-size="10.00">pism::diagnostics::</text>
<text text-anchor="middle" x="611.5" y="-629.5" font-family="Helvetica,sans-Serif" font-size="10.00">scalar::IceVolume</text>
</a>
</g>
</g>
<!-- Node3&#45;&gt;Node14 -->
<g id="edge13" class="edge">
<title>Node3&#45;&gt;Node14</title>
<path fill="none" stroke="midnightblue" d="M483.18,-605.99C507.57,-612.03 534.47,-618.69 557.24,-624.32"/>
<polygon fill="midnightblue" stroke="midnightblue" points="483.8,-602.54 473.25,-603.53 482.12,-609.33 483.8,-602.54"/>
</g>
<!-- Node15 -->
<g id="node15" class="node">
<title>Node15</title>
<g id="a_node15"><a xlink:href="classpism_1_1diagnostics_1_1scalar_1_1IceVolumeCold.html" target="_top" xlink:title="Computes the total volume of the cold ice.">
<polygon fill="none" stroke="black" points="549,-573.5 549,-603.5 674,-603.5 674,-573.5 549,-573.5"/>
<text text-anchor="start" x="557" y="-591.5" font-family="Helvetica,sans-Serif" font-size="10.00">pism::diagnostics::</text>
<text text-anchor="middle" x="611.5" y="-580.5" font-family="Helvetica,sans-Serif" font-size="10.00">scalar::IceVolumeCold</text>
</a>
</g>
</g>
<!-- Node3&#45;&gt;Node15 -->
<g id="edge14" class="edge">
<title>Node3&#45;&gt;Node15</title>
<path fill="none" stroke="midnightblue" d="M496.46,-588.5C513.98,-588.5 532.16,-588.5 548.7,-588.5"/>
<polygon fill="midnightblue" stroke="midnightblue" points="496.23,-585 486.23,-588.5 496.23,-592 496.23,-585"/>
</g>
<!-- Node16 -->
<g id="node16" class="node">
<title>Node16</title>
<g id="a_node16"><a xlink:href="classpism_1_1diagnostics_1_1scalar_1_1IceVolumeGlacierized.html" target="_top" xlink:title="Computes the total ice volume in glacierized areas.">
<polygon fill="none" stroke="black" points="532.5,-524.5 532.5,-554.5 690.5,-554.5 690.5,-524.5 532.5,-524.5"/>
<text text-anchor="start" x="540.5" y="-542.5" font-family="Helvetica,sans-Serif" font-size="10.00">pism::diagnostics::</text>
<text text-anchor="middle" x="611.5" y="-531.5" font-family="Helvetica,sans-Serif" font-size="10.00">scalar::IceVolumeGlacierized</text>
</a>
</g>
</g>
<!-- Node3&#45;&gt;Node16 -->
<g id="edge15" class="edge">
<title>Node3&#45;&gt;Node16</title>
<path fill="none" stroke="midnightblue" d="M483.12,-571.02C504.94,-565.62 528.78,-559.72 549.86,-554.51"/>
<polygon fill="midnightblue" stroke="midnightblue" points="482.12,-567.67 473.25,-573.47 483.8,-574.46 482.12,-567.67"/>
</g>
<!-- Node17 -->
<g id="node17" class="node">
<title>Node17</title>
<g id="a_node17"><a xlink:href="classpism_1_1diagnostics_1_1scalar_1_1IceVolumeGlacierizedCold.html" target="_top" xlink:title="Computes the total volume of the cold ice in glacierized areas.">
<polygon fill="none" stroke="black" points="522,-475.5 522,-505.5 701,-505.5 701,-475.5 522,-475.5"/>
<text text-anchor="start" x="530" y="-493.5" font-family="Helvetica,sans-Serif" font-size="10.00">pism::diagnostics::</text>
<text text-anchor="middle" x="611.5" y="-482.5" font-family="Helvetica,sans-Serif" font-size="10.00">scalar::IceVolumeGlacierizedCold</text>
</a>
</g>
</g>
<!-- Node3&#45;&gt;Node17 -->
<g id="edge16" class="edge">
<title>Node3&#45;&gt;Node17</title>
<path fill="none" stroke="midnightblue" d="M438.67,-567.17C459.98,-550.72 491.43,-528.5 522,-514.5 529.38,-511.12 537.33,-508.13 545.34,-505.52"/>
<polygon fill="midnightblue" stroke="midnightblue" points="436.46,-564.45 430.75,-573.37 440.78,-569.96 436.46,-564.45"/>
</g>
<!-- Node18 -->
<g id="node18" class="node">
<title>Node18</title>
<g id="a_node18"><a xlink:href="classpism_1_1diagnostics_1_1scalar_1_1IceVolumeGlacierizedGrounded.html" target="_top" xlink:title="Computes the total grounded ice volume.">
<polygon fill="none" stroke="black" points="532.5,-415 532.5,-456 690.5,-456 690.5,-415 532.5,-415"/>
<text text-anchor="start" x="540.5" y="-444" font-family="Helvetica,sans-Serif" font-size="10.00">pism::diagnostics::</text>
<text text-anchor="start" x="540.5" y="-433" font-family="Helvetica,sans-Serif" font-size="10.00">scalar::IceVolumeGlacierized</text>
<text text-anchor="middle" x="611.5" y="-422" font-family="Helvetica,sans-Serif" font-size="10.00">Grounded</text>
</a>
</g>
</g>
<!-- Node3&#45;&gt;Node18 -->
<g id="edge17" class="edge">
<title>Node3&#45;&gt;Node18</title>
<path fill="none" stroke="midnightblue" d="M427.92,-564.74C446.94,-537.19 481.74,-492.17 522,-465.5 527.27,-462.01 533,-458.88 538.91,-456.09"/>
<polygon fill="midnightblue" stroke="midnightblue" points="424.79,-563.11 422.09,-573.36 430.59,-567.04 424.79,-563.11"/>
</g>
<!-- Node19 -->
<g id="node19" class="node">
<title>Node19</title>
<g id="a_node19"><a xlink:href="classpism_1_1diagnostics_1_1scalar_1_1IceVolumeGlacierizedShelf.html" target="_top" xlink:title="Computes the total floating ice volume.">
<polygon fill="none" stroke="black" points="532.5,-355 532.5,-396 690.5,-396 690.5,-355 532.5,-355"/>
<text text-anchor="start" x="540.5" y="-384" font-family="Helvetica,sans-Serif" font-size="10.00">pism::diagnostics::</text>
<text text-anchor="start" x="540.5" y="-373" font-family="Helvetica,sans-Serif" font-size="10.00">scalar::IceVolumeGlacierized</text>
<text text-anchor="middle" x="611.5" y="-362" font-family="Helvetica,sans-Serif" font-size="10.00">Shelf</text>
</a>
</g>
</g>
<!-- Node3&#45;&gt;Node19 -->
<g id="edge18" class="edge">
<title>Node3&#45;&gt;Node19</title>
<path fill="none" stroke="midnightblue" d="M420.91,-563.7C435.43,-524.53 468.85,-448.41 522,-405.5 526.29,-402.04 531,-398.96 535.95,-396.24"/>
<polygon fill="midnightblue" stroke="midnightblue" points="417.56,-562.67 417.47,-573.26 424.15,-565.04 417.56,-562.67"/>
</g>
<!-- Node20 -->
<g id="node20" class="node">
<title>Node20</title>
<g id="a_node20"><a xlink:href="classpism_1_1diagnostics_1_1scalar_1_1IceVolumeGlacierizedTemperate.html" target="_top" xlink:title="Computes the total volume of the temperate ice in glacierized areas.">
<polygon fill="none" stroke="black" points="532.5,-295 532.5,-336 690.5,-336 690.5,-295 532.5,-295"/>
<text text-anchor="start" x="540.5" y="-324" font-family="Helvetica,sans-Serif" font-size="10.00">pism::diagnostics::</text>
<text text-anchor="start" x="540.5" y="-313" font-family="Helvetica,sans-Serif" font-size="10.00">scalar::IceVolumeGlacierized</text>
<text text-anchor="middle" x="611.5" y="-302" font-family="Helvetica,sans-Serif" font-size="10.00">Temperate</text>
</a>
</g>
</g>
<!-- Node3&#45;&gt;Node20 -->
<g id="edge19" class="edge">
<title>Node3&#45;&gt;Node20</title>
<path fill="none" stroke="midnightblue" d="M416.99,-563.14C426.97,-514.1 455.59,-405.79 522,-345.5 525.84,-342.01 530.11,-338.92 534.63,-336.2"/>
<polygon fill="midnightblue" stroke="midnightblue" points="413.5,-562.72 415.03,-573.2 420.37,-564.05 413.5,-562.72"/>
</g>
<!-- Node21 -->
<g id="node21" class="node">
<title>Node21</title>
<g id="a_node21"><a xlink:href="classpism_1_1diagnostics_1_1scalar_1_1IceVolumeTemperate.html" target="_top" xlink:title="Computes the total volume of the temperate ice.">
<polygon fill="none" stroke="black" points="534,-245.5 534,-275.5 689,-275.5 689,-245.5 534,-245.5"/>
<text text-anchor="start" x="542" y="-263.5" font-family="Helvetica,sans-Serif" font-size="10.00">pism::diagnostics::</text>
<text text-anchor="middle" x="611.5" y="-252.5" font-family="Helvetica,sans-Serif" font-size="10.00">scalar::IceVolumeTemperate</text>
</a>
</g>
</g>
<!-- Node3&#45;&gt;Node21 -->
<g id="edge20" class="edge">
<title>Node3&#45;&gt;Node21</title>
<path fill="none" stroke="midnightblue" d="M414.09,-563.2C419.13,-505.27 439.7,-362.12 522,-285.5 526.09,-281.69 530.72,-278.46 535.65,-275.71"/>
<polygon fill="midnightblue" stroke="midnightblue" points="410.59,-563.05 413.3,-573.3 417.57,-563.6 410.59,-563.05"/>
</g>
<!-- Node22 -->
<g id="node22" class="node">
<title>Node22</title>
<g id="a_node22"><a xlink:href="classpism_1_1diagnostics_1_1scalar_1_1MaxDiffusivity.html" target="_top" xlink:title="Reports maximum diffusivity.">
<polygon fill="none" stroke="black" points="550,-196.5 550,-226.5 673,-226.5 673,-196.5 550,-196.5"/>
<text text-anchor="start" x="558" y="-214.5" font-family="Helvetica,sans-Serif" font-size="10.00">pism::diagnostics::</text>
<text text-anchor="middle" x="611.5" y="-203.5" font-family="Helvetica,sans-Serif" font-size="10.00">scalar::MaxDiffusivity</text>
</a>
</g>
</g>
<!-- Node3&#45;&gt;Node22 -->
<g id="edge21" class="edge">
<title>Node3&#45;&gt;Node22</title>
<path fill="none" stroke="midnightblue" d="M412.53,-563.05C414.05,-498.47 427.27,-326.88 522,-235.5 529.68,-228.09 539.4,-222.92 549.57,-219.32"/>
<polygon fill="midnightblue" stroke="midnightblue" points="409.03,-563.1 412.37,-573.15 416.03,-563.21 409.03,-563.1"/>
</g>
<!-- Node23 -->
<g id="node23" class="node">
<title>Node23</title>
<g id="a_node23"><a xlink:href="classpism_1_1diagnostics_1_1scalar_1_1MaxHorizontalVelocity.html" target="_top" xlink:title="Reports the maximum horizontal absolute velocity component over the grid.">
<polygon fill="none" stroke="black" points="530.5,-147.5 530.5,-177.5 692.5,-177.5 692.5,-147.5 530.5,-147.5"/>
<text text-anchor="start" x="538.5" y="-165.5" font-family="Helvetica,sans-Serif" font-size="10.00">pism::diagnostics::</text>
<text text-anchor="middle" x="611.5" y="-154.5" font-family="Helvetica,sans-Serif" font-size="10.00">scalar::MaxHorizontalVelocity</text>
</a>
</g>
</g>
<!-- Node3&#45;&gt;Node23 -->
<g id="edge22" class="edge">
<title>Node3&#45;&gt;Node23</title>
<path fill="none" stroke="midnightblue" d="M416.04,-563.41C427.72,-484.13 467.38,-241.06 522,-186.5 525.38,-183.12 529.18,-180.21 533.26,-177.7"/>
<polygon fill="midnightblue" stroke="midnightblue" points="412.55,-563.07 414.58,-573.47 419.48,-564.08 412.55,-563.07"/>
</g>
<!-- Node24 -->
<g id="node24" class="node">
<title>Node24</title>
<g id="a_node24"><a xlink:href="classpism_1_1diagnostics_1_1scalar_1_1SeaLevelRisePotential.html" target="_top" xlink:title="Computes the total ice volume which is relevant for sea&#45;level.">
<polygon fill="none" stroke="black" points="531,-98.5 531,-128.5 692,-128.5 692,-98.5 531,-98.5"/>
<text text-anchor="start" x="539" y="-116.5" font-family="Helvetica,sans-Serif" font-size="10.00">pism::diagnostics::</text>
<text text-anchor="middle" x="611.5" y="-105.5" font-family="Helvetica,sans-Serif" font-size="10.00">scalar::SeaLevelRisePotential</text>
</a>
</g>
</g>
<!-- Node3&#45;&gt;Node24 -->
<g id="edge23" class="edge">
<title>Node3&#45;&gt;Node24</title>
<path fill="none" stroke="midnightblue" d="M415.3,-562.94C425.22,-476.9 461.42,-199.72 522,-137.5 525.33,-134.08 529.1,-131.13 533.15,-128.59"/>
<polygon fill="midnightblue" stroke="midnightblue" points="411.79,-562.79 414.15,-573.12 418.75,-563.58 411.79,-562.79"/>
</g>
<!-- Node25 -->
<g id="node25" class="node">
<title>Node25</title>
<g id="a_node25"><a xlink:href="classpism_1_1diagnostics_1_1scalar_1_1TimeStepLength.html" target="_top" xlink:title="Reports the mass continuity time step.">
<polygon fill="none" stroke="black" points="546,-49.5 546,-79.5 677,-79.5 677,-49.5 546,-49.5"/>
<text text-anchor="start" x="554" y="-67.5" font-family="Helvetica,sans-Serif" font-size="10.00">pism::diagnostics::</text>
<text text-anchor="middle" x="611.5" y="-56.5" font-family="Helvetica,sans-Serif" font-size="10.00">scalar::TimeStepLength</text>
</a>
</g>
</g>
<!-- Node3&#45;&gt;Node25 -->
<g id="edge24" class="edge">
<title>Node3&#45;&gt;Node25</title>
<path fill="none" stroke="midnightblue" d="M414.62,-563.22C422.8,-471.6 455.25,-158.62 522,-88.5 528.59,-81.58 536.95,-76.59 545.89,-73"/>
<polygon fill="midnightblue" stroke="midnightblue" points="411.13,-563 413.74,-573.27 418.1,-563.61 411.13,-563"/>
</g>
<!-- Node26 -->
<g id="node26" class="node">
<title>Node26</title>
<g id="a_node26"><a xlink:href="classpism_1_1diagnostics_1_1scalar_1_1TimeStepRatio.html" target="_top" xlink:title="Reports the mass continuity time step.">
<polygon fill="none" stroke="black" points="549.5,-0.5 549.5,-30.5 673.5,-30.5 673.5,-0.5 549.5,-0.5"/>
<text text-anchor="start" x="557.5" y="-18.5" font-family="Helvetica,sans-Serif" font-size="10.00">pism::diagnostics::</text>
<text text-anchor="middle" x="611.5" y="-7.5" font-family="Helvetica,sans-Serif" font-size="10.00">scalar::TimeStepRatio</text>
</a>
</g>
</g>
<!-- Node3&#45;&gt;Node26 -->
<g id="edge25" class="edge">
<title>Node3&#45;&gt;Node26</title>
<path fill="none" stroke="midnightblue" d="M414.08,-563.33C420.66,-466.22 449.09,-117.54 522,-39.5 529.39,-31.59 539.1,-26.19 549.37,-22.52"/>
<polygon fill="midnightblue" stroke="midnightblue" points="410.58,-563.19 413.41,-573.4 417.56,-563.66 410.58,-563.19"/>
</g>
</g>
</svg>
