<?xml version="1.0" encoding="UTF-8" standalone="no"?>
<!DOCTYPE svg PUBLIC "-//W3C//DTD SVG 1.1//EN"
 "http://www.w3.org/Graphics/SVG/1.1/DTD/svg11.dtd">
<!-- Generated by graphviz version 2.43.0 (0)
 -->
<!-- Title: pism::surface::SurfaceModel Pages: 1 -->
<svg width="681pt" height="558pt"
 viewBox="0.00 0.00 681.00 557.50" xmlns="http://www.w3.org/2000/svg" xmlns:xlink="http://www.w3.org/1999/xlink">
<g id="graph0" class="graph" transform="scale(1 1) rotate(0) translate(4 553.5)">
<title>pism::surface::SurfaceModel</title>
<!-- Node1 -->
<g id="node1" class="node">
<title>Node1</title>
<g id="a_node1"><a xlink:title="The interface of PISM&#39;s surface models.">
<polygon fill="#bfbfbf" stroke="black" points="139,-271 139,-290 294,-290 294,-271 139,-271"/>
<text text-anchor="middle" x="216.5" y="-278" font-family="Helvetica,sans-Serif" font-size="10.00">pism::surface::SurfaceModel</text>
</a>
</g>
</g>
<!-- Node3 -->
<g id="node3" class="node">
<title>Node3</title>
<g id="a_node3"><a xlink:href="classpism_1_1icebin_1_1IBSurfaceModel.html" target="_top" xlink:title="A class implementing a constant&#45;in&#45;time surface model for the surface mass balance.">
<polygon fill="none" stroke="black" points="333,-530 333,-549 491,-549 491,-530 333,-530"/>
<text text-anchor="middle" x="412" y="-537" font-family="Helvetica,sans-Serif" font-size="10.00">pism::icebin::IBSurfaceModel</text>
</a>
</g>
</g>
<!-- Node1&#45;&gt;Node3 -->
<g id="edge2" class="edge">
<title>Node1&#45;&gt;Node3</title>
<path fill="none" stroke="midnightblue" d="M220.73,-300C229.41,-346 257.69,-461.86 330,-520.5 334.71,-524.32 340.06,-527.4 345.7,-529.88"/>
<polygon fill="midnightblue" stroke="midnightblue" points="224.17,-299.34 218.97,-290.11 217.27,-300.57 224.17,-299.34"/>
</g>
<!-- Node4 -->
<g id="node4" class="node">
<title>Node4</title>
<g id="a_node4"><a xlink:href="classpism_1_1surface_1_1Anomaly.html" target="_top" xlink:title="Reads and uses climatic_mass_balance and ice_surface_temp anomalies from a file.">
<polygon fill="none" stroke="black" points="346,-492 346,-511 478,-511 478,-492 346,-492"/>
<text text-anchor="middle" x="412" y="-499" font-family="Helvetica,sans-Serif" font-size="10.00">pism::surface::Anomaly</text>
</a>
</g>
</g>
<!-- Node1&#45;&gt;Node4 -->
<g id="edge3" class="edge">
<title>Node1&#45;&gt;Node4</title>
<path fill="none" stroke="midnightblue" d="M222.62,-300.19C234.3,-340.98 266.9,-434.88 330,-482.5 335.07,-486.33 340.79,-489.4 346.79,-491.87"/>
<polygon fill="midnightblue" stroke="midnightblue" points="225.96,-299.1 219.93,-290.38 219.21,-300.95 225.96,-299.1"/>
</g>
<!-- Node5 -->
<g id="node5" class="node">
<title>Node5</title>
<g id="a_node5"><a xlink:href="classpism_1_1surface_1_1Cache.html" target="_top" xlink:title=" ">
<polygon fill="none" stroke="black" points="352.5,-454 352.5,-473 471.5,-473 471.5,-454 352.5,-454"/>
<text text-anchor="middle" x="412" y="-461" font-family="Helvetica,sans-Serif" font-size="10.00">pism::surface::Cache</text>
</a>
</g>
</g>
<!-- Node1&#45;&gt;Node5 -->
<g id="edge4" class="edge">
<title>Node1&#45;&gt;Node5</title>
<path fill="none" stroke="midnightblue" d="M225,-299.53C239.65,-334.13 275.51,-407.22 330,-444.5 336.68,-449.07 344.31,-452.55 352.16,-455.19"/>
<polygon fill="midnightblue" stroke="midnightblue" points="228.17,-298.03 221.13,-290.11 221.69,-300.69 228.17,-298.03"/>
</g>
<!-- Node6 -->
<g id="node6" class="node">
<title>Node6</title>
<g id="a_node6"><a xlink:href="classpism_1_1surface_1_1Delta__T.html" target="_top" xlink:title="Implements the scalar temperature offsets for the ice surface temperature.">
<polygon fill="none" stroke="black" points="349,-416 349,-435 475,-435 475,-416 349,-416"/>
<text text-anchor="middle" x="412" y="-423" font-family="Helvetica,sans-Serif" font-size="10.00">pism::surface::Delta_T</text>
</a>
</g>
</g>
<!-- Node1&#45;&gt;Node6 -->
<g id="edge5" class="edge">
<title>Node1&#45;&gt;Node6</title>
<path fill="none" stroke="midnightblue" d="M228.62,-298.94C246.41,-326.77 284,-379.16 330,-406.5 336.58,-410.41 343.91,-413.52 351.39,-415.98"/>
<polygon fill="midnightblue" stroke="midnightblue" points="231.43,-296.84 223.17,-290.2 225.49,-300.54 231.43,-296.84"/>
</g>
<!-- Node7 -->
<g id="node7" class="node">
<title>Node7</title>
<g id="a_node7"><a xlink:href="classpism_1_1surface_1_1Elevation.html" target="_top" xlink:title="A class implementing a elevation&#45;dependent temperature and mass balance model.">
<polygon fill="none" stroke="black" points="345,-378 345,-397 479,-397 479,-378 345,-378"/>
<text text-anchor="middle" x="412" y="-385" font-family="Helvetica,sans-Serif" font-size="10.00">pism::surface::Elevation</text>
</a>
</g>
</g>
<!-- Node1&#45;&gt;Node7 -->
<g id="edge6" class="edge">
<title>Node1&#45;&gt;Node7</title>
<path fill="none" stroke="midnightblue" d="M234.05,-297.32C254.68,-317.3 291.9,-350.23 330,-368.5 338.08,-372.37 346.99,-375.48 355.86,-377.97"/>
<polygon fill="midnightblue" stroke="midnightblue" points="236.32,-294.64 226.75,-290.11 231.4,-299.62 236.32,-294.64"/>
</g>
<!-- Node8 -->
<g id="node8" class="node">
<title>Node8</title>
<g id="a_node8"><a xlink:href="classpism_1_1surface_1_1ElevationChange.html" target="_top" xlink:title=" ">
<polygon fill="none" stroke="black" points="345,-328.5 345,-358.5 479,-358.5 479,-328.5 345,-328.5"/>
<text text-anchor="start" x="353" y="-346.5" font-family="Helvetica,sans-Serif" font-size="10.00">pism::surface::Elevation</text>
<text text-anchor="middle" x="412" y="-335.5" font-family="Helvetica,sans-Serif" font-size="10.00">Change</text>
</a>
</g>
</g>
<!-- Node1&#45;&gt;Node8 -->
<g id="edge7" class="edge">
<title>Node1&#45;&gt;Node8</title>
<path fill="none" stroke="midnightblue" d="M254.74,-293.35C276.61,-300.83 304.82,-310.36 330,-318.5 340.08,-321.76 350.9,-325.16 361.24,-328.37"/>
<polygon fill="midnightblue" stroke="midnightblue" points="255.77,-290.01 245.17,-290.07 253.5,-296.63 255.77,-290.01"/>
</g>
<!-- Node9 -->
<g id="node9" class="node">
<title>Node9</title>
<g id="a_node9"><a xlink:href="classpism_1_1surface_1_1ForceThickness.html" target="_top" xlink:title=" ">
<polygon fill="none" stroke="black" points="330,-290 330,-309 494,-309 494,-290 330,-290"/>
<text text-anchor="middle" x="412" y="-297" font-family="Helvetica,sans-Serif" font-size="10.00">pism::surface::ForceThickness</text>
</a>
</g>
</g>
<!-- Node1&#45;&gt;Node9 -->
<g id="edge8" class="edge">
<title>Node1&#45;&gt;Node9</title>
<path fill="none" stroke="midnightblue" d="M304.22,-289.01C312.76,-289.85 321.41,-290.7 329.89,-291.54"/>
<polygon fill="midnightblue" stroke="midnightblue" points="304.55,-285.53 294.25,-288.04 303.86,-292.5 304.55,-285.53"/>
</g>
<!-- Node10 -->
<g id="node10" class="node">
<title>Node10</title>
<g id="a_node10"><a xlink:href="classpism_1_1surface_1_1Given.html" target="_top" xlink:title=" ">
<polygon fill="none" stroke="black" points="353.5,-252 353.5,-271 470.5,-271 470.5,-252 353.5,-252"/>
<text text-anchor="middle" x="412" y="-259" font-family="Helvetica,sans-Serif" font-size="10.00">pism::surface::Given</text>
</a>
</g>
</g>
<!-- Node1&#45;&gt;Node10 -->
<g id="edge9" class="edge">
<title>Node1&#45;&gt;Node10</title>
<path fill="none" stroke="midnightblue" d="M304.51,-271.96C321.1,-270.33 338.07,-268.66 353.45,-267.15"/>
<polygon fill="midnightblue" stroke="midnightblue" points="303.86,-268.5 294.25,-272.96 304.55,-275.47 303.86,-268.5"/>
</g>
<!-- Node11 -->
<g id="node11" class="node">
<title>Node11</title>
<g id="a_node11"><a xlink:href="classpism_1_1surface_1_1ISMIP6.html" target="_top" xlink:title=" ">
<polygon fill="none" stroke="black" points="351,-214 351,-233 473,-233 473,-214 351,-214"/>
<text text-anchor="middle" x="412" y="-221" font-family="Helvetica,sans-Serif" font-size="10.00">pism::surface::ISMIP6</text>
</a>
</g>
</g>
<!-- Node1&#45;&gt;Node11 -->
<g id="edge10" class="edge">
<title>Node1&#45;&gt;Node11</title>
<path fill="none" stroke="midnightblue" d="M253.23,-267.46C275.21,-259.68 304.04,-249.91 330,-242.5 341.81,-239.13 354.7,-235.9 366.66,-233.1"/>
<polygon fill="midnightblue" stroke="midnightblue" points="251.89,-264.22 243.65,-270.88 254.24,-270.81 251.89,-264.22"/>
</g>
<!-- Node12 -->
<g id="node12" class="node">
<title>Node12</title>
<g id="a_node12"><a xlink:href="classpism_1_1surface_1_1InitializationHelper.html" target="_top" xlink:title=" ">
<polygon fill="none" stroke="black" points="337.5,-164.5 337.5,-194.5 486.5,-194.5 486.5,-164.5 337.5,-164.5"/>
<text text-anchor="start" x="345.5" y="-182.5" font-family="Helvetica,sans-Serif" font-size="10.00">pism::surface::Initialization</text>
<text text-anchor="middle" x="412" y="-171.5" font-family="Helvetica,sans-Serif" font-size="10.00">Helper</text>
</a>
</g>
</g>
<!-- Node1&#45;&gt;Node12 -->
<g id="edge11" class="edge">
<title>Node1&#45;&gt;Node12</title>
<path fill="none" stroke="midnightblue" d="M237.35,-264.42C259.01,-247.52 295.25,-221.15 330,-204.5 337.7,-200.81 346.07,-197.51 354.4,-194.61"/>
<polygon fill="midnightblue" stroke="midnightblue" points="234.94,-261.86 229.27,-270.81 239.28,-267.35 234.94,-261.86"/>
</g>
<!-- Node13 -->
<g id="node13" class="node">
<title>Node13</title>
<g id="a_node13"><a xlink:href="classpism_1_1surface_1_1PIK.html" target="_top" xlink:title="A class implementing a constant&#45;in&#45;time surface model for the surface mass balance.">
<polygon fill="none" stroke="black" points="360,-126 360,-145 464,-145 464,-126 360,-126"/>
<text text-anchor="middle" x="412" y="-133" font-family="Helvetica,sans-Serif" font-size="10.00">pism::surface::PIK</text>
</a>
</g>
</g>
<!-- Node1&#45;&gt;Node13 -->
<g id="edge12" class="edge">
<title>Node1&#45;&gt;Node13</title>
<path fill="none" stroke="midnightblue" d="M228.62,-262.06C246.41,-234.23 284,-181.84 330,-154.5 339.06,-149.11 349.55,-145.25 359.9,-142.49"/>
<polygon fill="midnightblue" stroke="midnightblue" points="225.49,-260.46 223.17,-270.8 231.43,-264.16 225.49,-260.46"/>
</g>
<!-- Node14 -->
<g id="node14" class="node">
<title>Node14</title>
<g id="a_node14"><a xlink:href="classpism_1_1surface_1_1PSFormulas.html" target="_top" xlink:title=" ">
<polygon fill="none" stroke="black" points="339,-88 339,-107 485,-107 485,-88 339,-88"/>
<text text-anchor="middle" x="412" y="-95" font-family="Helvetica,sans-Serif" font-size="10.00">pism::surface::PSFormulas</text>
</a>
</g>
</g>
<!-- Node1&#45;&gt;Node14 -->
<g id="edge13" class="edge">
<title>Node1&#45;&gt;Node14</title>
<path fill="none" stroke="midnightblue" d="M225,-261.47C239.65,-226.87 275.51,-153.78 330,-116.5 335.6,-112.67 341.88,-109.6 348.39,-107.15"/>
<polygon fill="midnightblue" stroke="midnightblue" points="221.69,-260.31 221.13,-270.89 228.17,-262.97 221.69,-260.31"/>
</g>
<!-- Node17 -->
<g id="node17" class="node">
<title>Node17</title>
<g id="a_node17"><a xlink:href="classpism_1_1surface_1_1Simple.html" target="_top" xlink:title="A class implementing a primitive surface model.">
<polygon fill="none" stroke="black" points="351,-50 351,-69 473,-69 473,-50 351,-50"/>
<text text-anchor="middle" x="412" y="-57" font-family="Helvetica,sans-Serif" font-size="10.00">pism::surface::Simple</text>
</a>
</g>
</g>
<!-- Node1&#45;&gt;Node17 -->
<g id="edge16" class="edge">
<title>Node1&#45;&gt;Node17</title>
<path fill="none" stroke="midnightblue" d="M222.62,-260.81C234.3,-220.02 266.9,-126.12 330,-78.5 336.23,-73.8 343.43,-70.24 350.92,-67.54"/>
<polygon fill="midnightblue" stroke="midnightblue" points="219.21,-260.05 219.93,-270.62 225.96,-261.9 219.21,-260.05"/>
</g>
<!-- Node18 -->
<g id="node18" class="node">
<title>Node18</title>
<g id="a_node18"><a xlink:href="classpism_1_1surface_1_1TemperatureIndex.html" target="_top" xlink:title="A class implementing a temperature&#45;index (positive degree&#45;day) scheme to compute melt and runoff,...">
<polygon fill="none" stroke="black" points="337,-0.5 337,-30.5 487,-30.5 487,-0.5 337,-0.5"/>
<text text-anchor="start" x="345" y="-18.5" font-family="Helvetica,sans-Serif" font-size="10.00">pism::surface::Temperature</text>
<text text-anchor="middle" x="412" y="-7.5" font-family="Helvetica,sans-Serif" font-size="10.00">Index</text>
</a>
</g>
</g>
<!-- Node1&#45;&gt;Node18 -->
<g id="edge17" class="edge">
<title>Node1&#45;&gt;Node18</title>
<path fill="none" stroke="midnightblue" d="M221.13,-260.7C230.54,-214.98 260.08,-101.32 330,-40.5 334.44,-36.64 339.47,-33.37 344.8,-30.61"/>
<polygon fill="midnightblue" stroke="midnightblue" points="217.68,-260.07 219.2,-270.56 224.55,-261.42 217.68,-260.07"/>
</g>
<!-- Node2 -->
<g id="node2" class="node">
<title>Node2</title>
<g id="a_node2"><a xlink:href="classpism_1_1Component.html" target="_top" xlink:title="A class defining a common interface for most PISM sub&#45;models.">
<polygon fill="none" stroke="black" points="0,-271 0,-290 103,-290 103,-271 0,-271"/>
<text text-anchor="middle" x="51.5" y="-278" font-family="Helvetica,sans-Serif" font-size="10.00">pism::Component</text>
</a>
</g>
</g>
<!-- Node2&#45;&gt;Node1 -->
<g id="edge1" class="edge">
<title>Node2&#45;&gt;Node1</title>
<path fill="none" stroke="midnightblue" d="M113.19,-280.5C121.55,-280.5 130.22,-280.5 138.82,-280.5"/>
<polygon fill="midnightblue" stroke="midnightblue" points="113.18,-277 103.18,-280.5 113.18,-284 113.18,-277"/>
</g>
<!-- Node15 -->
<g id="node15" class="node">
<title>Node15</title>
<g id="a_node15"><a xlink:href="classpism_1_1surface_1_1EISMINTII.html" target="_top" xlink:title=" ">
<polygon fill="none" stroke="black" points="534,-107 534,-126 669,-126 669,-107 534,-107"/>
<text text-anchor="middle" x="601.5" y="-114" font-family="Helvetica,sans-Serif" font-size="10.00">pism::surface::EISMINTII</text>
</a>
</g>
</g>
<!-- Node14&#45;&gt;Node15 -->
<g id="edge14" class="edge">
<title>Node14&#45;&gt;Node15</title>
<path fill="none" stroke="midnightblue" d="M495.44,-105.85C508.28,-107.16 521.41,-108.49 533.84,-109.75"/>
<polygon fill="midnightblue" stroke="midnightblue" points="495.53,-102.34 485.22,-104.82 494.82,-109.31 495.53,-102.34"/>
</g>
<!-- Node16 -->
<g id="node16" class="node">
<title>Node16</title>
<g id="a_node16"><a xlink:href="classpism_1_1surface_1_1Verification.html" target="_top" xlink:title="Climate inputs for verification tests.">
<polygon fill="none" stroke="black" points="530,-69 530,-88 673,-88 673,-69 530,-69"/>
<text text-anchor="middle" x="601.5" y="-76" font-family="Helvetica,sans-Serif" font-size="10.00">pism::surface::Verification</text>
</a>
</g>
</g>
<!-- Node14&#45;&gt;Node16 -->
<g id="edge15" class="edge">
<title>Node14&#45;&gt;Node16</title>
<path fill="none" stroke="midnightblue" d="M495.28,-89.16C506.81,-87.99 518.57,-86.8 529.86,-85.66"/>
<polygon fill="midnightblue" stroke="midnightblue" points="494.82,-85.69 485.22,-90.18 495.53,-92.66 494.82,-85.69"/>
</g>
</g>
</svg>
