<?xml version="1.0" encoding="UTF-8" standalone="no"?>
<!DOCTYPE svg PUBLIC "-//W3C//DTD SVG 1.1//EN"
 "http://www.w3.org/Graphics/SVG/1.1/DTD/svg11.dtd">
<!-- Generated by graphviz version 2.43.0 (0)
 -->
<!-- Title: pism::YieldStress Pages: 1 -->
<svg width="501pt" height="196pt"
 viewBox="0.00 0.00 500.50 196.00" xmlns="http://www.w3.org/2000/svg" xmlns:xlink="http://www.w3.org/1999/xlink">
<g id="graph0" class="graph" transform="scale(1 1) rotate(0) translate(4 192)">
<title>pism::YieldStress</title>
<!-- Node1 -->
<g id="node1" class="node">
<title>Node1</title>
<g id="a_node1"><a xlink:title="The PISM basal yield stress model interface (virtual base class)">
<polygon fill="#bfbfbf" stroke="black" points="196.5,-112.5 196.5,-131.5 297.5,-131.5 297.5,-112.5 196.5,-112.5"/>
<text text-anchor="middle" x="247" y="-119.5" font-family="Helvetica,sans-Serif" font-size="10.00">pism::YieldStress</text>
</a>
</g>
</g>
<!-- Node3 -->
<g id="node3" class="node">
<title>Node3</title>
<g id="a_node3"><a xlink:href="classpism_1_1ConstantYieldStress.html" target="_top" xlink:title=" ">
<polygon fill="none" stroke="black" points="0,-56.5 0,-75.5 144,-75.5 144,-56.5 0,-56.5"/>
<text text-anchor="middle" x="72" y="-63.5" font-family="Helvetica,sans-Serif" font-size="10.00">pism::ConstantYieldStress</text>
</a>
</g>
</g>
<!-- Node1&#45;&gt;Node3 -->
<g id="edge2" class="edge">
<title>Node1&#45;&gt;Node3</title>
<path fill="none" stroke="midnightblue" d="M209.53,-109.44C176.53,-99.26 129.24,-84.66 99.6,-75.52"/>
<polygon fill="midnightblue" stroke="midnightblue" points="208.68,-112.84 219.27,-112.44 210.75,-106.15 208.68,-112.84"/>
</g>
<!-- Node4 -->
<g id="node4" class="node">
<title>Node4</title>
<g id="a_node4"><a xlink:href="classpism_1_1MohrCoulombYieldStress.html" target="_top" xlink:title="PISM&#39;s default basal yield stress model which applies the Mohr&#45;Coulomb model of deformable,...">
<polygon fill="none" stroke="black" points="162.5,-56.5 162.5,-75.5 331.5,-75.5 331.5,-56.5 162.5,-56.5"/>
<text text-anchor="middle" x="247" y="-63.5" font-family="Helvetica,sans-Serif" font-size="10.00">pism::MohrCoulombYieldStress</text>
</a>
</g>
</g>
<!-- Node1&#45;&gt;Node4 -->
<g id="edge3" class="edge">
<title>Node1&#45;&gt;Node4</title>
<path fill="none" stroke="midnightblue" d="M247,-101.8C247,-92.91 247,-82.78 247,-75.75"/>
<polygon fill="midnightblue" stroke="midnightblue" points="243.5,-102.08 247,-112.08 250.5,-102.08 243.5,-102.08"/>
</g>
<!-- Node6 -->
<g id="node6" class="node">
<title>Node6</title>
<g id="a_node6"><a xlink:href="classpism_1_1RegionalYieldStress.html" target="_top" xlink:title=" ">
<polygon fill="none" stroke="black" points="349.5,-56.5 349.5,-75.5 492.5,-75.5 492.5,-56.5 349.5,-56.5"/>
<text text-anchor="middle" x="421" y="-63.5" font-family="Helvetica,sans-Serif" font-size="10.00">pism::RegionalYieldStress</text>
</a>
</g>
</g>
<!-- Node1&#45;&gt;Node6 -->
<g id="edge5" class="edge">
<title>Node1&#45;&gt;Node6</title>
<path fill="none" stroke="midnightblue" d="M284.26,-109.44C317.07,-99.26 364.08,-84.66 393.56,-75.52"/>
<polygon fill="midnightblue" stroke="midnightblue" points="283.08,-106.14 274.57,-112.44 285.16,-112.82 283.08,-106.14"/>
</g>
<!-- Node2 -->
<g id="node2" class="node">
<title>Node2</title>
<g id="a_node2"><a xlink:href="classpism_1_1Component.html" target="_top" xlink:title="A class defining a common interface for most PISM sub&#45;models.">
<polygon fill="none" stroke="black" points="195.5,-168.5 195.5,-187.5 298.5,-187.5 298.5,-168.5 195.5,-168.5"/>
<text text-anchor="middle" x="247" y="-175.5" font-family="Helvetica,sans-Serif" font-size="10.00">pism::Component</text>
</a>
</g>
</g>
<!-- Node2&#45;&gt;Node1 -->
<g id="edge1" class="edge">
<title>Node2&#45;&gt;Node1</title>
<path fill="none" stroke="midnightblue" d="M247,-157.8C247,-148.91 247,-138.78 247,-131.75"/>
<polygon fill="midnightblue" stroke="midnightblue" points="243.5,-158.08 247,-168.08 250.5,-158.08 243.5,-158.08"/>
</g>
<!-- Node5 -->
<g id="node5" class="node">
<title>Node5</title>
<g id="a_node5"><a xlink:href="classpism_1_1OptTillphiYieldStress.html" target="_top" xlink:title="Iterative optimization of the till friction angle.">
<polygon fill="none" stroke="black" points="173,-0.5 173,-19.5 321,-19.5 321,-0.5 173,-0.5"/>
<text text-anchor="middle" x="247" y="-7.5" font-family="Helvetica,sans-Serif" font-size="10.00">pism::OptTillphiYieldStress</text>
</a>
</g>
</g>
<!-- Node4&#45;&gt;Node5 -->
<g id="edge4" class="edge">
<title>Node4&#45;&gt;Node5</title>
<path fill="none" stroke="midnightblue" d="M247,-45.8C247,-36.91 247,-26.78 247,-19.75"/>
<polygon fill="midnightblue" stroke="midnightblue" points="243.5,-46.08 247,-56.08 250.5,-46.08 243.5,-46.08"/>
</g>
</g>
</svg>
