<?xml version="1.0" encoding="UTF-8" standalone="no"?>
<!DOCTYPE svg PUBLIC "-//W3C//DTD SVG 1.1//EN"
 "http://www.w3.org/Graphics/SVG/1.1/DTD/svg11.dtd">
<!-- Generated by graphviz version 2.43.0 (0)
 -->
<!-- Title: pism::inverse::IPInnerProductFunctional&lt; IMVecType &gt; Pages: 1 -->
<svg width="907pt" height="308pt"
 viewBox="0.00 0.00 907.00 308.00" xmlns="http://www.w3.org/2000/svg" xmlns:xlink="http://www.w3.org/1999/xlink">
<g id="graph0" class="graph" transform="scale(1 1) rotate(0) translate(4 304)">
<title>pism::inverse::IPInnerProductFunctional&lt; IMVecType &gt;</title>
<!-- Node1 -->
<g id="node1" class="node">
<title>Node1</title>
<g id="a_node1"><a xlink:title="Abstract base class for IPFunctionals arising from an inner product.">
<polygon fill="#bfbfbf" stroke="black" points="185,-110.5 185,-140.5 344,-140.5 344,-110.5 185,-110.5"/>
<text text-anchor="start" x="193" y="-128.5" font-family="Helvetica,sans-Serif" font-size="10.00">pism::inverse::IPInnerProduct</text>
<text text-anchor="middle" x="264.5" y="-117.5" font-family="Helvetica,sans-Serif" font-size="10.00">Functional&lt; IMVecType &gt;</text>
</a>
</g>
</g>
<!-- Node3 -->
<g id="node3" class="node">
<title>Node3</title>
<g id="a_node3"><a xlink:href="classpism_1_1inverse_1_1IPInnerProductFunctional.html" target="_top" xlink:title=" ">
<polygon fill="none" stroke="black" points="525.5,-184.5 525.5,-214.5 688.5,-214.5 688.5,-184.5 525.5,-184.5"/>
<text text-anchor="start" x="533.5" y="-202.5" font-family="Helvetica,sans-Serif" font-size="10.00">pism::inverse::IPInnerProduct</text>
<text text-anchor="middle" x="607" y="-191.5" font-family="Helvetica,sans-Serif" font-size="10.00">Functional&lt; IceModelVec2S &gt;</text>
</a>
</g>
</g>
<!-- Node1&#45;&gt;Node3 -->
<g id="edge2" class="edge">
<title>Node1&#45;&gt;Node3</title>
<path fill="none" stroke="orange" stroke-dasharray="5,2" d="M317.97,-143.79C332.15,-148.34 347.57,-152.93 362,-156.5 415.97,-169.86 477.64,-180.69 525.48,-188.14"/>
<polygon fill="orange" stroke="orange" points="318.97,-140.43 308.37,-140.66 316.79,-147.09 318.97,-140.43"/>
<text text-anchor="middle" x="427" y="-184.5" font-family="Helvetica,sans-Serif" font-size="10.00"> &lt; IceModelVec2S &gt;</text>
</g>
<!-- Node8 -->
<g id="node8" class="node">
<title>Node8</title>
<g id="a_node8"><a xlink:href="classpism_1_1inverse_1_1IPInnerProductFunctional.html" target="_top" xlink:title=" ">
<polygon fill="none" stroke="black" points="510,-135.5 510,-165.5 704,-165.5 704,-135.5 510,-135.5"/>
<text text-anchor="start" x="518" y="-153.5" font-family="Helvetica,sans-Serif" font-size="10.00">pism::inverse::IPInnerProduct</text>
<text text-anchor="middle" x="607" y="-142.5" font-family="Helvetica,sans-Serif" font-size="10.00">Functional&lt; pism::IceModelVec2V &gt;</text>
</a>
</g>
</g>
<!-- Node1&#45;&gt;Node8 -->
<g id="edge7" class="edge">
<title>Node1&#45;&gt;Node8</title>
<path fill="none" stroke="orange" stroke-dasharray="5,2" d="M354.07,-132C401.9,-135.51 461,-139.85 509.93,-143.45"/>
<polygon fill="orange" stroke="orange" points="354.27,-128.51 344.05,-131.27 353.76,-135.49 354.27,-128.51"/>
<text text-anchor="middle" x="427" y="-144.5" font-family="Helvetica,sans-Serif" font-size="10.00"> &lt; pism::IceModelVec2V &gt;</text>
</g>
<!-- Node9 -->
<g id="node9" class="node">
<title>Node9</title>
<g id="a_node9"><a xlink:href="classpism_1_1inverse_1_1IPInnerProductFunctional.html" target="_top" xlink:title=" ">
<polygon fill="none" stroke="black" points="510.5,-86.5 510.5,-116.5 703.5,-116.5 703.5,-86.5 510.5,-86.5"/>
<text text-anchor="start" x="518.5" y="-104.5" font-family="Helvetica,sans-Serif" font-size="10.00">pism::inverse::IPInnerProduct</text>
<text text-anchor="middle" x="607" y="-93.5" font-family="Helvetica,sans-Serif" font-size="10.00">Functional&lt; pism::IceModelVec2S &gt;</text>
</a>
</g>
</g>
<!-- Node1&#45;&gt;Node9 -->
<g id="edge8" class="edge">
<title>Node1&#45;&gt;Node9</title>
<path fill="none" stroke="orange" stroke-dasharray="5,2" d="M354.31,-118.08C356.9,-117.88 359.47,-117.69 362,-117.5 410.9,-113.87 465.34,-110.26 510.37,-107.39"/>
<polygon fill="orange" stroke="orange" points="353.92,-114.6 344.22,-118.86 354.47,-121.58 353.92,-114.6"/>
<text text-anchor="middle" x="427" y="-120.5" font-family="Helvetica,sans-Serif" font-size="10.00"> &lt; pism::IceModelVec2S &gt;</text>
</g>
<!-- Node10 -->
<g id="node10" class="node">
<title>Node10</title>
<g id="a_node10"><a xlink:href="classpism_1_1inverse_1_1IPInnerProductFunctional.html" target="_top" xlink:title=" ">
<polygon fill="none" stroke="black" points="525,-37.5 525,-67.5 689,-67.5 689,-37.5 525,-37.5"/>
<text text-anchor="start" x="533" y="-55.5" font-family="Helvetica,sans-Serif" font-size="10.00">pism::inverse::IPInnerProduct</text>
<text text-anchor="middle" x="607" y="-44.5" font-family="Helvetica,sans-Serif" font-size="10.00">Functional&lt; IceModelVec2V &gt;</text>
</a>
</g>
</g>
<!-- Node1&#45;&gt;Node10 -->
<g id="edge9" class="edge">
<title>Node1&#45;&gt;Node10</title>
<path fill="none" stroke="orange" stroke-dasharray="5,2" d="M317.55,-107.31C331.84,-102.71 347.42,-98.08 362,-94.5 415.75,-81.31 477.15,-70.76 524.91,-63.54"/>
<polygon fill="orange" stroke="orange" points="316.3,-104.03 307.89,-110.46 318.48,-110.68 316.3,-104.03"/>
<text text-anchor="middle" x="427" y="-97.5" font-family="Helvetica,sans-Serif" font-size="10.00"> &lt; IceModelVec2V &gt;</text>
</g>
<!-- Node2 -->
<g id="node2" class="node">
<title>Node2</title>
<g id="a_node2"><a xlink:href="classpism_1_1inverse_1_1IPFunctional.html" target="_top" xlink:title="Abstract base class for functions from ice model vectors to .">
<polygon fill="none" stroke="black" points="0,-110.5 0,-140.5 148,-140.5 148,-110.5 0,-110.5"/>
<text text-anchor="start" x="8" y="-128.5" font-family="Helvetica,sans-Serif" font-size="10.00">pism::inverse::IPFunctional</text>
<text text-anchor="middle" x="74" y="-117.5" font-family="Helvetica,sans-Serif" font-size="10.00">&lt; IMVecType &gt;</text>
</a>
</g>
</g>
<!-- Node2&#45;&gt;Node1 -->
<g id="edge1" class="edge">
<title>Node2&#45;&gt;Node1</title>
<path fill="none" stroke="midnightblue" d="M158.37,-125.5C167.15,-125.5 176.05,-125.5 184.77,-125.5"/>
<polygon fill="midnightblue" stroke="midnightblue" points="158.15,-122 148.15,-125.5 158.15,-129 158.15,-122"/>
</g>
<!-- Node4 -->
<g id="node4" class="node">
<title>Node4</title>
<g id="a_node4"><a xlink:href="classpism_1_1inverse_1_1IPGroundedIceH1NormFunctional2S.html" target="_top" xlink:title="Implements a functional corresponding to (the square of) an &#160;norm of a scalar valued function over a ...">
<polygon fill="none" stroke="black" points="747.5,-269.5 747.5,-299.5 892.5,-299.5 892.5,-269.5 747.5,-269.5"/>
<text text-anchor="start" x="755.5" y="-287.5" font-family="Helvetica,sans-Serif" font-size="10.00">pism::inverse::IPGrounded</text>
<text text-anchor="middle" x="820" y="-276.5" font-family="Helvetica,sans-Serif" font-size="10.00">IceH1NormFunctional2S</text>
</a>
</g>
</g>
<!-- Node3&#45;&gt;Node4 -->
<g id="edge3" class="edge">
<title>Node3&#45;&gt;Node4</title>
<path fill="none" stroke="midnightblue" d="M647.1,-219.08C673.29,-231.79 708.76,-248.21 741,-260.5 749.21,-263.63 758.02,-266.65 766.65,-269.43"/>
<polygon fill="midnightblue" stroke="midnightblue" points="648.41,-215.83 637.89,-214.58 645.34,-222.12 648.41,-215.83"/>
</g>
<!-- Node5 -->
<g id="node5" class="node">
<title>Node5</title>
<g id="a_node5"><a xlink:href="classpism_1_1inverse_1_1IPMeanSquareFunctional2S.html" target="_top" xlink:title="Implements a functional corresponding to a (possibly weighted) sum of squares of components of an Ice...">
<polygon fill="none" stroke="black" points="741,-220.5 741,-250.5 899,-250.5 899,-220.5 741,-220.5"/>
<text text-anchor="start" x="749" y="-238.5" font-family="Helvetica,sans-Serif" font-size="10.00">pism::inverse::IPMeanSquare</text>
<text text-anchor="middle" x="820" y="-227.5" font-family="Helvetica,sans-Serif" font-size="10.00">Functional2S</text>
</a>
</g>
</g>
<!-- Node3&#45;&gt;Node5 -->
<g id="edge4" class="edge">
<title>Node3&#45;&gt;Node5</title>
<path fill="none" stroke="midnightblue" d="M698.79,-214.99C712.78,-217.38 727.12,-219.82 740.81,-222.16"/>
<polygon fill="midnightblue" stroke="midnightblue" points="699.12,-211.5 688.67,-213.26 697.94,-218.4 699.12,-211.5"/>
</g>
<!-- Node6 -->
<g id="node6" class="node">
<title>Node6</title>
<g id="a_node6"><a xlink:href="classpism_1_1inverse_1_1IP__H1NormFunctional2S.html" target="_top" xlink:title="Implements a functional corresponding to (the square of) an &#160;norm of a scalar valued function.">
<polygon fill="none" stroke="black" points="748.5,-171.5 748.5,-201.5 891.5,-201.5 891.5,-171.5 748.5,-171.5"/>
<text text-anchor="start" x="756.5" y="-189.5" font-family="Helvetica,sans-Serif" font-size="10.00">pism::inverse::IP_H1Norm</text>
<text text-anchor="middle" x="820" y="-178.5" font-family="Helvetica,sans-Serif" font-size="10.00">Functional2S</text>
</a>
</g>
</g>
<!-- Node3&#45;&gt;Node6 -->
<g id="edge5" class="edge">
<title>Node3&#45;&gt;Node6</title>
<path fill="none" stroke="midnightblue" d="M698.9,-193.9C715.46,-192.88 732.51,-191.83 748.37,-190.85"/>
<polygon fill="midnightblue" stroke="midnightblue" points="698.44,-190.42 688.67,-194.53 698.87,-197.41 698.44,-190.42"/>
</g>
<!-- Node7 -->
<g id="node7" class="node">
<title>Node7</title>
<g id="a_node7"><a xlink:href="classpism_1_1inverse_1_1IP__L2NormFunctional2S.html" target="_top" xlink:title="Implements a functional corresponding to (the square of) an &#160;norm of a scalar valued function.">
<polygon fill="none" stroke="black" points="749.5,-122.5 749.5,-152.5 890.5,-152.5 890.5,-122.5 749.5,-122.5"/>
<text text-anchor="start" x="757.5" y="-140.5" font-family="Helvetica,sans-Serif" font-size="10.00">pism::inverse::IP_L2Norm</text>
<text text-anchor="middle" x="820" y="-129.5" font-family="Helvetica,sans-Serif" font-size="10.00">Functional2S</text>
</a>
</g>
</g>
<!-- Node3&#45;&gt;Node7 -->
<g id="edge6" class="edge">
<title>Node3&#45;&gt;Node7</title>
<path fill="none" stroke="midnightblue" d="M681.42,-181.89C689.07,-179.83 696.71,-177.69 704,-175.5 720.69,-170.49 724.48,-168.05 741,-162.5 750.71,-159.24 761.12,-155.84 771.08,-152.63"/>
<polygon fill="midnightblue" stroke="midnightblue" points="680.52,-178.51 671.74,-184.45 682.31,-185.28 680.52,-178.51"/>
</g>
<!-- Node11 -->
<g id="node11" class="node">
<title>Node11</title>
<g id="a_node11"><a xlink:href="classpism_1_1inverse_1_1IPMeanSquareFunctional2V.html" target="_top" xlink:title="Implements a functional corresponding to a (possibly weighted) sum of squares of components of an Ice...">
<polygon fill="none" stroke="black" points="741,-49.5 741,-79.5 899,-79.5 899,-49.5 741,-49.5"/>
<text text-anchor="start" x="749" y="-67.5" font-family="Helvetica,sans-Serif" font-size="10.00">pism::inverse::IPMeanSquare</text>
<text text-anchor="middle" x="820" y="-56.5" font-family="Helvetica,sans-Serif" font-size="10.00">Functional2V</text>
</a>
</g>
</g>
<!-- Node10&#45;&gt;Node11 -->
<g id="edge10" class="edge">
<title>Node10&#45;&gt;Node11</title>
<path fill="none" stroke="midnightblue" d="M699.29,-57.69C713.15,-58.48 727.34,-59.29 740.89,-60.06"/>
<polygon fill="midnightblue" stroke="midnightblue" points="699.46,-54.2 689.28,-57.12 699.06,-61.18 699.46,-54.2"/>
</g>
<!-- Node12 -->
<g id="node12" class="node">
<title>Node12</title>
<g id="a_node12"><a xlink:href="classpism_1_1inverse_1_1IP__L2NormFunctional2V.html" target="_top" xlink:title="Implements a functional corresponding to (the square of) an &#160;norm of a vector valued function.">
<polygon fill="none" stroke="black" points="749.5,-0.5 749.5,-30.5 890.5,-30.5 890.5,-0.5 749.5,-0.5"/>
<text text-anchor="start" x="757.5" y="-18.5" font-family="Helvetica,sans-Serif" font-size="10.00">pism::inverse::IP_L2Norm</text>
<text text-anchor="middle" x="820" y="-7.5" font-family="Helvetica,sans-Serif" font-size="10.00">Functional2V</text>
</a>
</g>
</g>
<!-- Node10&#45;&gt;Node12 -->
<g id="edge11" class="edge">
<title>Node10&#45;&gt;Node12</title>
<path fill="none" stroke="midnightblue" d="M699.13,-36.52C715.99,-33.56 733.35,-30.52 749.44,-27.7"/>
<polygon fill="midnightblue" stroke="midnightblue" points="698.52,-33.07 689.28,-38.25 699.73,-39.97 698.52,-33.07"/>
</g>
</g>
</svg>
