<?xml version="1.0" encoding="UTF-8" standalone="no"?>
<!DOCTYPE svg PUBLIC "-//W3C//DTD SVG 1.1//EN"
 "http://www.w3.org/Graphics/SVG/1.1/DTD/svg11.dtd">
<!-- Generated by graphviz version 2.43.0 (0)
 -->
<!-- Title: pism::fem::Element Pages: 1 -->
<svg width="440pt" height="140pt"
 viewBox="0.00 0.00 439.50 140.00" xmlns="http://www.w3.org/2000/svg" xmlns:xlink="http://www.w3.org/1999/xlink">
<g id="graph0" class="graph" transform="scale(1 1) rotate(0) translate(4 136)">
<title>pism::fem::Element</title>
<!-- Node1 -->
<g id="node1" class="node">
<title>Node1</title>
<g id="a_node1"><a xlink:title="The mapping from global to local degrees of freedom.">
<polygon fill="#bfbfbf" stroke="black" points="227,-112.5 227,-131.5 340,-131.5 340,-112.5 227,-112.5"/>
<text text-anchor="middle" x="283.5" y="-119.5" font-family="Helvetica,sans-Serif" font-size="10.00">pism::fem::Element</text>
</a>
</g>
</g>
<!-- Node2 -->
<g id="node2" class="node">
<title>Node2</title>
<g id="a_node2"><a xlink:href="classpism_1_1fem_1_1Element2.html" target="_top" xlink:title=" ">
<polygon fill="none" stroke="black" points="156,-56.5 156,-75.5 275,-75.5 275,-56.5 156,-56.5"/>
<text text-anchor="middle" x="215.5" y="-63.5" font-family="Helvetica,sans-Serif" font-size="10.00">pism::fem::Element2</text>
</a>
</g>
</g>
<!-- Node1&#45;&gt;Node2 -->
<g id="edge1" class="edge">
<title>Node1&#45;&gt;Node2</title>
<path fill="none" stroke="midnightblue" d="M264.74,-106.1C252.5,-96.38 236.94,-84.03 226.62,-75.83"/>
<polygon fill="midnightblue" stroke="midnightblue" points="262.57,-108.85 272.57,-112.32 266.92,-103.36 262.57,-108.85"/>
</g>
<!-- Node5 -->
<g id="node5" class="node">
<title>Node5</title>
<g id="a_node5"><a xlink:href="classpism_1_1fem_1_1Element3.html" target="_top" xlink:title=" ">
<polygon fill="none" stroke="black" points="299,-56.5 299,-75.5 418,-75.5 418,-56.5 299,-56.5"/>
<text text-anchor="middle" x="358.5" y="-63.5" font-family="Helvetica,sans-Serif" font-size="10.00">pism::fem::Element3</text>
</a>
</g>
</g>
<!-- Node1&#45;&gt;Node5 -->
<g id="edge4" class="edge">
<title>Node1&#45;&gt;Node5</title>
<path fill="none" stroke="midnightblue" d="M303.81,-106.38C317.36,-96.62 334.74,-84.11 346.23,-75.83"/>
<polygon fill="midnightblue" stroke="midnightblue" points="301.62,-103.64 295.55,-112.32 305.71,-109.32 301.62,-103.64"/>
</g>
<!-- Node3 -->
<g id="node3" class="node">
<title>Node3</title>
<g id="a_node3"><a xlink:href="classpism_1_1fem_1_1P1Element2.html" target="_top" xlink:title="P1 element embedded in Q1Element2.">
<polygon fill="none" stroke="black" points="0,-0.5 0,-19.5 131,-19.5 131,-0.5 0,-0.5"/>
<text text-anchor="middle" x="65.5" y="-7.5" font-family="Helvetica,sans-Serif" font-size="10.00">pism::fem::P1Element2</text>
</a>
</g>
</g>
<!-- Node2&#45;&gt;Node3 -->
<g id="edge2" class="edge">
<title>Node2&#45;&gt;Node3</title>
<path fill="none" stroke="midnightblue" d="M182.28,-53.04C154.05,-42.88 114.24,-28.55 89.16,-19.52"/>
<polygon fill="midnightblue" stroke="midnightblue" points="181.14,-56.35 191.73,-56.44 183.51,-49.76 181.14,-56.35"/>
</g>
<!-- Node4 -->
<g id="node4" class="node">
<title>Node4</title>
<g id="a_node4"><a xlink:href="classpism_1_1fem_1_1Q1Element2.html" target="_top" xlink:title="Q1 element with sides parallel to X and Y axes.">
<polygon fill="none" stroke="black" points="149.5,-0.5 149.5,-19.5 281.5,-19.5 281.5,-0.5 149.5,-0.5"/>
<text text-anchor="middle" x="215.5" y="-7.5" font-family="Helvetica,sans-Serif" font-size="10.00">pism::fem::Q1Element2</text>
</a>
</g>
</g>
<!-- Node2&#45;&gt;Node4 -->
<g id="edge3" class="edge">
<title>Node2&#45;&gt;Node4</title>
<path fill="none" stroke="midnightblue" d="M215.5,-45.8C215.5,-36.91 215.5,-26.78 215.5,-19.75"/>
<polygon fill="midnightblue" stroke="midnightblue" points="212,-46.08 215.5,-56.08 219,-46.08 212,-46.08"/>
</g>
<!-- Node6 -->
<g id="node6" class="node">
<title>Node6</title>
<g id="a_node6"><a xlink:href="classpism_1_1fem_1_1Q1Element3.html" target="_top" xlink:title="3D Q1 element">
<polygon fill="none" stroke="black" points="299.5,-0.5 299.5,-19.5 431.5,-19.5 431.5,-0.5 299.5,-0.5"/>
<text text-anchor="middle" x="365.5" y="-7.5" font-family="Helvetica,sans-Serif" font-size="10.00">pism::fem::Q1Element3</text>
</a>
</g>
</g>
<!-- Node5&#45;&gt;Node6 -->
<g id="edge5" class="edge">
<title>Node5&#45;&gt;Node6</title>
<path fill="none" stroke="midnightblue" d="M360.95,-46.1C362.11,-37.14 363.44,-26.86 364.37,-19.75"/>
<polygon fill="midnightblue" stroke="midnightblue" points="357.47,-45.72 359.66,-56.08 364.41,-46.62 357.47,-45.72"/>
</g>
</g>
</svg>
