<?xml version="1.0" encoding="UTF-8" standalone="no"?>
<!DOCTYPE svg PUBLIC "-//W3C//DTD SVG 1.1//EN"
 "http://www.w3.org/Graphics/SVG/1.1/DTD/svg11.dtd">
<!-- Generated by graphviz version 2.43.0 (0)
 -->
<!-- Title: pism::bed::BedDef Pages: 1 -->
<svg width="448pt" height="142pt"
 viewBox="0.00 0.00 448.00 142.00" xmlns="http://www.w3.org/2000/svg" xmlns:xlink="http://www.w3.org/1999/xlink">
<g id="graph0" class="graph" transform="scale(1 1) rotate(0) translate(4 138)">
<title>pism::bed::BedDef</title>
<!-- Node1 -->
<g id="node1" class="node">
<title>Node1</title>
<g id="a_node1"><a xlink:title="PISM bed deformation model (base class).">
<polygon fill="#bfbfbf" stroke="black" points="139,-57.5 139,-76.5 246,-76.5 246,-57.5 139,-57.5"/>
<text text-anchor="middle" x="192.5" y="-64.5" font-family="Helvetica,sans-Serif" font-size="10.00">pism::bed::BedDef</text>
</a>
</g>
</g>
<!-- Node3 -->
<g id="node3" class="node">
<title>Node3</title>
<g id="a_node3"><a xlink:href="classpism_1_1bed_1_1Given.html" target="_top" xlink:title=" ">
<polygon fill="none" stroke="black" points="311.5,-114.5 311.5,-133.5 410.5,-133.5 410.5,-114.5 311.5,-114.5"/>
<text text-anchor="middle" x="361" y="-121.5" font-family="Helvetica,sans-Serif" font-size="10.00">pism::bed::Given</text>
</a>
</g>
</g>
<!-- Node1&#45;&gt;Node3 -->
<g id="edge2" class="edge">
<title>Node1&#45;&gt;Node3</title>
<path fill="none" stroke="midnightblue" d="M222.56,-80.93C239.61,-88.74 261.71,-98.23 282,-105 292.58,-108.53 304.16,-111.71 315.09,-114.41"/>
<polygon fill="midnightblue" stroke="midnightblue" points="223.71,-77.61 213.17,-76.57 220.76,-83.96 223.71,-77.61"/>
</g>
<!-- Node4 -->
<g id="node4" class="node">
<title>Node4</title>
<g id="a_node4"><a xlink:href="classpism_1_1bed_1_1LingleClark.html" target="_top" xlink:title="A wrapper class around LingleClarkSerial.">
<polygon fill="none" stroke="black" points="298.5,-76.5 298.5,-95.5 423.5,-95.5 423.5,-76.5 298.5,-76.5"/>
<text text-anchor="middle" x="361" y="-83.5" font-family="Helvetica,sans-Serif" font-size="10.00">pism::bed::LingleClark</text>
</a>
</g>
</g>
<!-- Node1&#45;&gt;Node4 -->
<g id="edge3" class="edge">
<title>Node1&#45;&gt;Node4</title>
<path fill="none" stroke="midnightblue" d="M256.49,-74.19C270.2,-75.75 284.7,-77.41 298.36,-78.97"/>
<polygon fill="midnightblue" stroke="midnightblue" points="256.51,-70.67 246.18,-73.01 255.72,-77.62 256.51,-70.67"/>
</g>
<!-- Node5 -->
<g id="node5" class="node">
<title>Node5</title>
<g id="a_node5"><a xlink:href="classpism_1_1bed_1_1Null.html" target="_top" xlink:title=" ">
<polygon fill="none" stroke="black" points="316,-38.5 316,-57.5 406,-57.5 406,-38.5 316,-38.5"/>
<text text-anchor="middle" x="361" y="-45.5" font-family="Helvetica,sans-Serif" font-size="10.00">pism::bed::Null</text>
</a>
</g>
</g>
<!-- Node1&#45;&gt;Node5 -->
<g id="edge4" class="edge">
<title>Node1&#45;&gt;Node5</title>
<path fill="none" stroke="midnightblue" d="M256.35,-59.83C276.14,-57.57 297.56,-55.13 315.76,-53.05"/>
<polygon fill="midnightblue" stroke="midnightblue" points="255.72,-56.38 246.18,-60.99 256.51,-63.33 255.72,-56.38"/>
</g>
<!-- Node6 -->
<g id="node6" class="node">
<title>Node6</title>
<g id="a_node6"><a xlink:href="classpism_1_1bed_1_1PointwiseIsostasy.html" target="_top" xlink:title="Point&#45;wise isostasy bed deformation model.">
<polygon fill="none" stroke="black" points="282,-0.5 282,-19.5 440,-19.5 440,-0.5 282,-0.5"/>
<text text-anchor="middle" x="361" y="-7.5" font-family="Helvetica,sans-Serif" font-size="10.00">pism::bed::PointwiseIsostasy</text>
</a>
</g>
</g>
<!-- Node1&#45;&gt;Node6 -->
<g id="edge5" class="edge">
<title>Node1&#45;&gt;Node6</title>
<path fill="none" stroke="midnightblue" d="M222.56,-53.07C239.61,-45.26 261.71,-35.77 282,-29 292.58,-25.47 304.16,-22.29 315.09,-19.59"/>
<polygon fill="midnightblue" stroke="midnightblue" points="220.76,-50.04 213.17,-57.43 223.71,-56.39 220.76,-50.04"/>
</g>
<!-- Node2 -->
<g id="node2" class="node">
<title>Node2</title>
<g id="a_node2"><a xlink:href="classpism_1_1Component.html" target="_top" xlink:title="A class defining a common interface for most PISM sub&#45;models.">
<polygon fill="none" stroke="black" points="0,-57.5 0,-76.5 103,-76.5 103,-57.5 0,-57.5"/>
<text text-anchor="middle" x="51.5" y="-64.5" font-family="Helvetica,sans-Serif" font-size="10.00">pism::Component</text>
</a>
</g>
</g>
<!-- Node2&#45;&gt;Node1 -->
<g id="edge1" class="edge">
<title>Node2&#45;&gt;Node1</title>
<path fill="none" stroke="midnightblue" d="M113.33,-67C121.84,-67 130.52,-67 138.86,-67"/>
<polygon fill="midnightblue" stroke="midnightblue" points="113.08,-63.5 103.08,-67 113.08,-70.5 113.08,-63.5"/>
</g>
</g>
</svg>
