<?xml version="1.0" encoding="UTF-8" standalone="no"?>
<!DOCTYPE svg PUBLIC "-//W3C//DTD SVG 1.1//EN"
 "http://www.w3.org/Graphics/SVG/1.1/DTD/svg11.dtd">
<!-- Generated by graphviz version 2.43.0 (0)
 -->
<!-- Title: pism::options::Option&lt; T &gt; Pages: 1 -->
<svg width="649pt" height="235pt"
 viewBox="0.00 0.00 649.00 235.00" xmlns="http://www.w3.org/2000/svg" xmlns:xlink="http://www.w3.org/1999/xlink">
<g id="graph0" class="graph" transform="scale(1 1) rotate(0) translate(4 231)">
<title>pism::options::Option&lt; T &gt;</title>
<!-- Node1 -->
<g id="node1" class="node">
<title>Node1</title>
<g id="a_node1"><a xlink:title="Template base class used by PISM&#39;s option&#45;processing classes.">
<polygon fill="#bfbfbf" stroke="black" points="0,-104 0,-123 149,-123 149,-104 0,-104"/>
<text text-anchor="middle" x="74.5" y="-111" font-family="Helvetica,sans-Serif" font-size="10.00">pism::options::Option&lt; T &gt;</text>
</a>
</g>
</g>
<!-- Node2 -->
<g id="node2" class="node">
<title>Node2</title>
<g id="a_node2"><a xlink:href="classpism_1_1options_1_1Option.html" target="_top" xlink:title=" ">
<polygon fill="none" stroke="black" points="330.5,-196.5 330.5,-226.5 451.5,-226.5 451.5,-196.5 330.5,-196.5"/>
<text text-anchor="start" x="338.5" y="-214.5" font-family="Helvetica,sans-Serif" font-size="10.00">pism::options::Option</text>
<text text-anchor="middle" x="391" y="-203.5" font-family="Helvetica,sans-Serif" font-size="10.00">&lt; double &gt;</text>
</a>
</g>
</g>
<!-- Node1&#45;&gt;Node2 -->
<g id="edge1" class="edge">
<title>Node1&#45;&gt;Node2</title>
<path fill="none" stroke="orange" stroke-dasharray="5,2" d="M98.4,-128.44C116.39,-139.57 142.44,-154.36 167,-163.5 220.64,-183.45 284.77,-196.17 330.46,-203.47"/>
<polygon fill="orange" stroke="orange" points="100.1,-125.38 89.78,-123.01 96.37,-131.3 100.1,-125.38"/>
<text text-anchor="middle" x="233.5" y="-200.5" font-family="Helvetica,sans-Serif" font-size="10.00"> &lt; double &gt;</text>
</g>
<!-- Node4 -->
<g id="node4" class="node">
<title>Node4</title>
<g id="a_node4"><a xlink:href="classpism_1_1options_1_1Option.html" target="_top" xlink:title=" ">
<polygon fill="none" stroke="black" points="328,-147.5 328,-177.5 454,-177.5 454,-147.5 328,-147.5"/>
<text text-anchor="start" x="336" y="-165.5" font-family="Helvetica,sans-Serif" font-size="10.00">pism::options::Option</text>
<text text-anchor="middle" x="391" y="-154.5" font-family="Helvetica,sans-Serif" font-size="10.00">&lt; std::vector&lt; int &gt; &gt;</text>
</a>
</g>
</g>
<!-- Node1&#45;&gt;Node4 -->
<g id="edge3" class="edge">
<title>Node1&#45;&gt;Node4</title>
<path fill="none" stroke="orange" stroke-dasharray="5,2" d="M143.19,-124.68C151.21,-125.98 159.29,-127.28 167,-128.5 221.35,-137.1 283.21,-146.5 327.97,-153.23"/>
<polygon fill="orange" stroke="orange" points="143.51,-121.19 133.08,-123.04 142.39,-128.1 143.51,-121.19"/>
<text text-anchor="middle" x="233.5" y="-151.5" font-family="Helvetica,sans-Serif" font-size="10.00"> &lt; std::vector&lt; int &gt; &gt;</text>
</g>
<!-- Node6 -->
<g id="node6" class="node">
<title>Node6</title>
<g id="a_node6"><a xlink:href="classpism_1_1options_1_1Option.html" target="_top" xlink:title=" ">
<polygon fill="none" stroke="black" points="330.5,-98.5 330.5,-128.5 451.5,-128.5 451.5,-98.5 330.5,-98.5"/>
<text text-anchor="start" x="338.5" y="-116.5" font-family="Helvetica,sans-Serif" font-size="10.00">pism::options::Option</text>
<text text-anchor="middle" x="391" y="-105.5" font-family="Helvetica,sans-Serif" font-size="10.00">&lt; std::string &gt;</text>
</a>
</g>
</g>
<!-- Node1&#45;&gt;Node6 -->
<g id="edge5" class="edge">
<title>Node1&#45;&gt;Node6</title>
<path fill="none" stroke="orange" stroke-dasharray="5,2" d="M159.46,-113.5C213.37,-113.5 282.07,-113.5 330.41,-113.5"/>
<polygon fill="orange" stroke="orange" points="159.24,-110 149.24,-113.5 159.24,-117 159.24,-110"/>
<text text-anchor="middle" x="233.5" y="-116.5" font-family="Helvetica,sans-Serif" font-size="10.00"> &lt; std::string &gt;</text>
</g>
<!-- Node9 -->
<g id="node9" class="node">
<title>Node9</title>
<g id="a_node9"><a xlink:href="classpism_1_1options_1_1Option.html" target="_top" xlink:title=" ">
<polygon fill="none" stroke="black" points="330.5,-49.5 330.5,-79.5 451.5,-79.5 451.5,-49.5 330.5,-49.5"/>
<text text-anchor="start" x="338.5" y="-67.5" font-family="Helvetica,sans-Serif" font-size="10.00">pism::options::Option</text>
<text text-anchor="middle" x="391" y="-56.5" font-family="Helvetica,sans-Serif" font-size="10.00">&lt; int &gt;</text>
</a>
</g>
</g>
<!-- Node1&#45;&gt;Node9 -->
<g id="edge8" class="edge">
<title>Node1&#45;&gt;Node9</title>
<path fill="none" stroke="orange" stroke-dasharray="5,2" d="M143.19,-102.32C151.21,-101.02 159.29,-99.72 167,-98.5 222.31,-89.75 285.41,-80.17 330.34,-73.41"/>
<polygon fill="orange" stroke="orange" points="142.39,-98.9 133.08,-103.96 143.51,-105.81 142.39,-98.9"/>
<text text-anchor="middle" x="233.5" y="-101.5" font-family="Helvetica,sans-Serif" font-size="10.00"> &lt; int &gt;</text>
</g>
<!-- Node11 -->
<g id="node11" class="node">
<title>Node11</title>
<g id="a_node11"><a xlink:href="classpism_1_1options_1_1Option.html" target="_top" xlink:title=" ">
<polygon fill="none" stroke="black" points="318,-0.5 318,-30.5 464,-30.5 464,-0.5 318,-0.5"/>
<text text-anchor="start" x="326" y="-18.5" font-family="Helvetica,sans-Serif" font-size="10.00">pism::options::Option</text>
<text text-anchor="middle" x="391" y="-7.5" font-family="Helvetica,sans-Serif" font-size="10.00">&lt; std::vector&lt; double &gt; &gt;</text>
</a>
</g>
</g>
<!-- Node1&#45;&gt;Node11 -->
<g id="edge10" class="edge">
<title>Node1&#45;&gt;Node11</title>
<path fill="none" stroke="orange" stroke-dasharray="5,2" d="M98.03,-98.41C116.01,-87.01 142.2,-71.78 167,-62.5 215.82,-44.23 273.46,-32.32 317.9,-25.06"/>
<polygon fill="orange" stroke="orange" points="95.93,-95.6 89.43,-103.97 99.73,-101.48 95.93,-95.6"/>
<text text-anchor="middle" x="233.5" y="-65.5" font-family="Helvetica,sans-Serif" font-size="10.00"> &lt; std::vector&lt; double &gt; &gt;</text>
</g>
<!-- Node3 -->
<g id="node3" class="node">
<title>Node3</title>
<g id="a_node3"><a xlink:href="classpism_1_1options_1_1Real.html" target="_top" xlink:title=" ">
<polygon fill="none" stroke="black" points="516,-202 516,-221 626,-221 626,-202 516,-202"/>
<text text-anchor="middle" x="571" y="-209" font-family="Helvetica,sans-Serif" font-size="10.00">pism::options::Real</text>
</a>
</g>
</g>
<!-- Node2&#45;&gt;Node3 -->
<g id="edge2" class="edge">
<title>Node2&#45;&gt;Node3</title>
<path fill="none" stroke="midnightblue" d="M461.88,-211.5C479.79,-211.5 498.79,-211.5 515.78,-211.5"/>
<polygon fill="midnightblue" stroke="midnightblue" points="461.77,-208 451.77,-211.5 461.77,-215 461.77,-208"/>
</g>
<!-- Node5 -->
<g id="node5" class="node">
<title>Node5</title>
<g id="a_node5"><a xlink:href="classpism_1_1options_1_1IntegerList.html" target="_top" xlink:title=" ">
<polygon fill="none" stroke="black" points="501,-161 501,-180 641,-180 641,-161 501,-161"/>
<text text-anchor="middle" x="571" y="-168" font-family="Helvetica,sans-Serif" font-size="10.00">pism::options::IntegerList</text>
</a>
</g>
</g>
<!-- Node4&#45;&gt;Node5 -->
<g id="edge4" class="edge">
<title>Node4&#45;&gt;Node5</title>
<path fill="none" stroke="midnightblue" d="M464.27,-165.75C476.32,-166.29 488.81,-166.85 500.79,-167.39"/>
<polygon fill="midnightblue" stroke="midnightblue" points="464.4,-162.25 454.26,-165.3 464.09,-169.24 464.4,-162.25"/>
</g>
<!-- Node7 -->
<g id="node7" class="node">
<title>Node7</title>
<g id="a_node7"><a xlink:href="classpism_1_1options_1_1Keyword.html" target="_top" xlink:title=" ">
<polygon fill="none" stroke="black" points="505.5,-123 505.5,-142 636.5,-142 636.5,-123 505.5,-123"/>
<text text-anchor="middle" x="571" y="-130" font-family="Helvetica,sans-Serif" font-size="10.00">pism::options::Keyword</text>
</a>
</g>
</g>
<!-- Node6&#45;&gt;Node7 -->
<g id="edge6" class="edge">
<title>Node6&#45;&gt;Node7</title>
<path fill="none" stroke="midnightblue" d="M461.99,-120.97C476.23,-122.49 491.15,-124.08 505.2,-125.58"/>
<polygon fill="midnightblue" stroke="midnightblue" points="462.08,-117.46 451.77,-119.88 461.34,-124.42 462.08,-117.46"/>
</g>
<!-- Node8 -->
<g id="node8" class="node">
<title>Node8</title>
<g id="a_node8"><a xlink:href="classpism_1_1options_1_1String.html" target="_top" xlink:title=" ">
<polygon fill="none" stroke="black" points="512.5,-85 512.5,-104 629.5,-104 629.5,-85 512.5,-85"/>
<text text-anchor="middle" x="571" y="-92" font-family="Helvetica,sans-Serif" font-size="10.00">pism::options::String</text>
</a>
</g>
</g>
<!-- Node6&#45;&gt;Node8 -->
<g id="edge7" class="edge">
<title>Node6&#45;&gt;Node8</title>
<path fill="none" stroke="midnightblue" d="M461.98,-106.03C478.62,-104.25 496.18,-102.38 512.2,-100.67"/>
<polygon fill="midnightblue" stroke="midnightblue" points="461.34,-102.58 451.77,-107.12 462.08,-109.54 461.34,-102.58"/>
</g>
<!-- Node10 -->
<g id="node10" class="node">
<title>Node10</title>
<g id="a_node10"><a xlink:href="classpism_1_1options_1_1Integer.html" target="_top" xlink:title=" ">
<polygon fill="none" stroke="black" points="509.5,-47 509.5,-66 632.5,-66 632.5,-47 509.5,-47"/>
<text text-anchor="middle" x="571" y="-54" font-family="Helvetica,sans-Serif" font-size="10.00">pism::options::Integer</text>
</a>
</g>
</g>
<!-- Node9&#45;&gt;Node10 -->
<g id="edge9" class="edge">
<title>Node9&#45;&gt;Node10</title>
<path fill="none" stroke="midnightblue" d="M461.95,-61.36C477.66,-60.65 494.2,-59.91 509.48,-59.22"/>
<polygon fill="midnightblue" stroke="midnightblue" points="461.6,-57.87 451.77,-61.81 461.91,-64.86 461.6,-57.87"/>
</g>
<!-- Node12 -->
<g id="node12" class="node">
<title>Node12</title>
<g id="a_node12"><a xlink:href="classpism_1_1options_1_1RealList.html" target="_top" xlink:title=" ">
<polygon fill="none" stroke="black" points="507,-6 507,-25 635,-25 635,-6 507,-6"/>
<text text-anchor="middle" x="571" y="-13" font-family="Helvetica,sans-Serif" font-size="10.00">pism::options::RealList</text>
</a>
</g>
</g>
<!-- Node11&#45;&gt;Node12 -->
<g id="edge11" class="edge">
<title>Node11&#45;&gt;Node12</title>
<path fill="none" stroke="midnightblue" d="M474.18,-15.5C485.18,-15.5 496.31,-15.5 506.91,-15.5"/>
<polygon fill="midnightblue" stroke="midnightblue" points="474.14,-12 464.14,-15.5 474.14,-19 474.14,-12"/>
</g>
</g>
</svg>
