<?xml version="1.0" encoding="UTF-8" standalone="no"?>
<!DOCTYPE svg PUBLIC "-//W3C//DTD SVG 1.1//EN"
 "http://www.w3.org/Graphics/SVG/1.1/DTD/svg11.dtd">
<!-- Generated by graphviz version 2.43.0 (0)
 -->
<!-- Title: pism::hydrology::Hydrology Pages: 1 -->
<svg width="342pt" height="196pt"
 viewBox="0.00 0.00 341.50 196.00" xmlns="http://www.w3.org/2000/svg" xmlns:xlink="http://www.w3.org/1999/xlink">
<g id="graph0" class="graph" transform="scale(1 1) rotate(0) translate(4 192)">
<title>pism::hydrology::Hydrology</title>
<!-- Node1 -->
<g id="node1" class="node">
<title>Node1</title>
<g id="a_node1"><a xlink:title="The PISM subglacial hydrology model interface.">
<polygon fill="#bfbfbf" stroke="black" points="92.5,-112.5 92.5,-131.5 243.5,-131.5 243.5,-112.5 92.5,-112.5"/>
<text text-anchor="middle" x="168" y="-119.5" font-family="Helvetica,sans-Serif" font-size="10.00">pism::hydrology::Hydrology</text>
</a>
</g>
</g>
<!-- Node3 -->
<g id="node3" class="node">
<title>Node3</title>
<g id="a_node3"><a xlink:href="classpism_1_1hydrology_1_1NullTransport.html" target="_top" xlink:title=" ">
<polygon fill="none" stroke="black" points="0.5,-56.5 0.5,-75.5 165.5,-75.5 165.5,-56.5 0.5,-56.5"/>
<text text-anchor="middle" x="83" y="-63.5" font-family="Helvetica,sans-Serif" font-size="10.00">pism::hydrology::NullTransport</text>
</a>
</g>
</g>
<!-- Node1&#45;&gt;Node3 -->
<g id="edge2" class="edge">
<title>Node1&#45;&gt;Node3</title>
<path fill="none" stroke="midnightblue" d="M145.81,-106.9C130.22,-97 109.87,-84.07 96.62,-75.65"/>
<polygon fill="midnightblue" stroke="midnightblue" points="144.03,-109.92 154.34,-112.32 147.78,-104.01 144.03,-109.92"/>
</g>
<!-- Node5 -->
<g id="node5" class="node">
<title>Node5</title>
<g id="a_node5"><a xlink:href="classpism_1_1hydrology_1_1Routing.html" target="_top" xlink:title="A subglacial hydrology model which assumes water pressure equals overburden pressure.">
<polygon fill="none" stroke="black" points="185,-56.5 185,-75.5 323,-75.5 323,-56.5 185,-56.5"/>
<text text-anchor="middle" x="254" y="-63.5" font-family="Helvetica,sans-Serif" font-size="10.00">pism::hydrology::Routing</text>
</a>
</g>
</g>
<!-- Node1&#45;&gt;Node5 -->
<g id="edge4" class="edge">
<title>Node1&#45;&gt;Node5</title>
<path fill="none" stroke="midnightblue" d="M190.45,-106.9C206.22,-97 226.81,-84.07 240.22,-75.65"/>
<polygon fill="midnightblue" stroke="midnightblue" points="188.43,-104.04 181.82,-112.32 192.15,-109.97 188.43,-104.04"/>
</g>
<!-- Node2 -->
<g id="node2" class="node">
<title>Node2</title>
<g id="a_node2"><a xlink:href="classpism_1_1Component.html" target="_top" xlink:title="A class defining a common interface for most PISM sub&#45;models.">
<polygon fill="none" stroke="black" points="116.5,-168.5 116.5,-187.5 219.5,-187.5 219.5,-168.5 116.5,-168.5"/>
<text text-anchor="middle" x="168" y="-175.5" font-family="Helvetica,sans-Serif" font-size="10.00">pism::Component</text>
</a>
</g>
</g>
<!-- Node2&#45;&gt;Node1 -->
<g id="edge1" class="edge">
<title>Node2&#45;&gt;Node1</title>
<path fill="none" stroke="midnightblue" d="M168,-157.8C168,-148.91 168,-138.78 168,-131.75"/>
<polygon fill="midnightblue" stroke="midnightblue" points="164.5,-158.08 168,-168.08 171.5,-158.08 164.5,-158.08"/>
</g>
<!-- Node4 -->
<g id="node4" class="node">
<title>Node4</title>
<g id="a_node4"><a xlink:href="classpism_1_1hydrology_1_1SteadyState.html" target="_top" xlink:title=" ">
<polygon fill="none" stroke="black" points="0,-0.5 0,-19.5 160,-19.5 160,-0.5 0,-0.5"/>
<text text-anchor="middle" x="80" y="-7.5" font-family="Helvetica,sans-Serif" font-size="10.00">pism::hydrology::SteadyState</text>
</a>
</g>
</g>
<!-- Node3&#45;&gt;Node4 -->
<g id="edge3" class="edge">
<title>Node3&#45;&gt;Node4</title>
<path fill="none" stroke="midnightblue" d="M81.93,-45.8C81.44,-36.91 80.88,-26.78 80.49,-19.75"/>
<polygon fill="midnightblue" stroke="midnightblue" points="78.46,-46.29 82.5,-56.08 85.44,-45.9 78.46,-46.29"/>
</g>
<!-- Node6 -->
<g id="node6" class="node">
<title>Node6</title>
<g id="a_node6"><a xlink:href="classpism_1_1hydrology_1_1Distributed.html" target="_top" xlink:title="The PISM subglacial hydrology model for a distributed linked&#45;cavity system.">
<polygon fill="none" stroke="black" points="178.5,-0.5 178.5,-19.5 333.5,-19.5 333.5,-0.5 178.5,-0.5"/>
<text text-anchor="middle" x="256" y="-7.5" font-family="Helvetica,sans-Serif" font-size="10.00">pism::hydrology::Distributed</text>
</a>
</g>
</g>
<!-- Node5&#45;&gt;Node6 -->
<g id="edge5" class="edge">
<title>Node5&#45;&gt;Node6</title>
<path fill="none" stroke="midnightblue" d="M254.71,-45.8C255.04,-36.91 255.42,-26.78 255.68,-19.75"/>
<polygon fill="midnightblue" stroke="midnightblue" points="251.2,-45.96 254.33,-56.08 258.2,-46.22 251.2,-45.96"/>
</g>
</g>
</svg>
