<?xml version="1.0" encoding="UTF-8" standalone="no"?>
<!DOCTYPE svg PUBLIC "-//W3C//DTD SVG 1.1//EN"
 "http://www.w3.org/Graphics/SVG/1.1/DTD/svg11.dtd">
<!-- Generated by graphviz version 2.43.0 (0)
 -->
<!-- Title: pism::atmosphere::diagnostics::AirTemperatureSnapshot Pages: 1 -->
<svg width="254pt" height="220pt"
 viewBox="0.00 0.00 253.50 220.00" xmlns="http://www.w3.org/2000/svg" xmlns:xlink="http://www.w3.org/1999/xlink">
<g id="graph0" class="graph" transform="scale(1 1) rotate(0) translate(4 216)">
<title>pism::atmosphere::diagnostics::AirTemperatureSnapshot</title>
<!-- Node1 -->
<g id="node1" class="node">
<title>Node1</title>
<g id="a_node1"><a xlink:title="Instantaneous near&#45;surface air temperature.">
<polygon fill="#bfbfbf" stroke="black" points="7,-0.5 7,-30.5 174,-30.5 174,-0.5 7,-0.5"/>
<text text-anchor="start" x="15" y="-18.5" font-family="Helvetica,sans-Serif" font-size="10.00">pism::atmosphere::diagnostics</text>
<text text-anchor="middle" x="90.5" y="-7.5" font-family="Helvetica,sans-Serif" font-size="10.00">::AirTemperatureSnapshot</text>
</a>
</g>
</g>
<!-- Node2 -->
<g id="node2" class="node">
<title>Node2</title>
<g id="a_node2"><a xlink:href="classpism_1_1Diag.html" target="_top" xlink:title=" ">
<polygon fill="none" stroke="black" points="0,-68.5 0,-87.5 181,-87.5 181,-68.5 0,-68.5"/>
<text text-anchor="middle" x="90.5" y="-75.5" font-family="Helvetica,sans-Serif" font-size="10.00">pism::Diag&lt; AtmosphereModel &gt;</text>
</a>
</g>
</g>
<!-- Node2&#45;&gt;Node1 -->
<g id="edge1" class="edge">
<title>Node2&#45;&gt;Node1</title>
<path fill="none" stroke="midnightblue" d="M90.5,-58.22C90.5,-49.36 90.5,-38.96 90.5,-30.76"/>
<polygon fill="midnightblue" stroke="midnightblue" points="87,-58.33 90.5,-68.33 94,-58.33 87,-58.33"/>
</g>
<!-- Node3 -->
<g id="node3" class="node">
<title>Node3</title>
<g id="a_node3"><a xlink:href="classpism_1_1Diagnostic.html" target="_top" xlink:title="Class representing diagnostic computations in PISM.">
<polygon fill="none" stroke="black" points="37.5,-192.5 37.5,-211.5 135.5,-211.5 135.5,-192.5 37.5,-192.5"/>
<text text-anchor="middle" x="86.5" y="-199.5" font-family="Helvetica,sans-Serif" font-size="10.00">pism::Diagnostic</text>
</a>
</g>
</g>
<!-- Node3&#45;&gt;Node2 -->
<g id="edge2" class="edge">
<title>Node3&#45;&gt;Node2</title>
<path fill="none" stroke="midnightblue" d="M87.12,-182.19C88,-155.4 89.57,-107.31 90.21,-87.69"/>
<polygon fill="midnightblue" stroke="midnightblue" points="83.62,-182.12 86.79,-192.23 90.61,-182.35 83.62,-182.12"/>
</g>
<!-- Node4 -->
<g id="node4" class="node">
<title>Node4</title>
<g id="a_node4"><a xlink:href="classpism_1_1Diag.html" target="_top" xlink:title="A template derived from Diagnostic, adding a &quot;Model&quot;.">
<polygon fill="none" stroke="black" points="102.5,-135.5 102.5,-154.5 224.5,-154.5 224.5,-135.5 102.5,-135.5"/>
<text text-anchor="middle" x="163.5" y="-142.5" font-family="Helvetica,sans-Serif" font-size="10.00">pism::Diag&lt; Model &gt;</text>
</a>
</g>
</g>
<!-- Node3&#45;&gt;Node4 -->
<g id="edge4" class="edge">
<title>Node3&#45;&gt;Node4</title>
<path fill="none" stroke="midnightblue" d="M106.75,-186.54C121,-176.35 139.61,-163.07 151.55,-154.53"/>
<polygon fill="midnightblue" stroke="midnightblue" points="104.63,-183.75 98.53,-192.41 108.7,-189.44 104.63,-183.75"/>
</g>
<!-- Node4&#45;&gt;Node2 -->
<g id="edge3" class="edge">
<title>Node4&#45;&gt;Node2</title>
<path fill="none" stroke="orange" stroke-dasharray="5,2" d="M145.93,-128.36C131.58,-115.58 111.83,-97.99 100.19,-87.63"/>
<polygon fill="orange" stroke="orange" points="143.86,-131.2 153.65,-135.23 148.51,-125.97 143.86,-131.2"/>
<text text-anchor="middle" x="188" y="-109" font-family="Helvetica,sans-Serif" font-size="10.00"> &lt; AtmosphereModel &gt;</text>
</g>
</g>
</svg>
