<?xml version="1.0" encoding="UTF-8" standalone="no"?>
<!DOCTYPE svg PUBLIC "-//W3C//DTD SVG 1.1//EN"
 "http://www.w3.org/Graphics/SVG/1.1/DTD/svg11.dtd">
<!-- Generated by graphviz version 2.43.0 (0)
 -->
<!-- Title: pism::IceModelVec2S Pages: 1 -->
<svg width="288pt" height="252pt"
 viewBox="0.00 0.00 287.50 252.00" xmlns="http://www.w3.org/2000/svg" xmlns:xlink="http://www.w3.org/1999/xlink">
<g id="graph0" class="graph" transform="scale(1 1) rotate(0) translate(4 248)">
<title>pism::IceModelVec2S</title>
<!-- Node1 -->
<g id="node1" class="node">
<title>Node1</title>
<g id="a_node1"><a xlink:title=" ">
<polygon fill="#bfbfbf" stroke="black" points="88.5,-112.5 88.5,-131.5 208.5,-131.5 208.5,-112.5 88.5,-112.5"/>
<text text-anchor="middle" x="148.5" y="-119.5" font-family="Helvetica,sans-Serif" font-size="10.00">pism::IceModelVec2S</text>
</a>
</g>
</g>
<!-- Node4 -->
<g id="node4" class="node">
<title>Node4</title>
<g id="a_node4"><a xlink:href="classpism_1_1IceModelVec2Int.html" target="_top" xlink:title="A simple class &quot;hiding&quot; the fact that the mask is stored as floating&#45;point scalars (instead of intege...">
<polygon fill="none" stroke="black" points="14,-56.5 14,-75.5 141,-75.5 141,-56.5 14,-56.5"/>
<text text-anchor="middle" x="77.5" y="-63.5" font-family="Helvetica,sans-Serif" font-size="10.00">pism::IceModelVec2Int</text>
</a>
</g>
</g>
<!-- Node1&#45;&gt;Node4 -->
<g id="edge3" class="edge">
<title>Node1&#45;&gt;Node4</title>
<path fill="none" stroke="midnightblue" d="M128.91,-106.1C116.13,-96.38 99.89,-84.03 89.11,-75.83"/>
<polygon fill="midnightblue" stroke="midnightblue" points="127.01,-109.06 137.09,-112.32 131.25,-103.48 127.01,-109.06"/>
</g>
<!-- Node6 -->
<g id="node6" class="node">
<title>Node6</title>
<g id="a_node6"><a xlink:href="classpism_1_1IceModelVec2T.html" target="_top" xlink:title="A class for storing and accessing 2D time&#45;series (for climate forcing)">
<polygon fill="none" stroke="black" points="159.5,-56.5 159.5,-75.5 279.5,-75.5 279.5,-56.5 159.5,-56.5"/>
<text text-anchor="middle" x="219.5" y="-63.5" font-family="Helvetica,sans-Serif" font-size="10.00">pism::IceModelVec2T</text>
</a>
</g>
</g>
<!-- Node1&#45;&gt;Node6 -->
<g id="edge5" class="edge">
<title>Node1&#45;&gt;Node6</title>
<path fill="none" stroke="midnightblue" d="M168.09,-106.1C180.87,-96.38 197.11,-84.03 207.89,-75.83"/>
<polygon fill="midnightblue" stroke="midnightblue" points="165.75,-103.48 159.91,-112.32 169.99,-109.06 165.75,-103.48"/>
</g>
<!-- Node2 -->
<g id="node2" class="node">
<title>Node2</title>
<g id="a_node2"><a xlink:href="classpism_1_1IceModelVec.html" target="_top" xlink:title="Abstract class for reading, writing, allocating, and accessing a DA&#45;based PETSc Vec (2D and 3D fields...">
<polygon fill="none" stroke="black" points="94.5,-168.5 94.5,-187.5 202.5,-187.5 202.5,-168.5 94.5,-168.5"/>
<text text-anchor="middle" x="148.5" y="-175.5" font-family="Helvetica,sans-Serif" font-size="10.00">pism::IceModelVec</text>
</a>
</g>
</g>
<!-- Node2&#45;&gt;Node1 -->
<g id="edge1" class="edge">
<title>Node2&#45;&gt;Node1</title>
<path fill="none" stroke="midnightblue" d="M148.5,-157.8C148.5,-148.91 148.5,-138.78 148.5,-131.75"/>
<polygon fill="midnightblue" stroke="midnightblue" points="145,-158.08 148.5,-168.08 152,-158.08 145,-158.08"/>
</g>
<!-- Node3 -->
<g id="node3" class="node">
<title>Node3</title>
<g id="a_node3"><a xlink:href="classpism_1_1PetscAccessible.html" target="_top" xlink:title=" ">
<polygon fill="none" stroke="black" points="86,-224.5 86,-243.5 211,-243.5 211,-224.5 86,-224.5"/>
<text text-anchor="middle" x="148.5" y="-231.5" font-family="Helvetica,sans-Serif" font-size="10.00">pism::PetscAccessible</text>
</a>
</g>
</g>
<!-- Node3&#45;&gt;Node2 -->
<g id="edge2" class="edge">
<title>Node3&#45;&gt;Node2</title>
<path fill="none" stroke="midnightblue" d="M148.5,-213.8C148.5,-204.91 148.5,-194.78 148.5,-187.75"/>
<polygon fill="midnightblue" stroke="midnightblue" points="145,-214.08 148.5,-224.08 152,-214.08 145,-214.08"/>
</g>
<!-- Node5 -->
<g id="node5" class="node">
<title>Node5</title>
<g id="a_node5"><a xlink:href="classpism_1_1IceModelVec2CellType.html" target="_top" xlink:title="&quot;Cell type&quot; mask. Adds convenience methods to IceModelVec2Int.">
<polygon fill="none" stroke="black" points="0,-0.5 0,-19.5 155,-19.5 155,-0.5 0,-0.5"/>
<text text-anchor="middle" x="77.5" y="-7.5" font-family="Helvetica,sans-Serif" font-size="10.00">pism::IceModelVec2CellType</text>
</a>
</g>
</g>
<!-- Node4&#45;&gt;Node5 -->
<g id="edge4" class="edge">
<title>Node4&#45;&gt;Node5</title>
<path fill="none" stroke="midnightblue" d="M77.5,-45.8C77.5,-36.91 77.5,-26.78 77.5,-19.75"/>
<polygon fill="midnightblue" stroke="midnightblue" points="74,-46.08 77.5,-56.08 81,-46.08 74,-46.08"/>
</g>
</g>
</svg>
