<?xml version="1.0" encoding="UTF-8" standalone="no"?>
<!DOCTYPE svg PUBLIC "-//W3C//DTD SVG 1.1//EN"
 "http://www.w3.org/Graphics/SVG/1.1/DTD/svg11.dtd">
<!-- Generated by graphviz version 2.43.0 (0)
 -->
<!-- Title: pism::inverse::IPGroundedIceH1NormFunctional2S Pages: 1 -->
<svg width="902pt" height="88pt"
 viewBox="0.00 0.00 902.00 88.00" xmlns="http://www.w3.org/2000/svg" xmlns:xlink="http://www.w3.org/1999/xlink">
<g id="graph0" class="graph" transform="scale(1 1) rotate(0) translate(4 84)">
<title>pism::inverse::IPGroundedIceH1NormFunctional2S</title>
<!-- Node1 -->
<g id="node1" class="node">
<title>Node1</title>
<g id="a_node1"><a xlink:title="Implements a functional corresponding to (the square of) an &#160;norm of a scalar valued function over a ...">
<polygon fill="#bfbfbf" stroke="black" points="749,-27.5 749,-57.5 894,-57.5 894,-27.5 749,-27.5"/>
<text text-anchor="start" x="757" y="-45.5" font-family="Helvetica,sans-Serif" font-size="10.00">pism::inverse::IPGrounded</text>
<text text-anchor="middle" x="821.5" y="-34.5" font-family="Helvetica,sans-Serif" font-size="10.00">IceH1NormFunctional2S</text>
</a>
</g>
</g>
<!-- Node2 -->
<g id="node2" class="node">
<title>Node2</title>
<g id="a_node2"><a xlink:href="classpism_1_1inverse_1_1IPInnerProductFunctional.html" target="_top" xlink:title=" ">
<polygon fill="none" stroke="black" points="553,-27.5 553,-57.5 712,-57.5 712,-27.5 553,-27.5"/>
<text text-anchor="start" x="561" y="-45.5" font-family="Helvetica,sans-Serif" font-size="10.00">pism::inverse::IPInnerProduct</text>
<text text-anchor="middle" x="632.5" y="-34.5" font-family="Helvetica,sans-Serif" font-size="10.00">Functional&lt; array::Scalar &gt;</text>
</a>
</g>
</g>
<!-- Node2&#45;&gt;Node1 -->
<g id="edge1" class="edge">
<title>Node2&#45;&gt;Node1</title>
<path fill="none" stroke="midnightblue" d="M722.31,-42.5C731.25,-42.5 740.24,-42.5 748.97,-42.5"/>
<polygon fill="midnightblue" stroke="midnightblue" points="722.26,-39 712.26,-42.5 722.26,-46 722.26,-39"/>
</g>
<!-- Node3 -->
<g id="node3" class="node">
<title>Node3</title>
<g id="a_node3"><a xlink:href="classpism_1_1inverse_1_1IPFunctional.html" target="_top" xlink:title=" ">
<polygon fill="none" stroke="black" points="276.5,-49.5 276.5,-79.5 424.5,-79.5 424.5,-49.5 276.5,-49.5"/>
<text text-anchor="start" x="284.5" y="-67.5" font-family="Helvetica,sans-Serif" font-size="10.00">pism::inverse::IPFunctional</text>
<text text-anchor="middle" x="350.5" y="-56.5" font-family="Helvetica,sans-Serif" font-size="10.00">&lt; array::Scalar &gt;</text>
</a>
</g>
</g>
<!-- Node3&#45;&gt;Node2 -->
<g id="edge2" class="edge">
<title>Node3&#45;&gt;Node2</title>
<path fill="none" stroke="midnightblue" d="M435.04,-57.94C472.36,-55 516.11,-51.57 552.84,-48.68"/>
<polygon fill="midnightblue" stroke="midnightblue" points="434.4,-54.48 424.7,-58.75 434.94,-61.45 434.4,-54.48"/>
</g>
<!-- Node4 -->
<g id="node4" class="node">
<title>Node4</title>
<g id="a_node4"><a xlink:href="classpism_1_1inverse_1_1IPFunctional.html" target="_top" xlink:title="Abstract base class for functions from ice model vectors to .">
<polygon fill="none" stroke="black" points="0,-24.5 0,-54.5 148,-54.5 148,-24.5 0,-24.5"/>
<text text-anchor="start" x="8" y="-42.5" font-family="Helvetica,sans-Serif" font-size="10.00">pism::inverse::IPFunctional</text>
<text text-anchor="middle" x="74" y="-31.5" font-family="Helvetica,sans-Serif" font-size="10.00">&lt; IMVecType &gt;</text>
</a>
</g>
</g>
<!-- Node4&#45;&gt;Node3 -->
<g id="edge3" class="edge">
<title>Node4&#45;&gt;Node3</title>
<path fill="none" stroke="orange" stroke-dasharray="5,2" d="M158.59,-47.11C196.05,-50.52 239.84,-54.51 276.03,-57.81"/>
<polygon fill="orange" stroke="orange" points="158.48,-43.59 148.2,-46.17 157.84,-50.56 158.48,-43.59"/>
<text text-anchor="middle" x="209.5" y="-58.5" font-family="Helvetica,sans-Serif" font-size="10.00"> &lt; array::Scalar &gt;</text>
</g>
<!-- Node5 -->
<g id="node5" class="node">
<title>Node5</title>
<g id="a_node5"><a xlink:href="classpism_1_1inverse_1_1IPInnerProductFunctional.html" target="_top" xlink:title="Abstract base class for IPFunctionals arising from an inner product.">
<polygon fill="none" stroke="black" points="271,-0.5 271,-30.5 430,-30.5 430,-0.5 271,-0.5"/>
<text text-anchor="start" x="279" y="-18.5" font-family="Helvetica,sans-Serif" font-size="10.00">pism::inverse::IPInnerProduct</text>
<text text-anchor="middle" x="350.5" y="-7.5" font-family="Helvetica,sans-Serif" font-size="10.00">Functional&lt; IMVecType &gt;</text>
</a>
</g>
</g>
<!-- Node4&#45;&gt;Node5 -->
<g id="edge5" class="edge">
<title>Node4&#45;&gt;Node5</title>
<path fill="none" stroke="midnightblue" d="M158.58,-32.19C194.23,-29.08 235.62,-25.46 270.73,-22.39"/>
<polygon fill="midnightblue" stroke="midnightblue" points="157.86,-28.74 148.2,-33.1 158.47,-35.72 157.86,-28.74"/>
</g>
<!-- Node5&#45;&gt;Node2 -->
<g id="edge4" class="edge">
<title>Node5&#45;&gt;Node2</title>
<path fill="none" stroke="orange" stroke-dasharray="5,2" d="M440.28,-24.06C476.42,-27.55 517.84,-31.54 552.87,-34.92"/>
<polygon fill="orange" stroke="orange" points="440.53,-20.57 430.24,-23.09 439.86,-27.54 440.53,-20.57"/>
<text text-anchor="middle" x="491.5" y="-35.5" font-family="Helvetica,sans-Serif" font-size="10.00"> &lt; array::Scalar &gt;</text>
</g>
</g>
</svg>
