<?xml version="1.0" encoding="UTF-8" standalone="no"?>
<!DOCTYPE svg PUBLIC "-//W3C//DTD SVG 1.1//EN"
 "http://www.w3.org/Graphics/SVG/1.1/DTD/svg11.dtd">
<!-- Generated by graphviz version 2.43.0 (0)
 -->
<!-- Title: pism::Wrapper&lt; T &gt; Pages: 1 -->
<svg width="800pt" height="332pt"
 viewBox="0.00 0.00 800.00 332.00" xmlns="http://www.w3.org/2000/svg" xmlns:xlink="http://www.w3.org/1999/xlink">
<g id="graph0" class="graph" transform="scale(1 1) rotate(0) translate(4 328)">
<title>pism::Wrapper&lt; T &gt;</title>
<!-- Node1 -->
<g id="node1" class="node">
<title>Node1</title>
<g id="a_node1"><a xlink:title=" ">
<polygon fill="#bfbfbf" stroke="black" points="0,-152.5 0,-171.5 116,-171.5 116,-152.5 0,-152.5"/>
<text text-anchor="middle" x="58" y="-159.5" font-family="Helvetica,sans-Serif" font-size="10.00">pism::Wrapper&lt; T &gt;</text>
</a>
</g>
</g>
<!-- Node2 -->
<g id="node2" class="node">
<title>Node2</title>
<g id="a_node2"><a xlink:href="classpism_1_1Wrapper.html" target="_top" xlink:title=" ">
<polygon fill="none" stroke="black" points="256.5,-304.5 256.5,-323.5 389.5,-323.5 389.5,-304.5 256.5,-304.5"/>
<text text-anchor="middle" x="323" y="-311.5" font-family="Helvetica,sans-Serif" font-size="10.00">pism::Wrapper&lt; ::DM &gt;</text>
</a>
</g>
</g>
<!-- Node1&#45;&gt;Node2 -->
<g id="edge1" class="edge">
<title>Node1&#45;&gt;Node2</title>
<path fill="none" stroke="orange" stroke-dasharray="5,2" d="M65.05,-181.26C74.8,-208.87 96.77,-259.13 134,-284 169.73,-307.87 217.65,-315.23 256.17,-316.7"/>
<polygon fill="orange" stroke="orange" points="68.3,-179.94 61.81,-171.57 61.66,-182.16 68.3,-179.94"/>
<text text-anchor="middle" x="177" y="-315" font-family="Helvetica,sans-Serif" font-size="10.00"> &lt; ::DM &gt;</text>
</g>
<!-- Node4 -->
<g id="node4" class="node">
<title>Node4</title>
<g id="a_node4"><a xlink:href="classpism_1_1Wrapper.html" target="_top" xlink:title=" ">
<polygon fill="none" stroke="black" points="256,-266.5 256,-285.5 390,-285.5 390,-266.5 256,-266.5"/>
<text text-anchor="middle" x="323" y="-273.5" font-family="Helvetica,sans-Serif" font-size="10.00">pism::Wrapper&lt; ::Vec &gt;</text>
</a>
</g>
</g>
<!-- Node1&#45;&gt;Node4 -->
<g id="edge3" class="edge">
<title>Node1&#45;&gt;Node4</title>
<path fill="none" stroke="orange" stroke-dasharray="5,2" d="M70.89,-180.03C84.04,-198.44 106.99,-226.32 134,-241 171.19,-261.21 217.97,-269.97 255.56,-273.67"/>
<polygon fill="orange" stroke="orange" points="73.65,-177.87 65.09,-171.62 67.89,-181.84 73.65,-177.87"/>
<text text-anchor="middle" x="177" y="-272" font-family="Helvetica,sans-Serif" font-size="10.00"> &lt; ::Vec &gt;</text>
</g>
<!-- Node7 -->
<g id="node7" class="node">
<title>Node7</title>
<g id="a_node7"><a xlink:href="classpism_1_1Wrapper.html" target="_top" xlink:title=" ">
<polygon fill="none" stroke="black" points="252,-228.5 252,-247.5 394,-247.5 394,-228.5 252,-228.5"/>
<text text-anchor="middle" x="323" y="-235.5" font-family="Helvetica,sans-Serif" font-size="10.00">pism::Wrapper&lt; ::SNES &gt;</text>
</a>
</g>
</g>
<!-- Node1&#45;&gt;Node7 -->
<g id="edge6" class="edge">
<title>Node1&#45;&gt;Node7</title>
<path fill="none" stroke="orange" stroke-dasharray="5,2" d="M82,-177.06C96.4,-185.85 115.65,-196.46 134,-203 171.84,-216.48 215.91,-225.04 251.87,-230.31"/>
<polygon fill="orange" stroke="orange" points="83.63,-173.95 73.29,-171.61 79.91,-179.89 83.63,-173.95"/>
<text text-anchor="middle" x="177" y="-229" font-family="Helvetica,sans-Serif" font-size="10.00"> &lt; ::SNES &gt;</text>
</g>
<!-- Node9 -->
<g id="node9" class="node">
<title>Node9</title>
<g id="a_node9"><a xlink:href="classpism_1_1Wrapper.html" target="_top" xlink:title=" ">
<polygon fill="none" stroke="black" points="255.5,-190.5 255.5,-209.5 390.5,-209.5 390.5,-190.5 255.5,-190.5"/>
<text text-anchor="middle" x="323" y="-197.5" font-family="Helvetica,sans-Serif" font-size="10.00">pism::Wrapper&lt; ::Mat &gt;</text>
</a>
</g>
</g>
<!-- Node1&#45;&gt;Node9 -->
<g id="edge8" class="edge">
<title>Node1&#45;&gt;Node9</title>
<path fill="none" stroke="orange" stroke-dasharray="5,2" d="M117.65,-173.28C123.17,-174.24 128.68,-175.17 134,-176 174.14,-182.3 219.31,-188.11 255.31,-192.43"/>
<polygon fill="orange" stroke="orange" points="118.2,-169.83 107.75,-171.52 116.98,-176.72 118.2,-169.83"/>
<text text-anchor="middle" x="177" y="-191" font-family="Helvetica,sans-Serif" font-size="10.00"> &lt; ::Mat &gt;</text>
</g>
<!-- Node11 -->
<g id="node11" class="node">
<title>Node11</title>
<g id="a_node11"><a xlink:href="classpism_1_1Wrapper.html" target="_top" xlink:title=" ">
<polygon fill="none" stroke="black" points="239,-152.5 239,-171.5 407,-171.5 407,-152.5 239,-152.5"/>
<text text-anchor="middle" x="323" y="-159.5" font-family="Helvetica,sans-Serif" font-size="10.00">pism::Wrapper&lt; ::VecScatter &gt;</text>
</a>
</g>
</g>
<!-- Node1&#45;&gt;Node11 -->
<g id="edge10" class="edge">
<title>Node1&#45;&gt;Node11</title>
<path fill="none" stroke="orange" stroke-dasharray="5,2" d="M126.43,-162C160.68,-162 202.6,-162 238.83,-162"/>
<polygon fill="orange" stroke="orange" points="126.07,-158.5 116.07,-162 126.07,-165.5 126.07,-158.5"/>
<text text-anchor="middle" x="177" y="-165" font-family="Helvetica,sans-Serif" font-size="10.00"> &lt; ::VecScatter &gt;</text>
</g>
<!-- Node13 -->
<g id="node13" class="node">
<title>Node13</title>
<g id="a_node13"><a xlink:href="classpism_1_1Wrapper.html" target="_top" xlink:title=" ">
<polygon fill="none" stroke="black" points="255.5,-114.5 255.5,-133.5 390.5,-133.5 390.5,-114.5 255.5,-114.5"/>
<text text-anchor="middle" x="323" y="-121.5" font-family="Helvetica,sans-Serif" font-size="10.00">pism::Wrapper&lt; ::KSP &gt;</text>
</a>
</g>
</g>
<!-- Node1&#45;&gt;Node13 -->
<g id="edge12" class="edge">
<title>Node1&#45;&gt;Node13</title>
<path fill="none" stroke="orange" stroke-dasharray="5,2" d="M113.64,-150.57C120.48,-149.29 127.39,-148.06 134,-147 174.09,-140.55 219.26,-134.97 255.27,-130.92"/>
<polygon fill="orange" stroke="orange" points="112.87,-147.16 103.71,-152.48 114.2,-154.03 112.87,-147.16"/>
<text text-anchor="middle" x="177" y="-150" font-family="Helvetica,sans-Serif" font-size="10.00"> &lt; ::KSP &gt;</text>
</g>
<!-- Node15 -->
<g id="node15" class="node">
<title>Node15</title>
<g id="a_node15"><a xlink:href="classpism_1_1Wrapper.html" target="_top" xlink:title=" ">
<polygon fill="none" stroke="black" points="260.5,-76.5 260.5,-95.5 385.5,-95.5 385.5,-76.5 260.5,-76.5"/>
<text text-anchor="middle" x="323" y="-83.5" font-family="Helvetica,sans-Serif" font-size="10.00">pism::Wrapper&lt; ::IS &gt;</text>
</a>
</g>
</g>
<!-- Node1&#45;&gt;Node15 -->
<g id="edge14" class="edge">
<title>Node1&#45;&gt;Node15</title>
<path fill="none" stroke="orange" stroke-dasharray="5,2" d="M82,-146.94C96.4,-138.15 115.65,-127.54 134,-121 174.81,-106.46 222.87,-97.65 260.18,-92.51"/>
<polygon fill="orange" stroke="orange" points="79.91,-144.11 73.29,-152.39 83.63,-150.05 79.91,-144.11"/>
<text text-anchor="middle" x="177" y="-124" font-family="Helvetica,sans-Serif" font-size="10.00"> &lt; ::IS &gt;</text>
</g>
<!-- Node17 -->
<g id="node17" class="node">
<title>Node17</title>
<g id="a_node17"><a xlink:href="classpism_1_1Wrapper.html" target="_top" xlink:title=" ">
<polygon fill="none" stroke="black" points="238,-38.5 238,-57.5 408,-57.5 408,-38.5 238,-38.5"/>
<text text-anchor="middle" x="323" y="-45.5" font-family="Helvetica,sans-Serif" font-size="10.00">pism::Wrapper&lt; PetscViewer &gt;</text>
</a>
</g>
</g>
<!-- Node1&#45;&gt;Node17 -->
<g id="edge16" class="edge">
<title>Node1&#45;&gt;Node17</title>
<path fill="none" stroke="orange" stroke-dasharray="5,2" d="M71.35,-143.69C84.62,-125.54 107.42,-98.42 134,-84 165.55,-66.88 203.94,-57.8 237.78,-53.02"/>
<polygon fill="orange" stroke="orange" points="68.22,-142.06 65.31,-152.25 73.94,-146.1 68.22,-142.06"/>
<text text-anchor="middle" x="177" y="-87" font-family="Helvetica,sans-Serif" font-size="10.00"> &lt; PetscViewer &gt;</text>
</g>
<!-- Node19 -->
<g id="node19" class="node">
<title>Node19</title>
<g id="a_node19"><a xlink:href="classpism_1_1Wrapper.html" target="_top" xlink:title=" ">
<polygon fill="none" stroke="black" points="256.5,-0.5 256.5,-19.5 389.5,-19.5 389.5,-0.5 256.5,-0.5"/>
<text text-anchor="middle" x="323" y="-7.5" font-family="Helvetica,sans-Serif" font-size="10.00">pism::Wrapper&lt; ::Tao &gt;</text>
</a>
</g>
</g>
<!-- Node1&#45;&gt;Node19 -->
<g id="edge18" class="edge">
<title>Node1&#45;&gt;Node19</title>
<path fill="none" stroke="orange" stroke-dasharray="5,2" d="M65.32,-142.7C75.3,-115.51 97.43,-66.51 134,-42 169.75,-18.04 217.68,-10.16 256.19,-8.21"/>
<polygon fill="orange" stroke="orange" points="61.98,-141.67 61.99,-152.27 68.58,-143.98 61.98,-141.67"/>
<text text-anchor="middle" x="177" y="-45" font-family="Helvetica,sans-Serif" font-size="10.00"> &lt; ::Tao &gt;</text>
</g>
<!-- Node3 -->
<g id="node3" class="node">
<title>Node3</title>
<g id="a_node3"><a xlink:href="classpism_1_1petsc_1_1DM.html" target="_top" xlink:title=" ">
<polygon fill="none" stroke="black" points="463,-304.5 463,-323.5 558,-323.5 558,-304.5 463,-304.5"/>
<text text-anchor="middle" x="510.5" y="-311.5" font-family="Helvetica,sans-Serif" font-size="10.00">pism::petsc::DM</text>
</a>
</g>
</g>
<!-- Node2&#45;&gt;Node3 -->
<g id="edge2" class="edge">
<title>Node2&#45;&gt;Node3</title>
<path fill="none" stroke="midnightblue" d="M399.71,-314C421.1,-314 443.74,-314 462.87,-314"/>
<polygon fill="midnightblue" stroke="midnightblue" points="399.66,-310.5 389.66,-314 399.66,-317.5 399.66,-310.5"/>
</g>
<!-- Node5 -->
<g id="node5" class="node">
<title>Node5</title>
<g id="a_node5"><a xlink:href="classpism_1_1petsc_1_1Vec.html" target="_top" xlink:title=" ">
<polygon fill="none" stroke="black" points="462.5,-266.5 462.5,-285.5 558.5,-285.5 558.5,-266.5 462.5,-266.5"/>
<text text-anchor="middle" x="510.5" y="-273.5" font-family="Helvetica,sans-Serif" font-size="10.00">pism::petsc::Vec</text>
</a>
</g>
</g>
<!-- Node4&#45;&gt;Node5 -->
<g id="edge4" class="edge">
<title>Node4&#45;&gt;Node5</title>
<path fill="none" stroke="midnightblue" d="M400.37,-276C421.34,-276 443.47,-276 462.28,-276"/>
<polygon fill="midnightblue" stroke="midnightblue" points="400.18,-272.5 390.18,-276 400.18,-279.5 400.18,-272.5"/>
</g>
<!-- Node6 -->
<g id="node6" class="node">
<title>Node6</title>
<g id="a_node6"><a xlink:href="classpism_1_1petsc_1_1TemporaryGlobalVec.html" target="_top" xlink:title=" ">
<polygon fill="none" stroke="black" points="613,-266.5 613,-285.5 792,-285.5 792,-266.5 613,-266.5"/>
<text text-anchor="middle" x="702.5" y="-273.5" font-family="Helvetica,sans-Serif" font-size="10.00">pism::petsc::TemporaryGlobalVec</text>
</a>
</g>
</g>
<!-- Node5&#45;&gt;Node6 -->
<g id="edge5" class="edge">
<title>Node5&#45;&gt;Node6</title>
<path fill="none" stroke="midnightblue" d="M569.23,-276C583,-276 598.03,-276 612.84,-276"/>
<polygon fill="midnightblue" stroke="midnightblue" points="568.95,-272.5 558.95,-276 568.95,-279.5 568.95,-272.5"/>
</g>
<!-- Node8 -->
<g id="node8" class="node">
<title>Node8</title>
<g id="a_node8"><a xlink:href="classpism_1_1petsc_1_1SNES.html" target="_top" xlink:title=" ">
<polygon fill="none" stroke="black" points="458.5,-228.5 458.5,-247.5 562.5,-247.5 562.5,-228.5 458.5,-228.5"/>
<text text-anchor="middle" x="510.5" y="-235.5" font-family="Helvetica,sans-Serif" font-size="10.00">pism::petsc::SNES</text>
</a>
</g>
</g>
<!-- Node7&#45;&gt;Node8 -->
<g id="edge7" class="edge">
<title>Node7&#45;&gt;Node8</title>
<path fill="none" stroke="midnightblue" d="M404.24,-238C422.59,-238 441.61,-238 458.35,-238"/>
<polygon fill="midnightblue" stroke="midnightblue" points="404.13,-234.5 394.13,-238 404.13,-241.5 404.13,-234.5"/>
</g>
<!-- Node10 -->
<g id="node10" class="node">
<title>Node10</title>
<g id="a_node10"><a xlink:href="classpism_1_1petsc_1_1Mat.html" target="_top" xlink:title=" ">
<polygon fill="none" stroke="black" points="461.5,-190.5 461.5,-209.5 559.5,-209.5 559.5,-190.5 461.5,-190.5"/>
<text text-anchor="middle" x="510.5" y="-197.5" font-family="Helvetica,sans-Serif" font-size="10.00">pism::petsc::Mat</text>
</a>
</g>
</g>
<!-- Node9&#45;&gt;Node10 -->
<g id="edge9" class="edge">
<title>Node9&#45;&gt;Node10</title>
<path fill="none" stroke="midnightblue" d="M400.97,-200C421.44,-200 442.96,-200 461.4,-200"/>
<polygon fill="midnightblue" stroke="midnightblue" points="400.71,-196.5 390.71,-200 400.71,-203.5 400.71,-196.5"/>
</g>
<!-- Node12 -->
<g id="node12" class="node">
<title>Node12</title>
<g id="a_node12"><a xlink:href="classpism_1_1petsc_1_1VecScatter.html" target="_top" xlink:title=" ">
<polygon fill="none" stroke="black" points="445,-152.5 445,-171.5 576,-171.5 576,-152.5 445,-152.5"/>
<text text-anchor="middle" x="510.5" y="-159.5" font-family="Helvetica,sans-Serif" font-size="10.00">pism::petsc::VecScatter</text>
</a>
</g>
</g>
<!-- Node11&#45;&gt;Node12 -->
<g id="edge11" class="edge">
<title>Node11&#45;&gt;Node12</title>
<path fill="none" stroke="midnightblue" d="M417.34,-162C426.65,-162 435.95,-162 444.87,-162"/>
<polygon fill="midnightblue" stroke="midnightblue" points="417.25,-158.5 407.25,-162 417.25,-165.5 417.25,-158.5"/>
</g>
<!-- Node14 -->
<g id="node14" class="node">
<title>Node14</title>
<g id="a_node14"><a xlink:href="classpism_1_1petsc_1_1KSP.html" target="_top" xlink:title=" ">
<polygon fill="none" stroke="black" points="461.5,-114.5 461.5,-133.5 559.5,-133.5 559.5,-114.5 461.5,-114.5"/>
<text text-anchor="middle" x="510.5" y="-121.5" font-family="Helvetica,sans-Serif" font-size="10.00">pism::petsc::KSP</text>
</a>
</g>
</g>
<!-- Node13&#45;&gt;Node14 -->
<g id="edge13" class="edge">
<title>Node13&#45;&gt;Node14</title>
<path fill="none" stroke="midnightblue" d="M400.97,-124C421.44,-124 442.96,-124 461.4,-124"/>
<polygon fill="midnightblue" stroke="midnightblue" points="400.71,-120.5 390.71,-124 400.71,-127.5 400.71,-120.5"/>
</g>
<!-- Node16 -->
<g id="node16" class="node">
<title>Node16</title>
<g id="a_node16"><a xlink:href="classpism_1_1petsc_1_1IS.html" target="_top" xlink:title=" ">
<polygon fill="none" stroke="black" points="466.5,-76.5 466.5,-95.5 554.5,-95.5 554.5,-76.5 466.5,-76.5"/>
<text text-anchor="middle" x="510.5" y="-83.5" font-family="Helvetica,sans-Serif" font-size="10.00">pism::petsc::IS</text>
</a>
</g>
</g>
<!-- Node15&#45;&gt;Node16 -->
<g id="edge15" class="edge">
<title>Node15&#45;&gt;Node16</title>
<path fill="none" stroke="midnightblue" d="M395.6,-86C419.46,-86 445.3,-86 466.33,-86"/>
<polygon fill="midnightblue" stroke="midnightblue" points="395.51,-82.5 385.51,-86 395.51,-89.5 395.51,-82.5"/>
</g>
<!-- Node18 -->
<g id="node18" class="node">
<title>Node18</title>
<g id="a_node18"><a xlink:href="classpism_1_1petsc_1_1Viewer.html" target="_top" xlink:title=" ">
<polygon fill="none" stroke="black" points="454,-38.5 454,-57.5 567,-57.5 567,-38.5 454,-38.5"/>
<text text-anchor="middle" x="510.5" y="-45.5" font-family="Helvetica,sans-Serif" font-size="10.00">pism::petsc::Viewer</text>
</a>
</g>
</g>
<!-- Node17&#45;&gt;Node18 -->
<g id="edge17" class="edge">
<title>Node17&#45;&gt;Node18</title>
<path fill="none" stroke="midnightblue" d="M418.29,-48C430.46,-48 442.61,-48 453.88,-48"/>
<polygon fill="midnightblue" stroke="midnightblue" points="418.07,-44.5 408.07,-48 418.07,-51.5 418.07,-44.5"/>
</g>
<!-- Node20 -->
<g id="node20" class="node">
<title>Node20</title>
<g id="a_node20"><a xlink:href="classpism_1_1petsc_1_1Tao.html" target="_top" xlink:title=" ">
<polygon fill="none" stroke="black" points="463,-0.5 463,-19.5 558,-19.5 558,-0.5 463,-0.5"/>
<text text-anchor="middle" x="510.5" y="-7.5" font-family="Helvetica,sans-Serif" font-size="10.00">pism::petsc::Tao</text>
</a>
</g>
</g>
<!-- Node19&#45;&gt;Node20 -->
<g id="edge19" class="edge">
<title>Node19&#45;&gt;Node20</title>
<path fill="none" stroke="midnightblue" d="M399.71,-10C421.1,-10 443.74,-10 462.87,-10"/>
<polygon fill="midnightblue" stroke="midnightblue" points="399.66,-6.5 389.66,-10 399.66,-13.5 399.66,-6.5"/>
</g>
</g>
</svg>
