<?xml version="1.0" encoding="UTF-8" standalone="no"?>
<!DOCTYPE svg PUBLIC "-//W3C//DTD SVG 1.1//EN"
 "http://www.w3.org/Graphics/SVG/1.1/DTD/svg11.dtd">
<!-- Generated by graphviz version 2.43.0 (0)
 -->
<!-- Title: pism::petsc::TemporaryGlobalVec Pages: 1 -->
<svg width="187pt" height="209pt"
 viewBox="0.00 0.00 187.00 209.00" xmlns="http://www.w3.org/2000/svg" xmlns:xlink="http://www.w3.org/1999/xlink">
<g id="graph0" class="graph" transform="scale(1 1) rotate(0) translate(4 205)">
<title>pism::petsc::TemporaryGlobalVec</title>
<!-- Node1 -->
<g id="node1" class="node">
<title>Node1</title>
<g id="a_node1"><a xlink:title=" ">
<polygon fill="#bfbfbf" stroke="black" points="0,-0.5 0,-19.5 179,-19.5 179,-0.5 0,-0.5"/>
<text text-anchor="middle" x="89.5" y="-7.5" font-family="Helvetica,sans-Serif" font-size="10.00">pism::petsc::TemporaryGlobalVec</text>
</a>
</g>
</g>
<!-- Node2 -->
<g id="node2" class="node">
<title>Node2</title>
<g id="a_node2"><a xlink:href="classpism_1_1petsc_1_1Vec.html" target="_top" xlink:title=" ">
<polygon fill="none" stroke="black" points="41.5,-57.5 41.5,-76.5 137.5,-76.5 137.5,-57.5 41.5,-57.5"/>
<text text-anchor="middle" x="89.5" y="-64.5" font-family="Helvetica,sans-Serif" font-size="10.00">pism::petsc::Vec</text>
</a>
</g>
</g>
<!-- Node2&#45;&gt;Node1 -->
<g id="edge1" class="edge">
<title>Node2&#45;&gt;Node1</title>
<path fill="none" stroke="midnightblue" d="M89.5,-47.12C89.5,-37.82 89.5,-27.06 89.5,-19.71"/>
<polygon fill="midnightblue" stroke="midnightblue" points="86,-47.41 89.5,-57.41 93,-47.41 86,-47.41"/>
</g>
<!-- Node3 -->
<g id="node3" class="node">
<title>Node3</title>
<g id="a_node3"><a xlink:href="classpism_1_1Wrapper.html" target="_top" xlink:title=" ">
<polygon fill="none" stroke="black" points="22.5,-114.5 22.5,-133.5 156.5,-133.5 156.5,-114.5 22.5,-114.5"/>
<text text-anchor="middle" x="89.5" y="-121.5" font-family="Helvetica,sans-Serif" font-size="10.00">pism::Wrapper&lt; ::Vec &gt;</text>
</a>
</g>
</g>
<!-- Node3&#45;&gt;Node2 -->
<g id="edge2" class="edge">
<title>Node3&#45;&gt;Node2</title>
<path fill="none" stroke="midnightblue" d="M89.5,-104.12C89.5,-94.82 89.5,-84.06 89.5,-76.71"/>
<polygon fill="midnightblue" stroke="midnightblue" points="86,-104.41 89.5,-114.41 93,-104.41 86,-104.41"/>
</g>
<!-- Node4 -->
<g id="node4" class="node">
<title>Node4</title>
<g id="a_node4"><a xlink:href="classpism_1_1Wrapper.html" target="_top" xlink:title=" ">
<polygon fill="none" stroke="black" points="31.5,-181.5 31.5,-200.5 147.5,-200.5 147.5,-181.5 31.5,-181.5"/>
<text text-anchor="middle" x="89.5" y="-188.5" font-family="Helvetica,sans-Serif" font-size="10.00">pism::Wrapper&lt; T &gt;</text>
</a>
</g>
</g>
<!-- Node4&#45;&gt;Node3 -->
<g id="edge3" class="edge">
<title>Node4&#45;&gt;Node3</title>
<path fill="none" stroke="orange" stroke-dasharray="5,2" d="M89.5,-171.04C89.5,-158.67 89.5,-143.12 89.5,-133.63"/>
<polygon fill="orange" stroke="orange" points="86,-171.23 89.5,-181.23 93,-171.23 86,-171.23"/>
<text text-anchor="middle" x="114" y="-155" font-family="Helvetica,sans-Serif" font-size="10.00"> &lt; ::Vec &gt;</text>
</g>
</g>
</svg>
