<?xml version="1.0" encoding="UTF-8" standalone="no"?>
<!DOCTYPE svg PUBLIC "-//W3C//DTD SVG 1.1//EN"
 "http://www.w3.org/Graphics/SVG/1.1/DTD/svg11.dtd">
<!-- Generated by graphviz version 2.43.0 (0)
 -->
<!-- Title: pism::TSRateDiagnostic Pages: 1 -->
<svg width="951pt" height="640pt"
 viewBox="0.00 0.00 951.00 640.00" xmlns="http://www.w3.org/2000/svg" xmlns:xlink="http://www.w3.org/1999/xlink">
<g id="graph0" class="graph" transform="scale(1 1) rotate(0) translate(4 636)">
<title>pism::TSRateDiagnostic</title>
<!-- Node1 -->
<g id="node1" class="node">
<title>Node1</title>
<g id="a_node1"><a xlink:title="Scalar diagnostic reporting the rate of change of a quantity modeled by PISM.">
<polygon fill="#bfbfbf" stroke="black" points="146,-387 146,-406 279,-406 279,-387 146,-387"/>
<text text-anchor="middle" x="212.5" y="-394" font-family="Helvetica,sans-Serif" font-size="10.00">pism::TSRateDiagnostic</text>
</a>
</g>
</g>
<!-- Node3 -->
<g id="node3" class="node">
<title>Node3</title>
<g id="a_node3"><a xlink:href="classpism_1_1TSDiag.html" target="_top" xlink:title=" ">
<polygon fill="none" stroke="black" points="315,-460.5 315,-490.5 497,-490.5 497,-460.5 315,-460.5"/>
<text text-anchor="start" x="323" y="-478.5" font-family="Helvetica,sans-Serif" font-size="10.00">pism::TSDiag&lt; TSRateDiagnostic,</text>
<text text-anchor="middle" x="406" y="-467.5" font-family="Helvetica,sans-Serif" font-size="10.00"> IceModel &gt;</text>
</a>
</g>
</g>
<!-- Node1&#45;&gt;Node3 -->
<g id="edge2" class="edge">
<title>Node1&#45;&gt;Node3</title>
<path fill="none" stroke="midnightblue" d="M246.05,-409.93C279.97,-423.92 333.02,-445.81 368.38,-460.39"/>
<polygon fill="midnightblue" stroke="midnightblue" points="247.18,-406.61 236.6,-406.03 244.51,-413.08 247.18,-406.61"/>
</g>
<!-- Node8 -->
<g id="node8" class="node">
<title>Node8</title>
<g id="a_node8"><a xlink:href="classpism_1_1TSFluxDiagnostic.html" target="_top" xlink:title="Scalar diagnostic reporting a &quot;flux&quot;.">
<polygon fill="none" stroke="black" points="340.5,-332 340.5,-351 471.5,-351 471.5,-332 340.5,-332"/>
<text text-anchor="middle" x="406" y="-339" font-family="Helvetica,sans-Serif" font-size="10.00">pism::TSFluxDiagnostic</text>
</a>
</g>
</g>
<!-- Node1&#45;&gt;Node8 -->
<g id="edge7" class="edge">
<title>Node1&#45;&gt;Node8</title>
<path fill="none" stroke="midnightblue" d="M256.75,-384.08C291.58,-374.07 339.83,-360.22 371.7,-351.06"/>
<polygon fill="midnightblue" stroke="midnightblue" points="255.5,-380.8 246.86,-386.92 257.43,-387.52 255.5,-380.8"/>
</g>
<!-- Node2 -->
<g id="node2" class="node">
<title>Node2</title>
<g id="a_node2"><a xlink:href="classpism_1_1TSDiagnostic.html" target="_top" xlink:title="PISM&#39;s scalar time&#45;series diagnostics.">
<polygon fill="none" stroke="black" points="0,-387 0,-406 110,-406 110,-387 0,-387"/>
<text text-anchor="middle" x="55" y="-394" font-family="Helvetica,sans-Serif" font-size="10.00">pism::TSDiagnostic</text>
</a>
</g>
</g>
<!-- Node2&#45;&gt;Node1 -->
<g id="edge1" class="edge">
<title>Node2&#45;&gt;Node1</title>
<path fill="none" stroke="midnightblue" d="M120.5,-396.5C128.89,-396.5 137.5,-396.5 145.92,-396.5"/>
<polygon fill="midnightblue" stroke="midnightblue" points="120.39,-393 110.39,-396.5 120.39,-400 120.39,-393"/>
</g>
<!-- Node4 -->
<g id="node4" class="node">
<title>Node4</title>
<g id="a_node4"><a xlink:href="classpism_1_1diagnostics_1_1scalar_1_1IceMassRateOfChange.html" target="_top" xlink:title="Computes the rate of change of the total ice mass.">
<polygon fill="none" stroke="black" points="542,-570.5 542,-600.5 704,-600.5 704,-570.5 542,-570.5"/>
<text text-anchor="start" x="550" y="-588.5" font-family="Helvetica,sans-Serif" font-size="10.00">pism::diagnostics::</text>
<text text-anchor="middle" x="623" y="-577.5" font-family="Helvetica,sans-Serif" font-size="10.00">scalar::IceMassRateOfChange</text>
</a>
</g>
</g>
<!-- Node3&#45;&gt;Node4 -->
<g id="edge3" class="edge">
<title>Node3&#45;&gt;Node4</title>
<path fill="none" stroke="midnightblue" d="M433.57,-497.15C458.09,-516.18 496.16,-543.44 533,-560.5 541.16,-564.28 550,-567.6 558.85,-570.48"/>
<polygon fill="midnightblue" stroke="midnightblue" points="435.52,-494.22 425.49,-490.79 431.19,-499.72 435.52,-494.22"/>
</g>
<!-- Node5 -->
<g id="node5" class="node">
<title>Node5</title>
<g id="a_node5"><a xlink:href="classpism_1_1diagnostics_1_1scalar_1_1IceMassRateOfChangeGlacierized.html" target="_top" xlink:title="Computes the rate of change of the total ice mass in glacierized areas.">
<polygon fill="none" stroke="black" points="542,-510 542,-551 704,-551 704,-510 542,-510"/>
<text text-anchor="start" x="550" y="-539" font-family="Helvetica,sans-Serif" font-size="10.00">pism::diagnostics::</text>
<text text-anchor="start" x="550" y="-528" font-family="Helvetica,sans-Serif" font-size="10.00">scalar::IceMassRateOfChange</text>
<text text-anchor="middle" x="623" y="-517" font-family="Helvetica,sans-Serif" font-size="10.00">Glacierized</text>
</a>
</g>
</g>
<!-- Node3&#45;&gt;Node5 -->
<g id="edge4" class="edge">
<title>Node3&#45;&gt;Node5</title>
<path fill="none" stroke="midnightblue" d="M475.59,-493.05C496.71,-498.45 520.14,-504.44 541.96,-510.02"/>
<polygon fill="midnightblue" stroke="midnightblue" points="476.31,-489.62 465.75,-490.53 474.57,-496.4 476.31,-489.62"/>
</g>
<!-- Node6 -->
<g id="node6" class="node">
<title>Node6</title>
<g id="a_node6"><a xlink:href="classpism_1_1diagnostics_1_1scalar_1_1IceVolumeRateOfChange.html" target="_top" xlink:title="Computes the rate of change of the total ice volume.">
<polygon fill="none" stroke="black" points="536.5,-460.5 536.5,-490.5 709.5,-490.5 709.5,-460.5 536.5,-460.5"/>
<text text-anchor="start" x="544.5" y="-478.5" font-family="Helvetica,sans-Serif" font-size="10.00">pism::diagnostics::</text>
<text text-anchor="middle" x="623" y="-467.5" font-family="Helvetica,sans-Serif" font-size="10.00">scalar::IceVolumeRateOfChange</text>
</a>
</g>
</g>
<!-- Node3&#45;&gt;Node6 -->
<g id="edge5" class="edge">
<title>Node3&#45;&gt;Node6</title>
<path fill="none" stroke="midnightblue" d="M507.34,-475.5C517.07,-475.5 526.88,-475.5 536.45,-475.5"/>
<polygon fill="midnightblue" stroke="midnightblue" points="507.24,-472 497.24,-475.5 507.24,-479 507.24,-472"/>
</g>
<!-- Node7 -->
<g id="node7" class="node">
<title>Node7</title>
<g id="a_node7"><a xlink:href="classpism_1_1diagnostics_1_1scalar_1_1IceVolumeRateOfChangeGlacierized.html" target="_top" xlink:title="Computes the rate of change of the total ice volume in glacierized areas.">
<polygon fill="none" stroke="black" points="536.5,-400 536.5,-441 709.5,-441 709.5,-400 536.5,-400"/>
<text text-anchor="start" x="544.5" y="-429" font-family="Helvetica,sans-Serif" font-size="10.00">pism::diagnostics::</text>
<text text-anchor="start" x="544.5" y="-418" font-family="Helvetica,sans-Serif" font-size="10.00">scalar::IceVolumeRateOfChange</text>
<text text-anchor="middle" x="623" y="-407" font-family="Helvetica,sans-Serif" font-size="10.00">Glacierized</text>
</a>
</g>
</g>
<!-- Node3&#45;&gt;Node7 -->
<g id="edge6" class="edge">
<title>Node3&#45;&gt;Node7</title>
<path fill="none" stroke="midnightblue" d="M475.54,-457.97C496.54,-452.59 519.84,-446.63 541.56,-441.08"/>
<polygon fill="midnightblue" stroke="midnightblue" points="474.57,-454.6 465.75,-460.47 476.31,-461.38 474.57,-454.6"/>
</g>
<!-- Node9 -->
<g id="node9" class="node">
<title>Node9</title>
<g id="a_node9"><a xlink:href="classpism_1_1TSDiag.html" target="_top" xlink:title=" ">
<polygon fill="none" stroke="black" points="533,-350.5 533,-380.5 713,-380.5 713,-350.5 533,-350.5"/>
<text text-anchor="start" x="541" y="-368.5" font-family="Helvetica,sans-Serif" font-size="10.00">pism::TSDiag&lt; TSFluxDiagnostic,</text>
<text text-anchor="middle" x="623" y="-357.5" font-family="Helvetica,sans-Serif" font-size="10.00"> IceModel &gt;</text>
</a>
</g>
</g>
<!-- Node8&#45;&gt;Node9 -->
<g id="edge8" class="edge">
<title>Node8&#45;&gt;Node9</title>
<path fill="none" stroke="midnightblue" d="M481.64,-349.83C498.17,-351.68 515.85,-353.65 532.89,-355.55"/>
<polygon fill="midnightblue" stroke="midnightblue" points="481.83,-346.33 471.51,-348.7 481.06,-353.29 481.83,-346.33"/>
</g>
<!-- Node19 -->
<g id="node19" class="node">
<title>Node19</title>
<g id="a_node19"><a xlink:href="classpism_1_1TSDiag.html" target="_top" xlink:title=" ">
<polygon fill="none" stroke="black" points="533,-224.5 533,-254.5 713,-254.5 713,-224.5 533,-224.5"/>
<text text-anchor="start" x="541" y="-242.5" font-family="Helvetica,sans-Serif" font-size="10.00">pism::TSDiag&lt; TSFluxDiagnostic,</text>
<text text-anchor="middle" x="623" y="-231.5" font-family="Helvetica,sans-Serif" font-size="10.00"> EnergyModel &gt;</text>
</a>
</g>
</g>
<!-- Node8&#45;&gt;Node19 -->
<g id="edge18" class="edge">
<title>Node8&#45;&gt;Node19</title>
<path fill="none" stroke="midnightblue" d="M436.26,-327.62C476.53,-308.51 548.74,-274.25 590.27,-254.55"/>
<polygon fill="midnightblue" stroke="midnightblue" points="434.76,-324.46 427.23,-331.9 437.76,-330.78 434.76,-324.46"/>
</g>
<!-- Node21 -->
<g id="node21" class="node">
<title>Node21</title>
<g id="a_node21"><a xlink:href="classpism_1_1TSDiag.html" target="_top" xlink:title=" ">
<polygon fill="none" stroke="black" points="533,-74.5 533,-104.5 713,-104.5 713,-74.5 533,-74.5"/>
<text text-anchor="start" x="541" y="-92.5" font-family="Helvetica,sans-Serif" font-size="10.00">pism::TSDiag&lt; TSFluxDiagnostic,</text>
<text text-anchor="middle" x="623" y="-81.5" font-family="Helvetica,sans-Serif" font-size="10.00"> SurfaceModel &gt;</text>
</a>
</g>
</g>
<!-- Node8&#45;&gt;Node21 -->
<g id="edge20" class="edge">
<title>Node8&#45;&gt;Node21</title>
<path fill="none" stroke="midnightblue" d="M421.77,-324.19C461.67,-277.43 571.11,-149.14 608.94,-104.81"/>
<polygon fill="midnightblue" stroke="midnightblue" points="418.99,-322.05 415.17,-331.93 424.32,-326.59 418.99,-322.05"/>
</g>
<!-- Node10 -->
<g id="node10" class="node">
<title>Node10</title>
<g id="a_node10"><a xlink:href="classpism_1_1diagnostics_1_1scalar_1_1IceMassFluxAtGroundingLine.html" target="_top" xlink:title="Reports the total flux across the grounding line.">
<polygon fill="none" stroke="black" points="749,-601.5 749,-631.5 943,-631.5 943,-601.5 749,-601.5"/>
<text text-anchor="start" x="757" y="-619.5" font-family="Helvetica,sans-Serif" font-size="10.00">pism::diagnostics::</text>
<text text-anchor="middle" x="846" y="-608.5" font-family="Helvetica,sans-Serif" font-size="10.00">scalar::IceMassFluxAtGroundingLine</text>
</a>
</g>
</g>
<!-- Node9&#45;&gt;Node10 -->
<g id="edge9" class="edge">
<title>Node9&#45;&gt;Node10</title>
<path fill="none" stroke="midnightblue" d="M709.26,-386.77C710.57,-387.95 711.81,-389.19 713,-390.5 774.26,-458.05 686.77,-525.84 749,-592.5 752.17,-595.89 755.73,-598.83 759.58,-601.38"/>
<polygon fill="midnightblue" stroke="midnightblue" points="711.33,-383.95 701.25,-380.69 707.1,-389.52 711.33,-383.95"/>
</g>
<!-- Node11 -->
<g id="node11" class="node">
<title>Node11</title>
<g id="a_node11"><a xlink:href="classpism_1_1diagnostics_1_1scalar_1_1IceMassFluxBasal.html" target="_top" xlink:title="Reports the total bottom surface ice flux.">
<polygon fill="none" stroke="black" points="776,-552.5 776,-582.5 916,-582.5 916,-552.5 776,-552.5"/>
<text text-anchor="start" x="784" y="-570.5" font-family="Helvetica,sans-Serif" font-size="10.00">pism::diagnostics::</text>
<text text-anchor="middle" x="846" y="-559.5" font-family="Helvetica,sans-Serif" font-size="10.00">scalar::IceMassFluxBasal</text>
</a>
</g>
</g>
<!-- Node9&#45;&gt;Node11 -->
<g id="edge10" class="edge">
<title>Node9&#45;&gt;Node11</title>
<path fill="none" stroke="midnightblue" d="M709.04,-386.76C710.42,-387.94 711.74,-389.19 713,-390.5 761.33,-440.94 699.95,-493.76 749,-543.5 756.36,-550.96 765.66,-556.23 775.56,-559.93"/>
<polygon fill="midnightblue" stroke="midnightblue" points="710.76,-383.68 700.6,-380.66 706.66,-389.35 710.76,-383.68"/>
</g>
<!-- Node12 -->
<g id="node12" class="node">
<title>Node12</title>
<g id="a_node12"><a xlink:href="classpism_1_1diagnostics_1_1scalar_1_1IceMassFluxBasalFloating.html" target="_top" xlink:title="Reports the total sub&#45;shelf ice flux.">
<polygon fill="none" stroke="black" points="756.5,-503.5 756.5,-533.5 935.5,-533.5 935.5,-503.5 756.5,-503.5"/>
<text text-anchor="start" x="764.5" y="-521.5" font-family="Helvetica,sans-Serif" font-size="10.00">pism::diagnostics::</text>
<text text-anchor="middle" x="846" y="-510.5" font-family="Helvetica,sans-Serif" font-size="10.00">scalar::IceMassFluxBasalFloating</text>
</a>
</g>
</g>
<!-- Node9&#45;&gt;Node12 -->
<g id="edge11" class="edge">
<title>Node9&#45;&gt;Node12</title>
<path fill="none" stroke="midnightblue" d="M707.76,-386.09C709.59,-387.47 711.34,-388.93 713,-390.5 748.6,-424.04 712.92,-461.47 749,-494.5 752.67,-497.86 756.75,-500.77 761.08,-503.29"/>
<polygon fill="midnightblue" stroke="midnightblue" points="709.62,-383.12 699.32,-380.61 705.81,-388.99 709.62,-383.12"/>
</g>
<!-- Node13 -->
<g id="node13" class="node">
<title>Node13</title>
<g id="a_node13"><a xlink:href="classpism_1_1diagnostics_1_1scalar_1_1IceMassFluxBasalGrounded.html" target="_top" xlink:title="Reports the total basal ice flux over the grounded region.">
<polygon fill="none" stroke="black" points="752.5,-454.5 752.5,-484.5 939.5,-484.5 939.5,-454.5 752.5,-454.5"/>
<text text-anchor="start" x="760.5" y="-472.5" font-family="Helvetica,sans-Serif" font-size="10.00">pism::diagnostics::</text>
<text text-anchor="middle" x="846" y="-461.5" font-family="Helvetica,sans-Serif" font-size="10.00">scalar::IceMassFluxBasalGrounded</text>
</a>
</g>
</g>
<!-- Node9&#45;&gt;Node13 -->
<g id="edge12" class="edge">
<title>Node9&#45;&gt;Node13</title>
<path fill="none" stroke="midnightblue" d="M704.62,-385.14C707.53,-386.78 710.34,-388.57 713,-390.5 736.34,-407.45 725.5,-427.77 749,-444.5 754.47,-448.4 760.5,-451.69 766.8,-454.46"/>
<polygon fill="midnightblue" stroke="midnightblue" points="706.12,-381.97 695.62,-380.6 702.97,-388.22 706.12,-381.97"/>
</g>
<!-- Node14 -->
<g id="node14" class="node">
<title>Node14</title>
<g id="a_node14"><a xlink:href="classpism_1_1diagnostics_1_1scalar_1_1IceMassFluxCalving.html" target="_top" xlink:title="Reports the total calving flux.">
<polygon fill="none" stroke="black" points="771.5,-405.5 771.5,-435.5 920.5,-435.5 920.5,-405.5 771.5,-405.5"/>
<text text-anchor="start" x="779.5" y="-423.5" font-family="Helvetica,sans-Serif" font-size="10.00">pism::diagnostics::</text>
<text text-anchor="middle" x="846" y="-412.5" font-family="Helvetica,sans-Serif" font-size="10.00">scalar::IceMassFluxCalving</text>
</a>
</g>
</g>
<!-- Node9&#45;&gt;Node14 -->
<g id="edge13" class="edge">
<title>Node9&#45;&gt;Node14</title>
<path fill="none" stroke="midnightblue" d="M694.47,-383.04C723.5,-390.26 756.8,-398.55 784.68,-405.49"/>
<polygon fill="midnightblue" stroke="midnightblue" points="694.94,-379.55 684.39,-380.53 693.25,-386.34 694.94,-379.55"/>
</g>
<!-- Node15 -->
<g id="node15" class="node">
<title>Node15</title>
<g id="a_node15"><a xlink:href="classpism_1_1diagnostics_1_1scalar_1_1IceMassFluxConservationError.html" target="_top" xlink:title="Reports the total numerical mass flux needed to preserve non&#45;negativity of ice thickness.">
<polygon fill="none" stroke="black" points="757.5,-345 757.5,-386 934.5,-386 934.5,-345 757.5,-345"/>
<text text-anchor="start" x="765.5" y="-374" font-family="Helvetica,sans-Serif" font-size="10.00">pism::diagnostics::</text>
<text text-anchor="start" x="765.5" y="-363" font-family="Helvetica,sans-Serif" font-size="10.00">scalar::IceMassFluxConservation</text>
<text text-anchor="middle" x="846" y="-352" font-family="Helvetica,sans-Serif" font-size="10.00">Error</text>
</a>
</g>
</g>
<!-- Node9&#45;&gt;Node15 -->
<g id="edge14" class="edge">
<title>Node9&#45;&gt;Node15</title>
<path fill="none" stroke="midnightblue" d="M723.51,-365.5C734.75,-365.5 746.14,-365.5 757.21,-365.5"/>
<polygon fill="midnightblue" stroke="midnightblue" points="723.25,-362 713.25,-365.5 723.25,-369 723.25,-362"/>
</g>
<!-- Node16 -->
<g id="node16" class="node">
<title>Node16</title>
<g id="a_node16"><a xlink:href="classpism_1_1diagnostics_1_1scalar_1_1IceMassFluxDischarge.html" target="_top" xlink:title="Reports the total discharge flux.">
<polygon fill="none" stroke="black" points="765.5,-295.5 765.5,-325.5 926.5,-325.5 926.5,-295.5 765.5,-295.5"/>
<text text-anchor="start" x="773.5" y="-313.5" font-family="Helvetica,sans-Serif" font-size="10.00">pism::diagnostics::</text>
<text text-anchor="middle" x="846" y="-302.5" font-family="Helvetica,sans-Serif" font-size="10.00">scalar::IceMassFluxDischarge</text>
</a>
</g>
</g>
<!-- Node9&#45;&gt;Node16 -->
<g id="edge15" class="edge">
<title>Node9&#45;&gt;Node16</title>
<path fill="none" stroke="midnightblue" d="M694.47,-347.96C723.5,-340.74 756.8,-332.45 784.68,-325.51"/>
<polygon fill="midnightblue" stroke="midnightblue" points="693.25,-344.66 684.39,-350.47 694.94,-351.45 693.25,-344.66"/>
</g>
<!-- Node17 -->
<g id="node17" class="node">
<title>Node17</title>
<g id="a_node17"><a xlink:href="classpism_1_1diagnostics_1_1scalar_1_1IceMassFluxSurface.html" target="_top" xlink:title="Reports the total top surface ice flux.">
<polygon fill="none" stroke="black" points="771.5,-246.5 771.5,-276.5 920.5,-276.5 920.5,-246.5 771.5,-246.5"/>
<text text-anchor="start" x="779.5" y="-264.5" font-family="Helvetica,sans-Serif" font-size="10.00">pism::diagnostics::</text>
<text text-anchor="middle" x="846" y="-253.5" font-family="Helvetica,sans-Serif" font-size="10.00">scalar::IceMassFluxSurface</text>
</a>
</g>
</g>
<!-- Node9&#45;&gt;Node17 -->
<g id="edge16" class="edge">
<title>Node9&#45;&gt;Node17</title>
<path fill="none" stroke="midnightblue" d="M651.29,-344.32C675.68,-326.33 713.02,-301.02 749,-285.5 756.89,-282.1 765.36,-279.11 773.88,-276.5"/>
<polygon fill="midnightblue" stroke="midnightblue" points="649.14,-341.56 643.23,-350.35 653.33,-347.17 649.14,-341.56"/>
</g>
<!-- Node18 -->
<g id="node18" class="node">
<title>Node18</title>
<g id="a_node18"><a xlink:href="classpism_1_1diagnostics_1_1scalar_1_1IceMassRateOfChangeDueToFlow.html" target="_top" xlink:title="Computes the rate of change of the total ice mass due to flow (influx due to prescribed constant&#45;in&#45;t...">
<polygon fill="none" stroke="black" points="765,-186 765,-227 927,-227 927,-186 765,-186"/>
<text text-anchor="start" x="773" y="-215" font-family="Helvetica,sans-Serif" font-size="10.00">pism::diagnostics::</text>
<text text-anchor="start" x="773" y="-204" font-family="Helvetica,sans-Serif" font-size="10.00">scalar::IceMassRateOfChange</text>
<text text-anchor="middle" x="846" y="-193" font-family="Helvetica,sans-Serif" font-size="10.00">DueToFlow</text>
</a>
</g>
</g>
<!-- Node9&#45;&gt;Node18 -->
<g id="edge17" class="edge">
<title>Node9&#45;&gt;Node18</title>
<path fill="none" stroke="midnightblue" d="M643.86,-342.41C672.61,-309.46 725.01,-251.27 749,-236.5 754.65,-233.02 760.74,-229.91 767.01,-227.14"/>
<polygon fill="midnightblue" stroke="midnightblue" points="641.01,-340.36 637.09,-350.2 646.29,-344.95 641.01,-340.36"/>
</g>
<!-- Node20 -->
<g id="node20" class="node">
<title>Node20</title>
<g id="a_node20"><a xlink:href="classpism_1_1energy_1_1LiquifiedIceFlux.html" target="_top" xlink:title="Ice loss &quot;flux&quot; due to ice liquefaction.">
<polygon fill="none" stroke="black" points="765,-148 765,-167 927,-167 927,-148 765,-148"/>
<text text-anchor="middle" x="846" y="-155" font-family="Helvetica,sans-Serif" font-size="10.00">pism::energy::LiquifiedIceFlux</text>
</a>
</g>
</g>
<!-- Node19&#45;&gt;Node20 -->
<g id="edge19" class="edge">
<title>Node19&#45;&gt;Node20</title>
<path fill="none" stroke="midnightblue" d="M657.86,-219.26C682.41,-205.39 716.8,-187.57 749,-176.5 760.09,-172.69 772.17,-169.55 783.91,-167"/>
<polygon fill="midnightblue" stroke="midnightblue" points="655.9,-216.35 648.97,-224.36 659.38,-222.42 655.9,-216.35"/>
</g>
<!-- Node22 -->
<g id="node22" class="node">
<title>Node22</title>
<g id="a_node22"><a xlink:href="classpism_1_1surface_1_1diagnostics_1_1TotalSurfaceAccumulation.html" target="_top" xlink:title="Reports the total accumulation rate.">
<polygon fill="none" stroke="black" points="771.5,-98.5 771.5,-128.5 920.5,-128.5 920.5,-98.5 771.5,-98.5"/>
<text text-anchor="start" x="779.5" y="-116.5" font-family="Helvetica,sans-Serif" font-size="10.00">pism::surface::diagnostics</text>
<text text-anchor="middle" x="846" y="-105.5" font-family="Helvetica,sans-Serif" font-size="10.00">::TotalSurfaceAccumulation</text>
</a>
</g>
</g>
<!-- Node21&#45;&gt;Node22 -->
<g id="edge21" class="edge">
<title>Node21&#45;&gt;Node22</title>
<path fill="none" stroke="midnightblue" d="M723.26,-100.28C739.43,-102.04 755.92,-103.83 771.33,-105.5"/>
<polygon fill="midnightblue" stroke="midnightblue" points="723.57,-96.79 713.25,-99.19 722.82,-103.75 723.57,-96.79"/>
</g>
<!-- Node23 -->
<g id="node23" class="node">
<title>Node23</title>
<g id="a_node23"><a xlink:href="classpism_1_1surface_1_1diagnostics_1_1TotalSurfaceMelt.html" target="_top" xlink:title="Reports the total melt rate.">
<polygon fill="none" stroke="black" points="774,-49.5 774,-79.5 918,-79.5 918,-49.5 774,-49.5"/>
<text text-anchor="start" x="782" y="-67.5" font-family="Helvetica,sans-Serif" font-size="10.00">pism::surface::diagnostics</text>
<text text-anchor="middle" x="846" y="-56.5" font-family="Helvetica,sans-Serif" font-size="10.00">::TotalSurfaceMelt</text>
</a>
</g>
</g>
<!-- Node21&#45;&gt;Node23 -->
<g id="edge22" class="edge">
<title>Node21&#45;&gt;Node23</title>
<path fill="none" stroke="midnightblue" d="M723.22,-78.28C740.25,-76.35 757.64,-74.38 773.75,-72.56"/>
<polygon fill="midnightblue" stroke="midnightblue" points="722.8,-74.8 713.25,-79.4 723.58,-81.76 722.8,-74.8"/>
</g>
<!-- Node24 -->
<g id="node24" class="node">
<title>Node24</title>
<g id="a_node24"><a xlink:href="classpism_1_1surface_1_1diagnostics_1_1TotalSurfaceRunoff.html" target="_top" xlink:title="Reports the total top surface ice flux.">
<polygon fill="none" stroke="black" points="774,-0.5 774,-30.5 918,-30.5 918,-0.5 774,-0.5"/>
<text text-anchor="start" x="782" y="-18.5" font-family="Helvetica,sans-Serif" font-size="10.00">pism::surface::diagnostics</text>
<text text-anchor="middle" x="846" y="-7.5" font-family="Helvetica,sans-Serif" font-size="10.00">::TotalSurfaceRunoff</text>
</a>
</g>
</g>
<!-- Node21&#45;&gt;Node24 -->
<g id="edge23" class="edge">
<title>Node21&#45;&gt;Node24</title>
<path fill="none" stroke="midnightblue" d="M667.48,-70.42C691.27,-60.41 721.44,-48.41 749,-39.5 758.89,-36.3 769.47,-33.28 779.85,-30.52"/>
<polygon fill="midnightblue" stroke="midnightblue" points="665.86,-67.3 658.03,-74.43 668.6,-73.75 665.86,-67.3"/>
</g>
</g>
</svg>
