<?xml version="1.0" encoding="UTF-8" standalone="no"?>
<!DOCTYPE svg PUBLIC "-//W3C//DTD SVG 1.1//EN"
 "http://www.w3.org/Graphics/SVG/1.1/DTD/svg11.dtd">
<!-- Generated by graphviz version 2.43.0 (0)
 -->
<!-- Title: pism::diagnostics::DischargeFlux Pages: 1 -->
<svg width="288pt" height="355pt"
 viewBox="0.00 0.00 287.50 355.00" xmlns="http://www.w3.org/2000/svg" xmlns:xlink="http://www.w3.org/1999/xlink">
<g id="graph0" class="graph" transform="scale(1 1) rotate(0) translate(4 351)">
<title>pism::diagnostics::DischargeFlux</title>
<!-- Node1 -->
<g id="node1" class="node">
<title>Node1</title>
<g id="a_node1"><a xlink:title="Report discharge (calving and frontal melt) flux.">
<polygon fill="#bfbfbf" stroke="black" points="43,-0.5 43,-30.5 151,-30.5 151,-0.5 43,-0.5"/>
<text text-anchor="start" x="51" y="-18.5" font-family="Helvetica,sans-Serif" font-size="10.00">pism::diagnostics::</text>
<text text-anchor="middle" x="97" y="-7.5" font-family="Helvetica,sans-Serif" font-size="10.00">DischargeFlux</text>
</a>
</g>
</g>
<!-- Node2 -->
<g id="node2" class="node">
<title>Node2</title>
<g id="a_node2"><a xlink:href="classpism_1_1DiagAverageRate.html" target="_top" xlink:title=" ">
<polygon fill="none" stroke="black" points="31.5,-68.5 31.5,-98.5 162.5,-98.5 162.5,-68.5 31.5,-68.5"/>
<text text-anchor="start" x="39.5" y="-86.5" font-family="Helvetica,sans-Serif" font-size="10.00">pism::DiagAverageRate</text>
<text text-anchor="middle" x="97" y="-75.5" font-family="Helvetica,sans-Serif" font-size="10.00">&lt; IceModel &gt;</text>
</a>
</g>
</g>
<!-- Node2&#45;&gt;Node1 -->
<g id="edge1" class="edge">
<title>Node2&#45;&gt;Node1</title>
<path fill="none" stroke="midnightblue" d="M97,-58.03C97,-48.86 97,-38.74 97,-30.79"/>
<polygon fill="midnightblue" stroke="midnightblue" points="93.5,-58.18 97,-68.18 100.5,-58.18 93.5,-58.18"/>
</g>
<!-- Node3 -->
<g id="node3" class="node">
<title>Node3</title>
<g id="a_node3"><a xlink:href="classpism_1_1Diag.html" target="_top" xlink:title=" ">
<polygon fill="none" stroke="black" points="0,-203.5 0,-222.5 136,-222.5 136,-203.5 0,-203.5"/>
<text text-anchor="middle" x="68" y="-210.5" font-family="Helvetica,sans-Serif" font-size="10.00">pism::Diag&lt; IceModel &gt;</text>
</a>
</g>
</g>
<!-- Node3&#45;&gt;Node2 -->
<g id="edge2" class="edge">
<title>Node3&#45;&gt;Node2</title>
<path fill="none" stroke="midnightblue" d="M72.27,-193.24C78.13,-167.46 88.55,-121.65 93.8,-98.59"/>
<polygon fill="midnightblue" stroke="midnightblue" points="68.8,-192.71 69.99,-203.24 75.62,-194.26 68.8,-192.71"/>
</g>
<!-- Node4 -->
<g id="node4" class="node">
<title>Node4</title>
<g id="a_node4"><a xlink:href="classpism_1_1Diagnostic.html" target="_top" xlink:title="Class representing diagnostic computations in PISM.">
<polygon fill="none" stroke="black" points="91,-327.5 91,-346.5 189,-346.5 189,-327.5 91,-327.5"/>
<text text-anchor="middle" x="140" y="-334.5" font-family="Helvetica,sans-Serif" font-size="10.00">pism::Diagnostic</text>
</a>
</g>
</g>
<!-- Node4&#45;&gt;Node3 -->
<g id="edge3" class="edge">
<title>Node4&#45;&gt;Node3</title>
<path fill="none" stroke="midnightblue" d="M107.63,-323.09C93.47,-315.66 78.24,-304.8 70,-290 57.93,-268.32 62.51,-237.49 65.79,-222.65"/>
<polygon fill="midnightblue" stroke="midnightblue" points="106.17,-326.27 116.69,-327.49 109.23,-319.98 106.17,-326.27"/>
</g>
<!-- Node5 -->
<g id="node5" class="node">
<title>Node5</title>
<g id="a_node5"><a xlink:href="classpism_1_1Diag.html" target="_top" xlink:title="A template derived from Diagnostic, adding a &quot;Model&quot;.">
<polygon fill="none" stroke="black" points="79,-270.5 79,-289.5 201,-289.5 201,-270.5 79,-270.5"/>
<text text-anchor="middle" x="140" y="-277.5" font-family="Helvetica,sans-Serif" font-size="10.00">pism::Diag&lt; Model &gt;</text>
</a>
</g>
</g>
<!-- Node4&#45;&gt;Node5 -->
<g id="edge5" class="edge">
<title>Node4&#45;&gt;Node5</title>
<path fill="none" stroke="midnightblue" d="M140,-317.12C140,-307.82 140,-297.06 140,-289.71"/>
<polygon fill="midnightblue" stroke="midnightblue" points="136.5,-317.41 140,-327.41 143.5,-317.41 136.5,-317.41"/>
</g>
<!-- Node7 -->
<g id="node7" class="node">
<title>Node7</title>
<g id="a_node7"><a xlink:href="classpism_1_1Diag.html" target="_top" xlink:title=" ">
<polygon fill="none" stroke="black" points="154.5,-203.5 154.5,-222.5 255.5,-222.5 255.5,-203.5 154.5,-203.5"/>
<text text-anchor="middle" x="205" y="-210.5" font-family="Helvetica,sans-Serif" font-size="10.00">pism::Diag&lt; M &gt;</text>
</a>
</g>
</g>
<!-- Node4&#45;&gt;Node7 -->
<g id="edge8" class="edge">
<title>Node4&#45;&gt;Node7</title>
<path fill="none" stroke="midnightblue" d="M171.1,-323.01C185.27,-315.47 200.87,-304.55 210,-290 221.63,-271.45 218.86,-262.55 215,-241 213.87,-234.7 211.37,-227.95 209.15,-222.78"/>
<polygon fill="midnightblue" stroke="midnightblue" points="169.49,-319.9 162.08,-327.48 172.6,-326.17 169.49,-319.9"/>
</g>
<!-- Node5&#45;&gt;Node3 -->
<g id="edge4" class="edge">
<title>Node5&#45;&gt;Node3</title>
<path fill="none" stroke="orange" stroke-dasharray="5,2" d="M112.85,-265.18C106.63,-261.36 100.3,-256.91 95,-252 85.62,-243.31 77.53,-230.88 72.72,-222.62"/>
<polygon fill="orange" stroke="orange" points="111.33,-268.34 121.75,-270.29 114.82,-262.27 111.33,-268.34"/>
<text text-anchor="middle" x="130" y="-244" font-family="Helvetica,sans-Serif" font-size="10.00"> &lt; IceModel &gt;</text>
</g>
<!-- Node5&#45;&gt;Node7 -->
<g id="edge9" class="edge">
<title>Node5&#45;&gt;Node7</title>
<path fill="none" stroke="orange" stroke-dasharray="5,2" d="M156,-263C168.75,-250.25 186.11,-232.89 196.37,-222.63"/>
<polygon fill="orange" stroke="orange" points="153.36,-260.69 148.77,-270.23 158.31,-265.64 153.36,-260.69"/>
<text text-anchor="middle" x="194.5" y="-244" font-family="Helvetica,sans-Serif" font-size="10.00"> &lt; M &gt;</text>
</g>
<!-- Node6 -->
<g id="node6" class="node">
<title>Node6</title>
<g id="a_node6"><a xlink:href="classpism_1_1DiagAverageRate.html" target="_top" xlink:title=" ">
<polygon fill="none" stroke="black" points="116.5,-146.5 116.5,-165.5 279.5,-165.5 279.5,-146.5 116.5,-146.5"/>
<text text-anchor="middle" x="198" y="-153.5" font-family="Helvetica,sans-Serif" font-size="10.00">pism::DiagAverageRate&lt; M &gt;</text>
</a>
</g>
</g>
<!-- Node6&#45;&gt;Node2 -->
<g id="edge6" class="edge">
<title>Node6&#45;&gt;Node2</title>
<path fill="none" stroke="orange" stroke-dasharray="5,2" d="M177.18,-140.47C159.59,-128.19 134.56,-110.72 117.17,-98.58"/>
<polygon fill="orange" stroke="orange" points="175.41,-143.5 185.62,-146.36 179.42,-137.76 175.41,-143.5"/>
<text text-anchor="middle" x="192" y="-120" font-family="Helvetica,sans-Serif" font-size="10.00"> &lt; IceModel &gt;</text>
</g>
<!-- Node7&#45;&gt;Node6 -->
<g id="edge7" class="edge">
<title>Node7&#45;&gt;Node6</title>
<path fill="none" stroke="midnightblue" d="M202.64,-193.42C201.44,-184.05 200.05,-173.14 199.11,-165.71"/>
<polygon fill="midnightblue" stroke="midnightblue" points="199.17,-193.93 203.91,-203.41 206.12,-193.04 199.17,-193.93"/>
</g>
</g>
</svg>
