<?xml version="1.0" encoding="UTF-8" standalone="no"?>
<!DOCTYPE svg PUBLIC "-//W3C//DTD SVG 1.1//EN"
 "http://www.w3.org/Graphics/SVG/1.1/DTD/svg11.dtd">
<!-- Generated by graphviz version 2.43.0 (0)
 -->
<!-- Title: pism::TSSnapshotDiagnostic Pages: 1 -->
<svg width="709pt" height="1159pt"
 viewBox="0.00 0.00 709.00 1159.00" xmlns="http://www.w3.org/2000/svg" xmlns:xlink="http://www.w3.org/1999/xlink">
<g id="graph0" class="graph" transform="scale(1 1) rotate(0) translate(4 1155)">
<title>pism::TSSnapshotDiagnostic</title>
<!-- Node1 -->
<g id="node1" class="node">
<title>Node1</title>
<g id="a_node1"><a xlink:title="Scalar diagnostic reporting a snapshot of a quantity modeled by PISM.">
<polygon fill="#bfbfbf" stroke="black" points="146,-554 146,-573 301,-573 301,-554 146,-554"/>
<text text-anchor="middle" x="223.5" y="-561" font-family="Helvetica,sans-Serif" font-size="10.00">pism::TSSnapshotDiagnostic</text>
</a>
</g>
</g>
<!-- Node3 -->
<g id="node3" class="node">
<title>Node3</title>
<g id="a_node3"><a xlink:href="classpism_1_1TSDiag.html" target="_top" xlink:title=" ">
<polygon fill="none" stroke="black" points="337,-548.5 337,-578.5 486,-578.5 486,-548.5 337,-548.5"/>
<text text-anchor="start" x="345" y="-566.5" font-family="Helvetica,sans-Serif" font-size="10.00">pism::TSDiag&lt; TSSnapshot</text>
<text text-anchor="middle" x="411.5" y="-555.5" font-family="Helvetica,sans-Serif" font-size="10.00">Diagnostic, IceModel &gt;</text>
</a>
</g>
</g>
<!-- Node1&#45;&gt;Node3 -->
<g id="edge2" class="edge">
<title>Node1&#45;&gt;Node3</title>
<path fill="none" stroke="midnightblue" d="M311.26,-563.5C319.85,-563.5 328.51,-563.5 336.94,-563.5"/>
<polygon fill="midnightblue" stroke="midnightblue" points="311.23,-560 301.23,-563.5 311.23,-567 311.23,-560"/>
</g>
<!-- Node2 -->
<g id="node2" class="node">
<title>Node2</title>
<g id="a_node2"><a xlink:href="classpism_1_1TSDiagnostic.html" target="_top" xlink:title="PISM&#39;s scalar time&#45;series diagnostics.">
<polygon fill="none" stroke="black" points="0,-554 0,-573 110,-573 110,-554 0,-554"/>
<text text-anchor="middle" x="55" y="-561" font-family="Helvetica,sans-Serif" font-size="10.00">pism::TSDiagnostic</text>
</a>
</g>
</g>
<!-- Node2&#45;&gt;Node1 -->
<g id="edge1" class="edge">
<title>Node2&#45;&gt;Node1</title>
<path fill="none" stroke="midnightblue" d="M120.12,-563.5C128.51,-563.5 137.16,-563.5 145.73,-563.5"/>
<polygon fill="midnightblue" stroke="midnightblue" points="120.06,-560 110.06,-563.5 120.06,-567 120.06,-560"/>
</g>
<!-- Node4 -->
<g id="node4" class="node">
<title>Node4</title>
<g id="a_node4"><a xlink:href="classpism_1_1diagnostics_1_1scalar_1_1IceAreaGlacierized.html" target="_top" xlink:title="Computes the total ice area.">
<polygon fill="none" stroke="black" points="540,-1120.5 540,-1150.5 683,-1150.5 683,-1120.5 540,-1120.5"/>
<text text-anchor="start" x="548" y="-1138.5" font-family="Helvetica,sans-Serif" font-size="10.00">pism::diagnostics::</text>
<text text-anchor="middle" x="611.5" y="-1127.5" font-family="Helvetica,sans-Serif" font-size="10.00">scalar::IceAreaGlacierized</text>
</a>
</g>
</g>
<!-- Node3&#45;&gt;Node4 -->
<g id="edge3" class="edge">
<title>Node3&#45;&gt;Node4</title>
<path fill="none" stroke="midnightblue" d="M414.12,-588.56C420.84,-685.23 449.73,-1032.38 522,-1110.5 526.99,-1115.89 533.04,-1120.15 539.61,-1123.51"/>
<polygon fill="midnightblue" stroke="midnightblue" points="417.6,-588.27 413.44,-578.53 410.62,-588.74 417.6,-588.27"/>
</g>
<!-- Node5 -->
<g id="node5" class="node">
<title>Node5</title>
<g id="a_node5"><a xlink:href="classpism_1_1diagnostics_1_1scalar_1_1IceAreaGlacierizedColdBase.html" target="_top" xlink:title="Computes the total area of the cold ice.">
<polygon fill="none" stroke="black" points="540,-1060 540,-1101 683,-1101 683,-1060 540,-1060"/>
<text text-anchor="start" x="548" y="-1089" font-family="Helvetica,sans-Serif" font-size="10.00">pism::diagnostics::</text>
<text text-anchor="start" x="548" y="-1078" font-family="Helvetica,sans-Serif" font-size="10.00">scalar::IceAreaGlacierized</text>
<text text-anchor="middle" x="611.5" y="-1067" font-family="Helvetica,sans-Serif" font-size="10.00">ColdBase</text>
</a>
</g>
</g>
<!-- Node3&#45;&gt;Node5 -->
<g id="edge4" class="edge">
<title>Node3&#45;&gt;Node5</title>
<path fill="none" stroke="midnightblue" d="M414.92,-588.56C424.02,-678.08 458.99,-980.46 522,-1050.5 526.99,-1056.05 533.05,-1060.57 539.62,-1064.26"/>
<polygon fill="midnightblue" stroke="midnightblue" points="418.39,-588.11 413.91,-578.5 411.42,-588.8 418.39,-588.11"/>
</g>
<!-- Node6 -->
<g id="node6" class="node">
<title>Node6</title>
<g id="a_node6"><a xlink:href="classpism_1_1diagnostics_1_1scalar_1_1IceAreaGlacierizedGrounded.html" target="_top" xlink:title="Computes the total grounded ice area.">
<polygon fill="none" stroke="black" points="540,-1000 540,-1041 683,-1041 683,-1000 540,-1000"/>
<text text-anchor="start" x="548" y="-1029" font-family="Helvetica,sans-Serif" font-size="10.00">pism::diagnostics::</text>
<text text-anchor="start" x="548" y="-1018" font-family="Helvetica,sans-Serif" font-size="10.00">scalar::IceAreaGlacierized</text>
<text text-anchor="middle" x="611.5" y="-1007" font-family="Helvetica,sans-Serif" font-size="10.00">Grounded</text>
</a>
</g>
</g>
<!-- Node3&#45;&gt;Node6 -->
<g id="edge5" class="edge">
<title>Node3&#45;&gt;Node6</title>
<path fill="none" stroke="midnightblue" d="M415.82,-588.92C427.08,-671.51 466.23,-930.34 522,-990.5 527.07,-995.97 533.18,-1000.45 539.79,-1004.11"/>
<polygon fill="midnightblue" stroke="midnightblue" points="419.27,-588.35 414.47,-578.9 412.34,-589.28 419.27,-588.35"/>
</g>
<!-- Node7 -->
<g id="node7" class="node">
<title>Node7</title>
<g id="a_node7"><a xlink:href="classpism_1_1diagnostics_1_1scalar_1_1IceAreaGlacierizedShelf.html" target="_top" xlink:title="Computes the total floating ice area.">
<polygon fill="none" stroke="black" points="540,-940 540,-981 683,-981 683,-940 540,-940"/>
<text text-anchor="start" x="548" y="-969" font-family="Helvetica,sans-Serif" font-size="10.00">pism::diagnostics::</text>
<text text-anchor="start" x="548" y="-958" font-family="Helvetica,sans-Serif" font-size="10.00">scalar::IceAreaGlacierized</text>
<text text-anchor="middle" x="611.5" y="-947" font-family="Helvetica,sans-Serif" font-size="10.00">Shelf</text>
</a>
</g>
</g>
<!-- Node3&#45;&gt;Node7 -->
<g id="edge6" class="edge">
<title>Node3&#45;&gt;Node7</title>
<path fill="none" stroke="midnightblue" d="M412.53,-589.12C414.02,-655.01 427.13,-832.07 522,-930.5 527.07,-935.76 533.09,-940.09 539.57,-943.67"/>
<polygon fill="midnightblue" stroke="midnightblue" points="416.03,-588.79 412.38,-578.84 409.03,-588.89 416.03,-588.79"/>
</g>
<!-- Node8 -->
<g id="node8" class="node">
<title>Node8</title>
<g id="a_node8"><a xlink:href="classpism_1_1diagnostics_1_1scalar_1_1IceAreaGlacierizedTemperateBase.html" target="_top" xlink:title="Computes the total area of the temperate ice.">
<polygon fill="none" stroke="black" points="540,-880 540,-921 683,-921 683,-880 540,-880"/>
<text text-anchor="start" x="548" y="-909" font-family="Helvetica,sans-Serif" font-size="10.00">pism::diagnostics::</text>
<text text-anchor="start" x="548" y="-898" font-family="Helvetica,sans-Serif" font-size="10.00">scalar::IceAreaGlacierized</text>
<text text-anchor="middle" x="611.5" y="-887" font-family="Helvetica,sans-Serif" font-size="10.00">TemperateBase</text>
</a>
</g>
</g>
<!-- Node3&#45;&gt;Node8 -->
<g id="edge7" class="edge">
<title>Node3&#45;&gt;Node8</title>
<path fill="none" stroke="midnightblue" d="M414.26,-588.84C419.66,-646.9 440.92,-790.69 522,-870.5 527.2,-875.62 533.31,-879.87 539.85,-883.39"/>
<polygon fill="midnightblue" stroke="midnightblue" points="417.74,-588.39 413.41,-578.72 410.76,-588.98 417.74,-588.39"/>
</g>
<!-- Node9 -->
<g id="node9" class="node">
<title>Node9</title>
<g id="a_node9"><a xlink:href="classpism_1_1diagnostics_1_1scalar_1_1IceEnthalpy.html" target="_top" xlink:title="Computes the total ice enthalpy.">
<polygon fill="none" stroke="black" points="557,-830.5 557,-860.5 666,-860.5 666,-830.5 557,-830.5"/>
<text text-anchor="start" x="565" y="-848.5" font-family="Helvetica,sans-Serif" font-size="10.00">pism::diagnostics::</text>
<text text-anchor="middle" x="611.5" y="-837.5" font-family="Helvetica,sans-Serif" font-size="10.00">scalar::IceEnthalpy</text>
</a>
</g>
</g>
<!-- Node3&#45;&gt;Node9 -->
<g id="edge8" class="edge">
<title>Node3&#45;&gt;Node9</title>
<path fill="none" stroke="midnightblue" d="M415.81,-588.63C423.98,-640.26 449.93,-758.65 522,-821.5 531.72,-829.97 544.15,-835.49 556.6,-839.07"/>
<polygon fill="midnightblue" stroke="midnightblue" points="419.27,-588.05 414.33,-578.67 412.34,-589.08 419.27,-588.05"/>
</g>
<!-- Node10 -->
<g id="node10" class="node">
<title>Node10</title>
<g id="a_node10"><a xlink:href="classpism_1_1diagnostics_1_1scalar_1_1IceEnthalpyGlacierized.html" target="_top" xlink:title="Computes the total ice enthalpy in glacierized areas.">
<polygon fill="none" stroke="black" points="529.5,-781.5 529.5,-811.5 693.5,-811.5 693.5,-781.5 529.5,-781.5"/>
<text text-anchor="start" x="537.5" y="-799.5" font-family="Helvetica,sans-Serif" font-size="10.00">pism::diagnostics::</text>
<text text-anchor="middle" x="611.5" y="-788.5" font-family="Helvetica,sans-Serif" font-size="10.00">scalar::IceEnthalpyGlacierized</text>
</a>
</g>
</g>
<!-- Node3&#45;&gt;Node10 -->
<g id="edge9" class="edge">
<title>Node3&#45;&gt;Node10</title>
<path fill="none" stroke="midnightblue" d="M418.51,-588.4C430.44,-632.4 461.36,-723.81 522,-772.5 526.22,-775.89 530.88,-778.8 535.79,-781.3"/>
<polygon fill="midnightblue" stroke="midnightblue" points="421.85,-587.33 415.94,-578.54 415.07,-589.1 421.85,-587.33"/>
</g>
<!-- Node11 -->
<g id="node11" class="node">
<title>Node11</title>
<g id="a_node11"><a xlink:href="classpism_1_1diagnostics_1_1scalar_1_1IceMass.html" target="_top" xlink:title="Computes the total ice mass.">
<polygon fill="none" stroke="black" points="557.5,-732.5 557.5,-762.5 665.5,-762.5 665.5,-732.5 557.5,-732.5"/>
<text text-anchor="start" x="565.5" y="-750.5" font-family="Helvetica,sans-Serif" font-size="10.00">pism::diagnostics::</text>
<text text-anchor="middle" x="611.5" y="-739.5" font-family="Helvetica,sans-Serif" font-size="10.00">scalar::IceMass</text>
</a>
</g>
</g>
<!-- Node3&#45;&gt;Node11 -->
<g id="edge10" class="edge">
<title>Node3&#45;&gt;Node11</title>
<path fill="none" stroke="midnightblue" d="M422.85,-588.57C438.8,-624.07 472.8,-688.54 522,-723.5 532.38,-730.88 544.92,-735.99 557.25,-739.53"/>
<polygon fill="midnightblue" stroke="midnightblue" points="425.86,-586.72 418.65,-578.96 419.45,-589.52 425.86,-586.72"/>
</g>
<!-- Node12 -->
<g id="node12" class="node">
<title>Node12</title>
<g id="a_node12"><a xlink:href="classpism_1_1diagnostics_1_1scalar_1_1IceMassGlacierized.html" target="_top" xlink:title="Computes the total ice mass in glacierized areas.">
<polygon fill="none" stroke="black" points="538.5,-683.5 538.5,-713.5 684.5,-713.5 684.5,-683.5 538.5,-683.5"/>
<text text-anchor="start" x="546.5" y="-701.5" font-family="Helvetica,sans-Serif" font-size="10.00">pism::diagnostics::</text>
<text text-anchor="middle" x="611.5" y="-690.5" font-family="Helvetica,sans-Serif" font-size="10.00">scalar::IceMassGlacierized</text>
</a>
</g>
</g>
<!-- Node3&#45;&gt;Node12 -->
<g id="edge11" class="edge">
<title>Node3&#45;&gt;Node12</title>
<path fill="none" stroke="midnightblue" d="M429.79,-586.96C449.43,-611.98 483.77,-651.02 522,-673.5 528.61,-677.38 535.85,-680.69 543.25,-683.5"/>
<polygon fill="midnightblue" stroke="midnightblue" points="432.34,-584.54 423.47,-578.75 426.79,-588.81 432.34,-584.54"/>
</g>
<!-- Node13 -->
<g id="node13" class="node">
<title>Node13</title>
<g id="a_node13"><a xlink:href="classpism_1_1diagnostics_1_1scalar_1_1IceMassNotDisplacingSeaWater.html" target="_top" xlink:title="Computes the total mass of the ice not displacing sea water.">
<polygon fill="none" stroke="black" points="531.5,-623 531.5,-664 691.5,-664 691.5,-623 531.5,-623"/>
<text text-anchor="start" x="539.5" y="-652" font-family="Helvetica,sans-Serif" font-size="10.00">pism::diagnostics::</text>
<text text-anchor="start" x="539.5" y="-641" font-family="Helvetica,sans-Serif" font-size="10.00">scalar::IceMassNotDisplacing</text>
<text text-anchor="middle" x="611.5" y="-630" font-family="Helvetica,sans-Serif" font-size="10.00">SeaWater</text>
</a>
</g>
</g>
<!-- Node3&#45;&gt;Node13 -->
<g id="edge12" class="edge">
<title>Node3&#45;&gt;Node13</title>
<path fill="none" stroke="midnightblue" d="M452.36,-582.88C472.94,-592.59 498.58,-604.21 522,-613.5 530.14,-616.73 538.79,-619.93 547.36,-622.97"/>
<polygon fill="midnightblue" stroke="midnightblue" points="453.82,-579.7 443.29,-578.57 450.82,-586.03 453.82,-579.7"/>
</g>
<!-- Node14 -->
<g id="node14" class="node">
<title>Node14</title>
<g id="a_node14"><a xlink:href="classpism_1_1diagnostics_1_1scalar_1_1IceVolume.html" target="_top" xlink:title="Computes the total ice volume.">
<polygon fill="none" stroke="black" points="557.5,-573.5 557.5,-603.5 665.5,-603.5 665.5,-573.5 557.5,-573.5"/>
<text text-anchor="start" x="565.5" y="-591.5" font-family="Helvetica,sans-Serif" font-size="10.00">pism::diagnostics::</text>
<text text-anchor="middle" x="611.5" y="-580.5" font-family="Helvetica,sans-Serif" font-size="10.00">scalar::IceVolume</text>
</a>
</g>
</g>
<!-- Node3&#45;&gt;Node14 -->
<g id="edge13" class="edge">
<title>Node3&#45;&gt;Node14</title>
<path fill="none" stroke="midnightblue" d="M496.31,-574.08C517.02,-576.7 538.64,-579.43 557.43,-581.8"/>
<polygon fill="midnightblue" stroke="midnightblue" points="496.59,-570.59 486.23,-572.81 495.71,-577.53 496.59,-570.59"/>
</g>
<!-- Node15 -->
<g id="node15" class="node">
<title>Node15</title>
<g id="a_node15"><a xlink:href="classpism_1_1diagnostics_1_1scalar_1_1IceVolumeCold.html" target="_top" xlink:title="Computes the total volume of the cold ice.">
<polygon fill="none" stroke="black" points="549,-524.5 549,-554.5 674,-554.5 674,-524.5 549,-524.5"/>
<text text-anchor="start" x="557" y="-542.5" font-family="Helvetica,sans-Serif" font-size="10.00">pism::diagnostics::</text>
<text text-anchor="middle" x="611.5" y="-531.5" font-family="Helvetica,sans-Serif" font-size="10.00">scalar::IceVolumeCold</text>
</a>
</g>
</g>
<!-- Node3&#45;&gt;Node15 -->
<g id="edge14" class="edge">
<title>Node3&#45;&gt;Node15</title>
<path fill="none" stroke="midnightblue" d="M496.46,-553.32C513.98,-551.2 532.16,-549 548.7,-546.99"/>
<polygon fill="midnightblue" stroke="midnightblue" points="495.73,-549.89 486.23,-554.56 496.58,-556.83 495.73,-549.89"/>
</g>
<!-- Node16 -->
<g id="node16" class="node">
<title>Node16</title>
<g id="a_node16"><a xlink:href="classpism_1_1diagnostics_1_1scalar_1_1IceVolumeGlacierized.html" target="_top" xlink:title="Computes the total ice volume in glacierized areas.">
<polygon fill="none" stroke="black" points="532.5,-475.5 532.5,-505.5 690.5,-505.5 690.5,-475.5 532.5,-475.5"/>
<text text-anchor="start" x="540.5" y="-493.5" font-family="Helvetica,sans-Serif" font-size="10.00">pism::diagnostics::</text>
<text text-anchor="middle" x="611.5" y="-482.5" font-family="Helvetica,sans-Serif" font-size="10.00">scalar::IceVolumeGlacierized</text>
</a>
</g>
</g>
<!-- Node3&#45;&gt;Node16 -->
<g id="edge15" class="edge">
<title>Node3&#45;&gt;Node16</title>
<path fill="none" stroke="midnightblue" d="M451.73,-544.16C472.33,-534.46 498.19,-523 522,-514.5 531,-511.29 540.64,-508.27 550.13,-505.52"/>
<polygon fill="midnightblue" stroke="midnightblue" points="450.18,-541.02 442.66,-548.47 453.19,-547.34 450.18,-541.02"/>
</g>
<!-- Node17 -->
<g id="node17" class="node">
<title>Node17</title>
<g id="a_node17"><a xlink:href="classpism_1_1diagnostics_1_1scalar_1_1IceVolumeGlacierizedCold.html" target="_top" xlink:title="Computes the total volume of the cold ice in glacierized areas.">
<polygon fill="none" stroke="black" points="522,-426.5 522,-456.5 701,-456.5 701,-426.5 522,-426.5"/>
<text text-anchor="start" x="530" y="-444.5" font-family="Helvetica,sans-Serif" font-size="10.00">pism::diagnostics::</text>
<text text-anchor="middle" x="611.5" y="-433.5" font-family="Helvetica,sans-Serif" font-size="10.00">scalar::IceVolumeGlacierizedCold</text>
</a>
</g>
</g>
<!-- Node3&#45;&gt;Node17 -->
<g id="edge16" class="edge">
<title>Node3&#45;&gt;Node17</title>
<path fill="none" stroke="midnightblue" d="M432.23,-540.47C452.57,-518.15 486.26,-484.91 522,-465.5 528.3,-462.08 535.11,-459.12 542.07,-456.57"/>
<polygon fill="midnightblue" stroke="midnightblue" points="429.42,-538.36 425.37,-548.15 434.64,-543.03 429.42,-538.36"/>
</g>
<!-- Node18 -->
<g id="node18" class="node">
<title>Node18</title>
<g id="a_node18"><a xlink:href="classpism_1_1diagnostics_1_1scalar_1_1IceVolumeGlacierizedGrounded.html" target="_top" xlink:title="Computes the total grounded ice volume.">
<polygon fill="none" stroke="black" points="532.5,-366 532.5,-407 690.5,-407 690.5,-366 532.5,-366"/>
<text text-anchor="start" x="540.5" y="-395" font-family="Helvetica,sans-Serif" font-size="10.00">pism::diagnostics::</text>
<text text-anchor="start" x="540.5" y="-384" font-family="Helvetica,sans-Serif" font-size="10.00">scalar::IceVolumeGlacierized</text>
<text text-anchor="middle" x="611.5" y="-373" font-family="Helvetica,sans-Serif" font-size="10.00">Grounded</text>
</a>
</g>
</g>
<!-- Node3&#45;&gt;Node18 -->
<g id="edge17" class="edge">
<title>Node3&#45;&gt;Node18</title>
<path fill="none" stroke="midnightblue" d="M424.68,-538.95C442.01,-506.45 476.75,-449.4 522,-416.5 526.85,-412.97 532.16,-409.83 537.67,-407.05"/>
<polygon fill="midnightblue" stroke="midnightblue" points="421.38,-537.71 419.87,-548.2 427.59,-540.94 421.38,-537.71"/>
</g>
<!-- Node19 -->
<g id="node19" class="node">
<title>Node19</title>
<g id="a_node19"><a xlink:href="classpism_1_1diagnostics_1_1scalar_1_1IceVolumeGlacierizedShelf.html" target="_top" xlink:title="Computes the total floating ice volume.">
<polygon fill="none" stroke="black" points="532.5,-306 532.5,-347 690.5,-347 690.5,-306 532.5,-306"/>
<text text-anchor="start" x="540.5" y="-335" font-family="Helvetica,sans-Serif" font-size="10.00">pism::diagnostics::</text>
<text text-anchor="start" x="540.5" y="-324" font-family="Helvetica,sans-Serif" font-size="10.00">scalar::IceVolumeGlacierized</text>
<text text-anchor="middle" x="611.5" y="-313" font-family="Helvetica,sans-Serif" font-size="10.00">Shelf</text>
</a>
</g>
</g>
<!-- Node3&#45;&gt;Node19 -->
<g id="edge18" class="edge">
<title>Node3&#45;&gt;Node19</title>
<path fill="none" stroke="midnightblue" d="M419.07,-538.57C431.72,-495.34 463.53,-406.31 522,-356.5 526.08,-353.03 530.57,-349.95 535.31,-347.23"/>
<polygon fill="midnightblue" stroke="midnightblue" points="415.68,-537.71 416.33,-548.28 422.41,-539.61 415.68,-537.71"/>
</g>
<!-- Node20 -->
<g id="node20" class="node">
<title>Node20</title>
<g id="a_node20"><a xlink:href="classpism_1_1diagnostics_1_1scalar_1_1IceVolumeGlacierizedTemperate.html" target="_top" xlink:title="Computes the total volume of the temperate ice in glacierized areas.">
<polygon fill="none" stroke="black" points="532.5,-246 532.5,-287 690.5,-287 690.5,-246 532.5,-246"/>
<text text-anchor="start" x="540.5" y="-275" font-family="Helvetica,sans-Serif" font-size="10.00">pism::diagnostics::</text>
<text text-anchor="start" x="540.5" y="-264" font-family="Helvetica,sans-Serif" font-size="10.00">scalar::IceVolumeGlacierized</text>
<text text-anchor="middle" x="611.5" y="-253" font-family="Helvetica,sans-Serif" font-size="10.00">Temperate</text>
</a>
</g>
</g>
<!-- Node3&#45;&gt;Node20 -->
<g id="edge19" class="edge">
<title>Node3&#45;&gt;Node20</title>
<path fill="none" stroke="midnightblue" d="M415.81,-538.25C424,-485.75 450.07,-364.08 522,-296.5 525.78,-292.95 530,-289.81 534.49,-287.05"/>
<polygon fill="midnightblue" stroke="midnightblue" points="412.31,-537.96 414.32,-548.36 419.24,-538.98 412.31,-537.96"/>
</g>
<!-- Node21 -->
<g id="node21" class="node">
<title>Node21</title>
<g id="a_node21"><a xlink:href="classpism_1_1diagnostics_1_1scalar_1_1IceVolumeTemperate.html" target="_top" xlink:title="Computes the total volume of the temperate ice.">
<polygon fill="none" stroke="black" points="534,-196.5 534,-226.5 689,-226.5 689,-196.5 534,-196.5"/>
<text text-anchor="start" x="542" y="-214.5" font-family="Helvetica,sans-Serif" font-size="10.00">pism::diagnostics::</text>
<text text-anchor="middle" x="611.5" y="-203.5" font-family="Helvetica,sans-Serif" font-size="10.00">scalar::IceVolumeTemperate</text>
</a>
</g>
</g>
<!-- Node3&#45;&gt;Node21 -->
<g id="edge20" class="edge">
<title>Node3&#45;&gt;Node21</title>
<path fill="none" stroke="midnightblue" d="M413.33,-537.92C416.74,-476.64 434.09,-320.31 522,-236.5 526.04,-232.64 530.64,-229.38 535.55,-226.61"/>
<polygon fill="midnightblue" stroke="midnightblue" points="409.82,-538.07 412.84,-548.22 416.81,-538.4 409.82,-538.07"/>
</g>
<!-- Node22 -->
<g id="node22" class="node">
<title>Node22</title>
<g id="a_node22"><a xlink:href="classpism_1_1diagnostics_1_1scalar_1_1MaxDiffusivity.html" target="_top" xlink:title="Reports maximum diffusivity.">
<polygon fill="none" stroke="black" points="550,-147.5 550,-177.5 673,-177.5 673,-147.5 550,-147.5"/>
<text text-anchor="start" x="558" y="-165.5" font-family="Helvetica,sans-Serif" font-size="10.00">pism::diagnostics::</text>
<text text-anchor="middle" x="611.5" y="-154.5" font-family="Helvetica,sans-Serif" font-size="10.00">scalar::MaxDiffusivity</text>
</a>
</g>
</g>
<!-- Node3&#45;&gt;Node22 -->
<g id="edge21" class="edge">
<title>Node3&#45;&gt;Node22</title>
<path fill="none" stroke="midnightblue" d="M411.94,-538.2C411.88,-470.8 421.36,-285.36 522,-186.5 529.72,-178.91 539.59,-173.66 549.91,-170.05"/>
<polygon fill="midnightblue" stroke="midnightblue" points="408.44,-538.35 412.02,-548.32 415.44,-538.29 408.44,-538.35"/>
</g>
<!-- Node23 -->
<g id="node23" class="node">
<title>Node23</title>
<g id="a_node23"><a xlink:href="classpism_1_1diagnostics_1_1scalar_1_1MaxHorizontalVelocity.html" target="_top" xlink:title="Reports the maximum horizontal absolute velocity component over the grid.">
<polygon fill="none" stroke="black" points="530.5,-98.5 530.5,-128.5 692.5,-128.5 692.5,-98.5 530.5,-98.5"/>
<text text-anchor="start" x="538.5" y="-116.5" font-family="Helvetica,sans-Serif" font-size="10.00">pism::diagnostics::</text>
<text text-anchor="middle" x="611.5" y="-105.5" font-family="Helvetica,sans-Serif" font-size="10.00">scalar::MaxHorizontalVelocity</text>
</a>
</g>
</g>
<!-- Node3&#45;&gt;Node23 -->
<g id="edge22" class="edge">
<title>Node3&#45;&gt;Node23</title>
<path fill="none" stroke="midnightblue" d="M415.68,-538C426.52,-455.17 464.51,-195.76 522,-137.5 525.35,-134.1 529.14,-131.17 533.2,-128.64"/>
<polygon fill="midnightblue" stroke="midnightblue" points="412.19,-537.68 414.39,-548.05 419.14,-538.58 412.19,-537.68"/>
</g>
<!-- Node24 -->
<g id="node24" class="node">
<title>Node24</title>
<g id="a_node24"><a xlink:href="classpism_1_1diagnostics_1_1scalar_1_1SeaLevelRisePotential.html" target="_top" xlink:title="Computes the total ice volume which is relevant for sea&#45;level.">
<polygon fill="none" stroke="black" points="531,-49.5 531,-79.5 692,-79.5 692,-49.5 531,-49.5"/>
<text text-anchor="start" x="539" y="-67.5" font-family="Helvetica,sans-Serif" font-size="10.00">pism::diagnostics::</text>
<text text-anchor="middle" x="611.5" y="-56.5" font-family="Helvetica,sans-Serif" font-size="10.00">scalar::SeaLevelRisePotential</text>
</a>
</g>
</g>
<!-- Node3&#45;&gt;Node24 -->
<g id="edge23" class="edge">
<title>Node3&#45;&gt;Node24</title>
<path fill="none" stroke="midnightblue" d="M414.92,-538.33C423.94,-449.82 458.34,-154.64 522,-88.5 525.31,-85.06 529.06,-82.09 533.1,-79.54"/>
<polygon fill="midnightblue" stroke="midnightblue" points="411.44,-538 413.93,-548.3 418.4,-538.7 411.44,-538"/>
</g>
<!-- Node25 -->
<g id="node25" class="node">
<title>Node25</title>
<g id="a_node25"><a xlink:href="classpism_1_1diagnostics_1_1scalar_1_1TimeStepLength.html" target="_top" xlink:title="Reports the mass continuity time step.">
<polygon fill="none" stroke="black" points="546,-0.5 546,-30.5 677,-30.5 677,-0.5 546,-0.5"/>
<text text-anchor="start" x="554" y="-18.5" font-family="Helvetica,sans-Serif" font-size="10.00">pism::diagnostics::</text>
<text text-anchor="middle" x="611.5" y="-7.5" font-family="Helvetica,sans-Serif" font-size="10.00">scalar::TimeStepLength</text>
</a>
</g>
</g>
<!-- Node3&#45;&gt;Node25 -->
<g id="edge24" class="edge">
<title>Node3&#45;&gt;Node25</title>
<path fill="none" stroke="midnightblue" d="M414.34,-538.25C421.73,-443.88 452.24,-113.49 522,-39.5 528.55,-32.55 536.9,-27.54 545.83,-23.94"/>
<polygon fill="midnightblue" stroke="midnightblue" points="410.85,-538.08 413.57,-548.32 417.82,-538.62 410.85,-538.08"/>
</g>
</g>
</svg>
