<?xml version="1.0" encoding="UTF-8" standalone="no"?>
<!DOCTYPE svg PUBLIC "-//W3C//DTD SVG 1.1//EN"
 "http://www.w3.org/Graphics/SVG/1.1/DTD/svg11.dtd">
<!-- Generated by graphviz version 2.43.0 (0)
 -->
<!-- Title: pism::stressbalance::SSA_taud Pages: 1 -->
<svg width="199pt" height="220pt"
 viewBox="0.00 0.00 199.00 220.00" xmlns="http://www.w3.org/2000/svg" xmlns:xlink="http://www.w3.org/1999/xlink">
<g id="graph0" class="graph" transform="scale(1 1) rotate(0) translate(4 216)">
<title>pism::stressbalance::SSA_taud</title>
<!-- Node1 -->
<g id="node1" class="node">
<title>Node1</title>
<g id="a_node1"><a xlink:title="Computes the driving shear stress at the base of ice (diagnostically).">
<polygon fill="#bfbfbf" stroke="black" points="0,-0.5 0,-30.5 114,-30.5 114,-0.5 0,-0.5"/>
<text text-anchor="start" x="8" y="-18.5" font-family="Helvetica,sans-Serif" font-size="10.00">pism::stressbalance</text>
<text text-anchor="middle" x="57" y="-7.5" font-family="Helvetica,sans-Serif" font-size="10.00">::SSA_taud</text>
</a>
</g>
</g>
<!-- Node2 -->
<g id="node2" class="node">
<title>Node2</title>
<g id="a_node2"><a xlink:href="classpism_1_1Diag.html" target="_top" xlink:title=" ">
<polygon fill="none" stroke="black" points="1.5,-68.5 1.5,-87.5 112.5,-87.5 112.5,-68.5 1.5,-68.5"/>
<text text-anchor="middle" x="57" y="-75.5" font-family="Helvetica,sans-Serif" font-size="10.00">pism::Diag&lt; SSA &gt;</text>
</a>
</g>
</g>
<!-- Node2&#45;&gt;Node1 -->
<g id="edge1" class="edge">
<title>Node2&#45;&gt;Node1</title>
<path fill="none" stroke="midnightblue" d="M57,-58.22C57,-49.36 57,-38.96 57,-30.76"/>
<polygon fill="midnightblue" stroke="midnightblue" points="53.5,-58.33 57,-68.33 60.5,-58.33 53.5,-58.33"/>
</g>
<!-- Node3 -->
<g id="node3" class="node">
<title>Node3</title>
<g id="a_node3"><a xlink:href="classpism_1_1Diagnostic.html" target="_top" xlink:title="Class representing diagnostic computations in PISM.">
<polygon fill="none" stroke="black" points="4,-192.5 4,-211.5 102,-211.5 102,-192.5 4,-192.5"/>
<text text-anchor="middle" x="53" y="-199.5" font-family="Helvetica,sans-Serif" font-size="10.00">pism::Diagnostic</text>
</a>
</g>
</g>
<!-- Node3&#45;&gt;Node2 -->
<g id="edge2" class="edge">
<title>Node3&#45;&gt;Node2</title>
<path fill="none" stroke="midnightblue" d="M53.62,-182.19C54.5,-155.4 56.07,-107.31 56.71,-87.69"/>
<polygon fill="midnightblue" stroke="midnightblue" points="50.12,-182.12 53.29,-192.23 57.11,-182.35 50.12,-182.12"/>
</g>
<!-- Node4 -->
<g id="node4" class="node">
<title>Node4</title>
<g id="a_node4"><a xlink:href="classpism_1_1Diag.html" target="_top" xlink:title="A template derived from Diagnostic, adding a &quot;Model&quot;.">
<polygon fill="none" stroke="black" points="69,-135.5 69,-154.5 191,-154.5 191,-135.5 69,-135.5"/>
<text text-anchor="middle" x="130" y="-142.5" font-family="Helvetica,sans-Serif" font-size="10.00">pism::Diag&lt; Model &gt;</text>
</a>
</g>
</g>
<!-- Node3&#45;&gt;Node4 -->
<g id="edge4" class="edge">
<title>Node3&#45;&gt;Node4</title>
<path fill="none" stroke="midnightblue" d="M73.25,-186.54C87.5,-176.35 106.11,-163.07 118.05,-154.53"/>
<polygon fill="midnightblue" stroke="midnightblue" points="71.13,-183.75 65.03,-192.41 75.2,-189.44 71.13,-183.75"/>
</g>
<!-- Node4&#45;&gt;Node2 -->
<g id="edge3" class="edge">
<title>Node4&#45;&gt;Node2</title>
<path fill="none" stroke="orange" stroke-dasharray="5,2" d="M112.43,-128.36C98.08,-115.58 78.33,-97.99 66.69,-87.63"/>
<polygon fill="orange" stroke="orange" points="110.36,-131.2 120.15,-135.23 115.01,-125.97 110.36,-131.2"/>
<text text-anchor="middle" x="120" y="-109" font-family="Helvetica,sans-Serif" font-size="10.00"> &lt; SSA &gt;</text>
</g>
</g>
</svg>
