<?xml version="1.0" encoding="UTF-8" standalone="no"?>
<!DOCTYPE svg PUBLIC "-//W3C//DTD SVG 1.1//EN"
 "http://www.w3.org/Graphics/SVG/1.1/DTD/svg11.dtd">
<!-- Generated by graphviz version 2.43.0 (0)
 -->
<!-- Title: pism::DiagAverageRate&lt; M &gt; Pages: 1 -->
<svg width="1148pt" height="1068pt"
 viewBox="0.00 0.00 1148.00 1068.00" xmlns="http://www.w3.org/2000/svg" xmlns:xlink="http://www.w3.org/1999/xlink">
<g id="graph0" class="graph" transform="scale(1 1) rotate(0) translate(4 1064)">
<title>pism::DiagAverageRate&lt; M &gt;</title>
<!-- Node1 -->
<g id="node1" class="node">
<title>Node1</title>
<g id="a_node1"><a xlink:title=" ">
<polygon fill="#bfbfbf" stroke="black" points="466,-741 466,-760 629,-760 629,-741 466,-741"/>
<text text-anchor="middle" x="547.5" y="-748" font-family="Helvetica,sans-Serif" font-size="10.00">pism::DiagAverageRate&lt; M &gt;</text>
</a>
</g>
</g>
<!-- Node5 -->
<g id="node5" class="node">
<title>Node5</title>
<g id="a_node5"><a xlink:href="classpism_1_1DiagAverageRate.html" target="_top" xlink:title=" ">
<polygon fill="none" stroke="black" points="780,-955.5 780,-985.5 911,-985.5 911,-955.5 780,-955.5"/>
<text text-anchor="start" x="788" y="-973.5" font-family="Helvetica,sans-Serif" font-size="10.00">pism::DiagAverageRate</text>
<text text-anchor="middle" x="845.5" y="-962.5" font-family="Helvetica,sans-Serif" font-size="10.00">&lt; TemperatureIndex &gt;</text>
</a>
</g>
</g>
<!-- Node1&#45;&gt;Node5 -->
<g id="edge5" class="edge">
<title>Node1&#45;&gt;Node5</title>
<path fill="none" stroke="orange" stroke-dasharray="5,2" d="M566.64,-766.95C586.05,-784.33 617.98,-812.23 647,-834.5 707.77,-881.14 783.21,-930.99 820.84,-955.34"/>
<polygon fill="orange" stroke="orange" points="568.9,-764.28 559.13,-760.2 564.22,-769.49 568.9,-764.28"/>
<text text-anchor="middle" x="704.5" y="-916.5" font-family="Helvetica,sans-Serif" font-size="10.00"> &lt; TemperatureIndex &gt;</text>
</g>
<!-- Node9 -->
<g id="node9" class="node">
<title>Node9</title>
<g id="a_node9"><a xlink:href="classpism_1_1DiagAverageRate.html" target="_top" xlink:title=" ">
<polygon fill="none" stroke="black" points="780,-833.5 780,-863.5 911,-863.5 911,-833.5 780,-833.5"/>
<text text-anchor="start" x="788" y="-851.5" font-family="Helvetica,sans-Serif" font-size="10.00">pism::DiagAverageRate</text>
<text text-anchor="middle" x="845.5" y="-840.5" font-family="Helvetica,sans-Serif" font-size="10.00">&lt; FrontalMelt &gt;</text>
</a>
</g>
</g>
<!-- Node1&#45;&gt;Node9 -->
<g id="edge9" class="edge">
<title>Node1&#45;&gt;Node9</title>
<path fill="none" stroke="orange" stroke-dasharray="5,2" d="M587.06,-763.27C641.61,-781.33 741.1,-814.27 799.13,-833.48"/>
<polygon fill="orange" stroke="orange" points="588.01,-759.9 577.42,-760.08 585.81,-766.54 588.01,-759.9"/>
<text text-anchor="middle" x="704.5" y="-822.5" font-family="Helvetica,sans-Serif" font-size="10.00"> &lt; FrontalMelt &gt;</text>
</g>
<!-- Node12 -->
<g id="node12" class="node">
<title>Node12</title>
<g id="a_node12"><a xlink:href="classpism_1_1DiagAverageRate.html" target="_top" xlink:title=" ">
<polygon fill="none" stroke="black" points="780,-637.5 780,-667.5 911,-667.5 911,-637.5 780,-637.5"/>
<text text-anchor="start" x="788" y="-655.5" font-family="Helvetica,sans-Serif" font-size="10.00">pism::DiagAverageRate</text>
<text text-anchor="middle" x="845.5" y="-644.5" font-family="Helvetica,sans-Serif" font-size="10.00">&lt; IceModel &gt;</text>
</a>
</g>
</g>
<!-- Node1&#45;&gt;Node12 -->
<g id="edge12" class="edge">
<title>Node1&#45;&gt;Node12</title>
<path fill="none" stroke="orange" stroke-dasharray="5,2" d="M587.06,-737.73C641.61,-719.67 741.1,-686.73 799.13,-667.52"/>
<polygon fill="orange" stroke="orange" points="585.81,-734.46 577.42,-740.92 588.01,-741.1 585.81,-734.46"/>
<text text-anchor="middle" x="704.5" y="-719.5" font-family="Helvetica,sans-Serif" font-size="10.00"> &lt; IceModel &gt;</text>
</g>
<!-- Node21 -->
<g id="node21" class="node">
<title>Node21</title>
<g id="a_node21"><a xlink:href="classpism_1_1DiagAverageRate.html" target="_top" xlink:title=" ">
<polygon fill="none" stroke="black" points="780,-221.5 780,-251.5 911,-251.5 911,-221.5 780,-221.5"/>
<text text-anchor="start" x="788" y="-239.5" font-family="Helvetica,sans-Serif" font-size="10.00">pism::DiagAverageRate</text>
<text text-anchor="middle" x="845.5" y="-228.5" font-family="Helvetica,sans-Serif" font-size="10.00">&lt; Hydrology &gt;</text>
</a>
</g>
</g>
<!-- Node1&#45;&gt;Node21 -->
<g id="edge21" class="edge">
<title>Node1&#45;&gt;Node21</title>
<path fill="none" stroke="orange" stroke-dasharray="5,2" d="M559.14,-732.02C605.98,-650.68 793.28,-325.45 835.86,-251.51"/>
<polygon fill="orange" stroke="orange" points="556.11,-730.28 554.15,-740.69 562.17,-733.77 556.11,-730.28"/>
<text text-anchor="middle" x="704.5" y="-573.5" font-family="Helvetica,sans-Serif" font-size="10.00"> &lt; Hydrology &gt;</text>
</g>
<!-- Node2 -->
<g id="node2" class="node">
<title>Node2</title>
<g id="a_node2"><a xlink:href="classpism_1_1Diag.html" target="_top" xlink:title=" ">
<polygon fill="none" stroke="black" points="328,-741 328,-760 429,-760 429,-741 328,-741"/>
<text text-anchor="middle" x="378.5" y="-748" font-family="Helvetica,sans-Serif" font-size="10.00">pism::Diag&lt; M &gt;</text>
</a>
</g>
</g>
<!-- Node2&#45;&gt;Node1 -->
<g id="edge1" class="edge">
<title>Node2&#45;&gt;Node1</title>
<path fill="none" stroke="midnightblue" d="M439.39,-750.5C447.95,-750.5 456.88,-750.5 465.76,-750.5"/>
<polygon fill="midnightblue" stroke="midnightblue" points="439.15,-747 429.15,-750.5 439.15,-754 439.15,-747"/>
</g>
<!-- Node3 -->
<g id="node3" class="node">
<title>Node3</title>
<g id="a_node3"><a xlink:href="classpism_1_1Diagnostic.html" target="_top" xlink:title="Class representing diagnostic computations in PISM.">
<polygon fill="none" stroke="black" points="0,-738 0,-757 98,-757 98,-738 0,-738"/>
<text text-anchor="middle" x="49" y="-745" font-family="Helvetica,sans-Serif" font-size="10.00">pism::Diagnostic</text>
</a>
</g>
</g>
<!-- Node3&#45;&gt;Node2 -->
<g id="edge2" class="edge">
<title>Node3&#45;&gt;Node2</title>
<path fill="none" stroke="midnightblue" d="M108.33,-752.16C110.92,-752.29 113.49,-752.4 116,-752.5 189.72,-755.29 275.22,-753.73 327.83,-752.22"/>
<polygon fill="midnightblue" stroke="midnightblue" points="108.46,-748.66 98.28,-751.58 108.06,-755.65 108.46,-748.66"/>
</g>
<!-- Node4 -->
<g id="node4" class="node">
<title>Node4</title>
<g id="a_node4"><a xlink:href="classpism_1_1Diag.html" target="_top" xlink:title="A template derived from Diagnostic, adding a &quot;Model&quot;.">
<polygon fill="none" stroke="black" points="135,-719 135,-738 257,-738 257,-719 135,-719"/>
<text text-anchor="middle" x="196" y="-726" font-family="Helvetica,sans-Serif" font-size="10.00">pism::Diag&lt; Model &gt;</text>
</a>
</g>
</g>
<!-- Node3&#45;&gt;Node4 -->
<g id="edge4" class="edge">
<title>Node3&#45;&gt;Node4</title>
<path fill="none" stroke="midnightblue" d="M108.35,-739.85C117.06,-738.71 126.05,-737.53 134.8,-736.39"/>
<polygon fill="midnightblue" stroke="midnightblue" points="107.74,-736.4 98.28,-741.17 108.65,-743.34 107.74,-736.4"/>
</g>
<!-- Node4&#45;&gt;Node2 -->
<g id="edge3" class="edge">
<title>Node4&#45;&gt;Node2</title>
<path fill="none" stroke="orange" stroke-dasharray="5,2" d="M267.3,-736.39C281.45,-738.03 296.2,-739.79 310,-741.5 315.75,-742.21 321.77,-742.98 327.75,-743.76"/>
<polygon fill="orange" stroke="orange" points="267.47,-732.89 257.13,-735.21 266.67,-739.84 267.47,-732.89"/>
<text text-anchor="middle" x="292.5" y="-744.5" font-family="Helvetica,sans-Serif" font-size="10.00"> &lt; M &gt;</text>
</g>
<!-- Node6 -->
<g id="node6" class="node">
<title>Node6</title>
<g id="a_node6"><a xlink:href="classpism_1_1surface_1_1diagnostics_1_1Accumulation.html" target="_top" xlink:title="Report accumulation (precipitation minus rain), averaged over the reporting interval.">
<polygon fill="none" stroke="black" points="972,-1029.5 972,-1059.5 1116,-1059.5 1116,-1029.5 972,-1029.5"/>
<text text-anchor="start" x="980" y="-1047.5" font-family="Helvetica,sans-Serif" font-size="10.00">pism::surface::diagnostics</text>
<text text-anchor="middle" x="1044" y="-1036.5" font-family="Helvetica,sans-Serif" font-size="10.00">::Accumulation</text>
</a>
</g>
</g>
<!-- Node5&#45;&gt;Node6 -->
<g id="edge6" class="edge">
<title>Node5&#45;&gt;Node6</title>
<path fill="none" stroke="midnightblue" d="M882.31,-990.45C901.39,-1000.47 925.5,-1012.22 948,-1020.5 956.94,-1023.79 966.52,-1026.79 976.02,-1029.47"/>
<polygon fill="midnightblue" stroke="midnightblue" points="883.85,-987.3 873.38,-985.68 880.56,-993.48 883.85,-987.3"/>
</g>
<!-- Node7 -->
<g id="node7" class="node">
<title>Node7</title>
<g id="a_node7"><a xlink:href="classpism_1_1surface_1_1diagnostics_1_1SurfaceMelt.html" target="_top" xlink:title="Report surface melt, averaged over the reporting interval.">
<polygon fill="none" stroke="black" points="972,-980.5 972,-1010.5 1116,-1010.5 1116,-980.5 972,-980.5"/>
<text text-anchor="start" x="980" y="-998.5" font-family="Helvetica,sans-Serif" font-size="10.00">pism::surface::diagnostics</text>
<text text-anchor="middle" x="1044" y="-987.5" font-family="Helvetica,sans-Serif" font-size="10.00">::SurfaceMelt</text>
</a>
</g>
</g>
<!-- Node5&#45;&gt;Node7 -->
<g id="edge7" class="edge">
<title>Node5&#45;&gt;Node7</title>
<path fill="none" stroke="midnightblue" d="M921.31,-980.02C937.91,-982.13 955.46,-984.36 971.9,-986.45"/>
<polygon fill="midnightblue" stroke="midnightblue" points="921.48,-976.51 911.11,-978.72 920.59,-983.45 921.48,-976.51"/>
</g>
<!-- Node8 -->
<g id="node8" class="node">
<title>Node8</title>
<g id="a_node8"><a xlink:href="classpism_1_1surface_1_1diagnostics_1_1SurfaceRunoff.html" target="_top" xlink:title="Report surface runoff, averaged over the reporting interval.">
<polygon fill="none" stroke="black" points="972,-931.5 972,-961.5 1116,-961.5 1116,-931.5 972,-931.5"/>
<text text-anchor="start" x="980" y="-949.5" font-family="Helvetica,sans-Serif" font-size="10.00">pism::surface::diagnostics</text>
<text text-anchor="middle" x="1044" y="-938.5" font-family="Helvetica,sans-Serif" font-size="10.00">::SurfaceRunoff</text>
</a>
</g>
</g>
<!-- Node5&#45;&gt;Node8 -->
<g id="edge8" class="edge">
<title>Node5&#45;&gt;Node8</title>
<path fill="none" stroke="midnightblue" d="M921.31,-961.36C937.91,-959.34 955.46,-957.19 971.9,-955.18"/>
<polygon fill="midnightblue" stroke="midnightblue" points="920.62,-957.92 911.11,-962.61 921.46,-964.87 920.62,-957.92"/>
</g>
<!-- Node10 -->
<g id="node10" class="node">
<title>Node10</title>
<g id="a_node10"><a xlink:href="classpism_1_1frontalmelt_1_1diagnostics_1_1FrontalMeltRate.html" target="_top" xlink:title="Report frontal melt rate.">
<polygon fill="none" stroke="black" points="966,-882.5 966,-912.5 1122,-912.5 1122,-882.5 966,-882.5"/>
<text text-anchor="start" x="974" y="-900.5" font-family="Helvetica,sans-Serif" font-size="10.00">pism::frontalmelt::</text>
<text text-anchor="middle" x="1044" y="-889.5" font-family="Helvetica,sans-Serif" font-size="10.00">diagnostics::FrontalMeltRate</text>
</a>
</g>
</g>
<!-- Node9&#45;&gt;Node10 -->
<g id="edge10" class="edge">
<title>Node9&#45;&gt;Node10</title>
<path fill="none" stroke="midnightblue" d="M916.59,-865.98C938.24,-871.38 961.9,-877.28 982.82,-882.49"/>
<polygon fill="midnightblue" stroke="midnightblue" points="917.34,-862.56 906.79,-863.53 915.65,-869.35 917.34,-862.56"/>
</g>
<!-- Node11 -->
<g id="node11" class="node">
<title>Node11</title>
<g id="a_node11"><a xlink:href="classpism_1_1frontalmelt_1_1diagnostics_1_1FrontalMeltRetreatRate.html" target="_top" xlink:title="Report retreat rate due to frontal melt.">
<polygon fill="none" stroke="black" points="948,-833.5 948,-863.5 1140,-863.5 1140,-833.5 948,-833.5"/>
<text text-anchor="start" x="956" y="-851.5" font-family="Helvetica,sans-Serif" font-size="10.00">pism::frontalmelt::</text>
<text text-anchor="middle" x="1044" y="-840.5" font-family="Helvetica,sans-Serif" font-size="10.00">diagnostics::FrontalMeltRetreatRate</text>
</a>
</g>
</g>
<!-- Node9&#45;&gt;Node11 -->
<g id="edge11" class="edge">
<title>Node9&#45;&gt;Node11</title>
<path fill="none" stroke="midnightblue" d="M921.18,-848.5C929.87,-848.5 938.82,-848.5 947.74,-848.5"/>
<polygon fill="midnightblue" stroke="midnightblue" points="921.11,-845 911.11,-848.5 921.11,-852 921.11,-845"/>
</g>
<!-- Node13 -->
<g id="node13" class="node">
<title>Node13</title>
<g id="a_node13"><a xlink:href="classpism_1_1diagnostics_1_1BMBSplit.html" target="_top" xlink:title="Report average basal mass balance flux over the reporting interval (grounded or floating areas)">
<polygon fill="none" stroke="black" points="990,-784.5 990,-814.5 1098,-814.5 1098,-784.5 990,-784.5"/>
<text text-anchor="start" x="998" y="-802.5" font-family="Helvetica,sans-Serif" font-size="10.00">pism::diagnostics::</text>
<text text-anchor="middle" x="1044" y="-791.5" font-family="Helvetica,sans-Serif" font-size="10.00">BMBSplit</text>
</a>
</g>
</g>
<!-- Node12&#45;&gt;Node13 -->
<g id="edge13" class="edge">
<title>Node12&#45;&gt;Node13</title>
<path fill="none" stroke="midnightblue" d="M859.76,-676.39C876.59,-704.46 908.27,-750.36 948,-775.5 960.51,-783.41 975.48,-788.72 989.81,-792.28"/>
<polygon fill="midnightblue" stroke="midnightblue" points="862.7,-674.48 854.63,-667.62 856.65,-678.02 862.7,-674.48"/>
</g>
<!-- Node14 -->
<g id="node14" class="node">
<title>Node14</title>
<g id="a_node14"><a xlink:href="classpism_1_1diagnostics_1_1BasalFlux.html" target="_top" xlink:title="Report basal mass balance flux, averaged over the reporting interval.">
<polygon fill="none" stroke="black" points="990,-735.5 990,-765.5 1098,-765.5 1098,-735.5 990,-735.5"/>
<text text-anchor="start" x="998" y="-753.5" font-family="Helvetica,sans-Serif" font-size="10.00">pism::diagnostics::</text>
<text text-anchor="middle" x="1044" y="-742.5" font-family="Helvetica,sans-Serif" font-size="10.00">BasalFlux</text>
</a>
</g>
</g>
<!-- Node12&#45;&gt;Node14 -->
<g id="edge14" class="edge">
<title>Node12&#45;&gt;Node14</title>
<path fill="none" stroke="midnightblue" d="M871.04,-674.12C890.65,-690.37 919.48,-712.06 948,-725.5 960.96,-731.61 975.64,-736.4 989.52,-740.08"/>
<polygon fill="midnightblue" stroke="midnightblue" points="873.13,-671.3 863.23,-667.53 868.61,-676.65 873.13,-671.3"/>
</g>
<!-- Node15 -->
<g id="node15" class="node">
<title>Node15</title>
<g id="a_node15"><a xlink:href="classpism_1_1diagnostics_1_1CalvingFlux.html" target="_top" xlink:title="Report discharge (calving and frontal melt) flux.">
<polygon fill="none" stroke="black" points="990,-686.5 990,-716.5 1098,-716.5 1098,-686.5 990,-686.5"/>
<text text-anchor="start" x="998" y="-704.5" font-family="Helvetica,sans-Serif" font-size="10.00">pism::diagnostics::</text>
<text text-anchor="middle" x="1044" y="-693.5" font-family="Helvetica,sans-Serif" font-size="10.00">CalvingFlux</text>
</a>
</g>
</g>
<!-- Node12&#45;&gt;Node15 -->
<g id="edge15" class="edge">
<title>Node12&#45;&gt;Node15</title>
<path fill="none" stroke="midnightblue" d="M916.6,-669.98C940.7,-675.99 967.28,-682.62 989.81,-688.24"/>
<polygon fill="midnightblue" stroke="midnightblue" points="917.34,-666.56 906.79,-667.53 915.65,-673.35 917.34,-666.56"/>
</g>
<!-- Node16 -->
<g id="node16" class="node">
<title>Node16</title>
<g id="a_node16"><a xlink:href="classpism_1_1diagnostics_1_1ConservationErrorFlux.html" target="_top" xlink:title=" ">
<polygon fill="none" stroke="black" points="981.5,-637.5 981.5,-667.5 1106.5,-667.5 1106.5,-637.5 981.5,-637.5"/>
<text text-anchor="start" x="989.5" y="-655.5" font-family="Helvetica,sans-Serif" font-size="10.00">pism::diagnostics::</text>
<text text-anchor="middle" x="1044" y="-644.5" font-family="Helvetica,sans-Serif" font-size="10.00">ConservationErrorFlux</text>
</a>
</g>
</g>
<!-- Node12&#45;&gt;Node16 -->
<g id="edge16" class="edge">
<title>Node12&#45;&gt;Node16</title>
<path fill="none" stroke="midnightblue" d="M921.34,-652.5C941.15,-652.5 962.32,-652.5 981.35,-652.5"/>
<polygon fill="midnightblue" stroke="midnightblue" points="921.11,-649 911.11,-652.5 921.11,-656 921.11,-649"/>
</g>
<!-- Node17 -->
<g id="node17" class="node">
<title>Node17</title>
<g id="a_node17"><a xlink:href="classpism_1_1diagnostics_1_1DischargeFlux.html" target="_top" xlink:title="Report discharge (calving and frontal melt) flux.">
<polygon fill="none" stroke="black" points="990,-588.5 990,-618.5 1098,-618.5 1098,-588.5 990,-588.5"/>
<text text-anchor="start" x="998" y="-606.5" font-family="Helvetica,sans-Serif" font-size="10.00">pism::diagnostics::</text>
<text text-anchor="middle" x="1044" y="-595.5" font-family="Helvetica,sans-Serif" font-size="10.00">DischargeFlux</text>
</a>
</g>
</g>
<!-- Node12&#45;&gt;Node17 -->
<g id="edge17" class="edge">
<title>Node12&#45;&gt;Node17</title>
<path fill="none" stroke="midnightblue" d="M916.6,-635.02C940.7,-629.01 967.28,-622.38 989.81,-616.76"/>
<polygon fill="midnightblue" stroke="midnightblue" points="915.65,-631.65 906.79,-637.47 917.34,-638.44 915.65,-631.65"/>
</g>
<!-- Node18 -->
<g id="node18" class="node">
<title>Node18</title>
<g id="a_node18"><a xlink:href="classpism_1_1diagnostics_1_1GroundingLineFlux.html" target="_top" xlink:title="Report grounding line flux.">
<polygon fill="none" stroke="black" points="990,-539.5 990,-569.5 1098,-569.5 1098,-539.5 990,-539.5"/>
<text text-anchor="start" x="998" y="-557.5" font-family="Helvetica,sans-Serif" font-size="10.00">pism::diagnostics::</text>
<text text-anchor="middle" x="1044" y="-546.5" font-family="Helvetica,sans-Serif" font-size="10.00">GroundingLineFlux</text>
</a>
</g>
</g>
<!-- Node12&#45;&gt;Node18 -->
<g id="edge18" class="edge">
<title>Node12&#45;&gt;Node18</title>
<path fill="none" stroke="midnightblue" d="M870.6,-630.79C890.17,-614.23 919.15,-592.04 948,-578.5 961.09,-572.36 975.96,-567.65 989.99,-564.1"/>
<polygon fill="midnightblue" stroke="midnightblue" points="868.11,-628.32 862.82,-637.5 872.68,-633.62 868.11,-628.32"/>
</g>
<!-- Node19 -->
<g id="node19" class="node">
<title>Node19</title>
<g id="a_node19"><a xlink:href="classpism_1_1diagnostics_1_1SurfaceFlux.html" target="_top" xlink:title="Report surface mass balance flux, averaged over the reporting interval.">
<polygon fill="none" stroke="black" points="990,-490.5 990,-520.5 1098,-520.5 1098,-490.5 990,-490.5"/>
<text text-anchor="start" x="998" y="-508.5" font-family="Helvetica,sans-Serif" font-size="10.00">pism::diagnostics::</text>
<text text-anchor="middle" x="1044" y="-497.5" font-family="Helvetica,sans-Serif" font-size="10.00">SurfaceFlux</text>
</a>
</g>
</g>
<!-- Node12&#45;&gt;Node19 -->
<g id="edge19" class="edge">
<title>Node12&#45;&gt;Node19</title>
<path fill="none" stroke="midnightblue" d="M859.76,-628.61C876.59,-600.54 908.27,-554.64 948,-529.5 960.51,-521.59 975.48,-516.28 989.81,-512.72"/>
<polygon fill="midnightblue" stroke="midnightblue" points="856.65,-626.98 854.63,-637.38 862.7,-630.52 856.65,-626.98"/>
</g>
<!-- Node20 -->
<g id="node20" class="node">
<title>Node20</title>
<g id="a_node20"><a xlink:href="classpism_1_1diagnostics_1_1TendencyOfIceAmountDueToFlow.html" target="_top" xlink:title="Computes tendency_of_ice_amount_due_to_flow, the rate of change of ice amount due to flow.">
<polygon fill="none" stroke="black" points="954.5,-441.5 954.5,-471.5 1133.5,-471.5 1133.5,-441.5 954.5,-441.5"/>
<text text-anchor="start" x="962.5" y="-459.5" font-family="Helvetica,sans-Serif" font-size="10.00">pism::diagnostics::</text>
<text text-anchor="middle" x="1044" y="-448.5" font-family="Helvetica,sans-Serif" font-size="10.00">TendencyOfIceAmountDueToFlow</text>
</a>
</g>
</g>
<!-- Node12&#45;&gt;Node20 -->
<g id="edge20" class="edge">
<title>Node12&#45;&gt;Node20</title>
<path fill="none" stroke="midnightblue" d="M854.2,-627.68C867.22,-589.93 897.26,-518.48 948,-480.5 952.63,-477.03 957.71,-474.07 963.03,-471.52"/>
<polygon fill="midnightblue" stroke="midnightblue" points="850.81,-626.78 850.98,-637.37 857.45,-628.99 850.81,-626.78"/>
</g>
<!-- Node22 -->
<g id="node22" class="node">
<title>Node22</title>
<g id="a_node22"><a xlink:href="classpism_1_1hydrology_1_1diagnostics_1_1ConservationErrorFlux.html" target="_top" xlink:title="Report subglacial water conservation error flux (mass added to preserve non&#45;negativity).">
<polygon fill="none" stroke="black" points="966,-392.5 966,-422.5 1122,-422.5 1122,-392.5 966,-392.5"/>
<text text-anchor="start" x="974" y="-410.5" font-family="Helvetica,sans-Serif" font-size="10.00">pism::hydrology::diagnostics</text>
<text text-anchor="middle" x="1044" y="-399.5" font-family="Helvetica,sans-Serif" font-size="10.00">::ConservationErrorFlux</text>
</a>
</g>
</g>
<!-- Node21&#45;&gt;Node22 -->
<g id="edge22" class="edge">
<title>Node21&#45;&gt;Node22</title>
<path fill="none" stroke="midnightblue" d="M856.81,-260.84C871.94,-293.56 903.29,-351.23 948,-382.5 953.59,-386.41 959.75,-389.71 966.17,-392.49"/>
<polygon fill="midnightblue" stroke="midnightblue" points="859.93,-259.23 852.64,-251.54 853.54,-262.1 859.93,-259.23"/>
</g>
<!-- Node23 -->
<g id="node23" class="node">
<title>Node23</title>
<g id="a_node23"><a xlink:href="classpism_1_1hydrology_1_1diagnostics_1_1DomainBoundaryFlux.html" target="_top" xlink:title="Report subglacial water flux at domain boundary (in regional model configurations).">
<polygon fill="none" stroke="black" points="966,-343.5 966,-373.5 1122,-373.5 1122,-343.5 966,-343.5"/>
<text text-anchor="start" x="974" y="-361.5" font-family="Helvetica,sans-Serif" font-size="10.00">pism::hydrology::diagnostics</text>
<text text-anchor="middle" x="1044" y="-350.5" font-family="Helvetica,sans-Serif" font-size="10.00">::DomainBoundaryFlux</text>
</a>
</g>
</g>
<!-- Node21&#45;&gt;Node23 -->
<g id="edge23" class="edge">
<title>Node21&#45;&gt;Node23</title>
<path fill="none" stroke="midnightblue" d="M864.7,-259.69C883.32,-281.86 914.24,-314.61 948,-333.5 954.85,-337.33 962.3,-340.59 969.92,-343.36"/>
<polygon fill="midnightblue" stroke="midnightblue" points="867.24,-257.27 858.19,-251.77 861.84,-261.71 867.24,-257.27"/>
</g>
<!-- Node24 -->
<g id="node24" class="node">
<title>Node24</title>
<g id="a_node24"><a xlink:href="classpism_1_1hydrology_1_1diagnostics_1_1GroundedMarginFlux.html" target="_top" xlink:title="Report water flux at the grounded margin.">
<polygon fill="none" stroke="black" points="966,-294.5 966,-324.5 1122,-324.5 1122,-294.5 966,-294.5"/>
<text text-anchor="start" x="974" y="-312.5" font-family="Helvetica,sans-Serif" font-size="10.00">pism::hydrology::diagnostics</text>
<text text-anchor="middle" x="1044" y="-301.5" font-family="Helvetica,sans-Serif" font-size="10.00">::GroundedMarginFlux</text>
</a>
</g>
</g>
<!-- Node21&#45;&gt;Node24 -->
<g id="edge24" class="edge">
<title>Node21&#45;&gt;Node24</title>
<path fill="none" stroke="midnightblue" d="M883.91,-256.22C902.78,-265.64 926.22,-276.56 948,-284.5 958.01,-288.15 968.8,-291.51 979.39,-294.5"/>
<polygon fill="midnightblue" stroke="midnightblue" points="885.28,-252.99 874.77,-251.6 882.12,-259.24 885.28,-252.99"/>
</g>
<!-- Node25 -->
<g id="node25" class="node">
<title>Node25</title>
<g id="a_node25"><a xlink:href="classpism_1_1hydrology_1_1diagnostics_1_1GroundingLineFlux.html" target="_top" xlink:title="Report subglacial water flux at grounding lines.">
<polygon fill="none" stroke="black" points="966,-245.5 966,-275.5 1122,-275.5 1122,-245.5 966,-245.5"/>
<text text-anchor="start" x="974" y="-263.5" font-family="Helvetica,sans-Serif" font-size="10.00">pism::hydrology::diagnostics</text>
<text text-anchor="middle" x="1044" y="-252.5" font-family="Helvetica,sans-Serif" font-size="10.00">::GroundingLineFlux</text>
</a>
</g>
</g>
<!-- Node21&#45;&gt;Node25 -->
<g id="edge25" class="edge">
<title>Node21&#45;&gt;Node25</title>
<path fill="none" stroke="midnightblue" d="M921.08,-245.61C935.68,-247.39 951.01,-249.26 965.69,-251.06"/>
<polygon fill="midnightblue" stroke="midnightblue" points="921.46,-242.13 911.11,-244.39 920.62,-249.08 921.46,-242.13"/>
</g>
<!-- Node26 -->
<g id="node26" class="node">
<title>Node26</title>
<g id="a_node26"><a xlink:href="classpism_1_1hydrology_1_1diagnostics_1_1SubglacialWaterFlux.html" target="_top" xlink:title="Report advective subglacial water flux.">
<polygon fill="none" stroke="black" points="966,-196.5 966,-226.5 1122,-226.5 1122,-196.5 966,-196.5"/>
<text text-anchor="start" x="974" y="-214.5" font-family="Helvetica,sans-Serif" font-size="10.00">pism::hydrology::diagnostics</text>
<text text-anchor="middle" x="1044" y="-203.5" font-family="Helvetica,sans-Serif" font-size="10.00">::SubglacialWaterFlux</text>
</a>
</g>
</g>
<!-- Node21&#45;&gt;Node26 -->
<g id="edge26" class="edge">
<title>Node21&#45;&gt;Node26</title>
<path fill="none" stroke="midnightblue" d="M921.08,-227.01C935.68,-225.15 951.01,-223.2 965.69,-221.34"/>
<polygon fill="midnightblue" stroke="midnightblue" points="920.59,-223.55 911.11,-228.28 921.48,-230.49 920.59,-223.55"/>
</g>
<!-- Node27 -->
<g id="node27" class="node">
<title>Node27</title>
<g id="a_node27"><a xlink:href="classpism_1_1hydrology_1_1diagnostics_1_1TendencyOfWaterMass.html" target="_top" xlink:title=" ">
<polygon fill="none" stroke="black" points="966,-147.5 966,-177.5 1122,-177.5 1122,-147.5 966,-147.5"/>
<text text-anchor="start" x="974" y="-165.5" font-family="Helvetica,sans-Serif" font-size="10.00">pism::hydrology::diagnostics</text>
<text text-anchor="middle" x="1044" y="-154.5" font-family="Helvetica,sans-Serif" font-size="10.00">::TendencyOfWaterMass</text>
</a>
</g>
</g>
<!-- Node21&#45;&gt;Node27 -->
<g id="edge27" class="edge">
<title>Node21&#45;&gt;Node27</title>
<path fill="none" stroke="midnightblue" d="M882.31,-216.55C901.39,-206.53 925.5,-194.78 948,-186.5 956.94,-183.21 966.52,-180.21 976.02,-177.53"/>
<polygon fill="midnightblue" stroke="midnightblue" points="880.56,-213.52 873.38,-221.32 883.85,-219.7 880.56,-213.52"/>
</g>
<!-- Node28 -->
<g id="node28" class="node">
<title>Node28</title>
<g id="a_node28"><a xlink:href="classpism_1_1hydrology_1_1diagnostics_1_1TendencyOfWaterMassDueToFlow.html" target="_top" xlink:title="Report water flux at the grounded margin.">
<polygon fill="none" stroke="black" points="950.5,-98.5 950.5,-128.5 1137.5,-128.5 1137.5,-98.5 950.5,-98.5"/>
<text text-anchor="start" x="958.5" y="-116.5" font-family="Helvetica,sans-Serif" font-size="10.00">pism::hydrology::diagnostics</text>
<text text-anchor="middle" x="1044" y="-105.5" font-family="Helvetica,sans-Serif" font-size="10.00">::TendencyOfWaterMassDueToFlow</text>
</a>
</g>
</g>
<!-- Node21&#45;&gt;Node28 -->
<g id="edge28" class="edge">
<title>Node21&#45;&gt;Node28</title>
<path fill="none" stroke="midnightblue" d="M864.25,-213.12C882.73,-190.43 913.71,-156.69 948,-137.5 954.09,-134.09 960.66,-131.16 967.41,-128.64"/>
<polygon fill="midnightblue" stroke="midnightblue" points="861.29,-211.22 857.8,-221.23 866.77,-215.58 861.29,-211.22"/>
</g>
<!-- Node29 -->
<g id="node29" class="node">
<title>Node29</title>
<g id="a_node29"><a xlink:href="classpism_1_1hydrology_1_1diagnostics_1_1TotalInputRate.html" target="_top" xlink:title="Report water input rate from the ice surface into the subglacial water system.">
<polygon fill="none" stroke="black" points="966,-49.5 966,-79.5 1122,-79.5 1122,-49.5 966,-49.5"/>
<text text-anchor="start" x="974" y="-67.5" font-family="Helvetica,sans-Serif" font-size="10.00">pism::hydrology::diagnostics</text>
<text text-anchor="middle" x="1044" y="-56.5" font-family="Helvetica,sans-Serif" font-size="10.00">::TotalInputRate</text>
</a>
</g>
</g>
<!-- Node21&#45;&gt;Node29 -->
<g id="edge29" class="edge">
<title>Node21&#45;&gt;Node29</title>
<path fill="none" stroke="midnightblue" d="M856.68,-211.76C871.65,-178.52 902.83,-119.98 948,-88.5 953.44,-84.71 959.43,-81.51 965.68,-78.82"/>
<polygon fill="midnightblue" stroke="midnightblue" points="853.35,-210.65 852.55,-221.21 859.76,-213.45 853.35,-210.65"/>
</g>
<!-- Node30 -->
<g id="node30" class="node">
<title>Node30</title>
<g id="a_node30"><a xlink:href="classpism_1_1hydrology_1_1diagnostics_1_1WaterInputFlux.html" target="_top" xlink:title="Report water flux due to input (basal melt and drainage from the surface).">
<polygon fill="none" stroke="black" points="966,-0.5 966,-30.5 1122,-30.5 1122,-0.5 966,-0.5"/>
<text text-anchor="start" x="974" y="-18.5" font-family="Helvetica,sans-Serif" font-size="10.00">pism::hydrology::diagnostics</text>
<text text-anchor="middle" x="1044" y="-7.5" font-family="Helvetica,sans-Serif" font-size="10.00">::WaterInputFlux</text>
</a>
</g>
</g>
<!-- Node21&#45;&gt;Node30 -->
<g id="edge30" class="edge">
<title>Node21&#45;&gt;Node30</title>
<path fill="none" stroke="midnightblue" d="M852.18,-211.75C863.15,-169.7 891.34,-84.5 948,-39.5 953.33,-35.27 959.31,-31.77 965.61,-28.89"/>
<polygon fill="midnightblue" stroke="midnightblue" points="848.78,-210.91 849.75,-221.46 855.57,-212.61 848.78,-210.91"/>
</g>
</g>
</svg>
