<?xml version="1.0" encoding="UTF-8" standalone="no"?>
<!DOCTYPE svg PUBLIC "-//W3C//DTD SVG 1.1//EN"
 "http://www.w3.org/Graphics/SVG/1.1/DTD/svg11.dtd">
<!-- Generated by graphviz version 2.43.0 (0)
 -->
<!-- Title: pism::stressbalance::SIAFD_h_x Pages: 1 -->
<svg width="203pt" height="216pt"
 viewBox="0.00 0.00 202.50 216.00" xmlns="http://www.w3.org/2000/svg" xmlns:xlink="http://www.w3.org/1999/xlink">
<g id="graph0" class="graph" transform="scale(1 1) rotate(0) translate(4 212)">
<title>pism::stressbalance::SIAFD_h_x</title>
<!-- Node1 -->
<g id="Node000001" class="node">
<title>Node1</title>
<g id="a_Node000001"><a xlink:title="Reports the x&#45;component of the ice surface gradient on the staggered grid as computed by SIAFD.">
<polygon fill="#999999" stroke="#666666" points="117.5,-30 3.5,-30 3.5,0 117.5,0 117.5,-30"/>
<text text-anchor="start" x="11.5" y="-18" font-family="Helvetica,sans-Serif" font-size="10.00">pism::stressbalance</text>
<text text-anchor="middle" x="60.5" y="-7" font-family="Helvetica,sans-Serif" font-size="10.00">::SIAFD_h_x</text>
</a>
</g>
</g>
<!-- Node2 -->
<g id="Node000002" class="node">
<title>Node2</title>
<g id="a_Node000002"><a xlink:href="classpism_1_1Diag.html" target="_top" xlink:title=" ">
<polygon fill="white" stroke="#666666" points="121,-86 0,-86 0,-67 121,-67 121,-86"/>
<text text-anchor="middle" x="60.5" y="-74" font-family="Helvetica,sans-Serif" font-size="10.00">pism::Diag&lt; SIAFD &gt;</text>
</a>
</g>
</g>
<!-- Node2&#45;&gt;Node1 -->
<g id="edge1_Node000001_Node000002" class="edge">
<title>Node2&#45;&gt;Node1</title>
<g id="a_edge1_Node000001_Node000002"><a xlink:title=" ">
<path fill="none" stroke="#63b8ff" d="M60.5,-56.73C60.5,-48.09 60.5,-38 60.5,-30.02"/>
<polygon fill="#63b8ff" stroke="#63b8ff" points="57,-56.98 60.5,-66.98 64,-56.98 57,-56.98"/>
</a>
</g>
</g>
<!-- Node3 -->
<g id="Node000003" class="node">
<title>Node3</title>
<g id="a_Node000003"><a xlink:href="classpism_1_1Diagnostic.html" target="_top" xlink:title="Class representing diagnostic computations in PISM.">
<polygon fill="white" stroke="#666666" points="105.5,-208 7.5,-208 7.5,-189 105.5,-189 105.5,-208"/>
<text text-anchor="middle" x="56.5" y="-196" font-family="Helvetica,sans-Serif" font-size="10.00">pism::Diagnostic</text>
</a>
</g>
</g>
<!-- Node3&#45;&gt;Node2 -->
<g id="edge2_Node000002_Node000003" class="edge">
<title>Node3&#45;&gt;Node2</title>
<g id="a_edge2_Node000002_Node000003"><a xlink:title=" ">
<path fill="none" stroke="#63b8ff" d="M57.13,-178.65C58.01,-152.22 59.57,-105.26 60.21,-86.05"/>
<polygon fill="#63b8ff" stroke="#63b8ff" points="53.62,-178.76 56.79,-188.87 60.62,-178.99 53.62,-178.76"/>
</a>
</g>
</g>
<!-- Node4 -->
<g id="Node000004" class="node">
<title>Node4</title>
<g id="a_Node000004"><a xlink:href="classpism_1_1Diag.html" target="_top" xlink:title="A template derived from Diagnostic, adding a &quot;Model&quot;.">
<polygon fill="white" stroke="#666666" points="194.5,-152 72.5,-152 72.5,-133 194.5,-133 194.5,-152"/>
<text text-anchor="middle" x="133.5" y="-140" font-family="Helvetica,sans-Serif" font-size="10.00">pism::Diag&lt; Model &gt;</text>
</a>
</g>
</g>
<!-- Node3&#45;&gt;Node4 -->
<g id="edge4_Node000004_Node000003" class="edge">
<title>Node3&#45;&gt;Node4</title>
<g id="a_edge4_Node000004_Node000003"><a xlink:title=" ">
<path fill="none" stroke="#63b8ff" d="M77.4,-182.84C91.41,-173.02 109.38,-160.41 121.16,-152.15"/>
<polygon fill="#63b8ff" stroke="#63b8ff" points="75.05,-180.22 68.87,-188.82 79.07,-185.95 75.05,-180.22"/>
</a>
</g>
</g>
<!-- Node4&#45;&gt;Node2 -->
<g id="edge3_Node000002_Node000004" class="edge">
<title>Node4&#45;&gt;Node2</title>
<g id="a_edge3_Node000002_Node000004"><a xlink:title=" ">
<path fill="none" stroke="orange" stroke-dasharray="5,2" d="M116.02,-126.18C101.86,-113.76 82.38,-96.68 70.66,-86.41"/>
<polygon fill="orange" stroke="orange" points="113.83,-128.91 123.65,-132.87 118.44,-123.64 113.83,-128.91"/>
</a>
</g>
<text text-anchor="middle" x="128" y="-107" font-family="Helvetica,sans-Serif" font-size="10.00" fill="grey"> &lt; SIAFD &gt;</text>
</g>
</g>
</svg>
