<?xml version="1.0" encoding="UTF-8" standalone="no"?>
<!DOCTYPE svg PUBLIC "-//W3C//DTD SVG 1.1//EN"
 "http://www.w3.org/Graphics/SVG/1.1/DTD/svg11.dtd">
<!-- Generated by graphviz version 2.43.0 (0)
 -->
<!-- Title: Graphical Class Hierarchy Pages: 1 -->
<svg width="337pt" height="370pt"
 viewBox="0.00 0.00 337.00 370.00" xmlns="http://www.w3.org/2000/svg" xmlns:xlink="http://www.w3.org/1999/xlink">
<g id="graph0" class="graph" transform="scale(1 1) rotate(0) translate(4 366)">
<title>Graphical Class Hierarchy</title>
<!-- Node0 -->
<g id="node1" class="node">
<title>Node0</title>
<g id="a_node1"><a xlink:href="classpism_1_1fem_1_1Quadrature.html" target="_top" xlink:title="Numerical integration of finite element functions.">
<polygon fill="none" stroke="black" points="0,-171.5 0,-190.5 127,-190.5 127,-171.5 0,-171.5"/>
<text text-anchor="middle" x="63.5" y="-178.5" font-family="Helvetica,sans-Serif" font-size="10.00">pism::fem::Quadrature</text>
</a>
</g>
</g>
<!-- Node1 -->
<g id="node2" class="node">
<title>Node1</title>
<g id="a_node2"><a xlink:href="classpism_1_1fem_1_1Gaussian2.html" target="_top" xlink:title=" ">
<polygon fill="none" stroke="black" points="184.5,-342.5 184.5,-361.5 307.5,-361.5 307.5,-342.5 184.5,-342.5"/>
<text text-anchor="middle" x="246" y="-349.5" font-family="Helvetica,sans-Serif" font-size="10.00">pism::fem::Gaussian2</text>
</a>
</g>
</g>
<!-- Node0&#45;&gt;Node1 -->
<g id="edge1" class="edge">
<title>Node0&#45;&gt;Node1</title>
<path fill="none" stroke="midnightblue" d="M71.46,-200.41C84.24,-233.15 114.66,-299.09 163,-333 169.46,-337.53 176.84,-341 184.47,-343.64"/>
<polygon fill="midnightblue" stroke="midnightblue" points="74.59,-198.8 67.8,-190.67 68.04,-201.26 74.59,-198.8"/>
</g>
<!-- Node2 -->
<g id="node3" class="node">
<title>Node2</title>
<g id="a_node3"><a xlink:href="classpism_1_1fem_1_1P1Quadrature3.html" target="_top" xlink:title=" ">
<polygon fill="none" stroke="black" points="173.5,-304.5 173.5,-323.5 318.5,-323.5 318.5,-304.5 173.5,-304.5"/>
<text text-anchor="middle" x="246" y="-311.5" font-family="Helvetica,sans-Serif" font-size="10.00">pism::fem::P1Quadrature3</text>
</a>
</g>
</g>
<!-- Node0&#45;&gt;Node2 -->
<g id="edge2" class="edge">
<title>Node0&#45;&gt;Node2</title>
<path fill="none" stroke="midnightblue" d="M75.2,-199.5C91.01,-225.11 123.09,-270.91 163,-295 169.38,-298.85 176.47,-301.92 183.74,-304.37"/>
<polygon fill="midnightblue" stroke="midnightblue" points="78.1,-197.54 69.95,-190.76 72.1,-201.14 78.1,-197.54"/>
</g>
<!-- Node3 -->
<g id="node4" class="node">
<title>Node3</title>
<g id="a_node4"><a xlink:href="classpism_1_1fem_1_1Q13DQuadrature1.html" target="_top" xlink:title=" ">
<polygon fill="none" stroke="black" points="166,-266.5 166,-285.5 326,-285.5 326,-266.5 166,-266.5"/>
<text text-anchor="middle" x="246" y="-273.5" font-family="Helvetica,sans-Serif" font-size="10.00">pism::fem::Q13DQuadrature1</text>
</a>
</g>
</g>
<!-- Node0&#45;&gt;Node3 -->
<g id="edge3" class="edge">
<title>Node0&#45;&gt;Node3</title>
<path fill="none" stroke="midnightblue" d="M81.2,-197.59C99.66,-214.99 131.03,-241.86 163,-257 171.19,-260.88 180.22,-263.99 189.21,-266.49"/>
<polygon fill="midnightblue" stroke="midnightblue" points="83.52,-194.97 73.89,-190.56 78.67,-200.01 83.52,-194.97"/>
</g>
<!-- Node4 -->
<g id="node5" class="node">
<title>Node4</title>
<g id="a_node5"><a xlink:href="classpism_1_1fem_1_1Q13DQuadrature64.html" target="_top" xlink:title=" ">
<polygon fill="none" stroke="black" points="163,-228.5 163,-247.5 329,-247.5 329,-228.5 163,-228.5"/>
<text text-anchor="middle" x="246" y="-235.5" font-family="Helvetica,sans-Serif" font-size="10.00">pism::fem::Q13DQuadrature64</text>
</a>
</g>
</g>
<!-- Node0&#45;&gt;Node4 -->
<g id="edge4" class="edge">
<title>Node0&#45;&gt;Node4</title>
<path fill="none" stroke="midnightblue" d="M95.91,-194.42C115.07,-202.27 140.17,-211.99 163,-219 174.45,-222.52 186.98,-225.73 198.73,-228.47"/>
<polygon fill="midnightblue" stroke="midnightblue" points="97.06,-191.11 86.49,-190.51 94.38,-197.57 97.06,-191.11"/>
</g>
<!-- Node5 -->
<g id="node6" class="node">
<title>Node5</title>
<g id="a_node6"><a xlink:href="classpism_1_1fem_1_1Q13DQuadrature8.html" target="_top" xlink:title=" ">
<polygon fill="none" stroke="black" points="166,-190.5 166,-209.5 326,-209.5 326,-190.5 166,-190.5"/>
<text text-anchor="middle" x="246" y="-197.5" font-family="Helvetica,sans-Serif" font-size="10.00">pism::fem::Q13DQuadrature8</text>
</a>
</g>
</g>
<!-- Node0&#45;&gt;Node5 -->
<g id="edge5" class="edge">
<title>Node0&#45;&gt;Node5</title>
<path fill="none" stroke="midnightblue" d="M137.25,-188.66C146.7,-189.65 156.41,-190.67 165.95,-191.68"/>
<polygon fill="midnightblue" stroke="midnightblue" points="137.44,-185.16 127.12,-187.59 136.7,-192.12 137.44,-185.16"/>
</g>
<!-- Node6 -->
<g id="node7" class="node">
<title>Node6</title>
<g id="a_node7"><a xlink:href="classpism_1_1fem_1_1Q1Quadrature1.html" target="_top" xlink:title="The 1&#45;point Gaussian quadrature on the square [&#45;1,1]*[&#45;1,1].">
<polygon fill="none" stroke="black" points="173,-152.5 173,-171.5 319,-171.5 319,-152.5 173,-152.5"/>
<text text-anchor="middle" x="246" y="-159.5" font-family="Helvetica,sans-Serif" font-size="10.00">pism::fem::Q1Quadrature1</text>
</a>
</g>
</g>
<!-- Node0&#45;&gt;Node6 -->
<g id="edge6" class="edge">
<title>Node0&#45;&gt;Node6</title>
<path fill="none" stroke="midnightblue" d="M137.31,-173.34C149.04,-172.1 161.17,-170.82 172.89,-169.59"/>
<polygon fill="midnightblue" stroke="midnightblue" points="136.7,-169.88 127.12,-174.41 137.44,-176.84 136.7,-169.88"/>
</g>
<!-- Node7 -->
<g id="node8" class="node">
<title>Node7</title>
<g id="a_node8"><a xlink:href="classpism_1_1fem_1_1Q1Quadrature16.html" target="_top" xlink:title="The 16&#45;point Gaussian quadrature on the square [&#45;1,1]*[&#45;1,1].">
<polygon fill="none" stroke="black" points="170,-114.5 170,-133.5 322,-133.5 322,-114.5 170,-114.5"/>
<text text-anchor="middle" x="246" y="-121.5" font-family="Helvetica,sans-Serif" font-size="10.00">pism::fem::Q1Quadrature16</text>
</a>
</g>
</g>
<!-- Node0&#45;&gt;Node7 -->
<g id="edge7" class="edge">
<title>Node0&#45;&gt;Node7</title>
<path fill="none" stroke="midnightblue" d="M95.91,-167.58C115.07,-159.73 140.17,-150.01 163,-143 174.45,-139.48 186.98,-136.27 198.73,-133.53"/>
<polygon fill="midnightblue" stroke="midnightblue" points="94.38,-164.43 86.49,-171.49 97.06,-170.89 94.38,-164.43"/>
</g>
<!-- Node8 -->
<g id="node9" class="node">
<title>Node8</title>
<g id="a_node9"><a xlink:href="classpism_1_1fem_1_1Q1Quadrature4.html" target="_top" xlink:title="The 4&#45;point Gaussian quadrature on the square [&#45;1,1]*[&#45;1,1].">
<polygon fill="none" stroke="black" points="173,-76.5 173,-95.5 319,-95.5 319,-76.5 173,-76.5"/>
<text text-anchor="middle" x="246" y="-83.5" font-family="Helvetica,sans-Serif" font-size="10.00">pism::fem::Q1Quadrature4</text>
</a>
</g>
</g>
<!-- Node0&#45;&gt;Node8 -->
<g id="edge8" class="edge">
<title>Node0&#45;&gt;Node8</title>
<path fill="none" stroke="midnightblue" d="M81.2,-164.41C99.66,-147.01 131.03,-120.14 163,-105 171.19,-101.12 180.22,-98.01 189.21,-95.51"/>
<polygon fill="midnightblue" stroke="midnightblue" points="78.67,-161.99 73.89,-171.44 83.52,-167.03 78.67,-161.99"/>
</g>
<!-- Node9 -->
<g id="node10" class="node">
<title>Node9</title>
<g id="a_node10"><a xlink:href="classpism_1_1fem_1_1Q1Quadrature9.html" target="_top" xlink:title="The 9&#45;point Gaussian quadrature on the square [&#45;1,1]*[&#45;1,1].">
<polygon fill="none" stroke="black" points="173,-38.5 173,-57.5 319,-57.5 319,-38.5 173,-38.5"/>
<text text-anchor="middle" x="246" y="-45.5" font-family="Helvetica,sans-Serif" font-size="10.00">pism::fem::Q1Quadrature9</text>
</a>
</g>
</g>
<!-- Node0&#45;&gt;Node9 -->
<g id="edge9" class="edge">
<title>Node0&#45;&gt;Node9</title>
<path fill="none" stroke="midnightblue" d="M75.2,-162.5C91.01,-136.89 123.09,-91.09 163,-67 169.38,-63.15 176.47,-60.08 183.74,-57.63"/>
<polygon fill="midnightblue" stroke="midnightblue" points="72.1,-160.86 69.95,-171.24 78.1,-164.46 72.1,-160.86"/>
</g>
<!-- Node10 -->
<g id="node11" class="node">
<title>Node10</title>
<g id="a_node11"><a xlink:href="classpism_1_1fem_1_1Q1QuadratureN.html" target="_top" xlink:title=" ">
<polygon fill="none" stroke="black" points="172,-0.5 172,-19.5 320,-19.5 320,-0.5 172,-0.5"/>
<text text-anchor="middle" x="246" y="-7.5" font-family="Helvetica,sans-Serif" font-size="10.00">pism::fem::Q1QuadratureN</text>
</a>
</g>
</g>
<!-- Node0&#45;&gt;Node10 -->
<g id="edge10" class="edge">
<title>Node0&#45;&gt;Node10</title>
<path fill="none" stroke="midnightblue" d="M71.46,-161.59C84.24,-128.85 114.66,-62.91 163,-29 168.5,-25.14 174.68,-22.05 181.1,-19.59"/>
<polygon fill="midnightblue" stroke="midnightblue" points="68.04,-160.74 67.8,-171.33 74.59,-163.2 68.04,-160.74"/>
</g>
</g>
</svg>
