<?xml version="1.0" encoding="UTF-8" standalone="no"?>
<!DOCTYPE svg PUBLIC "-//W3C//DTD SVG 1.1//EN"
 "http://www.w3.org/Graphics/SVG/1.1/DTD/svg11.dtd">
<!-- Generated by graphviz version 2.43.0 (0)
 -->
<!-- Title: Graphical Class Hierarchy Pages: 1 -->
<svg width="444pt" height="104pt"
 viewBox="0.00 0.00 444.00 104.00" xmlns="http://www.w3.org/2000/svg" xmlns:xlink="http://www.w3.org/1999/xlink">
<g id="graph0" class="graph" transform="scale(1 1) rotate(0) translate(4 100)">
<title>Graphical Class Hierarchy</title>
<!-- Node0 -->
<g id="node1" class="node">
<title>Node0</title>
<g id="a_node1"><a xlink:href="classpism_1_1fem_1_1Element.html" target="_top" xlink:title="The mapping from global to local degrees of freedom.">
<polygon fill="none" stroke="black" points="0,-19.5 0,-38.5 113,-38.5 113,-19.5 0,-19.5"/>
<text text-anchor="middle" x="56.5" y="-26.5" font-family="Helvetica,sans-Serif" font-size="10.00">pism::fem::Element</text>
</a>
</g>
</g>
<!-- Node1 -->
<g id="node2" class="node">
<title>Node1</title>
<g id="a_node2"><a xlink:href="classpism_1_1fem_1_1Element2.html" target="_top" xlink:title=" ">
<polygon fill="none" stroke="black" points="149,-38.5 149,-57.5 268,-57.5 268,-38.5 149,-38.5"/>
<text text-anchor="middle" x="208.5" y="-45.5" font-family="Helvetica,sans-Serif" font-size="10.00">pism::fem::Element2</text>
</a>
</g>
</g>
<!-- Node0&#45;&gt;Node1 -->
<g id="edge1" class="edge">
<title>Node0&#45;&gt;Node1</title>
<path fill="none" stroke="midnightblue" d="M123.53,-37.36C131.96,-38.43 140.54,-39.52 148.84,-40.57"/>
<polygon fill="midnightblue" stroke="midnightblue" points="123.72,-33.86 113.35,-36.07 122.84,-40.8 123.72,-33.86"/>
</g>
<!-- Node4 -->
<g id="node5" class="node">
<title>Node4</title>
<g id="a_node5"><a xlink:href="classpism_1_1fem_1_1Element3.html" target="_top" xlink:title=" ">
<polygon fill="none" stroke="black" points="149,-0.5 149,-19.5 268,-19.5 268,-0.5 149,-0.5"/>
<text text-anchor="middle" x="208.5" y="-7.5" font-family="Helvetica,sans-Serif" font-size="10.00">pism::fem::Element3</text>
</a>
</g>
</g>
<!-- Node0&#45;&gt;Node4 -->
<g id="edge4" class="edge">
<title>Node0&#45;&gt;Node4</title>
<path fill="none" stroke="midnightblue" d="M123.53,-20.64C131.96,-19.57 140.54,-18.48 148.84,-17.43"/>
<polygon fill="midnightblue" stroke="midnightblue" points="122.84,-17.2 113.35,-21.93 123.72,-24.14 122.84,-17.2"/>
</g>
<!-- Node2 -->
<g id="node3" class="node">
<title>Node2</title>
<g id="a_node3"><a xlink:href="classpism_1_1fem_1_1P1Element2.html" target="_top" xlink:title="P1 element embedded in Q1Element2.">
<polygon fill="none" stroke="black" points="304.5,-76.5 304.5,-95.5 435.5,-95.5 435.5,-76.5 304.5,-76.5"/>
<text text-anchor="middle" x="370" y="-83.5" font-family="Helvetica,sans-Serif" font-size="10.00">pism::fem::P1Element2</text>
</a>
</g>
</g>
<!-- Node1&#45;&gt;Node2 -->
<g id="edge2" class="edge">
<title>Node1&#45;&gt;Node2</title>
<path fill="none" stroke="midnightblue" d="M259.73,-59.97C282.09,-65.29 308.04,-71.48 329.04,-76.48"/>
<polygon fill="midnightblue" stroke="midnightblue" points="260.29,-56.5 249.75,-57.59 258.67,-63.31 260.29,-56.5"/>
</g>
<!-- Node3 -->
<g id="node4" class="node">
<title>Node3</title>
<g id="a_node4"><a xlink:href="classpism_1_1fem_1_1Q1Element2.html" target="_top" xlink:title="Q1 element with sides parallel to X and Y axes.">
<polygon fill="none" stroke="black" points="304,-38.5 304,-57.5 436,-57.5 436,-38.5 304,-38.5"/>
<text text-anchor="middle" x="370" y="-45.5" font-family="Helvetica,sans-Serif" font-size="10.00">pism::fem::Q1Element2</text>
</a>
</g>
</g>
<!-- Node1&#45;&gt;Node3 -->
<g id="edge3" class="edge">
<title>Node1&#45;&gt;Node3</title>
<path fill="none" stroke="midnightblue" d="M278.57,-48C286.97,-48 295.53,-48 303.86,-48"/>
<polygon fill="midnightblue" stroke="midnightblue" points="278.44,-44.5 268.44,-48 278.44,-51.5 278.44,-44.5"/>
</g>
<!-- Node5 -->
<g id="node6" class="node">
<title>Node5</title>
<g id="a_node6"><a xlink:href="classpism_1_1fem_1_1Q1Element3.html" target="_top" xlink:title="3D Q1 element">
<polygon fill="none" stroke="black" points="304,-0.5 304,-19.5 436,-19.5 436,-0.5 304,-0.5"/>
<text text-anchor="middle" x="370" y="-7.5" font-family="Helvetica,sans-Serif" font-size="10.00">pism::fem::Q1Element3</text>
</a>
</g>
</g>
<!-- Node4&#45;&gt;Node5 -->
<g id="edge5" class="edge">
<title>Node4&#45;&gt;Node5</title>
<path fill="none" stroke="midnightblue" d="M278.57,-10C286.97,-10 295.53,-10 303.86,-10"/>
<polygon fill="midnightblue" stroke="midnightblue" points="278.44,-6.5 268.44,-10 278.44,-13.5 278.44,-6.5"/>
</g>
</g>
</svg>
