<?xml version="1.0" encoding="UTF-8" standalone="no"?>
<!DOCTYPE svg PUBLIC "-//W3C//DTD SVG 1.1//EN"
 "http://www.w3.org/Graphics/SVG/1.1/DTD/svg11.dtd">
<!-- Generated by graphviz version 2.43.0 (0)
 -->
<!-- Title: Graphical Class Hierarchy Pages: 1 -->
<svg width="973pt" height="1762pt"
 viewBox="0.00 0.00 973.00 1762.00" xmlns="http://www.w3.org/2000/svg" xmlns:xlink="http://www.w3.org/1999/xlink">
<g id="graph0" class="graph" transform="scale(1 1) rotate(0) translate(4 1758)">
<title>Graphical Class Hierarchy</title>
<!-- Node0 -->
<g id="node1" class="node">
<title>Node0</title>
<g id="a_node1"><a xlink:href="classpism_1_1TSDiagnostic.html" target="_top" xlink:title="PISM&#39;s scalar time&#45;series diagnostics.">
<polygon fill="none" stroke="black" points="0,-951 0,-970 110,-970 110,-951 0,-951"/>
<text text-anchor="middle" x="55" y="-958" font-family="Helvetica,sans-Serif" font-size="10.00">pism::TSDiagnostic</text>
</a>
</g>
</g>
<!-- Node1 -->
<g id="node2" class="node">
<title>Node1</title>
<g id="a_node2"><a xlink:href="classpism_1_1TSRateDiagnostic.html" target="_top" xlink:title="Scalar diagnostic reporting the rate of change of a quantity modeled by PISM.">
<polygon fill="none" stroke="black" points="157,-1273 157,-1292 290,-1292 290,-1273 157,-1273"/>
<text text-anchor="middle" x="223.5" y="-1280" font-family="Helvetica,sans-Serif" font-size="10.00">pism::TSRateDiagnostic</text>
</a>
</g>
</g>
<!-- Node0&#45;&gt;Node1 -->
<g id="edge1" class="edge">
<title>Node0&#45;&gt;Node1</title>
<path fill="none" stroke="midnightblue" d="M65.72,-979.3C97.01,-1039.81 194.41,-1228.17 217.54,-1272.9"/>
<polygon fill="midnightblue" stroke="midnightblue" points="68.69,-977.41 60.98,-970.14 62.47,-980.63 68.69,-977.41"/>
</g>
<!-- Node24 -->
<g id="node25" class="node">
<title>Node24</title>
<g id="a_node25"><a xlink:href="classpism_1_1TSSnapshotDiagnostic.html" target="_top" xlink:title="Scalar diagnostic reporting a snapshot of a quantity modeled by PISM.">
<polygon fill="none" stroke="black" points="146,-932 146,-951 301,-951 301,-932 146,-932"/>
<text text-anchor="middle" x="223.5" y="-939" font-family="Helvetica,sans-Serif" font-size="10.00">pism::TSSnapshotDiagnostic</text>
</a>
</g>
</g>
<!-- Node0&#45;&gt;Node24 -->
<g id="edge24" class="edge">
<title>Node0&#45;&gt;Node24</title>
<path fill="none" stroke="midnightblue" d="M120.12,-953.18C128.51,-952.23 137.16,-951.24 145.73,-950.26"/>
<polygon fill="midnightblue" stroke="midnightblue" points="119.6,-949.72 110.06,-954.33 120.39,-956.67 119.6,-949.72"/>
</g>
<!-- Node2 -->
<g id="node3" class="node">
<title>Node2</title>
<g id="a_node3"><a xlink:href="classpism_1_1TSDiag.html" target="_top" xlink:title=" ">
<polygon fill="none" stroke="black" points="337,-1582.5 337,-1612.5 519,-1612.5 519,-1582.5 337,-1582.5"/>
<text text-anchor="start" x="345" y="-1600.5" font-family="Helvetica,sans-Serif" font-size="10.00">pism::TSDiag&lt; TSRateDiagnostic,</text>
<text text-anchor="middle" x="428" y="-1589.5" font-family="Helvetica,sans-Serif" font-size="10.00"> IceModel &gt;</text>
</a>
</g>
</g>
<!-- Node1&#45;&gt;Node2 -->
<g id="edge2" class="edge">
<title>Node1&#45;&gt;Node2</title>
<path fill="none" stroke="midnightblue" d="M236.36,-1300.95C272.96,-1357.87 383.66,-1530.07 417.24,-1582.31"/>
<polygon fill="midnightblue" stroke="midnightblue" points="239.13,-1298.79 230.78,-1292.27 233.25,-1302.58 239.13,-1298.79"/>
</g>
<!-- Node7 -->
<g id="node8" class="node">
<title>Node7</title>
<g id="a_node8"><a xlink:href="classpism_1_1TSFluxDiagnostic.html" target="_top" xlink:title="Scalar diagnostic reporting a &quot;flux&quot;.">
<polygon fill="none" stroke="black" points="362.5,-1273 362.5,-1292 493.5,-1292 493.5,-1273 362.5,-1273"/>
<text text-anchor="middle" x="428" y="-1280" font-family="Helvetica,sans-Serif" font-size="10.00">pism::TSFluxDiagnostic</text>
</a>
</g>
</g>
<!-- Node1&#45;&gt;Node7 -->
<g id="edge7" class="edge">
<title>Node1&#45;&gt;Node7</title>
<path fill="none" stroke="midnightblue" d="M300.42,-1282.5C320.77,-1282.5 342.59,-1282.5 362.28,-1282.5"/>
<polygon fill="midnightblue" stroke="midnightblue" points="300.25,-1279 290.25,-1282.5 300.25,-1286 300.25,-1279"/>
</g>
<!-- Node3 -->
<g id="node4" class="node">
<title>Node3</title>
<g id="a_node4"><a xlink:href="classpism_1_1diagnostics_1_1scalar_1_1IceMassRateOfChange.html" target="_top" xlink:title="Computes the rate of change of the total ice mass.">
<polygon fill="none" stroke="black" points="564,-1692.5 564,-1722.5 726,-1722.5 726,-1692.5 564,-1692.5"/>
<text text-anchor="start" x="572" y="-1710.5" font-family="Helvetica,sans-Serif" font-size="10.00">pism::diagnostics::</text>
<text text-anchor="middle" x="645" y="-1699.5" font-family="Helvetica,sans-Serif" font-size="10.00">scalar::IceMassRateOfChange</text>
</a>
</g>
</g>
<!-- Node2&#45;&gt;Node3 -->
<g id="edge3" class="edge">
<title>Node2&#45;&gt;Node3</title>
<path fill="none" stroke="midnightblue" d="M455.57,-1619.15C480.09,-1638.18 518.16,-1665.44 555,-1682.5 563.16,-1686.28 572,-1689.6 580.85,-1692.48"/>
<polygon fill="midnightblue" stroke="midnightblue" points="457.52,-1616.22 447.49,-1612.79 453.19,-1621.72 457.52,-1616.22"/>
</g>
<!-- Node4 -->
<g id="node5" class="node">
<title>Node4</title>
<g id="a_node5"><a xlink:href="classpism_1_1diagnostics_1_1scalar_1_1IceMassRateOfChangeGlacierized.html" target="_top" xlink:title="Computes the rate of change of the total ice mass in glacierized areas.">
<polygon fill="none" stroke="black" points="564,-1632 564,-1673 726,-1673 726,-1632 564,-1632"/>
<text text-anchor="start" x="572" y="-1661" font-family="Helvetica,sans-Serif" font-size="10.00">pism::diagnostics::</text>
<text text-anchor="start" x="572" y="-1650" font-family="Helvetica,sans-Serif" font-size="10.00">scalar::IceMassRateOfChange</text>
<text text-anchor="middle" x="645" y="-1639" font-family="Helvetica,sans-Serif" font-size="10.00">Glacierized</text>
</a>
</g>
</g>
<!-- Node2&#45;&gt;Node4 -->
<g id="edge4" class="edge">
<title>Node2&#45;&gt;Node4</title>
<path fill="none" stroke="midnightblue" d="M497.59,-1615.05C518.71,-1620.45 542.14,-1626.44 563.96,-1632.02"/>
<polygon fill="midnightblue" stroke="midnightblue" points="498.31,-1611.62 487.75,-1612.53 496.57,-1618.4 498.31,-1611.62"/>
</g>
<!-- Node5 -->
<g id="node6" class="node">
<title>Node5</title>
<g id="a_node6"><a xlink:href="classpism_1_1diagnostics_1_1scalar_1_1IceVolumeRateOfChange.html" target="_top" xlink:title="Computes the rate of change of the total ice volume.">
<polygon fill="none" stroke="black" points="558.5,-1582.5 558.5,-1612.5 731.5,-1612.5 731.5,-1582.5 558.5,-1582.5"/>
<text text-anchor="start" x="566.5" y="-1600.5" font-family="Helvetica,sans-Serif" font-size="10.00">pism::diagnostics::</text>
<text text-anchor="middle" x="645" y="-1589.5" font-family="Helvetica,sans-Serif" font-size="10.00">scalar::IceVolumeRateOfChange</text>
</a>
</g>
</g>
<!-- Node2&#45;&gt;Node5 -->
<g id="edge5" class="edge">
<title>Node2&#45;&gt;Node5</title>
<path fill="none" stroke="midnightblue" d="M529.34,-1597.5C539.07,-1597.5 548.88,-1597.5 558.45,-1597.5"/>
<polygon fill="midnightblue" stroke="midnightblue" points="529.24,-1594 519.24,-1597.5 529.24,-1601 529.24,-1594"/>
</g>
<!-- Node6 -->
<g id="node7" class="node">
<title>Node6</title>
<g id="a_node7"><a xlink:href="classpism_1_1diagnostics_1_1scalar_1_1IceVolumeRateOfChangeGlacierized.html" target="_top" xlink:title="Computes the rate of change of the total ice volume in glacierized areas.">
<polygon fill="none" stroke="black" points="558.5,-1522 558.5,-1563 731.5,-1563 731.5,-1522 558.5,-1522"/>
<text text-anchor="start" x="566.5" y="-1551" font-family="Helvetica,sans-Serif" font-size="10.00">pism::diagnostics::</text>
<text text-anchor="start" x="566.5" y="-1540" font-family="Helvetica,sans-Serif" font-size="10.00">scalar::IceVolumeRateOfChange</text>
<text text-anchor="middle" x="645" y="-1529" font-family="Helvetica,sans-Serif" font-size="10.00">Glacierized</text>
</a>
</g>
</g>
<!-- Node2&#45;&gt;Node6 -->
<g id="edge6" class="edge">
<title>Node2&#45;&gt;Node6</title>
<path fill="none" stroke="midnightblue" d="M497.54,-1579.97C518.54,-1574.59 541.84,-1568.63 563.56,-1563.08"/>
<polygon fill="midnightblue" stroke="midnightblue" points="496.57,-1576.6 487.75,-1582.47 498.31,-1583.38 496.57,-1576.6"/>
</g>
<!-- Node8 -->
<g id="node9" class="node">
<title>Node8</title>
<g id="a_node9"><a xlink:href="classpism_1_1TSDiag.html" target="_top" xlink:title=" ">
<polygon fill="none" stroke="black" points="555,-1472.5 555,-1502.5 735,-1502.5 735,-1472.5 555,-1472.5"/>
<text text-anchor="start" x="563" y="-1490.5" font-family="Helvetica,sans-Serif" font-size="10.00">pism::TSDiag&lt; TSFluxDiagnostic,</text>
<text text-anchor="middle" x="645" y="-1479.5" font-family="Helvetica,sans-Serif" font-size="10.00"> IceModel &gt;</text>
</a>
</g>
</g>
<!-- Node7&#45;&gt;Node8 -->
<g id="edge8" class="edge">
<title>Node7&#45;&gt;Node8</title>
<path fill="none" stroke="midnightblue" d="M446.41,-1299.1C487.27,-1338.06 588.84,-1434.9 628.13,-1472.37"/>
<polygon fill="midnightblue" stroke="midnightblue" points="448.73,-1296.48 439.08,-1292.11 443.9,-1301.55 448.73,-1296.48"/>
</g>
<!-- Node18 -->
<g id="node19" class="node">
<title>Node18</title>
<g id="a_node19"><a xlink:href="classpism_1_1TSDiag.html" target="_top" xlink:title=" ">
<polygon fill="none" stroke="black" points="555,-1267.5 555,-1297.5 735,-1297.5 735,-1267.5 555,-1267.5"/>
<text text-anchor="start" x="563" y="-1285.5" font-family="Helvetica,sans-Serif" font-size="10.00">pism::TSDiag&lt; TSFluxDiagnostic,</text>
<text text-anchor="middle" x="645" y="-1274.5" font-family="Helvetica,sans-Serif" font-size="10.00"> EnergyModel &gt;</text>
</a>
</g>
</g>
<!-- Node7&#45;&gt;Node18 -->
<g id="edge18" class="edge">
<title>Node7&#45;&gt;Node18</title>
<path fill="none" stroke="midnightblue" d="M503.64,-1282.5C520.17,-1282.5 537.85,-1282.5 554.89,-1282.5"/>
<polygon fill="midnightblue" stroke="midnightblue" points="503.51,-1279 493.51,-1282.5 503.51,-1286 503.51,-1279"/>
</g>
<!-- Node20 -->
<g id="node21" class="node">
<title>Node20</title>
<g id="a_node21"><a xlink:href="classpism_1_1TSDiag.html" target="_top" xlink:title=" ">
<polygon fill="none" stroke="black" points="555,-1218.5 555,-1248.5 735,-1248.5 735,-1218.5 555,-1218.5"/>
<text text-anchor="start" x="563" y="-1236.5" font-family="Helvetica,sans-Serif" font-size="10.00">pism::TSDiag&lt; TSFluxDiagnostic,</text>
<text text-anchor="middle" x="645" y="-1225.5" font-family="Helvetica,sans-Serif" font-size="10.00"> SurfaceModel &gt;</text>
</a>
</g>
</g>
<!-- Node7&#45;&gt;Node20 -->
<g id="edge20" class="edge">
<title>Node7&#45;&gt;Node20</title>
<path fill="none" stroke="midnightblue" d="M480.69,-1270.72C509.86,-1264.07 546.62,-1255.69 577.87,-1248.57"/>
<polygon fill="midnightblue" stroke="midnightblue" points="479.68,-1267.36 470.71,-1272.99 481.24,-1274.18 479.68,-1267.36"/>
</g>
<!-- Node9 -->
<g id="node10" class="node">
<title>Node9</title>
<g id="a_node10"><a xlink:href="classpism_1_1diagnostics_1_1scalar_1_1IceMassFluxAtGroundingLine.html" target="_top" xlink:title="Reports the total flux across the grounding line.">
<polygon fill="none" stroke="black" points="771,-1723.5 771,-1753.5 965,-1753.5 965,-1723.5 771,-1723.5"/>
<text text-anchor="start" x="779" y="-1741.5" font-family="Helvetica,sans-Serif" font-size="10.00">pism::diagnostics::</text>
<text text-anchor="middle" x="868" y="-1730.5" font-family="Helvetica,sans-Serif" font-size="10.00">scalar::IceMassFluxAtGroundingLine</text>
</a>
</g>
</g>
<!-- Node8&#45;&gt;Node9 -->
<g id="edge9" class="edge">
<title>Node8&#45;&gt;Node9</title>
<path fill="none" stroke="midnightblue" d="M731.26,-1508.77C732.57,-1509.95 733.81,-1511.19 735,-1512.5 796.26,-1580.05 708.77,-1647.84 771,-1714.5 774.17,-1717.89 777.73,-1720.83 781.58,-1723.38"/>
<polygon fill="midnightblue" stroke="midnightblue" points="733.33,-1505.95 723.25,-1502.69 729.1,-1511.52 733.33,-1505.95"/>
</g>
<!-- Node10 -->
<g id="node11" class="node">
<title>Node10</title>
<g id="a_node11"><a xlink:href="classpism_1_1diagnostics_1_1scalar_1_1IceMassFluxBasal.html" target="_top" xlink:title="Reports the total bottom surface ice flux.">
<polygon fill="none" stroke="black" points="798,-1674.5 798,-1704.5 938,-1704.5 938,-1674.5 798,-1674.5"/>
<text text-anchor="start" x="806" y="-1692.5" font-family="Helvetica,sans-Serif" font-size="10.00">pism::diagnostics::</text>
<text text-anchor="middle" x="868" y="-1681.5" font-family="Helvetica,sans-Serif" font-size="10.00">scalar::IceMassFluxBasal</text>
</a>
</g>
</g>
<!-- Node8&#45;&gt;Node10 -->
<g id="edge10" class="edge">
<title>Node8&#45;&gt;Node10</title>
<path fill="none" stroke="midnightblue" d="M731.04,-1508.76C732.42,-1509.94 733.74,-1511.19 735,-1512.5 783.33,-1562.94 721.95,-1615.76 771,-1665.5 778.36,-1672.96 787.66,-1678.23 797.56,-1681.93"/>
<polygon fill="midnightblue" stroke="midnightblue" points="732.76,-1505.68 722.6,-1502.66 728.66,-1511.35 732.76,-1505.68"/>
</g>
<!-- Node11 -->
<g id="node12" class="node">
<title>Node11</title>
<g id="a_node12"><a xlink:href="classpism_1_1diagnostics_1_1scalar_1_1IceMassFluxBasalFloating.html" target="_top" xlink:title="Reports the total sub&#45;shelf ice flux.">
<polygon fill="none" stroke="black" points="778.5,-1625.5 778.5,-1655.5 957.5,-1655.5 957.5,-1625.5 778.5,-1625.5"/>
<text text-anchor="start" x="786.5" y="-1643.5" font-family="Helvetica,sans-Serif" font-size="10.00">pism::diagnostics::</text>
<text text-anchor="middle" x="868" y="-1632.5" font-family="Helvetica,sans-Serif" font-size="10.00">scalar::IceMassFluxBasalFloating</text>
</a>
</g>
</g>
<!-- Node8&#45;&gt;Node11 -->
<g id="edge11" class="edge">
<title>Node8&#45;&gt;Node11</title>
<path fill="none" stroke="midnightblue" d="M729.76,-1508.09C731.59,-1509.47 733.34,-1510.93 735,-1512.5 770.6,-1546.04 734.92,-1583.47 771,-1616.5 774.67,-1619.86 778.75,-1622.77 783.08,-1625.29"/>
<polygon fill="midnightblue" stroke="midnightblue" points="731.62,-1505.12 721.32,-1502.61 727.81,-1510.99 731.62,-1505.12"/>
</g>
<!-- Node12 -->
<g id="node13" class="node">
<title>Node12</title>
<g id="a_node13"><a xlink:href="classpism_1_1diagnostics_1_1scalar_1_1IceMassFluxBasalGrounded.html" target="_top" xlink:title="Reports the total basal ice flux over the grounded region.">
<polygon fill="none" stroke="black" points="774.5,-1576.5 774.5,-1606.5 961.5,-1606.5 961.5,-1576.5 774.5,-1576.5"/>
<text text-anchor="start" x="782.5" y="-1594.5" font-family="Helvetica,sans-Serif" font-size="10.00">pism::diagnostics::</text>
<text text-anchor="middle" x="868" y="-1583.5" font-family="Helvetica,sans-Serif" font-size="10.00">scalar::IceMassFluxBasalGrounded</text>
</a>
</g>
</g>
<!-- Node8&#45;&gt;Node12 -->
<g id="edge12" class="edge">
<title>Node8&#45;&gt;Node12</title>
<path fill="none" stroke="midnightblue" d="M726.64,-1507.11C729.55,-1508.76 732.35,-1510.55 735,-1512.5 758.56,-1529.77 747.19,-1550.57 771,-1567.5 775.76,-1570.88 780.95,-1573.79 786.37,-1576.29"/>
<polygon fill="midnightblue" stroke="midnightblue" points="728.15,-1503.95 717.65,-1502.55 724.99,-1510.19 728.15,-1503.95"/>
</g>
<!-- Node13 -->
<g id="node14" class="node">
<title>Node13</title>
<g id="a_node14"><a xlink:href="classpism_1_1diagnostics_1_1scalar_1_1IceMassFluxCalving.html" target="_top" xlink:title="Reports the total calving flux.">
<polygon fill="none" stroke="black" points="793.5,-1527.5 793.5,-1557.5 942.5,-1557.5 942.5,-1527.5 793.5,-1527.5"/>
<text text-anchor="start" x="801.5" y="-1545.5" font-family="Helvetica,sans-Serif" font-size="10.00">pism::diagnostics::</text>
<text text-anchor="middle" x="868" y="-1534.5" font-family="Helvetica,sans-Serif" font-size="10.00">scalar::IceMassFluxCalving</text>
</a>
</g>
</g>
<!-- Node8&#45;&gt;Node13 -->
<g id="edge13" class="edge">
<title>Node8&#45;&gt;Node13</title>
<path fill="none" stroke="midnightblue" d="M716.47,-1505.04C745.5,-1512.26 778.8,-1520.55 806.68,-1527.49"/>
<polygon fill="midnightblue" stroke="midnightblue" points="716.94,-1501.55 706.39,-1502.53 715.25,-1508.34 716.94,-1501.55"/>
</g>
<!-- Node14 -->
<g id="node15" class="node">
<title>Node14</title>
<g id="a_node15"><a xlink:href="classpism_1_1diagnostics_1_1scalar_1_1IceMassFluxConservationError.html" target="_top" xlink:title="Reports the total numerical mass flux needed to preserve non&#45;negativity of ice thickness.">
<polygon fill="none" stroke="black" points="779.5,-1467 779.5,-1508 956.5,-1508 956.5,-1467 779.5,-1467"/>
<text text-anchor="start" x="787.5" y="-1496" font-family="Helvetica,sans-Serif" font-size="10.00">pism::diagnostics::</text>
<text text-anchor="start" x="787.5" y="-1485" font-family="Helvetica,sans-Serif" font-size="10.00">scalar::IceMassFluxConservation</text>
<text text-anchor="middle" x="868" y="-1474" font-family="Helvetica,sans-Serif" font-size="10.00">Error</text>
</a>
</g>
</g>
<!-- Node8&#45;&gt;Node14 -->
<g id="edge14" class="edge">
<title>Node8&#45;&gt;Node14</title>
<path fill="none" stroke="midnightblue" d="M745.51,-1487.5C756.75,-1487.5 768.14,-1487.5 779.21,-1487.5"/>
<polygon fill="midnightblue" stroke="midnightblue" points="745.25,-1484 735.25,-1487.5 745.25,-1491 745.25,-1484"/>
</g>
<!-- Node15 -->
<g id="node16" class="node">
<title>Node15</title>
<g id="a_node16"><a xlink:href="classpism_1_1diagnostics_1_1scalar_1_1IceMassFluxDischarge.html" target="_top" xlink:title="Reports the total discharge flux.">
<polygon fill="none" stroke="black" points="787.5,-1417.5 787.5,-1447.5 948.5,-1447.5 948.5,-1417.5 787.5,-1417.5"/>
<text text-anchor="start" x="795.5" y="-1435.5" font-family="Helvetica,sans-Serif" font-size="10.00">pism::diagnostics::</text>
<text text-anchor="middle" x="868" y="-1424.5" font-family="Helvetica,sans-Serif" font-size="10.00">scalar::IceMassFluxDischarge</text>
</a>
</g>
</g>
<!-- Node8&#45;&gt;Node15 -->
<g id="edge15" class="edge">
<title>Node8&#45;&gt;Node15</title>
<path fill="none" stroke="midnightblue" d="M716.47,-1469.96C745.5,-1462.74 778.8,-1454.45 806.68,-1447.51"/>
<polygon fill="midnightblue" stroke="midnightblue" points="715.25,-1466.66 706.39,-1472.47 716.94,-1473.45 715.25,-1466.66"/>
</g>
<!-- Node16 -->
<g id="node17" class="node">
<title>Node16</title>
<g id="a_node17"><a xlink:href="classpism_1_1diagnostics_1_1scalar_1_1IceMassFluxSurface.html" target="_top" xlink:title="Reports the total top surface ice flux.">
<polygon fill="none" stroke="black" points="793.5,-1368.5 793.5,-1398.5 942.5,-1398.5 942.5,-1368.5 793.5,-1368.5"/>
<text text-anchor="start" x="801.5" y="-1386.5" font-family="Helvetica,sans-Serif" font-size="10.00">pism::diagnostics::</text>
<text text-anchor="middle" x="868" y="-1375.5" font-family="Helvetica,sans-Serif" font-size="10.00">scalar::IceMassFluxSurface</text>
</a>
</g>
</g>
<!-- Node8&#45;&gt;Node16 -->
<g id="edge16" class="edge">
<title>Node8&#45;&gt;Node16</title>
<path fill="none" stroke="midnightblue" d="M673.8,-1466.38C698.25,-1448.69 735.39,-1423.94 771,-1408.5 779.69,-1404.73 789.08,-1401.43 798.46,-1398.56"/>
<polygon fill="midnightblue" stroke="midnightblue" points="671.7,-1463.58 665.71,-1472.31 675.84,-1469.22 671.7,-1463.58"/>
</g>
<!-- Node17 -->
<g id="node18" class="node">
<title>Node17</title>
<g id="a_node18"><a xlink:href="classpism_1_1diagnostics_1_1scalar_1_1IceMassRateOfChangeDueToFlow.html" target="_top" xlink:title="Computes the rate of change of the total ice mass due to flow (influx due to prescribed constant&#45;in&#45;t...">
<polygon fill="none" stroke="black" points="787,-1308 787,-1349 949,-1349 949,-1308 787,-1308"/>
<text text-anchor="start" x="795" y="-1337" font-family="Helvetica,sans-Serif" font-size="10.00">pism::diagnostics::</text>
<text text-anchor="start" x="795" y="-1326" font-family="Helvetica,sans-Serif" font-size="10.00">scalar::IceMassRateOfChange</text>
<text text-anchor="middle" x="868" y="-1315" font-family="Helvetica,sans-Serif" font-size="10.00">DueToFlow</text>
</a>
</g>
</g>
<!-- Node8&#45;&gt;Node17 -->
<g id="edge17" class="edge">
<title>Node8&#45;&gt;Node17</title>
<path fill="none" stroke="midnightblue" d="M663.15,-1463.93C685.11,-1435.35 725.78,-1387.53 771,-1359.5 777.25,-1355.63 784.04,-1352.19 791.01,-1349.15"/>
<polygon fill="midnightblue" stroke="midnightblue" points="660.18,-1462.05 656.95,-1472.14 665.77,-1466.27 660.18,-1462.05"/>
</g>
<!-- Node19 -->
<g id="node20" class="node">
<title>Node19</title>
<g id="a_node20"><a xlink:href="classpism_1_1energy_1_1LiquifiedIceFlux.html" target="_top" xlink:title="Ice loss &quot;flux&quot; due to ice liquefaction.">
<polygon fill="none" stroke="black" points="787,-1270 787,-1289 949,-1289 949,-1270 787,-1270"/>
<text text-anchor="middle" x="868" y="-1277" font-family="Helvetica,sans-Serif" font-size="10.00">pism::energy::LiquifiedIceFlux</text>
</a>
</g>
</g>
<!-- Node18&#45;&gt;Node19 -->
<g id="edge19" class="edge">
<title>Node18&#45;&gt;Node19</title>
<path fill="none" stroke="midnightblue" d="M745.29,-1281.15C759.14,-1280.96 773.24,-1280.77 786.68,-1280.59"/>
<polygon fill="midnightblue" stroke="midnightblue" points="745.2,-1277.65 735.25,-1281.29 745.3,-1284.65 745.2,-1277.65"/>
</g>
<!-- Node21 -->
<g id="node22" class="node">
<title>Node21</title>
<g id="a_node22"><a xlink:href="classpism_1_1surface_1_1diagnostics_1_1TotalSurfaceAccumulation.html" target="_top" xlink:title="Reports the total accumulation rate.">
<polygon fill="none" stroke="black" points="793.5,-1220.5 793.5,-1250.5 942.5,-1250.5 942.5,-1220.5 793.5,-1220.5"/>
<text text-anchor="start" x="801.5" y="-1238.5" font-family="Helvetica,sans-Serif" font-size="10.00">pism::surface::diagnostics</text>
<text text-anchor="middle" x="868" y="-1227.5" font-family="Helvetica,sans-Serif" font-size="10.00">::TotalSurfaceAccumulation</text>
</a>
</g>
</g>
<!-- Node20&#45;&gt;Node21 -->
<g id="edge21" class="edge">
<title>Node20&#45;&gt;Node21</title>
<path fill="none" stroke="midnightblue" d="M745.26,-1234.4C761.43,-1234.54 777.92,-1234.69 793.33,-1234.83"/>
<polygon fill="midnightblue" stroke="midnightblue" points="745.28,-1230.9 735.25,-1234.31 745.22,-1237.9 745.28,-1230.9"/>
</g>
<!-- Node22 -->
<g id="node23" class="node">
<title>Node22</title>
<g id="a_node23"><a xlink:href="classpism_1_1surface_1_1diagnostics_1_1TotalSurfaceMelt.html" target="_top" xlink:title="Reports the total melt rate.">
<polygon fill="none" stroke="black" points="796,-1171.5 796,-1201.5 940,-1201.5 940,-1171.5 796,-1171.5"/>
<text text-anchor="start" x="804" y="-1189.5" font-family="Helvetica,sans-Serif" font-size="10.00">pism::surface::diagnostics</text>
<text text-anchor="middle" x="868" y="-1178.5" font-family="Helvetica,sans-Serif" font-size="10.00">::TotalSurfaceMelt</text>
</a>
</g>
</g>
<!-- Node20&#45;&gt;Node22 -->
<g id="edge22" class="edge">
<title>Node20&#45;&gt;Node22</title>
<path fill="none" stroke="midnightblue" d="M726.55,-1216.37C749.42,-1211.51 774.14,-1206.25 796.38,-1201.52"/>
<polygon fill="midnightblue" stroke="midnightblue" points="725.59,-1213 716.53,-1218.5 727.04,-1219.84 725.59,-1213"/>
</g>
<!-- Node23 -->
<g id="node24" class="node">
<title>Node23</title>
<g id="a_node24"><a xlink:href="classpism_1_1surface_1_1diagnostics_1_1TotalSurfaceRunoff.html" target="_top" xlink:title="Reports the total top surface ice flux.">
<polygon fill="none" stroke="black" points="796,-1122.5 796,-1152.5 940,-1152.5 940,-1122.5 796,-1122.5"/>
<text text-anchor="start" x="804" y="-1140.5" font-family="Helvetica,sans-Serif" font-size="10.00">pism::surface::diagnostics</text>
<text text-anchor="middle" x="868" y="-1129.5" font-family="Helvetica,sans-Serif" font-size="10.00">::TotalSurfaceRunoff</text>
</a>
</g>
</g>
<!-- Node20&#45;&gt;Node23 -->
<g id="edge23" class="edge">
<title>Node20&#45;&gt;Node23</title>
<path fill="none" stroke="midnightblue" d="M727.42,-1214.06C730.03,-1212.65 732.57,-1211.13 735,-1209.5 756.86,-1194.85 749.08,-1177.05 771,-1162.5 778.61,-1157.45 787.18,-1153.42 795.99,-1150.21"/>
<polygon fill="midnightblue" stroke="midnightblue" points="725.74,-1210.99 718.26,-1218.49 728.78,-1217.29 725.74,-1210.99"/>
</g>
<!-- Node25 -->
<g id="node26" class="node">
<title>Node25</title>
<g id="a_node26"><a xlink:href="classpism_1_1TSDiag.html" target="_top" xlink:title=" ">
<polygon fill="none" stroke="black" points="353.5,-598.5 353.5,-628.5 502.5,-628.5 502.5,-598.5 353.5,-598.5"/>
<text text-anchor="start" x="361.5" y="-616.5" font-family="Helvetica,sans-Serif" font-size="10.00">pism::TSDiag&lt; TSSnapshot</text>
<text text-anchor="middle" x="428" y="-605.5" font-family="Helvetica,sans-Serif" font-size="10.00">Diagnostic, IceModel &gt;</text>
</a>
</g>
</g>
<!-- Node24&#45;&gt;Node25 -->
<g id="edge25" class="edge">
<title>Node24&#45;&gt;Node25</title>
<path fill="none" stroke="midnightblue" d="M235.88,-923.06C272.14,-864.34 384.5,-682.34 417.68,-628.59"/>
<polygon fill="midnightblue" stroke="midnightblue" points="232.84,-921.34 230.56,-931.68 238.79,-925.01 232.84,-921.34"/>
</g>
<!-- Node26 -->
<g id="node27" class="node">
<title>Node26</title>
<g id="a_node27"><a xlink:href="classpism_1_1diagnostics_1_1scalar_1_1IceAreaGlacierized.html" target="_top" xlink:title="Computes the total ice area.">
<polygon fill="none" stroke="black" points="573.5,-1169.5 573.5,-1199.5 716.5,-1199.5 716.5,-1169.5 573.5,-1169.5"/>
<text text-anchor="start" x="581.5" y="-1187.5" font-family="Helvetica,sans-Serif" font-size="10.00">pism::diagnostics::</text>
<text text-anchor="middle" x="645" y="-1176.5" font-family="Helvetica,sans-Serif" font-size="10.00">scalar::IceAreaGlacierized</text>
</a>
</g>
</g>
<!-- Node25&#45;&gt;Node26 -->
<g id="edge26" class="edge">
<title>Node25&#45;&gt;Node26</title>
<path fill="none" stroke="midnightblue" d="M431.42,-638.55C441.25,-735.18 481.21,-1082.15 555,-1159.5 560.21,-1164.96 566.5,-1169.25 573.31,-1172.63"/>
<polygon fill="midnightblue" stroke="midnightblue" points="434.9,-638.13 430.42,-628.52 427.93,-638.82 434.9,-638.13"/>
</g>
<!-- Node27 -->
<g id="node28" class="node">
<title>Node27</title>
<g id="a_node28"><a xlink:href="classpism_1_1diagnostics_1_1scalar_1_1IceAreaGlacierizedColdBase.html" target="_top" xlink:title="Computes the total area of the cold ice.">
<polygon fill="none" stroke="black" points="573.5,-1109 573.5,-1150 716.5,-1150 716.5,-1109 573.5,-1109"/>
<text text-anchor="start" x="581.5" y="-1138" font-family="Helvetica,sans-Serif" font-size="10.00">pism::diagnostics::</text>
<text text-anchor="start" x="581.5" y="-1127" font-family="Helvetica,sans-Serif" font-size="10.00">scalar::IceAreaGlacierized</text>
<text text-anchor="middle" x="645" y="-1116" font-family="Helvetica,sans-Serif" font-size="10.00">ColdBase</text>
</a>
</g>
</g>
<!-- Node25&#45;&gt;Node27 -->
<g id="edge27" class="edge">
<title>Node25&#45;&gt;Node27</title>
<path fill="none" stroke="midnightblue" d="M432.4,-639.14C444.85,-729.34 490.57,-1030.3 555,-1099.5 560.22,-1105.11 566.53,-1109.67 573.34,-1113.38"/>
<polygon fill="midnightblue" stroke="midnightblue" points="435.84,-638.42 431.02,-628.99 428.9,-639.37 435.84,-638.42"/>
</g>
<!-- Node28 -->
<g id="node29" class="node">
<title>Node28</title>
<g id="a_node29"><a xlink:href="classpism_1_1diagnostics_1_1scalar_1_1IceAreaGlacierizedGrounded.html" target="_top" xlink:title="Computes the total grounded ice area.">
<polygon fill="none" stroke="black" points="573.5,-1049 573.5,-1090 716.5,-1090 716.5,-1049 573.5,-1049"/>
<text text-anchor="start" x="581.5" y="-1078" font-family="Helvetica,sans-Serif" font-size="10.00">pism::diagnostics::</text>
<text text-anchor="start" x="581.5" y="-1067" font-family="Helvetica,sans-Serif" font-size="10.00">scalar::IceAreaGlacierized</text>
<text text-anchor="middle" x="645" y="-1056" font-family="Helvetica,sans-Serif" font-size="10.00">Grounded</text>
</a>
</g>
</g>
<!-- Node25&#45;&gt;Node28 -->
<g id="edge28" class="edge">
<title>Node25&#45;&gt;Node28</title>
<path fill="none" stroke="midnightblue" d="M428.86,-638.8C429.87,-711.45 442.79,-922.99 555,-1039.5 560.2,-1044.9 566.41,-1049.33 573.09,-1052.96"/>
<polygon fill="midnightblue" stroke="midnightblue" points="432.36,-638.71 428.79,-628.74 425.36,-638.76 432.36,-638.71"/>
</g>
<!-- Node29 -->
<g id="node30" class="node">
<title>Node29</title>
<g id="a_node30"><a xlink:href="classpism_1_1diagnostics_1_1scalar_1_1IceAreaGlacierizedShelf.html" target="_top" xlink:title="Computes the total floating ice area.">
<polygon fill="none" stroke="black" points="573.5,-989 573.5,-1030 716.5,-1030 716.5,-989 573.5,-989"/>
<text text-anchor="start" x="581.5" y="-1018" font-family="Helvetica,sans-Serif" font-size="10.00">pism::diagnostics::</text>
<text text-anchor="start" x="581.5" y="-1007" font-family="Helvetica,sans-Serif" font-size="10.00">scalar::IceAreaGlacierized</text>
<text text-anchor="middle" x="645" y="-996" font-family="Helvetica,sans-Serif" font-size="10.00">Shelf</text>
</a>
</g>
</g>
<!-- Node25&#45;&gt;Node29 -->
<g id="edge29" class="edge">
<title>Node25&#45;&gt;Node29</title>
<path fill="none" stroke="midnightblue" d="M430.33,-639.14C435.14,-705.07 456.98,-882.11 555,-979.5 560.32,-984.79 566.6,-989.14 573.33,-992.73"/>
<polygon fill="midnightblue" stroke="midnightblue" points="433.8,-638.6 429.66,-628.85 426.82,-639.06 433.8,-638.6"/>
</g>
<!-- Node30 -->
<g id="node31" class="node">
<title>Node30</title>
<g id="a_node31"><a xlink:href="classpism_1_1diagnostics_1_1scalar_1_1IceAreaGlacierizedTemperateBase.html" target="_top" xlink:title="Computes the total area of the temperate ice.">
<polygon fill="none" stroke="black" points="573.5,-929 573.5,-970 716.5,-970 716.5,-929 573.5,-929"/>
<text text-anchor="start" x="581.5" y="-958" font-family="Helvetica,sans-Serif" font-size="10.00">pism::diagnostics::</text>
<text text-anchor="start" x="581.5" y="-947" font-family="Helvetica,sans-Serif" font-size="10.00">scalar::IceAreaGlacierized</text>
<text text-anchor="middle" x="645" y="-936" font-family="Helvetica,sans-Serif" font-size="10.00">TemperateBase</text>
</a>
</g>
</g>
<!-- Node25&#45;&gt;Node30 -->
<g id="edge30" class="edge">
<title>Node25&#45;&gt;Node30</title>
<path fill="none" stroke="midnightblue" d="M432.27,-638.84C441.1,-696.88 470.7,-840.54 555,-919.5 560.36,-924.52 566.58,-928.7 573.2,-932.18"/>
<polygon fill="midnightblue" stroke="midnightblue" points="435.7,-638.12 430.82,-628.72 428.78,-639.12 435.7,-638.12"/>
</g>
<!-- Node31 -->
<g id="node32" class="node">
<title>Node31</title>
<g id="a_node32"><a xlink:href="classpism_1_1diagnostics_1_1scalar_1_1IceEnthalpy.html" target="_top" xlink:title="Computes the total ice enthalpy.">
<polygon fill="none" stroke="black" points="590.5,-879.5 590.5,-909.5 699.5,-909.5 699.5,-879.5 590.5,-879.5"/>
<text text-anchor="start" x="598.5" y="-897.5" font-family="Helvetica,sans-Serif" font-size="10.00">pism::diagnostics::</text>
<text text-anchor="middle" x="645" y="-886.5" font-family="Helvetica,sans-Serif" font-size="10.00">scalar::IceEnthalpy</text>
</a>
</g>
</g>
<!-- Node25&#45;&gt;Node31 -->
<g id="edge31" class="edge">
<title>Node25&#45;&gt;Node31</title>
<path fill="none" stroke="midnightblue" d="M434.04,-638.62C445.73,-690.19 479.63,-808.4 555,-870.5 565,-878.74 577.59,-884.17 590.12,-887.74"/>
<polygon fill="midnightblue" stroke="midnightblue" points="437.42,-637.69 431.88,-628.67 430.58,-639.18 437.42,-637.69"/>
</g>
<!-- Node32 -->
<g id="node33" class="node">
<title>Node32</title>
<g id="a_node33"><a xlink:href="classpism_1_1diagnostics_1_1scalar_1_1IceEnthalpyGlacierized.html" target="_top" xlink:title="Computes the total ice enthalpy in glacierized areas.">
<polygon fill="none" stroke="black" points="563,-830.5 563,-860.5 727,-860.5 727,-830.5 563,-830.5"/>
<text text-anchor="start" x="571" y="-848.5" font-family="Helvetica,sans-Serif" font-size="10.00">pism::diagnostics::</text>
<text text-anchor="middle" x="645" y="-837.5" font-family="Helvetica,sans-Serif" font-size="10.00">scalar::IceEnthalpyGlacierized</text>
</a>
</g>
</g>
<!-- Node25&#45;&gt;Node32 -->
<g id="edge32" class="edge">
<title>Node25&#45;&gt;Node32</title>
<path fill="none" stroke="midnightblue" d="M436.96,-638.06C452.44,-681.83 490.8,-773.22 555,-821.5 559.6,-824.96 564.67,-827.93 569.99,-830.46"/>
<polygon fill="midnightblue" stroke="midnightblue" points="440.24,-636.82 433.68,-628.5 433.62,-639.1 440.24,-636.82"/>
</g>
<!-- Node33 -->
<g id="node34" class="node">
<title>Node33</title>
<g id="a_node34"><a xlink:href="classpism_1_1diagnostics_1_1scalar_1_1IceMass.html" target="_top" xlink:title="Computes the total ice mass.">
<polygon fill="none" stroke="black" points="591,-781.5 591,-811.5 699,-811.5 699,-781.5 591,-781.5"/>
<text text-anchor="start" x="599" y="-799.5" font-family="Helvetica,sans-Serif" font-size="10.00">pism::diagnostics::</text>
<text text-anchor="middle" x="645" y="-788.5" font-family="Helvetica,sans-Serif" font-size="10.00">scalar::IceMass</text>
</a>
</g>
</g>
<!-- Node25&#45;&gt;Node33 -->
<g id="edge33" class="edge">
<title>Node25&#45;&gt;Node33</title>
<path fill="none" stroke="midnightblue" d="M441.7,-637.96C461.23,-673.15 502.02,-737.64 555,-772.5 565.69,-779.54 578.4,-784.52 590.81,-788.05"/>
<polygon fill="midnightblue" stroke="midnightblue" points="444.6,-635.98 436.76,-628.87 438.45,-639.32 444.6,-635.98"/>
</g>
<!-- Node34 -->
<g id="node35" class="node">
<title>Node34</title>
<g id="a_node35"><a xlink:href="classpism_1_1diagnostics_1_1scalar_1_1IceMassGlacierized.html" target="_top" xlink:title="Computes the total ice mass in glacierized areas.">
<polygon fill="none" stroke="black" points="572,-732.5 572,-762.5 718,-762.5 718,-732.5 572,-732.5"/>
<text text-anchor="start" x="580" y="-750.5" font-family="Helvetica,sans-Serif" font-size="10.00">pism::diagnostics::</text>
<text text-anchor="middle" x="645" y="-739.5" font-family="Helvetica,sans-Serif" font-size="10.00">scalar::IceMassGlacierized</text>
</a>
</g>
</g>
<!-- Node25&#45;&gt;Node34 -->
<g id="edge34" class="edge">
<title>Node25&#45;&gt;Node34</title>
<path fill="none" stroke="midnightblue" d="M449.08,-636C472.27,-660.66 512.71,-699.75 555,-722.5 562.07,-726.3 569.77,-729.57 577.59,-732.37"/>
<polygon fill="midnightblue" stroke="midnightblue" points="451.53,-633.5 442.17,-628.53 446.39,-638.25 451.53,-633.5"/>
</g>
<!-- Node35 -->
<g id="node36" class="node">
<title>Node35</title>
<g id="a_node36"><a xlink:href="classpism_1_1diagnostics_1_1scalar_1_1IceMassNotDisplacingSeaWater.html" target="_top" xlink:title="Computes the total mass of the ice not displacing sea water.">
<polygon fill="none" stroke="black" points="565,-672 565,-713 725,-713 725,-672 565,-672"/>
<text text-anchor="start" x="573" y="-701" font-family="Helvetica,sans-Serif" font-size="10.00">pism::diagnostics::</text>
<text text-anchor="start" x="573" y="-690" font-family="Helvetica,sans-Serif" font-size="10.00">scalar::IceMassNotDisplacing</text>
<text text-anchor="middle" x="645" y="-679" font-family="Helvetica,sans-Serif" font-size="10.00">SeaWater</text>
</a>
</g>
</g>
<!-- Node25&#45;&gt;Node35 -->
<g id="edge35" class="edge">
<title>Node25&#45;&gt;Node35</title>
<path fill="none" stroke="midnightblue" d="M477.14,-632.21C500.58,-641.23 529.2,-652.09 555,-661.5 564.38,-664.92 574.34,-668.47 584.07,-671.89"/>
<polygon fill="midnightblue" stroke="midnightblue" points="478.36,-628.93 467.77,-628.6 475.85,-635.46 478.36,-628.93"/>
</g>
<!-- Node36 -->
<g id="node37" class="node">
<title>Node36</title>
<g id="a_node37"><a xlink:href="classpism_1_1diagnostics_1_1scalar_1_1IceVolume.html" target="_top" xlink:title="Computes the total ice volume.">
<polygon fill="none" stroke="black" points="591,-622.5 591,-652.5 699,-652.5 699,-622.5 591,-622.5"/>
<text text-anchor="start" x="599" y="-640.5" font-family="Helvetica,sans-Serif" font-size="10.00">pism::diagnostics::</text>
<text text-anchor="middle" x="645" y="-629.5" font-family="Helvetica,sans-Serif" font-size="10.00">scalar::IceVolume</text>
</a>
</g>
</g>
<!-- Node25&#45;&gt;Node36 -->
<g id="edge36" class="edge">
<title>Node25&#45;&gt;Node36</title>
<path fill="none" stroke="midnightblue" d="M512.65,-622.84C538.92,-625.77 567.2,-628.93 590.76,-631.56"/>
<polygon fill="midnightblue" stroke="midnightblue" points="513.02,-619.36 502.69,-621.73 512.24,-626.31 513.02,-619.36"/>
</g>
<!-- Node37 -->
<g id="node38" class="node">
<title>Node37</title>
<g id="a_node38"><a xlink:href="classpism_1_1diagnostics_1_1scalar_1_1IceVolumeCold.html" target="_top" xlink:title="Computes the total volume of the cold ice.">
<polygon fill="none" stroke="black" points="582.5,-573.5 582.5,-603.5 707.5,-603.5 707.5,-573.5 582.5,-573.5"/>
<text text-anchor="start" x="590.5" y="-591.5" font-family="Helvetica,sans-Serif" font-size="10.00">pism::diagnostics::</text>
<text text-anchor="middle" x="645" y="-580.5" font-family="Helvetica,sans-Serif" font-size="10.00">scalar::IceVolumeCold</text>
</a>
</g>
</g>
<!-- Node25&#45;&gt;Node37 -->
<g id="edge37" class="edge">
<title>Node25&#45;&gt;Node37</title>
<path fill="none" stroke="midnightblue" d="M512.83,-603.75C535.94,-601.06 560.59,-598.2 582.2,-595.69"/>
<polygon fill="midnightblue" stroke="midnightblue" points="512.22,-600.3 502.69,-604.93 513.03,-607.25 512.22,-600.3"/>
</g>
<!-- Node38 -->
<g id="node39" class="node">
<title>Node38</title>
<g id="a_node39"><a xlink:href="classpism_1_1diagnostics_1_1scalar_1_1IceVolumeGlacierized.html" target="_top" xlink:title="Computes the total ice volume in glacierized areas.">
<polygon fill="none" stroke="black" points="566,-524.5 566,-554.5 724,-554.5 724,-524.5 566,-524.5"/>
<text text-anchor="start" x="574" y="-542.5" font-family="Helvetica,sans-Serif" font-size="10.00">pism::diagnostics::</text>
<text text-anchor="middle" x="645" y="-531.5" font-family="Helvetica,sans-Serif" font-size="10.00">scalar::IceVolumeGlacierized</text>
</a>
</g>
</g>
<!-- Node25&#45;&gt;Node38 -->
<g id="edge38" class="edge">
<title>Node25&#45;&gt;Node38</title>
<path fill="none" stroke="midnightblue" d="M473.42,-594.43C497.34,-584.53 527.52,-572.63 555,-563.5 564.42,-560.37 574.49,-557.35 584.36,-554.57"/>
<polygon fill="midnightblue" stroke="midnightblue" points="471.79,-591.32 463.91,-598.4 474.48,-597.78 471.79,-591.32"/>
</g>
<!-- Node39 -->
<g id="node40" class="node">
<title>Node39</title>
<g id="a_node40"><a xlink:href="classpism_1_1diagnostics_1_1scalar_1_1IceVolumeGlacierizedCold.html" target="_top" xlink:title="Computes the total volume of the cold ice in glacierized areas.">
<polygon fill="none" stroke="black" points="555.5,-475.5 555.5,-505.5 734.5,-505.5 734.5,-475.5 555.5,-475.5"/>
<text text-anchor="start" x="563.5" y="-493.5" font-family="Helvetica,sans-Serif" font-size="10.00">pism::diagnostics::</text>
<text text-anchor="middle" x="645" y="-482.5" font-family="Helvetica,sans-Serif" font-size="10.00">scalar::IceVolumeGlacierizedCold</text>
</a>
</g>
</g>
<!-- Node25&#45;&gt;Node39 -->
<g id="edge39" class="edge">
<title>Node25&#45;&gt;Node39</title>
<path fill="none" stroke="midnightblue" d="M451.32,-591.31C475.09,-568.86 514.78,-534.66 555,-514.5 561.72,-511.13 568.98,-508.19 576.34,-505.63"/>
<polygon fill="midnightblue" stroke="midnightblue" points="448.68,-588.99 443.89,-598.44 453.53,-594.04 448.68,-588.99"/>
</g>
<!-- Node40 -->
<g id="node41" class="node">
<title>Node40</title>
<g id="a_node41"><a xlink:href="classpism_1_1diagnostics_1_1scalar_1_1IceVolumeGlacierizedGrounded.html" target="_top" xlink:title="Computes the total grounded ice volume.">
<polygon fill="none" stroke="black" points="566,-415 566,-456 724,-456 724,-415 566,-415"/>
<text text-anchor="start" x="574" y="-444" font-family="Helvetica,sans-Serif" font-size="10.00">pism::diagnostics::</text>
<text text-anchor="start" x="574" y="-433" font-family="Helvetica,sans-Serif" font-size="10.00">scalar::IceVolumeGlacierized</text>
<text text-anchor="middle" x="645" y="-422" font-family="Helvetica,sans-Serif" font-size="10.00">Grounded</text>
</a>
</g>
</g>
<!-- Node25&#45;&gt;Node40 -->
<g id="edge40" class="edge">
<title>Node25&#45;&gt;Node40</title>
<path fill="none" stroke="midnightblue" d="M443.61,-589.25C464.45,-556.64 505.67,-498.91 555,-465.5 560.13,-462.03 565.7,-458.92 571.46,-456.15"/>
<polygon fill="midnightblue" stroke="midnightblue" points="440.4,-587.79 438.05,-598.12 446.33,-591.51 440.4,-587.79"/>
</g>
<!-- Node41 -->
<g id="node42" class="node">
<title>Node41</title>
<g id="a_node42"><a xlink:href="classpism_1_1diagnostics_1_1scalar_1_1IceVolumeGlacierizedShelf.html" target="_top" xlink:title="Computes the total floating ice volume.">
<polygon fill="none" stroke="black" points="566,-355 566,-396 724,-396 724,-355 566,-355"/>
<text text-anchor="start" x="574" y="-384" font-family="Helvetica,sans-Serif" font-size="10.00">pism::diagnostics::</text>
<text text-anchor="start" x="574" y="-373" font-family="Helvetica,sans-Serif" font-size="10.00">scalar::IceVolumeGlacierized</text>
<text text-anchor="middle" x="645" y="-362" font-family="Helvetica,sans-Serif" font-size="10.00">Shelf</text>
</a>
</g>
</g>
<!-- Node25&#45;&gt;Node41 -->
<g id="edge41" class="edge">
<title>Node25&#45;&gt;Node41</title>
<path fill="none" stroke="midnightblue" d="M437.38,-589.01C453.41,-545.74 492.48,-455.61 555,-405.5 559.33,-402.03 564.07,-398.96 569.05,-396.23"/>
<polygon fill="midnightblue" stroke="midnightblue" points="434.07,-587.87 433.97,-598.47 440.65,-590.25 434.07,-587.87"/>
</g>
<!-- Node42 -->
<g id="node43" class="node">
<title>Node42</title>
<g id="a_node43"><a xlink:href="classpism_1_1diagnostics_1_1scalar_1_1IceVolumeGlacierizedTemperate.html" target="_top" xlink:title="Computes the total volume of the temperate ice in glacierized areas.">
<polygon fill="none" stroke="black" points="566,-295 566,-336 724,-336 724,-295 566,-295"/>
<text text-anchor="start" x="574" y="-324" font-family="Helvetica,sans-Serif" font-size="10.00">pism::diagnostics::</text>
<text text-anchor="start" x="574" y="-313" font-family="Helvetica,sans-Serif" font-size="10.00">scalar::IceVolumeGlacierized</text>
<text text-anchor="middle" x="645" y="-302" font-family="Helvetica,sans-Serif" font-size="10.00">Temperate</text>
</a>
</g>
</g>
<!-- Node25&#45;&gt;Node42 -->
<g id="edge42" class="edge">
<title>Node25&#45;&gt;Node42</title>
<path fill="none" stroke="midnightblue" d="M433.88,-588.42C445.4,-535.77 479.25,-413.05 555,-345.5 558.89,-342.03 563.21,-338.95 567.77,-336.23"/>
<polygon fill="midnightblue" stroke="midnightblue" points="430.44,-587.75 431.81,-598.26 437.29,-589.2 430.44,-587.75"/>
</g>
<!-- Node43 -->
<g id="node44" class="node">
<title>Node43</title>
<g id="a_node44"><a xlink:href="classpism_1_1diagnostics_1_1scalar_1_1IceVolumeTemperate.html" target="_top" xlink:title="Computes the total volume of the temperate ice.">
<polygon fill="none" stroke="black" points="567.5,-245.5 567.5,-275.5 722.5,-275.5 722.5,-245.5 567.5,-245.5"/>
<text text-anchor="start" x="575.5" y="-263.5" font-family="Helvetica,sans-Serif" font-size="10.00">pism::diagnostics::</text>
<text text-anchor="middle" x="645" y="-252.5" font-family="Helvetica,sans-Serif" font-size="10.00">scalar::IceVolumeTemperate</text>
</a>
</g>
</g>
<!-- Node25&#45;&gt;Node43 -->
<g id="edge43" class="edge">
<title>Node25&#45;&gt;Node43</title>
<path fill="none" stroke="midnightblue" d="M431.16,-588.18C437.78,-526.81 463.31,-369.04 555,-285.5 559.27,-281.61 564.1,-278.32 569.25,-275.53"/>
<polygon fill="midnightblue" stroke="midnightblue" points="427.64,-588.18 430.13,-598.48 434.61,-588.88 427.64,-588.18"/>
</g>
<!-- Node44 -->
<g id="node45" class="node">
<title>Node44</title>
<g id="a_node45"><a xlink:href="classpism_1_1diagnostics_1_1scalar_1_1MaxDiffusivity.html" target="_top" xlink:title="Reports maximum diffusivity.">
<polygon fill="none" stroke="black" points="583.5,-196.5 583.5,-226.5 706.5,-226.5 706.5,-196.5 583.5,-196.5"/>
<text text-anchor="start" x="591.5" y="-214.5" font-family="Helvetica,sans-Serif" font-size="10.00">pism::diagnostics::</text>
<text text-anchor="middle" x="645" y="-203.5" font-family="Helvetica,sans-Serif" font-size="10.00">scalar::MaxDiffusivity</text>
</a>
</g>
</g>
<!-- Node25&#45;&gt;Node44 -->
<g id="edge44" class="edge">
<title>Node25&#45;&gt;Node44</title>
<path fill="none" stroke="midnightblue" d="M429.63,-588.03C432.75,-520.22 450.85,-333.74 555,-235.5 562.92,-228.03 572.91,-222.84 583.31,-219.24"/>
<polygon fill="midnightblue" stroke="midnightblue" points="426.13,-588.09 429.24,-598.22 433.12,-588.36 426.13,-588.09"/>
</g>
<!-- Node45 -->
<g id="node46" class="node">
<title>Node45</title>
<g id="a_node46"><a xlink:href="classpism_1_1diagnostics_1_1scalar_1_1MaxHorizontalVelocity.html" target="_top" xlink:title="Reports the maximum horizontal absolute velocity component over the grid.">
<polygon fill="none" stroke="black" points="564,-147.5 564,-177.5 726,-177.5 726,-147.5 564,-147.5"/>
<text text-anchor="start" x="572" y="-165.5" font-family="Helvetica,sans-Serif" font-size="10.00">pism::diagnostics::</text>
<text text-anchor="middle" x="645" y="-154.5" font-family="Helvetica,sans-Serif" font-size="10.00">scalar::MaxHorizontalVelocity</text>
</a>
</g>
</g>
<!-- Node25&#45;&gt;Node45 -->
<g id="edge45" class="edge">
<title>Node25&#45;&gt;Node45</title>
<path fill="none" stroke="midnightblue" d="M428.5,-588.3C428.46,-515.02 438.77,-300.03 555,-186.5 558.43,-183.15 562.29,-180.25 566.41,-177.75"/>
<polygon fill="midnightblue" stroke="midnightblue" points="425,-588.46 428.57,-598.43 432,-588.41 425,-588.46"/>
</g>
<!-- Node46 -->
<g id="node47" class="node">
<title>Node46</title>
<g id="a_node47"><a xlink:href="classpism_1_1diagnostics_1_1scalar_1_1SeaLevelRisePotential.html" target="_top" xlink:title="Computes the total ice volume which is relevant for sea&#45;level.">
<polygon fill="none" stroke="black" points="564.5,-98.5 564.5,-128.5 725.5,-128.5 725.5,-98.5 564.5,-98.5"/>
<text text-anchor="start" x="572.5" y="-116.5" font-family="Helvetica,sans-Serif" font-size="10.00">pism::diagnostics::</text>
<text text-anchor="middle" x="645" y="-105.5" font-family="Helvetica,sans-Serif" font-size="10.00">scalar::SeaLevelRisePotential</text>
</a>
</g>
</g>
<!-- Node25&#45;&gt;Node46 -->
<g id="edge46" class="edge">
<title>Node25&#45;&gt;Node46</title>
<path fill="none" stroke="midnightblue" d="M432.33,-588.24C444.55,-499.41 489.58,-203.22 555,-137.5 558.39,-134.1 562.2,-131.16 566.3,-128.63"/>
<polygon fill="midnightblue" stroke="midnightblue" points="428.85,-587.86 430.98,-598.24 435.79,-588.8 428.85,-587.86"/>
</g>
<!-- Node47 -->
<g id="node48" class="node">
<title>Node47</title>
<g id="a_node48"><a xlink:href="classpism_1_1diagnostics_1_1scalar_1_1TimeStepLength.html" target="_top" xlink:title="Reports the mass continuity time step.">
<polygon fill="none" stroke="black" points="579.5,-49.5 579.5,-79.5 710.5,-79.5 710.5,-49.5 579.5,-49.5"/>
<text text-anchor="start" x="587.5" y="-67.5" font-family="Helvetica,sans-Serif" font-size="10.00">pism::diagnostics::</text>
<text text-anchor="middle" x="645" y="-56.5" font-family="Helvetica,sans-Serif" font-size="10.00">scalar::TimeStepLength</text>
</a>
</g>
</g>
<!-- Node25&#45;&gt;Node47 -->
<g id="edge47" class="edge">
<title>Node25&#45;&gt;Node47</title>
<path fill="none" stroke="midnightblue" d="M431.67,-588.17C442.17,-493.48 483.49,-162.02 555,-88.5 561.69,-81.62 570.14,-76.64 579.15,-73.06"/>
<polygon fill="midnightblue" stroke="midnightblue" points="428.18,-587.95 430.57,-598.27 435.14,-588.71 428.18,-587.95"/>
</g>
<!-- Node48 -->
<g id="node49" class="node">
<title>Node48</title>
<g id="a_node49"><a xlink:href="classpism_1_1diagnostics_1_1scalar_1_1TimeStepRatio.html" target="_top" xlink:title="Reports the mass continuity time step.">
<polygon fill="none" stroke="black" points="583,-0.5 583,-30.5 707,-30.5 707,-0.5 583,-0.5"/>
<text text-anchor="start" x="591" y="-18.5" font-family="Helvetica,sans-Serif" font-size="10.00">pism::diagnostics::</text>
<text text-anchor="middle" x="645" y="-7.5" font-family="Helvetica,sans-Serif" font-size="10.00">scalar::TimeStepRatio</text>
</a>
</g>
</g>
<!-- Node25&#45;&gt;Node48 -->
<g id="edge48" class="edge">
<title>Node25&#45;&gt;Node48</title>
<path fill="none" stroke="midnightblue" d="M431.12,-588.12C440,-487.87 477.37,-120.89 555,-39.5 562.51,-31.63 572.31,-26.24 582.65,-22.58"/>
<polygon fill="midnightblue" stroke="midnightblue" points="427.62,-587.98 430.24,-598.24 434.59,-588.58 427.62,-587.98"/>
</g>
</g>
</svg>
