<?xml version="1.0" encoding="UTF-8" standalone="no"?>
<!DOCTYPE svg PUBLIC "-//W3C//DTD SVG 1.1//EN"
 "http://www.w3.org/Graphics/SVG/1.1/DTD/svg11.dtd">
<!-- Generated by graphviz version 2.43.0 (0)
 -->
<!-- Title: Graphical Class Hierarchy Pages: 1 -->
<svg width="385pt" height="66pt"
 viewBox="0.00 0.00 385.00 66.00" xmlns="http://www.w3.org/2000/svg" xmlns:xlink="http://www.w3.org/1999/xlink">
<g id="graph0" class="graph" transform="scale(1 1) rotate(0) translate(4 62)">
<title>Graphical Class Hierarchy</title>
<!-- Node0 -->
<g id="node1" class="node">
<title>Node0</title>
<g id="a_node1"><a xlink:href="classpism_1_1Config.html" target="_top" xlink:title="A class for storing and accessing PISM configuration flags and parameters.">
<polygon fill="none" stroke="black" points="0,-19.5 0,-38.5 77,-38.5 77,-19.5 0,-19.5"/>
<text text-anchor="middle" x="38.5" y="-26.5" font-family="Helvetica,sans-Serif" font-size="10.00">pism::Config</text>
</a>
</g>
</g>
<!-- Node1 -->
<g id="node2" class="node">
<title>Node1</title>
<g id="a_node2"><a xlink:href="classpism_1_1ConfigJSON.html" target="_top" xlink:title="The JSON&#45;based Config implementation.">
<polygon fill="none" stroke="black" points="120,-38.5 120,-57.5 221,-57.5 221,-38.5 120,-38.5"/>
<text text-anchor="middle" x="170.5" y="-45.5" font-family="Helvetica,sans-Serif" font-size="10.00">pism::ConfigJSON</text>
</a>
</g>
</g>
<!-- Node0&#45;&gt;Node1 -->
<g id="edge1" class="edge">
<title>Node0&#45;&gt;Node1</title>
<path fill="none" stroke="midnightblue" d="M87.09,-35.96C97.77,-37.52 109.12,-39.18 119.88,-40.75"/>
<polygon fill="midnightblue" stroke="midnightblue" points="87.5,-32.48 77.1,-34.5 86.49,-39.41 87.5,-32.48"/>
</g>
<!-- Node2 -->
<g id="node3" class="node">
<title>Node2</title>
<g id="a_node3"><a xlink:href="classpism_1_1NetCDFConfig.html" target="_top" xlink:title="A class for reading, writing and accessing PISM configuration flags and parameters.">
<polygon fill="none" stroke="black" points="113,-0.5 113,-19.5 228,-19.5 228,-0.5 113,-0.5"/>
<text text-anchor="middle" x="170.5" y="-7.5" font-family="Helvetica,sans-Serif" font-size="10.00">pism::NetCDFConfig</text>
</a>
</g>
</g>
<!-- Node0&#45;&gt;Node2 -->
<g id="edge2" class="edge">
<title>Node0&#45;&gt;Node2</title>
<path fill="none" stroke="midnightblue" d="M87.01,-22.06C95.34,-20.84 104.08,-19.56 112.63,-18.31"/>
<polygon fill="midnightblue" stroke="midnightblue" points="86.49,-18.59 77.1,-23.5 87.5,-25.52 86.49,-18.59"/>
</g>
<!-- Node3 -->
<g id="node4" class="node">
<title>Node3</title>
<g id="a_node4"><a xlink:href="classpism_1_1DefaultConfig.html" target="_top" xlink:title="Default PISM configuration database: uses NetCDF files; can be initialized from a file specified usin...">
<polygon fill="none" stroke="black" points="264,-0.5 264,-19.5 377,-19.5 377,-0.5 264,-0.5"/>
<text text-anchor="middle" x="320.5" y="-7.5" font-family="Helvetica,sans-Serif" font-size="10.00">pism::DefaultConfig</text>
</a>
</g>
</g>
<!-- Node2&#45;&gt;Node3 -->
<g id="edge3" class="edge">
<title>Node2&#45;&gt;Node3</title>
<path fill="none" stroke="midnightblue" d="M238.46,-10C246.86,-10 255.38,-10 263.59,-10"/>
<polygon fill="midnightblue" stroke="midnightblue" points="238.3,-6.5 228.3,-10 238.3,-13.5 238.3,-6.5"/>
</g>
</g>
</svg>
