<?xml version="1.0" encoding="UTF-8" standalone="no"?>
<!DOCTYPE svg PUBLIC "-//W3C//DTD SVG 1.1//EN"
 "http://www.w3.org/Graphics/SVG/1.1/DTD/svg11.dtd">
<!-- Generated by graphviz version 2.43.0 (0)
 -->
<!-- Title: Graphical Class Hierarchy Pages: 1 -->
<svg width="1155pt" height="504pt"
 viewBox="0.00 0.00 1155.00 504.00" xmlns="http://www.w3.org/2000/svg" xmlns:xlink="http://www.w3.org/1999/xlink">
<g id="graph0" class="graph" transform="scale(1 1) rotate(0) translate(4 500)">
<title>Graphical Class Hierarchy</title>
<!-- Node0 -->
<g id="node1" class="node">
<title>Node0</title>
<g id="a_node1"><a xlink:href="classpism_1_1PetscAccessible.html" target="_top" xlink:title=" ">
<polygon fill="none" stroke="black" points="0,-196.5 0,-215.5 125,-215.5 125,-196.5 0,-196.5"/>
<text text-anchor="middle" x="62.5" y="-203.5" font-family="Helvetica,sans-Serif" font-size="10.00">pism::PetscAccessible</text>
</a>
</g>
</g>
<!-- Node1 -->
<g id="node2" class="node">
<title>Node1</title>
<g id="a_node2"><a xlink:href="classpism_1_1array_1_1Array.html" target="_top" xlink:title="Abstract class for reading, writing, allocating, and accessing a DA&#45;based PETSc Vec (2D and 3D fields...">
<polygon fill="none" stroke="black" points="188,-215.5 188,-234.5 292,-234.5 292,-215.5 188,-215.5"/>
<text text-anchor="middle" x="240" y="-222.5" font-family="Helvetica,sans-Serif" font-size="10.00">pism::array::Array</text>
</a>
</g>
</g>
<!-- Node0&#45;&gt;Node1 -->
<g id="edge1" class="edge">
<title>Node0&#45;&gt;Node1</title>
<path fill="none" stroke="midnightblue" d="M135.57,-213.8C153.1,-215.7 171.49,-217.69 187.82,-219.46"/>
<polygon fill="midnightblue" stroke="midnightblue" points="135.69,-210.3 125.37,-212.7 134.94,-217.25 135.69,-210.3"/>
</g>
<!-- Node23 -->
<g id="node24" class="node">
<title>Node23</title>
<g id="a_node24"><a xlink:href="structpism_1_1icebin_1_1MassEnthVec2S.html" target="_top" xlink:title=" ">
<polygon fill="none" stroke="black" points="161,-177.5 161,-196.5 319,-196.5 319,-177.5 161,-177.5"/>
<text text-anchor="middle" x="240" y="-184.5" font-family="Helvetica,sans-Serif" font-size="10.00">pism::icebin::MassEnthVec2S</text>
</a>
</g>
</g>
<!-- Node0&#45;&gt;Node23 -->
<g id="edge23" class="edge">
<title>Node0&#45;&gt;Node23</title>
<path fill="none" stroke="midnightblue" d="M135.44,-198.21C143.79,-197.31 152.34,-196.38 160.77,-195.47"/>
<polygon fill="midnightblue" stroke="midnightblue" points="134.94,-194.75 125.37,-199.3 135.69,-201.7 134.94,-194.75"/>
</g>
<!-- Node2 -->
<g id="node3" class="node">
<title>Node2</title>
<g id="a_node3"><a xlink:href="classpism_1_1array_1_1Array2D.html" target="_top" xlink:title=" ">
<polygon fill="none" stroke="black" points="359,-454.5 359,-495.5 497,-495.5 497,-454.5 359,-454.5"/>
<text text-anchor="start" x="367" y="-483.5" font-family="Helvetica,sans-Serif" font-size="10.00">pism::array::Array2D</text>
<text text-anchor="start" x="367" y="-472.5" font-family="Helvetica,sans-Serif" font-size="10.00">&lt; pism::stressbalance</text>
<text text-anchor="middle" x="428" y="-461.5" font-family="Helvetica,sans-Serif" font-size="10.00">::SSAFEM::Coefficients &gt;</text>
</a>
</g>
</g>
<!-- Node1&#45;&gt;Node2 -->
<g id="edge2" class="edge">
<title>Node1&#45;&gt;Node2</title>
<path fill="none" stroke="midnightblue" d="M246.2,-244.7C258.3,-286.98 292.23,-387.25 355,-445 358.79,-448.48 363.04,-451.59 367.53,-454.37"/>
<polygon fill="midnightblue" stroke="midnightblue" points="249.51,-243.53 243.47,-234.83 242.76,-245.4 249.51,-243.53"/>
</g>
<!-- Node3 -->
<g id="node4" class="node">
<title>Node3</title>
<g id="a_node4"><a xlink:href="classpism_1_1array_1_1Array2D.html" target="_top" xlink:title=" ">
<polygon fill="none" stroke="black" points="369.5,-405 369.5,-435 486.5,-435 486.5,-405 369.5,-405"/>
<text text-anchor="start" x="377.5" y="-423" font-family="Helvetica,sans-Serif" font-size="10.00">pism::array::Array2D</text>
<text text-anchor="middle" x="428" y="-412" font-family="Helvetica,sans-Serif" font-size="10.00">&lt; double &gt;</text>
</a>
</g>
</g>
<!-- Node1&#45;&gt;Node3 -->
<g id="edge3" class="edge">
<title>Node1&#45;&gt;Node3</title>
<path fill="none" stroke="midnightblue" d="M248.87,-244.17C264.17,-279.14 301.2,-353.49 355,-395 360.03,-398.88 365.7,-402.18 371.6,-404.99"/>
<polygon fill="midnightblue" stroke="midnightblue" points="251.96,-242.5 244.83,-234.67 245.52,-245.24 251.96,-242.5"/>
</g>
<!-- Node11 -->
<g id="node12" class="node">
<title>Node11</title>
<g id="a_node12"><a xlink:href="classpism_1_1array_1_1Array2D.html" target="_top" xlink:title=" ">
<polygon fill="none" stroke="black" points="365.5,-344.5 365.5,-385.5 490.5,-385.5 490.5,-344.5 365.5,-344.5"/>
<text text-anchor="start" x="373.5" y="-373.5" font-family="Helvetica,sans-Serif" font-size="10.00">pism::array::Array2D</text>
<text text-anchor="start" x="373.5" y="-362.5" font-family="Helvetica,sans-Serif" font-size="10.00">&lt; pism::stressbalance</text>
<text text-anchor="middle" x="428" y="-351.5" font-family="Helvetica,sans-Serif" font-size="10.00">::DeviatoricStresses &gt;</text>
</a>
</g>
</g>
<!-- Node1&#45;&gt;Node11 -->
<g id="edge11" class="edge">
<title>Node1&#45;&gt;Node11</title>
<path fill="none" stroke="midnightblue" d="M255.47,-242.59C275.68,-266.23 314.46,-308.37 355,-335 360.21,-338.42 365.87,-341.58 371.65,-344.46"/>
<polygon fill="midnightblue" stroke="midnightblue" points="258.01,-240.17 248.89,-234.78 252.66,-244.68 258.01,-240.17"/>
</g>
<!-- Node12 -->
<g id="node13" class="node">
<title>Node12</title>
<g id="a_node13"><a xlink:href="classpism_1_1array_1_1Array2D.html" target="_top" xlink:title=" ">
<polygon fill="none" stroke="black" points="369.5,-295 369.5,-325 486.5,-325 486.5,-295 369.5,-295"/>
<text text-anchor="start" x="377.5" y="-313" font-family="Helvetica,sans-Serif" font-size="10.00">pism::array::Array2D</text>
<text text-anchor="middle" x="428" y="-302" font-family="Helvetica,sans-Serif" font-size="10.00">&lt; pism::Vector2d &gt;</text>
</a>
</g>
</g>
<!-- Node1&#45;&gt;Node12 -->
<g id="edge12" class="edge">
<title>Node1&#45;&gt;Node12</title>
<path fill="none" stroke="midnightblue" d="M266.21,-239.68C288.96,-252.58 323.58,-271.37 355,-285 363.01,-288.48 371.68,-291.82 380.13,-294.87"/>
<polygon fill="midnightblue" stroke="midnightblue" points="267.65,-236.47 257.23,-234.54 264.17,-242.54 267.65,-236.47"/>
</g>
<!-- Node16 -->
<g id="node17" class="node">
<title>Node16</title>
<g id="a_node17"><a xlink:href="classpism_1_1array_1_1Array2D.html" target="_top" xlink:title=" ">
<polygon fill="none" stroke="black" points="365.5,-234.5 365.5,-275.5 490.5,-275.5 490.5,-234.5 365.5,-234.5"/>
<text text-anchor="start" x="373.5" y="-263.5" font-family="Helvetica,sans-Serif" font-size="10.00">pism::array::Array2D</text>
<text text-anchor="start" x="373.5" y="-252.5" font-family="Helvetica,sans-Serif" font-size="10.00">&lt; pism::stressbalance</text>
<text text-anchor="middle" x="428" y="-241.5" font-family="Helvetica,sans-Serif" font-size="10.00">::SSAFD::Work &gt;</text>
</a>
</g>
</g>
<!-- Node1&#45;&gt;Node16 -->
<g id="edge16" class="edge">
<title>Node1&#45;&gt;Node16</title>
<path fill="none" stroke="midnightblue" d="M302.35,-234.89C322.56,-238.15 345.03,-241.78 365.27,-245.04"/>
<polygon fill="midnightblue" stroke="midnightblue" points="302.75,-231.41 292.32,-233.28 301.63,-238.32 302.75,-231.41"/>
</g>
<!-- Node17 -->
<g id="node18" class="node">
<title>Node17</title>
<g id="a_node18"><a xlink:href="classpism_1_1array_1_1Array2D.html" target="_top" xlink:title=" ">
<polygon fill="none" stroke="black" points="364,-174.5 364,-215.5 492,-215.5 492,-174.5 364,-174.5"/>
<text text-anchor="start" x="372" y="-203.5" font-family="Helvetica,sans-Serif" font-size="10.00">pism::array::Array2D</text>
<text text-anchor="start" x="372" y="-192.5" font-family="Helvetica,sans-Serif" font-size="10.00">&lt; pism::stressbalance</text>
<text text-anchor="middle" x="428" y="-181.5" font-family="Helvetica,sans-Serif" font-size="10.00">::Blatter::Parameters &gt;</text>
</a>
</g>
</g>
<!-- Node1&#45;&gt;Node17 -->
<g id="edge17" class="edge">
<title>Node1&#45;&gt;Node17</title>
<path fill="none" stroke="midnightblue" d="M302.42,-215.09C322.16,-211.91 344.06,-208.38 363.92,-205.17"/>
<polygon fill="midnightblue" stroke="midnightblue" points="301.63,-211.68 292.32,-216.72 302.75,-218.59 301.63,-211.68"/>
</g>
<!-- Node18 -->
<g id="node19" class="node">
<title>Node18</title>
<g id="a_node19"><a xlink:href="classpism_1_1array_1_1Array2D.html" target="_top" xlink:title=" ">
<polygon fill="none" stroke="black" points="362,-114.5 362,-155.5 494,-155.5 494,-114.5 362,-114.5"/>
<text text-anchor="start" x="370" y="-143.5" font-family="Helvetica,sans-Serif" font-size="10.00">pism::array::Array2D</text>
<text text-anchor="start" x="370" y="-132.5" font-family="Helvetica,sans-Serif" font-size="10.00">&lt; pism::stressbalance</text>
<text text-anchor="middle" x="428" y="-121.5" font-family="Helvetica,sans-Serif" font-size="10.00">::PrincipalStrainRates &gt;</text>
</a>
</g>
</g>
<!-- Node1&#45;&gt;Node18 -->
<g id="edge18" class="edge">
<title>Node1&#45;&gt;Node18</title>
<path fill="none" stroke="midnightblue" d="M301.84,-214.12C307.84,-211.9 313.68,-209.22 319,-206 339.74,-193.44 335.3,-179.14 355,-165 359.73,-161.6 364.9,-158.5 370.24,-155.69"/>
<polygon fill="midnightblue" stroke="midnightblue" points="300.71,-210.81 292.3,-217.25 302.89,-217.46 300.71,-210.81"/>
</g>
<!-- Node19 -->
<g id="node20" class="node">
<title>Node19</title>
<g id="a_node20"><a xlink:href="classpism_1_1array_1_1Array2D.html" target="_top" xlink:title="A storage vector combining related fields in a struct.">
<polygon fill="none" stroke="black" points="355,-76.5 355,-95.5 501,-95.5 501,-76.5 355,-76.5"/>
<text text-anchor="middle" x="428" y="-83.5" font-family="Helvetica,sans-Serif" font-size="10.00">pism::array::Array2D&lt; T &gt;</text>
</a>
</g>
</g>
<!-- Node1&#45;&gt;Node19 -->
<g id="edge19" class="edge">
<title>Node1&#45;&gt;Node19</title>
<path fill="none" stroke="midnightblue" d="M301.55,-216.8C307.93,-214.1 313.92,-210.58 319,-206 354.39,-174.09 319.91,-137.25 355,-105 359.19,-101.15 364.06,-98.06 369.27,-95.59"/>
<polygon fill="midnightblue" stroke="midnightblue" points="300.25,-213.55 292.01,-220.2 302.6,-220.14 300.25,-213.55"/>
</g>
<!-- Node20 -->
<g id="node21" class="node">
<title>Node20</title>
<g id="a_node21"><a xlink:href="classpism_1_1array_1_1Array3D.html" target="_top" xlink:title="A virtual class collecting methods common to ice and bedrock 3D fields.">
<polygon fill="none" stroke="black" points="369.5,-38.5 369.5,-57.5 486.5,-57.5 486.5,-38.5 369.5,-38.5"/>
<text text-anchor="middle" x="428" y="-45.5" font-family="Helvetica,sans-Serif" font-size="10.00">pism::array::Array3D</text>
</a>
</g>
</g>
<!-- Node1&#45;&gt;Node20 -->
<g id="edge20" class="edge">
<title>Node1&#45;&gt;Node20</title>
<path fill="none" stroke="midnightblue" d="M301.7,-217.35C308.1,-214.56 314.06,-210.86 319,-206 364.45,-161.2 309.98,-112.23 355,-67 359.1,-62.88 363.99,-59.62 369.26,-57.04"/>
<polygon fill="midnightblue" stroke="midnightblue" points="300.29,-214.13 292.08,-220.82 302.67,-220.72 300.29,-214.13"/>
</g>
<!-- Node21 -->
<g id="node22" class="node">
<title>Node21</title>
<g id="a_node22"><a xlink:href="classpism_1_1array_1_1Staggered.html" target="_top" xlink:title="A class for storing and accessing internal staggered&#45;grid 2D fields. Uses dof=2 storage....">
<polygon fill="none" stroke="black" points="364.5,-0.5 364.5,-19.5 491.5,-19.5 491.5,-0.5 364.5,-0.5"/>
<text text-anchor="middle" x="428" y="-7.5" font-family="Helvetica,sans-Serif" font-size="10.00">pism::array::Staggered</text>
</a>
</g>
</g>
<!-- Node1&#45;&gt;Node21 -->
<g id="edge21" class="edge">
<title>Node1&#45;&gt;Node21</title>
<path fill="none" stroke="midnightblue" d="M301.96,-217.6C308.31,-214.76 314.19,-210.99 319,-206 374.67,-148.16 299.89,-87.37 355,-29 358.64,-25.15 362.96,-22.04 367.65,-19.54"/>
<polygon fill="midnightblue" stroke="midnightblue" points="300.55,-214.38 292.37,-221.11 302.96,-220.96 300.55,-214.38"/>
</g>
<!-- Node4 -->
<g id="node5" class="node">
<title>Node4</title>
<g id="a_node5"><a xlink:href="classpism_1_1array_1_1Scalar.html" target="_top" xlink:title=" ">
<polygon fill="none" stroke="black" points="550,-410.5 550,-429.5 657,-429.5 657,-410.5 550,-410.5"/>
<text text-anchor="middle" x="603.5" y="-417.5" font-family="Helvetica,sans-Serif" font-size="10.00">pism::array::Scalar</text>
</a>
</g>
</g>
<!-- Node3&#45;&gt;Node4 -->
<g id="edge4" class="edge">
<title>Node3&#45;&gt;Node4</title>
<path fill="none" stroke="midnightblue" d="M496.99,-420C514.59,-420 533.27,-420 549.95,-420"/>
<polygon fill="midnightblue" stroke="midnightblue" points="496.77,-416.5 486.77,-420 496.77,-423.5 496.77,-416.5"/>
</g>
<!-- Node5 -->
<g id="node6" class="node">
<title>Node5</title>
<g id="a_node6"><a xlink:href="classpism_1_1array_1_1CellType.html" target="_top" xlink:title="&quot;Cell type&quot; mask. Adds convenience methods to array::Scalar.">
<polygon fill="none" stroke="black" points="706,-448.5 706,-467.5 825,-467.5 825,-448.5 706,-448.5"/>
<text text-anchor="middle" x="765.5" y="-455.5" font-family="Helvetica,sans-Serif" font-size="10.00">pism::array::CellType</text>
</a>
</g>
</g>
<!-- Node4&#45;&gt;Node5 -->
<g id="edge5" class="edge">
<title>Node4&#45;&gt;Node5</title>
<path fill="none" stroke="midnightblue" d="M654.89,-431.97C677.31,-437.29 703.35,-443.48 724.42,-448.48"/>
<polygon fill="midnightblue" stroke="midnightblue" points="655.41,-428.49 644.87,-429.59 653.8,-435.31 655.41,-428.49"/>
</g>
<!-- Node8 -->
<g id="node9" class="node">
<title>Node8</title>
<g id="a_node9"><a xlink:href="classpism_1_1array_1_1Forcing.html" target="_top" xlink:title="2D time&#45;dependent inputs (for climate forcing, etc)">
<polygon fill="none" stroke="black" points="709,-410.5 709,-429.5 822,-429.5 822,-410.5 709,-410.5"/>
<text text-anchor="middle" x="765.5" y="-417.5" font-family="Helvetica,sans-Serif" font-size="10.00">pism::array::Forcing</text>
</a>
</g>
</g>
<!-- Node4&#45;&gt;Node8 -->
<g id="edge8" class="edge">
<title>Node4&#45;&gt;Node8</title>
<path fill="none" stroke="midnightblue" d="M667.62,-420C681.28,-420 695.63,-420 708.98,-420"/>
<polygon fill="midnightblue" stroke="midnightblue" points="667.33,-416.5 657.33,-420 667.33,-423.5 667.33,-416.5"/>
</g>
<!-- Node9 -->
<g id="node10" class="node">
<title>Node9</title>
<g id="a_node10"><a xlink:href="classpism_1_1array_1_1Scalar1.html" target="_top" xlink:title=" ">
<polygon fill="none" stroke="black" points="709,-372.5 709,-391.5 822,-391.5 822,-372.5 709,-372.5"/>
<text text-anchor="middle" x="765.5" y="-379.5" font-family="Helvetica,sans-Serif" font-size="10.00">pism::array::Scalar1</text>
</a>
</g>
</g>
<!-- Node4&#45;&gt;Node9 -->
<g id="edge9" class="edge">
<title>Node4&#45;&gt;Node9</title>
<path fill="none" stroke="midnightblue" d="M654.89,-408.03C677.31,-402.71 703.35,-396.52 724.42,-391.52"/>
<polygon fill="midnightblue" stroke="midnightblue" points="653.8,-404.69 644.87,-410.41 655.41,-411.51 653.8,-404.69"/>
</g>
<!-- Node6 -->
<g id="node7" class="node">
<title>Node6</title>
<g id="a_node7"><a xlink:href="classpism_1_1array_1_1CellType1.html" target="_top" xlink:title=" ">
<polygon fill="none" stroke="black" points="861,-448.5 861,-467.5 986,-467.5 986,-448.5 861,-448.5"/>
<text text-anchor="middle" x="923.5" y="-455.5" font-family="Helvetica,sans-Serif" font-size="10.00">pism::array::CellType1</text>
</a>
</g>
</g>
<!-- Node5&#45;&gt;Node6 -->
<g id="edge6" class="edge">
<title>Node5&#45;&gt;Node6</title>
<path fill="none" stroke="midnightblue" d="M835.28,-458C843.77,-458 852.4,-458 860.77,-458"/>
<polygon fill="midnightblue" stroke="midnightblue" points="835.03,-454.5 825.03,-458 835.03,-461.5 835.03,-454.5"/>
</g>
<!-- Node7 -->
<g id="node8" class="node">
<title>Node7</title>
<g id="a_node8"><a xlink:href="classpism_1_1array_1_1CellType2.html" target="_top" xlink:title=" ">
<polygon fill="none" stroke="black" points="1022,-448.5 1022,-467.5 1147,-467.5 1147,-448.5 1022,-448.5"/>
<text text-anchor="middle" x="1084.5" y="-455.5" font-family="Helvetica,sans-Serif" font-size="10.00">pism::array::CellType2</text>
</a>
</g>
</g>
<!-- Node6&#45;&gt;Node7 -->
<g id="edge7" class="edge">
<title>Node6&#45;&gt;Node7</title>
<path fill="none" stroke="midnightblue" d="M996.59,-458C1004.99,-458 1013.5,-458 1021.74,-458"/>
<polygon fill="midnightblue" stroke="midnightblue" points="996.43,-454.5 986.43,-458 996.43,-461.5 996.43,-454.5"/>
</g>
<!-- Node10 -->
<g id="node11" class="node">
<title>Node10</title>
<g id="a_node11"><a xlink:href="classpism_1_1array_1_1Scalar2.html" target="_top" xlink:title=" ">
<polygon fill="none" stroke="black" points="867,-372.5 867,-391.5 980,-391.5 980,-372.5 867,-372.5"/>
<text text-anchor="middle" x="923.5" y="-379.5" font-family="Helvetica,sans-Serif" font-size="10.00">pism::array::Scalar2</text>
</a>
</g>
</g>
<!-- Node9&#45;&gt;Node10 -->
<g id="edge10" class="edge">
<title>Node9&#45;&gt;Node10</title>
<path fill="none" stroke="midnightblue" d="M832.67,-382C844.02,-382 855.71,-382 866.75,-382"/>
<polygon fill="midnightblue" stroke="midnightblue" points="832.38,-378.5 822.38,-382 832.38,-385.5 832.38,-378.5"/>
</g>
<!-- Node13 -->
<g id="node14" class="node">
<title>Node13</title>
<g id="a_node14"><a xlink:href="classpism_1_1array_1_1Vector.html" target="_top" xlink:title=" ">
<polygon fill="none" stroke="black" points="549.5,-300.5 549.5,-319.5 657.5,-319.5 657.5,-300.5 549.5,-300.5"/>
<text text-anchor="middle" x="603.5" y="-307.5" font-family="Helvetica,sans-Serif" font-size="10.00">pism::array::Vector</text>
</a>
</g>
</g>
<!-- Node12&#45;&gt;Node13 -->
<g id="edge13" class="edge">
<title>Node12&#45;&gt;Node13</title>
<path fill="none" stroke="midnightblue" d="M496.89,-310C514.32,-310 532.81,-310 549.37,-310"/>
<polygon fill="midnightblue" stroke="midnightblue" points="496.77,-306.5 486.77,-310 496.77,-313.5 496.77,-306.5"/>
</g>
<!-- Node14 -->
<g id="node15" class="node">
<title>Node14</title>
<g id="a_node15"><a xlink:href="classpism_1_1array_1_1Vector1.html" target="_top" xlink:title=" ">
<polygon fill="none" stroke="black" points="708.5,-300.5 708.5,-319.5 822.5,-319.5 822.5,-300.5 708.5,-300.5"/>
<text text-anchor="middle" x="765.5" y="-307.5" font-family="Helvetica,sans-Serif" font-size="10.00">pism::array::Vector1</text>
</a>
</g>
</g>
<!-- Node13&#45;&gt;Node14 -->
<g id="edge14" class="edge">
<title>Node13&#45;&gt;Node14</title>
<path fill="none" stroke="midnightblue" d="M667.87,-310C681.28,-310 695.33,-310 708.44,-310"/>
<polygon fill="midnightblue" stroke="midnightblue" points="667.78,-306.5 657.78,-310 667.78,-313.5 667.78,-306.5"/>
</g>
<!-- Node15 -->
<g id="node16" class="node">
<title>Node15</title>
<g id="a_node16"><a xlink:href="classpism_1_1array_1_1Vector2.html" target="_top" xlink:title=" ">
<polygon fill="none" stroke="black" points="866.5,-300.5 866.5,-319.5 980.5,-319.5 980.5,-300.5 866.5,-300.5"/>
<text text-anchor="middle" x="923.5" y="-307.5" font-family="Helvetica,sans-Serif" font-size="10.00">pism::array::Vector2</text>
</a>
</g>
</g>
<!-- Node14&#45;&gt;Node15 -->
<g id="edge15" class="edge">
<title>Node14&#45;&gt;Node15</title>
<path fill="none" stroke="midnightblue" d="M832.9,-310C844.01,-310 855.44,-310 866.26,-310"/>
<polygon fill="midnightblue" stroke="midnightblue" points="832.82,-306.5 822.82,-310 832.82,-313.5 832.82,-306.5"/>
</g>
<!-- Node22 -->
<g id="node23" class="node">
<title>Node22</title>
<g id="a_node23"><a xlink:href="classpism_1_1array_1_1Staggered1.html" target="_top" xlink:title=" ">
<polygon fill="none" stroke="black" points="537,-0.5 537,-19.5 670,-19.5 670,-0.5 537,-0.5"/>
<text text-anchor="middle" x="603.5" y="-7.5" font-family="Helvetica,sans-Serif" font-size="10.00">pism::array::Staggered1</text>
</a>
</g>
</g>
<!-- Node21&#45;&gt;Node22 -->
<g id="edge22" class="edge">
<title>Node21&#45;&gt;Node22</title>
<path fill="none" stroke="midnightblue" d="M501.73,-10C513.34,-10 525.3,-10 536.74,-10"/>
<polygon fill="midnightblue" stroke="midnightblue" points="501.64,-6.5 491.64,-10 501.64,-13.5 501.64,-6.5"/>
</g>
</g>
</svg>
