<?xml version="1.0" encoding="UTF-8" standalone="no"?>
<!DOCTYPE svg PUBLIC "-//W3C//DTD SVG 1.1//EN"
 "http://www.w3.org/Graphics/SVG/1.1/DTD/svg11.dtd">
<!-- Generated by graphviz version 2.43.0 (0)
 -->
<!-- Title: Graphical Class Hierarchy Pages: 1 -->
<svg width="869pt" height="334pt"
 viewBox="0.00 0.00 869.00 334.00" xmlns="http://www.w3.org/2000/svg" xmlns:xlink="http://www.w3.org/1999/xlink">
<g id="graph0" class="graph" transform="scale(1 1) rotate(0) translate(4 330)">
<title>Graphical Class Hierarchy</title>
<!-- Node0 -->
<g id="node1" class="node">
<title>Node0</title>
<g id="a_node1"><a xlink:href="classpism_1_1PetscAccessible.html" target="_top" xlink:title=" ">
<polygon fill="none" stroke="black" points="0,-106.5 0,-125.5 125,-125.5 125,-106.5 0,-106.5"/>
<text text-anchor="middle" x="62.5" y="-113.5" font-family="Helvetica,sans-Serif" font-size="10.00">pism::PetscAccessible</text>
</a>
</g>
</g>
<!-- Node1 -->
<g id="node2" class="node">
<title>Node1</title>
<g id="a_node2"><a xlink:href="classpism_1_1IceModelVec.html" target="_top" xlink:title="Abstract class for reading, writing, allocating, and accessing a DA&#45;based PETSc Vec (2D and 3D fields...">
<polygon fill="none" stroke="black" points="186,-125.5 186,-144.5 294,-144.5 294,-125.5 186,-125.5"/>
<text text-anchor="middle" x="240" y="-132.5" font-family="Helvetica,sans-Serif" font-size="10.00">pism::IceModelVec</text>
</a>
</g>
</g>
<!-- Node0&#45;&gt;Node1 -->
<g id="edge1" class="edge">
<title>Node0&#45;&gt;Node1</title>
<path fill="none" stroke="midnightblue" d="M135.7,-123.82C152.48,-125.63 170.04,-127.53 185.83,-129.24"/>
<polygon fill="midnightblue" stroke="midnightblue" points="135.69,-120.3 125.37,-122.7 134.94,-127.25 135.69,-120.3"/>
</g>
<!-- Node14 -->
<g id="node15" class="node">
<title>Node14</title>
<g id="a_node15"><a xlink:href="structpism_1_1icebin_1_1MassEnthVec2S.html" target="_top" xlink:title=" ">
<polygon fill="none" stroke="black" points="161,-87.5 161,-106.5 319,-106.5 319,-87.5 161,-87.5"/>
<text text-anchor="middle" x="240" y="-94.5" font-family="Helvetica,sans-Serif" font-size="10.00">pism::icebin::MassEnthVec2S</text>
</a>
</g>
</g>
<!-- Node0&#45;&gt;Node14 -->
<g id="edge14" class="edge">
<title>Node0&#45;&gt;Node14</title>
<path fill="none" stroke="midnightblue" d="M135.44,-108.21C143.79,-107.31 152.34,-106.38 160.77,-105.47"/>
<polygon fill="midnightblue" stroke="midnightblue" points="134.94,-104.75 125.37,-109.3 135.69,-111.7 134.94,-104.75"/>
</g>
<!-- Node2 -->
<g id="node3" class="node">
<title>Node2</title>
<g id="a_node3"><a xlink:href="classpism_1_1IceModelVec2.html" target="_top" xlink:title=" ">
<polygon fill="none" stroke="black" points="357.5,-284.5 357.5,-325.5 495.5,-325.5 495.5,-284.5 357.5,-284.5"/>
<text text-anchor="start" x="365.5" y="-313.5" font-family="Helvetica,sans-Serif" font-size="10.00">pism::IceModelVec2</text>
<text text-anchor="start" x="365.5" y="-302.5" font-family="Helvetica,sans-Serif" font-size="10.00">&lt; pism::stressbalance</text>
<text text-anchor="middle" x="426.5" y="-291.5" font-family="Helvetica,sans-Serif" font-size="10.00">::SSAFEM::Coefficients &gt;</text>
</a>
</g>
</g>
<!-- Node1&#45;&gt;Node2 -->
<g id="edge2" class="edge">
<title>Node1&#45;&gt;Node2</title>
<path fill="none" stroke="midnightblue" d="M251.99,-153.68C270.11,-183.06 308.86,-240.3 355,-275 359.57,-278.44 364.6,-281.57 369.79,-284.4"/>
<polygon fill="midnightblue" stroke="midnightblue" points="254.82,-151.6 246.66,-144.86 248.83,-155.23 254.82,-151.6"/>
</g>
<!-- Node3 -->
<g id="node4" class="node">
<title>Node3</title>
<g id="a_node4"><a xlink:href="classpism_1_1IceModelVec2.html" target="_top" xlink:title=" ">
<polygon fill="none" stroke="black" points="369.5,-235 369.5,-265 483.5,-265 483.5,-235 369.5,-235"/>
<text text-anchor="start" x="377.5" y="-253" font-family="Helvetica,sans-Serif" font-size="10.00">pism::IceModelVec2</text>
<text text-anchor="middle" x="426.5" y="-242" font-family="Helvetica,sans-Serif" font-size="10.00">&lt; Vector2 &gt;</text>
</a>
</g>
</g>
<!-- Node1&#45;&gt;Node3 -->
<g id="edge3" class="edge">
<title>Node1&#45;&gt;Node3</title>
<path fill="none" stroke="midnightblue" d="M258.15,-151.54C279.4,-171.29 317.42,-204.25 355,-225 361.71,-228.7 369.07,-232.03 376.42,-234.95"/>
<polygon fill="midnightblue" stroke="midnightblue" points="260.54,-148.99 250.87,-144.67 255.74,-154.08 260.54,-148.99"/>
</g>
<!-- Node5 -->
<g id="node6" class="node">
<title>Node5</title>
<g id="a_node6"><a xlink:href="classpism_1_1IceModelVec2.html" target="_top" xlink:title=" ">
<polygon fill="none" stroke="black" points="364,-174.5 364,-215.5 489,-215.5 489,-174.5 364,-174.5"/>
<text text-anchor="start" x="372" y="-203.5" font-family="Helvetica,sans-Serif" font-size="10.00">pism::IceModelVec2</text>
<text text-anchor="start" x="372" y="-192.5" font-family="Helvetica,sans-Serif" font-size="10.00">&lt; pism::stressbalance</text>
<text text-anchor="middle" x="426.5" y="-181.5" font-family="Helvetica,sans-Serif" font-size="10.00">::SSAFD::Work &gt;</text>
</a>
</g>
</g>
<!-- Node1&#45;&gt;Node5 -->
<g id="edge5" class="edge">
<title>Node1&#45;&gt;Node5</title>
<path fill="none" stroke="midnightblue" d="M279.85,-147.63C304.22,-155.56 336.18,-165.95 363.94,-174.98"/>
<polygon fill="midnightblue" stroke="midnightblue" points="280.83,-144.27 270.23,-144.51 278.66,-150.93 280.83,-144.27"/>
</g>
<!-- Node6 -->
<g id="node7" class="node">
<title>Node6</title>
<g id="a_node7"><a xlink:href="classpism_1_1IceModelVec2.html" target="_top" xlink:title=" ">
<polygon fill="none" stroke="black" points="362.5,-114.5 362.5,-155.5 490.5,-155.5 490.5,-114.5 362.5,-114.5"/>
<text text-anchor="start" x="370.5" y="-143.5" font-family="Helvetica,sans-Serif" font-size="10.00">pism::IceModelVec2</text>
<text text-anchor="start" x="370.5" y="-132.5" font-family="Helvetica,sans-Serif" font-size="10.00">&lt; pism::stressbalance</text>
<text text-anchor="middle" x="426.5" y="-121.5" font-family="Helvetica,sans-Serif" font-size="10.00">::Blatter::Parameters &gt;</text>
</a>
</g>
</g>
<!-- Node1&#45;&gt;Node6 -->
<g id="edge6" class="edge">
<title>Node1&#45;&gt;Node6</title>
<path fill="none" stroke="midnightblue" d="M304.57,-135C323.3,-135 343.78,-135 362.47,-135"/>
<polygon fill="midnightblue" stroke="midnightblue" points="304.37,-131.5 294.37,-135 304.37,-138.5 304.37,-131.5"/>
</g>
<!-- Node7 -->
<g id="node8" class="node">
<title>Node7</title>
<g id="a_node8"><a xlink:href="classpism_1_1IceModelVec2.html" target="_top" xlink:title="A storage vector combining related fields in a struct.">
<polygon fill="none" stroke="black" points="355,-76.5 355,-95.5 498,-95.5 498,-76.5 355,-76.5"/>
<text text-anchor="middle" x="426.5" y="-83.5" font-family="Helvetica,sans-Serif" font-size="10.00">pism::IceModelVec2&lt; T &gt;</text>
</a>
</g>
</g>
<!-- Node1&#45;&gt;Node7 -->
<g id="edge7" class="edge">
<title>Node1&#45;&gt;Node7</title>
<path fill="none" stroke="midnightblue" d="M291.73,-123.09C300.83,-120.83 310.22,-118.41 319,-116 335.13,-111.57 338.92,-109.62 355,-105 366.09,-101.81 378.2,-98.49 389.21,-95.53"/>
<polygon fill="midnightblue" stroke="midnightblue" points="290.88,-119.7 282,-125.48 292.55,-126.5 290.88,-119.7"/>
</g>
<!-- Node8 -->
<g id="node9" class="node">
<title>Node8</title>
<g id="a_node9"><a xlink:href="classpism_1_1IceModelVec2S.html" target="_top" xlink:title=" ">
<polygon fill="none" stroke="black" points="366.5,-38.5 366.5,-57.5 486.5,-57.5 486.5,-38.5 366.5,-38.5"/>
<text text-anchor="middle" x="426.5" y="-45.5" font-family="Helvetica,sans-Serif" font-size="10.00">pism::IceModelVec2S</text>
</a>
</g>
</g>
<!-- Node1&#45;&gt;Node8 -->
<g id="edge8" class="edge">
<title>Node1&#45;&gt;Node8</title>
<path fill="none" stroke="midnightblue" d="M303.98,-123.85C309.27,-121.68 314.36,-119.09 319,-116 341.48,-101.01 332.7,-82.26 355,-67 360.65,-63.13 367.05,-60.05 373.64,-57.6"/>
<polygon fill="midnightblue" stroke="midnightblue" points="302.52,-120.65 294.29,-127.32 304.88,-127.24 302.52,-120.65"/>
</g>
<!-- Node12 -->
<g id="node13" class="node">
<title>Node12</title>
<g id="a_node13"><a xlink:href="classpism_1_1IceModelVec3.html" target="_top" xlink:title="A virtual class collecting methods common to ice and bedrock 3D fields.">
<polygon fill="none" stroke="black" points="369.5,-0.5 369.5,-19.5 483.5,-19.5 483.5,-0.5 369.5,-0.5"/>
<text text-anchor="middle" x="426.5" y="-7.5" font-family="Helvetica,sans-Serif" font-size="10.00">pism::IceModelVec3</text>
</a>
</g>
</g>
<!-- Node1&#45;&gt;Node12 -->
<g id="edge12" class="edge">
<title>Node1&#45;&gt;Node12</title>
<path fill="none" stroke="midnightblue" d="M303.72,-125.52C309.25,-123.02 314.46,-119.89 319,-116 350.77,-88.76 323.56,-56.62 355,-29 359.38,-25.15 364.46,-22.07 369.85,-19.61"/>
<polygon fill="midnightblue" stroke="midnightblue" points="302.27,-122.32 294.18,-129.16 304.77,-128.86 302.27,-122.32"/>
</g>
<!-- Node4 -->
<g id="node5" class="node">
<title>Node4</title>
<g id="a_node5"><a xlink:href="classpism_1_1IceModelVec2V.html" target="_top" xlink:title=" ">
<polygon fill="none" stroke="black" points="541.5,-240.5 541.5,-259.5 662.5,-259.5 662.5,-240.5 541.5,-240.5"/>
<text text-anchor="middle" x="602" y="-247.5" font-family="Helvetica,sans-Serif" font-size="10.00">pism::IceModelVec2V</text>
</a>
</g>
</g>
<!-- Node3&#45;&gt;Node4 -->
<g id="edge4" class="edge">
<title>Node3&#45;&gt;Node4</title>
<path fill="none" stroke="midnightblue" d="M493.93,-250C509.54,-250 526.08,-250 541.37,-250"/>
<polygon fill="midnightblue" stroke="midnightblue" points="493.83,-246.5 483.83,-250 493.83,-253.5 493.83,-246.5"/>
</g>
<!-- Node9 -->
<g id="node10" class="node">
<title>Node9</title>
<g id="a_node10"><a xlink:href="classpism_1_1IceModelVec2Int.html" target="_top" xlink:title="A simple class &quot;hiding&quot; the fact that the mask is stored as floating&#45;point scalars (instead of intege...">
<polygon fill="none" stroke="black" points="538.5,-76.5 538.5,-95.5 665.5,-95.5 665.5,-76.5 538.5,-76.5"/>
<text text-anchor="middle" x="602" y="-83.5" font-family="Helvetica,sans-Serif" font-size="10.00">pism::IceModelVec2Int</text>
</a>
</g>
</g>
<!-- Node8&#45;&gt;Node9 -->
<g id="edge9" class="edge">
<title>Node8&#45;&gt;Node9</title>
<path fill="none" stroke="midnightblue" d="M481.16,-59.75C505.69,-65.13 534.38,-71.41 557.53,-76.48"/>
<polygon fill="midnightblue" stroke="midnightblue" points="481.8,-56.31 471.28,-57.59 480.3,-63.15 481.8,-56.31"/>
</g>
<!-- Node11 -->
<g id="node12" class="node">
<title>Node11</title>
<g id="a_node12"><a xlink:href="classpism_1_1IceModelVec2T.html" target="_top" xlink:title="A class for storing and accessing 2D time&#45;series (for climate forcing)">
<polygon fill="none" stroke="black" points="542,-38.5 542,-57.5 662,-57.5 662,-38.5 542,-38.5"/>
<text text-anchor="middle" x="602" y="-45.5" font-family="Helvetica,sans-Serif" font-size="10.00">pism::IceModelVec2T</text>
</a>
</g>
</g>
<!-- Node8&#45;&gt;Node11 -->
<g id="edge11" class="edge">
<title>Node8&#45;&gt;Node11</title>
<path fill="none" stroke="midnightblue" d="M496.88,-48C511.74,-48 527.31,-48 541.75,-48"/>
<polygon fill="midnightblue" stroke="midnightblue" points="496.72,-44.5 486.72,-48 496.72,-51.5 496.72,-44.5"/>
</g>
<!-- Node10 -->
<g id="node11" class="node">
<title>Node10</title>
<g id="a_node11"><a xlink:href="classpism_1_1IceModelVec2CellType.html" target="_top" xlink:title="&quot;Cell type&quot; mask. Adds convenience methods to IceModelVec2Int.">
<polygon fill="none" stroke="black" points="706,-76.5 706,-95.5 861,-95.5 861,-76.5 706,-76.5"/>
<text text-anchor="middle" x="783.5" y="-83.5" font-family="Helvetica,sans-Serif" font-size="10.00">pism::IceModelVec2CellType</text>
</a>
</g>
</g>
<!-- Node9&#45;&gt;Node10 -->
<g id="edge10" class="edge">
<title>Node9&#45;&gt;Node10</title>
<path fill="none" stroke="midnightblue" d="M675.77,-86C685.72,-86 695.96,-86 705.97,-86"/>
<polygon fill="midnightblue" stroke="midnightblue" points="675.53,-82.5 665.53,-86 675.53,-89.5 675.53,-82.5"/>
</g>
<!-- Node13 -->
<g id="node14" class="node">
<title>Node13</title>
<g id="a_node14"><a xlink:href="classpism_1_1IceModelVec2Stag.html" target="_top" xlink:title="A class for storing and accessing internal staggered&#45;grid 2D fields. Uses dof=2 storage....">
<polygon fill="none" stroke="black" points="534,-0.5 534,-19.5 670,-19.5 670,-0.5 534,-0.5"/>
<text text-anchor="middle" x="602" y="-7.5" font-family="Helvetica,sans-Serif" font-size="10.00">pism::IceModelVec2Stag</text>
</a>
</g>
</g>
<!-- Node12&#45;&gt;Node13 -->
<g id="edge13" class="edge">
<title>Node12&#45;&gt;Node13</title>
<path fill="none" stroke="midnightblue" d="M494.1,-10C507.1,-10 520.74,-10 533.76,-10"/>
<polygon fill="midnightblue" stroke="midnightblue" points="493.83,-6.5 483.83,-10 493.83,-13.5 493.83,-6.5"/>
</g>
</g>
</svg>
