<?xml version="1.0" encoding="UTF-8" standalone="no"?>
<!DOCTYPE svg PUBLIC "-//W3C//DTD SVG 1.1//EN"
 "http://www.w3.org/Graphics/SVG/1.1/DTD/svg11.dtd">
<!-- Generated by graphviz version 2.43.0 (0)
 -->
<!-- Title: Graphical Class Hierarchy Pages: 1 -->
<svg width="271pt" height="142pt"
 viewBox="0.00 0.00 271.00 142.00" xmlns="http://www.w3.org/2000/svg" xmlns:xlink="http://www.w3.org/1999/xlink">
<g id="graph0" class="graph" transform="scale(1 1) rotate(0) translate(4 138)">
<title>Graphical Class Hierarchy</title>
<!-- Node0 -->
<g id="node1" class="node">
<title>Node0</title>
<g id="a_node1"><a xlink:href="classpism_1_1IceModel.html" target="_top" xlink:title=" ">
<polygon fill="none" stroke="black" points="0,-57.5 0,-76.5 91,-76.5 91,-57.5 0,-57.5"/>
<text text-anchor="middle" x="45.5" y="-64.5" font-family="Helvetica,sans-Serif" font-size="10.00">pism::IceModel</text>
</a>
</g>
</g>
<!-- Node1 -->
<g id="node2" class="node">
<title>Node1</title>
<g id="a_node2"><a xlink:href="classpism_1_1IceCompModel.html" target="_top" xlink:title=" ">
<polygon fill="none" stroke="black" points="135.5,-114.5 135.5,-133.5 254.5,-133.5 254.5,-114.5 135.5,-114.5"/>
<text text-anchor="middle" x="195" y="-121.5" font-family="Helvetica,sans-Serif" font-size="10.00">pism::IceCompModel</text>
</a>
</g>
</g>
<!-- Node0&#45;&gt;Node1 -->
<g id="edge1" class="edge">
<title>Node0&#45;&gt;Node1</title>
<path fill="none" stroke="midnightblue" d="M73.63,-81.18C89.02,-88.87 108.78,-98.17 127,-105 136.28,-108.48 146.49,-111.68 156.08,-114.42"/>
<polygon fill="midnightblue" stroke="midnightblue" points="75.17,-78.04 64.67,-76.64 72.01,-84.28 75.17,-78.04"/>
</g>
<!-- Node2 -->
<g id="node3" class="node">
<title>Node2</title>
<g id="a_node3"><a xlink:href="classpism_1_1IceEISModel.html" target="_top" xlink:title="Derived class for doing EISMINT II simplified geometry experiments.">
<polygon fill="none" stroke="black" points="142,-76.5 142,-95.5 248,-95.5 248,-76.5 142,-76.5"/>
<text text-anchor="middle" x="195" y="-83.5" font-family="Helvetica,sans-Serif" font-size="10.00">pism::IceEISModel</text>
</a>
</g>
</g>
<!-- Node0&#45;&gt;Node2 -->
<g id="edge2" class="edge">
<title>Node0&#45;&gt;Node2</title>
<path fill="none" stroke="midnightblue" d="M101.16,-74.04C114.51,-75.76 128.76,-77.6 141.98,-79.3"/>
<polygon fill="midnightblue" stroke="midnightblue" points="101.52,-70.56 91.16,-72.75 100.63,-77.5 101.52,-70.56"/>
</g>
<!-- Node3 -->
<g id="node4" class="node">
<title>Node3</title>
<g id="a_node4"><a xlink:href="classpism_1_1IceRegionalModel.html" target="_top" xlink:title="A version of the PISM core class (IceModel) which knows about the no_model_mask and its semantics.">
<polygon fill="none" stroke="black" points="128,-38.5 128,-57.5 262,-57.5 262,-38.5 128,-38.5"/>
<text text-anchor="middle" x="195" y="-45.5" font-family="Helvetica,sans-Serif" font-size="10.00">pism::IceRegionalModel</text>
</a>
</g>
</g>
<!-- Node0&#45;&gt;Node3 -->
<g id="edge3" class="edge">
<title>Node0&#45;&gt;Node3</title>
<path fill="none" stroke="midnightblue" d="M101.2,-59.95C109.93,-58.83 119.04,-57.66 128,-56.5"/>
<polygon fill="midnightblue" stroke="midnightblue" points="100.63,-56.5 91.16,-61.25 101.52,-63.44 100.63,-56.5"/>
</g>
<!-- Node4 -->
<g id="node5" class="node">
<title>Node4</title>
<g id="a_node5"><a xlink:href="classpism_1_1icebin_1_1IBIceModel.html" target="_top" xlink:title=" ">
<polygon fill="none" stroke="black" points="127,-0.5 127,-19.5 263,-19.5 263,-0.5 127,-0.5"/>
<text text-anchor="middle" x="195" y="-7.5" font-family="Helvetica,sans-Serif" font-size="10.00">pism::icebin::IBIceModel</text>
</a>
</g>
</g>
<!-- Node0&#45;&gt;Node4 -->
<g id="edge4" class="edge">
<title>Node0&#45;&gt;Node4</title>
<path fill="none" stroke="midnightblue" d="M73.63,-52.82C89.02,-45.13 108.78,-35.83 127,-29 136.28,-25.52 146.49,-22.32 156.08,-19.58"/>
<polygon fill="midnightblue" stroke="midnightblue" points="72.01,-49.72 64.67,-57.36 75.17,-55.96 72.01,-49.72"/>
</g>
</g>
</svg>
