<?xml version="1.0" encoding="UTF-8" standalone="no"?>
<!DOCTYPE svg PUBLIC "-//W3C//DTD SVG 1.1//EN"
 "http://www.w3.org/Graphics/SVG/1.1/DTD/svg11.dtd">
<!-- Generated by graphviz version 2.43.0 (0)
 -->
<!-- Title: Graphical Class Hierarchy Pages: 1 -->
<svg width="326pt" height="88pt"
 viewBox="0.00 0.00 326.00 88.00" xmlns="http://www.w3.org/2000/svg" xmlns:xlink="http://www.w3.org/1999/xlink">
<g id="graph0" class="graph" transform="scale(1 1) rotate(0) translate(4 84)">
<title>Graphical Class Hierarchy</title>
<!-- Node0 -->
<g id="node1" class="node">
<title>Node0</title>
<g id="a_node1"><a xlink:href="classpism_1_1IceBasalResistancePlasticLaw.html" target="_top" xlink:title="Class containing physical constants and the constitutive relation describing till for SSA.">
<polygon fill="none" stroke="black" points="0,-24.5 0,-54.5 141,-54.5 141,-24.5 0,-24.5"/>
<text text-anchor="start" x="8" y="-42.5" font-family="Helvetica,sans-Serif" font-size="10.00">pism::IceBasalResistance</text>
<text text-anchor="middle" x="70.5" y="-31.5" font-family="Helvetica,sans-Serif" font-size="10.00">PlasticLaw</text>
</a>
</g>
</g>
<!-- Node1 -->
<g id="node2" class="node">
<title>Node1</title>
<g id="a_node2"><a xlink:href="classpism_1_1IceBasalResistancePseudoPlasticLaw.html" target="_top" xlink:title=" ">
<polygon fill="none" stroke="black" points="177,-49.5 177,-79.5 318,-79.5 318,-49.5 177,-49.5"/>
<text text-anchor="start" x="185" y="-67.5" font-family="Helvetica,sans-Serif" font-size="10.00">pism::IceBasalResistance</text>
<text text-anchor="middle" x="247.5" y="-56.5" font-family="Helvetica,sans-Serif" font-size="10.00">PseudoPlasticLaw</text>
</a>
</g>
</g>
<!-- Node0&#45;&gt;Node1 -->
<g id="edge1" class="edge">
<title>Node0&#45;&gt;Node1</title>
<path fill="none" stroke="midnightblue" d="M151.15,-50.88C159.7,-52.1 168.36,-53.34 176.79,-54.54"/>
<polygon fill="midnightblue" stroke="midnightblue" points="151.56,-47.4 141.17,-49.45 150.57,-54.33 151.56,-47.4"/>
</g>
<!-- Node2 -->
<g id="node3" class="node">
<title>Node2</title>
<g id="a_node3"><a xlink:href="classpism_1_1IceBasalResistanceRegularizedLaw.html" target="_top" xlink:title=" ">
<polygon fill="none" stroke="black" points="177,-0.5 177,-30.5 318,-30.5 318,-0.5 177,-0.5"/>
<text text-anchor="start" x="185" y="-18.5" font-family="Helvetica,sans-Serif" font-size="10.00">pism::IceBasalResistance</text>
<text text-anchor="middle" x="247.5" y="-7.5" font-family="Helvetica,sans-Serif" font-size="10.00">RegularizedLaw</text>
</a>
</g>
</g>
<!-- Node0&#45;&gt;Node2 -->
<g id="edge2" class="edge">
<title>Node0&#45;&gt;Node2</title>
<path fill="none" stroke="midnightblue" d="M151.15,-28.58C159.7,-27.4 168.36,-26.22 176.79,-25.06"/>
<polygon fill="midnightblue" stroke="midnightblue" points="150.6,-25.12 141.17,-29.95 151.55,-32.05 150.6,-25.12"/>
</g>
</g>
</svg>
