<?xml version="1.0" encoding="UTF-8" standalone="no"?>
<!DOCTYPE svg PUBLIC "-//W3C//DTD SVG 1.1//EN"
 "http://www.w3.org/Graphics/SVG/1.1/DTD/svg11.dtd">
<!-- Generated by graphviz version 2.43.0 (0)
 -->
<!-- Title: Graphical Class Hierarchy Pages: 1 -->
<svg width="550pt" height="161pt"
 viewBox="0.00 0.00 550.00 161.00" xmlns="http://www.w3.org/2000/svg" xmlns:xlink="http://www.w3.org/1999/xlink">
<g id="graph0" class="graph" transform="scale(1 1) rotate(0) translate(4 157)">
<title>Graphical Class Hierarchy</title>
<!-- Node0 -->
<g id="node1" class="node">
<title>Node0</title>
<g id="a_node1"><a xlink:href="classpism_1_1inverse_1_1IPFunctional.html" target="_top" xlink:title=" ">
<polygon fill="none" stroke="black" points="0,-49.5 0,-79.5 148,-79.5 148,-49.5 0,-49.5"/>
<text text-anchor="start" x="8" y="-67.5" font-family="Helvetica,sans-Serif" font-size="10.00">pism::inverse::IPFunctional</text>
<text text-anchor="middle" x="74" y="-56.5" font-family="Helvetica,sans-Serif" font-size="10.00">&lt; IceModelVec2V &gt;</text>
</a>
</g>
</g>
<!-- Node1 -->
<g id="node2" class="node">
<title>Node1</title>
<g id="a_node2"><a xlink:href="classpism_1_1inverse_1_1IPInnerProductFunctional.html" target="_top" xlink:title=" ">
<polygon fill="none" stroke="black" points="184,-98.5 184,-128.5 348,-128.5 348,-98.5 184,-98.5"/>
<text text-anchor="start" x="192" y="-116.5" font-family="Helvetica,sans-Serif" font-size="10.00">pism::inverse::IPInnerProduct</text>
<text text-anchor="middle" x="266" y="-105.5" font-family="Helvetica,sans-Serif" font-size="10.00">Functional&lt; IceModelVec2V &gt;</text>
</a>
</g>
</g>
<!-- Node0&#45;&gt;Node1 -->
<g id="edge1" class="edge">
<title>Node0&#45;&gt;Node1</title>
<path fill="none" stroke="midnightblue" d="M143.05,-82.05C163.91,-87.43 186.67,-93.3 206.81,-98.49"/>
<polygon fill="midnightblue" stroke="midnightblue" points="143.85,-78.64 133.3,-79.53 142.11,-85.42 143.85,-78.64"/>
</g>
<!-- Node4 -->
<g id="node5" class="node">
<title>Node4</title>
<g id="a_node5"><a xlink:href="classpism_1_1inverse_1_1IPLogRatioFunctional.html" target="_top" xlink:title="Implements a functional for log&#45;ratio errors.">
<polygon fill="none" stroke="black" points="196,-49.5 196,-79.5 336,-79.5 336,-49.5 196,-49.5"/>
<text text-anchor="start" x="204" y="-67.5" font-family="Helvetica,sans-Serif" font-size="10.00">pism::inverse::IPLogRatio</text>
<text text-anchor="middle" x="266" y="-56.5" font-family="Helvetica,sans-Serif" font-size="10.00">Functional</text>
</a>
</g>
</g>
<!-- Node0&#45;&gt;Node4 -->
<g id="edge4" class="edge">
<title>Node0&#45;&gt;Node4</title>
<path fill="none" stroke="midnightblue" d="M158.2,-64.5C170.79,-64.5 183.66,-64.5 195.91,-64.5"/>
<polygon fill="midnightblue" stroke="midnightblue" points="158.19,-61 148.19,-64.5 158.19,-68 158.19,-61"/>
</g>
<!-- Node5 -->
<g id="node6" class="node">
<title>Node5</title>
<g id="a_node6"><a xlink:href="classpism_1_1inverse_1_1IPLogRelativeFunctional.html" target="_top" xlink:title="Implements a functional for log&#45;relative errors.">
<polygon fill="none" stroke="black" points="188.5,-0.5 188.5,-30.5 343.5,-30.5 343.5,-0.5 188.5,-0.5"/>
<text text-anchor="start" x="196.5" y="-18.5" font-family="Helvetica,sans-Serif" font-size="10.00">pism::inverse::IPLogRelative</text>
<text text-anchor="middle" x="266" y="-7.5" font-family="Helvetica,sans-Serif" font-size="10.00">Functional</text>
</a>
</g>
</g>
<!-- Node0&#45;&gt;Node5 -->
<g id="edge5" class="edge">
<title>Node0&#45;&gt;Node5</title>
<path fill="none" stroke="midnightblue" d="M143.05,-46.95C163.91,-41.57 186.67,-35.7 206.81,-30.51"/>
<polygon fill="midnightblue" stroke="midnightblue" points="142.11,-43.58 133.3,-49.47 143.85,-50.36 142.11,-43.58"/>
</g>
<!-- Node2 -->
<g id="node3" class="node">
<title>Node2</title>
<g id="a_node3"><a xlink:href="classpism_1_1inverse_1_1IPMeanSquareFunctional2V.html" target="_top" xlink:title="Implements a functional corresponding to a (possibly weighted) sum of squares of components of an Ice...">
<polygon fill="none" stroke="black" points="384,-122.5 384,-152.5 542,-152.5 542,-122.5 384,-122.5"/>
<text text-anchor="start" x="392" y="-140.5" font-family="Helvetica,sans-Serif" font-size="10.00">pism::inverse::IPMeanSquare</text>
<text text-anchor="middle" x="463" y="-129.5" font-family="Helvetica,sans-Serif" font-size="10.00">Functional2V</text>
</a>
</g>
</g>
<!-- Node1&#45;&gt;Node2 -->
<g id="edge2" class="edge">
<title>Node1&#45;&gt;Node2</title>
<path fill="none" stroke="midnightblue" d="M358.04,-124.71C366.64,-125.76 375.3,-126.83 383.75,-127.87"/>
<polygon fill="midnightblue" stroke="midnightblue" points="358.36,-121.22 348,-123.47 357.5,-128.17 358.36,-121.22"/>
</g>
<!-- Node3 -->
<g id="node4" class="node">
<title>Node3</title>
<g id="a_node4"><a xlink:href="classpism_1_1inverse_1_1IP__L2NormFunctional2V.html" target="_top" xlink:title="Implements a functional corresponding to (the square of) an &#160;norm of a vector valued function.">
<polygon fill="none" stroke="black" points="392.5,-73.5 392.5,-103.5 533.5,-103.5 533.5,-73.5 392.5,-73.5"/>
<text text-anchor="start" x="400.5" y="-91.5" font-family="Helvetica,sans-Serif" font-size="10.00">pism::inverse::IP_L2Norm</text>
<text text-anchor="middle" x="463" y="-80.5" font-family="Helvetica,sans-Serif" font-size="10.00">Functional2V</text>
</a>
</g>
</g>
<!-- Node1&#45;&gt;Node3 -->
<g id="edge3" class="edge">
<title>Node1&#45;&gt;Node3</title>
<path fill="none" stroke="midnightblue" d="M358.1,-101.82C369.63,-100.34 381.29,-98.85 392.42,-97.42"/>
<polygon fill="midnightblue" stroke="midnightblue" points="357.48,-98.37 348,-103.11 358.37,-105.31 357.48,-98.37"/>
</g>
</g>
</svg>
