<?xml version="1.0" encoding="UTF-8" standalone="no"?>
<!DOCTYPE svg PUBLIC "-//W3C//DTD SVG 1.1//EN"
 "http://www.w3.org/Graphics/SVG/1.1/DTD/svg11.dtd">
<!-- Generated by graphviz version 2.43.0 (0)
 -->
<!-- Title: Graphical Class Hierarchy Pages: 1 -->
<svg width="545pt" height="161pt"
 viewBox="0.00 0.00 545.00 161.00" xmlns="http://www.w3.org/2000/svg" xmlns:xlink="http://www.w3.org/1999/xlink">
<g id="graph0" class="graph" transform="scale(1 1) rotate(0) translate(4 157)">
<title>Graphical Class Hierarchy</title>
<!-- Node0 -->
<g id="node1" class="node">
<title>Node0</title>
<g id="a_node1"><a xlink:href="classpism_1_1inverse_1_1IPFunctional.html" target="_top" xlink:title=" ">
<polygon fill="none" stroke="black" points="0,-49.5 0,-79.5 148,-79.5 148,-49.5 0,-49.5"/>
<text text-anchor="start" x="8" y="-67.5" font-family="Helvetica,sans-Serif" font-size="10.00">pism::inverse::IPFunctional</text>
<text text-anchor="middle" x="74" y="-56.5" font-family="Helvetica,sans-Serif" font-size="10.00">&lt; array::Vector &gt;</text>
</a>
</g>
</g>
<!-- Node1 -->
<g id="node2" class="node">
<title>Node1</title>
<g id="a_node2"><a xlink:href="classpism_1_1inverse_1_1IPInnerProductFunctional.html" target="_top" xlink:title=" ">
<polygon fill="none" stroke="black" points="184,-98.5 184,-128.5 343,-128.5 343,-98.5 184,-98.5"/>
<text text-anchor="start" x="192" y="-116.5" font-family="Helvetica,sans-Serif" font-size="10.00">pism::inverse::IPInnerProduct</text>
<text text-anchor="middle" x="263.5" y="-105.5" font-family="Helvetica,sans-Serif" font-size="10.00">Functional&lt; array::Vector &gt;</text>
</a>
</g>
</g>
<!-- Node0&#45;&gt;Node1 -->
<g id="edge1" class="edge">
<title>Node0&#45;&gt;Node1</title>
<path fill="none" stroke="midnightblue" d="M142.43,-82.12C162.95,-87.48 185.29,-93.32 205.08,-98.49"/>
<polygon fill="midnightblue" stroke="midnightblue" points="143.09,-78.68 132.53,-79.53 141.32,-85.45 143.09,-78.68"/>
</g>
<!-- Node4 -->
<g id="node5" class="node">
<title>Node4</title>
<g id="a_node5"><a xlink:href="classpism_1_1inverse_1_1IPLogRatioFunctional.html" target="_top" xlink:title="Implements a functional for log&#45;ratio errors.">
<polygon fill="none" stroke="black" points="193.5,-49.5 193.5,-79.5 333.5,-79.5 333.5,-49.5 193.5,-49.5"/>
<text text-anchor="start" x="201.5" y="-67.5" font-family="Helvetica,sans-Serif" font-size="10.00">pism::inverse::IPLogRatio</text>
<text text-anchor="middle" x="263.5" y="-56.5" font-family="Helvetica,sans-Serif" font-size="10.00">Functional</text>
</a>
</g>
</g>
<!-- Node0&#45;&gt;Node4 -->
<g id="edge4" class="edge">
<title>Node0&#45;&gt;Node4</title>
<path fill="none" stroke="midnightblue" d="M158.26,-64.5C169.98,-64.5 181.93,-64.5 193.35,-64.5"/>
<polygon fill="midnightblue" stroke="midnightblue" points="158.03,-61 148.03,-64.5 158.03,-68 158.03,-61"/>
</g>
<!-- Node5 -->
<g id="node6" class="node">
<title>Node5</title>
<g id="a_node6"><a xlink:href="classpism_1_1inverse_1_1IPLogRelativeFunctional.html" target="_top" xlink:title="Implements a functional for log&#45;relative errors.">
<polygon fill="none" stroke="black" points="186,-0.5 186,-30.5 341,-30.5 341,-0.5 186,-0.5"/>
<text text-anchor="start" x="194" y="-18.5" font-family="Helvetica,sans-Serif" font-size="10.00">pism::inverse::IPLogRelative</text>
<text text-anchor="middle" x="263.5" y="-7.5" font-family="Helvetica,sans-Serif" font-size="10.00">Functional</text>
</a>
</g>
</g>
<!-- Node0&#45;&gt;Node5 -->
<g id="edge5" class="edge">
<title>Node0&#45;&gt;Node5</title>
<path fill="none" stroke="midnightblue" d="M142.43,-46.88C162.95,-41.52 185.29,-35.68 205.08,-30.51"/>
<polygon fill="midnightblue" stroke="midnightblue" points="141.32,-43.55 132.53,-49.47 143.09,-50.32 141.32,-43.55"/>
</g>
<!-- Node2 -->
<g id="node3" class="node">
<title>Node2</title>
<g id="a_node3"><a xlink:href="classpism_1_1inverse_1_1IPMeanSquareFunctional2V.html" target="_top" xlink:title="Implements a functional corresponding to a (possibly weighted) sum of squares of components of an arr...">
<polygon fill="none" stroke="black" points="379,-122.5 379,-152.5 537,-152.5 537,-122.5 379,-122.5"/>
<text text-anchor="start" x="387" y="-140.5" font-family="Helvetica,sans-Serif" font-size="10.00">pism::inverse::IPMeanSquare</text>
<text text-anchor="middle" x="458" y="-129.5" font-family="Helvetica,sans-Serif" font-size="10.00">Functional2V</text>
</a>
</g>
</g>
<!-- Node1&#45;&gt;Node2 -->
<g id="edge2" class="edge">
<title>Node1&#45;&gt;Node2</title>
<path fill="none" stroke="midnightblue" d="M353.15,-124.55C361.77,-125.63 370.48,-126.71 378.99,-127.77"/>
<polygon fill="midnightblue" stroke="midnightblue" points="353.43,-121.06 343.07,-123.3 352.56,-128.01 353.43,-121.06"/>
</g>
<!-- Node3 -->
<g id="node4" class="node">
<title>Node3</title>
<g id="a_node4"><a xlink:href="classpism_1_1inverse_1_1IP__L2NormFunctional2V.html" target="_top" xlink:title="Implements a functional corresponding to (the square of) an &#160;norm of a vector valued function.">
<polygon fill="none" stroke="black" points="387.5,-73.5 387.5,-103.5 528.5,-103.5 528.5,-73.5 387.5,-73.5"/>
<text text-anchor="start" x="395.5" y="-91.5" font-family="Helvetica,sans-Serif" font-size="10.00">pism::inverse::IP_L2Norm</text>
<text text-anchor="middle" x="458" y="-80.5" font-family="Helvetica,sans-Serif" font-size="10.00">Functional2V</text>
</a>
</g>
</g>
<!-- Node1&#45;&gt;Node3 -->
<g id="edge3" class="edge">
<title>Node1&#45;&gt;Node3</title>
<path fill="none" stroke="midnightblue" d="M353.11,-101.99C364.59,-100.5 376.21,-98.99 387.33,-97.55"/>
<polygon fill="midnightblue" stroke="midnightblue" points="352.54,-98.54 343.07,-103.3 353.44,-105.48 352.54,-98.54"/>
</g>
</g>
</svg>
