<?xml version="1.0" encoding="UTF-8" standalone="no"?>
<!DOCTYPE svg PUBLIC "-//W3C//DTD SVG 1.1//EN"
 "http://www.w3.org/Graphics/SVG/1.1/DTD/svg11.dtd">
<!-- Generated by graphviz version 2.43.0 (0)
 -->
<!-- Title: Graphical Class Hierarchy Pages: 1 -->
<svg width="373pt" height="85pt"
 viewBox="0.00 0.00 373.00 85.00" xmlns="http://www.w3.org/2000/svg" xmlns:xlink="http://www.w3.org/1999/xlink">
<g id="graph0" class="graph" transform="scale(1 1) rotate(0) translate(4 81)">
<title>Graphical Class Hierarchy</title>
<!-- Node0 -->
<g id="node1" class="node">
<title>Node0</title>
<g id="a_node1"><a xlink:href="classpism_1_1Field.html" target="_top" xlink:title=" ">
<polygon fill="none" stroke="black" points="0,-38.5 0,-57.5 70,-57.5 70,-38.5 0,-38.5"/>
<text text-anchor="middle" x="35" y="-45.5" font-family="Helvetica,sans-Serif" font-size="10.00">pism::Field</text>
</a>
</g>
</g>
<!-- Node1 -->
<g id="node2" class="node">
<title>Node1</title>
<g id="a_node2"><a xlink:href="classpism_1_1GhostedField.html" target="_top" xlink:title=" ">
<polygon fill="none" stroke="black" points="106,-57.5 106,-76.5 216,-76.5 216,-57.5 106,-57.5"/>
<text text-anchor="middle" x="161" y="-64.5" font-family="Helvetica,sans-Serif" font-size="10.00">pism::GhostedField</text>
</a>
</g>
</g>
<!-- Node0&#45;&gt;Node1 -->
<g id="edge1" class="edge">
<title>Node0&#45;&gt;Node1</title>
<path fill="none" stroke="midnightblue" d="M80.11,-54.76C88.46,-56.04 97.27,-57.39 105.89,-58.71"/>
<polygon fill="midnightblue" stroke="midnightblue" points="80.63,-51.3 70.21,-53.24 79.57,-58.22 80.63,-51.3"/>
</g>
<!-- Node2 -->
<g id="node3" class="node">
<title>Node2</title>
<g id="a_node3"><a xlink:href="classpism_1_1ScalarField.html" target="_top" xlink:title=" ">
<polygon fill="none" stroke="black" points="111,-19.5 111,-38.5 211,-38.5 211,-19.5 111,-19.5"/>
<text text-anchor="middle" x="161" y="-26.5" font-family="Helvetica,sans-Serif" font-size="10.00">pism::ScalarField</text>
</a>
</g>
</g>
<!-- Node0&#45;&gt;Node2 -->
<g id="edge2" class="edge">
<title>Node0&#45;&gt;Node2</title>
<path fill="none" stroke="midnightblue" d="M80.19,-41.23C90.04,-39.72 100.54,-38.11 110.58,-36.57"/>
<polygon fill="midnightblue" stroke="midnightblue" points="79.57,-37.78 70.21,-42.76 80.63,-44.7 79.57,-37.78"/>
</g>
<!-- Node3 -->
<g id="node4" class="node">
<title>Node3</title>
<g id="a_node4"><a xlink:href="classpism_1_1Scalar2DField.html" target="_top" xlink:title=" ">
<polygon fill="none" stroke="black" points="252,-38.5 252,-57.5 365,-57.5 365,-38.5 252,-38.5"/>
<text text-anchor="middle" x="308.5" y="-45.5" font-family="Helvetica,sans-Serif" font-size="10.00">pism::Scalar2DField</text>
</a>
</g>
</g>
<!-- Node2&#45;&gt;Node3 -->
<g id="edge3" class="edge">
<title>Node2&#45;&gt;Node3</title>
<path fill="none" stroke="midnightblue" d="M221.21,-36.73C231.31,-38.05 241.77,-39.42 251.78,-40.72"/>
<polygon fill="midnightblue" stroke="midnightblue" points="221.63,-33.26 211.26,-35.43 220.72,-40.2 221.63,-33.26"/>
</g>
<!-- Node4 -->
<g id="node5" class="node">
<title>Node4</title>
<g id="a_node5"><a xlink:href="classpism_1_1Scalar3DField.html" target="_top" xlink:title=" ">
<polygon fill="none" stroke="black" points="252,-0.5 252,-19.5 365,-19.5 365,-0.5 252,-0.5"/>
<text text-anchor="middle" x="308.5" y="-7.5" font-family="Helvetica,sans-Serif" font-size="10.00">pism::Scalar3DField</text>
</a>
</g>
</g>
<!-- Node2&#45;&gt;Node4 -->
<g id="edge4" class="edge">
<title>Node2&#45;&gt;Node4</title>
<path fill="none" stroke="midnightblue" d="M221.21,-21.27C231.31,-19.95 241.77,-18.58 251.78,-17.28"/>
<polygon fill="midnightblue" stroke="midnightblue" points="220.72,-17.8 211.26,-22.57 221.63,-24.74 220.72,-17.8"/>
</g>
</g>
</svg>
