<?xml version="1.0" encoding="UTF-8" standalone="no"?>
<!DOCTYPE svg PUBLIC "-//W3C//DTD SVG 1.1//EN"
 "http://www.w3.org/Graphics/SVG/1.1/DTD/svg11.dtd">
<!-- Generated by graphviz version 2.43.0 (0)
 -->
<!-- Title: Graphical Class Hierarchy Pages: 1 -->
<svg width="1038pt" height="274pt"
 viewBox="0.00 0.00 1038.00 274.00" xmlns="http://www.w3.org/2000/svg" xmlns:xlink="http://www.w3.org/1999/xlink">
<g id="graph0" class="graph" transform="scale(1 1) rotate(0) translate(4 270)">
<title>Graphical Class Hierarchy</title>
<!-- Node0 -->
<g id="node1" class="node">
<title>Node0</title>
<g id="a_node1"><a xlink:href="classpism_1_1PetscAccessible.html" target="_top" xlink:title=" ">
<polygon fill="none" stroke="black" points="0,-62.5 0,-81.5 125,-81.5 125,-62.5 0,-62.5"/>
<text text-anchor="middle" x="62.5" y="-69.5" font-family="Helvetica,sans-Serif" font-size="10.00">pism::PetscAccessible</text>
</a>
</g>
</g>
<!-- Node1 -->
<g id="node2" class="node">
<title>Node1</title>
<g id="a_node2"><a xlink:href="classpism_1_1IceModelVec.html" target="_top" xlink:title="Abstract class for reading, writing, allocating, and accessing a DA&#45;based PETSc Vec (2D and 3D fields...">
<polygon fill="none" stroke="black" points="186,-81.5 186,-100.5 294,-100.5 294,-81.5 186,-81.5"/>
<text text-anchor="middle" x="240" y="-88.5" font-family="Helvetica,sans-Serif" font-size="10.00">pism::IceModelVec</text>
</a>
</g>
</g>
<!-- Node0&#45;&gt;Node1 -->
<g id="edge1" class="edge">
<title>Node0&#45;&gt;Node1</title>
<path fill="none" stroke="midnightblue" d="M135.7,-79.82C152.48,-81.63 170.04,-83.53 185.83,-85.24"/>
<polygon fill="midnightblue" stroke="midnightblue" points="135.69,-76.3 125.37,-78.7 134.94,-83.25 135.69,-76.3"/>
</g>
<!-- Node14 -->
<g id="node15" class="node">
<title>Node14</title>
<g id="a_node15"><a xlink:href="structpism_1_1icebin_1_1MassEnthVec2S.html" target="_top" xlink:title=" ">
<polygon fill="none" stroke="black" points="161,-43.5 161,-62.5 319,-62.5 319,-43.5 161,-43.5"/>
<text text-anchor="middle" x="240" y="-50.5" font-family="Helvetica,sans-Serif" font-size="10.00">pism::icebin::MassEnthVec2S</text>
</a>
</g>
</g>
<!-- Node0&#45;&gt;Node14 -->
<g id="edge14" class="edge">
<title>Node0&#45;&gt;Node14</title>
<path fill="none" stroke="midnightblue" d="M135.44,-64.21C143.79,-63.31 152.34,-62.38 160.77,-61.47"/>
<polygon fill="midnightblue" stroke="midnightblue" points="134.94,-60.75 125.37,-65.3 135.69,-67.7 134.94,-60.75"/>
</g>
<!-- Node2 -->
<g id="node3" class="node">
<title>Node2</title>
<g id="a_node3"><a xlink:href="classpism_1_1IceModelVec2.html" target="_top" xlink:title=" ">
<polygon fill="none" stroke="black" points="355,-100.5 355,-119.5 469,-119.5 469,-100.5 355,-100.5"/>
<text text-anchor="middle" x="412" y="-107.5" font-family="Helvetica,sans-Serif" font-size="10.00">pism::IceModelVec2</text>
</a>
</g>
</g>
<!-- Node1&#45;&gt;Node2 -->
<g id="edge2" class="edge">
<title>Node1&#45;&gt;Node2</title>
<path fill="none" stroke="midnightblue" d="M304.46,-98.09C321.03,-99.94 338.77,-101.93 354.93,-103.73"/>
<polygon fill="midnightblue" stroke="midnightblue" points="304.65,-94.59 294.32,-96.96 303.87,-101.55 304.65,-94.59"/>
</g>
<!-- Node13 -->
<g id="node14" class="node">
<title>Node13</title>
<g id="a_node14"><a xlink:href="classpism_1_1IceModelVec3.html" target="_top" xlink:title="A virtual class collecting methods common to ice and bedrock 3D fields.">
<polygon fill="none" stroke="black" points="355,-62.5 355,-81.5 469,-81.5 469,-62.5 355,-62.5"/>
<text text-anchor="middle" x="412" y="-69.5" font-family="Helvetica,sans-Serif" font-size="10.00">pism::IceModelVec3</text>
</a>
</g>
</g>
<!-- Node1&#45;&gt;Node13 -->
<g id="edge13" class="edge">
<title>Node1&#45;&gt;Node13</title>
<path fill="none" stroke="midnightblue" d="M304.46,-83.91C321.03,-82.06 338.77,-80.07 354.93,-78.27"/>
<polygon fill="midnightblue" stroke="midnightblue" points="303.87,-80.45 294.32,-85.04 304.65,-87.41 303.87,-80.45"/>
</g>
<!-- Node3 -->
<g id="node4" class="node">
<title>Node3</title>
<g id="a_node4"><a xlink:href="classpism_1_1IceModelVec2Struct.html" target="_top" xlink:title=" ">
<polygon fill="none" stroke="black" points="519,-224.5 519,-265.5 662,-265.5 662,-224.5 519,-224.5"/>
<text text-anchor="start" x="527" y="-253.5" font-family="Helvetica,sans-Serif" font-size="10.00">pism::IceModelVec2Struct</text>
<text text-anchor="start" x="527" y="-242.5" font-family="Helvetica,sans-Serif" font-size="10.00">&lt; pism::stressbalance::</text>
<text text-anchor="middle" x="590.5" y="-231.5" font-family="Helvetica,sans-Serif" font-size="10.00">SSAFEM::Coefficients &gt;</text>
</a>
</g>
</g>
<!-- Node2&#45;&gt;Node3 -->
<g id="edge3" class="edge">
<title>Node2&#45;&gt;Node3</title>
<path fill="none" stroke="midnightblue" d="M424.52,-128.12C440.14,-151.31 470.1,-191.32 505,-215 510.15,-218.5 515.76,-221.63 521.55,-224.44"/>
<polygon fill="midnightblue" stroke="midnightblue" points="427.33,-126.01 418.91,-119.58 421.48,-129.86 427.33,-126.01"/>
</g>
<!-- Node4 -->
<g id="node5" class="node">
<title>Node4</title>
<g id="a_node5"><a xlink:href="classpism_1_1IceModelVec2Struct.html" target="_top" xlink:title=" ">
<polygon fill="none" stroke="black" points="519,-175 519,-205 662,-205 662,-175 519,-175"/>
<text text-anchor="start" x="527" y="-193" font-family="Helvetica,sans-Serif" font-size="10.00">pism::IceModelVec2Struct</text>
<text text-anchor="middle" x="590.5" y="-182" font-family="Helvetica,sans-Serif" font-size="10.00">&lt; Vector2 &gt;</text>
</a>
</g>
</g>
<!-- Node2&#45;&gt;Node4 -->
<g id="edge4" class="edge">
<title>Node2&#45;&gt;Node4</title>
<path fill="none" stroke="midnightblue" d="M435.09,-125.37C453.22,-137.44 479.89,-153.99 505,-165 513.41,-168.69 522.51,-172.02 531.53,-174.96"/>
<polygon fill="midnightblue" stroke="midnightblue" points="436.69,-122.22 426.44,-119.52 432.76,-128.02 436.69,-122.22"/>
</g>
<!-- Node6 -->
<g id="node7" class="node">
<title>Node6</title>
<g id="a_node7"><a xlink:href="classpism_1_1IceModelVec2Struct.html" target="_top" xlink:title=" ">
<polygon fill="none" stroke="black" points="519,-114.5 519,-155.5 662,-155.5 662,-114.5 519,-114.5"/>
<text text-anchor="start" x="527" y="-143.5" font-family="Helvetica,sans-Serif" font-size="10.00">pism::IceModelVec2Struct</text>
<text text-anchor="start" x="527" y="-132.5" font-family="Helvetica,sans-Serif" font-size="10.00">&lt; pism::stressbalance::</text>
<text text-anchor="middle" x="590.5" y="-121.5" font-family="Helvetica,sans-Serif" font-size="10.00">Blatter::Parameters &gt;</text>
</a>
</g>
</g>
<!-- Node2&#45;&gt;Node6 -->
<g id="edge6" class="edge">
<title>Node2&#45;&gt;Node6</title>
<path fill="none" stroke="midnightblue" d="M479.48,-119.42C492.33,-121.24 505.84,-123.15 518.83,-124.99"/>
<polygon fill="midnightblue" stroke="midnightblue" points="479.72,-115.92 469.33,-117.98 478.74,-122.85 479.72,-115.92"/>
</g>
<!-- Node7 -->
<g id="node8" class="node">
<title>Node7</title>
<g id="a_node8"><a xlink:href="classpism_1_1IceModelVec2S.html" target="_top" xlink:title=" ">
<polygon fill="none" stroke="black" points="530.5,-76.5 530.5,-95.5 650.5,-95.5 650.5,-76.5 530.5,-76.5"/>
<text text-anchor="middle" x="590.5" y="-83.5" font-family="Helvetica,sans-Serif" font-size="10.00">pism::IceModelVec2S</text>
</a>
</g>
</g>
<!-- Node2&#45;&gt;Node7 -->
<g id="edge7" class="edge">
<title>Node2&#45;&gt;Node7</title>
<path fill="none" stroke="midnightblue" d="M479.56,-100.95C496.25,-98.68 514.05,-96.26 530.36,-94.04"/>
<polygon fill="midnightblue" stroke="midnightblue" points="478.77,-97.52 469.33,-102.34 479.71,-104.46 478.77,-97.52"/>
</g>
<!-- Node11 -->
<g id="node12" class="node">
<title>Node11</title>
<g id="a_node12"><a xlink:href="classpism_1_1IceModelVec2Stag.html" target="_top" xlink:title="A class for storing and accessing internal staggered&#45;grid 2D fields. Uses dof=2 storage....">
<polygon fill="none" stroke="black" points="522.5,-38.5 522.5,-57.5 658.5,-57.5 658.5,-38.5 522.5,-38.5"/>
<text text-anchor="middle" x="590.5" y="-45.5" font-family="Helvetica,sans-Serif" font-size="10.00">pism::IceModelVec2Stag</text>
</a>
</g>
</g>
<!-- Node2&#45;&gt;Node11 -->
<g id="edge11" class="edge">
<title>Node2&#45;&gt;Node11</title>
<path fill="none" stroke="midnightblue" d="M455.4,-96.94C460.06,-95.11 464.68,-93.13 469,-91 486.25,-82.51 487.32,-74.57 505,-67 513.98,-63.15 523.85,-60.03 533.58,-57.52"/>
<polygon fill="midnightblue" stroke="midnightblue" points="454.03,-93.71 445.86,-100.45 456.45,-100.28 454.03,-93.71"/>
</g>
<!-- Node12 -->
<g id="node13" class="node">
<title>Node12</title>
<g id="a_node13"><a xlink:href="classpism_1_1IceModelVec2Struct.html" target="_top" xlink:title="A storage vector combining related fields in a struct.">
<polygon fill="none" stroke="black" points="505,-0.5 505,-19.5 676,-19.5 676,-0.5 505,-0.5"/>
<text text-anchor="middle" x="590.5" y="-7.5" font-family="Helvetica,sans-Serif" font-size="10.00">pism::IceModelVec2Struct&lt; T &gt;</text>
</a>
</g>
</g>
<!-- Node2&#45;&gt;Node12 -->
<g id="edge12" class="edge">
<title>Node2&#45;&gt;Node12</title>
<path fill="none" stroke="midnightblue" d="M462.43,-95.61C464.74,-94.21 466.95,-92.68 469,-91 493.66,-70.82 479.31,-47.85 505,-29 510.21,-25.18 516.06,-22.1 522.18,-19.63"/>
<polygon fill="midnightblue" stroke="midnightblue" points="460.43,-92.71 453.12,-100.38 463.62,-98.94 460.43,-92.71"/>
</g>
<!-- Node5 -->
<g id="node6" class="node">
<title>Node5</title>
<g id="a_node6"><a xlink:href="classpism_1_1IceModelVec2V.html" target="_top" xlink:title=" ">
<polygon fill="none" stroke="black" points="715,-180.5 715,-199.5 836,-199.5 836,-180.5 715,-180.5"/>
<text text-anchor="middle" x="775.5" y="-187.5" font-family="Helvetica,sans-Serif" font-size="10.00">pism::IceModelVec2V</text>
</a>
</g>
</g>
<!-- Node4&#45;&gt;Node5 -->
<g id="edge5" class="edge">
<title>Node4&#45;&gt;Node5</title>
<path fill="none" stroke="midnightblue" d="M672.55,-190C686.8,-190 701.39,-190 714.92,-190"/>
<polygon fill="midnightblue" stroke="midnightblue" points="672.25,-186.5 662.25,-190 672.25,-193.5 672.25,-186.5"/>
</g>
<!-- Node8 -->
<g id="node9" class="node">
<title>Node8</title>
<g id="a_node9"><a xlink:href="classpism_1_1IceModelVec2Int.html" target="_top" xlink:title="A simple class &quot;hiding&quot; the fact that the mask is stored as floating&#45;point scalars (instead of intege...">
<polygon fill="none" stroke="black" points="712,-95.5 712,-114.5 839,-114.5 839,-95.5 712,-95.5"/>
<text text-anchor="middle" x="775.5" y="-102.5" font-family="Helvetica,sans-Serif" font-size="10.00">pism::IceModelVec2Int</text>
</a>
</g>
</g>
<!-- Node7&#45;&gt;Node8 -->
<g id="edge8" class="edge">
<title>Node7&#45;&gt;Node8</title>
<path fill="none" stroke="midnightblue" d="M660.91,-93.21C677.62,-94.94 695.37,-96.78 711.76,-98.49"/>
<polygon fill="midnightblue" stroke="midnightblue" points="660.97,-89.69 650.66,-92.14 660.25,-96.66 660.97,-89.69"/>
</g>
<!-- Node10 -->
<g id="node11" class="node">
<title>Node10</title>
<g id="a_node11"><a xlink:href="classpism_1_1IceModelVec2T.html" target="_top" xlink:title="A class for storing and accessing 2D time&#45;series (for climate forcing)">
<polygon fill="none" stroke="black" points="715.5,-57.5 715.5,-76.5 835.5,-76.5 835.5,-57.5 715.5,-57.5"/>
<text text-anchor="middle" x="775.5" y="-64.5" font-family="Helvetica,sans-Serif" font-size="10.00">pism::IceModelVec2T</text>
</a>
</g>
</g>
<!-- Node7&#45;&gt;Node10 -->
<g id="edge10" class="edge">
<title>Node7&#45;&gt;Node10</title>
<path fill="none" stroke="midnightblue" d="M660.77,-78.81C678.71,-76.95 697.86,-74.96 715.23,-73.15"/>
<polygon fill="midnightblue" stroke="midnightblue" points="660.25,-75.34 650.66,-79.86 660.97,-82.31 660.25,-75.34"/>
</g>
<!-- Node9 -->
<g id="node10" class="node">
<title>Node9</title>
<g id="a_node10"><a xlink:href="classpism_1_1IceModelVec2CellType.html" target="_top" xlink:title="&quot;Cell type&quot; mask. Adds convenience methods to IceModelVec2Int.">
<polygon fill="none" stroke="black" points="875,-95.5 875,-114.5 1030,-114.5 1030,-95.5 875,-95.5"/>
<text text-anchor="middle" x="952.5" y="-102.5" font-family="Helvetica,sans-Serif" font-size="10.00">pism::IceModelVec2CellType</text>
</a>
</g>
</g>
<!-- Node8&#45;&gt;Node9 -->
<g id="edge9" class="edge">
<title>Node8&#45;&gt;Node9</title>
<path fill="none" stroke="midnightblue" d="M849.36,-105C857.79,-105 866.41,-105 874.89,-105"/>
<polygon fill="midnightblue" stroke="midnightblue" points="849.18,-101.5 839.18,-105 849.18,-108.5 849.18,-101.5"/>
</g>
</g>
</svg>
