<?xml version="1.0" encoding="UTF-8" standalone="no"?>
<!DOCTYPE svg PUBLIC "-//W3C//DTD SVG 1.1//EN"
 "http://www.w3.org/Graphics/SVG/1.1/DTD/svg11.dtd">
<!-- Generated by graphviz version 2.43.0 (0)
 -->
<!-- Title: Graphical Class Hierarchy Pages: 1 -->
<svg width="541pt" height="88pt"
 viewBox="0.00 0.00 541.00 88.00" xmlns="http://www.w3.org/2000/svg" xmlns:xlink="http://www.w3.org/1999/xlink">
<g id="graph0" class="graph" transform="scale(1 1) rotate(0) translate(4 84)">
<title>Graphical Class Hierarchy</title>
<!-- Node311 -->
<g id="node1" class="node">
<title>Node311</title>
<g id="a_node1"><a xlink:title=" ">
<polygon fill="none" stroke="#bfbfbf" points="0,-30 0,-49 86,-49 86,-30 0,-30"/>
<text text-anchor="middle" x="43" y="-37" font-family="Helvetica,sans-Serif" font-size="10.00">std::exception</text>
</a>
</g>
</g>
<!-- Node312 -->
<g id="node2" class="node">
<title>Node312</title>
<g id="a_node2"><a xlink:title=" ">
<polygon fill="none" stroke="#bfbfbf" points="122,-30 122,-49 226,-49 226,-30 122,-30"/>
<text text-anchor="middle" x="174" y="-37" font-family="Helvetica,sans-Serif" font-size="10.00">std::runtime_error</text>
</a>
</g>
</g>
<!-- Node311&#45;&gt;Node312 -->
<g id="edge1" class="edge">
<title>Node311&#45;&gt;Node312</title>
<path fill="none" stroke="midnightblue" d="M96.27,-39.5C104.65,-39.5 113.31,-39.5 121.66,-39.5"/>
<polygon fill="midnightblue" stroke="midnightblue" points="96.24,-36 86.24,-39.5 96.24,-43 96.24,-36"/>
</g>
<!-- Node0 -->
<g id="node3" class="node">
<title>Node0</title>
<g id="a_node3"><a xlink:href="classpism_1_1RuntimeError.html" target="_top" xlink:title=" ">
<polygon fill="none" stroke="black" points="262,-30 262,-49 373,-49 373,-30 262,-30"/>
<text text-anchor="middle" x="317.5" y="-37" font-family="Helvetica,sans-Serif" font-size="10.00">pism::RuntimeError</text>
</a>
</g>
</g>
<!-- Node312&#45;&gt;Node0 -->
<g id="edge2" class="edge">
<title>Node312&#45;&gt;Node0</title>
<path fill="none" stroke="midnightblue" d="M236.26,-39.5C244.71,-39.5 253.34,-39.5 261.67,-39.5"/>
<polygon fill="midnightblue" stroke="midnightblue" points="236.08,-36 226.08,-39.5 236.08,-43 236.08,-36"/>
</g>
<!-- Node1 -->
<g id="node4" class="node">
<title>Node1</title>
<g id="a_node4"><a xlink:href="classpism_1_1stressbalance_1_1SSAFD_1_1KSPFailure.html" target="_top" xlink:title=" ">
<polygon fill="none" stroke="black" points="414,-49.5 414,-79.5 528,-79.5 528,-49.5 414,-49.5"/>
<text text-anchor="start" x="422" y="-67.5" font-family="Helvetica,sans-Serif" font-size="10.00">pism::stressbalance</text>
<text text-anchor="middle" x="471" y="-56.5" font-family="Helvetica,sans-Serif" font-size="10.00">::SSAFD::KSPFailure</text>
</a>
</g>
</g>
<!-- Node0&#45;&gt;Node1 -->
<g id="edge3" class="edge">
<title>Node0&#45;&gt;Node1</title>
<path fill="none" stroke="midnightblue" d="M383.26,-50.19C393.44,-51.87 403.89,-53.59 413.86,-55.24"/>
<polygon fill="midnightblue" stroke="midnightblue" points="383.63,-46.7 373.19,-48.53 382.49,-53.61 383.63,-46.7"/>
</g>
<!-- Node2 -->
<g id="node5" class="node">
<title>Node2</title>
<g id="a_node5"><a xlink:href="classpism_1_1stressbalance_1_1SSAFD_1_1PicardFailure.html" target="_top" xlink:title=" ">
<polygon fill="none" stroke="black" points="409,-0.5 409,-30.5 533,-30.5 533,-0.5 409,-0.5"/>
<text text-anchor="start" x="417" y="-18.5" font-family="Helvetica,sans-Serif" font-size="10.00">pism::stressbalance</text>
<text text-anchor="middle" x="471" y="-7.5" font-family="Helvetica,sans-Serif" font-size="10.00">::SSAFD::PicardFailure</text>
</a>
</g>
</g>
<!-- Node0&#45;&gt;Node2 -->
<g id="edge4" class="edge">
<title>Node0&#45;&gt;Node2</title>
<path fill="none" stroke="midnightblue" d="M383.14,-29.26C391.7,-27.9 400.46,-26.52 408.97,-25.17"/>
<polygon fill="midnightblue" stroke="midnightblue" points="382.52,-25.81 373.19,-30.84 383.62,-32.73 382.52,-25.81"/>
</g>
</g>
</svg>
