<?xml version="1.0" encoding="UTF-8" standalone="no"?>
<!DOCTYPE svg PUBLIC "-//W3C//DTD SVG 1.1//EN"
 "http://www.w3.org/Graphics/SVG/1.1/DTD/svg11.dtd">
<!-- Generated by graphviz version 2.43.0 (0)
 -->
<!-- Title: Graphical Class Hierarchy Pages: 1 -->
<svg width="326pt" height="64pt"
 viewBox="0.00 0.00 326.00 64.00" xmlns="http://www.w3.org/2000/svg" xmlns:xlink="http://www.w3.org/1999/xlink">
<g id="graph0" class="graph" transform="scale(1 1) rotate(0) translate(4 60)">
<title>Graphical Class Hierarchy</title>
<!-- Node0 -->
<g id="Node000000" class="node">
<title>Node0</title>
<g id="a_Node000000"><a xlink:href="classpism_1_1OutputWriter.html" target="_top" xlink:title=" ">
<polygon fill="white" stroke="#666666" points="110,-37 0,-37 0,-18 110,-18 110,-37"/>
<text text-anchor="middle" x="55" y="-25" font-family="Helvetica,sans-Serif" font-size="10.00">pism::OutputWriter</text>
</a>
</g>
</g>
<!-- Node1 -->
<g id="Node000001" class="node">
<title>Node1</title>
<g id="a_Node000001"><a xlink:href="classpism_1_1SynchronousOutputWriter.html" target="_top" xlink:title=" ">
<polygon fill="white" stroke="#666666" points="318,-56 146,-56 146,-37 318,-37 318,-56"/>
<text text-anchor="middle" x="232" y="-44" font-family="Helvetica,sans-Serif" font-size="10.00">pism::SynchronousOutputWriter</text>
</a>
</g>
</g>
<!-- Node0&#45;&gt;Node1 -->
<g id="edge346_Node000000_Node000001" class="edge">
<title>Node0&#45;&gt;Node1</title>
<g id="a_edge346_Node000000_Node000001"><a xlink:title=" ">
<path fill="none" stroke="#63b8ff" d="M120.62,-34.52C128.82,-35.41 137.31,-36.33 145.77,-37.25"/>
<polygon fill="#63b8ff" stroke="#63b8ff" points="120.73,-31.01 110.41,-33.41 119.98,-37.97 120.73,-31.01"/>
</a>
</g>
</g>
<!-- Node2 -->
<g id="Node000002" class="node">
<title>Node2</title>
<g id="a_Node000002"><a xlink:href="classpism_1_1YacOutputWriter.html" target="_top" xlink:title=" ">
<polygon fill="white" stroke="#666666" points="294.5,-19 169.5,-19 169.5,0 294.5,0 294.5,-19"/>
<text text-anchor="middle" x="232" y="-7" font-family="Helvetica,sans-Serif" font-size="10.00">pism::YacOutputWriter</text>
</a>
</g>
</g>
<!-- Node0&#45;&gt;Node2 -->
<g id="edge347_Node000000_Node000002" class="edge">
<title>Node0&#45;&gt;Node2</title>
<g id="a_edge347_Node000000_Node000002"><a xlink:title=" ">
<path fill="none" stroke="#63b8ff" d="M120.68,-20.85C136.57,-19.21 153.54,-17.47 169.29,-15.85"/>
<polygon fill="#63b8ff" stroke="#63b8ff" points="120,-17.4 110.41,-21.9 120.72,-24.36 120,-17.4"/>
</a>
</g>
</g>
</g>
</svg>
