<?xml version="1.0" encoding="UTF-8" standalone="no"?>
<!DOCTYPE svg PUBLIC "-//W3C//DTD SVG 1.1//EN"
 "http://www.w3.org/Graphics/SVG/1.1/DTD/svg11.dtd">
<!-- Generated by graphviz version 2.43.0 (0)
 -->
<!-- Title: Graphical Class Hierarchy Pages: 1 -->
<svg width="326pt" height="86pt"
 viewBox="0.00 0.00 326.00 86.00" xmlns="http://www.w3.org/2000/svg" xmlns:xlink="http://www.w3.org/1999/xlink">
<g id="graph0" class="graph" transform="scale(1 1) rotate(0) translate(4 82)">
<title>Graphical Class Hierarchy</title>
<!-- Node0 -->
<g id="Node000000" class="node">
<title>Node0</title>
<g id="a_Node000000"><a xlink:href="classpism_1_1IceBasalResistancePlasticLaw.html" target="_top" xlink:title="Class containing physical constants and the constitutive relation describing till for SSA.">
<polygon fill="white" stroke="#666666" points="141,-54 0,-54 0,-24 141,-24 141,-54"/>
<text text-anchor="start" x="8" y="-42" font-family="Helvetica,sans-Serif" font-size="10.00">pism::IceBasalResistance</text>
<text text-anchor="middle" x="70.5" y="-31" font-family="Helvetica,sans-Serif" font-size="10.00">PlasticLaw</text>
</a>
</g>
</g>
<!-- Node1 -->
<g id="Node000001" class="node">
<title>Node1</title>
<g id="a_Node000001"><a xlink:href="classpism_1_1IceBasalResistancePseudoPlasticLaw.html" target="_top" xlink:title=" ">
<polygon fill="white" stroke="#666666" points="318,-78 177,-78 177,-48 318,-48 318,-78"/>
<text text-anchor="start" x="185" y="-66" font-family="Helvetica,sans-Serif" font-size="10.00">pism::IceBasalResistance</text>
<text text-anchor="middle" x="247.5" y="-55" font-family="Helvetica,sans-Serif" font-size="10.00">PseudoPlasticLaw</text>
</a>
</g>
</g>
<!-- Node0&#45;&gt;Node1 -->
<g id="edge308_Node000000_Node000001" class="edge">
<title>Node0&#45;&gt;Node1</title>
<g id="a_edge308_Node000000_Node000001"><a xlink:title=" ">
<path fill="none" stroke="#63b8ff" d="M151.15,-49.92C159.7,-51.1 168.36,-52.28 176.79,-53.44"/>
<polygon fill="#63b8ff" stroke="#63b8ff" points="151.55,-46.45 141.17,-48.55 150.6,-53.38 151.55,-46.45"/>
</a>
</g>
</g>
<!-- Node2 -->
<g id="Node000002" class="node">
<title>Node2</title>
<g id="a_Node000002"><a xlink:href="classpism_1_1IceBasalResistanceRegularizedLaw.html" target="_top" xlink:title=" ">
<polygon fill="white" stroke="#666666" points="318,-30 177,-30 177,0 318,0 318,-30"/>
<text text-anchor="start" x="185" y="-18" font-family="Helvetica,sans-Serif" font-size="10.00">pism::IceBasalResistance</text>
<text text-anchor="middle" x="247.5" y="-7" font-family="Helvetica,sans-Serif" font-size="10.00">RegularizedLaw</text>
</a>
</g>
</g>
<!-- Node0&#45;&gt;Node2 -->
<g id="edge309_Node000000_Node000002" class="edge">
<title>Node0&#45;&gt;Node2</title>
<g id="a_edge309_Node000000_Node000002"><a xlink:title=" ">
<path fill="none" stroke="#63b8ff" d="M151.15,-28.08C159.7,-26.9 168.36,-25.72 176.79,-24.56"/>
<polygon fill="#63b8ff" stroke="#63b8ff" points="150.6,-24.62 141.17,-29.45 151.55,-31.55 150.6,-24.62"/>
</a>
</g>
</g>
</g>
</svg>
