<?xml version="1.0" encoding="UTF-8" standalone="no"?>
<!DOCTYPE svg PUBLIC "-//W3C//DTD SVG 1.1//EN"
 "http://www.w3.org/Graphics/SVG/1.1/DTD/svg11.dtd">
<!-- Generated by graphviz version 2.43.0 (0)
 -->
<!-- Title: Graphical Class Hierarchy Pages: 1 -->
<svg width="577pt" height="225pt"
 viewBox="0.00 0.00 577.00 224.50" xmlns="http://www.w3.org/2000/svg" xmlns:xlink="http://www.w3.org/1999/xlink">
<g id="graph0" class="graph" transform="scale(1 1) rotate(0) translate(4 220.5)">
<title>Graphical Class Hierarchy</title>
<!-- Node0 -->
<g id="node1" class="node">
<title>Node0</title>
<g id="a_node1"><a xlink:href="classpism_1_1rheology_1_1FlowLaw.html" target="_top" xlink:title=" ">
<polygon fill="none" stroke="black" points="0,-159 0,-178 137,-178 137,-159 0,-159"/>
<text text-anchor="middle" x="68.5" y="-166" font-family="Helvetica,sans-Serif" font-size="10.00">pism::rheology::FlowLaw</text>
</a>
</g>
</g>
<!-- Node1 -->
<g id="node2" class="node">
<title>Node1</title>
<g id="a_node2"><a xlink:href="classpism_1_1rheology_1_1GPBLD.html" target="_top" xlink:title="Glen (1955) and Paterson&#45;Budd (1982) flow law with additional water fraction factor from Lliboutry &amp; ...">
<polygon fill="none" stroke="black" points="199,-197 199,-216 327,-216 327,-197 199,-197"/>
<text text-anchor="middle" x="263" y="-204" font-family="Helvetica,sans-Serif" font-size="10.00">pism::rheology::GPBLD</text>
</a>
</g>
</g>
<!-- Node0&#45;&gt;Node1 -->
<g id="edge1" class="edge">
<title>Node0&#45;&gt;Node1</title>
<path fill="none" stroke="midnightblue" d="M127.95,-180.04C155.41,-185.46 187.74,-191.84 213.77,-196.98"/>
<polygon fill="midnightblue" stroke="midnightblue" points="128.56,-176.59 118.08,-178.09 127.21,-183.46 128.56,-176.59"/>
</g>
<!-- Node2 -->
<g id="node3" class="node">
<title>Node2</title>
<g id="a_node3"><a xlink:href="classpism_1_1rheology_1_1GoldsbyKohlstedt.html" target="_top" xlink:title="A hybrid of Goldsby&#45;Kohlstedt (2001) ice (constitutive form) and Paterson&#45;Budd (1982)&#45;Glen (viscosity...">
<polygon fill="none" stroke="black" points="173,-159 173,-178 353,-178 353,-159 173,-159"/>
<text text-anchor="middle" x="263" y="-166" font-family="Helvetica,sans-Serif" font-size="10.00">pism::rheology::GoldsbyKohlstedt</text>
</a>
</g>
</g>
<!-- Node0&#45;&gt;Node2 -->
<g id="edge2" class="edge">
<title>Node0&#45;&gt;Node2</title>
<path fill="none" stroke="midnightblue" d="M147.28,-168.5C155.73,-168.5 164.37,-168.5 172.94,-168.5"/>
<polygon fill="midnightblue" stroke="midnightblue" points="147.1,-165 137.1,-168.5 147.1,-172 147.1,-165"/>
</g>
<!-- Node4 -->
<g id="node5" class="node">
<title>Node4</title>
<g id="a_node5"><a xlink:href="classpism_1_1rheology_1_1PatersonBudd.html" target="_top" xlink:title="Derived class of FlowLaw for Paterson&#45;Budd (1982)&#45;Glen ice.">
<polygon fill="none" stroke="black" points="182.5,-99 182.5,-118 343.5,-118 343.5,-99 182.5,-99"/>
<text text-anchor="middle" x="263" y="-106" font-family="Helvetica,sans-Serif" font-size="10.00">pism::rheology::PatersonBudd</text>
</a>
</g>
</g>
<!-- Node0&#45;&gt;Node4 -->
<g id="edge4" class="edge">
<title>Node0&#45;&gt;Node4</title>
<path fill="none" stroke="midnightblue" d="M109.76,-155.95C145.97,-144.66 198.4,-128.32 231.32,-118.06"/>
<polygon fill="midnightblue" stroke="midnightblue" points="108.51,-152.68 100,-158.99 110.59,-159.36 108.51,-152.68"/>
</g>
<!-- Node3 -->
<g id="node4" class="node">
<title>Node3</title>
<g id="a_node4"><a xlink:href="classpism_1_1rheology_1_1GoldsbyKohlstedtStripped.html" target="_top" xlink:title="Derived class of GoldsbyKohlstedt for testing purposes only.">
<polygon fill="none" stroke="black" points="389,-175.5 389,-205.5 569,-205.5 569,-175.5 389,-175.5"/>
<text text-anchor="start" x="397" y="-193.5" font-family="Helvetica,sans-Serif" font-size="10.00">pism::rheology::GoldsbyKohlstedt</text>
<text text-anchor="middle" x="479" y="-182.5" font-family="Helvetica,sans-Serif" font-size="10.00">Stripped</text>
</a>
</g>
</g>
<!-- Node2&#45;&gt;Node3 -->
<g id="edge3" class="edge">
<title>Node2&#45;&gt;Node3</title>
<path fill="none" stroke="midnightblue" d="M363.23,-178.7C371.81,-179.58 380.45,-180.47 388.94,-181.34"/>
<polygon fill="midnightblue" stroke="midnightblue" points="363.51,-175.21 353.21,-177.67 362.8,-182.18 363.51,-175.21"/>
</g>
<!-- Node5 -->
<g id="node6" class="node">
<title>Node5</title>
<g id="a_node6"><a xlink:href="classpism_1_1rheology_1_1Hooke.html" target="_top" xlink:title="The Hooke flow law.">
<polygon fill="none" stroke="black" points="416.5,-137 416.5,-156 541.5,-156 541.5,-137 416.5,-137"/>
<text text-anchor="middle" x="479" y="-144" font-family="Helvetica,sans-Serif" font-size="10.00">pism::rheology::Hooke</text>
</a>
</g>
</g>
<!-- Node4&#45;&gt;Node5 -->
<g id="edge5" class="edge">
<title>Node4&#45;&gt;Node5</title>
<path fill="none" stroke="midnightblue" d="M327.9,-119.85C358.61,-125.3 394.99,-131.76 424.25,-136.96"/>
<polygon fill="midnightblue" stroke="midnightblue" points="328.18,-116.34 317.73,-118.04 326.96,-123.23 328.18,-116.34"/>
</g>
<!-- Node6 -->
<g id="node7" class="node">
<title>Node6</title>
<g id="a_node7"><a xlink:href="classpism_1_1rheology_1_1IsothermalGlen.html" target="_top" xlink:title="Isothermal Glen ice allowing extra customization.">
<polygon fill="none" stroke="black" points="394,-99 394,-118 564,-118 564,-99 394,-99"/>
<text text-anchor="middle" x="479" y="-106" font-family="Helvetica,sans-Serif" font-size="10.00">pism::rheology::IsothermalGlen</text>
</a>
</g>
</g>
<!-- Node4&#45;&gt;Node6 -->
<g id="edge6" class="edge">
<title>Node4&#45;&gt;Node6</title>
<path fill="none" stroke="midnightblue" d="M353.78,-108.5C367.09,-108.5 380.76,-108.5 393.95,-108.5"/>
<polygon fill="midnightblue" stroke="midnightblue" points="353.69,-105 343.69,-108.5 353.69,-112 353.69,-105"/>
</g>
<!-- Node7 -->
<g id="node8" class="node">
<title>Node7</title>
<g id="a_node8"><a xlink:href="classpism_1_1rheology_1_1PatersonBuddCold.html" target="_top" xlink:title="Cold case of Paterson&#45;Budd.">
<polygon fill="none" stroke="black" points="410.5,-49.5 410.5,-79.5 547.5,-79.5 547.5,-49.5 410.5,-49.5"/>
<text text-anchor="start" x="418.5" y="-67.5" font-family="Helvetica,sans-Serif" font-size="10.00">pism::rheology::Paterson</text>
<text text-anchor="middle" x="479" y="-56.5" font-family="Helvetica,sans-Serif" font-size="10.00">BuddCold</text>
</a>
</g>
</g>
<!-- Node4&#45;&gt;Node7 -->
<g id="edge7" class="edge">
<title>Node4&#45;&gt;Node7</title>
<path fill="none" stroke="midnightblue" d="M320.3,-96.93C347.83,-91.26 381.19,-84.41 410.12,-78.46"/>
<polygon fill="midnightblue" stroke="midnightblue" points="319.53,-93.51 310.43,-98.95 320.93,-100.37 319.53,-93.51"/>
</g>
<!-- Node8 -->
<g id="node9" class="node">
<title>Node8</title>
<g id="a_node9"><a xlink:href="classpism_1_1rheology_1_1PatersonBuddWarm.html" target="_top" xlink:title="Warm case of Paterson&#45;Budd.">
<polygon fill="none" stroke="black" points="410.5,-0.5 410.5,-30.5 547.5,-30.5 547.5,-0.5 410.5,-0.5"/>
<text text-anchor="start" x="418.5" y="-18.5" font-family="Helvetica,sans-Serif" font-size="10.00">pism::rheology::Paterson</text>
<text text-anchor="middle" x="479" y="-7.5" font-family="Helvetica,sans-Serif" font-size="10.00">BuddWarm</text>
</a>
</g>
</g>
<!-- Node4&#45;&gt;Node8 -->
<g id="edge8" class="edge">
<title>Node4&#45;&gt;Node8</title>
<path fill="none" stroke="midnightblue" d="M287.47,-93.65C312.02,-78.62 352.06,-55.51 389,-40.5 398.07,-36.81 407.87,-33.46 417.54,-30.5"/>
<polygon fill="midnightblue" stroke="midnightblue" points="285.51,-90.74 278.85,-98.98 289.2,-96.7 285.51,-90.74"/>
</g>
</g>
</svg>
