<?xml version="1.0" encoding="UTF-8" standalone="no"?>
<!DOCTYPE svg PUBLIC "-//W3C//DTD SVG 1.1//EN"
 "http://www.w3.org/Graphics/SVG/1.1/DTD/svg11.dtd">
<!-- Generated by graphviz version 2.43.0 (0)
 -->
<!-- Title: pism::hydrology::diagnostics::TendencyOfWaterMassDueToFlow Pages: 1 -->
<svg width="277pt" height="355pt"
 viewBox="0.00 0.00 277.00 355.00" xmlns="http://www.w3.org/2000/svg" xmlns:xlink="http://www.w3.org/1999/xlink">
<g id="graph0" class="graph" transform="scale(1 1) rotate(0) translate(4 351)">
<title>pism::hydrology::diagnostics::TendencyOfWaterMassDueToFlow</title>
<!-- Node1 -->
<g id="node1" class="node">
<title>Node1</title>
<g id="a_node1"><a xlink:title="Report water flux at the grounded margin.">
<polygon fill="#bfbfbf" stroke="black" points="0,-0.5 0,-30.5 187,-30.5 187,-0.5 0,-0.5"/>
<text text-anchor="start" x="8" y="-18.5" font-family="Helvetica,sans-Serif" font-size="10.00">pism::hydrology::diagnostics</text>
<text text-anchor="middle" x="93.5" y="-7.5" font-family="Helvetica,sans-Serif" font-size="10.00">::TendencyOfWaterMassDueToFlow</text>
</a>
</g>
</g>
<!-- Node2 -->
<g id="node2" class="node">
<title>Node2</title>
<g id="a_node2"><a xlink:href="classpism_1_1DiagAverageRate.html" target="_top" xlink:title=" ">
<polygon fill="none" stroke="black" points="28,-68.5 28,-98.5 159,-98.5 159,-68.5 28,-68.5"/>
<text text-anchor="start" x="36" y="-86.5" font-family="Helvetica,sans-Serif" font-size="10.00">pism::DiagAverageRate</text>
<text text-anchor="middle" x="93.5" y="-75.5" font-family="Helvetica,sans-Serif" font-size="10.00">&lt; Hydrology &gt;</text>
</a>
</g>
</g>
<!-- Node2&#45;&gt;Node1 -->
<g id="edge1" class="edge">
<title>Node2&#45;&gt;Node1</title>
<path fill="none" stroke="midnightblue" d="M93.5,-58.03C93.5,-48.86 93.5,-38.74 93.5,-30.79"/>
<polygon fill="midnightblue" stroke="midnightblue" points="90,-58.18 93.5,-68.18 97,-58.18 90,-58.18"/>
</g>
<!-- Node3 -->
<g id="node3" class="node">
<title>Node3</title>
<g id="a_node3"><a xlink:href="classpism_1_1Diag.html" target="_top" xlink:title="A template derived from Diagnostic, adding a &quot;Model&quot;.">
<polygon fill="none" stroke="black" points="26.5,-270.5 26.5,-289.5 148.5,-289.5 148.5,-270.5 26.5,-270.5"/>
<text text-anchor="middle" x="87.5" y="-277.5" font-family="Helvetica,sans-Serif" font-size="10.00">pism::Diag&lt; Model &gt;</text>
</a>
</g>
</g>
<!-- Node3&#45;&gt;Node2 -->
<g id="edge2" class="edge">
<title>Node3&#45;&gt;Node2</title>
<path fill="none" stroke="midnightblue" d="M88.09,-260.01C89.29,-221.11 92,-133.14 93.06,-98.7"/>
<polygon fill="midnightblue" stroke="midnightblue" points="84.58,-260.29 87.77,-270.39 91.57,-260.5 84.58,-260.29"/>
</g>
<!-- Node6 -->
<g id="node6" class="node">
<title>Node6</title>
<g id="a_node6"><a xlink:href="classpism_1_1Diag.html" target="_top" xlink:title=" ">
<polygon fill="none" stroke="black" points="126,-203.5 126,-222.5 227,-222.5 227,-203.5 126,-203.5"/>
<text text-anchor="middle" x="176.5" y="-210.5" font-family="Helvetica,sans-Serif" font-size="10.00">pism::Diag&lt; M &gt;</text>
</a>
</g>
</g>
<!-- Node3&#45;&gt;Node6 -->
<g id="edge7" class="edge">
<title>Node3&#45;&gt;Node6</title>
<path fill="none" stroke="orange" stroke-dasharray="5,2" d="M102.25,-263.23C109.47,-255.98 118.53,-247.56 127.5,-241 137.06,-234 148.64,-227.54 158.14,-222.7"/>
<polygon fill="orange" stroke="orange" points="99.67,-260.87 95.23,-270.49 104.7,-265.74 99.67,-260.87"/>
<text text-anchor="middle" x="145" y="-244" font-family="Helvetica,sans-Serif" font-size="10.00"> &lt; M &gt;</text>
</g>
<!-- Node4 -->
<g id="node4" class="node">
<title>Node4</title>
<g id="a_node4"><a xlink:href="classpism_1_1Diagnostic.html" target="_top" xlink:title="Class representing diagnostic computations in PISM.">
<polygon fill="none" stroke="black" points="82.5,-327.5 82.5,-346.5 180.5,-346.5 180.5,-327.5 82.5,-327.5"/>
<text text-anchor="middle" x="131.5" y="-334.5" font-family="Helvetica,sans-Serif" font-size="10.00">pism::Diagnostic</text>
</a>
</g>
</g>
<!-- Node4&#45;&gt;Node3 -->
<g id="edge3" class="edge">
<title>Node4&#45;&gt;Node3</title>
<path fill="none" stroke="midnightblue" d="M118.33,-319.53C110.49,-309.74 100.86,-297.7 94.47,-289.71"/>
<polygon fill="midnightblue" stroke="midnightblue" points="115.64,-321.78 124.62,-327.41 121.11,-317.41 115.64,-321.78"/>
</g>
<!-- Node4&#45;&gt;Node6 -->
<g id="edge6" class="edge">
<title>Node4&#45;&gt;Node6</title>
<path fill="none" stroke="midnightblue" d="M142.75,-318.7C147.82,-310.3 153.55,-299.9 157.5,-290 166.88,-266.5 172.66,-237.03 175.12,-222.67"/>
<polygon fill="midnightblue" stroke="midnightblue" points="139.77,-316.86 137.43,-327.2 145.7,-320.58 139.77,-316.86"/>
</g>
<!-- Node5 -->
<g id="node5" class="node">
<title>Node5</title>
<g id="a_node5"><a xlink:href="classpism_1_1DiagAverageRate.html" target="_top" xlink:title=" ">
<polygon fill="none" stroke="black" points="106,-146.5 106,-165.5 269,-165.5 269,-146.5 106,-146.5"/>
<text text-anchor="middle" x="187.5" y="-153.5" font-family="Helvetica,sans-Serif" font-size="10.00">pism::DiagAverageRate&lt; M &gt;</text>
</a>
</g>
</g>
<!-- Node5&#45;&gt;Node2 -->
<g id="edge4" class="edge">
<title>Node5&#45;&gt;Node2</title>
<path fill="none" stroke="orange" stroke-dasharray="5,2" d="M167.67,-140.13C151.33,-127.87 128.31,-110.61 112.27,-98.58"/>
<polygon fill="orange" stroke="orange" points="165.87,-143.16 175.97,-146.36 170.07,-137.56 165.87,-143.16"/>
<text text-anchor="middle" x="186.5" y="-120" font-family="Helvetica,sans-Serif" font-size="10.00"> &lt; Hydrology &gt;</text>
</g>
<!-- Node6&#45;&gt;Node5 -->
<g id="edge5" class="edge">
<title>Node6&#45;&gt;Node5</title>
<path fill="none" stroke="midnightblue" d="M180.22,-193.42C182.09,-184.05 184.27,-173.14 185.76,-165.71"/>
<polygon fill="midnightblue" stroke="midnightblue" points="176.75,-192.91 178.22,-203.41 183.61,-194.29 176.75,-192.91"/>
</g>
</g>
</svg>
