<?xml version="1.0" encoding="UTF-8" standalone="no"?>
<!DOCTYPE svg PUBLIC "-//W3C//DTD SVG 1.1//EN"
 "http://www.w3.org/Graphics/SVG/1.1/DTD/svg11.dtd">
<!-- Generated by graphviz version 2.43.0 (0)
 -->
<!-- Title: pism::stressbalance::Blatter Pages: 1 -->
<svg width="596pt" height="284pt"
 viewBox="0.00 0.00 596.00 284.00" xmlns="http://www.w3.org/2000/svg" xmlns:xlink="http://www.w3.org/1999/xlink">
<g id="graph0" class="graph" transform="scale(1 1) rotate(0) translate(4 280)">
<title>pism::stressbalance::Blatter</title>
<!-- Node1 -->
<g id="node1" class="node">
<title>Node1</title>
<g id="a_node1"><a xlink:title=" ">
<polygon fill="#bfbfbf" stroke="black" points="305,-122.5 305,-152.5 419,-152.5 419,-122.5 305,-122.5"/>
<text text-anchor="start" x="313" y="-140.5" font-family="Helvetica,sans-Serif" font-size="10.00">pism::stressbalance</text>
<text text-anchor="middle" x="362" y="-129.5" font-family="Helvetica,sans-Serif" font-size="10.00">::Blatter</text>
</a>
</g>
</g>
<!-- Node4 -->
<g id="node4" class="node">
<title>Node4</title>
<g id="a_node4"><a xlink:href="classpism_1_1stressbalance_1_1BlatterISMIPHOM.html" target="_top" xlink:title=" ">
<polygon fill="none" stroke="black" points="464.5,-245.5 464.5,-275.5 578.5,-275.5 578.5,-245.5 464.5,-245.5"/>
<text text-anchor="start" x="472.5" y="-263.5" font-family="Helvetica,sans-Serif" font-size="10.00">pism::stressbalance</text>
<text text-anchor="middle" x="521.5" y="-252.5" font-family="Helvetica,sans-Serif" font-size="10.00">::BlatterISMIPHOM</text>
</a>
</g>
</g>
<!-- Node1&#45;&gt;Node4 -->
<g id="edge3" class="edge">
<title>Node1&#45;&gt;Node4</title>
<path fill="none" stroke="midnightblue" d="M379.54,-160.88C396.31,-183.07 424.12,-215.98 455,-236.5 460.04,-239.85 465.61,-242.81 471.32,-245.4"/>
<polygon fill="midnightblue" stroke="midnightblue" points="382.23,-158.63 373.47,-152.67 376.6,-162.79 382.23,-158.63"/>
</g>
<!-- Node5 -->
<g id="node5" class="node">
<title>Node5</title>
<g id="a_node5"><a xlink:href="classpism_1_1stressbalance_1_1BlatterTestCFBC.html" target="_top" xlink:title=" ">
<polygon fill="none" stroke="black" points="464.5,-196.5 464.5,-226.5 578.5,-226.5 578.5,-196.5 464.5,-196.5"/>
<text text-anchor="start" x="472.5" y="-214.5" font-family="Helvetica,sans-Serif" font-size="10.00">pism::stressbalance</text>
<text text-anchor="middle" x="521.5" y="-203.5" font-family="Helvetica,sans-Serif" font-size="10.00">::BlatterTestCFBC</text>
</a>
</g>
</g>
<!-- Node1&#45;&gt;Node5 -->
<g id="edge4" class="edge">
<title>Node1&#45;&gt;Node5</title>
<path fill="none" stroke="midnightblue" d="M397.29,-157.69C414.33,-167.33 435.43,-178.66 455,-187.5 461.84,-190.59 469.21,-193.6 476.45,-196.37"/>
<polygon fill="midnightblue" stroke="midnightblue" points="398.68,-154.46 388.27,-152.54 395.21,-160.54 398.68,-154.46"/>
</g>
<!-- Node6 -->
<g id="node6" class="node">
<title>Node6</title>
<g id="a_node6"><a xlink:href="classpism_1_1stressbalance_1_1BlatterTestHalfar.html" target="_top" xlink:title=" ">
<polygon fill="none" stroke="black" points="464.5,-147.5 464.5,-177.5 578.5,-177.5 578.5,-147.5 464.5,-147.5"/>
<text text-anchor="start" x="472.5" y="-165.5" font-family="Helvetica,sans-Serif" font-size="10.00">pism::stressbalance</text>
<text text-anchor="middle" x="521.5" y="-154.5" font-family="Helvetica,sans-Serif" font-size="10.00">::BlatterTestHalfar</text>
</a>
</g>
</g>
<!-- Node1&#45;&gt;Node6 -->
<g id="edge5" class="edge">
<title>Node1&#45;&gt;Node6</title>
<path fill="none" stroke="midnightblue" d="M429.52,-148.06C441.16,-149.91 453.16,-151.81 464.48,-153.61"/>
<polygon fill="midnightblue" stroke="midnightblue" points="429.84,-144.57 419.42,-146.45 428.74,-151.48 429.84,-144.57"/>
</g>
<!-- Node7 -->
<g id="node7" class="node">
<title>Node7</title>
<g id="a_node7"><a xlink:href="classpism_1_1stressbalance_1_1BlatterTestXY.html" target="_top" xlink:title=" ">
<polygon fill="none" stroke="black" points="464.5,-98.5 464.5,-128.5 578.5,-128.5 578.5,-98.5 464.5,-98.5"/>
<text text-anchor="start" x="472.5" y="-116.5" font-family="Helvetica,sans-Serif" font-size="10.00">pism::stressbalance</text>
<text text-anchor="middle" x="521.5" y="-105.5" font-family="Helvetica,sans-Serif" font-size="10.00">::BlatterTestXY</text>
</a>
</g>
</g>
<!-- Node1&#45;&gt;Node7 -->
<g id="edge6" class="edge">
<title>Node1&#45;&gt;Node7</title>
<path fill="none" stroke="midnightblue" d="M429.52,-127.36C441.16,-125.59 453.16,-123.76 464.48,-122.04"/>
<polygon fill="midnightblue" stroke="midnightblue" points="428.77,-123.94 419.42,-128.9 429.83,-130.86 428.77,-123.94"/>
</g>
<!-- Node8 -->
<g id="node8" class="node">
<title>Node8</title>
<g id="a_node8"><a xlink:href="classpism_1_1stressbalance_1_1BlatterTestXZ.html" target="_top" xlink:title=" ">
<polygon fill="none" stroke="black" points="464.5,-49.5 464.5,-79.5 578.5,-79.5 578.5,-49.5 464.5,-49.5"/>
<text text-anchor="start" x="472.5" y="-67.5" font-family="Helvetica,sans-Serif" font-size="10.00">pism::stressbalance</text>
<text text-anchor="middle" x="521.5" y="-56.5" font-family="Helvetica,sans-Serif" font-size="10.00">::BlatterTestXZ</text>
</a>
</g>
</g>
<!-- Node1&#45;&gt;Node8 -->
<g id="edge7" class="edge">
<title>Node1&#45;&gt;Node8</title>
<path fill="none" stroke="midnightblue" d="M398.06,-117.36C414.99,-108.01 435.76,-97.1 455,-88.5 461.97,-85.39 469.47,-82.35 476.83,-79.55"/>
<polygon fill="midnightblue" stroke="midnightblue" points="396.12,-114.43 389.09,-122.36 399.53,-120.55 396.12,-114.43"/>
</g>
<!-- Node9 -->
<g id="node9" class="node">
<title>Node9</title>
<g id="a_node9"><a xlink:href="classpism_1_1stressbalance_1_1BlatterTestvanderVeen.html" target="_top" xlink:title=" ">
<polygon fill="none" stroke="black" points="455,-0.5 455,-30.5 588,-30.5 588,-0.5 455,-0.5"/>
<text text-anchor="start" x="463" y="-18.5" font-family="Helvetica,sans-Serif" font-size="10.00">pism::stressbalance</text>
<text text-anchor="middle" x="521.5" y="-7.5" font-family="Helvetica,sans-Serif" font-size="10.00">::BlatterTestvanderVeen</text>
</a>
</g>
</g>
<!-- Node1&#45;&gt;Node9 -->
<g id="edge8" class="edge">
<title>Node1&#45;&gt;Node9</title>
<path fill="none" stroke="midnightblue" d="M379.59,-114.36C396.4,-92.41 424.24,-59.84 455,-39.5 460.05,-36.16 465.63,-33.21 471.33,-30.62"/>
<polygon fill="midnightblue" stroke="midnightblue" points="376.7,-112.39 373.5,-122.49 382.3,-116.58 376.7,-112.39"/>
</g>
<!-- Node2 -->
<g id="node2" class="node">
<title>Node2</title>
<g id="a_node2"><a xlink:href="classpism_1_1stressbalance_1_1ShallowStressBalance.html" target="_top" xlink:title="Shallow stress balance (such as the SSA).">
<polygon fill="none" stroke="black" points="139,-122.5 139,-152.5 269,-152.5 269,-122.5 139,-122.5"/>
<text text-anchor="start" x="147" y="-140.5" font-family="Helvetica,sans-Serif" font-size="10.00">pism::stressbalance</text>
<text text-anchor="middle" x="204" y="-129.5" font-family="Helvetica,sans-Serif" font-size="10.00">::ShallowStressBalance</text>
</a>
</g>
</g>
<!-- Node2&#45;&gt;Node1 -->
<g id="edge1" class="edge">
<title>Node2&#45;&gt;Node1</title>
<path fill="none" stroke="midnightblue" d="M279.62,-137.5C288.08,-137.5 296.6,-137.5 304.77,-137.5"/>
<polygon fill="midnightblue" stroke="midnightblue" points="279.35,-134 269.35,-137.5 279.35,-141 279.35,-134"/>
</g>
<!-- Node3 -->
<g id="node3" class="node">
<title>Node3</title>
<g id="a_node3"><a xlink:href="classpism_1_1Component.html" target="_top" xlink:title="A class defining a common interface for most PISM sub&#45;models.">
<polygon fill="none" stroke="black" points="0,-128 0,-147 103,-147 103,-128 0,-128"/>
<text text-anchor="middle" x="51.5" y="-135" font-family="Helvetica,sans-Serif" font-size="10.00">pism::Component</text>
</a>
</g>
</g>
<!-- Node3&#45;&gt;Node2 -->
<g id="edge2" class="edge">
<title>Node3&#45;&gt;Node2</title>
<path fill="none" stroke="midnightblue" d="M113.22,-137.5C121.7,-137.5 130.43,-137.5 138.97,-137.5"/>
<polygon fill="midnightblue" stroke="midnightblue" points="113.03,-134 103.03,-137.5 113.03,-141 113.03,-134"/>
</g>
</g>
</svg>
