<?xml version="1.0" encoding="UTF-8" standalone="no"?>
<!DOCTYPE svg PUBLIC "-//W3C//DTD SVG 1.1//EN"
 "http://www.w3.org/Graphics/SVG/1.1/DTD/svg11.dtd">
<!-- Generated by graphviz version 2.43.0 (0)
 -->
<!-- Title: pism::ocean::CompleteOceanModel Pages: 1 -->
<svg width="512pt" height="207pt"
 viewBox="0.00 0.00 511.50 207.00" xmlns="http://www.w3.org/2000/svg" xmlns:xlink="http://www.w3.org/1999/xlink">
<g id="graph0" class="graph" transform="scale(1 1) rotate(0) translate(4 203)">
<title>pism::ocean::CompleteOceanModel</title>
<!-- Node1 -->
<g id="node1" class="node">
<title>Node1</title>
<g id="a_node1"><a xlink:title=" ">
<polygon fill="#bfbfbf" stroke="black" points="189.5,-56.5 189.5,-86.5 349.5,-86.5 349.5,-56.5 189.5,-56.5"/>
<text text-anchor="start" x="197.5" y="-74.5" font-family="Helvetica,sans-Serif" font-size="10.00">pism::ocean::CompleteOcean</text>
<text text-anchor="middle" x="269.5" y="-63.5" font-family="Helvetica,sans-Serif" font-size="10.00">Model</text>
</a>
</g>
</g>
<!-- Node4 -->
<g id="node4" class="node">
<title>Node4</title>
<g id="a_node4"><a xlink:href="classpism_1_1ocean_1_1Constant.html" target="_top" xlink:title="A class implementing a constant (in terms of the ocean inputs) ocean model. Uses configuration parame...">
<polygon fill="none" stroke="black" points="0,-0.5 0,-19.5 125,-19.5 125,-0.5 0,-0.5"/>
<text text-anchor="middle" x="62.5" y="-7.5" font-family="Helvetica,sans-Serif" font-size="10.00">pism::ocean::Constant</text>
</a>
</g>
</g>
<!-- Node1&#45;&gt;Node4 -->
<g id="edge3" class="edge">
<title>Node1&#45;&gt;Node4</title>
<path fill="none" stroke="midnightblue" d="M211.09,-53.71C172.3,-42.56 123,-28.39 92.09,-19.51"/>
<polygon fill="midnightblue" stroke="midnightblue" points="210.13,-57.08 220.71,-56.47 212.06,-50.35 210.13,-57.08"/>
</g>
<!-- Node5 -->
<g id="node5" class="node">
<title>Node5</title>
<g id="a_node5"><a xlink:href="classpism_1_1ocean_1_1GivenTH.html" target="_top" xlink:title=" ">
<polygon fill="none" stroke="black" points="143.5,-0.5 143.5,-19.5 267.5,-19.5 267.5,-0.5 143.5,-0.5"/>
<text text-anchor="middle" x="205.5" y="-7.5" font-family="Helvetica,sans-Serif" font-size="10.00">pism::ocean::GivenTH</text>
</a>
</g>
</g>
<!-- Node1&#45;&gt;Node5 -->
<g id="edge4" class="edge">
<title>Node1&#45;&gt;Node5</title>
<path fill="none" stroke="midnightblue" d="M246.7,-49.3C235.71,-39.09 223.15,-27.41 214.81,-19.66"/>
<polygon fill="midnightblue" stroke="midnightblue" points="244.63,-52.15 254.33,-56.4 249.39,-47.03 244.63,-52.15"/>
</g>
<!-- Node6 -->
<g id="node6" class="node">
<title>Node6</title>
<g id="a_node6"><a xlink:href="classpism_1_1ocean_1_1PIK.html" target="_top" xlink:title="Implements the ocean model used in [Martinetal2011].">
<polygon fill="none" stroke="black" points="285.5,-0.5 285.5,-19.5 383.5,-19.5 383.5,-0.5 285.5,-0.5"/>
<text text-anchor="middle" x="334.5" y="-7.5" font-family="Helvetica,sans-Serif" font-size="10.00">pism::ocean::PIK</text>
</a>
</g>
</g>
<!-- Node1&#45;&gt;Node6 -->
<g id="edge5" class="edge">
<title>Node1&#45;&gt;Node6</title>
<path fill="none" stroke="midnightblue" d="M292.33,-49.6C303.57,-39.32 316.49,-27.48 325.04,-19.66"/>
<polygon fill="midnightblue" stroke="midnightblue" points="289.92,-47.07 284.9,-56.4 294.64,-52.23 289.92,-47.07"/>
</g>
<!-- Node7 -->
<g id="node7" class="node">
<title>Node7</title>
<g id="a_node7"><a xlink:href="classpism_1_1ocean_1_1Pico.html" target="_top" xlink:title=" ">
<polygon fill="none" stroke="black" points="401.5,-0.5 401.5,-19.5 503.5,-19.5 503.5,-0.5 401.5,-0.5"/>
<text text-anchor="middle" x="452.5" y="-7.5" font-family="Helvetica,sans-Serif" font-size="10.00">pism::ocean::Pico</text>
</a>
</g>
</g>
<!-- Node1&#45;&gt;Node7 -->
<g id="edge6" class="edge">
<title>Node1&#45;&gt;Node7</title>
<path fill="none" stroke="midnightblue" d="M322.65,-53.22C356.62,-42.17 399.2,-28.33 426.14,-19.57"/>
<polygon fill="midnightblue" stroke="midnightblue" points="321.3,-49.98 312.87,-56.4 323.46,-56.64 321.3,-49.98"/>
</g>
<!-- Node2 -->
<g id="node2" class="node">
<title>Node2</title>
<g id="a_node2"><a xlink:href="classpism_1_1ocean_1_1OceanModel.html" target="_top" xlink:title="A very rudimentary PISM ocean model.">
<polygon fill="none" stroke="black" points="198,-123.5 198,-142.5 341,-142.5 341,-123.5 198,-123.5"/>
<text text-anchor="middle" x="269.5" y="-130.5" font-family="Helvetica,sans-Serif" font-size="10.00">pism::ocean::OceanModel</text>
</a>
</g>
</g>
<!-- Node2&#45;&gt;Node1 -->
<g id="edge1" class="edge">
<title>Node2&#45;&gt;Node1</title>
<path fill="none" stroke="midnightblue" d="M269.5,-113.23C269.5,-104.59 269.5,-94.5 269.5,-86.52"/>
<polygon fill="midnightblue" stroke="midnightblue" points="266,-113.48 269.5,-123.48 273,-113.48 266,-113.48"/>
</g>
<!-- Node3 -->
<g id="node3" class="node">
<title>Node3</title>
<g id="a_node3"><a xlink:href="classpism_1_1Component.html" target="_top" xlink:title="A class defining a common interface for most PISM sub&#45;models.">
<polygon fill="none" stroke="black" points="218,-179.5 218,-198.5 321,-198.5 321,-179.5 218,-179.5"/>
<text text-anchor="middle" x="269.5" y="-186.5" font-family="Helvetica,sans-Serif" font-size="10.00">pism::Component</text>
</a>
</g>
</g>
<!-- Node3&#45;&gt;Node2 -->
<g id="edge2" class="edge">
<title>Node3&#45;&gt;Node2</title>
<path fill="none" stroke="midnightblue" d="M269.5,-168.8C269.5,-159.91 269.5,-149.78 269.5,-142.75"/>
<polygon fill="midnightblue" stroke="midnightblue" points="266,-169.08 269.5,-179.08 273,-169.08 266,-169.08"/>
</g>
</g>
</svg>
