<?xml version="1.0" encoding="UTF-8" standalone="no"?>
<!DOCTYPE svg PUBLIC "-//W3C//DTD SVG 1.1//EN"
 "http://www.w3.org/Graphics/SVG/1.1/DTD/svg11.dtd">
<!-- Generated by graphviz version 2.43.0 (0)
 -->
<!-- Title: pism::ocean::sea_level::SeaLevel Pages: 1 -->
<svg width="439pt" height="137pt"
 viewBox="0.00 0.00 439.00 137.00" xmlns="http://www.w3.org/2000/svg" xmlns:xlink="http://www.w3.org/1999/xlink">
<g id="graph0" class="graph" transform="scale(1 1) rotate(0) translate(4 133)">
<title>pism::ocean::sea_level::SeaLevel</title>
<!-- Node1 -->
<g id="node1" class="node">
<title>Node1</title>
<g id="a_node1"><a xlink:title=" ">
<polygon fill="#bfbfbf" stroke="black" points="139,-49.5 139,-79.5 267,-79.5 267,-49.5 139,-49.5"/>
<text text-anchor="start" x="147" y="-67.5" font-family="Helvetica,sans-Serif" font-size="10.00">pism::ocean::sea_level</text>
<text text-anchor="middle" x="203" y="-56.5" font-family="Helvetica,sans-Serif" font-size="10.00">::SeaLevel</text>
</a>
</g>
</g>
<!-- Node3 -->
<g id="node3" class="node">
<title>Node3</title>
<g id="a_node3"><a xlink:href="classpism_1_1ocean_1_1sea__level_1_1Delta__SL.html" target="_top" xlink:title=" ">
<polygon fill="none" stroke="black" points="303,-98.5 303,-128.5 431,-128.5 431,-98.5 303,-98.5"/>
<text text-anchor="start" x="311" y="-116.5" font-family="Helvetica,sans-Serif" font-size="10.00">pism::ocean::sea_level</text>
<text text-anchor="middle" x="367" y="-105.5" font-family="Helvetica,sans-Serif" font-size="10.00">::Delta_SL</text>
</a>
</g>
</g>
<!-- Node1&#45;&gt;Node3 -->
<g id="edge2" class="edge">
<title>Node1&#45;&gt;Node3</title>
<path fill="none" stroke="midnightblue" d="M263.88,-82.61C281.11,-87.82 299.7,-93.45 316.24,-98.45"/>
<polygon fill="midnightblue" stroke="midnightblue" points="264.51,-79.15 253.93,-79.6 262.49,-85.85 264.51,-79.15"/>
</g>
<!-- Node4 -->
<g id="node4" class="node">
<title>Node4</title>
<g id="a_node4"><a xlink:href="classpism_1_1ocean_1_1sea__level_1_1Delta__SL__2D.html" target="_top" xlink:title=" ">
<polygon fill="none" stroke="black" points="303,-49.5 303,-79.5 431,-79.5 431,-49.5 303,-49.5"/>
<text text-anchor="start" x="311" y="-67.5" font-family="Helvetica,sans-Serif" font-size="10.00">pism::ocean::sea_level</text>
<text text-anchor="middle" x="367" y="-56.5" font-family="Helvetica,sans-Serif" font-size="10.00">::Delta_SL_2D</text>
</a>
</g>
</g>
<!-- Node1&#45;&gt;Node4 -->
<g id="edge3" class="edge">
<title>Node1&#45;&gt;Node4</title>
<path fill="none" stroke="midnightblue" d="M277.37,-64.5C285.86,-64.5 294.47,-64.5 302.81,-64.5"/>
<polygon fill="midnightblue" stroke="midnightblue" points="277.1,-61 267.1,-64.5 277.1,-68 277.1,-61"/>
</g>
<!-- Node5 -->
<g id="node5" class="node">
<title>Node5</title>
<g id="a_node5"><a xlink:href="classpism_1_1ocean_1_1sea__level_1_1InitializationHelper.html" target="_top" xlink:title=" ">
<polygon fill="none" stroke="black" points="303,-0.5 303,-30.5 431,-30.5 431,-0.5 303,-0.5"/>
<text text-anchor="start" x="311" y="-18.5" font-family="Helvetica,sans-Serif" font-size="10.00">pism::ocean::sea_level</text>
<text text-anchor="middle" x="367" y="-7.5" font-family="Helvetica,sans-Serif" font-size="10.00">::InitializationHelper</text>
</a>
</g>
</g>
<!-- Node1&#45;&gt;Node5 -->
<g id="edge4" class="edge">
<title>Node1&#45;&gt;Node5</title>
<path fill="none" stroke="midnightblue" d="M263.88,-46.39C281.11,-41.18 299.7,-35.55 316.24,-30.55"/>
<polygon fill="midnightblue" stroke="midnightblue" points="262.49,-43.15 253.93,-49.4 264.51,-49.85 262.49,-43.15"/>
</g>
<!-- Node2 -->
<g id="node2" class="node">
<title>Node2</title>
<g id="a_node2"><a xlink:href="classpism_1_1Component.html" target="_top" xlink:title="A class defining a common interface for most PISM sub&#45;models.">
<polygon fill="none" stroke="black" points="0,-55 0,-74 103,-74 103,-55 0,-55"/>
<text text-anchor="middle" x="51.5" y="-62" font-family="Helvetica,sans-Serif" font-size="10.00">pism::Component</text>
</a>
</g>
</g>
<!-- Node2&#45;&gt;Node1 -->
<g id="edge1" class="edge">
<title>Node2&#45;&gt;Node1</title>
<path fill="none" stroke="midnightblue" d="M113.29,-64.5C121.76,-64.5 130.47,-64.5 138.98,-64.5"/>
<polygon fill="midnightblue" stroke="midnightblue" points="113.11,-61 103.11,-64.5 113.11,-68 113.11,-61"/>
</g>
</g>
</svg>
