<?xml version="1.0" encoding="UTF-8" standalone="no"?>
<!DOCTYPE svg PUBLIC "-//W3C//DTD SVG 1.1//EN"
 "http://www.w3.org/Graphics/SVG/1.1/DTD/svg11.dtd">
<!-- Generated by graphviz version 2.43.0 (0)
 -->
<!-- Title: pism::surface::diagnostics::PS_ice_surface_temp Pages: 1 -->
<svg width="221pt" height="220pt"
 viewBox="0.00 0.00 221.00 220.00" xmlns="http://www.w3.org/2000/svg" xmlns:xlink="http://www.w3.org/1999/xlink">
<g id="graph0" class="graph" transform="scale(1 1) rotate(0) translate(4 216)">
<title>pism::surface::diagnostics::PS_ice_surface_temp</title>
<!-- Node1 -->
<g id="node1" class="node">
<title>Node1</title>
<g id="a_node1"><a xlink:title="Ice surface temperature.">
<polygon fill="#bfbfbf" stroke="black" points="7,-0.5 7,-30.5 151,-30.5 151,-0.5 7,-0.5"/>
<text text-anchor="start" x="15" y="-18.5" font-family="Helvetica,sans-Serif" font-size="10.00">pism::surface::diagnostics</text>
<text text-anchor="middle" x="79" y="-7.5" font-family="Helvetica,sans-Serif" font-size="10.00">::PS_ice_surface_temp</text>
</a>
</g>
</g>
<!-- Node2 -->
<g id="node2" class="node">
<title>Node2</title>
<g id="a_node2"><a xlink:href="classpism_1_1Diag.html" target="_top" xlink:title=" ">
<polygon fill="none" stroke="black" points="0,-68.5 0,-87.5 158,-87.5 158,-68.5 0,-68.5"/>
<text text-anchor="middle" x="79" y="-75.5" font-family="Helvetica,sans-Serif" font-size="10.00">pism::Diag&lt; SurfaceModel &gt;</text>
</a>
</g>
</g>
<!-- Node2&#45;&gt;Node1 -->
<g id="edge1" class="edge">
<title>Node2&#45;&gt;Node1</title>
<path fill="none" stroke="midnightblue" d="M79,-58.22C79,-49.36 79,-38.96 79,-30.76"/>
<polygon fill="midnightblue" stroke="midnightblue" points="75.5,-58.33 79,-68.33 82.5,-58.33 75.5,-58.33"/>
</g>
<!-- Node3 -->
<g id="node3" class="node">
<title>Node3</title>
<g id="a_node3"><a xlink:href="classpism_1_1Diagnostic.html" target="_top" xlink:title="Class representing diagnostic computations in PISM.">
<polygon fill="none" stroke="black" points="26,-192.5 26,-211.5 124,-211.5 124,-192.5 26,-192.5"/>
<text text-anchor="middle" x="75" y="-199.5" font-family="Helvetica,sans-Serif" font-size="10.00">pism::Diagnostic</text>
</a>
</g>
</g>
<!-- Node3&#45;&gt;Node2 -->
<g id="edge2" class="edge">
<title>Node3&#45;&gt;Node2</title>
<path fill="none" stroke="midnightblue" d="M75.62,-182.19C76.5,-155.4 78.07,-107.31 78.71,-87.69"/>
<polygon fill="midnightblue" stroke="midnightblue" points="72.12,-182.12 75.29,-192.23 79.11,-182.35 72.12,-182.12"/>
</g>
<!-- Node4 -->
<g id="node4" class="node">
<title>Node4</title>
<g id="a_node4"><a xlink:href="classpism_1_1Diag.html" target="_top" xlink:title="A template derived from Diagnostic, adding a &quot;Model&quot;.">
<polygon fill="none" stroke="black" points="91,-135.5 91,-154.5 213,-154.5 213,-135.5 91,-135.5"/>
<text text-anchor="middle" x="152" y="-142.5" font-family="Helvetica,sans-Serif" font-size="10.00">pism::Diag&lt; Model &gt;</text>
</a>
</g>
</g>
<!-- Node3&#45;&gt;Node4 -->
<g id="edge4" class="edge">
<title>Node3&#45;&gt;Node4</title>
<path fill="none" stroke="midnightblue" d="M95.25,-186.54C109.5,-176.35 128.11,-163.07 140.05,-154.53"/>
<polygon fill="midnightblue" stroke="midnightblue" points="93.13,-183.75 87.03,-192.41 97.2,-189.44 93.13,-183.75"/>
</g>
<!-- Node4&#45;&gt;Node2 -->
<g id="edge3" class="edge">
<title>Node4&#45;&gt;Node2</title>
<path fill="none" stroke="orange" stroke-dasharray="5,2" d="M134.43,-128.36C120.08,-115.58 100.33,-97.99 88.69,-87.63"/>
<polygon fill="orange" stroke="orange" points="132.36,-131.2 142.15,-135.23 137.01,-125.97 132.36,-131.2"/>
<text text-anchor="middle" x="165.5" y="-109" font-family="Helvetica,sans-Serif" font-size="10.00"> &lt; SurfaceModel &gt;</text>
</g>
</g>
</svg>
