<?xml version="1.0" encoding="UTF-8" standalone="no"?>
<!DOCTYPE svg PUBLIC "-//W3C//DTD SVG 1.1//EN"
 "http://www.w3.org/Graphics/SVG/1.1/DTD/svg11.dtd">
<!-- Generated by graphviz version 2.43.0 (0)
 -->
<!-- Title: pism::TSFluxDiagnostic Pages: 1 -->
<svg width="900pt" height="640pt"
 viewBox="0.00 0.00 900.00 639.50" xmlns="http://www.w3.org/2000/svg" xmlns:xlink="http://www.w3.org/1999/xlink">
<g id="graph0" class="graph" transform="scale(1 1) rotate(0) translate(4 635.5)">
<title>pism::TSFluxDiagnostic</title>
<!-- Node1 -->
<g id="node1" class="node">
<title>Node1</title>
<g id="a_node1"><a xlink:title="Scalar diagnostic reporting a &quot;flux&quot;.">
<polygon fill="#bfbfbf" stroke="black" points="315,-263.5 315,-282.5 446,-282.5 446,-263.5 315,-263.5"/>
<text text-anchor="middle" x="380.5" y="-270.5" font-family="Helvetica,sans-Serif" font-size="10.00">pism::TSFluxDiagnostic</text>
</a>
</g>
</g>
<!-- Node4 -->
<g id="node4" class="node">
<title>Node4</title>
<g id="a_node4"><a xlink:href="classpism_1_1TSDiag.html" target="_top" xlink:title=" ">
<polygon fill="none" stroke="black" points="482,-527 482,-557 662,-557 662,-527 482,-527"/>
<text text-anchor="start" x="490" y="-545" font-family="Helvetica,sans-Serif" font-size="10.00">pism::TSDiag&lt; TSFluxDiagnostic,</text>
<text text-anchor="middle" x="572" y="-534" font-family="Helvetica,sans-Serif" font-size="10.00"> TemperatureIndex &gt;</text>
</a>
</g>
</g>
<!-- Node1&#45;&gt;Node4 -->
<g id="edge3" class="edge">
<title>Node1&#45;&gt;Node4</title>
<path fill="none" stroke="midnightblue" d="M394.02,-290.77C429.07,-340.53 527.75,-480.61 560.38,-526.92"/>
<polygon fill="midnightblue" stroke="midnightblue" points="396.86,-288.73 388.24,-282.57 391.14,-292.76 396.86,-288.73"/>
</g>
<!-- Node8 -->
<g id="node8" class="node">
<title>Node8</title>
<g id="a_node8"><a xlink:href="classpism_1_1TSDiag.html" target="_top" xlink:title=" ">
<polygon fill="none" stroke="black" points="482,-258 482,-288 662,-288 662,-258 482,-258"/>
<text text-anchor="start" x="490" y="-276" font-family="Helvetica,sans-Serif" font-size="10.00">pism::TSDiag&lt; TSFluxDiagnostic,</text>
<text text-anchor="middle" x="572" y="-265" font-family="Helvetica,sans-Serif" font-size="10.00"> IceModel &gt;</text>
</a>
</g>
</g>
<!-- Node1&#45;&gt;Node8 -->
<g id="edge7" class="edge">
<title>Node1&#45;&gt;Node8</title>
<path fill="none" stroke="midnightblue" d="M456.28,-273C464.66,-273 473.26,-273 481.8,-273"/>
<polygon fill="midnightblue" stroke="midnightblue" points="456.19,-269.5 446.19,-273 456.19,-276.5 456.19,-269.5"/>
</g>
<!-- Node18 -->
<g id="node18" class="node">
<title>Node18</title>
<g id="a_node18"><a xlink:href="classpism_1_1TSDiag.html" target="_top" xlink:title=" ">
<polygon fill="none" stroke="black" points="482,-102 482,-132 662,-132 662,-102 482,-102"/>
<text text-anchor="start" x="490" y="-120" font-family="Helvetica,sans-Serif" font-size="10.00">pism::TSDiag&lt; TSFluxDiagnostic,</text>
<text text-anchor="middle" x="572" y="-109" font-family="Helvetica,sans-Serif" font-size="10.00"> EnergyModel &gt;</text>
</a>
</g>
</g>
<!-- Node1&#45;&gt;Node18 -->
<g id="edge17" class="edge">
<title>Node1&#45;&gt;Node18</title>
<path fill="none" stroke="midnightblue" d="M401.06,-256.9C437.83,-226.63 516.8,-161.62 552.64,-132.12"/>
<polygon fill="midnightblue" stroke="midnightblue" points="398.56,-254.42 393.07,-263.48 403.01,-259.82 398.56,-254.42"/>
</g>
<!-- Node2 -->
<g id="node2" class="node">
<title>Node2</title>
<g id="a_node2"><a xlink:href="classpism_1_1TSRateDiagnostic.html" target="_top" xlink:title="Scalar diagnostic reporting the rate of change of a quantity modeled by PISM.">
<polygon fill="none" stroke="black" points="146,-263.5 146,-282.5 279,-282.5 279,-263.5 146,-263.5"/>
<text text-anchor="middle" x="212.5" y="-270.5" font-family="Helvetica,sans-Serif" font-size="10.00">pism::TSRateDiagnostic</text>
</a>
</g>
</g>
<!-- Node2&#45;&gt;Node1 -->
<g id="edge1" class="edge">
<title>Node2&#45;&gt;Node1</title>
<path fill="none" stroke="midnightblue" d="M289.14,-273C297.75,-273 306.46,-273 314.91,-273"/>
<polygon fill="midnightblue" stroke="midnightblue" points="289.11,-269.5 279.11,-273 289.11,-276.5 289.11,-269.5"/>
</g>
<!-- Node3 -->
<g id="node3" class="node">
<title>Node3</title>
<g id="a_node3"><a xlink:href="classpism_1_1TSDiagnostic.html" target="_top" xlink:title="PISM&#39;s scalar time&#45;series diagnostics.">
<polygon fill="none" stroke="black" points="0,-263.5 0,-282.5 110,-282.5 110,-263.5 0,-263.5"/>
<text text-anchor="middle" x="55" y="-270.5" font-family="Helvetica,sans-Serif" font-size="10.00">pism::TSDiagnostic</text>
</a>
</g>
</g>
<!-- Node3&#45;&gt;Node2 -->
<g id="edge2" class="edge">
<title>Node3&#45;&gt;Node2</title>
<path fill="none" stroke="midnightblue" d="M120.5,-273C128.89,-273 137.5,-273 145.92,-273"/>
<polygon fill="midnightblue" stroke="midnightblue" points="120.39,-269.5 110.39,-273 120.39,-276.5 120.39,-269.5"/>
</g>
<!-- Node5 -->
<g id="node5" class="node">
<title>Node5</title>
<g id="a_node5"><a xlink:href="classpism_1_1surface_1_1diagnostics_1_1TotalSurfaceAccumulation.html" target="_top" xlink:title="Reports the total accumulation rate.">
<polygon fill="none" stroke="black" points="720.5,-601 720.5,-631 869.5,-631 869.5,-601 720.5,-601"/>
<text text-anchor="start" x="728.5" y="-619" font-family="Helvetica,sans-Serif" font-size="10.00">pism::surface::diagnostics</text>
<text text-anchor="middle" x="795" y="-608" font-family="Helvetica,sans-Serif" font-size="10.00">::TotalSurfaceAccumulation</text>
</a>
</g>
</g>
<!-- Node4&#45;&gt;Node5 -->
<g id="edge4" class="edge">
<title>Node4&#45;&gt;Node5</title>
<path fill="none" stroke="midnightblue" d="M616.48,-561.08C640.27,-571.09 670.44,-583.09 698,-592 707.89,-595.2 718.47,-598.22 728.85,-600.98"/>
<polygon fill="midnightblue" stroke="midnightblue" points="617.6,-557.75 607.03,-557.07 614.86,-564.2 617.6,-557.75"/>
</g>
<!-- Node6 -->
<g id="node6" class="node">
<title>Node6</title>
<g id="a_node6"><a xlink:href="classpism_1_1surface_1_1diagnostics_1_1TotalSurfaceMelt.html" target="_top" xlink:title="Reports the total melt rate.">
<polygon fill="none" stroke="black" points="723,-552 723,-582 867,-582 867,-552 723,-552"/>
<text text-anchor="start" x="731" y="-570" font-family="Helvetica,sans-Serif" font-size="10.00">pism::surface::diagnostics</text>
<text text-anchor="middle" x="795" y="-559" font-family="Helvetica,sans-Serif" font-size="10.00">::TotalSurfaceMelt</text>
</a>
</g>
</g>
<!-- Node4&#45;&gt;Node6 -->
<g id="edge5" class="edge">
<title>Node4&#45;&gt;Node6</title>
<path fill="none" stroke="midnightblue" d="M672.22,-553.22C689.25,-555.15 706.64,-557.12 722.75,-558.94"/>
<polygon fill="midnightblue" stroke="midnightblue" points="672.58,-549.74 662.25,-552.1 671.8,-556.7 672.58,-549.74"/>
</g>
<!-- Node7 -->
<g id="node7" class="node">
<title>Node7</title>
<g id="a_node7"><a xlink:href="classpism_1_1surface_1_1diagnostics_1_1TotalSurfaceRunoff.html" target="_top" xlink:title="Reports the total top surface ice flux.">
<polygon fill="none" stroke="black" points="723,-503 723,-533 867,-533 867,-503 723,-503"/>
<text text-anchor="start" x="731" y="-521" font-family="Helvetica,sans-Serif" font-size="10.00">pism::surface::diagnostics</text>
<text text-anchor="middle" x="795" y="-510" font-family="Helvetica,sans-Serif" font-size="10.00">::TotalSurfaceRunoff</text>
</a>
</g>
</g>
<!-- Node4&#45;&gt;Node7 -->
<g id="edge6" class="edge">
<title>Node4&#45;&gt;Node7</title>
<path fill="none" stroke="midnightblue" d="M672.22,-531.22C689.25,-529.38 706.64,-527.49 722.75,-525.74"/>
<polygon fill="midnightblue" stroke="midnightblue" points="671.82,-527.75 662.25,-532.31 672.57,-534.71 671.82,-527.75"/>
</g>
<!-- Node9 -->
<g id="node9" class="node">
<title>Node9</title>
<g id="a_node9"><a xlink:href="classpism_1_1diagnostics_1_1scalar_1_1IceMassFluxAtGroundingLine.html" target="_top" xlink:title="Reports the total flux across the grounding line.">
<polygon fill="none" stroke="black" points="698,-454 698,-484 892,-484 892,-454 698,-454"/>
<text text-anchor="start" x="706" y="-472" font-family="Helvetica,sans-Serif" font-size="10.00">pism::diagnostics::</text>
<text text-anchor="middle" x="795" y="-461" font-family="Helvetica,sans-Serif" font-size="10.00">scalar::IceMassFluxAtGroundingLine</text>
</a>
</g>
</g>
<!-- Node8&#45;&gt;Node9 -->
<g id="edge8" class="edge">
<title>Node8&#45;&gt;Node9</title>
<path fill="none" stroke="midnightblue" d="M583.86,-297.4C601.93,-335.09 641.82,-407.09 698,-445 703.13,-448.46 708.71,-451.42 714.52,-453.96"/>
<polygon fill="midnightblue" stroke="midnightblue" points="586.95,-295.74 579.54,-288.16 580.61,-298.7 586.95,-295.74"/>
</g>
<!-- Node10 -->
<g id="node10" class="node">
<title>Node10</title>
<g id="a_node10"><a xlink:href="classpism_1_1diagnostics_1_1scalar_1_1IceMassFluxBasal.html" target="_top" xlink:title="Reports the total bottom surface ice flux.">
<polygon fill="none" stroke="black" points="725,-405 725,-435 865,-435 865,-405 725,-405"/>
<text text-anchor="start" x="733" y="-423" font-family="Helvetica,sans-Serif" font-size="10.00">pism::diagnostics::</text>
<text text-anchor="middle" x="795" y="-412" font-family="Helvetica,sans-Serif" font-size="10.00">scalar::IceMassFluxBasal</text>
</a>
</g>
</g>
<!-- Node8&#45;&gt;Node10 -->
<g id="edge9" class="edge">
<title>Node8&#45;&gt;Node10</title>
<path fill="none" stroke="midnightblue" d="M590.06,-296.11C611.94,-324.05 652.52,-370.49 698,-396 706.32,-400.66 715.54,-404.43 724.88,-407.48"/>
<polygon fill="midnightblue" stroke="midnightblue" points="592.76,-293.88 583.89,-288.08 587.21,-298.14 592.76,-293.88"/>
</g>
<!-- Node11 -->
<g id="node11" class="node">
<title>Node11</title>
<g id="a_node11"><a xlink:href="classpism_1_1diagnostics_1_1scalar_1_1IceMassFluxBasalFloating.html" target="_top" xlink:title="Reports the total sub&#45;shelf ice flux.">
<polygon fill="none" stroke="black" points="705.5,-356 705.5,-386 884.5,-386 884.5,-356 705.5,-356"/>
<text text-anchor="start" x="713.5" y="-374" font-family="Helvetica,sans-Serif" font-size="10.00">pism::diagnostics::</text>
<text text-anchor="middle" x="795" y="-363" font-family="Helvetica,sans-Serif" font-size="10.00">scalar::IceMassFluxBasalFloating</text>
</a>
</g>
</g>
<!-- Node8&#45;&gt;Node11 -->
<g id="edge10" class="edge">
<title>Node8&#45;&gt;Node11</title>
<path fill="none" stroke="midnightblue" d="M602.61,-293.88C627.17,-310.35 663.51,-332.83 698,-347 706.18,-350.36 714.96,-353.34 723.76,-355.96"/>
<polygon fill="midnightblue" stroke="midnightblue" points="604.37,-290.84 594.13,-288.11 600.43,-296.63 604.37,-290.84"/>
</g>
<!-- Node12 -->
<g id="node12" class="node">
<title>Node12</title>
<g id="a_node12"><a xlink:href="classpism_1_1diagnostics_1_1scalar_1_1IceMassFluxBasalGrounded.html" target="_top" xlink:title="Reports the total basal ice flux over the grounded region.">
<polygon fill="none" stroke="black" points="701.5,-307 701.5,-337 888.5,-337 888.5,-307 701.5,-307"/>
<text text-anchor="start" x="709.5" y="-325" font-family="Helvetica,sans-Serif" font-size="10.00">pism::diagnostics::</text>
<text text-anchor="middle" x="795" y="-314" font-family="Helvetica,sans-Serif" font-size="10.00">scalar::IceMassFluxBasalGrounded</text>
</a>
</g>
</g>
<!-- Node8&#45;&gt;Node12 -->
<g id="edge11" class="edge">
<title>Node8&#45;&gt;Node12</title>
<path fill="none" stroke="midnightblue" d="M650.84,-290.26C675.46,-295.72 702.47,-301.71 726.32,-306.99"/>
<polygon fill="midnightblue" stroke="midnightblue" points="651.33,-286.78 640.81,-288.03 649.81,-293.62 651.33,-286.78"/>
</g>
<!-- Node13 -->
<g id="node13" class="node">
<title>Node13</title>
<g id="a_node13"><a xlink:href="classpism_1_1diagnostics_1_1scalar_1_1IceMassFluxCalving.html" target="_top" xlink:title="Reports the total calving flux.">
<polygon fill="none" stroke="black" points="720.5,-258 720.5,-288 869.5,-288 869.5,-258 720.5,-258"/>
<text text-anchor="start" x="728.5" y="-276" font-family="Helvetica,sans-Serif" font-size="10.00">pism::diagnostics::</text>
<text text-anchor="middle" x="795" y="-265" font-family="Helvetica,sans-Serif" font-size="10.00">scalar::IceMassFluxCalving</text>
</a>
</g>
</g>
<!-- Node8&#45;&gt;Node13 -->
<g id="edge12" class="edge">
<title>Node8&#45;&gt;Node13</title>
<path fill="none" stroke="midnightblue" d="M672.26,-273C688.43,-273 704.92,-273 720.33,-273"/>
<polygon fill="midnightblue" stroke="midnightblue" points="672.25,-269.5 662.25,-273 672.25,-276.5 672.25,-269.5"/>
</g>
<!-- Node14 -->
<g id="node14" class="node">
<title>Node14</title>
<g id="a_node14"><a xlink:href="classpism_1_1diagnostics_1_1scalar_1_1IceMassFluxConservationError.html" target="_top" xlink:title="Reports the total numerical mass flux needed to preserve non&#45;negativity of ice thickness.">
<polygon fill="none" stroke="black" points="706.5,-197.5 706.5,-238.5 883.5,-238.5 883.5,-197.5 706.5,-197.5"/>
<text text-anchor="start" x="714.5" y="-226.5" font-family="Helvetica,sans-Serif" font-size="10.00">pism::diagnostics::</text>
<text text-anchor="start" x="714.5" y="-215.5" font-family="Helvetica,sans-Serif" font-size="10.00">scalar::IceMassFluxConservation</text>
<text text-anchor="middle" x="795" y="-204.5" font-family="Helvetica,sans-Serif" font-size="10.00">Error</text>
</a>
</g>
</g>
<!-- Node8&#45;&gt;Node14 -->
<g id="edge13" class="edge">
<title>Node8&#45;&gt;Node14</title>
<path fill="none" stroke="midnightblue" d="M643.16,-255.54C664.82,-250.15 688.89,-244.16 711.31,-238.58"/>
<polygon fill="midnightblue" stroke="midnightblue" points="642.25,-252.16 633.39,-257.97 643.94,-258.95 642.25,-252.16"/>
</g>
<!-- Node15 -->
<g id="node15" class="node">
<title>Node15</title>
<g id="a_node15"><a xlink:href="classpism_1_1diagnostics_1_1scalar_1_1IceMassFluxDischarge.html" target="_top" xlink:title="Reports the total discharge flux.">
<polygon fill="none" stroke="black" points="714.5,-148 714.5,-178 875.5,-178 875.5,-148 714.5,-148"/>
<text text-anchor="start" x="722.5" y="-166" font-family="Helvetica,sans-Serif" font-size="10.00">pism::diagnostics::</text>
<text text-anchor="middle" x="795" y="-155" font-family="Helvetica,sans-Serif" font-size="10.00">scalar::IceMassFluxDischarge</text>
</a>
</g>
</g>
<!-- Node8&#45;&gt;Node15 -->
<g id="edge14" class="edge">
<title>Node8&#45;&gt;Node15</title>
<path fill="none" stroke="midnightblue" d="M598.84,-251.51C623.07,-232.34 661.02,-204.78 698,-188 706.39,-184.19 715.47,-180.88 724.58,-178.03"/>
<polygon fill="midnightblue" stroke="midnightblue" points="596.47,-248.92 590.86,-257.9 600.85,-254.38 596.47,-248.92"/>
</g>
<!-- Node16 -->
<g id="node16" class="node">
<title>Node16</title>
<g id="a_node16"><a xlink:href="classpism_1_1diagnostics_1_1scalar_1_1IceMassFluxSurface.html" target="_top" xlink:title="Reports the total top surface ice flux.">
<polygon fill="none" stroke="black" points="720.5,-99 720.5,-129 869.5,-129 869.5,-99 720.5,-99"/>
<text text-anchor="start" x="728.5" y="-117" font-family="Helvetica,sans-Serif" font-size="10.00">pism::diagnostics::</text>
<text text-anchor="middle" x="795" y="-106" font-family="Helvetica,sans-Serif" font-size="10.00">scalar::IceMassFluxSurface</text>
</a>
</g>
</g>
<!-- Node8&#45;&gt;Node16 -->
<g id="edge15" class="edge">
<title>Node8&#45;&gt;Node16</title>
<path fill="none" stroke="midnightblue" d="M588.27,-249.43C609.26,-218.95 649.96,-166.43 698,-138 704.95,-133.89 712.58,-130.48 720.41,-127.65"/>
<polygon fill="midnightblue" stroke="midnightblue" points="585.33,-247.52 582.64,-257.76 591.13,-251.44 585.33,-247.52"/>
</g>
<!-- Node17 -->
<g id="node17" class="node">
<title>Node17</title>
<g id="a_node17"><a xlink:href="classpism_1_1diagnostics_1_1scalar_1_1IceMassRateOfChangeDueToFlow.html" target="_top" xlink:title="Computes the rate of change of the total ice mass due to flow (influx due to prescribed constant&#45;in&#45;t...">
<polygon fill="none" stroke="black" points="714,-38.5 714,-79.5 876,-79.5 876,-38.5 714,-38.5"/>
<text text-anchor="start" x="722" y="-67.5" font-family="Helvetica,sans-Serif" font-size="10.00">pism::diagnostics::</text>
<text text-anchor="start" x="722" y="-56.5" font-family="Helvetica,sans-Serif" font-size="10.00">scalar::IceMassRateOfChange</text>
<text text-anchor="middle" x="795" y="-45.5" font-family="Helvetica,sans-Serif" font-size="10.00">DueToFlow</text>
</a>
</g>
</g>
<!-- Node8&#45;&gt;Node17 -->
<g id="edge16" class="edge">
<title>Node8&#45;&gt;Node17</title>
<path fill="none" stroke="midnightblue" d="M588.96,-249.29C622.23,-199.9 696.08,-90.43 698,-89 702.91,-85.36 708.27,-82.15 713.86,-79.33"/>
<polygon fill="midnightblue" stroke="midnightblue" points="585.93,-247.52 583.25,-257.77 591.74,-251.43 585.93,-247.52"/>
</g>
<!-- Node19 -->
<g id="node19" class="node">
<title>Node19</title>
<g id="a_node19"><a xlink:href="classpism_1_1energy_1_1LiquifiedIceFlux.html" target="_top" xlink:title="Ice loss &quot;flux&quot; due to ice liquefaction.">
<polygon fill="none" stroke="black" points="714,-0.5 714,-19.5 876,-19.5 876,-0.5 714,-0.5"/>
<text text-anchor="middle" x="795" y="-7.5" font-family="Helvetica,sans-Serif" font-size="10.00">pism::energy::LiquifiedIceFlux</text>
</a>
</g>
</g>
<!-- Node18&#45;&gt;Node19 -->
<g id="edge18" class="edge">
<title>Node18&#45;&gt;Node19</title>
<path fill="none" stroke="midnightblue" d="M597.24,-95.22C621.14,-74.94 659.59,-45.44 698,-29 707.06,-25.12 716.94,-22.03 726.81,-19.56"/>
<polygon fill="midnightblue" stroke="midnightblue" points="594.7,-92.79 589.41,-101.97 599.27,-98.09 594.7,-92.79"/>
</g>
</g>
</svg>
