<?xml version="1.0" encoding="UTF-8" standalone="no"?>
<!DOCTYPE svg PUBLIC "-//W3C//DTD SVG 1.1//EN"
 "http://www.w3.org/Graphics/SVG/1.1/DTD/svg11.dtd">
<!-- Generated by graphviz version 2.43.0 (0)
 -->
<!-- Title: pism::atmosphere::diagnostics::MeanSummerTemperature Pages: 1 -->
<svg width="226pt" height="220pt"
 viewBox="0.00 0.00 225.50 220.00" xmlns="http://www.w3.org/2000/svg" xmlns:xlink="http://www.w3.org/1999/xlink">
<g id="graph0" class="graph" transform="scale(1 1) rotate(0) translate(4 216)">
<title>pism::atmosphere::diagnostics::MeanSummerTemperature</title>
<!-- Node1 -->
<g id="node1" class="node">
<title>Node1</title>
<g id="a_node1"><a xlink:title="Mean summer near&#45;surface air temperature.">
<polygon fill="#bfbfbf" stroke="black" points="0,-0.5 0,-30.5 167,-30.5 167,-0.5 0,-0.5"/>
<text text-anchor="start" x="8" y="-18.5" font-family="Helvetica,sans-Serif" font-size="10.00">pism::atmosphere::diagnostics</text>
<text text-anchor="middle" x="83.5" y="-7.5" font-family="Helvetica,sans-Serif" font-size="10.00">::MeanSummerTemperature</text>
</a>
</g>
</g>
<!-- Node2 -->
<g id="node2" class="node">
<title>Node2</title>
<g id="a_node2"><a xlink:href="classpism_1_1Diag.html" target="_top" xlink:title=" ">
<polygon fill="none" stroke="black" points="9.5,-68.5 9.5,-87.5 157.5,-87.5 157.5,-68.5 9.5,-68.5"/>
<text text-anchor="middle" x="83.5" y="-75.5" font-family="Helvetica,sans-Serif" font-size="10.00">pism::Diag&lt; YearlyCycle &gt;</text>
</a>
</g>
</g>
<!-- Node2&#45;&gt;Node1 -->
<g id="edge1" class="edge">
<title>Node2&#45;&gt;Node1</title>
<path fill="none" stroke="midnightblue" d="M83.5,-58.22C83.5,-49.36 83.5,-38.96 83.5,-30.76"/>
<polygon fill="midnightblue" stroke="midnightblue" points="80,-58.33 83.5,-68.33 87,-58.33 80,-58.33"/>
</g>
<!-- Node3 -->
<g id="node3" class="node">
<title>Node3</title>
<g id="a_node3"><a xlink:href="classpism_1_1Diagnostic.html" target="_top" xlink:title="Class representing diagnostic computations in PISM.">
<polygon fill="none" stroke="black" points="30.5,-192.5 30.5,-211.5 128.5,-211.5 128.5,-192.5 30.5,-192.5"/>
<text text-anchor="middle" x="79.5" y="-199.5" font-family="Helvetica,sans-Serif" font-size="10.00">pism::Diagnostic</text>
</a>
</g>
</g>
<!-- Node3&#45;&gt;Node2 -->
<g id="edge2" class="edge">
<title>Node3&#45;&gt;Node2</title>
<path fill="none" stroke="midnightblue" d="M80.12,-182.19C81,-155.4 82.57,-107.31 83.21,-87.69"/>
<polygon fill="midnightblue" stroke="midnightblue" points="76.62,-182.12 79.79,-192.23 83.61,-182.35 76.62,-182.12"/>
</g>
<!-- Node4 -->
<g id="node4" class="node">
<title>Node4</title>
<g id="a_node4"><a xlink:href="classpism_1_1Diag.html" target="_top" xlink:title="A template derived from Diagnostic, adding a &quot;Model&quot;.">
<polygon fill="none" stroke="black" points="95.5,-135.5 95.5,-154.5 217.5,-154.5 217.5,-135.5 95.5,-135.5"/>
<text text-anchor="middle" x="156.5" y="-142.5" font-family="Helvetica,sans-Serif" font-size="10.00">pism::Diag&lt; Model &gt;</text>
</a>
</g>
</g>
<!-- Node3&#45;&gt;Node4 -->
<g id="edge4" class="edge">
<title>Node3&#45;&gt;Node4</title>
<path fill="none" stroke="midnightblue" d="M99.75,-186.54C114,-176.35 132.61,-163.07 144.55,-154.53"/>
<polygon fill="midnightblue" stroke="midnightblue" points="97.63,-183.75 91.53,-192.41 101.7,-189.44 97.63,-183.75"/>
</g>
<!-- Node4&#45;&gt;Node2 -->
<g id="edge3" class="edge">
<title>Node4&#45;&gt;Node2</title>
<path fill="none" stroke="orange" stroke-dasharray="5,2" d="M138.93,-128.36C124.58,-115.58 104.83,-97.99 93.19,-87.63"/>
<polygon fill="orange" stroke="orange" points="136.86,-131.2 146.65,-135.23 141.51,-125.97 136.86,-131.2"/>
<text text-anchor="middle" x="164.5" y="-109" font-family="Helvetica,sans-Serif" font-size="10.00"> &lt; YearlyCycle &gt;</text>
</g>
</g>
</svg>
