<?xml version="1.0" encoding="UTF-8" standalone="no"?>
<!DOCTYPE svg PUBLIC "-//W3C//DTD SVG 1.1//EN"
 "http://www.w3.org/Graphics/SVG/1.1/DTD/svg11.dtd">
<!-- Generated by graphviz version 2.43.0 (0)
 -->
<!-- Title: pism::frontalmelt::FrontalMelt Pages: 1 -->
<svg width="397pt" height="186pt"
 viewBox="0.00 0.00 397.00 186.00" xmlns="http://www.w3.org/2000/svg" xmlns:xlink="http://www.w3.org/1999/xlink">
<g id="graph0" class="graph" transform="scale(1 1) rotate(0) translate(4 182)">
<title>pism::frontalmelt::FrontalMelt</title>
<!-- Node1 -->
<g id="node1" class="node">
<title>Node1</title>
<g id="a_node1"><a xlink:title="A very rudimentary PISM frontal melt model.">
<polygon fill="#bfbfbf" stroke="black" points="139,-73.5 139,-103.5 246,-103.5 246,-73.5 139,-73.5"/>
<text text-anchor="start" x="147" y="-91.5" font-family="Helvetica,sans-Serif" font-size="10.00">pism::frontalmelt::</text>
<text text-anchor="middle" x="192.5" y="-80.5" font-family="Helvetica,sans-Serif" font-size="10.00">FrontalMelt</text>
</a>
</g>
</g>
<!-- Node3 -->
<g id="node3" class="node">
<title>Node3</title>
<g id="a_node3"><a xlink:href="classpism_1_1frontalmelt_1_1Constant.html" target="_top" xlink:title="A class implementing a constant (in terms of the ocean inputs) frontal melt model....">
<polygon fill="none" stroke="black" points="282,-147.5 282,-177.5 389,-177.5 389,-147.5 282,-147.5"/>
<text text-anchor="start" x="290" y="-165.5" font-family="Helvetica,sans-Serif" font-size="10.00">pism::frontalmelt::</text>
<text text-anchor="middle" x="335.5" y="-154.5" font-family="Helvetica,sans-Serif" font-size="10.00">Constant</text>
</a>
</g>
</g>
<!-- Node1&#45;&gt;Node3 -->
<g id="edge2" class="edge">
<title>Node1&#45;&gt;Node3</title>
<path fill="none" stroke="midnightblue" d="M227.41,-108.56C243.73,-117.98 263.69,-129.17 282,-138.5 287.89,-141.5 294.24,-144.56 300.41,-147.43"/>
<polygon fill="midnightblue" stroke="midnightblue" points="229.15,-105.52 218.75,-103.53 225.64,-111.57 229.15,-105.52"/>
</g>
<!-- Node4 -->
<g id="node4" class="node">
<title>Node4</title>
<g id="a_node4"><a xlink:href="classpism_1_1frontalmelt_1_1DischargeGiven.html" target="_top" xlink:title=" ">
<polygon fill="none" stroke="black" points="282,-98.5 282,-128.5 389,-128.5 389,-98.5 282,-98.5"/>
<text text-anchor="start" x="290" y="-116.5" font-family="Helvetica,sans-Serif" font-size="10.00">pism::frontalmelt::</text>
<text text-anchor="middle" x="335.5" y="-105.5" font-family="Helvetica,sans-Serif" font-size="10.00">DischargeGiven</text>
</a>
</g>
</g>
<!-- Node1&#45;&gt;Node4 -->
<g id="edge3" class="edge">
<title>Node1&#45;&gt;Node4</title>
<path fill="none" stroke="midnightblue" d="M256.05,-99.59C264.7,-101.12 273.51,-102.69 281.95,-104.18"/>
<polygon fill="midnightblue" stroke="midnightblue" points="256.46,-96.11 246,-97.81 255.24,-103 256.46,-96.11"/>
</g>
<!-- Node5 -->
<g id="node5" class="node">
<title>Node5</title>
<g id="a_node5"><a xlink:href="classpism_1_1frontalmelt_1_1DischargeRouting.html" target="_top" xlink:title=" ">
<polygon fill="none" stroke="black" points="282,-49.5 282,-79.5 389,-79.5 389,-49.5 282,-49.5"/>
<text text-anchor="start" x="290" y="-67.5" font-family="Helvetica,sans-Serif" font-size="10.00">pism::frontalmelt::</text>
<text text-anchor="middle" x="335.5" y="-56.5" font-family="Helvetica,sans-Serif" font-size="10.00">DischargeRouting</text>
</a>
</g>
</g>
<!-- Node1&#45;&gt;Node5 -->
<g id="edge4" class="edge">
<title>Node1&#45;&gt;Node5</title>
<path fill="none" stroke="midnightblue" d="M256.05,-77.85C264.7,-76.38 273.51,-74.88 281.95,-73.44"/>
<polygon fill="midnightblue" stroke="midnightblue" points="255.27,-74.43 246,-79.56 256.45,-81.34 255.27,-74.43"/>
</g>
<!-- Node6 -->
<g id="node6" class="node">
<title>Node6</title>
<g id="a_node6"><a xlink:href="classpism_1_1frontalmelt_1_1Given.html" target="_top" xlink:title=" ">
<polygon fill="none" stroke="black" points="282,-0.5 282,-30.5 389,-30.5 389,-0.5 282,-0.5"/>
<text text-anchor="start" x="290" y="-18.5" font-family="Helvetica,sans-Serif" font-size="10.00">pism::frontalmelt::</text>
<text text-anchor="middle" x="335.5" y="-7.5" font-family="Helvetica,sans-Serif" font-size="10.00">Given</text>
</a>
</g>
</g>
<!-- Node1&#45;&gt;Node6 -->
<g id="edge5" class="edge">
<title>Node1&#45;&gt;Node6</title>
<path fill="none" stroke="midnightblue" d="M228.61,-68.25C244.73,-59.16 264.17,-48.49 282,-39.5 287.91,-36.52 294.26,-33.48 300.43,-30.61"/>
<polygon fill="midnightblue" stroke="midnightblue" points="226.52,-65.41 219.55,-73.39 229.98,-71.5 226.52,-65.41"/>
</g>
<!-- Node2 -->
<g id="node2" class="node">
<title>Node2</title>
<g id="a_node2"><a xlink:href="classpism_1_1Component.html" target="_top" xlink:title="A class defining a common interface for most PISM sub&#45;models.">
<polygon fill="none" stroke="black" points="0,-79 0,-98 103,-98 103,-79 0,-79"/>
<text text-anchor="middle" x="51.5" y="-86" font-family="Helvetica,sans-Serif" font-size="10.00">pism::Component</text>
</a>
</g>
</g>
<!-- Node2&#45;&gt;Node1 -->
<g id="edge1" class="edge">
<title>Node2&#45;&gt;Node1</title>
<path fill="none" stroke="midnightblue" d="M113.33,-88.5C121.84,-88.5 130.52,-88.5 138.86,-88.5"/>
<polygon fill="midnightblue" stroke="midnightblue" points="113.08,-85 103.08,-88.5 113.08,-92 113.08,-85"/>
</g>
</g>
</svg>
