<?xml version="1.0" encoding="UTF-8" standalone="no"?>
<!DOCTYPE svg PUBLIC "-//W3C//DTD SVG 1.1//EN"
 "http://www.w3.org/Graphics/SVG/1.1/DTD/svg11.dtd">
<!-- Generated by graphviz version 2.43.0 (0)
 -->
<!-- Title: pism::TSDiag&lt; D, M &gt; Pages: 1 -->
<svg width="776pt" height="2029pt"
 viewBox="0.00 0.00 776.00 2028.50" xmlns="http://www.w3.org/2000/svg" xmlns:xlink="http://www.w3.org/1999/xlink">
<g id="graph0" class="graph" transform="scale(1 1) rotate(0) translate(4 2024.5)">
<title>pism::TSDiag&lt; D, M &gt;</title>
<!-- Node1 -->
<g id="node1" class="node">
<title>Node1</title>
<g id="a_node1"><a xlink:title=" ">
<polygon fill="#bfbfbf" stroke="black" points="66,-1389.5 66,-1408.5 192,-1408.5 192,-1389.5 66,-1389.5"/>
<text text-anchor="middle" x="129" y="-1396.5" font-family="Helvetica,sans-Serif" font-size="10.00">pism::TSDiag&lt; D, M &gt;</text>
</a>
</g>
</g>
<!-- Node3 -->
<g id="node3" class="node">
<title>Node3</title>
<g id="a_node3"><a xlink:href="classpism_1_1TSDiag.html" target="_top" xlink:title=" ">
<polygon fill="none" stroke="black" points="356,-1916 356,-1946 536,-1946 536,-1916 356,-1916"/>
<text text-anchor="start" x="364" y="-1934" font-family="Helvetica,sans-Serif" font-size="10.00">pism::TSDiag&lt; TSFluxDiagnostic,</text>
<text text-anchor="middle" x="446" y="-1923" font-family="Helvetica,sans-Serif" font-size="10.00"> TemperatureIndex &gt;</text>
</a>
</g>
</g>
<!-- Node1&#45;&gt;Node3 -->
<g id="edge2" class="edge">
<title>Node1&#45;&gt;Node3</title>
<path fill="none" stroke="orange" stroke-dasharray="5,2" d="M137.3,-1417.89C150.33,-1450.94 179.13,-1521.06 210,-1577 285.73,-1714.25 397.66,-1867.56 433.51,-1915.7"/>
<polygon fill="orange" stroke="orange" points="140.54,-1416.57 133.64,-1408.53 134.02,-1419.12 140.54,-1416.57"/>
<text text-anchor="start" x="222" y="-1787" font-family="Helvetica,sans-Serif" font-size="10.00"> &lt; TSFluxDiagnostic,</text>
<text text-anchor="middle" x="273.5" y="-1776" font-family="Helvetica,sans-Serif" font-size="10.00"> TemperatureIndex &gt;</text>
</g>
<!-- Node7 -->
<g id="node7" class="node">
<title>Node7</title>
<g id="a_node7"><a xlink:href="classpism_1_1TSDiag.html" target="_top" xlink:title=" ">
<polygon fill="none" stroke="black" points="356,-1619 356,-1649 536,-1649 536,-1619 356,-1619"/>
<text text-anchor="start" x="364" y="-1637" font-family="Helvetica,sans-Serif" font-size="10.00">pism::TSDiag&lt; TSFluxDiagnostic,</text>
<text text-anchor="middle" x="446" y="-1626" font-family="Helvetica,sans-Serif" font-size="10.00"> IceModel &gt;</text>
</a>
</g>
</g>
<!-- Node1&#45;&gt;Node7 -->
<g id="edge6" class="edge">
<title>Node1&#45;&gt;Node7</title>
<path fill="none" stroke="orange" stroke-dasharray="5,2" d="M151.08,-1414.72C208.67,-1457.69 368.18,-1576.69 424.77,-1618.91"/>
<polygon fill="orange" stroke="orange" points="152.85,-1411.68 142.74,-1408.5 148.66,-1417.29 152.85,-1411.68"/>
<text text-anchor="start" x="222" y="-1565" font-family="Helvetica,sans-Serif" font-size="10.00"> &lt; TSFluxDiagnostic,</text>
<text text-anchor="middle" x="273.5" y="-1554" font-family="Helvetica,sans-Serif" font-size="10.00"> IceModel &gt;</text>
</g>
<!-- Node17 -->
<g id="node17" class="node">
<title>Node17</title>
<g id="a_node17"><a xlink:href="classpism_1_1TSDiag.html" target="_top" xlink:title=" ">
<polygon fill="none" stroke="black" points="356,-1384 356,-1414 536,-1414 536,-1384 356,-1384"/>
<text text-anchor="start" x="364" y="-1402" font-family="Helvetica,sans-Serif" font-size="10.00">pism::TSDiag&lt; TSFluxDiagnostic,</text>
<text text-anchor="middle" x="446" y="-1391" font-family="Helvetica,sans-Serif" font-size="10.00"> EnergyModel &gt;</text>
</a>
</g>
</g>
<!-- Node1&#45;&gt;Node17 -->
<g id="edge16" class="edge">
<title>Node1&#45;&gt;Node17</title>
<path fill="none" stroke="orange" stroke-dasharray="5,2" d="M202.34,-1399C247.97,-1399 307.22,-1399 355.76,-1399"/>
<polygon fill="orange" stroke="orange" points="202.23,-1395.5 192.23,-1399 202.23,-1402.5 202.23,-1395.5"/>
<text text-anchor="start" x="222" y="-1413" font-family="Helvetica,sans-Serif" font-size="10.00"> &lt; TSFluxDiagnostic,</text>
<text text-anchor="middle" x="273.5" y="-1402" font-family="Helvetica,sans-Serif" font-size="10.00"> EnergyModel &gt;</text>
</g>
<!-- Node19 -->
<g id="node19" class="node">
<title>Node19</title>
<g id="a_node19"><a xlink:href="classpism_1_1TSDiag.html" target="_top" xlink:title=" ">
<polygon fill="none" stroke="black" points="371.5,-793 371.5,-823 520.5,-823 520.5,-793 371.5,-793"/>
<text text-anchor="start" x="379.5" y="-811" font-family="Helvetica,sans-Serif" font-size="10.00">pism::TSDiag&lt; TSSnapshot</text>
<text text-anchor="middle" x="446" y="-800" font-family="Helvetica,sans-Serif" font-size="10.00">Diagnostic, IceModel &gt;</text>
</a>
</g>
</g>
<!-- Node1&#45;&gt;Node19 -->
<g id="edge18" class="edge">
<title>Node1&#45;&gt;Node19</title>
<path fill="none" stroke="orange" stroke-dasharray="5,2" d="M140.03,-1380.18C188,-1290.18 393.46,-904.7 436.91,-823.18"/>
<polygon fill="orange" stroke="orange" points="136.82,-1378.76 135.2,-1389.24 143,-1382.06 136.82,-1378.76"/>
<text text-anchor="start" x="210" y="-1255" font-family="Helvetica,sans-Serif" font-size="10.00"> &lt; TSSnapshotDiagnostic,</text>
<text text-anchor="middle" x="273.5" y="-1244" font-family="Helvetica,sans-Serif" font-size="10.00"> IceModel &gt;</text>
</g>
<!-- Node42 -->
<g id="node42" class="node">
<title>Node42</title>
<g id="a_node42"><a xlink:href="classpism_1_1TSDiag.html" target="_top" xlink:title=" ">
<polygon fill="none" stroke="black" points="355,-116 355,-146 537,-146 537,-116 355,-116"/>
<text text-anchor="start" x="363" y="-134" font-family="Helvetica,sans-Serif" font-size="10.00">pism::TSDiag&lt; TSRateDiagnostic,</text>
<text text-anchor="middle" x="446" y="-123" font-family="Helvetica,sans-Serif" font-size="10.00"> IceModel &gt;</text>
</a>
</g>
</g>
<!-- Node1&#45;&gt;Node42 -->
<g id="edge41" class="edge">
<title>Node1&#45;&gt;Node42</title>
<path fill="none" stroke="orange" stroke-dasharray="5,2" d="M133.33,-1379.3C143.46,-1320.19 175.26,-1139.24 210,-991 290.87,-645.9 415.1,-230.05 440.41,-146.16"/>
<polygon fill="orange" stroke="orange" points="129.83,-1379.01 131.61,-1389.46 136.73,-1380.19 129.83,-1379.01"/>
<text text-anchor="start" x="221.5" y="-1005" font-family="Helvetica,sans-Serif" font-size="10.00"> &lt; TSRateDiagnostic,</text>
<text text-anchor="middle" x="273.5" y="-994" font-family="Helvetica,sans-Serif" font-size="10.00"> IceModel &gt;</text>
</g>
<!-- Node2 -->
<g id="node2" class="node">
<title>Node2</title>
<g id="a_node2"><a xlink:href="classD.html" target="_top" xlink:title=" ">
<polygon fill="none" stroke="black" points="0,-1389.5 0,-1408.5 29,-1408.5 29,-1389.5 0,-1389.5"/>
<text text-anchor="middle" x="14.5" y="-1396.5" font-family="Helvetica,sans-Serif" font-size="10.00">D</text>
</a>
</g>
</g>
<!-- Node2&#45;&gt;Node1 -->
<g id="edge1" class="edge">
<title>Node2&#45;&gt;Node1</title>
<path fill="none" stroke="midnightblue" d="M39.44,-1399C47.29,-1399 56.41,-1399 65.76,-1399"/>
<polygon fill="midnightblue" stroke="midnightblue" points="39.29,-1395.5 29.29,-1399 39.29,-1402.5 39.29,-1395.5"/>
</g>
<!-- Node4 -->
<g id="node4" class="node">
<title>Node4</title>
<g id="a_node4"><a xlink:href="classpism_1_1surface_1_1diagnostics_1_1TotalSurfaceAccumulation.html" target="_top" xlink:title="Reports the total accumulation rate.">
<polygon fill="none" stroke="black" points="596.5,-1990 596.5,-2020 745.5,-2020 745.5,-1990 596.5,-1990"/>
<text text-anchor="start" x="604.5" y="-2008" font-family="Helvetica,sans-Serif" font-size="10.00">pism::surface::diagnostics</text>
<text text-anchor="middle" x="671" y="-1997" font-family="Helvetica,sans-Serif" font-size="10.00">::TotalSurfaceAccumulation</text>
</a>
</g>
</g>
<!-- Node3&#45;&gt;Node4 -->
<g id="edge3" class="edge">
<title>Node3&#45;&gt;Node4</title>
<path fill="none" stroke="midnightblue" d="M490.88,-1949.91C515.11,-1959.93 545.91,-1972 574,-1981 583.9,-1984.17 594.48,-1987.18 604.87,-1989.94"/>
<polygon fill="midnightblue" stroke="midnightblue" points="492.17,-1946.65 481.6,-1946.03 489.48,-1953.11 492.17,-1946.65"/>
</g>
<!-- Node5 -->
<g id="node5" class="node">
<title>Node5</title>
<g id="a_node5"><a xlink:href="classpism_1_1surface_1_1diagnostics_1_1TotalSurfaceMelt.html" target="_top" xlink:title="Reports the total melt rate.">
<polygon fill="none" stroke="black" points="599,-1941 599,-1971 743,-1971 743,-1941 599,-1941"/>
<text text-anchor="start" x="607" y="-1959" font-family="Helvetica,sans-Serif" font-size="10.00">pism::surface::diagnostics</text>
<text text-anchor="middle" x="671" y="-1948" font-family="Helvetica,sans-Serif" font-size="10.00">::TotalSurfaceMelt</text>
</a>
</g>
</g>
<!-- Node3&#45;&gt;Node5 -->
<g id="edge4" class="edge">
<title>Node3&#45;&gt;Node5</title>
<path fill="none" stroke="midnightblue" d="M546.44,-1942.15C564.11,-1944.13 582.2,-1946.16 598.88,-1948.03"/>
<polygon fill="midnightblue" stroke="midnightblue" points="546.42,-1938.62 536.1,-1940.99 545.64,-1945.58 546.42,-1938.62"/>
</g>
<!-- Node6 -->
<g id="node6" class="node">
<title>Node6</title>
<g id="a_node6"><a xlink:href="classpism_1_1surface_1_1diagnostics_1_1TotalSurfaceRunoff.html" target="_top" xlink:title="Reports the total top surface ice flux.">
<polygon fill="none" stroke="black" points="599,-1892 599,-1922 743,-1922 743,-1892 599,-1892"/>
<text text-anchor="start" x="607" y="-1910" font-family="Helvetica,sans-Serif" font-size="10.00">pism::surface::diagnostics</text>
<text text-anchor="middle" x="671" y="-1899" font-family="Helvetica,sans-Serif" font-size="10.00">::TotalSurfaceRunoff</text>
</a>
</g>
</g>
<!-- Node3&#45;&gt;Node6 -->
<g id="edge5" class="edge">
<title>Node3&#45;&gt;Node6</title>
<path fill="none" stroke="midnightblue" d="M546.44,-1920.3C564.11,-1918.4 582.2,-1916.45 598.88,-1914.65"/>
<polygon fill="midnightblue" stroke="midnightblue" points="545.66,-1916.86 536.1,-1921.41 546.41,-1923.82 545.66,-1916.86"/>
</g>
<!-- Node8 -->
<g id="node8" class="node">
<title>Node8</title>
<g id="a_node8"><a xlink:href="classpism_1_1diagnostics_1_1scalar_1_1IceMassFluxAtGroundingLine.html" target="_top" xlink:title="Reports the total flux across the grounding line.">
<polygon fill="none" stroke="black" points="574,-1843 574,-1873 768,-1873 768,-1843 574,-1843"/>
<text text-anchor="start" x="582" y="-1861" font-family="Helvetica,sans-Serif" font-size="10.00">pism::diagnostics::</text>
<text text-anchor="middle" x="671" y="-1850" font-family="Helvetica,sans-Serif" font-size="10.00">scalar::IceMassFluxAtGroundingLine</text>
</a>
</g>
</g>
<!-- Node7&#45;&gt;Node8 -->
<g id="edge7" class="edge">
<title>Node7&#45;&gt;Node8</title>
<path fill="none" stroke="midnightblue" d="M455.61,-1658.63C471.81,-1701.25 510.98,-1788.53 574,-1834 578.74,-1837.42 583.91,-1840.35 589.32,-1842.87"/>
<polygon fill="midnightblue" stroke="midnightblue" points="458.82,-1657.22 452.07,-1649.05 452.25,-1659.64 458.82,-1657.22"/>
</g>
<!-- Node9 -->
<g id="node9" class="node">
<title>Node9</title>
<g id="a_node9"><a xlink:href="classpism_1_1diagnostics_1_1scalar_1_1IceMassFluxBasal.html" target="_top" xlink:title="Reports the total bottom surface ice flux.">
<polygon fill="none" stroke="black" points="601,-1794 601,-1824 741,-1824 741,-1794 601,-1794"/>
<text text-anchor="start" x="609" y="-1812" font-family="Helvetica,sans-Serif" font-size="10.00">pism::diagnostics::</text>
<text text-anchor="middle" x="671" y="-1801" font-family="Helvetica,sans-Serif" font-size="10.00">scalar::IceMassFluxBasal</text>
</a>
</g>
</g>
<!-- Node7&#45;&gt;Node9 -->
<g id="edge8" class="edge">
<title>Node7&#45;&gt;Node9</title>
<path fill="none" stroke="midnightblue" d="M460.39,-1657.86C480.55,-1691.53 521.95,-1752.49 574,-1785 582.23,-1790.14 591.51,-1794.18 600.96,-1797.36"/>
<polygon fill="midnightblue" stroke="midnightblue" points="463.35,-1655.99 455.27,-1649.14 457.31,-1659.53 463.35,-1655.99"/>
</g>
<!-- Node10 -->
<g id="node10" class="node">
<title>Node10</title>
<g id="a_node10"><a xlink:href="classpism_1_1diagnostics_1_1scalar_1_1IceMassFluxBasalFloating.html" target="_top" xlink:title="Reports the total sub&#45;shelf ice flux.">
<polygon fill="none" stroke="black" points="581.5,-1745 581.5,-1775 760.5,-1775 760.5,-1745 581.5,-1745"/>
<text text-anchor="start" x="589.5" y="-1763" font-family="Helvetica,sans-Serif" font-size="10.00">pism::diagnostics::</text>
<text text-anchor="middle" x="671" y="-1752" font-family="Helvetica,sans-Serif" font-size="10.00">scalar::IceMassFluxBasalFloating</text>
</a>
</g>
</g>
<!-- Node7&#45;&gt;Node10 -->
<g id="edge9" class="edge">
<title>Node7&#45;&gt;Node10</title>
<path fill="none" stroke="midnightblue" d="M468.62,-1656.35C492.36,-1679.61 532.63,-1715.46 574,-1736 580.92,-1739.44 588.38,-1742.41 595.97,-1744.97"/>
<polygon fill="midnightblue" stroke="midnightblue" points="471.07,-1653.85 461.51,-1649.27 466.13,-1658.81 471.07,-1653.85"/>
</g>
<!-- Node11 -->
<g id="node11" class="node">
<title>Node11</title>
<g id="a_node11"><a xlink:href="classpism_1_1diagnostics_1_1scalar_1_1IceMassFluxBasalGrounded.html" target="_top" xlink:title="Reports the total basal ice flux over the grounded region.">
<polygon fill="none" stroke="black" points="577.5,-1696 577.5,-1726 764.5,-1726 764.5,-1696 577.5,-1696"/>
<text text-anchor="start" x="585.5" y="-1714" font-family="Helvetica,sans-Serif" font-size="10.00">pism::diagnostics::</text>
<text text-anchor="middle" x="671" y="-1703" font-family="Helvetica,sans-Serif" font-size="10.00">scalar::IceMassFluxBasalGrounded</text>
</a>
</g>
</g>
<!-- Node7&#45;&gt;Node11 -->
<g id="edge10" class="edge">
<title>Node7&#45;&gt;Node11</title>
<path fill="none" stroke="midnightblue" d="M488.73,-1653.28C513.22,-1664.12 544.97,-1677.37 574,-1687 583.7,-1690.22 594.08,-1693.24 604.3,-1695.97"/>
<polygon fill="midnightblue" stroke="midnightblue" points="489.94,-1649.99 479.38,-1649.1 487.08,-1656.38 489.94,-1649.99"/>
</g>
<!-- Node12 -->
<g id="node12" class="node">
<title>Node12</title>
<g id="a_node12"><a xlink:href="classpism_1_1diagnostics_1_1scalar_1_1IceMassFluxCalving.html" target="_top" xlink:title="Reports the total calving flux.">
<polygon fill="none" stroke="black" points="596.5,-1647 596.5,-1677 745.5,-1677 745.5,-1647 596.5,-1647"/>
<text text-anchor="start" x="604.5" y="-1665" font-family="Helvetica,sans-Serif" font-size="10.00">pism::diagnostics::</text>
<text text-anchor="middle" x="671" y="-1654" font-family="Helvetica,sans-Serif" font-size="10.00">scalar::IceMassFluxCalving</text>
</a>
</g>
</g>
<!-- Node7&#45;&gt;Node12 -->
<g id="edge11" class="edge">
<title>Node7&#45;&gt;Node12</title>
<path fill="none" stroke="midnightblue" d="M546.49,-1646.49C563.29,-1648.6 580.45,-1650.76 596.44,-1652.76"/>
<polygon fill="midnightblue" stroke="midnightblue" points="546.46,-1642.96 536.1,-1645.19 545.58,-1649.91 546.46,-1642.96"/>
</g>
<!-- Node13 -->
<g id="node13" class="node">
<title>Node13</title>
<g id="a_node13"><a xlink:href="classpism_1_1diagnostics_1_1scalar_1_1IceMassFluxConservationError.html" target="_top" xlink:title="Reports the total numerical mass flux needed to preserve non&#45;negativity of ice thickness.">
<polygon fill="none" stroke="black" points="582.5,-1586.5 582.5,-1627.5 759.5,-1627.5 759.5,-1586.5 582.5,-1586.5"/>
<text text-anchor="start" x="590.5" y="-1615.5" font-family="Helvetica,sans-Serif" font-size="10.00">pism::diagnostics::</text>
<text text-anchor="start" x="590.5" y="-1604.5" font-family="Helvetica,sans-Serif" font-size="10.00">scalar::IceMassFluxConservation</text>
<text text-anchor="middle" x="671" y="-1593.5" font-family="Helvetica,sans-Serif" font-size="10.00">Error</text>
</a>
</g>
</g>
<!-- Node7&#45;&gt;Node13 -->
<g id="edge12" class="edge">
<title>Node7&#45;&gt;Node13</title>
<path fill="none" stroke="midnightblue" d="M546.2,-1621.99C558.3,-1620.52 570.59,-1619.04 582.5,-1617.59"/>
<polygon fill="midnightblue" stroke="midnightblue" points="545.6,-1618.54 536.1,-1623.21 546.45,-1625.49 545.6,-1618.54"/>
</g>
<!-- Node14 -->
<g id="node14" class="node">
<title>Node14</title>
<g id="a_node14"><a xlink:href="classpism_1_1diagnostics_1_1scalar_1_1IceMassFluxDischarge.html" target="_top" xlink:title="Reports the total discharge flux.">
<polygon fill="none" stroke="black" points="590.5,-1537 590.5,-1567 751.5,-1567 751.5,-1537 590.5,-1537"/>
<text text-anchor="start" x="598.5" y="-1555" font-family="Helvetica,sans-Serif" font-size="10.00">pism::diagnostics::</text>
<text text-anchor="middle" x="671" y="-1544" font-family="Helvetica,sans-Serif" font-size="10.00">scalar::IceMassFluxDischarge</text>
</a>
</g>
</g>
<!-- Node7&#45;&gt;Node14 -->
<g id="edge13" class="edge">
<title>Node7&#45;&gt;Node14</title>
<path fill="none" stroke="midnightblue" d="M485.78,-1614.56C510.58,-1602.64 543.68,-1587.67 574,-1577 584.24,-1573.4 595.25,-1570.06 606.03,-1567.06"/>
<polygon fill="midnightblue" stroke="midnightblue" points="484.17,-1611.45 476.7,-1618.96 487.23,-1617.75 484.17,-1611.45"/>
</g>
<!-- Node15 -->
<g id="node15" class="node">
<title>Node15</title>
<g id="a_node15"><a xlink:href="classpism_1_1diagnostics_1_1scalar_1_1IceMassFluxSurface.html" target="_top" xlink:title="Reports the total top surface ice flux.">
<polygon fill="none" stroke="black" points="596.5,-1488 596.5,-1518 745.5,-1518 745.5,-1488 596.5,-1488"/>
<text text-anchor="start" x="604.5" y="-1506" font-family="Helvetica,sans-Serif" font-size="10.00">pism::diagnostics::</text>
<text text-anchor="middle" x="671" y="-1495" font-family="Helvetica,sans-Serif" font-size="10.00">scalar::IceMassFluxSurface</text>
</a>
</g>
</g>
<!-- Node7&#45;&gt;Node15 -->
<g id="edge14" class="edge">
<title>Node7&#45;&gt;Node15</title>
<path fill="none" stroke="midnightblue" d="M467.71,-1611.61C491.22,-1587.51 531.83,-1549.69 574,-1528 581.5,-1524.14 589.65,-1520.84 597.92,-1518.03"/>
<polygon fill="midnightblue" stroke="midnightblue" points="465.09,-1609.28 460.69,-1618.92 470.14,-1614.13 465.09,-1609.28"/>
</g>
<!-- Node16 -->
<g id="node16" class="node">
<title>Node16</title>
<g id="a_node16"><a xlink:href="classpism_1_1diagnostics_1_1scalar_1_1IceMassRateOfChangeDueToFlow.html" target="_top" xlink:title="Computes the rate of change of the total ice mass due to flow (influx due to prescribed constant&#45;in&#45;t...">
<polygon fill="none" stroke="black" points="590,-1427.5 590,-1468.5 752,-1468.5 752,-1427.5 590,-1427.5"/>
<text text-anchor="start" x="598" y="-1456.5" font-family="Helvetica,sans-Serif" font-size="10.00">pism::diagnostics::</text>
<text text-anchor="start" x="598" y="-1445.5" font-family="Helvetica,sans-Serif" font-size="10.00">scalar::IceMassRateOfChange</text>
<text text-anchor="middle" x="671" y="-1434.5" font-family="Helvetica,sans-Serif" font-size="10.00">DueToFlow</text>
</a>
</g>
</g>
<!-- Node7&#45;&gt;Node16 -->
<g id="edge15" class="edge">
<title>Node7&#45;&gt;Node16</title>
<path fill="none" stroke="midnightblue" d="M460.54,-1609.98C480.88,-1575.99 522.5,-1514.11 574,-1479 579.79,-1475.05 586.11,-1471.58 592.66,-1468.54"/>
<polygon fill="midnightblue" stroke="midnightblue" points="457.42,-1608.38 455.37,-1618.78 463.45,-1611.92 457.42,-1608.38"/>
</g>
<!-- Node18 -->
<g id="node18" class="node">
<title>Node18</title>
<g id="a_node18"><a xlink:href="classpism_1_1energy_1_1LiquifiedIceFlux.html" target="_top" xlink:title="Ice loss &quot;flux&quot; due to ice liquefaction.">
<polygon fill="none" stroke="black" points="590,-1389.5 590,-1408.5 752,-1408.5 752,-1389.5 590,-1389.5"/>
<text text-anchor="middle" x="671" y="-1396.5" font-family="Helvetica,sans-Serif" font-size="10.00">pism::energy::LiquifiedIceFlux</text>
</a>
</g>
</g>
<!-- Node17&#45;&gt;Node18 -->
<g id="edge17" class="edge">
<title>Node17&#45;&gt;Node18</title>
<path fill="none" stroke="midnightblue" d="M546.13,-1399C560.71,-1399 575.57,-1399 589.7,-1399"/>
<polygon fill="midnightblue" stroke="midnightblue" points="546.1,-1395.5 536.1,-1399 546.1,-1402.5 546.1,-1395.5"/>
</g>
<!-- Node20 -->
<g id="node20" class="node">
<title>Node20</title>
<g id="a_node20"><a xlink:href="classpism_1_1diagnostics_1_1scalar_1_1IceAreaGlacierized.html" target="_top" xlink:title="Computes the total ice area.">
<polygon fill="none" stroke="black" points="599.5,-1340 599.5,-1370 742.5,-1370 742.5,-1340 599.5,-1340"/>
<text text-anchor="start" x="607.5" y="-1358" font-family="Helvetica,sans-Serif" font-size="10.00">pism::diagnostics::</text>
<text text-anchor="middle" x="671" y="-1347" font-family="Helvetica,sans-Serif" font-size="10.00">scalar::IceAreaGlacierized</text>
</a>
</g>
</g>
<!-- Node19&#45;&gt;Node20 -->
<g id="edge19" class="edge">
<title>Node19&#45;&gt;Node20</title>
<path fill="none" stroke="midnightblue" d="M449.67,-833.26C460.18,-927.68 501.6,-1258.08 574,-1330 581.09,-1337.04 589.89,-1342.17 599.27,-1345.9"/>
<polygon fill="midnightblue" stroke="midnightblue" points="453.14,-832.75 448.57,-823.19 446.18,-833.51 453.14,-832.75"/>
</g>
<!-- Node21 -->
<g id="node21" class="node">
<title>Node21</title>
<g id="a_node21"><a xlink:href="classpism_1_1diagnostics_1_1scalar_1_1IceAreaGlacierizedColdBase.html" target="_top" xlink:title="Computes the total area of the cold ice.">
<polygon fill="none" stroke="black" points="599.5,-1279.5 599.5,-1320.5 742.5,-1320.5 742.5,-1279.5 599.5,-1279.5"/>
<text text-anchor="start" x="607.5" y="-1308.5" font-family="Helvetica,sans-Serif" font-size="10.00">pism::diagnostics::</text>
<text text-anchor="start" x="607.5" y="-1297.5" font-family="Helvetica,sans-Serif" font-size="10.00">scalar::IceAreaGlacierized</text>
<text text-anchor="middle" x="671" y="-1286.5" font-family="Helvetica,sans-Serif" font-size="10.00">ColdBase</text>
</a>
</g>
</g>
<!-- Node19&#45;&gt;Node21 -->
<g id="edge20" class="edge">
<title>Node19&#45;&gt;Node21</title>
<path fill="none" stroke="midnightblue" d="M450.69,-833.3C463.85,-920.36 511.12,-1205.69 574,-1270 581.08,-1277.24 589.88,-1282.74 599.26,-1286.92"/>
<polygon fill="midnightblue" stroke="midnightblue" points="454.12,-832.63 449.19,-823.26 447.2,-833.66 454.12,-832.63"/>
</g>
<!-- Node22 -->
<g id="node22" class="node">
<title>Node22</title>
<g id="a_node22"><a xlink:href="classpism_1_1diagnostics_1_1scalar_1_1IceAreaGlacierizedGrounded.html" target="_top" xlink:title="Computes the total grounded ice area.">
<polygon fill="none" stroke="black" points="599.5,-1219.5 599.5,-1260.5 742.5,-1260.5 742.5,-1219.5 599.5,-1219.5"/>
<text text-anchor="start" x="607.5" y="-1248.5" font-family="Helvetica,sans-Serif" font-size="10.00">pism::diagnostics::</text>
<text text-anchor="start" x="607.5" y="-1237.5" font-family="Helvetica,sans-Serif" font-size="10.00">scalar::IceAreaGlacierized</text>
<text text-anchor="middle" x="671" y="-1226.5" font-family="Helvetica,sans-Serif" font-size="10.00">Grounded</text>
</a>
</g>
</g>
<!-- Node19&#45;&gt;Node22 -->
<g id="edge21" class="edge">
<title>Node19&#45;&gt;Node22</title>
<path fill="none" stroke="midnightblue" d="M447.34,-833.4C449.67,-903.64 466,-1102.34 574,-1210 581.17,-1217.15 590.02,-1222.6 599.42,-1226.75"/>
<polygon fill="midnightblue" stroke="midnightblue" points="450.83,-833.17 447.07,-823.27 443.83,-833.36 450.83,-833.17"/>
</g>
<!-- Node23 -->
<g id="node23" class="node">
<title>Node23</title>
<g id="a_node23"><a xlink:href="classpism_1_1diagnostics_1_1scalar_1_1IceAreaGlacierizedShelf.html" target="_top" xlink:title="Computes the total floating ice area.">
<polygon fill="none" stroke="black" points="599.5,-1159.5 599.5,-1200.5 742.5,-1200.5 742.5,-1159.5 599.5,-1159.5"/>
<text text-anchor="start" x="607.5" y="-1188.5" font-family="Helvetica,sans-Serif" font-size="10.00">pism::diagnostics::</text>
<text text-anchor="start" x="607.5" y="-1177.5" font-family="Helvetica,sans-Serif" font-size="10.00">scalar::IceAreaGlacierized</text>
<text text-anchor="middle" x="671" y="-1166.5" font-family="Helvetica,sans-Serif" font-size="10.00">Shelf</text>
</a>
</g>
</g>
<!-- Node19&#45;&gt;Node23 -->
<g id="edge22" class="edge">
<title>Node19&#45;&gt;Node23</title>
<path fill="none" stroke="midnightblue" d="M448.97,-833.37C455.21,-896.32 480.15,-1060.97 574,-1150 581.22,-1156.85 589.99,-1162.14 599.25,-1166.22"/>
<polygon fill="midnightblue" stroke="midnightblue" points="452.43,-832.81 448.03,-823.17 445.46,-833.45 452.43,-832.81"/>
</g>
<!-- Node24 -->
<g id="node24" class="node">
<title>Node24</title>
<g id="a_node24"><a xlink:href="classpism_1_1diagnostics_1_1scalar_1_1IceAreaGlacierizedTemperateBase.html" target="_top" xlink:title="Computes the total area of the temperate ice.">
<polygon fill="none" stroke="black" points="599.5,-1099.5 599.5,-1140.5 742.5,-1140.5 742.5,-1099.5 599.5,-1099.5"/>
<text text-anchor="start" x="607.5" y="-1128.5" font-family="Helvetica,sans-Serif" font-size="10.00">pism::diagnostics::</text>
<text text-anchor="start" x="607.5" y="-1117.5" font-family="Helvetica,sans-Serif" font-size="10.00">scalar::IceAreaGlacierized</text>
<text text-anchor="middle" x="671" y="-1106.5" font-family="Helvetica,sans-Serif" font-size="10.00">TemperateBase</text>
</a>
</g>
</g>
<!-- Node19&#45;&gt;Node24 -->
<g id="edge23" class="edge">
<title>Node19&#45;&gt;Node24</title>
<path fill="none" stroke="midnightblue" d="M451.24,-832.85C461.81,-887.3 494.48,-1017.93 574,-1089 581.31,-1095.54 590.02,-1100.7 599.16,-1104.77"/>
<polygon fill="midnightblue" stroke="midnightblue" points="454.68,-832.21 449.41,-823.02 447.79,-833.49 454.68,-832.21"/>
</g>
<!-- Node25 -->
<g id="node25" class="node">
<title>Node25</title>
<g id="a_node25"><a xlink:href="classpism_1_1diagnostics_1_1scalar_1_1IceEnthalpy.html" target="_top" xlink:title="Computes the total ice enthalpy.">
<polygon fill="none" stroke="black" points="616.5,-1050 616.5,-1080 725.5,-1080 725.5,-1050 616.5,-1050"/>
<text text-anchor="start" x="624.5" y="-1068" font-family="Helvetica,sans-Serif" font-size="10.00">pism::diagnostics::</text>
<text text-anchor="middle" x="671" y="-1057" font-family="Helvetica,sans-Serif" font-size="10.00">scalar::IceEnthalpy</text>
</a>
</g>
</g>
<!-- Node19&#45;&gt;Node25 -->
<g id="edge24" class="edge">
<title>Node19&#45;&gt;Node25</title>
<path fill="none" stroke="midnightblue" d="M453.51,-833.05C467.28,-880.91 503.98,-985.39 574,-1040 586.09,-1049.43 601.37,-1055.32 616.17,-1059"/>
<polygon fill="midnightblue" stroke="midnightblue" points="456.83,-831.91 450.78,-823.22 450.08,-833.79 456.83,-831.91"/>
</g>
<!-- Node26 -->
<g id="node26" class="node">
<title>Node26</title>
<g id="a_node26"><a xlink:href="classpism_1_1diagnostics_1_1scalar_1_1IceEnthalpyGlacierized.html" target="_top" xlink:title="Computes the total ice enthalpy in glacierized areas.">
<polygon fill="none" stroke="black" points="589,-1001 589,-1031 753,-1031 753,-1001 589,-1001"/>
<text text-anchor="start" x="597" y="-1019" font-family="Helvetica,sans-Serif" font-size="10.00">pism::diagnostics::</text>
<text text-anchor="middle" x="671" y="-1008" font-family="Helvetica,sans-Serif" font-size="10.00">scalar::IceEnthalpyGlacierized</text>
</a>
</g>
</g>
<!-- Node19&#45;&gt;Node26 -->
<g id="edge25" class="edge">
<title>Node19&#45;&gt;Node26</title>
<path fill="none" stroke="midnightblue" d="M457.11,-832.44C474.78,-872.03 515.08,-949.87 574,-991 579.51,-994.84 585.57,-998.1 591.88,-1000.85"/>
<polygon fill="midnightblue" stroke="midnightblue" points="460.22,-830.8 453.02,-823.02 453.8,-833.59 460.22,-830.8"/>
</g>
<!-- Node27 -->
<g id="node27" class="node">
<title>Node27</title>
<g id="a_node27"><a xlink:href="classpism_1_1diagnostics_1_1scalar_1_1IceMass.html" target="_top" xlink:title="Computes the total ice mass.">
<polygon fill="none" stroke="black" points="617,-952 617,-982 725,-982 725,-952 617,-952"/>
<text text-anchor="start" x="625" y="-970" font-family="Helvetica,sans-Serif" font-size="10.00">pism::diagnostics::</text>
<text text-anchor="middle" x="671" y="-959" font-family="Helvetica,sans-Serif" font-size="10.00">scalar::IceMass</text>
</a>
</g>
</g>
<!-- Node19&#45;&gt;Node27 -->
<g id="edge26" class="edge">
<title>Node19&#45;&gt;Node27</title>
<path fill="none" stroke="midnightblue" d="M462.68,-831.32C484.21,-861.48 525.77,-913.52 574,-942 586.9,-949.62 602.12,-954.95 616.59,-958.66"/>
<polygon fill="midnightblue" stroke="midnightblue" points="465.51,-829.25 456.91,-823.07 459.78,-833.27 465.51,-829.25"/>
</g>
<!-- Node28 -->
<g id="node28" class="node">
<title>Node28</title>
<g id="a_node28"><a xlink:href="classpism_1_1diagnostics_1_1scalar_1_1IceMassGlacierized.html" target="_top" xlink:title="Computes the total ice mass in glacierized areas.">
<polygon fill="none" stroke="black" points="598,-903 598,-933 744,-933 744,-903 598,-903"/>
<text text-anchor="start" x="606" y="-921" font-family="Helvetica,sans-Serif" font-size="10.00">pism::diagnostics::</text>
<text text-anchor="middle" x="671" y="-910" font-family="Helvetica,sans-Serif" font-size="10.00">scalar::IceMassGlacierized</text>
</a>
</g>
</g>
<!-- Node19&#45;&gt;Node28 -->
<g id="edge27" class="edge">
<title>Node19&#45;&gt;Node28</title>
<path fill="none" stroke="midnightblue" d="M473.31,-829.47C497.97,-848.63 536.55,-876.17 574,-893 582.48,-896.81 591.66,-900.13 600.86,-902.99"/>
<polygon fill="midnightblue" stroke="midnightblue" points="475.21,-826.52 465.19,-823.08 470.88,-832.02 475.21,-826.52"/>
</g>
<!-- Node29 -->
<g id="node29" class="node">
<title>Node29</title>
<g id="a_node29"><a xlink:href="classpism_1_1diagnostics_1_1scalar_1_1IceMassNotDisplacingSeaWater.html" target="_top" xlink:title="Computes the total mass of the ice not displacing sea water.">
<polygon fill="none" stroke="black" points="591,-842.5 591,-883.5 751,-883.5 751,-842.5 591,-842.5"/>
<text text-anchor="start" x="599" y="-871.5" font-family="Helvetica,sans-Serif" font-size="10.00">pism::diagnostics::</text>
<text text-anchor="start" x="599" y="-860.5" font-family="Helvetica,sans-Serif" font-size="10.00">scalar::IceMassNotDisplacing</text>
<text text-anchor="middle" x="671" y="-849.5" font-family="Helvetica,sans-Serif" font-size="10.00">SeaWater</text>
</a>
</g>
</g>
<!-- Node19&#45;&gt;Node29 -->
<g id="edge28" class="edge">
<title>Node19&#45;&gt;Node29</title>
<path fill="none" stroke="midnightblue" d="M517.71,-825.44C540.93,-831.17 566.89,-837.57 590.71,-843.44"/>
<polygon fill="midnightblue" stroke="midnightblue" points="518.48,-822.03 507.94,-823.03 516.81,-828.82 518.48,-822.03"/>
</g>
<!-- Node30 -->
<g id="node30" class="node">
<title>Node30</title>
<g id="a_node30"><a xlink:href="classpism_1_1diagnostics_1_1scalar_1_1IceVolume.html" target="_top" xlink:title="Computes the total ice volume.">
<polygon fill="none" stroke="black" points="617,-793 617,-823 725,-823 725,-793 617,-793"/>
<text text-anchor="start" x="625" y="-811" font-family="Helvetica,sans-Serif" font-size="10.00">pism::diagnostics::</text>
<text text-anchor="middle" x="671" y="-800" font-family="Helvetica,sans-Serif" font-size="10.00">scalar::IceVolume</text>
</a>
</g>
</g>
<!-- Node19&#45;&gt;Node30 -->
<g id="edge29" class="edge">
<title>Node19&#45;&gt;Node30</title>
<path fill="none" stroke="midnightblue" d="M530.73,-808C559.62,-808 591.16,-808 616.91,-808"/>
<polygon fill="midnightblue" stroke="midnightblue" points="530.64,-804.5 520.64,-808 530.64,-811.5 530.64,-804.5"/>
</g>
<!-- Node31 -->
<g id="node31" class="node">
<title>Node31</title>
<g id="a_node31"><a xlink:href="classpism_1_1diagnostics_1_1scalar_1_1IceVolumeCold.html" target="_top" xlink:title="Computes the total volume of the cold ice.">
<polygon fill="none" stroke="black" points="608.5,-744 608.5,-774 733.5,-774 733.5,-744 608.5,-744"/>
<text text-anchor="start" x="616.5" y="-762" font-family="Helvetica,sans-Serif" font-size="10.00">pism::diagnostics::</text>
<text text-anchor="middle" x="671" y="-751" font-family="Helvetica,sans-Serif" font-size="10.00">scalar::IceVolumeCold</text>
</a>
</g>
</g>
<!-- Node19&#45;&gt;Node31 -->
<g id="edge30" class="edge">
<title>Node19&#45;&gt;Node31</title>
<path fill="none" stroke="midnightblue" d="M525.29,-790.8C552.45,-784.83 582.5,-778.23 608.15,-772.59"/>
<polygon fill="midnightblue" stroke="midnightblue" points="524.44,-787.4 515.42,-792.97 525.94,-794.24 524.44,-787.4"/>
</g>
<!-- Node32 -->
<g id="node32" class="node">
<title>Node32</title>
<g id="a_node32"><a xlink:href="classpism_1_1diagnostics_1_1scalar_1_1IceVolumeGlacierized.html" target="_top" xlink:title="Computes the total ice volume in glacierized areas.">
<polygon fill="none" stroke="black" points="592,-695 592,-725 750,-725 750,-695 592,-695"/>
<text text-anchor="start" x="600" y="-713" font-family="Helvetica,sans-Serif" font-size="10.00">pism::diagnostics::</text>
<text text-anchor="middle" x="671" y="-702" font-family="Helvetica,sans-Serif" font-size="10.00">scalar::IceVolumeGlacierized</text>
</a>
</g>
</g>
<!-- Node19&#45;&gt;Node32 -->
<g id="edge31" class="edge">
<title>Node19&#45;&gt;Node32</title>
<path fill="none" stroke="midnightblue" d="M477.14,-787.15C502.11,-770.69 539.05,-748.21 574,-734 582.28,-730.63 591.15,-727.65 600.04,-725.02"/>
<polygon fill="midnightblue" stroke="midnightblue" points="474.88,-784.45 468.5,-792.91 478.76,-790.27 474.88,-784.45"/>
</g>
<!-- Node33 -->
<g id="node33" class="node">
<title>Node33</title>
<g id="a_node33"><a xlink:href="classpism_1_1diagnostics_1_1scalar_1_1IceVolumeGlacierizedCold.html" target="_top" xlink:title="Computes the total volume of the cold ice in glacierized areas.">
<polygon fill="none" stroke="black" points="581.5,-646 581.5,-676 760.5,-676 760.5,-646 581.5,-646"/>
<text text-anchor="start" x="589.5" y="-664" font-family="Helvetica,sans-Serif" font-size="10.00">pism::diagnostics::</text>
<text text-anchor="middle" x="671" y="-653" font-family="Helvetica,sans-Serif" font-size="10.00">scalar::IceVolumeGlacierizedCold</text>
</a>
</g>
</g>
<!-- Node19&#45;&gt;Node33 -->
<g id="edge32" class="edge">
<title>Node19&#45;&gt;Node33</title>
<path fill="none" stroke="midnightblue" d="M464.42,-784.89C486.73,-756.96 528.04,-710.54 574,-685 580.16,-681.58 586.8,-678.64 593.63,-676.11"/>
<polygon fill="midnightblue" stroke="midnightblue" points="461.54,-782.9 458.12,-792.92 467.05,-787.22 461.54,-782.9"/>
</g>
<!-- Node34 -->
<g id="node34" class="node">
<title>Node34</title>
<g id="a_node34"><a xlink:href="classpism_1_1diagnostics_1_1scalar_1_1IceVolumeGlacierizedGrounded.html" target="_top" xlink:title="Computes the total grounded ice volume.">
<polygon fill="none" stroke="black" points="592,-585.5 592,-626.5 750,-626.5 750,-585.5 592,-585.5"/>
<text text-anchor="start" x="600" y="-614.5" font-family="Helvetica,sans-Serif" font-size="10.00">pism::diagnostics::</text>
<text text-anchor="start" x="600" y="-603.5" font-family="Helvetica,sans-Serif" font-size="10.00">scalar::IceVolumeGlacierized</text>
<text text-anchor="middle" x="671" y="-592.5" font-family="Helvetica,sans-Serif" font-size="10.00">Grounded</text>
</a>
</g>
</g>
<!-- Node19&#45;&gt;Node34 -->
<g id="edge33" class="edge">
<title>Node19&#45;&gt;Node34</title>
<path fill="none" stroke="midnightblue" d="M458.55,-783.71C477.49,-746.47 518.63,-675.43 574,-636 579.55,-632.05 585.63,-628.61 591.96,-625.61"/>
<polygon fill="midnightblue" stroke="midnightblue" points="455.33,-782.33 454.01,-792.84 461.6,-785.44 455.33,-782.33"/>
</g>
<!-- Node35 -->
<g id="node35" class="node">
<title>Node35</title>
<g id="a_node35"><a xlink:href="classpism_1_1diagnostics_1_1scalar_1_1IceVolumeGlacierizedShelf.html" target="_top" xlink:title="Computes the total floating ice volume.">
<polygon fill="none" stroke="black" points="592,-525.5 592,-566.5 750,-566.5 750,-525.5 592,-525.5"/>
<text text-anchor="start" x="600" y="-554.5" font-family="Helvetica,sans-Serif" font-size="10.00">pism::diagnostics::</text>
<text text-anchor="start" x="600" y="-543.5" font-family="Helvetica,sans-Serif" font-size="10.00">scalar::IceVolumeGlacierized</text>
<text text-anchor="middle" x="671" y="-532.5" font-family="Helvetica,sans-Serif" font-size="10.00">Shelf</text>
</a>
</g>
</g>
<!-- Node19&#45;&gt;Node35 -->
<g id="edge34" class="edge">
<title>Node19&#45;&gt;Node35</title>
<path fill="none" stroke="midnightblue" d="M453.75,-783.24C467.93,-735.91 505.32,-632.27 574,-576 579.4,-571.57 585.46,-567.8 591.84,-564.58"/>
<polygon fill="midnightblue" stroke="midnightblue" points="450.35,-782.39 450.93,-792.97 457.08,-784.35 450.35,-782.39"/>
</g>
<!-- Node36 -->
<g id="node36" class="node">
<title>Node36</title>
<g id="a_node36"><a xlink:href="classpism_1_1diagnostics_1_1scalar_1_1IceVolumeGlacierizedTemperate.html" target="_top" xlink:title="Computes the total volume of the temperate ice in glacierized areas.">
<polygon fill="none" stroke="black" points="592,-465.5 592,-506.5 750,-506.5 750,-465.5 592,-465.5"/>
<text text-anchor="start" x="600" y="-494.5" font-family="Helvetica,sans-Serif" font-size="10.00">pism::diagnostics::</text>
<text text-anchor="start" x="600" y="-483.5" font-family="Helvetica,sans-Serif" font-size="10.00">scalar::IceVolumeGlacierized</text>
<text text-anchor="middle" x="671" y="-472.5" font-family="Helvetica,sans-Serif" font-size="10.00">Temperate</text>
</a>
</g>
</g>
<!-- Node19&#45;&gt;Node36 -->
<g id="edge35" class="edge">
<title>Node19&#45;&gt;Node36</title>
<path fill="none" stroke="midnightblue" d="M450.81,-782.54C460.59,-726.11 491.87,-589.76 574,-516 579.33,-511.22 585.41,-507.2 591.87,-503.82"/>
<polygon fill="midnightblue" stroke="midnightblue" points="447.31,-782.28 449.13,-792.71 454.21,-783.41 447.31,-782.28"/>
</g>
<!-- Node37 -->
<g id="node37" class="node">
<title>Node37</title>
<g id="a_node37"><a xlink:href="classpism_1_1diagnostics_1_1scalar_1_1IceVolumeTemperate.html" target="_top" xlink:title="Computes the total volume of the temperate ice.">
<polygon fill="none" stroke="black" points="593.5,-416 593.5,-446 748.5,-446 748.5,-416 593.5,-416"/>
<text text-anchor="start" x="601.5" y="-434" font-family="Helvetica,sans-Serif" font-size="10.00">pism::diagnostics::</text>
<text text-anchor="middle" x="671" y="-423" font-family="Helvetica,sans-Serif" font-size="10.00">scalar::IceVolumeTemperate</text>
</a>
</g>
</g>
<!-- Node19&#45;&gt;Node37 -->
<g id="edge36" class="edge">
<title>Node19&#45;&gt;Node37</title>
<path fill="none" stroke="midnightblue" d="M448.36,-782.92C453.23,-718.5 475.33,-546.03 574,-456 579.6,-450.89 586.11,-446.8 593.05,-443.53"/>
<polygon fill="midnightblue" stroke="midnightblue" points="444.86,-782.76 447.67,-792.97 451.84,-783.23 444.86,-782.76"/>
</g>
<!-- Node38 -->
<g id="node38" class="node">
<title>Node38</title>
<g id="a_node38"><a xlink:href="classpism_1_1diagnostics_1_1scalar_1_1MaxDiffusivity.html" target="_top" xlink:title="Reports maximum diffusivity.">
<polygon fill="none" stroke="black" points="609.5,-367 609.5,-397 732.5,-397 732.5,-367 609.5,-367"/>
<text text-anchor="start" x="617.5" y="-385" font-family="Helvetica,sans-Serif" font-size="10.00">pism::diagnostics::</text>
<text text-anchor="middle" x="671" y="-374" font-family="Helvetica,sans-Serif" font-size="10.00">scalar::MaxDiffusivity</text>
</a>
</g>
</g>
<!-- Node19&#45;&gt;Node38 -->
<g id="edge37" class="edge">
<title>Node19&#45;&gt;Node38</title>
<path fill="none" stroke="midnightblue" d="M447.01,-782.75C448.46,-712.1 462.68,-510.73 574,-406 583.76,-396.82 596.48,-391 609.46,-387.36"/>
<polygon fill="midnightblue" stroke="midnightblue" points="443.51,-782.89 446.87,-792.93 450.5,-782.98 443.51,-782.89"/>
</g>
<!-- Node39 -->
<g id="node39" class="node">
<title>Node39</title>
<g id="a_node39"><a xlink:href="classpism_1_1diagnostics_1_1scalar_1_1MaxHorizontalVelocity.html" target="_top" xlink:title="Reports the maximum horizontal absolute velocity component over the grid.">
<polygon fill="none" stroke="black" points="590,-318 590,-348 752,-348 752,-318 590,-318"/>
<text text-anchor="start" x="598" y="-336" font-family="Helvetica,sans-Serif" font-size="10.00">pism::diagnostics::</text>
<text text-anchor="middle" x="671" y="-325" font-family="Helvetica,sans-Serif" font-size="10.00">scalar::MaxHorizontalVelocity</text>
</a>
</g>
</g>
<!-- Node19&#45;&gt;Node39 -->
<g id="edge38" class="edge">
<title>Node19&#45;&gt;Node39</title>
<path fill="none" stroke="midnightblue" d="M450.74,-782.6C463.89,-696.51 510.73,-417.82 574,-357 578.71,-352.48 584.13,-348.77 589.96,-345.73"/>
<polygon fill="midnightblue" stroke="midnightblue" points="447.26,-782.14 449.23,-792.55 454.19,-783.19 447.26,-782.14"/>
</g>
<!-- Node40 -->
<g id="node40" class="node">
<title>Node40</title>
<g id="a_node40"><a xlink:href="classpism_1_1diagnostics_1_1scalar_1_1SeaLevelRisePotential.html" target="_top" xlink:title="Computes the total ice volume which is relevant for sea&#45;level.">
<polygon fill="none" stroke="black" points="590.5,-269 590.5,-299 751.5,-299 751.5,-269 590.5,-269"/>
<text text-anchor="start" x="598.5" y="-287" font-family="Helvetica,sans-Serif" font-size="10.00">pism::diagnostics::</text>
<text text-anchor="middle" x="671" y="-276" font-family="Helvetica,sans-Serif" font-size="10.00">scalar::SeaLevelRisePotential</text>
</a>
</g>
</g>
<!-- Node19&#45;&gt;Node40 -->
<g id="edge39" class="edge">
<title>Node19&#45;&gt;Node40</title>
<path fill="none" stroke="midnightblue" d="M449.94,-782.9C461.15,-691.25 504.24,-376.38 574,-308 578.78,-303.31 584.34,-299.49 590.32,-296.39"/>
<polygon fill="midnightblue" stroke="midnightblue" points="446.45,-782.6 448.73,-792.94 453.4,-783.43 446.45,-782.6"/>
</g>
<!-- Node41 -->
<g id="node41" class="node">
<title>Node41</title>
<g id="a_node41"><a xlink:href="classpism_1_1diagnostics_1_1scalar_1_1TimeStepLength.html" target="_top" xlink:title="Reports the mass continuity time step.">
<polygon fill="none" stroke="black" points="605.5,-220 605.5,-250 736.5,-250 736.5,-220 605.5,-220"/>
<text text-anchor="start" x="613.5" y="-238" font-family="Helvetica,sans-Serif" font-size="10.00">pism::diagnostics::</text>
<text text-anchor="middle" x="671" y="-227" font-family="Helvetica,sans-Serif" font-size="10.00">scalar::TimeStepLength</text>
</a>
</g>
</g>
<!-- Node19&#45;&gt;Node41 -->
<g id="edge40" class="edge">
<title>Node19&#45;&gt;Node41</title>
<path fill="none" stroke="midnightblue" d="M449.3,-782.67C458.71,-684.97 497.36,-334.39 574,-259 582.57,-250.57 593.64,-244.95 605.19,-241.24"/>
<polygon fill="midnightblue" stroke="midnightblue" points="445.8,-782.52 448.35,-792.81 452.77,-783.18 445.8,-782.52"/>
</g>
<!-- Node43 -->
<g id="node43" class="node">
<title>Node43</title>
<g id="a_node43"><a xlink:href="classpism_1_1diagnostics_1_1scalar_1_1IceMassRateOfChange.html" target="_top" xlink:title="Computes the rate of change of the total ice mass.">
<polygon fill="none" stroke="black" points="590,-171 590,-201 752,-201 752,-171 590,-171"/>
<text text-anchor="start" x="598" y="-189" font-family="Helvetica,sans-Serif" font-size="10.00">pism::diagnostics::</text>
<text text-anchor="middle" x="671" y="-178" font-family="Helvetica,sans-Serif" font-size="10.00">scalar::IceMassRateOfChange</text>
</a>
</g>
</g>
<!-- Node42&#45;&gt;Node43 -->
<g id="edge42" class="edge">
<title>Node42&#45;&gt;Node43</title>
<path fill="none" stroke="midnightblue" d="M517.72,-148.44C547.11,-155.69 580.88,-164.02 609.14,-170.99"/>
<polygon fill="midnightblue" stroke="midnightblue" points="518.48,-145.03 507.94,-146.03 516.81,-151.82 518.48,-145.03"/>
</g>
<!-- Node44 -->
<g id="node44" class="node">
<title>Node44</title>
<g id="a_node44"><a xlink:href="classpism_1_1diagnostics_1_1scalar_1_1IceMassRateOfChangeGlacierized.html" target="_top" xlink:title="Computes the rate of change of the total ice mass in glacierized areas.">
<polygon fill="none" stroke="black" points="590,-110.5 590,-151.5 752,-151.5 752,-110.5 590,-110.5"/>
<text text-anchor="start" x="598" y="-139.5" font-family="Helvetica,sans-Serif" font-size="10.00">pism::diagnostics::</text>
<text text-anchor="start" x="598" y="-128.5" font-family="Helvetica,sans-Serif" font-size="10.00">scalar::IceMassRateOfChange</text>
<text text-anchor="middle" x="671" y="-117.5" font-family="Helvetica,sans-Serif" font-size="10.00">Glacierized</text>
</a>
</g>
</g>
<!-- Node42&#45;&gt;Node44 -->
<g id="edge43" class="edge">
<title>Node42&#45;&gt;Node44</title>
<path fill="none" stroke="midnightblue" d="M547.33,-131C561.51,-131 575.93,-131 589.67,-131"/>
<polygon fill="midnightblue" stroke="midnightblue" points="547.06,-127.5 537.06,-131 547.06,-134.5 547.06,-127.5"/>
</g>
<!-- Node45 -->
<g id="node45" class="node">
<title>Node45</title>
<g id="a_node45"><a xlink:href="classpism_1_1diagnostics_1_1scalar_1_1IceVolumeRateOfChange.html" target="_top" xlink:title="Computes the rate of change of the total ice volume.">
<polygon fill="none" stroke="black" points="584.5,-61 584.5,-91 757.5,-91 757.5,-61 584.5,-61"/>
<text text-anchor="start" x="592.5" y="-79" font-family="Helvetica,sans-Serif" font-size="10.00">pism::diagnostics::</text>
<text text-anchor="middle" x="671" y="-68" font-family="Helvetica,sans-Serif" font-size="10.00">scalar::IceVolumeRateOfChange</text>
</a>
</g>
</g>
<!-- Node42&#45;&gt;Node45 -->
<g id="edge44" class="edge">
<title>Node42&#45;&gt;Node45</title>
<path fill="none" stroke="midnightblue" d="M517.72,-113.56C547.11,-106.31 580.88,-97.98 609.14,-91.01"/>
<polygon fill="midnightblue" stroke="midnightblue" points="516.81,-110.18 507.94,-115.97 518.48,-116.97 516.81,-110.18"/>
</g>
<!-- Node46 -->
<g id="node46" class="node">
<title>Node46</title>
<g id="a_node46"><a xlink:href="classpism_1_1diagnostics_1_1scalar_1_1IceVolumeRateOfChangeGlacierized.html" target="_top" xlink:title="Computes the rate of change of the total ice volume in glacierized areas.">
<polygon fill="none" stroke="black" points="584.5,-0.5 584.5,-41.5 757.5,-41.5 757.5,-0.5 584.5,-0.5"/>
<text text-anchor="start" x="592.5" y="-29.5" font-family="Helvetica,sans-Serif" font-size="10.00">pism::diagnostics::</text>
<text text-anchor="start" x="592.5" y="-18.5" font-family="Helvetica,sans-Serif" font-size="10.00">scalar::IceVolumeRateOfChange</text>
<text text-anchor="middle" x="671" y="-7.5" font-family="Helvetica,sans-Serif" font-size="10.00">Glacierized</text>
</a>
</g>
</g>
<!-- Node42&#45;&gt;Node46 -->
<g id="edge45" class="edge">
<title>Node42&#45;&gt;Node46</title>
<path fill="none" stroke="midnightblue" d="M475.45,-110.05C500.42,-92.42 538.23,-67.51 574,-51 581.37,-47.6 589.23,-44.44 597.16,-41.55"/>
<polygon fill="midnightblue" stroke="midnightblue" points="473.28,-107.3 467.18,-115.96 477.35,-112.99 473.28,-107.3"/>
</g>
</g>
</svg>
