<?xml version="1.0" encoding="UTF-8" standalone="no"?>
<!DOCTYPE svg PUBLIC "-//W3C//DTD SVG 1.1//EN"
 "http://www.w3.org/Graphics/SVG/1.1/DTD/svg11.dtd">
<!-- Generated by graphviz version 2.43.0 (0)
 -->
<!-- Title: pism::stressbalance::BlatterTestvanderVeen Pages: 1 -->
<svg width="141pt" height="229pt"
 viewBox="0.00 0.00 141.00 229.00" xmlns="http://www.w3.org/2000/svg" xmlns:xlink="http://www.w3.org/1999/xlink">
<g id="graph0" class="graph" transform="scale(1 1) rotate(0) translate(4 225)">
<title>pism::stressbalance::BlatterTestvanderVeen</title>
<!-- Node1 -->
<g id="node1" class="node">
<title>Node1</title>
<g id="a_node1"><a xlink:title=" ">
<polygon fill="#bfbfbf" stroke="black" points="0,-0.5 0,-30.5 133,-30.5 133,-0.5 0,-0.5"/>
<text text-anchor="start" x="8" y="-18.5" font-family="Helvetica,sans-Serif" font-size="10.00">pism::stressbalance</text>
<text text-anchor="middle" x="66.5" y="-7.5" font-family="Helvetica,sans-Serif" font-size="10.00">::BlatterTestvanderVeen</text>
</a>
</g>
</g>
<!-- Node2 -->
<g id="node2" class="node">
<title>Node2</title>
<g id="a_node2"><a xlink:href="classpism_1_1stressbalance_1_1Blatter.html" target="_top" xlink:title=" ">
<polygon fill="none" stroke="black" points="9.5,-67.5 9.5,-97.5 123.5,-97.5 123.5,-67.5 9.5,-67.5"/>
<text text-anchor="start" x="17.5" y="-85.5" font-family="Helvetica,sans-Serif" font-size="10.00">pism::stressbalance</text>
<text text-anchor="middle" x="66.5" y="-74.5" font-family="Helvetica,sans-Serif" font-size="10.00">::Blatter</text>
</a>
</g>
</g>
<!-- Node2&#45;&gt;Node1 -->
<g id="edge1" class="edge">
<title>Node2&#45;&gt;Node1</title>
<path fill="none" stroke="midnightblue" d="M66.5,-57.11C66.5,-48.15 66.5,-38.32 66.5,-30.58"/>
<polygon fill="midnightblue" stroke="midnightblue" points="63,-57.4 66.5,-67.4 70,-57.4 63,-57.4"/>
</g>
<!-- Node3 -->
<g id="node3" class="node">
<title>Node3</title>
<g id="a_node3"><a xlink:href="classpism_1_1stressbalance_1_1ShallowStressBalance.html" target="_top" xlink:title="Shallow stress balance (such as the SSA).">
<polygon fill="none" stroke="black" points="1.5,-134.5 1.5,-164.5 131.5,-164.5 131.5,-134.5 1.5,-134.5"/>
<text text-anchor="start" x="9.5" y="-152.5" font-family="Helvetica,sans-Serif" font-size="10.00">pism::stressbalance</text>
<text text-anchor="middle" x="66.5" y="-141.5" font-family="Helvetica,sans-Serif" font-size="10.00">::ShallowStressBalance</text>
</a>
</g>
</g>
<!-- Node3&#45;&gt;Node2 -->
<g id="edge2" class="edge">
<title>Node3&#45;&gt;Node2</title>
<path fill="none" stroke="midnightblue" d="M66.5,-124.11C66.5,-115.15 66.5,-105.32 66.5,-97.58"/>
<polygon fill="midnightblue" stroke="midnightblue" points="63,-124.4 66.5,-134.4 70,-124.4 63,-124.4"/>
</g>
<!-- Node4 -->
<g id="node4" class="node">
<title>Node4</title>
<g id="a_node4"><a xlink:href="classpism_1_1Component.html" target="_top" xlink:title="A class defining a common interface for most PISM sub&#45;models.">
<polygon fill="none" stroke="black" points="15,-201.5 15,-220.5 118,-220.5 118,-201.5 15,-201.5"/>
<text text-anchor="middle" x="66.5" y="-208.5" font-family="Helvetica,sans-Serif" font-size="10.00">pism::Component</text>
</a>
</g>
</g>
<!-- Node4&#45;&gt;Node3 -->
<g id="edge3" class="edge">
<title>Node4&#45;&gt;Node3</title>
<path fill="none" stroke="midnightblue" d="M66.5,-191.23C66.5,-182.59 66.5,-172.5 66.5,-164.52"/>
<polygon fill="midnightblue" stroke="midnightblue" points="63,-191.48 66.5,-201.48 70,-191.48 63,-191.48"/>
</g>
</g>
</svg>
