<?xml version="1.0" encoding="UTF-8" standalone="no"?>
<!DOCTYPE svg PUBLIC "-//W3C//DTD SVG 1.1//EN"
 "http://www.w3.org/Graphics/SVG/1.1/DTD/svg11.dtd">
<!-- Generated by graphviz version 2.43.0 (0)
 -->
<!-- Title: pism::IceModelVec2Struct&lt; T &gt; Pages: 1 -->
<svg width="1096pt" height="160pt"
 viewBox="0.00 0.00 1096.00 160.00" xmlns="http://www.w3.org/2000/svg" xmlns:xlink="http://www.w3.org/1999/xlink">
<g id="graph0" class="graph" transform="scale(1 1) rotate(0) translate(4 156)">
<title>pism::IceModelVec2Struct&lt; T &gt;</title>
<!-- Node1 -->
<g id="node1" class="node">
<title>Node1</title>
<g id="a_node1"><a xlink:title="A storage vector combining related fields in a struct.">
<polygon fill="#bfbfbf" stroke="black" points="458,-66.5 458,-85.5 629,-85.5 629,-66.5 458,-66.5"/>
<text text-anchor="middle" x="543.5" y="-73.5" font-family="Helvetica,sans-Serif" font-size="10.00">pism::IceModelVec2Struct&lt; T &gt;</text>
</a>
</g>
</g>
<!-- Node5 -->
<g id="node5" class="node">
<title>Node5</title>
<g id="a_node5"><a xlink:href="classpism_1_1IceModelVec2Struct.html" target="_top" xlink:title=" ">
<polygon fill="none" stroke="black" points="787,-110.5 787,-151.5 930,-151.5 930,-110.5 787,-110.5"/>
<text text-anchor="start" x="795" y="-139.5" font-family="Helvetica,sans-Serif" font-size="10.00">pism::IceModelVec2Struct</text>
<text text-anchor="start" x="795" y="-128.5" font-family="Helvetica,sans-Serif" font-size="10.00">&lt; pism::stressbalance::</text>
<text text-anchor="middle" x="858.5" y="-117.5" font-family="Helvetica,sans-Serif" font-size="10.00">SSAFEM::Coefficients &gt;</text>
</a>
</g>
</g>
<!-- Node1&#45;&gt;Node5 -->
<g id="edge4" class="edge">
<title>Node1&#45;&gt;Node5</title>
<path fill="none" stroke="orange" stroke-dasharray="5,2" d="M608.74,-87.29C660.61,-96.4 733.5,-109.21 786.97,-118.61"/>
<polygon fill="orange" stroke="orange" points="609.12,-83.8 598.66,-85.52 607.91,-90.7 609.12,-83.8"/>
<text text-anchor="start" x="647" y="-129" font-family="Helvetica,sans-Serif" font-size="10.00"> &lt; pism::stressbalance</text>
<text text-anchor="middle" x="708" y="-118" font-family="Helvetica,sans-Serif" font-size="10.00">::SSAFEM::Coefficients &gt;</text>
</g>
<!-- Node6 -->
<g id="node6" class="node">
<title>Node6</title>
<g id="a_node6"><a xlink:href="classpism_1_1IceModelVec2Struct.html" target="_top" xlink:title=" ">
<polygon fill="none" stroke="black" points="787,-61 787,-91 930,-91 930,-61 787,-61"/>
<text text-anchor="start" x="795" y="-79" font-family="Helvetica,sans-Serif" font-size="10.00">pism::IceModelVec2Struct</text>
<text text-anchor="middle" x="858.5" y="-68" font-family="Helvetica,sans-Serif" font-size="10.00">&lt; Vector2 &gt;</text>
</a>
</g>
</g>
<!-- Node1&#45;&gt;Node6 -->
<g id="edge5" class="edge">
<title>Node1&#45;&gt;Node6</title>
<path fill="none" stroke="orange" stroke-dasharray="5,2" d="M639.48,-76C686.88,-76 743.22,-76 786.76,-76"/>
<polygon fill="orange" stroke="orange" points="639.2,-72.5 629.2,-76 639.2,-79.5 639.2,-72.5"/>
<text text-anchor="middle" x="708" y="-79" font-family="Helvetica,sans-Serif" font-size="10.00"> &lt; Vector2 &gt;</text>
</g>
<!-- Node8 -->
<g id="node8" class="node">
<title>Node8</title>
<g id="a_node8"><a xlink:href="classpism_1_1IceModelVec2Struct.html" target="_top" xlink:title=" ">
<polygon fill="none" stroke="black" points="787,-0.5 787,-41.5 930,-41.5 930,-0.5 787,-0.5"/>
<text text-anchor="start" x="795" y="-29.5" font-family="Helvetica,sans-Serif" font-size="10.00">pism::IceModelVec2Struct</text>
<text text-anchor="start" x="795" y="-18.5" font-family="Helvetica,sans-Serif" font-size="10.00">&lt; pism::stressbalance::</text>
<text text-anchor="middle" x="858.5" y="-7.5" font-family="Helvetica,sans-Serif" font-size="10.00">Blatter::Parameters &gt;</text>
</a>
</g>
</g>
<!-- Node1&#45;&gt;Node8 -->
<g id="edge7" class="edge">
<title>Node1&#45;&gt;Node8</title>
<path fill="none" stroke="orange" stroke-dasharray="5,2" d="M588.15,-63.78C606.26,-59.02 627.54,-53.8 647,-50 693.16,-40.99 745.56,-33.77 786.53,-28.78"/>
<polygon fill="orange" stroke="orange" points="587.21,-60.41 578.45,-66.37 589.02,-67.18 587.21,-60.41"/>
<text text-anchor="start" x="652" y="-64" font-family="Helvetica,sans-Serif" font-size="10.00"> &lt; pism::stressbalance</text>
<text text-anchor="middle" x="708" y="-53" font-family="Helvetica,sans-Serif" font-size="10.00">::Blatter::Parameters &gt;</text>
</g>
<!-- Node2 -->
<g id="node2" class="node">
<title>Node2</title>
<g id="a_node2"><a xlink:href="classpism_1_1IceModelVec2.html" target="_top" xlink:title=" ">
<polygon fill="none" stroke="black" points="307,-66.5 307,-85.5 421,-85.5 421,-66.5 307,-66.5"/>
<text text-anchor="middle" x="364" y="-73.5" font-family="Helvetica,sans-Serif" font-size="10.00">pism::IceModelVec2</text>
</a>
</g>
</g>
<!-- Node2&#45;&gt;Node1 -->
<g id="edge1" class="edge">
<title>Node2&#45;&gt;Node1</title>
<path fill="none" stroke="midnightblue" d="M431.2,-76C439.9,-76 448.9,-76 457.84,-76"/>
<polygon fill="midnightblue" stroke="midnightblue" points="431.16,-72.5 421.16,-76 431.16,-79.5 431.16,-72.5"/>
</g>
<!-- Node3 -->
<g id="node3" class="node">
<title>Node3</title>
<g id="a_node3"><a xlink:href="classpism_1_1IceModelVec.html" target="_top" xlink:title="Abstract class for reading, writing, allocating, and accessing a DA&#45;based PETSc Vec (2D and 3D fields...">
<polygon fill="none" stroke="black" points="162,-66.5 162,-85.5 270,-85.5 270,-66.5 162,-66.5"/>
<text text-anchor="middle" x="216" y="-73.5" font-family="Helvetica,sans-Serif" font-size="10.00">pism::IceModelVec</text>
</a>
</g>
</g>
<!-- Node3&#45;&gt;Node2 -->
<g id="edge2" class="edge">
<title>Node3&#45;&gt;Node2</title>
<path fill="none" stroke="midnightblue" d="M280.32,-76C289.1,-76 298.08,-76 306.72,-76"/>
<polygon fill="midnightblue" stroke="midnightblue" points="280.12,-72.5 270.12,-76 280.12,-79.5 280.12,-72.5"/>
</g>
<!-- Node4 -->
<g id="node4" class="node">
<title>Node4</title>
<g id="a_node4"><a xlink:href="classpism_1_1PetscAccessible.html" target="_top" xlink:title=" ">
<polygon fill="none" stroke="black" points="0,-66.5 0,-85.5 125,-85.5 125,-66.5 0,-66.5"/>
<text text-anchor="middle" x="62.5" y="-73.5" font-family="Helvetica,sans-Serif" font-size="10.00">pism::PetscAccessible</text>
</a>
</g>
</g>
<!-- Node4&#45;&gt;Node3 -->
<g id="edge3" class="edge">
<title>Node4&#45;&gt;Node3</title>
<path fill="none" stroke="midnightblue" d="M135.15,-76C144.09,-76 153.1,-76 161.69,-76"/>
<polygon fill="midnightblue" stroke="midnightblue" points="135.12,-72.5 125.12,-76 135.12,-79.5 135.12,-72.5"/>
</g>
<!-- Node7 -->
<g id="node7" class="node">
<title>Node7</title>
<g id="a_node7"><a xlink:href="classpism_1_1IceModelVec2V.html" target="_top" xlink:title=" ">
<polygon fill="none" stroke="black" points="967,-66.5 967,-85.5 1088,-85.5 1088,-66.5 967,-66.5"/>
<text text-anchor="middle" x="1027.5" y="-73.5" font-family="Helvetica,sans-Serif" font-size="10.00">pism::IceModelVec2V</text>
</a>
</g>
</g>
<!-- Node6&#45;&gt;Node7 -->
<g id="edge6" class="edge">
<title>Node6&#45;&gt;Node7</title>
<path fill="none" stroke="midnightblue" d="M940.37,-76C949.31,-76 958.29,-76 966.9,-76"/>
<polygon fill="midnightblue" stroke="midnightblue" points="940.32,-72.5 930.32,-76 940.32,-79.5 940.32,-72.5"/>
</g>
</g>
</svg>
