<?xml version="1.0" encoding="UTF-8" standalone="no"?>
<!DOCTYPE svg PUBLIC "-//W3C//DTD SVG 1.1//EN"
 "http://www.w3.org/Graphics/SVG/1.1/DTD/svg11.dtd">
<!-- Generated by graphviz version 2.43.0 (0)
 -->
<!-- Title: pism::ocean::Frac_SMB Pages: 1 -->
<svg width="151pt" height="140pt"
 viewBox="0.00 0.00 151.00 140.00" xmlns="http://www.w3.org/2000/svg" xmlns:xlink="http://www.w3.org/1999/xlink">
<g id="graph0" class="graph" transform="scale(1 1) rotate(0) translate(4 136)">
<title>pism::ocean::Frac_SMB</title>
<!-- Node1 -->
<g id="node1" class="node">
<title>Node1</title>
<g id="a_node1"><a xlink:title="Forcing using shelf base mass flux fractions (scalar, time&#45;dependent).">
<polygon fill="#bfbfbf" stroke="black" points="7,-0.5 7,-19.5 136,-19.5 136,-0.5 7,-0.5"/>
<text text-anchor="middle" x="71.5" y="-7.5" font-family="Helvetica,sans-Serif" font-size="10.00">pism::ocean::Frac_SMB</text>
</a>
</g>
</g>
<!-- Node2 -->
<g id="node2" class="node">
<title>Node2</title>
<g id="a_node2"><a xlink:href="classpism_1_1ocean_1_1OceanModel.html" target="_top" xlink:title="A very rudimentary PISM ocean model.">
<polygon fill="none" stroke="black" points="0,-56.5 0,-75.5 143,-75.5 143,-56.5 0,-56.5"/>
<text text-anchor="middle" x="71.5" y="-63.5" font-family="Helvetica,sans-Serif" font-size="10.00">pism::ocean::OceanModel</text>
</a>
</g>
</g>
<!-- Node2&#45;&gt;Node1 -->
<g id="edge1" class="edge">
<title>Node2&#45;&gt;Node1</title>
<path fill="none" stroke="midnightblue" d="M71.5,-45.8C71.5,-36.91 71.5,-26.78 71.5,-19.75"/>
<polygon fill="midnightblue" stroke="midnightblue" points="68,-46.08 71.5,-56.08 75,-46.08 68,-46.08"/>
</g>
<!-- Node3 -->
<g id="node3" class="node">
<title>Node3</title>
<g id="a_node3"><a xlink:href="classpism_1_1Component.html" target="_top" xlink:title="A class defining a common interface for most PISM sub&#45;models.">
<polygon fill="none" stroke="black" points="20,-112.5 20,-131.5 123,-131.5 123,-112.5 20,-112.5"/>
<text text-anchor="middle" x="71.5" y="-119.5" font-family="Helvetica,sans-Serif" font-size="10.00">pism::Component</text>
</a>
</g>
</g>
<!-- Node3&#45;&gt;Node2 -->
<g id="edge2" class="edge">
<title>Node3&#45;&gt;Node2</title>
<path fill="none" stroke="midnightblue" d="M71.5,-101.8C71.5,-92.91 71.5,-82.78 71.5,-75.75"/>
<polygon fill="midnightblue" stroke="midnightblue" points="68,-102.08 71.5,-112.08 75,-102.08 68,-102.08"/>
</g>
</g>
</svg>
