<?xml version="1.0" encoding="UTF-8" standalone="no"?>
<!DOCTYPE svg PUBLIC "-//W3C//DTD SVG 1.1//EN"
 "http://www.w3.org/Graphics/SVG/1.1/DTD/svg11.dtd">
<!-- Generated by graphviz version 2.43.0 (0)
 -->
<!-- Title: pism::energy::EnthalpyModel Pages: 1 -->
<svg width="342pt" height="207pt"
 viewBox="0.00 0.00 342.00 207.00" xmlns="http://www.w3.org/2000/svg" xmlns:xlink="http://www.w3.org/1999/xlink">
<g id="graph0" class="graph" transform="scale(1 1) rotate(0) translate(4 203)">
<title>pism::energy::EnthalpyModel</title>
<!-- Node1 -->
<g id="node1" class="node">
<title>Node1</title>
<g id="a_node1"><a xlink:title="The enthalpy&#45;based energy balance model.">
<polygon fill="#bfbfbf" stroke="black" points="88,-67.5 88,-86.5 246,-86.5 246,-67.5 88,-67.5"/>
<text text-anchor="middle" x="167" y="-74.5" font-family="Helvetica,sans-Serif" font-size="10.00">pism::energy::EnthalpyModel</text>
</a>
</g>
</g>
<!-- Node4 -->
<g id="node4" class="node">
<title>Node4</title>
<g id="a_node4"><a xlink:href="classpism_1_1energy_1_1DummyEnergyModel.html" target="_top" xlink:title="The &quot;dummy&quot; energy balance model. Reads in enthalpy from a file, but does not update it.">
<polygon fill="none" stroke="black" points="0,-0.5 0,-30.5 158,-30.5 158,-0.5 0,-0.5"/>
<text text-anchor="start" x="8" y="-18.5" font-family="Helvetica,sans-Serif" font-size="10.00">pism::energy::DummyEnergy</text>
<text text-anchor="middle" x="79" y="-7.5" font-family="Helvetica,sans-Serif" font-size="10.00">Model</text>
</a>
</g>
</g>
<!-- Node1&#45;&gt;Node4 -->
<g id="edge3" class="edge">
<title>Node1&#45;&gt;Node4</title>
<path fill="none" stroke="midnightblue" d="M145.91,-61.74C131.92,-52.28 113.65,-39.93 99.74,-30.52"/>
<polygon fill="midnightblue" stroke="midnightblue" points="144.15,-64.77 154.39,-67.48 148.07,-58.97 144.15,-64.77"/>
</g>
<!-- Node5 -->
<g id="node5" class="node">
<title>Node5</title>
<g id="a_node5"><a xlink:href="classpism_1_1energy_1_1EnthalpyModel__Regional.html" target="_top" xlink:title="The enthalpy&#45;based energy balance model for regional runs.">
<polygon fill="none" stroke="black" points="176,-0.5 176,-30.5 334,-30.5 334,-0.5 176,-0.5"/>
<text text-anchor="start" x="184" y="-18.5" font-family="Helvetica,sans-Serif" font-size="10.00">pism::energy::EnthalpyModel</text>
<text text-anchor="middle" x="255" y="-7.5" font-family="Helvetica,sans-Serif" font-size="10.00">_Regional</text>
</a>
</g>
</g>
<!-- Node1&#45;&gt;Node5 -->
<g id="edge4" class="edge">
<title>Node1&#45;&gt;Node5</title>
<path fill="none" stroke="midnightblue" d="M188.09,-61.74C202.08,-52.28 220.35,-39.93 234.26,-30.52"/>
<polygon fill="midnightblue" stroke="midnightblue" points="185.93,-58.97 179.61,-67.48 189.85,-64.77 185.93,-58.97"/>
</g>
<!-- Node2 -->
<g id="node2" class="node">
<title>Node2</title>
<g id="a_node2"><a xlink:href="classpism_1_1energy_1_1EnergyModel.html" target="_top" xlink:title=" ">
<polygon fill="none" stroke="black" points="92.5,-123.5 92.5,-142.5 241.5,-142.5 241.5,-123.5 92.5,-123.5"/>
<text text-anchor="middle" x="167" y="-130.5" font-family="Helvetica,sans-Serif" font-size="10.00">pism::energy::EnergyModel</text>
</a>
</g>
</g>
<!-- Node2&#45;&gt;Node1 -->
<g id="edge1" class="edge">
<title>Node2&#45;&gt;Node1</title>
<path fill="none" stroke="midnightblue" d="M167,-112.8C167,-103.91 167,-93.78 167,-86.75"/>
<polygon fill="midnightblue" stroke="midnightblue" points="163.5,-113.08 167,-123.08 170.5,-113.08 163.5,-113.08"/>
</g>
<!-- Node3 -->
<g id="node3" class="node">
<title>Node3</title>
<g id="a_node3"><a xlink:href="classpism_1_1Component.html" target="_top" xlink:title="A class defining a common interface for most PISM sub&#45;models.">
<polygon fill="none" stroke="black" points="115.5,-179.5 115.5,-198.5 218.5,-198.5 218.5,-179.5 115.5,-179.5"/>
<text text-anchor="middle" x="167" y="-186.5" font-family="Helvetica,sans-Serif" font-size="10.00">pism::Component</text>
</a>
</g>
</g>
<!-- Node3&#45;&gt;Node2 -->
<g id="edge2" class="edge">
<title>Node3&#45;&gt;Node2</title>
<path fill="none" stroke="midnightblue" d="M167,-168.8C167,-159.91 167,-149.78 167,-142.75"/>
<polygon fill="midnightblue" stroke="midnightblue" points="163.5,-169.08 167,-179.08 170.5,-169.08 163.5,-169.08"/>
</g>
</g>
</svg>
