<?xml version="1.0" encoding="UTF-8" standalone="no"?>
<!DOCTYPE svg PUBLIC "-//W3C//DTD SVG 1.1//EN"
 "http://www.w3.org/Graphics/SVG/1.1/DTD/svg11.dtd">
<!-- Generated by graphviz version 2.43.0 (0)
 -->
<!-- Title: pism::surface::PDDrandMassBalance Pages: 1 -->
<svg width="182pt" height="162pt"
 viewBox="0.00 0.00 182.00 162.00" xmlns="http://www.w3.org/2000/svg" xmlns:xlink="http://www.w3.org/1999/xlink">
<g id="graph0" class="graph" transform="scale(1 1) rotate(0) translate(4 158)">
<title>pism::surface::PDDrandMassBalance</title>
<!-- Node1 -->
<g id="node1" class="node">
<title>Node1</title>
<g id="a_node1"><a xlink:title="An alternative PDD implementation which simulates a random process to get the number of PDDs.">
<polygon fill="#bfbfbf" stroke="black" points="8.5,-0.5 8.5,-30.5 165.5,-30.5 165.5,-0.5 8.5,-0.5"/>
<text text-anchor="start" x="16.5" y="-18.5" font-family="Helvetica,sans-Serif" font-size="10.00">pism::surface::PDDrandMass</text>
<text text-anchor="middle" x="87" y="-7.5" font-family="Helvetica,sans-Serif" font-size="10.00">Balance</text>
</a>
</g>
</g>
<!-- Node2 -->
<g id="node2" class="node">
<title>Node2</title>
<g id="a_node2"><a xlink:href="classpism_1_1surface_1_1PDDMassBalance.html" target="_top" xlink:title="A PDD implementation which computes the local mass balance based on an expectation integral.">
<polygon fill="none" stroke="black" points="0,-67.5 0,-86.5 174,-86.5 174,-67.5 0,-67.5"/>
<text text-anchor="middle" x="87" y="-74.5" font-family="Helvetica,sans-Serif" font-size="10.00">pism::surface::PDDMassBalance</text>
</a>
</g>
</g>
<!-- Node2&#45;&gt;Node1 -->
<g id="edge1" class="edge">
<title>Node2&#45;&gt;Node1</title>
<path fill="none" stroke="midnightblue" d="M87,-57.23C87,-48.59 87,-38.5 87,-30.52"/>
<polygon fill="midnightblue" stroke="midnightblue" points="83.5,-57.48 87,-67.48 90.5,-57.48 83.5,-57.48"/>
</g>
<!-- Node3 -->
<g id="node3" class="node">
<title>Node3</title>
<g id="a_node3"><a xlink:href="classpism_1_1surface_1_1LocalMassBalance.html" target="_top" xlink:title="Base class for a model which computes surface mass flux rate (ice thickness per time) from precipitat...">
<polygon fill="none" stroke="black" points="17,-123.5 17,-153.5 157,-153.5 157,-123.5 17,-123.5"/>
<text text-anchor="start" x="25" y="-141.5" font-family="Helvetica,sans-Serif" font-size="10.00">pism::surface::LocalMass</text>
<text text-anchor="middle" x="87" y="-130.5" font-family="Helvetica,sans-Serif" font-size="10.00">Balance</text>
</a>
</g>
</g>
<!-- Node3&#45;&gt;Node2 -->
<g id="edge2" class="edge">
<title>Node3&#45;&gt;Node2</title>
<path fill="none" stroke="midnightblue" d="M87,-113.29C87,-103.86 87,-93.65 87,-86.66"/>
<polygon fill="midnightblue" stroke="midnightblue" points="83.5,-113.4 87,-123.4 90.5,-113.4 83.5,-113.4"/>
</g>
</g>
</svg>
