<?xml version="1.0" encoding="UTF-8" standalone="no"?>
<!DOCTYPE svg PUBLIC "-//W3C//DTD SVG 1.1//EN"
 "http://www.w3.org/Graphics/SVG/1.1/DTD/svg11.dtd">
<!-- Generated by graphviz version 2.43.0 (0)
 -->
<!-- Title: pism::atmosphere::WeatherStation Pages: 1 -->
<svg width="178pt" height="162pt"
 viewBox="0.00 0.00 178.00 162.00" xmlns="http://www.w3.org/2000/svg" xmlns:xlink="http://www.w3.org/1999/xlink">
<g id="graph0" class="graph" transform="scale(1 1) rotate(0) translate(4 158)">
<title>pism::atmosphere::WeatherStation</title>
<!-- Node1 -->
<g id="node1" class="node">
<title>Node1</title>
<g id="a_node1"><a xlink:title=" ">
<polygon fill="#bfbfbf" stroke="black" points="9,-0.5 9,-30.5 161,-30.5 161,-0.5 9,-0.5"/>
<text text-anchor="start" x="17" y="-18.5" font-family="Helvetica,sans-Serif" font-size="10.00">pism::atmosphere::Weather</text>
<text text-anchor="middle" x="85" y="-7.5" font-family="Helvetica,sans-Serif" font-size="10.00">Station</text>
</a>
</g>
</g>
<!-- Node2 -->
<g id="node2" class="node">
<title>Node2</title>
<g id="a_node2"><a xlink:href="classpism_1_1atmosphere_1_1AtmosphereModel.html" target="_top" xlink:title="A purely virtual class defining the interface of a PISM Atmosphere Model.">
<polygon fill="none" stroke="black" points="0,-67.5 0,-97.5 170,-97.5 170,-67.5 0,-67.5"/>
<text text-anchor="start" x="8" y="-85.5" font-family="Helvetica,sans-Serif" font-size="10.00">pism::atmosphere::Atmosphere</text>
<text text-anchor="middle" x="85" y="-74.5" font-family="Helvetica,sans-Serif" font-size="10.00">Model</text>
</a>
</g>
</g>
<!-- Node2&#45;&gt;Node1 -->
<g id="edge1" class="edge">
<title>Node2&#45;&gt;Node1</title>
<path fill="none" stroke="midnightblue" d="M85,-57.11C85,-48.15 85,-38.32 85,-30.58"/>
<polygon fill="midnightblue" stroke="midnightblue" points="81.5,-57.4 85,-67.4 88.5,-57.4 81.5,-57.4"/>
</g>
<!-- Node3 -->
<g id="node3" class="node">
<title>Node3</title>
<g id="a_node3"><a xlink:href="classpism_1_1Component.html" target="_top" xlink:title="A class defining a common interface for most PISM sub&#45;models.">
<polygon fill="none" stroke="black" points="33.5,-134.5 33.5,-153.5 136.5,-153.5 136.5,-134.5 33.5,-134.5"/>
<text text-anchor="middle" x="85" y="-141.5" font-family="Helvetica,sans-Serif" font-size="10.00">pism::Component</text>
</a>
</g>
</g>
<!-- Node3&#45;&gt;Node2 -->
<g id="edge2" class="edge">
<title>Node3&#45;&gt;Node2</title>
<path fill="none" stroke="midnightblue" d="M85,-124.23C85,-115.59 85,-105.5 85,-97.52"/>
<polygon fill="midnightblue" stroke="midnightblue" points="81.5,-124.48 85,-134.48 88.5,-124.48 81.5,-124.48"/>
</g>
</g>
</svg>
