<?xml version="1.0" encoding="UTF-8" standalone="no"?>
<!DOCTYPE svg PUBLIC "-//W3C//DTD SVG 1.1//EN"
 "http://www.w3.org/Graphics/SVG/1.1/DTD/svg11.dtd">
<!-- Generated by graphviz version 2.43.0 (0)
 -->
<!-- Title: pism::options::StringList Pages: 1 -->
<svg width="182pt" height="174pt"
 viewBox="0.00 0.00 182.00 174.00" xmlns="http://www.w3.org/2000/svg" xmlns:xlink="http://www.w3.org/1999/xlink">
<g id="graph0" class="graph" transform="scale(1 1) rotate(0) translate(4 170)">
<title>pism::options::StringList</title>
<!-- Node1 -->
<g id="node1" class="node">
<title>Node1</title>
<g id="a_node1"><a xlink:title=" ">
<polygon fill="#bfbfbf" stroke="black" points="14,-0.5 14,-19.5 148,-19.5 148,-0.5 14,-0.5"/>
<text text-anchor="middle" x="81" y="-7.5" font-family="Helvetica,sans-Serif" font-size="10.00">pism::options::StringList</text>
</a>
</g>
</g>
<!-- Node2 -->
<g id="node2" class="node">
<title>Node2</title>
<g id="a_node2"><a xlink:href="classpism_1_1options_1_1Option.html" target="_top" xlink:title=" ">
<polygon fill="none" stroke="black" points="0,-57.5 0,-87.5 162,-87.5 162,-57.5 0,-57.5"/>
<text text-anchor="start" x="8" y="-75.5" font-family="Helvetica,sans-Serif" font-size="10.00">pism::options::Option</text>
<text text-anchor="middle" x="81" y="-64.5" font-family="Helvetica,sans-Serif" font-size="10.00">&lt; std::vector&lt; std::string &gt; &gt;</text>
</a>
</g>
</g>
<!-- Node2&#45;&gt;Node1 -->
<g id="edge1" class="edge">
<title>Node2&#45;&gt;Node1</title>
<path fill="none" stroke="midnightblue" d="M81,-47.35C81,-37.51 81,-26.78 81,-19.54"/>
<polygon fill="midnightblue" stroke="midnightblue" points="77.5,-47.47 81,-57.47 84.5,-47.47 77.5,-47.47"/>
</g>
<!-- Node3 -->
<g id="node3" class="node">
<title>Node3</title>
<g id="a_node3"><a xlink:href="classpism_1_1options_1_1Option.html" target="_top" xlink:title="Template base class used by PISM&#39;s option&#45;processing classes.">
<polygon fill="none" stroke="black" points="6.5,-146.5 6.5,-165.5 155.5,-165.5 155.5,-146.5 6.5,-146.5"/>
<text text-anchor="middle" x="81" y="-153.5" font-family="Helvetica,sans-Serif" font-size="10.00">pism::options::Option&lt; T &gt;</text>
</a>
</g>
</g>
<!-- Node3&#45;&gt;Node2 -->
<g id="edge2" class="edge">
<title>Node3&#45;&gt;Node2</title>
<path fill="none" stroke="orange" stroke-dasharray="5,2" d="M81,-136.23C81,-121.41 81,-101.05 81,-87.6"/>
<polygon fill="orange" stroke="orange" points="77.5,-136.28 81,-146.28 84.5,-136.28 77.5,-136.28"/>
<text text-anchor="start" x="81" y="-120" font-family="Helvetica,sans-Serif" font-size="10.00"> &lt; std::vector&lt; std</text>
<text text-anchor="middle" x="127.5" y="-109" font-family="Helvetica,sans-Serif" font-size="10.00">::string &gt; &gt;</text>
</g>
</g>
</svg>
