<?xml version="1.0" encoding="UTF-8" standalone="no"?>
<!DOCTYPE svg PUBLIC "-//W3C//DTD SVG 1.1//EN"
 "http://www.w3.org/Graphics/SVG/1.1/DTD/svg11.dtd">
<!-- Generated by graphviz version 2.43.0 (0)
 -->
<!-- Title: pism::frontalmelt::diagnostics::FrontalMeltRate Pages: 1 -->
<svg width="262pt" height="355pt"
 viewBox="0.00 0.00 261.50 355.00" xmlns="http://www.w3.org/2000/svg" xmlns:xlink="http://www.w3.org/1999/xlink">
<g id="graph0" class="graph" transform="scale(1 1) rotate(0) translate(4 351)">
<title>pism::frontalmelt::diagnostics::FrontalMeltRate</title>
<!-- Node1 -->
<g id="node1" class="node">
<title>Node1</title>
<g id="a_node1"><a xlink:title="Report frontal melt rate.">
<polygon fill="#bfbfbf" stroke="black" points="0,-0.5 0,-30.5 156,-30.5 156,-0.5 0,-0.5"/>
<text text-anchor="start" x="8" y="-18.5" font-family="Helvetica,sans-Serif" font-size="10.00">pism::frontalmelt::</text>
<text text-anchor="middle" x="78" y="-7.5" font-family="Helvetica,sans-Serif" font-size="10.00">diagnostics::FrontalMeltRate</text>
</a>
</g>
</g>
<!-- Node2 -->
<g id="node2" class="node">
<title>Node2</title>
<g id="a_node2"><a xlink:href="classpism_1_1DiagAverageRate.html" target="_top" xlink:title=" ">
<polygon fill="none" stroke="black" points="12.5,-68.5 12.5,-98.5 143.5,-98.5 143.5,-68.5 12.5,-68.5"/>
<text text-anchor="start" x="20.5" y="-86.5" font-family="Helvetica,sans-Serif" font-size="10.00">pism::DiagAverageRate</text>
<text text-anchor="middle" x="78" y="-75.5" font-family="Helvetica,sans-Serif" font-size="10.00">&lt; FrontalMelt &gt;</text>
</a>
</g>
</g>
<!-- Node2&#45;&gt;Node1 -->
<g id="edge1" class="edge">
<title>Node2&#45;&gt;Node1</title>
<path fill="none" stroke="midnightblue" d="M78,-58.03C78,-48.86 78,-38.74 78,-30.79"/>
<polygon fill="midnightblue" stroke="midnightblue" points="74.5,-58.18 78,-68.18 81.5,-58.18 74.5,-58.18"/>
</g>
<!-- Node3 -->
<g id="node3" class="node">
<title>Node3</title>
<g id="a_node3"><a xlink:href="classpism_1_1Diag.html" target="_top" xlink:title="A template derived from Diagnostic, adding a &quot;Model&quot;.">
<polygon fill="none" stroke="black" points="11,-270.5 11,-289.5 133,-289.5 133,-270.5 11,-270.5"/>
<text text-anchor="middle" x="72" y="-277.5" font-family="Helvetica,sans-Serif" font-size="10.00">pism::Diag&lt; Model &gt;</text>
</a>
</g>
</g>
<!-- Node3&#45;&gt;Node2 -->
<g id="edge2" class="edge">
<title>Node3&#45;&gt;Node2</title>
<path fill="none" stroke="midnightblue" d="M72.59,-260.01C73.79,-221.11 76.5,-133.14 77.56,-98.7"/>
<polygon fill="midnightblue" stroke="midnightblue" points="69.08,-260.29 72.27,-270.39 76.07,-260.5 69.08,-260.29"/>
</g>
<!-- Node6 -->
<g id="node6" class="node">
<title>Node6</title>
<g id="a_node6"><a xlink:href="classpism_1_1Diag.html" target="_top" xlink:title=" ">
<polygon fill="none" stroke="black" points="110.5,-203.5 110.5,-222.5 211.5,-222.5 211.5,-203.5 110.5,-203.5"/>
<text text-anchor="middle" x="161" y="-210.5" font-family="Helvetica,sans-Serif" font-size="10.00">pism::Diag&lt; M &gt;</text>
</a>
</g>
</g>
<!-- Node3&#45;&gt;Node6 -->
<g id="edge7" class="edge">
<title>Node3&#45;&gt;Node6</title>
<path fill="none" stroke="orange" stroke-dasharray="5,2" d="M86.75,-263.23C93.97,-255.98 103.03,-247.56 112,-241 121.56,-234 133.14,-227.54 142.64,-222.7"/>
<polygon fill="orange" stroke="orange" points="84.17,-260.87 79.73,-270.49 89.2,-265.74 84.17,-260.87"/>
<text text-anchor="middle" x="129.5" y="-244" font-family="Helvetica,sans-Serif" font-size="10.00"> &lt; M &gt;</text>
</g>
<!-- Node4 -->
<g id="node4" class="node">
<title>Node4</title>
<g id="a_node4"><a xlink:href="classpism_1_1Diagnostic.html" target="_top" xlink:title="Class representing diagnostic computations in PISM.">
<polygon fill="none" stroke="black" points="67,-327.5 67,-346.5 165,-346.5 165,-327.5 67,-327.5"/>
<text text-anchor="middle" x="116" y="-334.5" font-family="Helvetica,sans-Serif" font-size="10.00">pism::Diagnostic</text>
</a>
</g>
</g>
<!-- Node4&#45;&gt;Node3 -->
<g id="edge3" class="edge">
<title>Node4&#45;&gt;Node3</title>
<path fill="none" stroke="midnightblue" d="M102.83,-319.53C94.99,-309.74 85.36,-297.7 78.97,-289.71"/>
<polygon fill="midnightblue" stroke="midnightblue" points="100.14,-321.78 109.12,-327.41 105.61,-317.41 100.14,-321.78"/>
</g>
<!-- Node4&#45;&gt;Node6 -->
<g id="edge6" class="edge">
<title>Node4&#45;&gt;Node6</title>
<path fill="none" stroke="midnightblue" d="M127.25,-318.7C132.32,-310.3 138.05,-299.9 142,-290 151.38,-266.5 157.16,-237.03 159.62,-222.67"/>
<polygon fill="midnightblue" stroke="midnightblue" points="124.27,-316.86 121.93,-327.2 130.2,-320.58 124.27,-316.86"/>
</g>
<!-- Node5 -->
<g id="node5" class="node">
<title>Node5</title>
<g id="a_node5"><a xlink:href="classpism_1_1DiagAverageRate.html" target="_top" xlink:title=" ">
<polygon fill="none" stroke="black" points="90.5,-146.5 90.5,-165.5 253.5,-165.5 253.5,-146.5 90.5,-146.5"/>
<text text-anchor="middle" x="172" y="-153.5" font-family="Helvetica,sans-Serif" font-size="10.00">pism::DiagAverageRate&lt; M &gt;</text>
</a>
</g>
</g>
<!-- Node5&#45;&gt;Node2 -->
<g id="edge4" class="edge">
<title>Node5&#45;&gt;Node2</title>
<path fill="none" stroke="orange" stroke-dasharray="5,2" d="M152.17,-140.13C135.83,-127.87 112.81,-110.61 96.77,-98.58"/>
<polygon fill="orange" stroke="orange" points="150.37,-143.16 160.47,-146.36 154.57,-137.56 150.37,-143.16"/>
<text text-anchor="middle" x="174" y="-120" font-family="Helvetica,sans-Serif" font-size="10.00"> &lt; FrontalMelt &gt;</text>
</g>
<!-- Node6&#45;&gt;Node5 -->
<g id="edge5" class="edge">
<title>Node6&#45;&gt;Node5</title>
<path fill="none" stroke="midnightblue" d="M164.72,-193.42C166.59,-184.05 168.77,-173.14 170.26,-165.71"/>
<polygon fill="midnightblue" stroke="midnightblue" points="161.25,-192.91 162.72,-203.41 168.11,-194.29 161.25,-192.91"/>
</g>
</g>
</svg>
