<?xml version="1.0" encoding="UTF-8" standalone="no"?>
<!DOCTYPE svg PUBLIC "-//W3C//DTD SVG 1.1//EN"
 "http://www.w3.org/Graphics/SVG/1.1/DTD/svg11.dtd">
<!-- Generated by graphviz version 2.43.0 (0)
 -->
<!-- Title: pism::stressbalance::SSB_Modifier Pages: 1 -->
<svg width="561pt" height="137pt"
 viewBox="0.00 0.00 561.00 137.00" xmlns="http://www.w3.org/2000/svg" xmlns:xlink="http://www.w3.org/1999/xlink">
<g id="graph0" class="graph" transform="scale(1 1) rotate(0) translate(4 133)">
<title>pism::stressbalance::SSB_Modifier</title>
<!-- Node1 -->
<g id="node1" class="node">
<title>Node1</title>
<g id="a_node1"><a xlink:title="Shallow stress balance modifier (such as the non&#45;sliding SIA).">
<polygon fill="#bfbfbf" stroke="black" points="139,-49.5 139,-79.5 253,-79.5 253,-49.5 139,-49.5"/>
<text text-anchor="start" x="147" y="-67.5" font-family="Helvetica,sans-Serif" font-size="10.00">pism::stressbalance</text>
<text text-anchor="middle" x="196" y="-56.5" font-family="Helvetica,sans-Serif" font-size="10.00">::SSB_Modifier</text>
</a>
</g>
</g>
<!-- Node3 -->
<g id="node3" class="node">
<title>Node3</title>
<g id="a_node3"><a xlink:href="classpism_1_1stressbalance_1_1BlatterMod.html" target="_top" xlink:title=" ">
<polygon fill="none" stroke="black" points="289,-98.5 289,-128.5 403,-128.5 403,-98.5 289,-98.5"/>
<text text-anchor="start" x="297" y="-116.5" font-family="Helvetica,sans-Serif" font-size="10.00">pism::stressbalance</text>
<text text-anchor="middle" x="346" y="-105.5" font-family="Helvetica,sans-Serif" font-size="10.00">::BlatterMod</text>
</a>
</g>
</g>
<!-- Node1&#45;&gt;Node3 -->
<g id="edge2" class="edge">
<title>Node1&#45;&gt;Node3</title>
<path fill="none" stroke="midnightblue" d="M252.15,-82.76C267.76,-87.93 284.57,-93.49 299.54,-98.45"/>
<polygon fill="midnightblue" stroke="midnightblue" points="253.21,-79.42 242.61,-79.6 251.01,-86.07 253.21,-79.42"/>
</g>
<!-- Node4 -->
<g id="node4" class="node">
<title>Node4</title>
<g id="a_node4"><a xlink:href="classpism_1_1stressbalance_1_1ConstantInColumn.html" target="_top" xlink:title="The trivial Shallow Stress Balance modifier.">
<polygon fill="none" stroke="black" points="289,-49.5 289,-79.5 403,-79.5 403,-49.5 289,-49.5"/>
<text text-anchor="start" x="297" y="-67.5" font-family="Helvetica,sans-Serif" font-size="10.00">pism::stressbalance</text>
<text text-anchor="middle" x="346" y="-56.5" font-family="Helvetica,sans-Serif" font-size="10.00">::ConstantInColumn</text>
</a>
</g>
</g>
<!-- Node1&#45;&gt;Node4 -->
<g id="edge3" class="edge">
<title>Node1&#45;&gt;Node4</title>
<path fill="none" stroke="midnightblue" d="M263.56,-64.5C271.98,-64.5 280.54,-64.5 288.78,-64.5"/>
<polygon fill="midnightblue" stroke="midnightblue" points="263.37,-61 253.37,-64.5 263.37,-68 263.37,-61"/>
</g>
<!-- Node5 -->
<g id="node5" class="node">
<title>Node5</title>
<g id="a_node5"><a xlink:href="classpism_1_1stressbalance_1_1SIAFD.html" target="_top" xlink:title=" ">
<polygon fill="none" stroke="black" points="289,-0.5 289,-30.5 403,-30.5 403,-0.5 289,-0.5"/>
<text text-anchor="start" x="297" y="-18.5" font-family="Helvetica,sans-Serif" font-size="10.00">pism::stressbalance</text>
<text text-anchor="middle" x="346" y="-7.5" font-family="Helvetica,sans-Serif" font-size="10.00">::SIAFD</text>
</a>
</g>
</g>
<!-- Node1&#45;&gt;Node5 -->
<g id="edge4" class="edge">
<title>Node1&#45;&gt;Node5</title>
<path fill="none" stroke="midnightblue" d="M252.15,-46.24C267.76,-41.07 284.57,-35.51 299.54,-30.55"/>
<polygon fill="midnightblue" stroke="midnightblue" points="251.01,-42.93 242.61,-49.4 253.21,-49.58 251.01,-42.93"/>
</g>
<!-- Node2 -->
<g id="node2" class="node">
<title>Node2</title>
<g id="a_node2"><a xlink:href="classpism_1_1Component.html" target="_top" xlink:title="A class defining a common interface for most PISM sub&#45;models.">
<polygon fill="none" stroke="black" points="0,-55 0,-74 103,-74 103,-55 0,-55"/>
<text text-anchor="middle" x="51.5" y="-62" font-family="Helvetica,sans-Serif" font-size="10.00">pism::Component</text>
</a>
</g>
</g>
<!-- Node2&#45;&gt;Node1 -->
<g id="edge1" class="edge">
<title>Node2&#45;&gt;Node1</title>
<path fill="none" stroke="midnightblue" d="M113.3,-64.5C121.73,-64.5 130.36,-64.5 138.71,-64.5"/>
<polygon fill="midnightblue" stroke="midnightblue" points="113.14,-61 103.14,-64.5 113.14,-68 113.14,-61"/>
</g>
<!-- Node6 -->
<g id="node6" class="node">
<title>Node6</title>
<g id="a_node6"><a xlink:href="classpism_1_1stressbalance_1_1SIAFD__Regional.html" target="_top" xlink:title="A version of the SIA stress balance with tweaks for outlet glacier simulations.">
<polygon fill="none" stroke="black" points="439,-0.5 439,-30.5 553,-30.5 553,-0.5 439,-0.5"/>
<text text-anchor="start" x="447" y="-18.5" font-family="Helvetica,sans-Serif" font-size="10.00">pism::stressbalance</text>
<text text-anchor="middle" x="496" y="-7.5" font-family="Helvetica,sans-Serif" font-size="10.00">::SIAFD_Regional</text>
</a>
</g>
</g>
<!-- Node5&#45;&gt;Node6 -->
<g id="edge5" class="edge">
<title>Node5&#45;&gt;Node6</title>
<path fill="none" stroke="midnightblue" d="M413.56,-15.5C421.98,-15.5 430.54,-15.5 438.78,-15.5"/>
<polygon fill="midnightblue" stroke="midnightblue" points="413.37,-12 403.37,-15.5 413.37,-19 413.37,-12"/>
</g>
</g>
</svg>
