<?xml version="1.0" encoding="UTF-8" standalone="no"?>
<!DOCTYPE svg PUBLIC "-//W3C//DTD SVG 1.1//EN"
 "http://www.w3.org/Graphics/SVG/1.1/DTD/svg11.dtd">
<!-- Generated by graphviz version 2.43.0 (0)
 -->
<!-- Title: pism::inverse::IP_L2NormFunctional2S Pages: 1 -->
<svg width="928pt" height="88pt"
 viewBox="0.00 0.00 928.00 88.00" xmlns="http://www.w3.org/2000/svg" xmlns:xlink="http://www.w3.org/1999/xlink">
<g id="graph0" class="graph" transform="scale(1 1) rotate(0) translate(4 84)">
<title>pism::inverse::IP_L2NormFunctional2S</title>
<!-- Node1 -->
<g id="node1" class="node">
<title>Node1</title>
<g id="a_node1"><a xlink:title="Implements a functional corresponding to (the square of) an &#160;norm of a scalar valued function.">
<polygon fill="#bfbfbf" stroke="black" points="779,-27.5 779,-57.5 920,-57.5 920,-27.5 779,-27.5"/>
<text text-anchor="start" x="787" y="-45.5" font-family="Helvetica,sans-Serif" font-size="10.00">pism::inverse::IP_L2Norm</text>
<text text-anchor="middle" x="849.5" y="-34.5" font-family="Helvetica,sans-Serif" font-size="10.00">Functional2S</text>
</a>
</g>
</g>
<!-- Node2 -->
<g id="node2" class="node">
<title>Node2</title>
<g id="a_node2"><a xlink:href="classpism_1_1inverse_1_1IPInnerProductFunctional.html" target="_top" xlink:title=" ">
<polygon fill="none" stroke="black" points="579,-27.5 579,-57.5 742,-57.5 742,-27.5 579,-27.5"/>
<text text-anchor="start" x="587" y="-45.5" font-family="Helvetica,sans-Serif" font-size="10.00">pism::inverse::IPInnerProduct</text>
<text text-anchor="middle" x="660.5" y="-34.5" font-family="Helvetica,sans-Serif" font-size="10.00">Functional&lt; IceModelVec2S &gt;</text>
</a>
</g>
</g>
<!-- Node2&#45;&gt;Node1 -->
<g id="edge1" class="edge">
<title>Node2&#45;&gt;Node1</title>
<path fill="none" stroke="midnightblue" d="M752.27,-42.5C761.24,-42.5 770.26,-42.5 778.97,-42.5"/>
<polygon fill="midnightblue" stroke="midnightblue" points="752.16,-39 742.16,-42.5 752.16,-46 752.16,-39"/>
</g>
<!-- Node3 -->
<g id="node3" class="node">
<title>Node3</title>
<g id="a_node3"><a xlink:href="classpism_1_1inverse_1_1IPFunctional.html" target="_top" xlink:title=" ">
<polygon fill="none" stroke="black" points="289.5,-49.5 289.5,-79.5 437.5,-79.5 437.5,-49.5 289.5,-49.5"/>
<text text-anchor="start" x="297.5" y="-67.5" font-family="Helvetica,sans-Serif" font-size="10.00">pism::inverse::IPFunctional</text>
<text text-anchor="middle" x="363.5" y="-56.5" font-family="Helvetica,sans-Serif" font-size="10.00">&lt; IceModelVec2S &gt;</text>
</a>
</g>
</g>
<!-- Node3&#45;&gt;Node2 -->
<g id="edge2" class="edge">
<title>Node3&#45;&gt;Node2</title>
<path fill="none" stroke="midnightblue" d="M447.77,-58.29C488.82,-55.23 538.1,-51.55 578.79,-48.52"/>
<polygon fill="midnightblue" stroke="midnightblue" points="447.51,-54.8 437.8,-59.03 448.03,-61.78 447.51,-54.8"/>
</g>
<!-- Node4 -->
<g id="node4" class="node">
<title>Node4</title>
<g id="a_node4"><a xlink:href="classpism_1_1inverse_1_1IPFunctional.html" target="_top" xlink:title="Abstract base class for functions from ice model vectors to .">
<polygon fill="none" stroke="black" points="0,-24.5 0,-54.5 148,-54.5 148,-24.5 0,-24.5"/>
<text text-anchor="start" x="8" y="-42.5" font-family="Helvetica,sans-Serif" font-size="10.00">pism::inverse::IPFunctional</text>
<text text-anchor="middle" x="74" y="-31.5" font-family="Helvetica,sans-Serif" font-size="10.00">&lt; IMVecType &gt;</text>
</a>
</g>
</g>
<!-- Node4&#45;&gt;Node3 -->
<g id="edge3" class="edge">
<title>Node4&#45;&gt;Node3</title>
<path fill="none" stroke="orange" stroke-dasharray="5,2" d="M158.36,-46.75C199.79,-50.35 249.4,-54.67 289.34,-58.14"/>
<polygon fill="orange" stroke="orange" points="158.56,-43.25 148.29,-45.87 157.95,-50.23 158.56,-43.25"/>
<text text-anchor="middle" x="216" y="-58.5" font-family="Helvetica,sans-Serif" font-size="10.00"> &lt; IceModelVec2S &gt;</text>
</g>
<!-- Node5 -->
<g id="node5" class="node">
<title>Node5</title>
<g id="a_node5"><a xlink:href="classpism_1_1inverse_1_1IPInnerProductFunctional.html" target="_top" xlink:title="Abstract base class for IPFunctionals arising from an inner product.">
<polygon fill="none" stroke="black" points="284,-0.5 284,-30.5 443,-30.5 443,-0.5 284,-0.5"/>
<text text-anchor="start" x="292" y="-18.5" font-family="Helvetica,sans-Serif" font-size="10.00">pism::inverse::IPInnerProduct</text>
<text text-anchor="middle" x="363.5" y="-7.5" font-family="Helvetica,sans-Serif" font-size="10.00">Functional&lt; IMVecType &gt;</text>
</a>
</g>
</g>
<!-- Node4&#45;&gt;Node5 -->
<g id="edge5" class="edge">
<title>Node4&#45;&gt;Node5</title>
<path fill="none" stroke="midnightblue" d="M158.43,-32.54C197.95,-29.24 244.9,-25.32 283.8,-22.07"/>
<polygon fill="midnightblue" stroke="midnightblue" points="157.97,-29.06 148.29,-33.38 158.55,-36.04 157.97,-29.06"/>
</g>
<!-- Node5&#45;&gt;Node2 -->
<g id="edge4" class="edge">
<title>Node5&#45;&gt;Node2</title>
<path fill="none" stroke="orange" stroke-dasharray="5,2" d="M453.17,-23.62C493.16,-27.28 540.04,-31.57 579,-35.13"/>
<polygon fill="orange" stroke="orange" points="453.44,-20.13 443.17,-22.7 452.81,-27.1 453.44,-20.13"/>
<text text-anchor="middle" x="511" y="-35.5" font-family="Helvetica,sans-Serif" font-size="10.00"> &lt; IceModelVec2S &gt;</text>
</g>
</g>
</svg>
