<?xml version="1.0" encoding="UTF-8" standalone="no"?>
<!DOCTYPE svg PUBLIC "-//W3C//DTD SVG 1.1//EN"
 "http://www.w3.org/Graphics/SVG/1.1/DTD/svg11.dtd">
<!-- Generated by graphviz version 2.43.0 (0)
 -->
<!-- Title: pism::energy::BedThermalUnit Pages: 1 -->
<svg width="325pt" height="196pt"
 viewBox="0.00 0.00 324.50 196.00" xmlns="http://www.w3.org/2000/svg" xmlns:xlink="http://www.w3.org/1999/xlink">
<g id="graph0" class="graph" transform="scale(1 1) rotate(0) translate(4 192)">
<title>pism::energy::BedThermalUnit</title>
<!-- Node1 -->
<g id="node1" class="node">
<title>Node1</title>
<g id="a_node1"><a xlink:title="Given the temperature of the top of the bedrock, for the duration of one time&#45;step,...">
<polygon fill="#bfbfbf" stroke="black" points="79.5,-112.5 79.5,-131.5 244.5,-131.5 244.5,-112.5 79.5,-112.5"/>
<text text-anchor="middle" x="162" y="-119.5" font-family="Helvetica,sans-Serif" font-size="10.00">pism::energy::BedThermalUnit</text>
</a>
</g>
</g>
<!-- Node3 -->
<g id="node3" class="node">
<title>Node3</title>
<g id="a_node3"><a xlink:href="classpism_1_1energy_1_1BTU__Full.html" target="_top" xlink:title="Given the temperature of the top of the bedrock, for the duration of one time&#45;step,...">
<polygon fill="none" stroke="black" points="19,-56.5 19,-75.5 147,-75.5 147,-56.5 19,-56.5"/>
<text text-anchor="middle" x="83" y="-63.5" font-family="Helvetica,sans-Serif" font-size="10.00">pism::energy::BTU_Full</text>
</a>
</g>
</g>
<!-- Node1&#45;&gt;Node3 -->
<g id="edge2" class="edge">
<title>Node1&#45;&gt;Node3</title>
<path fill="none" stroke="midnightblue" d="M140.97,-106.62C126.53,-96.76 107.86,-83.99 95.66,-75.65"/>
<polygon fill="midnightblue" stroke="midnightblue" points="139.08,-109.57 149.31,-112.32 143.03,-103.79 139.08,-109.57"/>
</g>
<!-- Node5 -->
<g id="node5" class="node">
<title>Node5</title>
<g id="a_node5"><a xlink:href="classpism_1_1energy_1_1BTU__Minimal.html" target="_top" xlink:title=" ">
<polygon fill="none" stroke="black" points="165.5,-56.5 165.5,-75.5 316.5,-75.5 316.5,-56.5 165.5,-56.5"/>
<text text-anchor="middle" x="241" y="-63.5" font-family="Helvetica,sans-Serif" font-size="10.00">pism::energy::BTU_Minimal</text>
</a>
</g>
</g>
<!-- Node1&#45;&gt;Node5 -->
<g id="edge4" class="edge">
<title>Node1&#45;&gt;Node5</title>
<path fill="none" stroke="midnightblue" d="M183.03,-106.62C197.47,-96.76 216.14,-83.99 228.34,-75.65"/>
<polygon fill="midnightblue" stroke="midnightblue" points="180.97,-103.79 174.69,-112.32 184.92,-109.57 180.97,-103.79"/>
</g>
<!-- Node2 -->
<g id="node2" class="node">
<title>Node2</title>
<g id="a_node2"><a xlink:href="classpism_1_1Component.html" target="_top" xlink:title="A class defining a common interface for most PISM sub&#45;models.">
<polygon fill="none" stroke="black" points="110.5,-168.5 110.5,-187.5 213.5,-187.5 213.5,-168.5 110.5,-168.5"/>
<text text-anchor="middle" x="162" y="-175.5" font-family="Helvetica,sans-Serif" font-size="10.00">pism::Component</text>
</a>
</g>
</g>
<!-- Node2&#45;&gt;Node1 -->
<g id="edge1" class="edge">
<title>Node2&#45;&gt;Node1</title>
<path fill="none" stroke="midnightblue" d="M162,-157.8C162,-148.91 162,-138.78 162,-131.75"/>
<polygon fill="midnightblue" stroke="midnightblue" points="158.5,-158.08 162,-168.08 165.5,-158.08 158.5,-158.08"/>
</g>
<!-- Node4 -->
<g id="node4" class="node">
<title>Node4</title>
<g id="a_node4"><a xlink:href="classpism_1_1energy_1_1BTU__Verification.html" target="_top" xlink:title=" ">
<polygon fill="none" stroke="black" points="0,-0.5 0,-19.5 166,-19.5 166,-0.5 0,-0.5"/>
<text text-anchor="middle" x="83" y="-7.5" font-family="Helvetica,sans-Serif" font-size="10.00">pism::energy::BTU_Verification</text>
</a>
</g>
</g>
<!-- Node3&#45;&gt;Node4 -->
<g id="edge3" class="edge">
<title>Node3&#45;&gt;Node4</title>
<path fill="none" stroke="midnightblue" d="M83,-45.8C83,-36.91 83,-26.78 83,-19.75"/>
<polygon fill="midnightblue" stroke="midnightblue" points="79.5,-46.08 83,-56.08 86.5,-46.08 79.5,-46.08"/>
</g>
</g>
</svg>
