<?xml version="1.0" encoding="UTF-8" standalone="no"?>
<!DOCTYPE svg PUBLIC "-//W3C//DTD SVG 1.1//EN"
 "http://www.w3.org/Graphics/SVG/1.1/DTD/svg11.dtd">
<!-- Generated by graphviz version 2.43.0 (0)
 -->
<!-- Title: pism::energy::BTU_geothermal_flux_at_ground_level Pages: 1 -->
<svg width="240pt" height="220pt"
 viewBox="0.00 0.00 239.50 220.00" xmlns="http://www.w3.org/2000/svg" xmlns:xlink="http://www.w3.org/1999/xlink">
<g id="graph0" class="graph" transform="scale(1 1) rotate(0) translate(4 216)">
<title>pism::energy::BTU_geothermal_flux_at_ground_level</title>
<!-- Node1 -->
<g id="node1" class="node">
<title>Node1</title>
<g id="a_node1"><a xlink:title=" ">
<polygon fill="#bfbfbf" stroke="black" points="2,-0.5 2,-30.5 169,-30.5 169,-0.5 2,-0.5"/>
<text text-anchor="start" x="10" y="-18.5" font-family="Helvetica,sans-Serif" font-size="10.00">pism::energy::BTU_geothermal</text>
<text text-anchor="middle" x="85.5" y="-7.5" font-family="Helvetica,sans-Serif" font-size="10.00">_flux_at_ground_level</text>
</a>
</g>
</g>
<!-- Node2 -->
<g id="node2" class="node">
<title>Node2</title>
<g id="a_node2"><a xlink:href="classpism_1_1Diag.html" target="_top" xlink:title=" ">
<polygon fill="none" stroke="black" points="0,-68.5 0,-87.5 171,-87.5 171,-68.5 0,-68.5"/>
<text text-anchor="middle" x="85.5" y="-75.5" font-family="Helvetica,sans-Serif" font-size="10.00">pism::Diag&lt; BedThermalUnit &gt;</text>
</a>
</g>
</g>
<!-- Node2&#45;&gt;Node1 -->
<g id="edge1" class="edge">
<title>Node2&#45;&gt;Node1</title>
<path fill="none" stroke="midnightblue" d="M85.5,-58.22C85.5,-49.36 85.5,-38.96 85.5,-30.76"/>
<polygon fill="midnightblue" stroke="midnightblue" points="82,-58.33 85.5,-68.33 89,-58.33 82,-58.33"/>
</g>
<!-- Node3 -->
<g id="node3" class="node">
<title>Node3</title>
<g id="a_node3"><a xlink:href="classpism_1_1Diagnostic.html" target="_top" xlink:title="Class representing diagnostic computations in PISM.">
<polygon fill="none" stroke="black" points="32.5,-192.5 32.5,-211.5 130.5,-211.5 130.5,-192.5 32.5,-192.5"/>
<text text-anchor="middle" x="81.5" y="-199.5" font-family="Helvetica,sans-Serif" font-size="10.00">pism::Diagnostic</text>
</a>
</g>
</g>
<!-- Node3&#45;&gt;Node2 -->
<g id="edge2" class="edge">
<title>Node3&#45;&gt;Node2</title>
<path fill="none" stroke="midnightblue" d="M82.12,-182.19C83,-155.4 84.57,-107.31 85.21,-87.69"/>
<polygon fill="midnightblue" stroke="midnightblue" points="78.62,-182.12 81.79,-192.23 85.61,-182.35 78.62,-182.12"/>
</g>
<!-- Node4 -->
<g id="node4" class="node">
<title>Node4</title>
<g id="a_node4"><a xlink:href="classpism_1_1Diag.html" target="_top" xlink:title="A template derived from Diagnostic, adding a &quot;Model&quot;.">
<polygon fill="none" stroke="black" points="97.5,-135.5 97.5,-154.5 219.5,-154.5 219.5,-135.5 97.5,-135.5"/>
<text text-anchor="middle" x="158.5" y="-142.5" font-family="Helvetica,sans-Serif" font-size="10.00">pism::Diag&lt; Model &gt;</text>
</a>
</g>
</g>
<!-- Node3&#45;&gt;Node4 -->
<g id="edge4" class="edge">
<title>Node3&#45;&gt;Node4</title>
<path fill="none" stroke="midnightblue" d="M101.75,-186.54C116,-176.35 134.61,-163.07 146.55,-154.53"/>
<polygon fill="midnightblue" stroke="midnightblue" points="99.63,-183.75 93.53,-192.41 103.7,-189.44 99.63,-183.75"/>
</g>
<!-- Node4&#45;&gt;Node2 -->
<g id="edge3" class="edge">
<title>Node4&#45;&gt;Node2</title>
<path fill="none" stroke="orange" stroke-dasharray="5,2" d="M140.93,-128.36C126.58,-115.58 106.83,-97.99 95.19,-87.63"/>
<polygon fill="orange" stroke="orange" points="138.86,-131.2 148.65,-135.23 143.51,-125.97 138.86,-131.2"/>
<text text-anchor="middle" x="178.5" y="-109" font-family="Helvetica,sans-Serif" font-size="10.00"> &lt; BedThermalUnit &gt;</text>
</g>
</g>
</svg>
