<?xml version="1.0" encoding="UTF-8" standalone="no"?>
<!DOCTYPE svg PUBLIC "-//W3C//DTD SVG 1.1//EN"
 "http://www.w3.org/Graphics/SVG/1.1/DTD/svg11.dtd">
<!-- Generated by graphviz version 2.43.0 (0)
 -->
<!-- Title: pism::PetscAccessible Pages: 1 -->
<svg width="1180pt" height="283pt"
 viewBox="0.00 0.00 1180.00 283.00" xmlns="http://www.w3.org/2000/svg" xmlns:xlink="http://www.w3.org/1999/xlink">
<g id="graph0" class="graph" transform="scale(1 1) rotate(0) translate(4 279)">
<title>pism::PetscAccessible</title>
<!-- Node1 -->
<g id="node1" class="node">
<title>Node1</title>
<g id="a_node1"><a xlink:title=" ">
<polygon fill="#bfbfbf" stroke="black" points="0,-46.5 0,-65.5 125,-65.5 125,-46.5 0,-46.5"/>
<text text-anchor="middle" x="62.5" y="-53.5" font-family="Helvetica,sans-Serif" font-size="10.00">pism::PetscAccessible</text>
</a>
</g>
</g>
<!-- Node2 -->
<g id="node2" class="node">
<title>Node2</title>
<g id="a_node2"><a xlink:href="classpism_1_1IceModelVec.html" target="_top" xlink:title="Abstract class for reading, writing, allocating, and accessing a DA&#45;based PETSc Vec (2D and 3D fields...">
<polygon fill="none" stroke="black" points="187,-72.5 187,-91.5 295,-91.5 295,-72.5 187,-72.5"/>
<text text-anchor="middle" x="241" y="-79.5" font-family="Helvetica,sans-Serif" font-size="10.00">pism::IceModelVec</text>
</a>
</g>
</g>
<!-- Node1&#45;&gt;Node2 -->
<g id="edge1" class="edge">
<title>Node1&#45;&gt;Node2</title>
<path fill="none" stroke="midnightblue" d="M135.26,-66.57C152.49,-69.11 170.59,-71.78 186.81,-74.16"/>
<polygon fill="midnightblue" stroke="midnightblue" points="135.63,-63.09 125.23,-65.09 134.61,-70.01 135.63,-63.09"/>
</g>
<!-- Node15 -->
<g id="node15" class="node">
<title>Node15</title>
<g id="a_node15"><a xlink:href="structpism_1_1icebin_1_1MassEnthVec2S.html" target="_top" xlink:title=" ">
<polygon fill="none" stroke="black" points="162,-34.5 162,-53.5 320,-53.5 320,-34.5 162,-34.5"/>
<text text-anchor="middle" x="241" y="-41.5" font-family="Helvetica,sans-Serif" font-size="10.00">pism::icebin::MassEnthVec2S</text>
</a>
</g>
</g>
<!-- Node1&#45;&gt;Node15 -->
<g id="edge17" class="edge">
<title>Node1&#45;&gt;Node15</title>
<path fill="none" stroke="midnightblue" d="M135.36,-51.11C144.09,-50.52 153.04,-49.91 161.86,-49.31"/>
<polygon fill="midnightblue" stroke="midnightblue" points="134.97,-47.63 125.23,-51.8 135.45,-54.62 134.97,-47.63"/>
</g>
<!-- Node3 -->
<g id="node3" class="node">
<title>Node3</title>
<g id="a_node3"><a xlink:href="classpism_1_1IceModelVec2.html" target="_top" xlink:title=" ">
<polygon fill="none" stroke="black" points="357,-95.5 357,-114.5 471,-114.5 471,-95.5 357,-95.5"/>
<text text-anchor="middle" x="414" y="-102.5" font-family="Helvetica,sans-Serif" font-size="10.00">pism::IceModelVec2</text>
</a>
</g>
</g>
<!-- Node2&#45;&gt;Node3 -->
<g id="edge2" class="edge">
<title>Node2&#45;&gt;Node3</title>
<path fill="none" stroke="midnightblue" d="M305.49,-90.54C322.36,-92.81 340.46,-95.24 356.9,-97.46"/>
<polygon fill="midnightblue" stroke="midnightblue" points="305.55,-87.02 295.17,-89.15 304.61,-93.95 305.55,-87.02"/>
</g>
<!-- Node14 -->
<g id="node14" class="node">
<title>Node14</title>
<g id="a_node14"><a xlink:href="classpism_1_1IceModelVec3.html" target="_top" xlink:title="A virtual class collecting methods common to ice and bedrock 3D fields.">
<polygon fill="none" stroke="black" points="357,-57.5 357,-76.5 471,-76.5 471,-57.5 357,-57.5"/>
<text text-anchor="middle" x="414" y="-64.5" font-family="Helvetica,sans-Serif" font-size="10.00">pism::IceModelVec3</text>
</a>
</g>
</g>
<!-- Node2&#45;&gt;Node14 -->
<g id="edge16" class="edge">
<title>Node2&#45;&gt;Node14</title>
<path fill="none" stroke="midnightblue" d="M305.49,-76.43C322.36,-74.95 340.46,-73.36 356.9,-71.92"/>
<polygon fill="midnightblue" stroke="midnightblue" points="304.82,-72.98 295.17,-77.34 305.44,-79.95 304.82,-72.98"/>
</g>
<!-- Node4 -->
<g id="node4" class="node">
<title>Node4</title>
<g id="a_node4"><a xlink:href="classpism_1_1IceModelVec2Struct.html" target="_top" xlink:title=" ">
<polygon fill="none" stroke="black" points="837,-233.5 837,-274.5 980,-274.5 980,-233.5 837,-233.5"/>
<text text-anchor="start" x="845" y="-262.5" font-family="Helvetica,sans-Serif" font-size="10.00">pism::IceModelVec2Struct</text>
<text text-anchor="start" x="845" y="-251.5" font-family="Helvetica,sans-Serif" font-size="10.00">&lt; pism::stressbalance::</text>
<text text-anchor="middle" x="908.5" y="-240.5" font-family="Helvetica,sans-Serif" font-size="10.00">SSAFEM::Coefficients &gt;</text>
</a>
</g>
</g>
<!-- Node3&#45;&gt;Node4 -->
<g id="edge3" class="edge">
<title>Node3&#45;&gt;Node4</title>
<path fill="none" stroke="midnightblue" d="M426.51,-123.18C442.13,-146.37 472.26,-186.09 508,-208 609.19,-270.03 752.16,-269.96 836.79,-262.92"/>
<polygon fill="midnightblue" stroke="midnightblue" points="429.31,-121.07 420.9,-114.63 423.45,-124.91 429.31,-121.07"/>
</g>
<!-- Node5 -->
<g id="node5" class="node">
<title>Node5</title>
<g id="a_node5"><a xlink:href="classpism_1_1IceModelVec2Struct.html" target="_top" xlink:title=" ">
<polygon fill="none" stroke="black" points="837,-179 837,-209 980,-209 980,-179 837,-179"/>
<text text-anchor="start" x="845" y="-197" font-family="Helvetica,sans-Serif" font-size="10.00">pism::IceModelVec2Struct</text>
<text text-anchor="middle" x="908.5" y="-186" font-family="Helvetica,sans-Serif" font-size="10.00">&lt; Vector2 &gt;</text>
</a>
</g>
</g>
<!-- Node3&#45;&gt;Node5 -->
<g id="edge4" class="edge">
<title>Node3&#45;&gt;Node5</title>
<path fill="none" stroke="midnightblue" d="M481.4,-109.78C594.14,-117.98 811.58,-134.21 819,-138 829.95,-143.59 827.3,-151.45 837,-159 847.03,-166.81 859.07,-173.56 870.35,-179"/>
<polygon fill="midnightblue" stroke="midnightblue" points="481.39,-106.27 471.16,-109.03 480.88,-113.25 481.39,-106.27"/>
</g>
<!-- Node7 -->
<g id="node7" class="node">
<title>Node7</title>
<g id="a_node7"><a xlink:href="classpism_1_1IceModelVec2Struct.html" target="_top" xlink:title=" ">
<polygon fill="none" stroke="black" points="837,-108.5 837,-149.5 980,-149.5 980,-108.5 837,-108.5"/>
<text text-anchor="start" x="845" y="-137.5" font-family="Helvetica,sans-Serif" font-size="10.00">pism::IceModelVec2Struct</text>
<text text-anchor="start" x="845" y="-126.5" font-family="Helvetica,sans-Serif" font-size="10.00">&lt; pism::stressbalance::</text>
<text text-anchor="middle" x="908.5" y="-115.5" font-family="Helvetica,sans-Serif" font-size="10.00">Blatter::Parameters &gt;</text>
</a>
</g>
</g>
<!-- Node3&#45;&gt;Node7 -->
<g id="edge6" class="edge">
<title>Node3&#45;&gt;Node7</title>
<path fill="none" stroke="midnightblue" d="M481.55,-101.79C561.83,-98.84 700.76,-96.71 819,-110 824.78,-110.65 830.73,-111.51 836.7,-112.5"/>
<polygon fill="midnightblue" stroke="midnightblue" points="480.95,-98.31 471.09,-102.19 481.22,-105.3 480.95,-98.31"/>
</g>
<!-- Node8 -->
<g id="node8" class="node">
<title>Node8</title>
<g id="a_node8"><a xlink:href="classpism_1_1IceModelVec2S.html" target="_top" xlink:title=" ">
<polygon fill="none" stroke="black" points="533.5,-38.5 533.5,-57.5 653.5,-57.5 653.5,-38.5 533.5,-38.5"/>
<text text-anchor="middle" x="593.5" y="-45.5" font-family="Helvetica,sans-Serif" font-size="10.00">pism::IceModelVec2S</text>
</a>
</g>
</g>
<!-- Node3&#45;&gt;Node8 -->
<g id="edge7" class="edge">
<title>Node3&#45;&gt;Node8</title>
<path fill="none" stroke="midnightblue" d="M458.61,-91.82C462.88,-90.05 467.08,-88.11 471,-86 479.92,-81.19 479.85,-76.36 489,-72 502.74,-65.46 518.37,-60.64 533.25,-57.11"/>
<polygon fill="midnightblue" stroke="midnightblue" points="457.32,-88.57 449.23,-95.41 459.82,-95.11 457.32,-88.57"/>
</g>
<!-- Node12 -->
<g id="node12" class="node">
<title>Node12</title>
<g id="a_node12"><a xlink:href="classpism_1_1IceModelVec2Stag.html" target="_top" xlink:title="A class for storing and accessing internal staggered&#45;grid 2D fields. Uses dof=2 storage....">
<polygon fill="none" stroke="black" points="525.5,-0.5 525.5,-19.5 661.5,-19.5 661.5,-0.5 525.5,-0.5"/>
<text text-anchor="middle" x="593.5" y="-7.5" font-family="Helvetica,sans-Serif" font-size="10.00">pism::IceModelVec2Stag</text>
</a>
</g>
</g>
<!-- Node3&#45;&gt;Node12 -->
<g id="edge11" class="edge">
<title>Node3&#45;&gt;Node12</title>
<path fill="none" stroke="midnightblue" d="M463.57,-90.92C466.18,-89.44 468.68,-87.8 471,-86 494.84,-67.46 483.21,-46.26 508,-29 513.55,-25.13 519.77,-22.04 526.23,-19.57"/>
<polygon fill="midnightblue" stroke="midnightblue" points="461.82,-87.88 454.37,-95.42 464.89,-94.18 461.82,-87.88"/>
</g>
<!-- Node13 -->
<g id="node13" class="node">
<title>Node13</title>
<g id="a_node13"><a xlink:href="classpism_1_1IceModelVec2Struct.html" target="_top" xlink:title="A storage vector combining related fields in a struct.">
<polygon fill="none" stroke="black" points="508,-179.5 508,-198.5 679,-198.5 679,-179.5 508,-179.5"/>
<text text-anchor="middle" x="593.5" y="-186.5" font-family="Helvetica,sans-Serif" font-size="10.00">pism::IceModelVec2Struct&lt; T &gt;</text>
</a>
</g>
</g>
<!-- Node3&#45;&gt;Node13 -->
<g id="edge12" class="edge">
<title>Node3&#45;&gt;Node13</title>
<path fill="none" stroke="midnightblue" d="M444.45,-118.93C480.64,-136.06 541.09,-164.67 572.38,-179.48"/>
<polygon fill="midnightblue" stroke="midnightblue" points="445.9,-115.75 435.36,-114.64 442.9,-122.08 445.9,-115.75"/>
</g>
<!-- Node6 -->
<g id="node6" class="node">
<title>Node6</title>
<g id="a_node6"><a xlink:href="classpism_1_1IceModelVec2V.html" target="_top" xlink:title=" ">
<polygon fill="none" stroke="black" points="1034,-184.5 1034,-203.5 1155,-203.5 1155,-184.5 1034,-184.5"/>
<text text-anchor="middle" x="1094.5" y="-191.5" font-family="Helvetica,sans-Serif" font-size="10.00">pism::IceModelVec2V</text>
</a>
</g>
</g>
<!-- Node5&#45;&gt;Node6 -->
<g id="edge5" class="edge">
<title>Node5&#45;&gt;Node6</title>
<path fill="none" stroke="midnightblue" d="M990.19,-194C1004.86,-194 1019.92,-194 1033.85,-194"/>
<polygon fill="midnightblue" stroke="midnightblue" points="990.11,-190.5 980.11,-194 990.11,-197.5 990.11,-190.5"/>
</g>
<!-- Node9 -->
<g id="node9" class="node">
<title>Node9</title>
<g id="a_node9"><a xlink:href="classpism_1_1IceModelVec2Int.html" target="_top" xlink:title="A simple class &quot;hiding&quot; the fact that the mask is stored as floating&#45;point scalars (instead of intege...">
<polygon fill="none" stroke="black" points="845,-50.5 845,-69.5 972,-69.5 972,-50.5 845,-50.5"/>
<text text-anchor="middle" x="908.5" y="-57.5" font-family="Helvetica,sans-Serif" font-size="10.00">pism::IceModelVec2Int</text>
</a>
</g>
</g>
<!-- Node8&#45;&gt;Node9 -->
<g id="edge8" class="edge">
<title>Node8&#45;&gt;Node9</title>
<path fill="none" stroke="midnightblue" d="M663.93,-50.66C718.01,-52.74 792.44,-55.59 844.74,-57.59"/>
<polygon fill="midnightblue" stroke="midnightblue" points="663.87,-47.16 653.74,-50.27 663.6,-54.15 663.87,-47.16"/>
</g>
<!-- Node11 -->
<g id="node11" class="node">
<title>Node11</title>
<g id="a_node11"><a xlink:href="classpism_1_1IceModelVec2T.html" target="_top" xlink:title="A class for storing and accessing 2D time&#45;series (for climate forcing)">
<polygon fill="none" stroke="black" points="848.5,-12.5 848.5,-31.5 968.5,-31.5 968.5,-12.5 848.5,-12.5"/>
<text text-anchor="middle" x="908.5" y="-19.5" font-family="Helvetica,sans-Serif" font-size="10.00">pism::IceModelVec2T</text>
</a>
</g>
</g>
<!-- Node8&#45;&gt;Node11 -->
<g id="edge10" class="edge">
<title>Node8&#45;&gt;Node11</title>
<path fill="none" stroke="midnightblue" d="M663.81,-42.24C719.11,-37.65 795.76,-31.28 848.24,-26.92"/>
<polygon fill="midnightblue" stroke="midnightblue" points="663.42,-38.76 653.74,-43.08 664,-45.74 663.42,-38.76"/>
</g>
<!-- Node10 -->
<g id="node10" class="node">
<title>Node10</title>
<g id="a_node10"><a xlink:href="classpism_1_1IceModelVec2CellType.html" target="_top" xlink:title="&quot;Cell type&quot; mask. Adds convenience methods to IceModelVec2Int.">
<polygon fill="none" stroke="black" points="1017,-50.5 1017,-69.5 1172,-69.5 1172,-50.5 1017,-50.5"/>
<text text-anchor="middle" x="1094.5" y="-57.5" font-family="Helvetica,sans-Serif" font-size="10.00">pism::IceModelVec2CellType</text>
</a>
</g>
</g>
<!-- Node9&#45;&gt;Node10 -->
<g id="edge9" class="edge">
<title>Node9&#45;&gt;Node10</title>
<path fill="none" stroke="midnightblue" d="M982.32,-60C993.64,-60 1005.37,-60 1016.78,-60"/>
<polygon fill="midnightblue" stroke="midnightblue" points="982.05,-56.5 972.05,-60 982.05,-63.5 982.05,-56.5"/>
</g>
<!-- Node13&#45;&gt;Node4 -->
<g id="edge13" class="edge">
<title>Node13&#45;&gt;Node4</title>
<path fill="none" stroke="orange" stroke-dasharray="5,2" d="M650.42,-200.61C702.54,-211.44 780.51,-227.63 836.91,-239.34"/>
<polygon fill="orange" stroke="orange" points="650.85,-197.13 640.35,-198.52 649.43,-203.98 650.85,-197.13"/>
<text text-anchor="start" x="697" y="-248" font-family="Helvetica,sans-Serif" font-size="10.00"> &lt; pism::stressbalance</text>
<text text-anchor="middle" x="758" y="-237" font-family="Helvetica,sans-Serif" font-size="10.00">::SSAFEM::Coefficients &gt;</text>
</g>
<!-- Node13&#45;&gt;Node5 -->
<g id="edge14" class="edge">
<title>Node13&#45;&gt;Node5</title>
<path fill="none" stroke="orange" stroke-dasharray="5,2" d="M689.48,-190.52C736.88,-191.27 793.22,-192.17 836.76,-192.87"/>
<polygon fill="orange" stroke="orange" points="689.26,-187.01 679.2,-190.35 689.15,-194.01 689.26,-187.01"/>
<text text-anchor="middle" x="758" y="-195" font-family="Helvetica,sans-Serif" font-size="10.00"> &lt; Vector2 &gt;</text>
</g>
<!-- Node13&#45;&gt;Node7 -->
<g id="edge15" class="edge">
<title>Node13&#45;&gt;Node7</title>
<path fill="none" stroke="orange" stroke-dasharray="5,2" d="M640.86,-176.92C658.39,-172.55 678.55,-167.78 697,-164 743.27,-154.52 795.67,-145.8 836.61,-139.44"/>
<polygon fill="orange" stroke="orange" points="639.72,-173.59 630.88,-179.43 641.43,-180.38 639.72,-173.59"/>
<text text-anchor="start" x="702" y="-178" font-family="Helvetica,sans-Serif" font-size="10.00"> &lt; pism::stressbalance</text>
<text text-anchor="middle" x="758" y="-167" font-family="Helvetica,sans-Serif" font-size="10.00">::Blatter::Parameters &gt;</text>
</g>
</g>
</svg>
