<?xml version="1.0" encoding="UTF-8" standalone="no"?>
<!DOCTYPE svg PUBLIC "-//W3C//DTD SVG 1.1//EN"
 "http://www.w3.org/Graphics/SVG/1.1/DTD/svg11.dtd">
<!-- Generated by graphviz version 2.43.0 (0)
 -->
<!-- Title: pism::inverse::IP_SSATaucTaoTikhonovProblem Pages: 1 -->
<svg width="275pt" height="185pt"
 viewBox="0.00 0.00 275.00 185.00" xmlns="http://www.w3.org/2000/svg" xmlns:xlink="http://www.w3.org/1999/xlink">
<g id="graph0" class="graph" transform="scale(1 1) rotate(0) translate(4 181)">
<title>pism::inverse::IP_SSATaucTaoTikhonovProblem</title>
<!-- Node1 -->
<g id="node1" class="node">
<title>Node1</title>
<g id="a_node1"><a xlink:title="Defines an IPTaoTikhonovProblem for inversion of basal yeild stresses &#160;from SSA velocities.">
<polygon fill="#bfbfbf" stroke="black" points="35.5,-0.5 35.5,-30.5 178.5,-30.5 178.5,-0.5 35.5,-0.5"/>
<text text-anchor="start" x="43.5" y="-18.5" font-family="Helvetica,sans-Serif" font-size="10.00">pism::inverse::IP_SSATauc</text>
<text text-anchor="middle" x="107" y="-7.5" font-family="Helvetica,sans-Serif" font-size="10.00">TaoTikhonovProblem</text>
</a>
</g>
</g>
<!-- Node2 -->
<g id="node2" class="node">
<title>Node2</title>
<g id="a_node2"><a xlink:href="classpism_1_1inverse_1_1IPTaoTikhonovProblem.html" target="_top" xlink:title=" ">
<polygon fill="none" stroke="black" points="0,-68.5 0,-98.5 214,-98.5 214,-68.5 0,-68.5"/>
<text text-anchor="start" x="8" y="-86.5" font-family="Helvetica,sans-Serif" font-size="10.00">pism::inverse::IPTaoTikhonov</text>
<text text-anchor="middle" x="107" y="-75.5" font-family="Helvetica,sans-Serif" font-size="10.00">Problem&lt; IP_SSATaucForwardProblem &gt;</text>
</a>
</g>
</g>
<!-- Node2&#45;&gt;Node1 -->
<g id="edge1" class="edge">
<title>Node2&#45;&gt;Node1</title>
<path fill="none" stroke="midnightblue" d="M107,-58.03C107,-48.86 107,-38.74 107,-30.79"/>
<polygon fill="midnightblue" stroke="midnightblue" points="103.5,-58.18 107,-68.18 110.5,-58.18 103.5,-58.18"/>
</g>
<!-- Node3 -->
<g id="node3" class="node">
<title>Node3</title>
<g id="a_node3"><a xlink:href="classpism_1_1inverse_1_1IPTaoTikhonovProblem.html" target="_top" xlink:title="Defines a Tikhonov minimization problem to be solved with a TaoBasicSolver.">
<polygon fill="none" stroke="black" points="27.5,-146.5 27.5,-176.5 186.5,-176.5 186.5,-146.5 27.5,-146.5"/>
<text text-anchor="start" x="35.5" y="-164.5" font-family="Helvetica,sans-Serif" font-size="10.00">pism::inverse::IPTaoTikhonov</text>
<text text-anchor="middle" x="107" y="-153.5" font-family="Helvetica,sans-Serif" font-size="10.00">Problem&lt; ForwardProblem &gt;</text>
</a>
</g>
</g>
<!-- Node3&#45;&gt;Node2 -->
<g id="edge2" class="edge">
<title>Node3&#45;&gt;Node2</title>
<path fill="none" stroke="orange" stroke-dasharray="5,2" d="M107,-136.09C107,-123.76 107,-109.22 107,-98.73"/>
<polygon fill="orange" stroke="orange" points="103.5,-136.2 107,-146.2 110.5,-136.21 103.5,-136.2"/>
<text text-anchor="middle" x="187" y="-120" font-family="Helvetica,sans-Serif" font-size="10.00"> &lt; IP_SSATaucForwardProblem &gt;</text>
</g>
</g>
</svg>
