<?xml version="1.0" encoding="UTF-8" standalone="no"?>
<!DOCTYPE svg PUBLIC "-//W3C//DTD SVG 1.1//EN"
 "http://www.w3.org/Graphics/SVG/1.1/DTD/svg11.dtd">
<!-- Generated by graphviz version 2.43.0 (0)
 -->
<!-- Title: pism::Field Pages: 1 -->
<svg width="308pt" height="140pt"
 viewBox="0.00 0.00 307.50 140.00" xmlns="http://www.w3.org/2000/svg" xmlns:xlink="http://www.w3.org/1999/xlink">
<g id="graph0" class="graph" transform="scale(1 1) rotate(0) translate(4 136)">
<title>pism::Field</title>
<!-- Node1 -->
<g id="node1" class="node">
<title>Node1</title>
<g id="a_node1"><a xlink:title=" ">
<polygon fill="#bfbfbf" stroke="black" points="81,-112.5 81,-131.5 151,-131.5 151,-112.5 81,-112.5"/>
<text text-anchor="middle" x="116" y="-119.5" font-family="Helvetica,sans-Serif" font-size="10.00">pism::Field</text>
</a>
</g>
</g>
<!-- Node2 -->
<g id="node2" class="node">
<title>Node2</title>
<g id="a_node2"><a xlink:href="classpism_1_1GhostedField.html" target="_top" xlink:title=" ">
<polygon fill="none" stroke="black" points="0,-56.5 0,-75.5 110,-75.5 110,-56.5 0,-56.5"/>
<text text-anchor="middle" x="55" y="-63.5" font-family="Helvetica,sans-Serif" font-size="10.00">pism::GhostedField</text>
</a>
</g>
</g>
<!-- Node1&#45;&gt;Node2 -->
<g id="edge1" class="edge">
<title>Node1&#45;&gt;Node2</title>
<path fill="none" stroke="midnightblue" d="M98.53,-105.54C87.66,-95.91 74.06,-83.87 64.98,-75.83"/>
<polygon fill="midnightblue" stroke="midnightblue" points="96.39,-108.32 106.2,-112.32 101.03,-103.07 96.39,-108.32"/>
</g>
<!-- Node3 -->
<g id="node3" class="node">
<title>Node3</title>
<g id="a_node3"><a xlink:href="classpism_1_1ScalarField.html" target="_top" xlink:title=" ">
<polygon fill="none" stroke="black" points="128,-56.5 128,-75.5 228,-75.5 228,-56.5 128,-56.5"/>
<text text-anchor="middle" x="178" y="-63.5" font-family="Helvetica,sans-Serif" font-size="10.00">pism::ScalarField</text>
</a>
</g>
</g>
<!-- Node1&#45;&gt;Node3 -->
<g id="edge2" class="edge">
<title>Node1&#45;&gt;Node3</title>
<path fill="none" stroke="midnightblue" d="M133.75,-105.54C144.81,-95.91 158.63,-83.87 167.86,-75.83"/>
<polygon fill="midnightblue" stroke="midnightblue" points="131.2,-103.12 125.96,-112.32 135.8,-108.4 131.2,-103.12"/>
</g>
<!-- Node4 -->
<g id="node4" class="node">
<title>Node4</title>
<g id="a_node4"><a xlink:href="classpism_1_1Scalar2DField.html" target="_top" xlink:title=" ">
<polygon fill="none" stroke="black" points="55.5,-0.5 55.5,-19.5 168.5,-19.5 168.5,-0.5 55.5,-0.5"/>
<text text-anchor="middle" x="112" y="-7.5" font-family="Helvetica,sans-Serif" font-size="10.00">pism::Scalar2DField</text>
</a>
</g>
</g>
<!-- Node3&#45;&gt;Node4 -->
<g id="edge3" class="edge">
<title>Node3&#45;&gt;Node4</title>
<path fill="none" stroke="midnightblue" d="M159.45,-49.82C147.62,-40.15 132.71,-27.95 122.8,-19.83"/>
<polygon fill="midnightblue" stroke="midnightblue" points="157.44,-52.7 167.4,-56.32 161.87,-47.28 157.44,-52.7"/>
</g>
<!-- Node5 -->
<g id="node5" class="node">
<title>Node5</title>
<g id="a_node5"><a xlink:href="classpism_1_1Scalar3DField.html" target="_top" xlink:title=" ">
<polygon fill="none" stroke="black" points="186.5,-0.5 186.5,-19.5 299.5,-19.5 299.5,-0.5 186.5,-0.5"/>
<text text-anchor="middle" x="243" y="-7.5" font-family="Helvetica,sans-Serif" font-size="10.00">pism::Scalar3DField</text>
</a>
</g>
</g>
<!-- Node3&#45;&gt;Node5 -->
<g id="edge4" class="edge">
<title>Node3&#45;&gt;Node5</title>
<path fill="none" stroke="midnightblue" d="M196.27,-49.82C207.92,-40.15 222.6,-27.95 232.37,-19.83"/>
<polygon fill="midnightblue" stroke="midnightblue" points="193.9,-47.24 188.44,-56.32 198.37,-52.63 193.9,-47.24"/>
</g>
</g>
</svg>
