<?xml version="1.0" encoding="UTF-8" standalone="no"?>
<!DOCTYPE svg PUBLIC "-//W3C//DTD SVG 1.1//EN"
 "http://www.w3.org/Graphics/SVG/1.1/DTD/svg11.dtd">
<!-- Generated by graphviz version 2.43.0 (0)
 -->
<!-- Title: pism::RuntimeError Pages: 1 -->
<svg width="264pt" height="207pt"
 viewBox="0.00 0.00 264.00 207.00" xmlns="http://www.w3.org/2000/svg" xmlns:xlink="http://www.w3.org/1999/xlink">
<g id="graph0" class="graph" transform="scale(1 1) rotate(0) translate(4 203)">
<title>pism::RuntimeError</title>
<!-- Node1 -->
<g id="node1" class="node">
<title>Node1</title>
<g id="a_node1"><a xlink:title=" ">
<polygon fill="#bfbfbf" stroke="black" points="69.5,-67.5 69.5,-86.5 180.5,-86.5 180.5,-67.5 69.5,-67.5"/>
<text text-anchor="middle" x="125" y="-74.5" font-family="Helvetica,sans-Serif" font-size="10.00">pism::RuntimeError</text>
</a>
</g>
</g>
<!-- Node4 -->
<g id="node4" class="node">
<title>Node4</title>
<g id="a_node4"><a xlink:href="classpism_1_1stressbalance_1_1SSAFD_1_1KSPFailure.html" target="_top" xlink:title=" ">
<polygon fill="none" stroke="black" points="0,-0.5 0,-30.5 114,-30.5 114,-0.5 0,-0.5"/>
<text text-anchor="start" x="8" y="-18.5" font-family="Helvetica,sans-Serif" font-size="10.00">pism::stressbalance</text>
<text text-anchor="middle" x="57" y="-7.5" font-family="Helvetica,sans-Serif" font-size="10.00">::SSAFD::KSPFailure</text>
</a>
</g>
</g>
<!-- Node1&#45;&gt;Node4 -->
<g id="edge3" class="edge">
<title>Node1&#45;&gt;Node4</title>
<path fill="none" stroke="midnightblue" d="M107.45,-60.65C96.82,-51.35 83.37,-39.57 73.03,-30.52"/>
<polygon fill="midnightblue" stroke="midnightblue" points="105.43,-63.52 115.26,-67.48 110.04,-58.26 105.43,-63.52"/>
</g>
<!-- Node5 -->
<g id="node5" class="node">
<title>Node5</title>
<g id="a_node5"><a xlink:href="classpism_1_1stressbalance_1_1SSAFD_1_1PicardFailure.html" target="_top" xlink:title=" ">
<polygon fill="none" stroke="black" points="132,-0.5 132,-30.5 256,-30.5 256,-0.5 132,-0.5"/>
<text text-anchor="start" x="140" y="-18.5" font-family="Helvetica,sans-Serif" font-size="10.00">pism::stressbalance</text>
<text text-anchor="middle" x="194" y="-7.5" font-family="Helvetica,sans-Serif" font-size="10.00">::SSAFD::PicardFailure</text>
</a>
</g>
</g>
<!-- Node1&#45;&gt;Node5 -->
<g id="edge4" class="edge">
<title>Node1&#45;&gt;Node5</title>
<path fill="none" stroke="midnightblue" d="M142.49,-60.92C153.32,-51.58 167.14,-39.66 177.74,-30.52"/>
<polygon fill="midnightblue" stroke="midnightblue" points="140.17,-58.29 134.89,-67.48 144.74,-63.6 140.17,-58.29"/>
</g>
<!-- Node2 -->
<g id="node2" class="node">
<title>Node2</title>
<g id="a_node2"><a xlink:title=" ">
<polygon fill="none" stroke="#bfbfbf" points="73,-123.5 73,-142.5 177,-142.5 177,-123.5 73,-123.5"/>
<text text-anchor="middle" x="125" y="-130.5" font-family="Helvetica,sans-Serif" font-size="10.00">std::runtime_error</text>
</a>
</g>
</g>
<!-- Node2&#45;&gt;Node1 -->
<g id="edge1" class="edge">
<title>Node2&#45;&gt;Node1</title>
<path fill="none" stroke="midnightblue" d="M125,-112.8C125,-103.91 125,-93.78 125,-86.75"/>
<polygon fill="midnightblue" stroke="midnightblue" points="121.5,-113.08 125,-123.08 128.5,-113.08 121.5,-113.08"/>
</g>
<!-- Node3 -->
<g id="node3" class="node">
<title>Node3</title>
<g id="a_node3"><a xlink:title=" ">
<polygon fill="none" stroke="#bfbfbf" points="82,-179.5 82,-198.5 168,-198.5 168,-179.5 82,-179.5"/>
<text text-anchor="middle" x="125" y="-186.5" font-family="Helvetica,sans-Serif" font-size="10.00">std::exception</text>
</a>
</g>
</g>
<!-- Node3&#45;&gt;Node2 -->
<g id="edge2" class="edge">
<title>Node3&#45;&gt;Node2</title>
<path fill="none" stroke="midnightblue" d="M125,-168.8C125,-159.91 125,-149.78 125,-142.75"/>
<polygon fill="midnightblue" stroke="midnightblue" points="121.5,-169.08 125,-179.08 128.5,-169.08 121.5,-169.08"/>
</g>
</g>
</svg>
