<?xml version="1.0" encoding="UTF-8" standalone="no"?>
<!DOCTYPE svg PUBLIC "-//W3C//DTD SVG 1.1//EN"
 "http://www.w3.org/Graphics/SVG/1.1/DTD/svg11.dtd">
<!-- Generated by graphviz version 2.43.0 (0)
 -->
<!-- Title: pism::diagnostics::scalar::IceMassRateOfChangeDueToFlow Pages: 1 -->
<svg width="299pt" height="310pt"
 viewBox="0.00 0.00 298.50 310.00" xmlns="http://www.w3.org/2000/svg" xmlns:xlink="http://www.w3.org/1999/xlink">
<g id="graph0" class="graph" transform="scale(1 1) rotate(0) translate(4 306)">
<title>pism::diagnostics::scalar::IceMassRateOfChangeDueToFlow</title>
<!-- Node1 -->
<g id="node1" class="node">
<title>Node1</title>
<g id="a_node1"><a xlink:title="Computes the rate of change of the total ice mass due to flow (influx due to prescribed constant&#45;in&#45;t...">
<polygon fill="#bfbfbf" stroke="black" points="58.5,-0.5 58.5,-41.5 220.5,-41.5 220.5,-0.5 58.5,-0.5"/>
<text text-anchor="start" x="66.5" y="-29.5" font-family="Helvetica,sans-Serif" font-size="10.00">pism::diagnostics::</text>
<text text-anchor="start" x="66.5" y="-18.5" font-family="Helvetica,sans-Serif" font-size="10.00">scalar::IceMassRateOfChange</text>
<text text-anchor="middle" x="139.5" y="-7.5" font-family="Helvetica,sans-Serif" font-size="10.00">DueToFlow</text>
</a>
</g>
</g>
<!-- Node2 -->
<g id="node2" class="node">
<title>Node2</title>
<g id="a_node2"><a xlink:href="classpism_1_1TSDiag.html" target="_top" xlink:title=" ">
<polygon fill="none" stroke="black" points="49.5,-79.5 49.5,-109.5 229.5,-109.5 229.5,-79.5 49.5,-79.5"/>
<text text-anchor="start" x="57.5" y="-97.5" font-family="Helvetica,sans-Serif" font-size="10.00">pism::TSDiag&lt; TSFluxDiagnostic,</text>
<text text-anchor="middle" x="139.5" y="-86.5" font-family="Helvetica,sans-Serif" font-size="10.00"> IceModel &gt;</text>
</a>
</g>
</g>
<!-- Node2&#45;&gt;Node1 -->
<g id="edge1" class="edge">
<title>Node2&#45;&gt;Node1</title>
<path fill="none" stroke="midnightblue" d="M139.5,-69.1C139.5,-60.1 139.5,-50.02 139.5,-41.51"/>
<polygon fill="midnightblue" stroke="midnightblue" points="136,-69.37 139.5,-79.37 143,-69.37 136,-69.37"/>
</g>
<!-- Node3 -->
<g id="node3" class="node">
<title>Node3</title>
<g id="a_node3"><a xlink:href="classpism_1_1TSFluxDiagnostic.html" target="_top" xlink:title="Scalar diagnostic reporting a &quot;flux&quot;.">
<polygon fill="none" stroke="black" points="1,-168.5 1,-187.5 132,-187.5 132,-168.5 1,-168.5"/>
<text text-anchor="middle" x="66.5" y="-175.5" font-family="Helvetica,sans-Serif" font-size="10.00">pism::TSFluxDiagnostic</text>
</a>
</g>
</g>
<!-- Node3&#45;&gt;Node2 -->
<g id="edge2" class="edge">
<title>Node3&#45;&gt;Node2</title>
<path fill="none" stroke="midnightblue" d="M81.02,-160.78C94.42,-145.83 114.11,-123.84 126.87,-109.6"/>
<polygon fill="midnightblue" stroke="midnightblue" points="78.38,-158.49 74.31,-168.28 83.59,-163.16 78.38,-158.49"/>
</g>
<!-- Node4 -->
<g id="node4" class="node">
<title>Node4</title>
<g id="a_node4"><a xlink:href="classpism_1_1TSRateDiagnostic.html" target="_top" xlink:title="Scalar diagnostic reporting the rate of change of a quantity modeled by PISM.">
<polygon fill="none" stroke="black" points="0,-225.5 0,-244.5 133,-244.5 133,-225.5 0,-225.5"/>
<text text-anchor="middle" x="66.5" y="-232.5" font-family="Helvetica,sans-Serif" font-size="10.00">pism::TSRateDiagnostic</text>
</a>
</g>
</g>
<!-- Node4&#45;&gt;Node3 -->
<g id="edge3" class="edge">
<title>Node4&#45;&gt;Node3</title>
<path fill="none" stroke="midnightblue" d="M66.5,-215.12C66.5,-205.82 66.5,-195.06 66.5,-187.71"/>
<polygon fill="midnightblue" stroke="midnightblue" points="63,-215.41 66.5,-225.41 70,-215.41 63,-215.41"/>
</g>
<!-- Node5 -->
<g id="node5" class="node">
<title>Node5</title>
<g id="a_node5"><a xlink:href="classpism_1_1TSDiagnostic.html" target="_top" xlink:title="PISM&#39;s scalar time&#45;series diagnostics.">
<polygon fill="none" stroke="black" points="11.5,-282.5 11.5,-301.5 121.5,-301.5 121.5,-282.5 11.5,-282.5"/>
<text text-anchor="middle" x="66.5" y="-289.5" font-family="Helvetica,sans-Serif" font-size="10.00">pism::TSDiagnostic</text>
</a>
</g>
</g>
<!-- Node5&#45;&gt;Node4 -->
<g id="edge4" class="edge">
<title>Node5&#45;&gt;Node4</title>
<path fill="none" stroke="midnightblue" d="M66.5,-272.12C66.5,-262.82 66.5,-252.06 66.5,-244.71"/>
<polygon fill="midnightblue" stroke="midnightblue" points="63,-272.41 66.5,-282.41 70,-272.41 63,-272.41"/>
</g>
<!-- Node6 -->
<g id="node6" class="node">
<title>Node6</title>
<g id="a_node6"><a xlink:href="classpism_1_1TSDiag.html" target="_top" xlink:title=" ">
<polygon fill="none" stroke="black" points="150.5,-168.5 150.5,-187.5 276.5,-187.5 276.5,-168.5 150.5,-168.5"/>
<text text-anchor="middle" x="213.5" y="-175.5" font-family="Helvetica,sans-Serif" font-size="10.00">pism::TSDiag&lt; D, M &gt;</text>
</a>
</g>
</g>
<!-- Node6&#45;&gt;Node2 -->
<g id="edge5" class="edge">
<title>Node6&#45;&gt;Node2</title>
<path fill="none" stroke="orange" stroke-dasharray="5,2" d="M198.78,-160.78C185.2,-145.83 165.23,-123.84 152.3,-109.6"/>
<polygon fill="orange" stroke="orange" points="196.27,-163.23 205.58,-168.28 201.45,-158.52 196.27,-163.23"/>
<text text-anchor="start" x="187.5" y="-142" font-family="Helvetica,sans-Serif" font-size="10.00"> &lt; TSFluxDiagnostic,</text>
<text text-anchor="middle" x="239" y="-131" font-family="Helvetica,sans-Serif" font-size="10.00"> IceModel &gt;</text>
</g>
<!-- Node7 -->
<g id="node7" class="node">
<title>Node7</title>
<g id="a_node7"><a xlink:href="classD.html" target="_top" xlink:title=" ">
<polygon fill="none" stroke="black" points="199,-225.5 199,-244.5 228,-244.5 228,-225.5 199,-225.5"/>
<text text-anchor="middle" x="213.5" y="-232.5" font-family="Helvetica,sans-Serif" font-size="10.00">D</text>
</a>
</g>
</g>
<!-- Node7&#45;&gt;Node6 -->
<g id="edge6" class="edge">
<title>Node7&#45;&gt;Node6</title>
<path fill="none" stroke="midnightblue" d="M213.5,-215.12C213.5,-205.82 213.5,-195.06 213.5,-187.71"/>
<polygon fill="midnightblue" stroke="midnightblue" points="210,-215.41 213.5,-225.41 217,-215.41 210,-215.41"/>
</g>
</g>
</svg>
