<?xml version="1.0" encoding="UTF-8" standalone="no"?>
<!DOCTYPE svg PUBLIC "-//W3C//DTD SVG 1.1//EN"
 "http://www.w3.org/Graphics/SVG/1.1/DTD/svg11.dtd">
<!-- Generated by graphviz version 2.43.0 (0)
 -->
<!-- Title: pism::IceModelVec2V Pages: 1 -->
<svg width="263pt" height="334pt"
 viewBox="0.00 0.00 263.00 334.00" xmlns="http://www.w3.org/2000/svg" xmlns:xlink="http://www.w3.org/1999/xlink">
<g id="graph0" class="graph" transform="scale(1 1) rotate(0) translate(4 330)">
<title>pism::IceModelVec2V</title>
<!-- Node1 -->
<g id="node1" class="node">
<title>Node1</title>
<g id="a_node1"><a xlink:title=" ">
<polygon fill="#bfbfbf" stroke="black" points="11,-0.5 11,-19.5 132,-19.5 132,-0.5 11,-0.5"/>
<text text-anchor="middle" x="71.5" y="-7.5" font-family="Helvetica,sans-Serif" font-size="10.00">pism::IceModelVec2V</text>
</a>
</g>
</g>
<!-- Node2 -->
<g id="node2" class="node">
<title>Node2</title>
<g id="a_node2"><a xlink:href="classpism_1_1IceModelVec2Struct.html" target="_top" xlink:title=" ">
<polygon fill="none" stroke="black" points="0,-57.5 0,-87.5 143,-87.5 143,-57.5 0,-57.5"/>
<text text-anchor="start" x="8" y="-75.5" font-family="Helvetica,sans-Serif" font-size="10.00">pism::IceModelVec2Struct</text>
<text text-anchor="middle" x="71.5" y="-64.5" font-family="Helvetica,sans-Serif" font-size="10.00">&lt; Vector2 &gt;</text>
</a>
</g>
</g>
<!-- Node2&#45;&gt;Node1 -->
<g id="edge1" class="edge">
<title>Node2&#45;&gt;Node1</title>
<path fill="none" stroke="midnightblue" d="M71.5,-47.35C71.5,-37.51 71.5,-26.78 71.5,-19.54"/>
<polygon fill="midnightblue" stroke="midnightblue" points="68,-47.47 71.5,-57.47 75,-47.47 68,-47.47"/>
</g>
<!-- Node3 -->
<g id="node3" class="node">
<title>Node3</title>
<g id="a_node3"><a xlink:href="classpism_1_1IceModelVec2.html" target="_top" xlink:title=" ">
<polygon fill="none" stroke="black" points="10.5,-192.5 10.5,-211.5 124.5,-211.5 124.5,-192.5 10.5,-192.5"/>
<text text-anchor="middle" x="67.5" y="-199.5" font-family="Helvetica,sans-Serif" font-size="10.00">pism::IceModelVec2</text>
</a>
</g>
</g>
<!-- Node3&#45;&gt;Node2 -->
<g id="edge2" class="edge">
<title>Node3&#45;&gt;Node2</title>
<path fill="none" stroke="midnightblue" d="M68.1,-181.9C68.91,-156.05 70.34,-110.54 71.06,-87.59"/>
<polygon fill="midnightblue" stroke="midnightblue" points="64.59,-182.13 67.77,-192.24 71.59,-182.35 64.59,-182.13"/>
</g>
<!-- Node6 -->
<g id="node6" class="node">
<title>Node6</title>
<g id="a_node6"><a xlink:href="classpism_1_1IceModelVec2Struct.html" target="_top" xlink:title="A storage vector combining related fields in a struct.">
<polygon fill="none" stroke="black" points="84,-135.5 84,-154.5 255,-154.5 255,-135.5 84,-135.5"/>
<text text-anchor="middle" x="169.5" y="-142.5" font-family="Helvetica,sans-Serif" font-size="10.00">pism::IceModelVec2Struct&lt; T &gt;</text>
</a>
</g>
</g>
<!-- Node3&#45;&gt;Node6 -->
<g id="edge6" class="edge">
<title>Node3&#45;&gt;Node6</title>
<path fill="none" stroke="midnightblue" d="M92.47,-187.54C111.57,-177.24 137.32,-163.35 153.67,-154.53"/>
<polygon fill="midnightblue" stroke="midnightblue" points="90.58,-184.58 83.44,-192.41 93.9,-190.74 90.58,-184.58"/>
</g>
<!-- Node4 -->
<g id="node4" class="node">
<title>Node4</title>
<g id="a_node4"><a xlink:href="classpism_1_1IceModelVec.html" target="_top" xlink:title="Abstract class for reading, writing, allocating, and accessing a DA&#45;based PETSc Vec (2D and 3D fields...">
<polygon fill="none" stroke="black" points="13.5,-249.5 13.5,-268.5 121.5,-268.5 121.5,-249.5 13.5,-249.5"/>
<text text-anchor="middle" x="67.5" y="-256.5" font-family="Helvetica,sans-Serif" font-size="10.00">pism::IceModelVec</text>
</a>
</g>
</g>
<!-- Node4&#45;&gt;Node3 -->
<g id="edge3" class="edge">
<title>Node4&#45;&gt;Node3</title>
<path fill="none" stroke="midnightblue" d="M67.5,-239.12C67.5,-229.82 67.5,-219.06 67.5,-211.71"/>
<polygon fill="midnightblue" stroke="midnightblue" points="64,-239.41 67.5,-249.41 71,-239.41 64,-239.41"/>
</g>
<!-- Node5 -->
<g id="node5" class="node">
<title>Node5</title>
<g id="a_node5"><a xlink:href="classpism_1_1PetscAccessible.html" target="_top" xlink:title=" ">
<polygon fill="none" stroke="black" points="5,-306.5 5,-325.5 130,-325.5 130,-306.5 5,-306.5"/>
<text text-anchor="middle" x="67.5" y="-313.5" font-family="Helvetica,sans-Serif" font-size="10.00">pism::PetscAccessible</text>
</a>
</g>
</g>
<!-- Node5&#45;&gt;Node4 -->
<g id="edge4" class="edge">
<title>Node5&#45;&gt;Node4</title>
<path fill="none" stroke="midnightblue" d="M67.5,-296.12C67.5,-286.82 67.5,-276.06 67.5,-268.71"/>
<polygon fill="midnightblue" stroke="midnightblue" points="64,-296.41 67.5,-306.41 71,-296.41 64,-296.41"/>
</g>
<!-- Node6&#45;&gt;Node2 -->
<g id="edge5" class="edge">
<title>Node6&#45;&gt;Node2</title>
<path fill="none" stroke="orange" stroke-dasharray="5,2" d="M149.3,-129.47C132.23,-117.19 107.95,-99.72 91.07,-87.58"/>
<polygon fill="orange" stroke="orange" points="147.32,-132.36 157.48,-135.36 151.41,-126.67 147.32,-132.36"/>
<text text-anchor="middle" x="160" y="-109" font-family="Helvetica,sans-Serif" font-size="10.00"> &lt; Vector2 &gt;</text>
</g>
</g>
</svg>
