<?xml version="1.0" encoding="UTF-8" standalone="no"?>
<!DOCTYPE svg PUBLIC "-//W3C//DTD SVG 1.1//EN"
 "http://www.w3.org/Graphics/SVG/1.1/DTD/svg11.dtd">
<!-- Generated by graphviz version 2.43.0 (0)
 -->
<!-- Title: pism::stressbalance::SSA Pages: 1 -->
<svg width="797pt" height="137pt"
 viewBox="0.00 0.00 797.00 137.00" xmlns="http://www.w3.org/2000/svg" xmlns:xlink="http://www.w3.org/1999/xlink">
<g id="graph0" class="graph" transform="scale(1 1) rotate(0) translate(4 133)">
<title>pism::stressbalance::SSA</title>
<!-- Node1 -->
<g id="node1" class="node">
<title>Node1</title>
<g id="a_node1"><a xlink:title="PISM&#39;s SSA solver.">
<polygon fill="#bfbfbf" stroke="black" points="305,-79 305,-98 445,-98 445,-79 305,-79"/>
<text text-anchor="middle" x="375" y="-86" font-family="Helvetica,sans-Serif" font-size="10.00">pism::stressbalance::SSA</text>
</a>
</g>
</g>
<!-- Node4 -->
<g id="node4" class="node">
<title>Node4</title>
<g id="a_node4"><a xlink:href="classpism_1_1stressbalance_1_1SSAFD.html" target="_top" xlink:title="PISM&#39;s SSA solver: the finite difference implementation.">
<polygon fill="none" stroke="black" points="481,-98.5 481,-128.5 595,-128.5 595,-98.5 481,-98.5"/>
<text text-anchor="start" x="489" y="-116.5" font-family="Helvetica,sans-Serif" font-size="10.00">pism::stressbalance</text>
<text text-anchor="middle" x="538" y="-105.5" font-family="Helvetica,sans-Serif" font-size="10.00">::SSAFD</text>
</a>
</g>
</g>
<!-- Node1&#45;&gt;Node4 -->
<g id="edge3" class="edge">
<title>Node1&#45;&gt;Node4</title>
<path fill="none" stroke="midnightblue" d="M447.5,-99.6C458.68,-101.34 470.1,-103.11 480.87,-104.78"/>
<polygon fill="midnightblue" stroke="midnightblue" points="447.75,-96.1 437.33,-98.02 446.67,-103.02 447.75,-96.1"/>
</g>
<!-- Node6 -->
<g id="node6" class="node">
<title>Node6</title>
<g id="a_node6"><a xlink:href="classpism_1_1stressbalance_1_1SSAFEM.html" target="_top" xlink:title="PISM&#39;s SSA solver: the finite element method implementation written by Jed and David.">
<polygon fill="none" stroke="black" points="481,-49.5 481,-79.5 595,-79.5 595,-49.5 481,-49.5"/>
<text text-anchor="start" x="489" y="-67.5" font-family="Helvetica,sans-Serif" font-size="10.00">pism::stressbalance</text>
<text text-anchor="middle" x="538" y="-56.5" font-family="Helvetica,sans-Serif" font-size="10.00">::SSAFEM</text>
</a>
</g>
</g>
<!-- Node1&#45;&gt;Node6 -->
<g id="edge5" class="edge">
<title>Node1&#45;&gt;Node6</title>
<path fill="none" stroke="midnightblue" d="M450,-77.47C460.39,-75.92 470.94,-74.35 480.93,-72.86"/>
<polygon fill="midnightblue" stroke="midnightblue" points="449.47,-74.01 440.09,-78.95 450.5,-80.93 449.47,-74.01"/>
</g>
<!-- Node2 -->
<g id="node2" class="node">
<title>Node2</title>
<g id="a_node2"><a xlink:href="classpism_1_1stressbalance_1_1ShallowStressBalance.html" target="_top" xlink:title="Shallow stress balance (such as the SSA).">
<polygon fill="none" stroke="black" points="139,-73.5 139,-103.5 269,-103.5 269,-73.5 139,-73.5"/>
<text text-anchor="start" x="147" y="-91.5" font-family="Helvetica,sans-Serif" font-size="10.00">pism::stressbalance</text>
<text text-anchor="middle" x="204" y="-80.5" font-family="Helvetica,sans-Serif" font-size="10.00">::ShallowStressBalance</text>
</a>
</g>
</g>
<!-- Node2&#45;&gt;Node1 -->
<g id="edge1" class="edge">
<title>Node2&#45;&gt;Node1</title>
<path fill="none" stroke="midnightblue" d="M279.52,-88.5C287.9,-88.5 296.42,-88.5 304.74,-88.5"/>
<polygon fill="midnightblue" stroke="midnightblue" points="279.37,-85 269.37,-88.5 279.37,-92 279.37,-85"/>
</g>
<!-- Node3 -->
<g id="node3" class="node">
<title>Node3</title>
<g id="a_node3"><a xlink:href="classpism_1_1Component.html" target="_top" xlink:title="A class defining a common interface for most PISM sub&#45;models.">
<polygon fill="none" stroke="black" points="0,-79 0,-98 103,-98 103,-79 0,-79"/>
<text text-anchor="middle" x="51.5" y="-86" font-family="Helvetica,sans-Serif" font-size="10.00">pism::Component</text>
</a>
</g>
</g>
<!-- Node3&#45;&gt;Node2 -->
<g id="edge2" class="edge">
<title>Node3&#45;&gt;Node2</title>
<path fill="none" stroke="midnightblue" d="M113.22,-88.5C121.7,-88.5 130.43,-88.5 138.97,-88.5"/>
<polygon fill="midnightblue" stroke="midnightblue" points="113.03,-85 103.03,-88.5 113.03,-92 113.03,-85"/>
</g>
<!-- Node5 -->
<g id="node5" class="node">
<title>Node5</title>
<g id="a_node5"><a xlink:href="classpism_1_1stressbalance_1_1SSAFD__Regional.html" target="_top" xlink:title="A version of the SSA stress balance with tweaks for outlet glacier simulations.">
<polygon fill="none" stroke="black" points="653,-98.5 653,-128.5 767,-128.5 767,-98.5 653,-98.5"/>
<text text-anchor="start" x="661" y="-116.5" font-family="Helvetica,sans-Serif" font-size="10.00">pism::stressbalance</text>
<text text-anchor="middle" x="710" y="-105.5" font-family="Helvetica,sans-Serif" font-size="10.00">::SSAFD_Regional</text>
</a>
</g>
</g>
<!-- Node4&#45;&gt;Node5 -->
<g id="edge4" class="edge">
<title>Node4&#45;&gt;Node5</title>
<path fill="none" stroke="midnightblue" d="M605.32,-113.5C621.06,-113.5 637.69,-113.5 652.92,-113.5"/>
<polygon fill="midnightblue" stroke="midnightblue" points="605.14,-110 595.14,-113.5 605.14,-117 605.14,-110"/>
</g>
<!-- Node7 -->
<g id="node7" class="node">
<title>Node7</title>
<g id="a_node7"><a xlink:href="classpism_1_1inverse_1_1IP__SSAHardavForwardProblem.html" target="_top" xlink:title="Implements the forward problem of the map taking &#160;to the corresponding solution of the SSA.">
<polygon fill="none" stroke="black" points="631,-49.5 631,-79.5 789,-79.5 789,-49.5 631,-49.5"/>
<text text-anchor="start" x="639" y="-67.5" font-family="Helvetica,sans-Serif" font-size="10.00">pism::inverse::IP_SSAHardav</text>
<text text-anchor="middle" x="710" y="-56.5" font-family="Helvetica,sans-Serif" font-size="10.00">ForwardProblem</text>
</a>
</g>
</g>
<!-- Node6&#45;&gt;Node7 -->
<g id="edge6" class="edge">
<title>Node6&#45;&gt;Node7</title>
<path fill="none" stroke="midnightblue" d="M605.21,-64.5C613.59,-64.5 622.22,-64.5 630.77,-64.5"/>
<polygon fill="midnightblue" stroke="midnightblue" points="605.14,-61 595.14,-64.5 605.14,-68 605.14,-61"/>
</g>
<!-- Node8 -->
<g id="node8" class="node">
<title>Node8</title>
<g id="a_node8"><a xlink:href="classpism_1_1inverse_1_1IP__SSATaucForwardProblem.html" target="_top" xlink:title="Implements the forward problem of the map taking &#160;to the corresponding solution of the SSA.">
<polygon fill="none" stroke="black" points="638.5,-0.5 638.5,-30.5 781.5,-30.5 781.5,-0.5 638.5,-0.5"/>
<text text-anchor="start" x="646.5" y="-18.5" font-family="Helvetica,sans-Serif" font-size="10.00">pism::inverse::IP_SSATauc</text>
<text text-anchor="middle" x="710" y="-7.5" font-family="Helvetica,sans-Serif" font-size="10.00">ForwardProblem</text>
</a>
</g>
</g>
<!-- Node6&#45;&gt;Node8 -->
<g id="edge7" class="edge">
<title>Node6&#45;&gt;Node8</title>
<path fill="none" stroke="midnightblue" d="M601.08,-46.61C619.37,-41.34 639.18,-35.62 656.78,-30.55"/>
<polygon fill="midnightblue" stroke="midnightblue" points="600.03,-43.27 591.39,-49.4 601.97,-49.99 600.03,-43.27"/>
</g>
</g>
</svg>
