<?xml version="1.0" encoding="UTF-8" standalone="no"?>
<!DOCTYPE svg PUBLIC "-//W3C//DTD SVG 1.1//EN"
 "http://www.w3.org/Graphics/SVG/1.1/DTD/svg11.dtd">
<!-- Generated by graphviz version 2.43.0 (0)
 -->
<!-- Title: pism::energy::LiquifiedIceFlux Pages: 1 -->
<svg width="299pt" height="288pt"
 viewBox="0.00 0.00 298.50 288.00" xmlns="http://www.w3.org/2000/svg" xmlns:xlink="http://www.w3.org/1999/xlink">
<g id="graph0" class="graph" transform="scale(1 1) rotate(0) translate(4 284)">
<title>pism::energy::LiquifiedIceFlux</title>
<!-- Node1 -->
<g id="node1" class="node">
<title>Node1</title>
<g id="a_node1"><a xlink:title="Ice loss &quot;flux&quot; due to ice liquefaction.">
<polygon fill="#bfbfbf" stroke="black" points="58.5,-0.5 58.5,-19.5 220.5,-19.5 220.5,-0.5 58.5,-0.5"/>
<text text-anchor="middle" x="139.5" y="-7.5" font-family="Helvetica,sans-Serif" font-size="10.00">pism::energy::LiquifiedIceFlux</text>
</a>
</g>
</g>
<!-- Node2 -->
<g id="node2" class="node">
<title>Node2</title>
<g id="a_node2"><a xlink:href="classpism_1_1TSDiag.html" target="_top" xlink:title=" ">
<polygon fill="none" stroke="black" points="49.5,-57.5 49.5,-87.5 229.5,-87.5 229.5,-57.5 49.5,-57.5"/>
<text text-anchor="start" x="57.5" y="-75.5" font-family="Helvetica,sans-Serif" font-size="10.00">pism::TSDiag&lt; TSFluxDiagnostic,</text>
<text text-anchor="middle" x="139.5" y="-64.5" font-family="Helvetica,sans-Serif" font-size="10.00"> EnergyModel &gt;</text>
</a>
</g>
</g>
<!-- Node2&#45;&gt;Node1 -->
<g id="edge1" class="edge">
<title>Node2&#45;&gt;Node1</title>
<path fill="none" stroke="midnightblue" d="M139.5,-47.35C139.5,-37.51 139.5,-26.78 139.5,-19.54"/>
<polygon fill="midnightblue" stroke="midnightblue" points="136,-47.47 139.5,-57.47 143,-47.47 136,-47.47"/>
</g>
<!-- Node3 -->
<g id="node3" class="node">
<title>Node3</title>
<g id="a_node3"><a xlink:href="classpism_1_1TSFluxDiagnostic.html" target="_top" xlink:title="Scalar diagnostic reporting a &quot;flux&quot;.">
<polygon fill="none" stroke="black" points="1,-146.5 1,-165.5 132,-165.5 132,-146.5 1,-146.5"/>
<text text-anchor="middle" x="66.5" y="-153.5" font-family="Helvetica,sans-Serif" font-size="10.00">pism::TSFluxDiagnostic</text>
</a>
</g>
</g>
<!-- Node3&#45;&gt;Node2 -->
<g id="edge2" class="edge">
<title>Node3&#45;&gt;Node2</title>
<path fill="none" stroke="midnightblue" d="M81.02,-138.78C94.42,-123.83 114.11,-101.84 126.87,-87.6"/>
<polygon fill="midnightblue" stroke="midnightblue" points="78.38,-136.49 74.31,-146.28 83.59,-141.16 78.38,-136.49"/>
</g>
<!-- Node4 -->
<g id="node4" class="node">
<title>Node4</title>
<g id="a_node4"><a xlink:href="classpism_1_1TSRateDiagnostic.html" target="_top" xlink:title="Scalar diagnostic reporting the rate of change of a quantity modeled by PISM.">
<polygon fill="none" stroke="black" points="0,-203.5 0,-222.5 133,-222.5 133,-203.5 0,-203.5"/>
<text text-anchor="middle" x="66.5" y="-210.5" font-family="Helvetica,sans-Serif" font-size="10.00">pism::TSRateDiagnostic</text>
</a>
</g>
</g>
<!-- Node4&#45;&gt;Node3 -->
<g id="edge3" class="edge">
<title>Node4&#45;&gt;Node3</title>
<path fill="none" stroke="midnightblue" d="M66.5,-193.12C66.5,-183.82 66.5,-173.06 66.5,-165.71"/>
<polygon fill="midnightblue" stroke="midnightblue" points="63,-193.41 66.5,-203.41 70,-193.41 63,-193.41"/>
</g>
<!-- Node5 -->
<g id="node5" class="node">
<title>Node5</title>
<g id="a_node5"><a xlink:href="classpism_1_1TSDiagnostic.html" target="_top" xlink:title="PISM&#39;s scalar time&#45;series diagnostics.">
<polygon fill="none" stroke="black" points="11.5,-260.5 11.5,-279.5 121.5,-279.5 121.5,-260.5 11.5,-260.5"/>
<text text-anchor="middle" x="66.5" y="-267.5" font-family="Helvetica,sans-Serif" font-size="10.00">pism::TSDiagnostic</text>
</a>
</g>
</g>
<!-- Node5&#45;&gt;Node4 -->
<g id="edge4" class="edge">
<title>Node5&#45;&gt;Node4</title>
<path fill="none" stroke="midnightblue" d="M66.5,-250.12C66.5,-240.82 66.5,-230.06 66.5,-222.71"/>
<polygon fill="midnightblue" stroke="midnightblue" points="63,-250.41 66.5,-260.41 70,-250.41 63,-250.41"/>
</g>
<!-- Node6 -->
<g id="node6" class="node">
<title>Node6</title>
<g id="a_node6"><a xlink:href="classpism_1_1TSDiag.html" target="_top" xlink:title=" ">
<polygon fill="none" stroke="black" points="150.5,-146.5 150.5,-165.5 276.5,-165.5 276.5,-146.5 150.5,-146.5"/>
<text text-anchor="middle" x="213.5" y="-153.5" font-family="Helvetica,sans-Serif" font-size="10.00">pism::TSDiag&lt; D, M &gt;</text>
</a>
</g>
</g>
<!-- Node6&#45;&gt;Node2 -->
<g id="edge5" class="edge">
<title>Node6&#45;&gt;Node2</title>
<path fill="none" stroke="orange" stroke-dasharray="5,2" d="M198.78,-138.78C185.2,-123.83 165.23,-101.84 152.3,-87.6"/>
<polygon fill="orange" stroke="orange" points="196.27,-141.23 205.58,-146.28 201.45,-136.52 196.27,-141.23"/>
<text text-anchor="start" x="187.5" y="-120" font-family="Helvetica,sans-Serif" font-size="10.00"> &lt; TSFluxDiagnostic,</text>
<text text-anchor="middle" x="239" y="-109" font-family="Helvetica,sans-Serif" font-size="10.00"> EnergyModel &gt;</text>
</g>
<!-- Node7 -->
<g id="node7" class="node">
<title>Node7</title>
<g id="a_node7"><a xlink:href="classD.html" target="_top" xlink:title=" ">
<polygon fill="none" stroke="black" points="199,-203.5 199,-222.5 228,-222.5 228,-203.5 199,-203.5"/>
<text text-anchor="middle" x="213.5" y="-210.5" font-family="Helvetica,sans-Serif" font-size="10.00">D</text>
</a>
</g>
</g>
<!-- Node7&#45;&gt;Node6 -->
<g id="edge6" class="edge">
<title>Node7&#45;&gt;Node6</title>
<path fill="none" stroke="midnightblue" d="M213.5,-193.12C213.5,-183.82 213.5,-173.06 213.5,-165.71"/>
<polygon fill="midnightblue" stroke="midnightblue" points="210,-193.41 213.5,-203.41 217,-193.41 210,-193.41"/>
</g>
</g>
</svg>
