<?xml version="1.0" encoding="UTF-8" standalone="no"?>
<!DOCTYPE svg PUBLIC "-//W3C//DTD SVG 1.1//EN"
 "http://www.w3.org/Graphics/SVG/1.1/DTD/svg11.dtd">
<!-- Generated by graphviz version 2.43.0 (0)
 -->
<!-- Title: pism::ocean::diagnostics::PO_shelf_base_temperature Pages: 1 -->
<svg width="222pt" height="220pt"
 viewBox="0.00 0.00 222.00 220.00" xmlns="http://www.w3.org/2000/svg" xmlns:xlink="http://www.w3.org/1999/xlink">
<g id="graph0" class="graph" transform="scale(1 1) rotate(0) translate(4 216)">
<title>pism::ocean::diagnostics::PO_shelf_base_temperature</title>
<!-- Node1 -->
<g id="node1" class="node">
<title>Node1</title>
<g id="a_node1"><a xlink:title="Shelf base temperature.">
<polygon fill="#bfbfbf" stroke="black" points="0,-0.5 0,-30.5 160,-30.5 160,-0.5 0,-0.5"/>
<text text-anchor="start" x="8" y="-18.5" font-family="Helvetica,sans-Serif" font-size="10.00">pism::ocean::diagnostics</text>
<text text-anchor="middle" x="80" y="-7.5" font-family="Helvetica,sans-Serif" font-size="10.00">::PO_shelf_base_temperature</text>
</a>
</g>
</g>
<!-- Node2 -->
<g id="node2" class="node">
<title>Node2</title>
<g id="a_node2"><a xlink:href="classpism_1_1Diag.html" target="_top" xlink:title=" ">
<polygon fill="none" stroke="black" points="4,-68.5 4,-87.5 156,-87.5 156,-68.5 4,-68.5"/>
<text text-anchor="middle" x="80" y="-75.5" font-family="Helvetica,sans-Serif" font-size="10.00">pism::Diag&lt; OceanModel &gt;</text>
</a>
</g>
</g>
<!-- Node2&#45;&gt;Node1 -->
<g id="edge1" class="edge">
<title>Node2&#45;&gt;Node1</title>
<path fill="none" stroke="midnightblue" d="M80,-58.22C80,-49.36 80,-38.96 80,-30.76"/>
<polygon fill="midnightblue" stroke="midnightblue" points="76.5,-58.33 80,-68.33 83.5,-58.33 76.5,-58.33"/>
</g>
<!-- Node3 -->
<g id="node3" class="node">
<title>Node3</title>
<g id="a_node3"><a xlink:href="classpism_1_1Diagnostic.html" target="_top" xlink:title="Class representing diagnostic computations in PISM.">
<polygon fill="none" stroke="black" points="27,-192.5 27,-211.5 125,-211.5 125,-192.5 27,-192.5"/>
<text text-anchor="middle" x="76" y="-199.5" font-family="Helvetica,sans-Serif" font-size="10.00">pism::Diagnostic</text>
</a>
</g>
</g>
<!-- Node3&#45;&gt;Node2 -->
<g id="edge2" class="edge">
<title>Node3&#45;&gt;Node2</title>
<path fill="none" stroke="midnightblue" d="M76.62,-182.19C77.5,-155.4 79.07,-107.31 79.71,-87.69"/>
<polygon fill="midnightblue" stroke="midnightblue" points="73.12,-182.12 76.29,-192.23 80.11,-182.35 73.12,-182.12"/>
</g>
<!-- Node4 -->
<g id="node4" class="node">
<title>Node4</title>
<g id="a_node4"><a xlink:href="classpism_1_1Diag.html" target="_top" xlink:title="A template derived from Diagnostic, adding a &quot;Model&quot;.">
<polygon fill="none" stroke="black" points="92,-135.5 92,-154.5 214,-154.5 214,-135.5 92,-135.5"/>
<text text-anchor="middle" x="153" y="-142.5" font-family="Helvetica,sans-Serif" font-size="10.00">pism::Diag&lt; Model &gt;</text>
</a>
</g>
</g>
<!-- Node3&#45;&gt;Node4 -->
<g id="edge4" class="edge">
<title>Node3&#45;&gt;Node4</title>
<path fill="none" stroke="midnightblue" d="M96.25,-186.54C110.5,-176.35 129.11,-163.07 141.05,-154.53"/>
<polygon fill="midnightblue" stroke="midnightblue" points="94.13,-183.75 88.03,-192.41 98.2,-189.44 94.13,-183.75"/>
</g>
<!-- Node4&#45;&gt;Node2 -->
<g id="edge3" class="edge">
<title>Node4&#45;&gt;Node2</title>
<path fill="none" stroke="orange" stroke-dasharray="5,2" d="M135.43,-128.36C121.08,-115.58 101.33,-97.99 89.69,-87.63"/>
<polygon fill="orange" stroke="orange" points="133.36,-131.2 143.15,-135.23 138.01,-125.97 133.36,-131.2"/>
<text text-anchor="middle" x="163.5" y="-109" font-family="Helvetica,sans-Serif" font-size="10.00"> &lt; OceanModel &gt;</text>
</g>
</g>
</svg>
