<?xml version="1.0" encoding="UTF-8" standalone="no"?>
<!DOCTYPE svg PUBLIC "-//W3C//DTD SVG 1.1//EN"
 "http://www.w3.org/Graphics/SVG/1.1/DTD/svg11.dtd">
<!-- Generated by graphviz version 2.43.0 (0)
 -->
<!-- Title: pism::Config Pages: 1 -->
<svg width="242pt" height="140pt"
 viewBox="0.00 0.00 242.00 140.00" xmlns="http://www.w3.org/2000/svg" xmlns:xlink="http://www.w3.org/1999/xlink">
<g id="graph0" class="graph" transform="scale(1 1) rotate(0) translate(4 136)">
<title>pism::Config</title>
<!-- Node1 -->
<g id="node1" class="node">
<title>Node1</title>
<g id="a_node1"><a xlink:title="A class for storing and accessing PISM configuration flags and parameters.">
<polygon fill="#bfbfbf" stroke="black" points="75,-112.5 75,-131.5 152,-131.5 152,-112.5 75,-112.5"/>
<text text-anchor="middle" x="113.5" y="-119.5" font-family="Helvetica,sans-Serif" font-size="10.00">pism::Config</text>
</a>
</g>
</g>
<!-- Node2 -->
<g id="node2" class="node">
<title>Node2</title>
<g id="a_node2"><a xlink:href="classpism_1_1ConfigJSON.html" target="_top" xlink:title="The JSON&#45;based Config implementation.">
<polygon fill="none" stroke="black" points="0,-56.5 0,-75.5 101,-75.5 101,-56.5 0,-56.5"/>
<text text-anchor="middle" x="50.5" y="-63.5" font-family="Helvetica,sans-Serif" font-size="10.00">pism::ConfigJSON</text>
</a>
</g>
</g>
<!-- Node1&#45;&gt;Node2 -->
<g id="edge1" class="edge">
<title>Node1&#45;&gt;Node2</title>
<path fill="none" stroke="midnightblue" d="M95.46,-105.54C84.23,-95.91 70.18,-83.87 60.81,-75.83"/>
<polygon fill="midnightblue" stroke="midnightblue" points="93.51,-108.47 103.38,-112.32 98.06,-103.16 93.51,-108.47"/>
</g>
<!-- Node3 -->
<g id="node3" class="node">
<title>Node3</title>
<g id="a_node3"><a xlink:href="classpism_1_1NetCDFConfig.html" target="_top" xlink:title="A class for reading, writing and accessing PISM configuration flags and parameters.">
<polygon fill="none" stroke="black" points="119,-56.5 119,-75.5 234,-75.5 234,-56.5 119,-56.5"/>
<text text-anchor="middle" x="176.5" y="-63.5" font-family="Helvetica,sans-Serif" font-size="10.00">pism::NetCDFConfig</text>
</a>
</g>
</g>
<!-- Node1&#45;&gt;Node3 -->
<g id="edge2" class="edge">
<title>Node1&#45;&gt;Node3</title>
<path fill="none" stroke="midnightblue" d="M131.54,-105.54C142.77,-95.91 156.82,-83.87 166.19,-75.83"/>
<polygon fill="midnightblue" stroke="midnightblue" points="128.94,-103.16 123.62,-112.32 133.49,-108.47 128.94,-103.16"/>
</g>
<!-- Node4 -->
<g id="node4" class="node">
<title>Node4</title>
<g id="a_node4"><a xlink:href="classpism_1_1DefaultConfig.html" target="_top" xlink:title="Default PISM configuration database: uses NetCDF files; can be initialized from a file specified usin...">
<polygon fill="none" stroke="black" points="120,-0.5 120,-19.5 233,-19.5 233,-0.5 120,-0.5"/>
<text text-anchor="middle" x="176.5" y="-7.5" font-family="Helvetica,sans-Serif" font-size="10.00">pism::DefaultConfig</text>
</a>
</g>
</g>
<!-- Node3&#45;&gt;Node4 -->
<g id="edge3" class="edge">
<title>Node3&#45;&gt;Node4</title>
<path fill="none" stroke="midnightblue" d="M176.5,-45.8C176.5,-36.91 176.5,-26.78 176.5,-19.75"/>
<polygon fill="midnightblue" stroke="midnightblue" points="173,-46.08 176.5,-56.08 180,-46.08 173,-46.08"/>
</g>
</g>
</svg>
