<?xml version="1.0" encoding="UTF-8" standalone="no"?>
<!DOCTYPE svg PUBLIC "-//W3C//DTD SVG 1.1//EN"
 "http://www.w3.org/Graphics/SVG/1.1/DTD/svg11.dtd">
<!-- Generated by graphviz version 2.43.0 (0)
 -->
<!-- Title: pism::columnSystemCtx Pages: 1 -->
<svg width="510pt" height="84pt"
 viewBox="0.00 0.00 510.00 84.00" xmlns="http://www.w3.org/2000/svg" xmlns:xlink="http://www.w3.org/1999/xlink">
<g id="graph0" class="graph" transform="scale(1 1) rotate(0) translate(4 80)">
<title>pism::columnSystemCtx</title>
<!-- Node1 -->
<g id="node1" class="node">
<title>Node1</title>
<g id="a_node1"><a xlink:title="Base class for tridiagonal systems in the ice.">
<polygon fill="#bfbfbf" stroke="black" points="171,-56.5 171,-75.5 307,-75.5 307,-56.5 171,-56.5"/>
<text text-anchor="middle" x="239" y="-63.5" font-family="Helvetica,sans-Serif" font-size="10.00">pism::columnSystemCtx</text>
</a>
</g>
</g>
<!-- Node2 -->
<g id="node2" class="node">
<title>Node2</title>
<g id="a_node2"><a xlink:href="classpism_1_1AgeColumnSystem.html" target="_top" xlink:title="Tridiagonal linear system for vertical column of age (pure advection) problem.">
<polygon fill="none" stroke="black" points="0,-0.5 0,-19.5 140,-19.5 140,-0.5 0,-0.5"/>
<text text-anchor="middle" x="70" y="-7.5" font-family="Helvetica,sans-Serif" font-size="10.00">pism::AgeColumnSystem</text>
</a>
</g>
</g>
<!-- Node1&#45;&gt;Node2 -->
<g id="edge1" class="edge">
<title>Node1&#45;&gt;Node2</title>
<path fill="none" stroke="midnightblue" d="M202.4,-53.3C170.55,-43.13 125.16,-28.62 96.65,-19.52"/>
<polygon fill="midnightblue" stroke="midnightblue" points="201.63,-56.73 212.22,-56.44 203.76,-50.07 201.63,-56.73"/>
</g>
<!-- Node3 -->
<g id="node3" class="node">
<title>Node3</title>
<g id="a_node3"><a xlink:href="classpism_1_1energy_1_1enthSystemCtx.html" target="_top" xlink:title="Tridiagonal linear system for conservation of energy in vertical column of ice enthalpy.">
<polygon fill="none" stroke="black" points="158.5,-0.5 158.5,-19.5 319.5,-19.5 319.5,-0.5 158.5,-0.5"/>
<text text-anchor="middle" x="239" y="-7.5" font-family="Helvetica,sans-Serif" font-size="10.00">pism::energy::enthSystemCtx</text>
</a>
</g>
</g>
<!-- Node1&#45;&gt;Node3 -->
<g id="edge2" class="edge">
<title>Node1&#45;&gt;Node3</title>
<path fill="none" stroke="midnightblue" d="M239,-45.8C239,-36.91 239,-26.78 239,-19.75"/>
<polygon fill="midnightblue" stroke="midnightblue" points="235.5,-46.08 239,-56.08 242.5,-46.08 235.5,-46.08"/>
</g>
<!-- Node4 -->
<g id="node4" class="node">
<title>Node4</title>
<g id="a_node4"><a xlink:href="classpism_1_1energy_1_1tempSystemCtx.html" target="_top" xlink:title="Tridiagonal linear system for vertical column of temperature&#45;based conservation of energy problem.">
<polygon fill="none" stroke="black" points="338,-0.5 338,-19.5 502,-19.5 502,-0.5 338,-0.5"/>
<text text-anchor="middle" x="420" y="-7.5" font-family="Helvetica,sans-Serif" font-size="10.00">pism::energy::tempSystemCtx</text>
</a>
</g>
</g>
<!-- Node1&#45;&gt;Node4 -->
<g id="edge3" class="edge">
<title>Node1&#45;&gt;Node4</title>
<path fill="none" stroke="midnightblue" d="M277.32,-53.57C311.46,-43.38 360.66,-28.7 391.45,-19.52"/>
<polygon fill="midnightblue" stroke="midnightblue" points="276.26,-50.23 267.68,-56.44 278.26,-56.94 276.26,-50.23"/>
</g>
</g>
</svg>
