<?xml version="1.0" encoding="UTF-8" standalone="no"?>
<!DOCTYPE svg PUBLIC "-//W3C//DTD SVG 1.1//EN"
 "http://www.w3.org/Graphics/SVG/1.1/DTD/svg11.dtd">
<!-- Generated by graphviz version 2.43.0 (0)
 -->
<!-- Title: pism::stressbalance::PSB_vonmises_stress Pages: 1 -->
<svg width="224pt" height="220pt"
 viewBox="0.00 0.00 223.50 220.00" xmlns="http://www.w3.org/2000/svg" xmlns:xlink="http://www.w3.org/1999/xlink">
<g id="graph0" class="graph" transform="scale(1 1) rotate(0) translate(4 216)">
<title>pism::stressbalance::PSB_vonmises_stress</title>
<!-- Node1 -->
<g id="node1" class="node">
<title>Node1</title>
<g id="a_node1"><a xlink:title="tensile von Mises stress">
<polygon fill="#bfbfbf" stroke="black" points="16.5,-0.5 16.5,-30.5 144.5,-30.5 144.5,-0.5 16.5,-0.5"/>
<text text-anchor="start" x="24.5" y="-18.5" font-family="Helvetica,sans-Serif" font-size="10.00">pism::stressbalance</text>
<text text-anchor="middle" x="80.5" y="-7.5" font-family="Helvetica,sans-Serif" font-size="10.00">::PSB_vonmises_stress</text>
</a>
</g>
</g>
<!-- Node2 -->
<g id="node2" class="node">
<title>Node2</title>
<g id="a_node2"><a xlink:href="classpism_1_1Diag.html" target="_top" xlink:title=" ">
<polygon fill="none" stroke="black" points="0,-68.5 0,-87.5 161,-87.5 161,-68.5 0,-68.5"/>
<text text-anchor="middle" x="80.5" y="-75.5" font-family="Helvetica,sans-Serif" font-size="10.00">pism::Diag&lt; StressBalance &gt;</text>
</a>
</g>
</g>
<!-- Node2&#45;&gt;Node1 -->
<g id="edge1" class="edge">
<title>Node2&#45;&gt;Node1</title>
<path fill="none" stroke="midnightblue" d="M80.5,-58.22C80.5,-49.36 80.5,-38.96 80.5,-30.76"/>
<polygon fill="midnightblue" stroke="midnightblue" points="77,-58.33 80.5,-68.33 84,-58.33 77,-58.33"/>
</g>
<!-- Node3 -->
<g id="node3" class="node">
<title>Node3</title>
<g id="a_node3"><a xlink:href="classpism_1_1Diagnostic.html" target="_top" xlink:title="Class representing diagnostic computations in PISM.">
<polygon fill="none" stroke="black" points="27.5,-192.5 27.5,-211.5 125.5,-211.5 125.5,-192.5 27.5,-192.5"/>
<text text-anchor="middle" x="76.5" y="-199.5" font-family="Helvetica,sans-Serif" font-size="10.00">pism::Diagnostic</text>
</a>
</g>
</g>
<!-- Node3&#45;&gt;Node2 -->
<g id="edge2" class="edge">
<title>Node3&#45;&gt;Node2</title>
<path fill="none" stroke="midnightblue" d="M77.12,-182.19C78,-155.4 79.57,-107.31 80.21,-87.69"/>
<polygon fill="midnightblue" stroke="midnightblue" points="73.62,-182.12 76.79,-192.23 80.61,-182.35 73.62,-182.12"/>
</g>
<!-- Node4 -->
<g id="node4" class="node">
<title>Node4</title>
<g id="a_node4"><a xlink:href="classpism_1_1Diag.html" target="_top" xlink:title="A template derived from Diagnostic, adding a &quot;Model&quot;.">
<polygon fill="none" stroke="black" points="92.5,-135.5 92.5,-154.5 214.5,-154.5 214.5,-135.5 92.5,-135.5"/>
<text text-anchor="middle" x="153.5" y="-142.5" font-family="Helvetica,sans-Serif" font-size="10.00">pism::Diag&lt; Model &gt;</text>
</a>
</g>
</g>
<!-- Node3&#45;&gt;Node4 -->
<g id="edge4" class="edge">
<title>Node3&#45;&gt;Node4</title>
<path fill="none" stroke="midnightblue" d="M96.75,-186.54C111,-176.35 129.61,-163.07 141.55,-154.53"/>
<polygon fill="midnightblue" stroke="midnightblue" points="94.63,-183.75 88.53,-192.41 98.7,-189.44 94.63,-183.75"/>
</g>
<!-- Node4&#45;&gt;Node2 -->
<g id="edge3" class="edge">
<title>Node4&#45;&gt;Node2</title>
<path fill="none" stroke="orange" stroke-dasharray="5,2" d="M135.93,-128.36C121.58,-115.58 101.83,-97.99 90.19,-87.63"/>
<polygon fill="orange" stroke="orange" points="133.86,-131.2 143.65,-135.23 138.51,-125.97 133.86,-131.2"/>
<text text-anchor="middle" x="168" y="-109" font-family="Helvetica,sans-Serif" font-size="10.00"> &lt; StressBalance &gt;</text>
</g>
</g>
</svg>
