<?xml version="1.0" encoding="UTF-8" standalone="no"?>
<!DOCTYPE svg PUBLIC "-//W3C//DTD SVG 1.1//EN"
 "http://www.w3.org/Graphics/SVG/1.1/DTD/svg11.dtd">
<!-- Generated by graphviz version 2.43.0 (0)
 -->
<!-- Title: pism::inverse::IPDesignVariableParameterization Pages: 1 -->
<svg width="386pt" height="186pt"
 viewBox="0.00 0.00 386.00 186.00" xmlns="http://www.w3.org/2000/svg" xmlns:xlink="http://www.w3.org/1999/xlink">
<g id="graph0" class="graph" transform="scale(1 1) rotate(0) translate(4 182)">
<title>pism::inverse::IPDesignVariableParameterization</title>
<!-- Node1 -->
<g id="node1" class="node">
<title>Node1</title>
<g id="a_node1"><a xlink:title=" ">
<polygon fill="#bfbfbf" stroke="black" points="0,-73.5 0,-103.5 171,-103.5 171,-73.5 0,-73.5"/>
<text text-anchor="start" x="8" y="-91.5" font-family="Helvetica,sans-Serif" font-size="10.00">pism::inverse::IPDesignVariable</text>
<text text-anchor="middle" x="85.5" y="-80.5" font-family="Helvetica,sans-Serif" font-size="10.00">Parameterization</text>
</a>
</g>
</g>
<!-- Node2 -->
<g id="node2" class="node">
<title>Node2</title>
<g id="a_node2"><a xlink:href="classpism_1_1inverse_1_1IPDesignVariableParamExp.html" target="_top" xlink:title="Parameterization &#160;with .">
<polygon fill="none" stroke="black" points="207,-147.5 207,-177.5 378,-177.5 378,-147.5 207,-147.5"/>
<text text-anchor="start" x="215" y="-165.5" font-family="Helvetica,sans-Serif" font-size="10.00">pism::inverse::IPDesignVariable</text>
<text text-anchor="middle" x="292.5" y="-154.5" font-family="Helvetica,sans-Serif" font-size="10.00">ParamExp</text>
</a>
</g>
</g>
<!-- Node1&#45;&gt;Node2 -->
<g id="edge1" class="edge">
<title>Node1&#45;&gt;Node2</title>
<path fill="none" stroke="midnightblue" d="M129.25,-107.67C152.08,-117.54 180.8,-129.38 207,-138.5 215.93,-141.61 225.49,-144.62 234.85,-147.4"/>
<polygon fill="midnightblue" stroke="midnightblue" points="130.42,-104.36 119.86,-103.57 127.63,-110.78 130.42,-104.36"/>
</g>
<!-- Node3 -->
<g id="node3" class="node">
<title>Node3</title>
<g id="a_node3"><a xlink:href="classpism_1_1inverse_1_1IPDesignVariableParamIdent.html" target="_top" xlink:title="Parameterization &#160;with .">
<polygon fill="none" stroke="black" points="207,-98.5 207,-128.5 378,-128.5 378,-98.5 207,-98.5"/>
<text text-anchor="start" x="215" y="-116.5" font-family="Helvetica,sans-Serif" font-size="10.00">pism::inverse::IPDesignVariable</text>
<text text-anchor="middle" x="292.5" y="-105.5" font-family="Helvetica,sans-Serif" font-size="10.00">ParamIdent</text>
</a>
</g>
</g>
<!-- Node1&#45;&gt;Node3 -->
<g id="edge2" class="edge">
<title>Node1&#45;&gt;Node3</title>
<path fill="none" stroke="midnightblue" d="M181.09,-100.03C189.66,-101.08 198.31,-102.14 206.8,-103.17"/>
<polygon fill="midnightblue" stroke="midnightblue" points="181.42,-96.55 171.06,-98.81 180.57,-103.5 181.42,-96.55"/>
</g>
<!-- Node4 -->
<g id="node4" class="node">
<title>Node4</title>
<g id="a_node4"><a xlink:href="classpism_1_1inverse_1_1IPDesignVariableParamSquare.html" target="_top" xlink:title="Parameterization &#160;with .">
<polygon fill="none" stroke="black" points="207,-49.5 207,-79.5 378,-79.5 378,-49.5 207,-49.5"/>
<text text-anchor="start" x="215" y="-67.5" font-family="Helvetica,sans-Serif" font-size="10.00">pism::inverse::IPDesignVariable</text>
<text text-anchor="middle" x="292.5" y="-56.5" font-family="Helvetica,sans-Serif" font-size="10.00">ParamSquare</text>
</a>
</g>
</g>
<!-- Node1&#45;&gt;Node4 -->
<g id="edge3" class="edge">
<title>Node1&#45;&gt;Node4</title>
<path fill="none" stroke="midnightblue" d="M181.09,-77.43C189.66,-76.42 198.31,-75.41 206.8,-74.42"/>
<polygon fill="midnightblue" stroke="midnightblue" points="180.59,-73.96 171.06,-78.6 181.4,-80.91 180.59,-73.96"/>
</g>
<!-- Node5 -->
<g id="node5" class="node">
<title>Node5</title>
<g id="a_node5"><a xlink:href="classpism_1_1inverse_1_1IPDesignVariableParamTruncatedIdent.html" target="_top" xlink:title="A monotone non&#45;negative parameterization &#160;that is approximately the identity away from small values o...">
<polygon fill="none" stroke="black" points="207,-0.5 207,-30.5 378,-30.5 378,-0.5 207,-0.5"/>
<text text-anchor="start" x="215" y="-18.5" font-family="Helvetica,sans-Serif" font-size="10.00">pism::inverse::IPDesignVariable</text>
<text text-anchor="middle" x="292.5" y="-7.5" font-family="Helvetica,sans-Serif" font-size="10.00">ParamTruncatedIdent</text>
</a>
</g>
</g>
<!-- Node1&#45;&gt;Node5 -->
<g id="edge4" class="edge">
<title>Node1&#45;&gt;Node5</title>
<path fill="none" stroke="midnightblue" d="M131.09,-69.61C153.66,-60.34 181.58,-49.3 207,-40.5 216.97,-37.05 227.71,-33.64 238.07,-30.5"/>
<polygon fill="midnightblue" stroke="midnightblue" points="129.67,-66.41 121.77,-73.46 132.35,-72.88 129.67,-66.41"/>
</g>
</g>
</svg>
