<?xml version="1.0" encoding="UTF-8" standalone="no"?>
<!DOCTYPE svg PUBLIC "-//W3C//DTD SVG 1.1//EN"
 "http://www.w3.org/Graphics/SVG/1.1/DTD/svg11.dtd">
<!-- Generated by graphviz version 2.43.0 (0)
 -->
<!-- Title: pism::rheology::GoldsbyKohlstedtStripped Pages: 1 -->
<svg width="188pt" height="151pt"
 viewBox="0.00 0.00 188.00 151.00" xmlns="http://www.w3.org/2000/svg" xmlns:xlink="http://www.w3.org/1999/xlink">
<g id="graph0" class="graph" transform="scale(1 1) rotate(0) translate(4 147)">
<title>pism::rheology::GoldsbyKohlstedtStripped</title>
<!-- Node1 -->
<g id="node1" class="node">
<title>Node1</title>
<g id="a_node1"><a xlink:title="Derived class of GoldsbyKohlstedt for testing purposes only.">
<polygon fill="#bfbfbf" stroke="black" points="0,-0.5 0,-30.5 180,-30.5 180,-0.5 0,-0.5"/>
<text text-anchor="start" x="8" y="-18.5" font-family="Helvetica,sans-Serif" font-size="10.00">pism::rheology::GoldsbyKohlstedt</text>
<text text-anchor="middle" x="90" y="-7.5" font-family="Helvetica,sans-Serif" font-size="10.00">Stripped</text>
</a>
</g>
</g>
<!-- Node2 -->
<g id="node2" class="node">
<title>Node2</title>
<g id="a_node2"><a xlink:href="classpism_1_1rheology_1_1GoldsbyKohlstedt.html" target="_top" xlink:title="A hybrid of Goldsby&#45;Kohlstedt (2001) ice (constitutive form) and Paterson&#45;Budd (1982)&#45;Glen (viscosity...">
<polygon fill="none" stroke="black" points="0,-67.5 0,-86.5 180,-86.5 180,-67.5 0,-67.5"/>
<text text-anchor="middle" x="90" y="-74.5" font-family="Helvetica,sans-Serif" font-size="10.00">pism::rheology::GoldsbyKohlstedt</text>
</a>
</g>
</g>
<!-- Node2&#45;&gt;Node1 -->
<g id="edge1" class="edge">
<title>Node2&#45;&gt;Node1</title>
<path fill="none" stroke="midnightblue" d="M90,-57.23C90,-48.59 90,-38.5 90,-30.52"/>
<polygon fill="midnightblue" stroke="midnightblue" points="86.5,-57.48 90,-67.48 93.5,-57.48 86.5,-57.48"/>
</g>
<!-- Node3 -->
<g id="node3" class="node">
<title>Node3</title>
<g id="a_node3"><a xlink:href="classpism_1_1rheology_1_1FlowLaw.html" target="_top" xlink:title=" ">
<polygon fill="none" stroke="black" points="21.5,-123.5 21.5,-142.5 158.5,-142.5 158.5,-123.5 21.5,-123.5"/>
<text text-anchor="middle" x="90" y="-130.5" font-family="Helvetica,sans-Serif" font-size="10.00">pism::rheology::FlowLaw</text>
</a>
</g>
</g>
<!-- Node3&#45;&gt;Node2 -->
<g id="edge2" class="edge">
<title>Node3&#45;&gt;Node2</title>
<path fill="none" stroke="midnightblue" d="M90,-112.8C90,-103.91 90,-93.78 90,-86.75"/>
<polygon fill="midnightblue" stroke="midnightblue" points="86.5,-113.08 90,-123.08 93.5,-113.08 86.5,-113.08"/>
</g>
</g>
</svg>
