<?xml version="1.0" encoding="UTF-8" standalone="no"?>
<!DOCTYPE svg PUBLIC "-//W3C//DTD SVG 1.1//EN"
 "http://www.w3.org/Graphics/SVG/1.1/DTD/svg11.dtd">
<!-- Generated by graphviz version 2.43.0 (0)
 -->
<!-- Title: pism::frontalmelt::diagnostics::FrontalMeltRetreatRate Pages: 1 -->
<svg width="280pt" height="355pt"
 viewBox="0.00 0.00 279.50 355.00" xmlns="http://www.w3.org/2000/svg" xmlns:xlink="http://www.w3.org/1999/xlink">
<g id="graph0" class="graph" transform="scale(1 1) rotate(0) translate(4 351)">
<title>pism::frontalmelt::diagnostics::FrontalMeltRetreatRate</title>
<!-- Node1 -->
<g id="node1" class="node">
<title>Node1</title>
<g id="a_node1"><a xlink:title="Report retreat rate due to frontal melt.">
<polygon fill="#bfbfbf" stroke="black" points="0,-0.5 0,-30.5 192,-30.5 192,-0.5 0,-0.5"/>
<text text-anchor="start" x="8" y="-18.5" font-family="Helvetica,sans-Serif" font-size="10.00">pism::frontalmelt::</text>
<text text-anchor="middle" x="96" y="-7.5" font-family="Helvetica,sans-Serif" font-size="10.00">diagnostics::FrontalMeltRetreatRate</text>
</a>
</g>
</g>
<!-- Node2 -->
<g id="node2" class="node">
<title>Node2</title>
<g id="a_node2"><a xlink:href="classpism_1_1DiagAverageRate.html" target="_top" xlink:title=" ">
<polygon fill="none" stroke="black" points="30.5,-68.5 30.5,-98.5 161.5,-98.5 161.5,-68.5 30.5,-68.5"/>
<text text-anchor="start" x="38.5" y="-86.5" font-family="Helvetica,sans-Serif" font-size="10.00">pism::DiagAverageRate</text>
<text text-anchor="middle" x="96" y="-75.5" font-family="Helvetica,sans-Serif" font-size="10.00">&lt; FrontalMelt &gt;</text>
</a>
</g>
</g>
<!-- Node2&#45;&gt;Node1 -->
<g id="edge1" class="edge">
<title>Node2&#45;&gt;Node1</title>
<path fill="none" stroke="midnightblue" d="M96,-58.03C96,-48.86 96,-38.74 96,-30.79"/>
<polygon fill="midnightblue" stroke="midnightblue" points="92.5,-58.18 96,-68.18 99.5,-58.18 92.5,-58.18"/>
</g>
<!-- Node3 -->
<g id="node3" class="node">
<title>Node3</title>
<g id="a_node3"><a xlink:href="classpism_1_1Diag.html" target="_top" xlink:title="A template derived from Diagnostic, adding a &quot;Model&quot;.">
<polygon fill="none" stroke="black" points="29,-270.5 29,-289.5 151,-289.5 151,-270.5 29,-270.5"/>
<text text-anchor="middle" x="90" y="-277.5" font-family="Helvetica,sans-Serif" font-size="10.00">pism::Diag&lt; Model &gt;</text>
</a>
</g>
</g>
<!-- Node3&#45;&gt;Node2 -->
<g id="edge2" class="edge">
<title>Node3&#45;&gt;Node2</title>
<path fill="none" stroke="midnightblue" d="M90.59,-260.01C91.79,-221.11 94.5,-133.14 95.56,-98.7"/>
<polygon fill="midnightblue" stroke="midnightblue" points="87.08,-260.29 90.27,-270.39 94.07,-260.5 87.08,-260.29"/>
</g>
<!-- Node6 -->
<g id="node6" class="node">
<title>Node6</title>
<g id="a_node6"><a xlink:href="classpism_1_1Diag.html" target="_top" xlink:title=" ">
<polygon fill="none" stroke="black" points="128.5,-203.5 128.5,-222.5 229.5,-222.5 229.5,-203.5 128.5,-203.5"/>
<text text-anchor="middle" x="179" y="-210.5" font-family="Helvetica,sans-Serif" font-size="10.00">pism::Diag&lt; M &gt;</text>
</a>
</g>
</g>
<!-- Node3&#45;&gt;Node6 -->
<g id="edge7" class="edge">
<title>Node3&#45;&gt;Node6</title>
<path fill="none" stroke="orange" stroke-dasharray="5,2" d="M104.75,-263.23C111.97,-255.98 121.03,-247.56 130,-241 139.56,-234 151.14,-227.54 160.64,-222.7"/>
<polygon fill="orange" stroke="orange" points="102.17,-260.87 97.73,-270.49 107.2,-265.74 102.17,-260.87"/>
<text text-anchor="middle" x="147.5" y="-244" font-family="Helvetica,sans-Serif" font-size="10.00"> &lt; M &gt;</text>
</g>
<!-- Node4 -->
<g id="node4" class="node">
<title>Node4</title>
<g id="a_node4"><a xlink:href="classpism_1_1Diagnostic.html" target="_top" xlink:title="Class representing diagnostic computations in PISM.">
<polygon fill="none" stroke="black" points="85,-327.5 85,-346.5 183,-346.5 183,-327.5 85,-327.5"/>
<text text-anchor="middle" x="134" y="-334.5" font-family="Helvetica,sans-Serif" font-size="10.00">pism::Diagnostic</text>
</a>
</g>
</g>
<!-- Node4&#45;&gt;Node3 -->
<g id="edge3" class="edge">
<title>Node4&#45;&gt;Node3</title>
<path fill="none" stroke="midnightblue" d="M120.83,-319.53C112.99,-309.74 103.36,-297.7 96.97,-289.71"/>
<polygon fill="midnightblue" stroke="midnightblue" points="118.14,-321.78 127.12,-327.41 123.61,-317.41 118.14,-321.78"/>
</g>
<!-- Node4&#45;&gt;Node6 -->
<g id="edge6" class="edge">
<title>Node4&#45;&gt;Node6</title>
<path fill="none" stroke="midnightblue" d="M145.25,-318.7C150.32,-310.3 156.05,-299.9 160,-290 169.38,-266.5 175.16,-237.03 177.62,-222.67"/>
<polygon fill="midnightblue" stroke="midnightblue" points="142.27,-316.86 139.93,-327.2 148.2,-320.58 142.27,-316.86"/>
</g>
<!-- Node5 -->
<g id="node5" class="node">
<title>Node5</title>
<g id="a_node5"><a xlink:href="classpism_1_1DiagAverageRate.html" target="_top" xlink:title=" ">
<polygon fill="none" stroke="black" points="108.5,-146.5 108.5,-165.5 271.5,-165.5 271.5,-146.5 108.5,-146.5"/>
<text text-anchor="middle" x="190" y="-153.5" font-family="Helvetica,sans-Serif" font-size="10.00">pism::DiagAverageRate&lt; M &gt;</text>
</a>
</g>
</g>
<!-- Node5&#45;&gt;Node2 -->
<g id="edge4" class="edge">
<title>Node5&#45;&gt;Node2</title>
<path fill="none" stroke="orange" stroke-dasharray="5,2" d="M170.17,-140.13C153.83,-127.87 130.81,-110.61 114.77,-98.58"/>
<polygon fill="orange" stroke="orange" points="168.37,-143.16 178.47,-146.36 172.57,-137.56 168.37,-143.16"/>
<text text-anchor="middle" x="192" y="-120" font-family="Helvetica,sans-Serif" font-size="10.00"> &lt; FrontalMelt &gt;</text>
</g>
<!-- Node6&#45;&gt;Node5 -->
<g id="edge5" class="edge">
<title>Node6&#45;&gt;Node5</title>
<path fill="none" stroke="midnightblue" d="M182.72,-193.42C184.59,-184.05 186.77,-173.14 188.26,-165.71"/>
<polygon fill="midnightblue" stroke="midnightblue" points="179.25,-192.91 180.72,-203.41 186.11,-194.29 179.25,-192.91"/>
</g>
</g>
</svg>
