<?xml version="1.0" encoding="UTF-8" standalone="no"?>
<!DOCTYPE svg PUBLIC "-//W3C//DTD SVG 1.1//EN"
 "http://www.w3.org/Graphics/SVG/1.1/DTD/svg11.dtd">
<!-- Generated by graphviz version 2.43.0 (0)
 -->
<!-- Title: pism::surface::PSFormulas Pages: 1 -->
<svg width="304pt" height="196pt"
 viewBox="0.00 0.00 304.00 196.00" xmlns="http://www.w3.org/2000/svg" xmlns:xlink="http://www.w3.org/1999/xlink">
<g id="graph0" class="graph" transform="scale(1 1) rotate(0) translate(4 192)">
<title>pism::surface::PSFormulas</title>
<!-- Node1 -->
<g id="node1" class="node">
<title>Node1</title>
<g id="a_node1"><a xlink:title=" ">
<polygon fill="#bfbfbf" stroke="black" points="72.5,-56.5 72.5,-75.5 218.5,-75.5 218.5,-56.5 72.5,-56.5"/>
<text text-anchor="middle" x="145.5" y="-63.5" font-family="Helvetica,sans-Serif" font-size="10.00">pism::surface::PSFormulas</text>
</a>
</g>
</g>
<!-- Node4 -->
<g id="node4" class="node">
<title>Node4</title>
<g id="a_node4"><a xlink:href="classpism_1_1surface_1_1EISMINTII.html" target="_top" xlink:title=" ">
<polygon fill="none" stroke="black" points="0,-0.5 0,-19.5 135,-19.5 135,-0.5 0,-0.5"/>
<text text-anchor="middle" x="67.5" y="-7.5" font-family="Helvetica,sans-Serif" font-size="10.00">pism::surface::EISMINTII</text>
</a>
</g>
</g>
<!-- Node1&#45;&gt;Node4 -->
<g id="edge3" class="edge">
<title>Node1&#45;&gt;Node4</title>
<path fill="none" stroke="midnightblue" d="M124.73,-50.62C110.48,-40.76 92.04,-27.99 80,-19.65"/>
<polygon fill="midnightblue" stroke="midnightblue" points="122.75,-53.51 132.97,-56.32 126.74,-47.75 122.75,-53.51"/>
</g>
<!-- Node5 -->
<g id="node5" class="node">
<title>Node5</title>
<g id="a_node5"><a xlink:href="classpism_1_1surface_1_1Verification.html" target="_top" xlink:title="Climate inputs for verification tests.">
<polygon fill="none" stroke="black" points="153,-0.5 153,-19.5 296,-19.5 296,-0.5 153,-0.5"/>
<text text-anchor="middle" x="224.5" y="-7.5" font-family="Helvetica,sans-Serif" font-size="10.00">pism::surface::Verification</text>
</a>
</g>
</g>
<!-- Node1&#45;&gt;Node5 -->
<g id="edge4" class="edge">
<title>Node1&#45;&gt;Node5</title>
<path fill="none" stroke="midnightblue" d="M166.53,-50.62C180.97,-40.76 199.64,-27.99 211.84,-19.65"/>
<polygon fill="midnightblue" stroke="midnightblue" points="164.47,-47.79 158.19,-56.32 168.42,-53.57 164.47,-47.79"/>
</g>
<!-- Node2 -->
<g id="node2" class="node">
<title>Node2</title>
<g id="a_node2"><a xlink:href="classpism_1_1surface_1_1SurfaceModel.html" target="_top" xlink:title="The interface of PISM&#39;s surface models.">
<polygon fill="none" stroke="black" points="68,-112.5 68,-131.5 223,-131.5 223,-112.5 68,-112.5"/>
<text text-anchor="middle" x="145.5" y="-119.5" font-family="Helvetica,sans-Serif" font-size="10.00">pism::surface::SurfaceModel</text>
</a>
</g>
</g>
<!-- Node2&#45;&gt;Node1 -->
<g id="edge1" class="edge">
<title>Node2&#45;&gt;Node1</title>
<path fill="none" stroke="midnightblue" d="M145.5,-101.8C145.5,-92.91 145.5,-82.78 145.5,-75.75"/>
<polygon fill="midnightblue" stroke="midnightblue" points="142,-102.08 145.5,-112.08 149,-102.08 142,-102.08"/>
</g>
<!-- Node3 -->
<g id="node3" class="node">
<title>Node3</title>
<g id="a_node3"><a xlink:href="classpism_1_1Component.html" target="_top" xlink:title="A class defining a common interface for most PISM sub&#45;models.">
<polygon fill="none" stroke="black" points="94,-168.5 94,-187.5 197,-187.5 197,-168.5 94,-168.5"/>
<text text-anchor="middle" x="145.5" y="-175.5" font-family="Helvetica,sans-Serif" font-size="10.00">pism::Component</text>
</a>
</g>
</g>
<!-- Node3&#45;&gt;Node2 -->
<g id="edge2" class="edge">
<title>Node3&#45;&gt;Node2</title>
<path fill="none" stroke="midnightblue" d="M145.5,-157.8C145.5,-148.91 145.5,-138.78 145.5,-131.75"/>
<polygon fill="midnightblue" stroke="midnightblue" points="142,-158.08 145.5,-168.08 149,-158.08 142,-158.08"/>
</g>
</g>
</svg>
