<?xml version="1.0" encoding="UTF-8" standalone="no"?>
<!DOCTYPE svg PUBLIC "-//W3C//DTD SVG 1.1//EN"
 "http://www.w3.org/Graphics/SVG/1.1/DTD/svg11.dtd">
<!-- Generated by graphviz version 2.43.0 (0)
 -->
<!-- Title: pism::diagnostics::scalar::IceMassRateOfChange Pages: 1 -->
<svg width="301pt" height="242pt"
 viewBox="0.00 0.00 300.50 242.00" xmlns="http://www.w3.org/2000/svg" xmlns:xlink="http://www.w3.org/1999/xlink">
<g id="graph0" class="graph" transform="scale(1 1) rotate(0) translate(4 238)">
<title>pism::diagnostics::scalar::IceMassRateOfChange</title>
<!-- Node1 -->
<g id="node1" class="node">
<title>Node1</title>
<g id="a_node1"><a xlink:title="Computes the rate of change of the total ice mass.">
<polygon fill="#bfbfbf" stroke="black" points="58.5,-0.5 58.5,-30.5 220.5,-30.5 220.5,-0.5 58.5,-0.5"/>
<text text-anchor="start" x="66.5" y="-18.5" font-family="Helvetica,sans-Serif" font-size="10.00">pism::diagnostics::</text>
<text text-anchor="middle" x="139.5" y="-7.5" font-family="Helvetica,sans-Serif" font-size="10.00">scalar::IceMassRateOfChange</text>
</a>
</g>
</g>
<!-- Node2 -->
<g id="node2" class="node">
<title>Node2</title>
<g id="a_node2"><a xlink:href="classpism_1_1TSDiag.html" target="_top" xlink:title=" ">
<polygon fill="none" stroke="black" points="48.5,-68.5 48.5,-98.5 230.5,-98.5 230.5,-68.5 48.5,-68.5"/>
<text text-anchor="start" x="56.5" y="-86.5" font-family="Helvetica,sans-Serif" font-size="10.00">pism::TSDiag&lt; TSRateDiagnostic,</text>
<text text-anchor="middle" x="139.5" y="-75.5" font-family="Helvetica,sans-Serif" font-size="10.00"> IceModel &gt;</text>
</a>
</g>
</g>
<!-- Node2&#45;&gt;Node1 -->
<g id="edge1" class="edge">
<title>Node2&#45;&gt;Node1</title>
<path fill="none" stroke="midnightblue" d="M139.5,-58.03C139.5,-48.86 139.5,-38.74 139.5,-30.79"/>
<polygon fill="midnightblue" stroke="midnightblue" points="136,-58.18 139.5,-68.18 143,-58.18 136,-58.18"/>
</g>
<!-- Node3 -->
<g id="node3" class="node">
<title>Node3</title>
<g id="a_node3"><a xlink:href="classpism_1_1TSRateDiagnostic.html" target="_top" xlink:title="Scalar diagnostic reporting the rate of change of a quantity modeled by PISM.">
<polygon fill="none" stroke="black" points="0,-157.5 0,-176.5 133,-176.5 133,-157.5 0,-157.5"/>
<text text-anchor="middle" x="66.5" y="-164.5" font-family="Helvetica,sans-Serif" font-size="10.00">pism::TSRateDiagnostic</text>
</a>
</g>
</g>
<!-- Node3&#45;&gt;Node2 -->
<g id="edge2" class="edge">
<title>Node3&#45;&gt;Node2</title>
<path fill="none" stroke="midnightblue" d="M81.02,-149.78C94.42,-134.83 114.11,-112.84 126.87,-98.6"/>
<polygon fill="midnightblue" stroke="midnightblue" points="78.38,-147.49 74.31,-157.28 83.59,-152.16 78.38,-147.49"/>
</g>
<!-- Node4 -->
<g id="node4" class="node">
<title>Node4</title>
<g id="a_node4"><a xlink:href="classpism_1_1TSDiagnostic.html" target="_top" xlink:title="PISM&#39;s scalar time&#45;series diagnostics.">
<polygon fill="none" stroke="black" points="11.5,-214.5 11.5,-233.5 121.5,-233.5 121.5,-214.5 11.5,-214.5"/>
<text text-anchor="middle" x="66.5" y="-221.5" font-family="Helvetica,sans-Serif" font-size="10.00">pism::TSDiagnostic</text>
</a>
</g>
</g>
<!-- Node4&#45;&gt;Node3 -->
<g id="edge3" class="edge">
<title>Node4&#45;&gt;Node3</title>
<path fill="none" stroke="midnightblue" d="M66.5,-204.12C66.5,-194.82 66.5,-184.06 66.5,-176.71"/>
<polygon fill="midnightblue" stroke="midnightblue" points="63,-204.41 66.5,-214.41 70,-204.41 63,-204.41"/>
</g>
<!-- Node5 -->
<g id="node5" class="node">
<title>Node5</title>
<g id="a_node5"><a xlink:href="classpism_1_1TSDiag.html" target="_top" xlink:title=" ">
<polygon fill="none" stroke="black" points="151.5,-157.5 151.5,-176.5 277.5,-176.5 277.5,-157.5 151.5,-157.5"/>
<text text-anchor="middle" x="214.5" y="-164.5" font-family="Helvetica,sans-Serif" font-size="10.00">pism::TSDiag&lt; D, M &gt;</text>
</a>
</g>
</g>
<!-- Node5&#45;&gt;Node2 -->
<g id="edge4" class="edge">
<title>Node5&#45;&gt;Node2</title>
<path fill="none" stroke="orange" stroke-dasharray="5,2" d="M199.58,-149.78C185.81,-134.83 165.58,-112.84 152.47,-98.6"/>
<polygon fill="orange" stroke="orange" points="197.13,-152.29 206.47,-157.28 202.28,-147.55 197.13,-152.29"/>
<text text-anchor="start" x="188.5" y="-131" font-family="Helvetica,sans-Serif" font-size="10.00"> &lt; TSRateDiagnostic,</text>
<text text-anchor="middle" x="240.5" y="-120" font-family="Helvetica,sans-Serif" font-size="10.00"> IceModel &gt;</text>
</g>
<!-- Node6 -->
<g id="node6" class="node">
<title>Node6</title>
<g id="a_node6"><a xlink:href="classD.html" target="_top" xlink:title=" ">
<polygon fill="none" stroke="black" points="200,-214.5 200,-233.5 229,-233.5 229,-214.5 200,-214.5"/>
<text text-anchor="middle" x="214.5" y="-221.5" font-family="Helvetica,sans-Serif" font-size="10.00">D</text>
</a>
</g>
</g>
<!-- Node6&#45;&gt;Node5 -->
<g id="edge5" class="edge">
<title>Node6&#45;&gt;Node5</title>
<path fill="none" stroke="midnightblue" d="M214.5,-204.12C214.5,-194.82 214.5,-184.06 214.5,-176.71"/>
<polygon fill="midnightblue" stroke="midnightblue" points="211,-204.41 214.5,-214.41 218,-204.41 211,-204.41"/>
</g>
</g>
</svg>
