<?xml version="1.0" encoding="UTF-8" standalone="no"?>
<!DOCTYPE svg PUBLIC "-//W3C//DTD SVG 1.1//EN"
 "http://www.w3.org/Graphics/SVG/1.1/DTD/svg11.dtd">
<!-- Generated by graphviz version 2.43.0 (0)
 -->
<!-- Title: pism::IceModelVec Pages: 1 -->
<svg width="1130pt" height="283pt"
 viewBox="0.00 0.00 1130.00 283.00" xmlns="http://www.w3.org/2000/svg" xmlns:xlink="http://www.w3.org/1999/xlink">
<g id="graph0" class="graph" transform="scale(1 1) rotate(0) translate(4 279)">
<title>pism::IceModelVec</title>
<!-- Node1 -->
<g id="node1" class="node">
<title>Node1</title>
<g id="a_node1"><a xlink:title="Abstract class for reading, writing, allocating, and accessing a DA&#45;based PETSc Vec (2D and 3D fields...">
<polygon fill="#bfbfbf" stroke="black" points="162,-69.5 162,-88.5 270,-88.5 270,-69.5 162,-69.5"/>
<text text-anchor="middle" x="216" y="-76.5" font-family="Helvetica,sans-Serif" font-size="10.00">pism::IceModelVec</text>
</a>
</g>
</g>
<!-- Node3 -->
<g id="node3" class="node">
<title>Node3</title>
<g id="a_node3"><a xlink:href="classpism_1_1IceModelVec2.html" target="_top" xlink:title=" ">
<polygon fill="none" stroke="black" points="307,-95.5 307,-114.5 421,-114.5 421,-95.5 307,-95.5"/>
<text text-anchor="middle" x="364" y="-102.5" font-family="Helvetica,sans-Serif" font-size="10.00">pism::IceModelVec2</text>
</a>
</g>
</g>
<!-- Node1&#45;&gt;Node3 -->
<g id="edge2" class="edge">
<title>Node1&#45;&gt;Node3</title>
<path fill="none" stroke="midnightblue" d="M280.1,-90.24C289.79,-91.96 299.72,-93.73 309.18,-95.42"/>
<polygon fill="midnightblue" stroke="midnightblue" points="280.58,-86.77 270.12,-88.46 279.35,-93.66 280.58,-86.77"/>
</g>
<!-- Node14 -->
<g id="node14" class="node">
<title>Node14</title>
<g id="a_node14"><a xlink:href="classpism_1_1IceModelVec3.html" target="_top" xlink:title="A virtual class collecting methods common to ice and bedrock 3D fields.">
<polygon fill="none" stroke="black" points="307,-57.5 307,-76.5 421,-76.5 421,-57.5 307,-57.5"/>
<text text-anchor="middle" x="364" y="-64.5" font-family="Helvetica,sans-Serif" font-size="10.00">pism::IceModelVec3</text>
</a>
</g>
</g>
<!-- Node1&#45;&gt;Node14 -->
<g id="edge16" class="edge">
<title>Node1&#45;&gt;Node14</title>
<path fill="none" stroke="midnightblue" d="M280.32,-73.8C289.1,-73.07 298.08,-72.34 306.72,-71.63"/>
<polygon fill="midnightblue" stroke="midnightblue" points="279.8,-70.33 270.12,-74.63 280.38,-77.3 279.8,-70.33"/>
</g>
<!-- Node2 -->
<g id="node2" class="node">
<title>Node2</title>
<g id="a_node2"><a xlink:href="classpism_1_1PetscAccessible.html" target="_top" xlink:title=" ">
<polygon fill="none" stroke="black" points="0,-69.5 0,-88.5 125,-88.5 125,-69.5 0,-69.5"/>
<text text-anchor="middle" x="62.5" y="-76.5" font-family="Helvetica,sans-Serif" font-size="10.00">pism::PetscAccessible</text>
</a>
</g>
</g>
<!-- Node2&#45;&gt;Node1 -->
<g id="edge1" class="edge">
<title>Node2&#45;&gt;Node1</title>
<path fill="none" stroke="midnightblue" d="M135.15,-79C144.09,-79 153.1,-79 161.69,-79"/>
<polygon fill="midnightblue" stroke="midnightblue" points="135.12,-75.5 125.12,-79 135.12,-82.5 135.12,-75.5"/>
</g>
<!-- Node4 -->
<g id="node4" class="node">
<title>Node4</title>
<g id="a_node4"><a xlink:href="classpism_1_1IceModelVec2Struct.html" target="_top" xlink:title=" ">
<polygon fill="none" stroke="black" points="787,-233.5 787,-274.5 930,-274.5 930,-233.5 787,-233.5"/>
<text text-anchor="start" x="795" y="-262.5" font-family="Helvetica,sans-Serif" font-size="10.00">pism::IceModelVec2Struct</text>
<text text-anchor="start" x="795" y="-251.5" font-family="Helvetica,sans-Serif" font-size="10.00">&lt; pism::stressbalance::</text>
<text text-anchor="middle" x="858.5" y="-240.5" font-family="Helvetica,sans-Serif" font-size="10.00">SSAFEM::Coefficients &gt;</text>
</a>
</g>
</g>
<!-- Node3&#45;&gt;Node4 -->
<g id="edge3" class="edge">
<title>Node3&#45;&gt;Node4</title>
<path fill="none" stroke="midnightblue" d="M376.51,-123.18C392.13,-146.37 422.26,-186.09 458,-208 559.19,-270.03 702.16,-269.96 786.79,-262.92"/>
<polygon fill="midnightblue" stroke="midnightblue" points="379.31,-121.07 370.9,-114.63 373.45,-124.91 379.31,-121.07"/>
</g>
<!-- Node5 -->
<g id="node5" class="node">
<title>Node5</title>
<g id="a_node5"><a xlink:href="classpism_1_1IceModelVec2Struct.html" target="_top" xlink:title=" ">
<polygon fill="none" stroke="black" points="787,-179 787,-209 930,-209 930,-179 787,-179"/>
<text text-anchor="start" x="795" y="-197" font-family="Helvetica,sans-Serif" font-size="10.00">pism::IceModelVec2Struct</text>
<text text-anchor="middle" x="858.5" y="-186" font-family="Helvetica,sans-Serif" font-size="10.00">&lt; Vector2 &gt;</text>
</a>
</g>
</g>
<!-- Node3&#45;&gt;Node5 -->
<g id="edge4" class="edge">
<title>Node3&#45;&gt;Node5</title>
<path fill="none" stroke="midnightblue" d="M431.4,-109.78C544.14,-117.98 761.58,-134.21 769,-138 779.95,-143.59 777.3,-151.45 787,-159 797.03,-166.81 809.07,-173.56 820.35,-179"/>
<polygon fill="midnightblue" stroke="midnightblue" points="431.39,-106.27 421.16,-109.03 430.88,-113.25 431.39,-106.27"/>
</g>
<!-- Node7 -->
<g id="node7" class="node">
<title>Node7</title>
<g id="a_node7"><a xlink:href="classpism_1_1IceModelVec2Struct.html" target="_top" xlink:title=" ">
<polygon fill="none" stroke="black" points="787,-108.5 787,-149.5 930,-149.5 930,-108.5 787,-108.5"/>
<text text-anchor="start" x="795" y="-137.5" font-family="Helvetica,sans-Serif" font-size="10.00">pism::IceModelVec2Struct</text>
<text text-anchor="start" x="795" y="-126.5" font-family="Helvetica,sans-Serif" font-size="10.00">&lt; pism::stressbalance::</text>
<text text-anchor="middle" x="858.5" y="-115.5" font-family="Helvetica,sans-Serif" font-size="10.00">Blatter::Parameters &gt;</text>
</a>
</g>
</g>
<!-- Node3&#45;&gt;Node7 -->
<g id="edge6" class="edge">
<title>Node3&#45;&gt;Node7</title>
<path fill="none" stroke="midnightblue" d="M431.55,-101.79C511.83,-98.84 650.76,-96.71 769,-110 774.78,-110.65 780.73,-111.51 786.7,-112.5"/>
<polygon fill="midnightblue" stroke="midnightblue" points="430.95,-98.31 421.09,-102.19 431.22,-105.3 430.95,-98.31"/>
</g>
<!-- Node8 -->
<g id="node8" class="node">
<title>Node8</title>
<g id="a_node8"><a xlink:href="classpism_1_1IceModelVec2S.html" target="_top" xlink:title=" ">
<polygon fill="none" stroke="black" points="483.5,-38.5 483.5,-57.5 603.5,-57.5 603.5,-38.5 483.5,-38.5"/>
<text text-anchor="middle" x="543.5" y="-45.5" font-family="Helvetica,sans-Serif" font-size="10.00">pism::IceModelVec2S</text>
</a>
</g>
</g>
<!-- Node3&#45;&gt;Node8 -->
<g id="edge7" class="edge">
<title>Node3&#45;&gt;Node8</title>
<path fill="none" stroke="midnightblue" d="M408.61,-91.82C412.88,-90.05 417.08,-88.11 421,-86 429.92,-81.19 429.85,-76.36 439,-72 452.74,-65.46 468.37,-60.64 483.25,-57.11"/>
<polygon fill="midnightblue" stroke="midnightblue" points="407.32,-88.57 399.23,-95.41 409.82,-95.11 407.32,-88.57"/>
</g>
<!-- Node12 -->
<g id="node12" class="node">
<title>Node12</title>
<g id="a_node12"><a xlink:href="classpism_1_1IceModelVec2Stag.html" target="_top" xlink:title="A class for storing and accessing internal staggered&#45;grid 2D fields. Uses dof=2 storage....">
<polygon fill="none" stroke="black" points="475.5,-0.5 475.5,-19.5 611.5,-19.5 611.5,-0.5 475.5,-0.5"/>
<text text-anchor="middle" x="543.5" y="-7.5" font-family="Helvetica,sans-Serif" font-size="10.00">pism::IceModelVec2Stag</text>
</a>
</g>
</g>
<!-- Node3&#45;&gt;Node12 -->
<g id="edge11" class="edge">
<title>Node3&#45;&gt;Node12</title>
<path fill="none" stroke="midnightblue" d="M413.57,-90.92C416.18,-89.44 418.68,-87.8 421,-86 444.84,-67.46 433.21,-46.26 458,-29 463.55,-25.13 469.77,-22.04 476.23,-19.57"/>
<polygon fill="midnightblue" stroke="midnightblue" points="411.82,-87.88 404.37,-95.42 414.89,-94.18 411.82,-87.88"/>
</g>
<!-- Node13 -->
<g id="node13" class="node">
<title>Node13</title>
<g id="a_node13"><a xlink:href="classpism_1_1IceModelVec2Struct.html" target="_top" xlink:title="A storage vector combining related fields in a struct.">
<polygon fill="none" stroke="black" points="458,-179.5 458,-198.5 629,-198.5 629,-179.5 458,-179.5"/>
<text text-anchor="middle" x="543.5" y="-186.5" font-family="Helvetica,sans-Serif" font-size="10.00">pism::IceModelVec2Struct&lt; T &gt;</text>
</a>
</g>
</g>
<!-- Node3&#45;&gt;Node13 -->
<g id="edge12" class="edge">
<title>Node3&#45;&gt;Node13</title>
<path fill="none" stroke="midnightblue" d="M394.45,-118.93C430.64,-136.06 491.09,-164.67 522.38,-179.48"/>
<polygon fill="midnightblue" stroke="midnightblue" points="395.9,-115.75 385.36,-114.64 392.9,-122.08 395.9,-115.75"/>
</g>
<!-- Node6 -->
<g id="node6" class="node">
<title>Node6</title>
<g id="a_node6"><a xlink:href="classpism_1_1IceModelVec2V.html" target="_top" xlink:title=" ">
<polygon fill="none" stroke="black" points="984,-184.5 984,-203.5 1105,-203.5 1105,-184.5 984,-184.5"/>
<text text-anchor="middle" x="1044.5" y="-191.5" font-family="Helvetica,sans-Serif" font-size="10.00">pism::IceModelVec2V</text>
</a>
</g>
</g>
<!-- Node5&#45;&gt;Node6 -->
<g id="edge5" class="edge">
<title>Node5&#45;&gt;Node6</title>
<path fill="none" stroke="midnightblue" d="M940.19,-194C954.86,-194 969.92,-194 983.85,-194"/>
<polygon fill="midnightblue" stroke="midnightblue" points="940.11,-190.5 930.11,-194 940.11,-197.5 940.11,-190.5"/>
</g>
<!-- Node9 -->
<g id="node9" class="node">
<title>Node9</title>
<g id="a_node9"><a xlink:href="classpism_1_1IceModelVec2Int.html" target="_top" xlink:title="A simple class &quot;hiding&quot; the fact that the mask is stored as floating&#45;point scalars (instead of intege...">
<polygon fill="none" stroke="black" points="795,-50.5 795,-69.5 922,-69.5 922,-50.5 795,-50.5"/>
<text text-anchor="middle" x="858.5" y="-57.5" font-family="Helvetica,sans-Serif" font-size="10.00">pism::IceModelVec2Int</text>
</a>
</g>
</g>
<!-- Node8&#45;&gt;Node9 -->
<g id="edge8" class="edge">
<title>Node8&#45;&gt;Node9</title>
<path fill="none" stroke="midnightblue" d="M613.93,-50.66C668.01,-52.74 742.44,-55.59 794.74,-57.59"/>
<polygon fill="midnightblue" stroke="midnightblue" points="613.87,-47.16 603.74,-50.27 613.6,-54.15 613.87,-47.16"/>
</g>
<!-- Node11 -->
<g id="node11" class="node">
<title>Node11</title>
<g id="a_node11"><a xlink:href="classpism_1_1IceModelVec2T.html" target="_top" xlink:title="A class for storing and accessing 2D time&#45;series (for climate forcing)">
<polygon fill="none" stroke="black" points="798.5,-12.5 798.5,-31.5 918.5,-31.5 918.5,-12.5 798.5,-12.5"/>
<text text-anchor="middle" x="858.5" y="-19.5" font-family="Helvetica,sans-Serif" font-size="10.00">pism::IceModelVec2T</text>
</a>
</g>
</g>
<!-- Node8&#45;&gt;Node11 -->
<g id="edge10" class="edge">
<title>Node8&#45;&gt;Node11</title>
<path fill="none" stroke="midnightblue" d="M613.81,-42.24C669.11,-37.65 745.76,-31.28 798.24,-26.92"/>
<polygon fill="midnightblue" stroke="midnightblue" points="613.42,-38.76 603.74,-43.08 614,-45.74 613.42,-38.76"/>
</g>
<!-- Node10 -->
<g id="node10" class="node">
<title>Node10</title>
<g id="a_node10"><a xlink:href="classpism_1_1IceModelVec2CellType.html" target="_top" xlink:title="&quot;Cell type&quot; mask. Adds convenience methods to IceModelVec2Int.">
<polygon fill="none" stroke="black" points="967,-50.5 967,-69.5 1122,-69.5 1122,-50.5 967,-50.5"/>
<text text-anchor="middle" x="1044.5" y="-57.5" font-family="Helvetica,sans-Serif" font-size="10.00">pism::IceModelVec2CellType</text>
</a>
</g>
</g>
<!-- Node9&#45;&gt;Node10 -->
<g id="edge9" class="edge">
<title>Node9&#45;&gt;Node10</title>
<path fill="none" stroke="midnightblue" d="M932.32,-60C943.64,-60 955.37,-60 966.78,-60"/>
<polygon fill="midnightblue" stroke="midnightblue" points="932.05,-56.5 922.05,-60 932.05,-63.5 932.05,-56.5"/>
</g>
<!-- Node13&#45;&gt;Node4 -->
<g id="edge13" class="edge">
<title>Node13&#45;&gt;Node4</title>
<path fill="none" stroke="orange" stroke-dasharray="5,2" d="M600.42,-200.61C652.54,-211.44 730.51,-227.63 786.91,-239.34"/>
<polygon fill="orange" stroke="orange" points="600.85,-197.13 590.35,-198.52 599.43,-203.98 600.85,-197.13"/>
<text text-anchor="start" x="647" y="-248" font-family="Helvetica,sans-Serif" font-size="10.00"> &lt; pism::stressbalance</text>
<text text-anchor="middle" x="708" y="-237" font-family="Helvetica,sans-Serif" font-size="10.00">::SSAFEM::Coefficients &gt;</text>
</g>
<!-- Node13&#45;&gt;Node5 -->
<g id="edge14" class="edge">
<title>Node13&#45;&gt;Node5</title>
<path fill="none" stroke="orange" stroke-dasharray="5,2" d="M639.48,-190.52C686.88,-191.27 743.22,-192.17 786.76,-192.87"/>
<polygon fill="orange" stroke="orange" points="639.26,-187.01 629.2,-190.35 639.15,-194.01 639.26,-187.01"/>
<text text-anchor="middle" x="708" y="-195" font-family="Helvetica,sans-Serif" font-size="10.00"> &lt; Vector2 &gt;</text>
</g>
<!-- Node13&#45;&gt;Node7 -->
<g id="edge15" class="edge">
<title>Node13&#45;&gt;Node7</title>
<path fill="none" stroke="orange" stroke-dasharray="5,2" d="M590.86,-176.92C608.39,-172.55 628.55,-167.78 647,-164 693.27,-154.52 745.67,-145.8 786.61,-139.44"/>
<polygon fill="orange" stroke="orange" points="589.72,-173.59 580.88,-179.43 591.43,-180.38 589.72,-173.59"/>
<text text-anchor="start" x="652" y="-178" font-family="Helvetica,sans-Serif" font-size="10.00"> &lt; pism::stressbalance</text>
<text text-anchor="middle" x="708" y="-167" font-family="Helvetica,sans-Serif" font-size="10.00">::Blatter::Parameters &gt;</text>
</g>
</g>
</svg>
