<?xml version="1.0" encoding="UTF-8" standalone="no"?>
<!DOCTYPE svg PUBLIC "-//W3C//DTD SVG 1.1//EN"
 "http://www.w3.org/Graphics/SVG/1.1/DTD/svg11.dtd">
<!-- Generated by graphviz version 2.43.0 (0)
 -->
<!-- Title: Graphical Class Hierarchy Pages: 1 -->
<svg width="296pt" height="66pt"
 viewBox="0.00 0.00 296.00 66.00" xmlns="http://www.w3.org/2000/svg" xmlns:xlink="http://www.w3.org/1999/xlink">
<g id="graph0" class="graph" transform="scale(1 1) rotate(0) translate(4 62)">
<title>Graphical Class Hierarchy</title>
<!-- Node0 -->
<g id="node1" class="node">
<title>Node0</title>
<g id="a_node1"><a xlink:href="classpism_1_1options_1_1Option.html" target="_top" xlink:title=" ">
<polygon fill="none" stroke="black" points="0,-14 0,-44 121,-44 121,-14 0,-14"/>
<text text-anchor="start" x="8" y="-32" font-family="Helvetica,sans-Serif" font-size="10.00">pism::options::Option</text>
<text text-anchor="middle" x="60.5" y="-21" font-family="Helvetica,sans-Serif" font-size="10.00">&lt; std::string &gt;</text>
</a>
</g>
</g>
<!-- Node1 -->
<g id="node2" class="node">
<title>Node1</title>
<g id="a_node2"><a xlink:href="classpism_1_1options_1_1Keyword.html" target="_top" xlink:title=" ">
<polygon fill="none" stroke="black" points="157,-38.5 157,-57.5 288,-57.5 288,-38.5 157,-38.5"/>
<text text-anchor="middle" x="222.5" y="-45.5" font-family="Helvetica,sans-Serif" font-size="10.00">pism::options::Keyword</text>
</a>
</g>
</g>
<!-- Node0&#45;&gt;Node1 -->
<g id="edge1" class="edge">
<title>Node0&#45;&gt;Node1</title>
<path fill="none" stroke="midnightblue" d="M131.02,-37.26C139.58,-38.27 148.29,-39.31 156.77,-40.31"/>
<polygon fill="midnightblue" stroke="midnightblue" points="131.42,-33.78 121.08,-36.07 130.6,-40.73 131.42,-33.78"/>
</g>
<!-- Node2 -->
<g id="node3" class="node">
<title>Node2</title>
<g id="a_node3"><a xlink:href="classpism_1_1options_1_1String.html" target="_top" xlink:title=" ">
<polygon fill="none" stroke="black" points="164,-0.5 164,-19.5 281,-19.5 281,-0.5 164,-0.5"/>
<text text-anchor="middle" x="222.5" y="-7.5" font-family="Helvetica,sans-Serif" font-size="10.00">pism::options::String</text>
</a>
</g>
</g>
<!-- Node0&#45;&gt;Node2 -->
<g id="edge2" class="edge">
<title>Node0&#45;&gt;Node2</title>
<path fill="none" stroke="midnightblue" d="M131.07,-20.74C142.06,-19.43 153.32,-18.1 164,-16.83"/>
<polygon fill="midnightblue" stroke="midnightblue" points="130.6,-17.27 121.08,-21.93 131.42,-24.22 130.6,-17.27"/>
</g>
</g>
</svg>
