<?xml version="1.0" encoding="UTF-8" standalone="no"?>
<!DOCTYPE svg PUBLIC "-//W3C//DTD SVG 1.1//EN"
 "http://www.w3.org/Graphics/SVG/1.1/DTD/svg11.dtd">
<!-- Generated by graphviz version 2.43.0 (0)
 -->
<!-- Title: Graphical Class Hierarchy Pages: 1 -->
<svg width="550pt" height="186pt"
 viewBox="0.00 0.00 550.00 186.00" xmlns="http://www.w3.org/2000/svg" xmlns:xlink="http://www.w3.org/1999/xlink">
<g id="graph0" class="graph" transform="scale(1 1) rotate(0) translate(4 182)">
<title>Graphical Class Hierarchy</title>
<!-- Node0 -->
<g id="node1" class="node">
<title>Node0</title>
<g id="a_node1"><a xlink:href="classpism_1_1inverse_1_1IPFunctional.html" target="_top" xlink:title=" ">
<polygon fill="none" stroke="black" points="0,-48.5 0,-78.5 148,-78.5 148,-48.5 0,-48.5"/>
<text text-anchor="start" x="8" y="-66.5" font-family="Helvetica,sans-Serif" font-size="10.00">pism::inverse::IPFunctional</text>
<text text-anchor="middle" x="74" y="-55.5" font-family="Helvetica,sans-Serif" font-size="10.00">&lt; IceModelVec2S &gt;</text>
</a>
</g>
</g>
<!-- Node1 -->
<g id="node2" class="node">
<title>Node1</title>
<g id="a_node2"><a xlink:href="classpism_1_1inverse_1_1IPInnerProductFunctional.html" target="_top" xlink:title=" ">
<polygon fill="none" stroke="black" points="184.5,-73.5 184.5,-103.5 347.5,-103.5 347.5,-73.5 184.5,-73.5"/>
<text text-anchor="start" x="192.5" y="-91.5" font-family="Helvetica,sans-Serif" font-size="10.00">pism::inverse::IPInnerProduct</text>
<text text-anchor="middle" x="266" y="-80.5" font-family="Helvetica,sans-Serif" font-size="10.00">Functional&lt; IceModelVec2S &gt;</text>
</a>
</g>
</g>
<!-- Node0&#45;&gt;Node1 -->
<g id="edge1" class="edge">
<title>Node0&#45;&gt;Node1</title>
<path fill="none" stroke="midnightblue" d="M158.25,-74.45C166.89,-75.59 175.66,-76.74 184.27,-77.88"/>
<polygon fill="midnightblue" stroke="midnightblue" points="158.56,-70.96 148.19,-73.13 157.65,-77.9 158.56,-70.96"/>
</g>
<!-- Node6 -->
<g id="node7" class="node">
<title>Node6</title>
<g id="a_node7"><a xlink:href="classpism_1_1inverse_1_1IPTotalVariationFunctional2S.html" target="_top" xlink:title="Pseduo total variation functional.">
<polygon fill="none" stroke="black" points="184,-24.5 184,-54.5 348,-54.5 348,-24.5 184,-24.5"/>
<text text-anchor="start" x="192" y="-42.5" font-family="Helvetica,sans-Serif" font-size="10.00">pism::inverse::IPTotalVariation</text>
<text text-anchor="middle" x="266" y="-31.5" font-family="Helvetica,sans-Serif" font-size="10.00">Functional2S</text>
</a>
</g>
</g>
<!-- Node0&#45;&gt;Node6 -->
<g id="edge6" class="edge">
<title>Node0&#45;&gt;Node6</title>
<path fill="none" stroke="midnightblue" d="M158.16,-53C166.72,-51.91 175.41,-50.82 183.95,-49.74"/>
<polygon fill="midnightblue" stroke="midnightblue" points="157.67,-49.53 148.19,-54.26 158.55,-56.47 157.67,-49.53"/>
</g>
<!-- Node2 -->
<g id="node3" class="node">
<title>Node2</title>
<g id="a_node3"><a xlink:href="classpism_1_1inverse_1_1IPGroundedIceH1NormFunctional2S.html" target="_top" xlink:title="Implements a functional corresponding to (the square of) an &#160;norm of a scalar valued function over a ...">
<polygon fill="none" stroke="black" points="390.5,-147.5 390.5,-177.5 535.5,-177.5 535.5,-147.5 390.5,-147.5"/>
<text text-anchor="start" x="398.5" y="-165.5" font-family="Helvetica,sans-Serif" font-size="10.00">pism::inverse::IPGrounded</text>
<text text-anchor="middle" x="463" y="-154.5" font-family="Helvetica,sans-Serif" font-size="10.00">IceH1NormFunctional2S</text>
</a>
</g>
</g>
<!-- Node1&#45;&gt;Node2 -->
<g id="edge2" class="edge">
<title>Node1&#45;&gt;Node2</title>
<path fill="none" stroke="midnightblue" d="M309.07,-107.75C331.16,-117.53 358.8,-129.27 384,-138.5 392.38,-141.57 401.36,-144.58 410.14,-147.38"/>
<polygon fill="midnightblue" stroke="midnightblue" points="310.22,-104.43 299.66,-103.55 307.37,-110.82 310.22,-104.43"/>
</g>
<!-- Node3 -->
<g id="node4" class="node">
<title>Node3</title>
<g id="a_node4"><a xlink:href="classpism_1_1inverse_1_1IPMeanSquareFunctional2S.html" target="_top" xlink:title="Implements a functional corresponding to a (possibly weighted) sum of squares of components of an Ice...">
<polygon fill="none" stroke="black" points="384,-98.5 384,-128.5 542,-128.5 542,-98.5 384,-98.5"/>
<text text-anchor="start" x="392" y="-116.5" font-family="Helvetica,sans-Serif" font-size="10.00">pism::inverse::IPMeanSquare</text>
<text text-anchor="middle" x="463" y="-105.5" font-family="Helvetica,sans-Serif" font-size="10.00">Functional2S</text>
</a>
</g>
</g>
<!-- Node1&#45;&gt;Node3 -->
<g id="edge3" class="edge">
<title>Node1&#45;&gt;Node3</title>
<path fill="none" stroke="midnightblue" d="M357.87,-100.15C366.55,-101.26 375.3,-102.38 383.85,-103.48"/>
<polygon fill="midnightblue" stroke="midnightblue" points="358.09,-96.65 347.72,-98.85 357.2,-103.59 358.09,-96.65"/>
</g>
<!-- Node4 -->
<g id="node5" class="node">
<title>Node4</title>
<g id="a_node5"><a xlink:href="classpism_1_1inverse_1_1IP__H1NormFunctional2S.html" target="_top" xlink:title="Implements a functional corresponding to (the square of) an &#160;norm of a scalar valued function.">
<polygon fill="none" stroke="black" points="391.5,-49.5 391.5,-79.5 534.5,-79.5 534.5,-49.5 391.5,-49.5"/>
<text text-anchor="start" x="399.5" y="-67.5" font-family="Helvetica,sans-Serif" font-size="10.00">pism::inverse::IP_H1Norm</text>
<text text-anchor="middle" x="463" y="-56.5" font-family="Helvetica,sans-Serif" font-size="10.00">Functional2S</text>
</a>
</g>
</g>
<!-- Node1&#45;&gt;Node4 -->
<g id="edge4" class="edge">
<title>Node1&#45;&gt;Node4</title>
<path fill="none" stroke="midnightblue" d="M357.95,-77.31C369.15,-75.93 380.46,-74.54 391.3,-73.2"/>
<polygon fill="midnightblue" stroke="midnightblue" points="357.22,-73.87 347.72,-78.57 358.07,-80.82 357.22,-73.87"/>
</g>
<!-- Node5 -->
<g id="node6" class="node">
<title>Node5</title>
<g id="a_node6"><a xlink:href="classpism_1_1inverse_1_1IP__L2NormFunctional2S.html" target="_top" xlink:title="Implements a functional corresponding to (the square of) an &#160;norm of a scalar valued function.">
<polygon fill="none" stroke="black" points="392.5,-0.5 392.5,-30.5 533.5,-30.5 533.5,-0.5 392.5,-0.5"/>
<text text-anchor="start" x="400.5" y="-18.5" font-family="Helvetica,sans-Serif" font-size="10.00">pism::inverse::IP_L2Norm</text>
<text text-anchor="middle" x="463" y="-7.5" font-family="Helvetica,sans-Serif" font-size="10.00">Functional2S</text>
</a>
</g>
</g>
<!-- Node1&#45;&gt;Node5 -->
<g id="edge5" class="edge">
<title>Node1&#45;&gt;Node5</title>
<path fill="none" stroke="midnightblue" d="M335.34,-69.88C339.67,-68.2 343.93,-66.41 348,-64.5 365.41,-56.34 366.68,-48.85 384,-40.5 391.69,-36.8 400.05,-33.45 408.36,-30.51"/>
<polygon fill="midnightblue" stroke="midnightblue" points="333.94,-66.66 325.74,-73.38 336.34,-73.24 333.94,-66.66"/>
</g>
</g>
</svg>
