<?xml version="1.0" encoding="UTF-8" standalone="no"?>
<!DOCTYPE svg PUBLIC "-//W3C//DTD SVG 1.1//EN"
 "http://www.w3.org/Graphics/SVG/1.1/DTD/svg11.dtd">
<!-- Generated by graphviz version 2.43.0 (0)
 -->
<!-- Title: Graphical Class Hierarchy Pages: 1 -->
<svg width="397pt" height="142pt"
 viewBox="0.00 0.00 397.00 142.00" xmlns="http://www.w3.org/2000/svg" xmlns:xlink="http://www.w3.org/1999/xlink">
<g id="graph0" class="graph" transform="scale(1 1) rotate(0) translate(4 138)">
<title>Graphical Class Hierarchy</title>
<!-- Node0 -->
<g id="node1" class="node">
<title>Node0</title>
<g id="a_node1"><a xlink:href="classpism_1_1io_1_1NCFile.html" target="_top" xlink:title="The PISM wrapper for a subset of the NetCDF C API.">
<polygon fill="none" stroke="black" points="0,-57.5 0,-76.5 93,-76.5 93,-57.5 0,-57.5"/>
<text text-anchor="middle" x="46.5" y="-64.5" font-family="Helvetica,sans-Serif" font-size="10.00">pism::io::NCFile</text>
</a>
</g>
</g>
<!-- Node1 -->
<g id="node2" class="node">
<title>Node1</title>
<g id="a_node2"><a xlink:href="classpism_1_1io_1_1NC4File.html" target="_top" xlink:title=" ">
<polygon fill="none" stroke="black" points="134,-114.5 134,-133.5 233,-133.5 233,-114.5 134,-114.5"/>
<text text-anchor="middle" x="183.5" y="-121.5" font-family="Helvetica,sans-Serif" font-size="10.00">pism::io::NC4File</text>
</a>
</g>
</g>
<!-- Node0&#45;&gt;Node1 -->
<g id="edge1" class="edge">
<title>Node0&#45;&gt;Node1</title>
<path fill="none" stroke="midnightblue" d="M75.79,-81C91.34,-88.49 111.05,-97.65 129,-105 137.03,-108.29 145.86,-111.56 153.99,-114.44"/>
<polygon fill="midnightblue" stroke="midnightblue" points="77.23,-77.81 66.7,-76.58 74.17,-84.1 77.23,-77.81"/>
</g>
<!-- Node3 -->
<g id="node4" class="node">
<title>Node3</title>
<g id="a_node4"><a xlink:href="classpism_1_1io_1_1NC__Serial.html" target="_top" xlink:title=" ">
<polygon fill="none" stroke="black" points="129,-76.5 129,-95.5 238,-95.5 238,-76.5 129,-76.5"/>
<text text-anchor="middle" x="183.5" y="-83.5" font-family="Helvetica,sans-Serif" font-size="10.00">pism::io::NC_Serial</text>
</a>
</g>
</g>
<!-- Node0&#45;&gt;Node3 -->
<g id="edge3" class="edge">
<title>Node0&#45;&gt;Node3</title>
<path fill="none" stroke="midnightblue" d="M103.35,-74.86C111.81,-76.05 120.51,-77.28 128.91,-78.46"/>
<polygon fill="midnightblue" stroke="midnightblue" points="103.6,-71.36 93.2,-73.43 102.62,-78.29 103.6,-71.36"/>
</g>
<!-- Node5 -->
<g id="node6" class="node">
<title>Node5</title>
<g id="a_node6"><a xlink:href="classpism_1_1io_1_1PNCFile.html" target="_top" xlink:title="PISM&#39;s PnetCDF I/O wrapper.">
<polygon fill="none" stroke="black" points="134,-38.5 134,-57.5 233,-57.5 233,-38.5 134,-38.5"/>
<text text-anchor="middle" x="183.5" y="-45.5" font-family="Helvetica,sans-Serif" font-size="10.00">pism::io::PNCFile</text>
</a>
</g>
</g>
<!-- Node0&#45;&gt;Node5 -->
<g id="edge5" class="edge">
<title>Node0&#45;&gt;Node5</title>
<path fill="none" stroke="midnightblue" d="M103.15,-59.17C113.25,-57.75 123.72,-56.27 133.61,-54.88"/>
<polygon fill="midnightblue" stroke="midnightblue" points="102.62,-55.71 93.2,-60.57 103.6,-62.64 102.62,-55.71"/>
</g>
<!-- Node6 -->
<g id="node7" class="node">
<title>Node6</title>
<g id="a_node7"><a xlink:href="classpism_1_1io_1_1ParallelIO.html" target="_top" xlink:title=" ">
<polygon fill="none" stroke="black" points="129.5,-0.5 129.5,-19.5 237.5,-19.5 237.5,-0.5 129.5,-0.5"/>
<text text-anchor="middle" x="183.5" y="-7.5" font-family="Helvetica,sans-Serif" font-size="10.00">pism::io::ParallelIO</text>
</a>
</g>
</g>
<!-- Node0&#45;&gt;Node6 -->
<g id="edge6" class="edge">
<title>Node0&#45;&gt;Node6</title>
<path fill="none" stroke="midnightblue" d="M75.79,-53C91.34,-45.51 111.05,-36.35 129,-29 137.03,-25.71 145.86,-22.44 153.99,-19.56"/>
<polygon fill="midnightblue" stroke="midnightblue" points="74.17,-49.9 66.7,-57.42 77.23,-56.19 74.17,-49.9"/>
</g>
<!-- Node2 -->
<g id="node3" class="node">
<title>Node2</title>
<g id="a_node3"><a xlink:href="classpism_1_1io_1_1NC4__Par.html" target="_top" xlink:title=" ">
<polygon fill="none" stroke="black" points="280.5,-114.5 280.5,-133.5 382.5,-133.5 382.5,-114.5 280.5,-114.5"/>
<text text-anchor="middle" x="331.5" y="-121.5" font-family="Helvetica,sans-Serif" font-size="10.00">pism::io::NC4_Par</text>
</a>
</g>
</g>
<!-- Node1&#45;&gt;Node2 -->
<g id="edge2" class="edge">
<title>Node1&#45;&gt;Node2</title>
<path fill="none" stroke="midnightblue" d="M243.27,-124C255.56,-124 268.41,-124 280.35,-124"/>
<polygon fill="midnightblue" stroke="midnightblue" points="243.12,-120.5 233.12,-124 243.12,-127.5 243.12,-120.5"/>
</g>
<!-- Node4 -->
<g id="node5" class="node">
<title>Node4</title>
<g id="a_node5"><a xlink:href="classpism_1_1io_1_1NC4__Serial.html" target="_top" xlink:title=" ">
<polygon fill="none" stroke="black" points="274,-76.5 274,-95.5 389,-95.5 389,-76.5 274,-76.5"/>
<text text-anchor="middle" x="331.5" y="-83.5" font-family="Helvetica,sans-Serif" font-size="10.00">pism::io::NC4_Serial</text>
</a>
</g>
</g>
<!-- Node3&#45;&gt;Node4 -->
<g id="edge4" class="edge">
<title>Node3&#45;&gt;Node4</title>
<path fill="none" stroke="midnightblue" d="M248.2,-86C256.63,-86 265.23,-86 273.53,-86"/>
<polygon fill="midnightblue" stroke="midnightblue" points="248.04,-82.5 238.04,-86 248.04,-89.5 248.04,-82.5"/>
</g>
</g>
</svg>
