<?xml version="1.0" encoding="UTF-8" standalone="no"?>
<!DOCTYPE svg PUBLIC "-//W3C//DTD SVG 1.1//EN"
 "http://www.w3.org/Graphics/SVG/1.1/DTD/svg11.dtd">
<!-- Generated by graphviz version 2.43.0 (0)
 -->
<!-- Title: Graphical Class Hierarchy Pages: 1 -->
<svg width="344pt" height="104pt"
 viewBox="0.00 0.00 344.00 104.00" xmlns="http://www.w3.org/2000/svg" xmlns:xlink="http://www.w3.org/1999/xlink">
<g id="graph0" class="graph" transform="scale(1 1) rotate(0) translate(4 100)">
<title>Graphical Class Hierarchy</title>
<!-- Node0 -->
<g id="node1" class="node">
<title>Node0</title>
<g id="a_node1"><a xlink:href="classpism_1_1columnSystemCtx.html" target="_top" xlink:title="Base class for tridiagonal systems in the ice.">
<polygon fill="none" stroke="black" points="0,-38.5 0,-57.5 136,-57.5 136,-38.5 0,-38.5"/>
<text text-anchor="middle" x="68" y="-45.5" font-family="Helvetica,sans-Serif" font-size="10.00">pism::columnSystemCtx</text>
</a>
</g>
</g>
<!-- Node1 -->
<g id="node2" class="node">
<title>Node1</title>
<g id="a_node2"><a xlink:href="classpism_1_1AgeColumnSystem.html" target="_top" xlink:title="Tridiagonal linear system for vertical column of age (pure advection) problem.">
<polygon fill="none" stroke="black" points="184,-76.5 184,-95.5 324,-95.5 324,-76.5 184,-76.5"/>
<text text-anchor="middle" x="254" y="-83.5" font-family="Helvetica,sans-Serif" font-size="10.00">pism::AgeColumnSystem</text>
</a>
</g>
</g>
<!-- Node0&#45;&gt;Node1 -->
<g id="edge1" class="edge">
<title>Node0&#45;&gt;Node1</title>
<path fill="none" stroke="midnightblue" d="M125.56,-59.68C151.65,-65.07 182.24,-71.39 206.9,-76.48"/>
<polygon fill="midnightblue" stroke="midnightblue" points="125.93,-56.18 115.43,-57.59 124.52,-63.04 125.93,-56.18"/>
</g>
<!-- Node2 -->
<g id="node3" class="node">
<title>Node2</title>
<g id="a_node3"><a xlink:href="classpism_1_1energy_1_1enthSystemCtx.html" target="_top" xlink:title="Tridiagonal linear system for conservation of energy in vertical column of ice enthalpy.">
<polygon fill="none" stroke="black" points="173.5,-38.5 173.5,-57.5 334.5,-57.5 334.5,-38.5 173.5,-38.5"/>
<text text-anchor="middle" x="254" y="-45.5" font-family="Helvetica,sans-Serif" font-size="10.00">pism::energy::enthSystemCtx</text>
</a>
</g>
</g>
<!-- Node0&#45;&gt;Node2 -->
<g id="edge2" class="edge">
<title>Node0&#45;&gt;Node2</title>
<path fill="none" stroke="midnightblue" d="M146.27,-48C155.26,-48 164.45,-48 173.48,-48"/>
<polygon fill="midnightblue" stroke="midnightblue" points="146.21,-44.5 136.21,-48 146.21,-51.5 146.21,-44.5"/>
</g>
<!-- Node3 -->
<g id="node4" class="node">
<title>Node3</title>
<g id="a_node4"><a xlink:href="classpism_1_1energy_1_1tempSystemCtx.html" target="_top" xlink:title="Tridiagonal linear system for vertical column of temperature&#45;based conservation of energy problem.">
<polygon fill="none" stroke="black" points="172,-0.5 172,-19.5 336,-19.5 336,-0.5 172,-0.5"/>
<text text-anchor="middle" x="254" y="-7.5" font-family="Helvetica,sans-Serif" font-size="10.00">pism::energy::tempSystemCtx</text>
</a>
</g>
</g>
<!-- Node0&#45;&gt;Node3 -->
<g id="edge3" class="edge">
<title>Node0&#45;&gt;Node3</title>
<path fill="none" stroke="midnightblue" d="M125.56,-36.32C151.65,-30.93 182.24,-24.61 206.9,-19.52"/>
<polygon fill="midnightblue" stroke="midnightblue" points="124.52,-32.96 115.43,-38.41 125.93,-39.82 124.52,-32.96"/>
</g>
</g>
</svg>
